<svg width="60" height="60" viewBox="0 0 60 60" fill="none" xmlns="http://www.w3.org/2000/svg">
<circle cx="30" cy="30" r="30" fill="#ECECFF"/>
<path d="M41.4993 19.3725H21.344C21.1322 19.3725 20.9506 19.4635 20.7993 19.5849L16.5927 23.7973C16.4716 23.9491 16.3809 24.1615 16.3809 24.3436V38.4624C16.3809 39.6157 17.319 40.5869 18.4993 40.5869H41.4993C42.6493 40.5869 43.6177 39.646 43.6177 38.4624V21.497C43.6177 20.3437 42.6795 19.3725 41.4993 19.3725Z" fill="black"/>
<path fill-rule="evenodd" clip-rule="evenodd" d="M41.4993 19.3725H21.344C21.1322 19.3725 20.9506 19.4635 20.7993 19.5849L16.5927 23.7973C16.4716 23.9491 16.3809 24.1615 16.3809 24.3436V38.4624C16.3809 39.6157 17.319 40.5869 18.4993 40.5869H41.4993C42.6493 40.5869 43.6177 39.646 43.6177 38.4624V21.497C43.6177 20.3437 42.6795 19.3725 41.4993 19.3725Z" fill="url(#paint0_linear)"/>
<path d="M39.4717 26.9295H33.7822V29.9645H40.5914V28.0524C40.5914 27.4454 40.077 26.9295 39.4717 26.9295Z" fill="white"/>
<rect x="33.7822" y="30.723" width="6.80921" height="3.03473" fill="white"/>
<path d="M27.7291 26.9296H22.0699C21.4344 26.9296 20.9199 27.4455 20.9199 28.0829V29.9645H27.7291V26.9296Z" fill="white"/>
<path d="M33.7822 37.5519H39.4717C40.1072 37.5519 40.6217 37.036 40.6217 36.3986V34.517H33.7822V37.5519Z" fill="white"/>
<path d="M28.4857 34.1528C28.4857 34.3652 28.3041 34.5473 28.0923 34.5473H20.9199V36.4593C20.9199 37.0967 21.4344 37.6126 22.0699 37.6126H33.0252V26.9296H28.4857V34.1528Z" fill="white"/>
<rect x="20.9199" y="30.723" width="6.80921" height="3.03473" fill="white"/>
<defs>
<linearGradient id="paint0_linear" x1="66.0658" y1="42.1606" x2="57.5208" y2="5.99295" gradientUnits="userSpaceOnUse">
<stop stop-color="#5756FF"/>
<stop offset="1" stop-color="#5B5ADB"/>
</linearGradient>
</defs>
</svg>
