<svg width="88" height="88" viewBox="0 0 88 88" fill="none" xmlns="http://www.w3.org/2000/svg">
<path d="M29.1523 69.2096L1 52.9436L29.1523 36.698L57.3147 52.9436L29.1523 69.2096Z" fill="#FF80BB"/>
<path d="M1 54.1251L29.1523 70.3809V69.2096L1 52.9436V54.1251Z" fill="url(#paint0_linear)"/>
<path d="M57.3148 54.1251L29.1523 70.3809V69.2096L57.3148 52.9436V54.1251Z" fill="url(#paint1_linear)"/>
<path d="M42.3425 51.976V51.9455C42.3323 51.864 35.3452 23.8645 35.3452 23.8645H22.97C22.97 23.8645 15.993 51.864 15.9726 51.9455L15.9625 51.976C15.4838 54.2474 16.7365 56.6205 19.7514 58.352C24.9459 61.3465 33.3692 61.3465 38.5535 58.352C41.5786 56.6205 42.8416 54.2474 42.3425 51.976Z" fill="url(#paint2_linear)"/>
<path d="M33.5318 26.4007C31.1179 27.7961 27.1965 27.7961 24.7826 26.4007C22.3687 25.0053 22.3687 22.7442 24.7826 21.3488C27.1965 19.9534 31.1179 19.9534 33.5318 21.3488C35.9457 22.7442 35.9457 25.0053 33.5318 26.4007Z" fill="url(#paint3_linear)"/>
<path d="M21.3707 30.4341C21.3707 31.585 22.1346 32.736 23.6522 33.6119C26.6874 35.3638 31.6171 35.3638 34.6524 33.6119C36.1802 32.736 36.9237 31.585 36.9237 30.4341L38.3191 35.9138C38.3191 37.0647 36.2107 38.4194 34.6422 39.0916C31.4134 40.4666 26.7995 40.6194 23.642 39.0916C21.8698 38.236 19.9346 37.0647 19.9346 35.9138L21.3707 30.4341Z" fill="white"/>
<path d="M18.845 40.4258C18.845 41.9434 19.9144 43.4508 21.9108 44.612C25.9136 46.924 32.4016 46.924 36.4147 44.612C38.411 43.461 39.4805 41.9434 39.4805 40.4258L40.9573 46.3638C40.9573 47.8814 38.4619 49.6435 36.4045 50.5194C32.147 52.3324 26.0664 52.526 21.9006 50.5194C19.5681 49.3991 17.3579 47.8509 17.3579 46.3435L18.845 40.4258Z" fill="white"/>
<path d="M66.3948 80.1051L44.7974 67.6264L66.3948 55.1633L88.0001 67.6264L66.3948 80.1051Z" fill="#FF80BB"/>
<path d="M44.7974 68.5329L66.3948 81.0037V80.1052L44.7974 67.6265V68.5329Z" fill="url(#paint4_linear)"/>
<path d="M87.9998 68.5329L66.3945 81.0037V80.1052L87.9998 67.6265V68.5329Z" fill="url(#paint5_linear)"/>
<path d="M76.5136 66.8842V66.8607C76.5058 66.7982 71.1455 45.318 71.1455 45.318H61.6517C61.6517 45.318 56.2992 66.7982 56.2836 66.8607L56.2758 66.8842C55.9085 68.6267 56.8696 70.4473 59.1825 71.7756C63.1676 74.0729 69.6296 74.0729 73.6069 71.7756C75.9276 70.4473 76.8965 68.6267 76.5136 66.8842Z" fill="url(#paint6_linear)"/>
<path d="M69.7548 47.2635C67.9029 48.334 64.8946 48.334 63.0427 47.2635C61.1908 46.193 61.1908 44.4583 63.0427 43.3878C64.8946 42.3173 67.9029 42.3173 69.7548 43.3878C71.6067 44.4583 71.6067 46.193 69.7548 47.2635Z" fill="url(#paint7_linear)"/>
<path d="M60.425 50.3578C60.425 51.2408 61.011 52.1237 62.1753 52.7957C64.5038 54.1397 68.2857 54.1397 70.6142 52.7957C71.7863 52.1237 72.3567 51.2408 72.3567 50.3578L73.4272 54.5616C73.4272 55.4446 71.8097 56.4838 70.6064 56.9995C68.1294 58.0544 64.5898 58.1716 62.1675 56.9995C60.8079 56.3432 59.3232 55.4446 59.3232 54.5616L60.425 50.3578Z" fill="white"/>
<path d="M58.487 58.0231C58.487 59.1873 59.3075 60.3438 60.839 61.2346C63.9098 63.0083 68.8872 63.0083 71.9659 61.2346C73.4974 60.3516 74.3178 59.1873 74.3178 58.0231L75.4508 62.5785C75.4508 63.7428 73.5365 65.0946 71.9581 65.7666C68.6919 67.1574 64.027 67.3059 60.8312 65.7666C59.0418 64.9071 57.3462 63.7194 57.3462 62.5629L58.487 58.0231Z" fill="white"/>
<defs>
<linearGradient id="paint0_linear" x1="1" y1="70.3809" x2="29.1523" y2="70.3809" gradientUnits="userSpaceOnUse">
<stop stop-color="#FE7577"/>
<stop offset="1" stop-color="#FA6DB3"/>
</linearGradient>
<linearGradient id="paint1_linear" x1="29.1523" y1="70.3809" x2="57.3148" y2="70.3809" gradientUnits="userSpaceOnUse">
<stop stop-color="#FE7577"/>
<stop offset="1" stop-color="#FA6DB3"/>
</linearGradient>
<linearGradient id="paint2_linear" x1="15.8633" y1="60.5979" x2="42.4485" y2="60.5979" gradientUnits="userSpaceOnUse">
<stop stop-color="#FE7577"/>
<stop offset="1" stop-color="#FA6DB3"/>
</linearGradient>
<linearGradient id="paint3_linear" x1="22.9722" y1="27.4473" x2="35.3423" y2="27.4473" gradientUnits="userSpaceOnUse">
<stop stop-color="#FE7577"/>
<stop offset="1" stop-color="#FA6DB3"/>
</linearGradient>
<linearGradient id="paint4_linear" x1="44.7974" y1="81.0037" x2="66.3948" y2="81.0037" gradientUnits="userSpaceOnUse">
<stop stop-color="#FE7577"/>
<stop offset="1" stop-color="#FA6DB3"/>
</linearGradient>
<linearGradient id="paint5_linear" x1="66.3945" y1="81.0037" x2="87.9998" y2="81.0037" gradientUnits="userSpaceOnUse">
<stop stop-color="#FE7577"/>
<stop offset="1" stop-color="#FA6DB3"/>
</linearGradient>
<linearGradient id="paint6_linear" x1="56.1997" y1="73.4986" x2="76.595" y2="73.4986" gradientUnits="userSpaceOnUse">
<stop stop-color="#FE7577"/>
<stop offset="1" stop-color="#FA6DB3"/>
</linearGradient>
<linearGradient id="paint7_linear" x1="61.6538" y1="48.0664" x2="71.1437" y2="48.0664" gradientUnits="userSpaceOnUse">
<stop stop-color="#FE7577"/>
<stop offset="1" stop-color="#FA6DB3"/>
</linearGradient>
</defs>
</svg>
