<svg width="93" height="116" viewBox="0 0 93 116" fill="none" xmlns="http://www.w3.org/2000/svg">
<g clip-path="url(#clip0)">
<ellipse cx="43.542" cy="108" rx="18.75" ry="8" fill="black" fill-opacity="0.1"/>
<path d="M78.9196 99.7921C79.1459 85.7824 79.1459 71.7727 78.9196 57.5475C78.9196 50.6504 73.9402 42.6756 67.6027 39.4426C58.3229 34.2698 49.0431 29.3125 39.9896 24.1397C30.9361 19.1824 21.6562 14.0096 12.6027 9.05233C9.43401 7.32806 6.49163 6.89699 4.45459 7.97466C6.26529 6.89699 15.9978 1.50864 17.8085 0.646505C19.8455 -0.431165 22.7879 -0.215631 26.183 1.50864C35.2365 6.46592 44.5163 11.6387 53.5698 16.596C62.8496 21.7688 72.1295 26.7261 81.183 31.8989C87.2941 35.3475 92.4999 43.1067 92.4999 50.0038C92.7262 64.229 92.7262 78.2387 92.4999 92.2484C92.4999 95.697 91.3682 97.8523 89.5575 98.7145C87.5204 99.7921 75.9772 106.258 75.9772 106.258C77.5616 105.396 78.6933 103.241 78.9196 99.7921Z" fill="url(#paint0_linear)"/>
<path d="M54.0224 101.085C55.3804 99.792 57.4174 100.008 59.6808 101.085C58.7754 101.947 57.6438 102.594 56.5121 103.241L43.6108 110.353C45.1952 109.491 46.5532 108.198 47.9112 107.12C49.9483 105.18 51.9853 103.025 54.0224 101.085Z" fill="#D76497"/>
<path d="M1.875 14.4846C1.875 11.0361 3.00669 8.88074 4.81739 7.80307L5.04372 7.58754C7.08076 6.50987 10.0231 6.94094 13.1919 8.66521C22.2454 13.6225 31.5252 18.7953 40.5787 23.7526C49.8585 28.9254 59.1384 33.8827 68.1919 39.0555C74.303 42.504 79.5088 50.2633 79.5088 57.1604C79.7351 71.3856 79.7351 85.3953 79.5088 99.405C79.5088 102.854 78.1507 105.009 76.34 106.087C74.303 107.164 71.3606 106.733 68.4182 105.224L61.6281 101.56C61.1754 101.345 60.7227 101.129 60.2701 100.914C58.0067 99.8361 55.9697 99.6205 54.6116 100.914C52.5746 102.854 50.5376 104.793 48.5005 106.733C47.1425 108.026 45.7845 109.104 44.2001 109.966C43.9738 109.966 43.7474 110.182 43.7474 110.182C41.2577 111.259 38.768 109.535 36.5046 105.655C35.1466 103.285 34.0149 100.914 33.1096 98.5429C31.2989 94.6633 29.7145 90.7837 27.9038 87.1196C25.8668 82.8089 24.0561 80.438 19.5293 78.0671L13.4182 74.6186C7.3071 71.1701 1.875 63.1953 1.875 55.8671C1.875 42.073 1.875 28.2788 1.875 14.4846Z" fill="#EE7EAF"/>
<path d="M50.6274 67.4619C50.6274 71.5571 53.5698 76.5143 57.4176 78.6697C61.039 80.6095 64.2077 79.1007 64.2077 75.0056C64.2077 70.9105 61.2653 65.9532 57.4176 63.7978C53.5698 61.6425 50.6274 63.3668 50.6274 67.4619Z" fill="white"/>
<path d="M30.2573 56.2542C30.2573 60.3493 33.1997 65.3066 37.0474 67.4619C40.6688 69.4017 43.8376 67.893 43.8376 63.7978C43.8376 59.7027 40.8952 54.7454 37.0474 52.5901C33.1997 50.4347 30.2573 52.159 30.2573 56.2542Z" fill="white"/>
<path d="M9.88672 45.0464C9.88672 49.1415 12.8291 54.0988 16.6768 56.2542C20.2982 58.194 23.467 56.6852 23.467 52.5901C23.467 48.4949 20.5246 43.5377 16.6768 41.3823C12.8291 39.227 9.88672 40.9512 9.88672 45.0464Z" fill="white"/>
</g>
<defs>
<linearGradient id="paint0_linear" x1="10.2082" y1="4.75461e-07" x2="82.073" y2="108.76" gradientUnits="userSpaceOnUse">
<stop stop-color="#EB7BAC"/>
<stop offset="1" stop-color="#CE5A8D"/>
</linearGradient>
<clipPath id="clip0">
<rect x="0.833496" width="91.6667" height="116" fill="white"/>
</clipPath>
</defs>
</svg>
