<svg width="10" height="10" viewBox="0 0 10 10" fill="none" xmlns="http://www.w3.org/2000/svg">
<path d="M4.21875 0H5.78125C6.04102 0 6.25 0.208984 6.25 0.46875V3.75H7.96289C8.31055 3.75 8.48438 4.16992 8.23828 4.41602L5.26758 7.38867C5.12109 7.53516 4.88086 7.53516 4.73438 7.38867L1.75977 4.41602C1.51367 4.16992 1.6875 3.75 2.03516 3.75H3.75V0.46875C3.75 0.208984 3.95898 0 4.21875 0ZM10 7.34375V9.53125C10 9.79102 9.79102 10 9.53125 10H0.46875C0.208984 10 0 9.79102 0 9.53125V7.34375C0 7.08398 0.208984 6.875 0.46875 6.875H3.33398L4.29102 7.83203C4.68359 8.22461 5.31641 8.22461 5.70898 7.83203L6.66602 6.875H9.53125C9.79102 6.875 10 7.08398 10 7.34375ZM7.57812 9.0625C7.57812 8.84766 7.40234 8.67188 7.1875 8.67188C6.97266 8.67188 6.79688 8.84766 6.79688 9.0625C6.79688 9.27734 6.97266 9.45312 7.1875 9.45312C7.40234 9.45312 7.57812 9.27734 7.57812 9.0625ZM8.82812 9.0625C8.82812 8.84766 8.65234 8.67188 8.4375 8.67188C8.22266 8.67188 8.04688 8.84766 8.04688 9.0625C8.04688 9.27734 8.22266 9.45312 8.4375 9.45312C8.65234 9.45312 8.82812 9.27734 8.82812 9.0625Z" fill="#428A77"/>
</svg>
