<svg width="88" height="88" viewBox="0 0 88 88" fill="none" xmlns="http://www.w3.org/2000/svg">
<path d="M82.815 62.9618L50.1055 81.9999L5.18506 55.8546L37.9014 36.8094L82.815 62.9618Z" fill="#5B5ADB"/>
<path d="M37.8944 36.046L35.7812 15.12L37.8944 13.8845L83.455 40.4116V62.5662L81.3418 63.7947L37.8944 36.046Z" fill="#6C6CEA"/>
<path d="M37.8945 13.8845L4.54492 33.2975V55.459L6.6581 56.6874L37.8945 36.046L40.0077 15.12L37.8945 13.8845Z" fill="#6C6CEA"/>
<path d="M37.8946 16.3484L6.6582 34.5329V56.6874L40.0078 37.2744L37.8946 16.3484Z" fill="#6C6CEA"/>
<path d="M37.8945 38.503V16.3485L81.3419 41.6402V63.7947L37.8945 38.503Z" fill="#6C6CEA"/>
<path d="M81.342 61.3377L83.4552 40.4117L81.342 39.1763L76.0557 42.2579V64.4124L78.1688 65.6479L81.342 61.3377Z" fill="#5B5ADB"/>
<path d="M83.4553 40.4117V62.5663L78.1689 65.641V43.4864L83.4553 40.4117Z" fill="#6C6CEA"/>
<path d="M81.6106 63.6421V61.6432L78.1689 63.649V65.6479L81.6106 63.6421Z" fill="#FF80BB"/>
<path d="M83.4555 62.5663V60.5743L81.8311 61.5183V63.5102L83.4555 62.5663Z" fill="#FF80BB"/>
<path d="M79.7934 62.469V60.4771L78.1689 61.4279V63.4199L79.7934 62.469Z" fill="#FF80BB"/>
<path d="M83.4553 58.3463L80.0137 60.3522V62.3441L83.4553 60.3383V58.3463Z" fill="#FF80BB"/>
<path d="M81.6106 59.1515V57.1595L78.1689 59.1654V61.1574L81.6106 59.1515Z" fill="#FF80BB"/>
<path d="M83.4555 58.0827V56.0907L81.8311 57.0346V59.0266L83.4555 58.0827Z" fill="#FF80BB"/>
<path d="M79.7934 57.9855V55.9935L78.1689 56.9444V58.9364L79.7934 57.9855Z" fill="#FF80BB"/>
<path d="M83.4553 53.8627L80.0137 55.8685V57.8605L83.4553 55.8546V53.8627Z" fill="#FF80BB"/>
<path d="M81.6106 54.6677V52.6758L78.1689 54.6816V56.6736L81.6106 54.6677Z" fill="#FF80BB"/>
<path d="M83.4555 53.599V51.6071L81.8311 52.551V54.5429L83.4555 53.599Z" fill="#FF80BB"/>
<path d="M79.7934 53.5017V51.5098L78.1689 52.4606V54.4457L79.7934 53.5017Z" fill="#FF80BB"/>
<path d="M83.4553 49.379L80.0137 51.3849V53.3768L83.4553 51.371V49.379Z" fill="#FF80BB"/>
<path d="M81.6106 50.1842V48.1923L78.1689 50.1981V52.1901L81.6106 50.1842Z" fill="#FF80BB"/>
<path d="M83.4555 49.1152V47.1163L81.8311 48.0672V50.0592L83.4555 49.1152Z" fill="#FF80BB"/>
<path d="M79.7934 49.0181V47.0261L78.1689 47.9701V49.962L79.7934 49.0181Z" fill="#FF80BB"/>
<path d="M83.4553 44.8954L80.0137 46.9012V48.8932L83.4553 46.8873V44.8954Z" fill="#FF80BB"/>
<path d="M81.6106 45.7005V43.7085L78.1689 45.7143V47.7063L81.6106 45.7005Z" fill="#FF80BB"/>
<path d="M83.4555 44.6317V42.6328L81.8311 43.5837V45.5756L83.4555 44.6317Z" fill="#FF80BB"/>
<path d="M79.7934 44.5344V42.5425L78.1689 43.4864V45.4853L79.7934 44.5344Z" fill="#FF80BB"/>
<path d="M83.4553 40.4117L80.0137 42.4176V44.4096L83.4553 42.4037V40.4117Z" fill="#FF80BB"/>
<path opacity="0.2" d="M83.4552 40.4117V46.3529L78.1688 49.4276L76.0557 48.2963V42.6327L83.4552 40.4117Z" fill="#4848B5"/>
<path d="M76.9366 64.7525L53.1479 78.5921V56.1322L76.9366 42.2856V64.7525Z" fill="#4848B5"/>
<path d="M76.9366 65.0093L53.1479 78.8558V76.8986L76.9366 63.052V65.0093Z" fill="#5B5ADB"/>
<path d="M76.9366 62.698L53.1479 76.5446V74.5943L76.9366 60.7477V62.698Z" fill="#5B5ADB"/>
<path d="M76.9366 60.3938L53.1479 74.2404V72.2831L76.9366 58.4365V60.3938Z" fill="#5B5ADB"/>
<path d="M76.9366 58.0895L53.1479 71.9291V69.9788L76.9366 56.1322V58.0895Z" fill="#5B5ADB"/>
<path d="M76.9366 55.7782L53.1479 69.6248V67.6675L76.9366 53.8279V55.7782Z" fill="#5B5ADB"/>
<path d="M76.9366 53.474L53.1479 67.3206V65.3633L76.9366 51.5167V53.474Z" fill="#5B5ADB"/>
<path d="M76.9366 51.1627L53.1479 65.0093V63.059L76.9366 49.2124V51.1627Z" fill="#5B5ADB"/>
<path d="M76.9366 48.8584L53.1479 62.705V60.7477L76.9366 46.9011V48.8584Z" fill="#5B5ADB"/>
<path d="M76.9366 46.5472L53.1479 60.3938V58.4435L76.9366 44.5969V46.5472Z" fill="#5B5ADB"/>
<path d="M76.9366 44.2429L53.1479 58.0895V56.1322L76.9366 42.2856V44.2429Z" fill="#5B5ADB"/>
<path d="M53.2786 77.6689L55.3918 56.7429L53.2786 55.5144L47.9854 58.5891L47.9922 80.7506L50.0985 81.9791L53.2786 77.6689Z" fill="#6C6CEA"/>
<path d="M6.65121 54.2235L4.54492 33.2975L6.6581 32.069L52.2118 58.5892V80.7506L50.0986 81.9791L6.65121 54.2235Z" fill="#6C6CEA"/>
<path d="M50.1055 59.8246V65.7589L50.0986 81.9791L4.54492 55.4589V33.2975L50.1055 59.8246Z" fill="#6C6CEA"/>
<path d="M21.0303 63.0659L24.4788 65.0718V67.0637L21.0303 65.0579V63.0659Z" fill="#FF80BB"/>
<path d="M17.3687 60.9352L20.8172 62.9341V64.9261L17.3687 62.9271V60.9352Z" fill="#FF80BB"/>
<path d="M13.7065 58.7974L17.1551 60.8032V62.7952L13.7065 60.7893V58.7974Z" fill="#FF80BB"/>
<path d="M10.0449 56.6666L13.4935 58.6725V60.6644L10.0449 58.6586V56.6666Z" fill="#FF80BB"/>
<path d="M6.38281 54.5359L9.83135 56.5417V58.5337L6.38281 56.5279V54.5359Z" fill="#FF80BB"/>
<path d="M4.54492 55.4589V53.46L6.16938 54.4108V56.4028L4.54492 55.4589Z" fill="#FF80BB"/>
<path d="M19.1855 59.7621L22.6341 61.7679V63.7599L19.1855 61.7541V59.7621Z" fill="#FF80BB"/>
<path d="M15.5239 57.6313L18.9725 59.6372V61.6292L15.5239 59.6233V57.6313Z" fill="#FF80BB"/>
<path d="M11.8618 55.5006L15.3104 57.5065V59.4984L11.8618 57.4926V55.5006Z" fill="#FF80BB"/>
<path d="M8.20703 53.3698L11.6487 55.3756V57.3676L8.20703 55.3617V53.3698Z" fill="#FF80BB"/>
<path d="M4.54492 51.239L7.98657 53.2449V55.2368L4.54492 53.231V51.239Z" fill="#FF80BB"/>
<path d="M21.0303 58.5823L24.4788 60.5812V62.5732L21.0303 60.5742V58.5823Z" fill="#FF80BB"/>
<path d="M17.3687 56.4446L20.8172 58.4504V60.4424L17.3687 58.4435V56.4446Z" fill="#FF80BB"/>
<path d="M13.7065 54.3137L17.1551 56.3196V58.3115L13.7065 56.3057V54.3137Z" fill="#FF80BB"/>
<path d="M10.0449 52.183L13.4935 54.1888V56.1808L10.0449 54.1749V52.183Z" fill="#FF80BB"/>
<path d="M6.3897 50.0522L9.83135 52.0581V54.0501L6.38281 52.0442L6.3897 50.0522Z" fill="#FF80BB"/>
<path d="M4.54492 50.9684V48.9834L6.16938 49.9273V51.9193L4.54492 50.9684Z" fill="#FF80BB"/>
<path d="M19.1855 55.2784L22.6341 57.2843V59.2762L19.1855 57.2704V55.2784Z" fill="#FF80BB"/>
<path d="M15.5239 53.1477L18.9725 55.1535V57.1455L15.5239 55.1397V53.1477Z" fill="#FF80BB"/>
<path d="M11.8618 51.017L15.3104 53.0228V55.0148L11.8618 53.0089V51.017Z" fill="#FF80BB"/>
<path d="M8.20703 48.8862L11.6487 50.8921V52.884L8.20703 50.8782V48.8862Z" fill="#FF80BB"/>
<path d="M4.54492 46.7554L7.98657 48.7612V50.7532L4.54492 48.7473V46.7554Z" fill="#FF80BB"/>
<path d="M21.0303 54.0917L24.4788 56.0975V58.0895L21.0303 56.0906V54.0917Z" fill="#FF80BB"/>
<path d="M17.3687 51.9608L20.8172 53.9667V55.9586L17.3687 53.9528V51.9608Z" fill="#FF80BB"/>
<path d="M13.7065 49.8301L17.1551 51.8359V53.8279L13.7065 51.822V49.8301Z" fill="#FF80BB"/>
<path d="M10.0449 47.6993L13.4935 49.7052V51.6971L10.0449 49.6913V47.6993Z" fill="#FF80BB"/>
<path d="M6.38965 45.5685L9.8313 47.5743V49.5663L6.38965 47.5604V45.5685Z" fill="#FF80BB"/>
<path d="M4.54492 46.4848V44.4928L6.16938 45.4437V47.4356L4.54492 46.4848Z" fill="#FF80BB"/>
<path d="M19.1855 50.7948L22.6341 52.8006V54.7926L19.1855 52.7868V50.7948Z" fill="#FF80BB"/>
<path d="M15.5239 48.6641L18.9725 50.6699V52.6619L15.5239 50.656V48.6641Z" fill="#FF80BB"/>
<path d="M11.8618 46.5333L15.3104 48.5392V50.5311L11.8618 48.5253V46.5333Z" fill="#FF80BB"/>
<path d="M8.20703 44.4025L11.6487 46.4083V48.4003L8.20703 46.3944V44.4025Z" fill="#FF80BB"/>
<path d="M4.54492 42.2717L7.98657 44.2706V46.2626L4.54492 44.2637V42.2717Z" fill="#FF80BB"/>
<path d="M21.0303 49.608L24.4788 51.6139V53.6058L21.0303 51.6V49.608Z" fill="#FF80BB"/>
<path d="M17.3687 47.4772L20.8172 49.483V51.475L17.3687 49.4691V47.4772Z" fill="#FF80BB"/>
<path d="M13.7065 45.3464L17.1551 47.3523V49.3442L13.7065 47.3384V45.3464Z" fill="#FF80BB"/>
<path d="M10.0449 43.2156L13.4935 45.2214V47.2134L10.0449 45.2075V43.2156Z" fill="#FF80BB"/>
<path d="M6.38965 41.085L9.8313 43.0908V45.0828L6.38965 43.0769V41.085Z" fill="#FF80BB"/>
<path d="M4.54492 42.0079V40.009L6.16938 40.9599V42.9519L4.54492 42.0079Z" fill="#FF80BB"/>
<path d="M19.1855 46.3112L22.6341 48.317V50.309L19.1855 48.3031V46.3112Z" fill="#FF80BB"/>
<path d="M15.5239 44.1804L18.9725 46.1863V48.1782L15.5239 46.1724V44.1804Z" fill="#FF80BB"/>
<path d="M11.8618 42.0497L15.3104 44.0555V46.0475L11.8618 44.0416V42.0497Z" fill="#FF80BB"/>
<path d="M8.20703 39.9188L11.6487 41.9177V43.9166L8.20703 41.9108V39.9188Z" fill="#FF80BB"/>
<path d="M4.54492 37.7881L7.98657 39.787V41.779L4.54492 39.78V37.7881Z" fill="#FF80BB"/>
<path d="M21.0303 45.1243L24.4788 47.1301V49.1221L21.0303 47.1162V45.1243Z" fill="#FF80BB"/>
<path d="M17.3687 42.9935L20.8172 44.9994V46.9913L17.3687 44.9855V42.9935Z" fill="#FF80BB"/>
<path d="M13.7065 40.8628L17.1551 42.8686V44.8606L13.7065 42.8548V40.8628Z" fill="#FF80BB"/>
<path d="M10.0449 38.7321L13.4935 40.7379V42.7299L10.0449 40.724V38.7321Z" fill="#FF80BB"/>
<path d="M6.38965 36.6012L9.8313 38.607V40.599L6.38965 38.5932V36.6012Z" fill="#FF80BB"/>
<path d="M4.54492 37.5174V35.5254L6.16938 36.4693V38.4682L4.54492 37.5174Z" fill="#FF80BB"/>
<path d="M19.1855 41.8275L22.6341 43.8334V45.8253L19.1855 43.8195V41.8275Z" fill="#FF80BB"/>
<path d="M15.5239 39.6968L18.9725 41.7026V43.6946L15.5239 41.6887V39.6968Z" fill="#FF80BB"/>
<path d="M11.8618 37.566L15.3104 39.5649V41.5638L11.8618 39.558V37.566Z" fill="#FF80BB"/>
<path d="M8.20703 35.4352L11.6487 37.4341V39.4261L8.20703 37.4271V35.4352Z" fill="#FF80BB"/>
<path d="M4.54492 33.2975L7.98657 35.3033V37.2953L4.54492 35.2894V33.2975Z" fill="#FF80BB"/>
<path d="M46.6567 77.9813L50.0984 79.9872V81.9791L46.6567 79.9733V77.9813Z" fill="#FF80BB"/>
<path d="M42.9951 75.8505L46.4368 77.8563V79.8483L42.9951 77.8424V75.8505Z" fill="#FF80BB"/>
<path d="M39.333 73.7198L42.7747 75.7257V77.7176L39.333 75.7118V73.7198Z" fill="#FF80BB"/>
<path d="M35.6714 71.589L39.113 73.5879V75.5799L35.6714 73.581V71.589Z" fill="#FF80BB"/>
<path d="M32.0093 69.4513L35.4578 71.4571V73.4491L32.0093 71.4502V69.4513Z" fill="#FF80BB"/>
<path d="M28.3472 67.3206L31.7957 69.3264V71.3184L28.3472 69.3125V67.3206Z" fill="#FF80BB"/>
<path d="M24.6855 65.1897L28.1341 67.1955V69.1875L24.6855 67.1817V65.1897Z" fill="#FF80BB"/>
<path d="M48.4741 78.8073V76.8083L50.0986 77.7592V79.7512L48.4741 78.8073Z" fill="#FF80BB"/>
<path d="M44.812 74.6776L48.2537 76.6835V78.6754L44.812 76.6765V74.6776Z" fill="#FF80BB"/>
<path d="M41.1504 72.5468L44.592 74.5526V76.5445L41.1504 74.5387V72.5468Z" fill="#FF80BB"/>
<path d="M37.4883 70.416L40.9299 72.4219V74.4138L37.4883 72.408V70.416Z" fill="#FF80BB"/>
<path d="M33.8267 68.2853L37.2752 70.2911V72.2831L33.8267 70.2772V68.2853Z" fill="#FF80BB"/>
<path d="M30.1646 66.1545L33.6131 68.1604V70.1524L30.1646 68.1465V66.1545Z" fill="#FF80BB"/>
<path d="M26.5024 64.0237L29.951 66.0295V68.0215L26.5024 66.0156V64.0237Z" fill="#FF80BB"/>
<path d="M22.8408 61.8929L26.2894 63.8988V65.8908L22.8408 63.8849V61.8929Z" fill="#FF80BB"/>
<path d="M46.6567 73.4977L50.0984 75.5035V77.4955L46.6567 75.4896V73.4977Z" fill="#FF80BB"/>
<path d="M42.9951 71.3669L46.4368 73.3728V75.3648L42.9951 73.3589V71.3669Z" fill="#FF80BB"/>
<path d="M39.333 69.2361L42.7747 71.235V73.2339L39.333 71.2281V69.2361Z" fill="#FF80BB"/>
<path d="M35.6714 67.1053L39.113 69.1042V71.0962L35.6714 69.0973V67.1053Z" fill="#FF80BB"/>
<path d="M32.0093 64.9677L35.4578 66.9735V68.9655L32.0093 66.9596V64.9677Z" fill="#FF80BB"/>
<path d="M28.3472 62.8368L31.7957 64.8426V66.8346L28.3472 64.8288V62.8368Z" fill="#FF80BB"/>
<path d="M24.6855 60.7061L28.1341 62.7119V64.7039L24.6855 62.698V60.7061Z" fill="#FF80BB"/>
<path d="M48.4741 74.3236V72.3317L50.0986 73.2756V75.2676L48.4741 74.3236Z" fill="#FF80BB"/>
<path d="M44.812 70.1938L48.2537 72.1997V74.1917L44.812 72.1858V70.1938Z" fill="#FF80BB"/>
<path d="M41.1504 68.0631L44.592 70.069V72.0609L41.1504 70.0551V68.0631Z" fill="#FF80BB"/>
<path d="M37.4883 65.9324L40.9299 67.9382V69.9302L37.4883 67.9243V65.9324Z" fill="#FF80BB"/>
<path d="M33.8267 63.8016L37.2752 65.8075V67.7994L33.8267 65.7936V63.8016Z" fill="#FF80BB"/>
<path d="M30.1646 61.6708L33.6131 63.6766V65.6686L30.1646 63.6627V61.6708Z" fill="#FF80BB"/>
<path d="M26.5024 59.54L29.951 61.5459V63.5378L26.5024 61.532V59.54Z" fill="#FF80BB"/>
<path d="M22.8408 57.4093L26.2894 59.4151V61.4071L22.8408 59.4013V57.4093Z" fill="#FF80BB"/>
<path d="M46.6567 69.014L50.0984 71.0199V73.0119L46.6567 71.006V69.014Z" fill="#FF80BB"/>
<path d="M42.9951 66.8833L46.4368 68.8822V70.8811L42.9951 68.8753V66.8833Z" fill="#FF80BB"/>
<path d="M39.333 64.7524L42.7747 66.7513V68.7433L39.333 66.7444V64.7524Z" fill="#FF80BB"/>
<path d="M35.6714 62.6147L39.113 64.6206V66.6126L35.6714 64.6067V62.6147Z" fill="#FF80BB"/>
<path d="M32.0093 60.484L35.4578 62.4898V64.4818L32.0093 62.476V60.484Z" fill="#FF80BB"/>
<path d="M28.3472 58.3533L31.7957 60.3591V62.3511L28.3472 60.3452V58.3533Z" fill="#FF80BB"/>
<path d="M24.6855 56.2224L28.1341 58.2283V60.2202L24.6855 58.2144V56.2224Z" fill="#FF80BB"/>
<path d="M48.4741 69.8331V67.848L50.0986 68.792V70.7839L48.4741 69.8331Z" fill="#FF80BB"/>
<path d="M44.812 65.7103L48.2537 67.7162V69.7081L44.812 67.7023V65.7103Z" fill="#FF80BB"/>
<path d="M41.1504 63.5795L44.592 65.5853V67.5773L41.1504 65.5714V63.5795Z" fill="#FF80BB"/>
<path d="M37.4883 61.4487L40.9299 63.4546V65.4465L37.4883 63.4407V61.4487Z" fill="#FF80BB"/>
<path d="M33.8267 59.318L37.2752 61.3238V63.3158L33.8267 61.31V59.318Z" fill="#FF80BB"/>
<path d="M30.1646 57.1871L33.6131 59.193V61.1849L30.1646 59.1791V57.1871Z" fill="#FF80BB"/>
<path d="M26.5024 55.0564L29.951 57.0622V59.0542L26.5024 57.0484V55.0564Z" fill="#FF80BB"/>
<path d="M22.8408 52.9257L26.2894 54.9246V56.9235L22.8408 54.9176V52.9257Z" fill="#FF80BB"/>
<path d="M46.6567 64.5304L50.0984 66.5293V68.5282L46.6567 66.5223V64.5304Z" fill="#FF80BB"/>
<path d="M42.9951 62.3995L46.4368 64.3984V66.3904L42.9951 64.3915V62.3995Z" fill="#FF80BB"/>
<path d="M39.333 60.2618L42.7747 62.2677V64.2597L39.333 62.2607V60.2618Z" fill="#FF80BB"/>
<path d="M35.6714 58.1311L39.113 60.1369V62.1289L35.6714 60.1231V58.1311Z" fill="#FF80BB"/>
<path d="M32.0093 56.0004L35.4578 58.0062V59.9982L32.0093 57.9923V56.0004Z" fill="#FF80BB"/>
<path d="M28.3472 53.8695L31.7957 55.8754V57.8673L28.3472 55.8615V53.8695Z" fill="#FF80BB"/>
<path d="M24.6855 51.7388L28.1341 53.7446V55.7366L24.6855 53.7307V51.7388Z" fill="#FF80BB"/>
<path d="M48.4741 65.3563V63.3574L50.0986 64.3083V66.3002L48.4741 65.3563Z" fill="#FF80BB"/>
<path d="M44.812 61.2266L48.2537 63.2324V65.2244L44.812 63.2185V61.2266Z" fill="#FF80BB"/>
<path d="M41.1504 59.0958L44.592 61.1017V63.0936L41.1504 61.0878V59.0958Z" fill="#FF80BB"/>
<path d="M37.4883 56.9651L40.9299 58.9709V60.9629L37.4883 58.9571V56.9651Z" fill="#FF80BB"/>
<path d="M33.8267 54.8342L37.2752 56.8401V58.832L33.8267 56.8262V54.8342Z" fill="#FF80BB"/>
<path d="M30.1646 52.7035L33.6131 54.7093V56.7013L30.1646 54.6955V52.7035Z" fill="#FF80BB"/>
<path d="M26.5024 50.5728L29.951 52.5717V54.5706L26.5024 52.5647V50.5728Z" fill="#FF80BB"/>
<path d="M22.8408 48.442L26.2894 50.4409V52.4329L22.8408 50.434V48.442Z" fill="#FF80BB"/>
<path d="M46.6567 60.0466L50.0984 62.0455V64.0375L46.6567 62.0386V60.0466Z" fill="#FF80BB"/>
<path d="M42.9951 57.9091L46.4368 59.9149V61.9069L42.9951 59.908V57.9091Z" fill="#FF80BB"/>
<path d="M39.333 55.7782L42.7747 57.784V59.776L39.333 57.7702V55.7782Z" fill="#FF80BB"/>
<path d="M35.6714 53.6475L39.113 55.6533V57.6453L35.6714 55.6394V53.6475Z" fill="#FF80BB"/>
<path d="M32.0093 51.5167L35.4578 53.5226V55.5145L32.0093 53.5087V51.5167Z" fill="#FF80BB"/>
<path d="M28.3472 49.3859L31.7957 51.3917V53.3837L28.3472 51.3778V49.3859Z" fill="#FF80BB"/>
<path d="M24.6855 47.2551L28.1341 49.261V51.2529L24.6855 49.2471V47.2551Z" fill="#FF80BB"/>
<path d="M48.4741 60.8727V58.8738L50.0986 59.8246V61.8166L48.4741 60.8727Z" fill="#FF80BB"/>
<path d="M44.812 56.7429L48.2537 58.7488V60.7407L44.812 58.7349V56.7429Z" fill="#FF80BB"/>
<path d="M41.1504 54.6122L44.592 56.618V58.61L41.1504 56.6041V54.6122Z" fill="#FF80BB"/>
<path d="M37.4883 52.4814L40.9299 54.4873V56.4793L37.4883 54.4734V52.4814Z" fill="#FF80BB"/>
<path d="M33.8267 50.3507L37.2752 52.3566V54.3485L33.8267 52.3427V50.3507Z" fill="#FF80BB"/>
<path d="M30.1646 48.2198L33.6131 50.2257V52.2177L30.1646 50.2118V48.2198Z" fill="#FF80BB"/>
<path d="M26.5024 46.089L29.951 48.0879V50.0799L26.5024 48.081V46.089Z" fill="#FF80BB"/>
<path d="M22.8408 43.9514L26.2894 45.9573V47.9492L22.8408 45.9503V43.9514Z" fill="#FF80BB"/>
<path d="M55.3923 56.7429V78.8974L50.106 81.9791V59.8246L55.3923 56.7429Z" fill="#6C6CEA"/>
<path d="M53.5472 79.9733V77.9813L50.0986 79.9872V81.9791L53.5472 79.9733Z" fill="#FF80BB"/>
<path d="M55.392 78.8975V76.9055L53.7676 77.8494V79.8484L55.392 78.8975Z" fill="#FF80BB"/>
<path d="M51.73 78.8073V76.8083L50.0986 77.7592V79.7512L51.73 78.8073Z" fill="#FF80BB"/>
<path d="M55.3918 74.6775L51.9502 76.6833V78.6753L55.3918 76.6695V74.6775Z" fill="#FF80BB"/>
<path d="M53.5472 75.4896V73.4977L50.0986 75.5035V77.4955L53.5472 75.4896Z" fill="#FF80BB"/>
<path d="M55.392 74.4138V72.4219L53.7676 73.3727V75.3578L55.392 74.4138Z" fill="#FF80BB"/>
<path d="M51.73 74.3167V72.3317L50.0986 73.2756V75.2676L51.73 74.3167Z" fill="#FF80BB"/>
<path d="M55.3919 70.1938L51.9434 72.1997V74.1917L55.3919 72.1858V70.1938Z" fill="#FF80BB"/>
<path d="M53.5472 71.0059V69.0139L50.0986 71.0198V73.0117L53.5472 71.0059Z" fill="#FF80BB"/>
<path d="M55.392 69.9302V67.9382L53.7676 68.8822V70.8741L55.392 69.9302Z" fill="#FF80BB"/>
<path d="M51.73 69.833V67.8411L50.0986 68.7919V70.7839L51.73 69.833Z" fill="#FF80BB"/>
<path d="M55.3919 65.7102L51.9434 67.716V69.708L55.3919 67.7022V65.7102Z" fill="#FF80BB"/>
<path d="M53.5472 66.5223V64.5234L50.0986 66.5293V68.5282L53.5472 66.5223Z" fill="#FF80BB"/>
<path d="M55.392 65.4464V63.4545L53.7676 64.3984V66.3904L55.392 65.4464Z" fill="#FF80BB"/>
<path d="M51.73 65.3493V63.3573L50.0986 64.3082V66.3001L51.73 65.3493Z" fill="#FF80BB"/>
<path d="M55.3919 61.2266L51.9434 63.2324V65.2244L55.3919 63.2185V61.2266Z" fill="#FF80BB"/>
<path d="M53.5472 62.0386V60.0397L50.0986 62.0455V64.0444L53.5472 62.0386Z" fill="#FF80BB"/>
<path d="M55.392 60.9628V58.9708L53.7676 59.9148V61.9067L55.392 60.9628Z" fill="#FF80BB"/>
<path d="M51.73 60.8656V58.8737L50.0986 59.8245V61.8165L51.73 60.8656Z" fill="#FF80BB"/>
<path d="M55.3919 56.7429L51.9434 58.7488V60.7407L55.3919 58.7349V56.7429Z" fill="#FF80BB"/>
<path opacity="0.2" d="M50.1055 59.8246L55.3919 56.743V62.6842L50.1055 65.7589L4.54492 39.2387V33.2975L50.1055 59.8246Z" fill="#4848B5"/>
<path d="M67.3757 70.8187L65.8545 71.7071V70.7423L67.3757 69.8608V70.8187Z" fill="#4848B5"/>
<path opacity="0.2" d="M76.9437 48.7196L55.3921 61.2683V58.5545L76.9437 46.0059V48.7196Z" fill="#4848B5"/>
<path d="M1 33.596V27.4744L37.8945 12.1217L87 34.5816V40.7102L50.0986 62.1776L1 33.596Z" fill="#6C6CEA"/>
<path d="M1 27.4743L37.8945 6L87 34.5816L50.0986 56.0559L1 27.4743Z" fill="#5B5ADB"/>
<path d="M84.6389 34.5816L82.8148 35.6435L50.1054 54.6817L5.18492 28.5363L3.36084 27.4744L37.9013 7.37427L84.6389 34.5816Z" fill="#6C6CEA"/>
<path d="M82.815 35.6434L50.1055 54.6816L5.18506 28.5362L37.9014 9.49805L82.815 35.6434Z" fill="#4C4CBF"/>
<path d="M24.6855 23.3378L28.5884 25.6074V28.0574L24.6855 25.7878V23.3378Z" fill="#6C6CEA"/>
<path d="M32.9937 18.5001L36.8965 20.7697L28.5884 25.6073L24.6855 23.3377L32.9937 18.5001Z" fill="#5B5ADB"/>
<path d="M36.8965 23.2197V20.7697L28.5884 25.6073V28.0573L36.8965 23.2197Z" fill="#6C6CEA"/>
<path d="M50.312 38.2462L54.208 40.5158V42.9659L50.312 40.6963V38.2462Z" fill="#6C6CEA"/>
<path d="M58.6202 33.4086L62.5161 35.6782L54.208 40.5158L50.312 38.2462L58.6202 33.4086Z" fill="#5B5ADB"/>
<path d="M62.5162 38.1281V35.6781L54.208 40.5157V42.9658L62.5162 38.1281Z" fill="#6C6CEA"/>
<path opacity="0.1" d="M1 33.596L50.0986 62.0457V56.0559L1 27.4744V33.596Z" fill="#4848B5"/>
</svg>
