<svg width="24" height="24" viewBox="0 0 24 24" fill="none" xmlns="http://www.w3.org/2000/svg">
<path fill-rule="evenodd" clip-rule="evenodd" d="M12 22C17.5228 22 22 17.5228 22 12C22 6.47715 17.5228 2 12 2C6.47715 2 2 6.47715 2 12C2 17.5228 6.47715 22 12 22Z" fill="#1BB978"/>
<path d="M10.3789 15.8438C10.5742 16.0391 10.9062 16.0391 11.1016 15.8438L16.8438 10.1016C17.0391 9.90625 17.0391 9.57422 16.8438 9.37891L16.1406 8.67578C15.9453 8.48047 15.6328 8.48047 15.4375 8.67578L10.75 13.3633L8.54297 11.1758C8.34766 10.9805 8.03516 10.9805 7.83984 11.1758L7.13672 11.8789C6.94141 12.0742 6.94141 12.4062 7.13672 12.6016L10.3789 15.8438Z" fill="white"/>
</svg>
