<svg width="140" height="140" viewBox="0 0 140 140" fill="none" xmlns="http://www.w3.org/2000/svg">
<path d="M70 140C108.66 140 140 108.66 140 70C140 31.3401 108.66 0 70 0C31.3401 0 0 31.3401 0 70C0 108.66 31.3401 140 70 140Z" fill="#F7F7FA"/>
<path d="M97.8534 76.6931C95.3428 74.8841 92.6266 68.6552 94.7363 65.9442C96.846 63.2332 96.0443 56.8988 93.4283 53.882C90.8175 50.8651 90.807 39.4358 88.8608 36.4084C88.8608 36.4084 88.8608 36.4084 88.8608 36.4031C86.999 27.8113 79.3566 21.3767 70.211 21.3767C60.5063 21.3767 52.4947 28.6235 51.2869 38.0012C51.2869 38.0012 51.2869 38.017 51.2869 38.0381C51.2078 38.6763 51.1551 39.3303 51.1393 39.9843C50.7964 43.9189 49.789 52.537 47.4104 54.9052C44.2933 58.0012 38.0644 63.0064 40.3745 67.537C42.6846 72.0676 43.4916 74.7839 40.6751 77.4104C39.0348 78.9453 35.1477 87.4421 47.0042 89.652C48.7236 89.9737 50.8914 90.2322 53.3386 90.4379C59.019 86.6562 64.4093 86.018 64.4093 86.018C64.4093 86.018 66.8829 85.1267 77.2943 86.2185C81.2711 86.6351 84.673 88.4178 87.5633 90.9178C91.3502 90.786 94.0295 90.6067 94.7574 90.4326C100.158 89.1562 102.468 80.0159 97.8534 76.6931Z" fill="#2A293C"/>
<path d="M77.2996 86.2185C77.173 86.2079 77.0569 86.1921 76.9356 86.1816C76.4557 84.1563 75.7226 80.2375 76.1076 76.4347C82.7742 74.0824 87.5475 67.7322 87.5475 60.2638V42.5529C87.5475 33.0803 79.8681 25.4062 70.4008 25.4062C60.9283 25.4062 53.2542 33.0856 53.2542 42.5529V60.2638C53.2542 68.1014 58.5127 74.7048 65.6909 76.7512C65.7067 79.2934 65.6276 83.4601 65.0105 85.8862C64.5886 85.9548 64.4198 86.0128 64.4198 86.0128C64.4198 86.0128 52.3365 87.4421 45.3006 98.6974C38.2595 109.953 38.7289 116.546 38.7289 116.546H47.9589C47.9589 116.546 48.9662 106.567 55.443 101.282C61.3977 96.4242 65 85.8862 65 85.8862C65 85.8862 66.6508 86.7723 70.9441 87.0096C75.2373 87.2417 76.9304 86.1816 76.9304 86.1816C76.9304 86.1816 79.1245 96.3293 86.1709 101.714C93.5548 107.368 94.0823 116.546 94.0823 116.546H101.282C101.287 116.546 94.8945 88.0645 77.2996 86.2185Z" fill="#F090BC"/>
<path d="M65.0054 85.8862C65.0054 85.8862 66.6562 86.7723 70.9495 87.0096C75.2427 87.2417 76.9358 86.1816 76.9358 86.1816C76.9358 86.1816 79.1299 96.3293 86.1763 101.714C93.5603 107.368 94.0877 116.546 94.0877 116.546H47.959C47.959 116.546 48.9664 106.567 55.4432 101.282C61.3978 96.4242 65.0054 85.8862 65.0054 85.8862Z" fill="#5C60AB"/>
<path d="M65.6804 76.7406C65.6804 76.7406 68.8186 77.7479 71.018 77.6055C74.7522 77.3629 76.1024 76.4399 76.1024 76.4399C76.1024 76.4399 74.6519 78.5918 71.4083 78.7659C68.9979 78.8977 65.6804 76.7406 65.6804 76.7406Z" fill="#2A293C"/>
<path d="M58.8714 51.287C59.2588 51.287 59.5729 50.6187 59.5729 49.7944C59.5729 48.97 59.2588 48.3018 58.8714 48.3018C58.484 48.3018 58.1699 48.97 58.1699 49.7944C58.1699 50.6187 58.484 51.287 58.8714 51.287Z" fill="#2A293C"/>
<path d="M81.5506 51.7406C81.938 51.7406 82.2521 51.0723 82.2521 50.248C82.2521 49.4236 81.938 48.7554 81.5506 48.7554C81.1632 48.7554 80.8491 49.4236 80.8491 50.248C80.8491 51.0723 81.1632 51.7406 81.5506 51.7406Z" fill="#2A293C"/>
<path d="M65.9335 66.598C65.2795 66.1444 66.9883 66.7984 69.1666 66.8617C71.3449 66.9303 75.0369 65.9387 75.0369 65.9387C75.0369 65.9387 71.4029 70.4007 65.9335 66.598Z" fill="#2A293C"/>
<path d="M64.8101 65.385C64.8101 65.385 66.7299 65.5221 67.7478 64.8839C68.7658 64.2457 69.462 64.2932 70.1107 64.4831C70.7594 64.6729 71.4345 63.8818 72.0411 64.0295C72.6423 64.1824 76.1919 64.9947 76.1919 64.9947C76.1919 64.9947 70.2109 67.8481 64.8101 65.385Z" fill="#303042"/>
<path d="M69.7415 50.6329C69.7415 50.6329 65.7752 59.6888 70.1317 59.6888C74.4883 59.6888 70.5379 50.5591 70.5379 50.5591" fill="#EF4D96"/>
<path d="M80.2691 30.5643C80.2691 30.5643 83.1857 37.7004 73.0328 39.3091C62.8851 40.9177 53.2491 46.0443 53.2491 46.0443C53.2491 46.0443 49.5149 27.8534 63.286 25.8439C77.0518 23.8344 81.4769 23.3333 85.3957 29.5622C89.3144 35.7911 87.5476 51.5137 87.5476 51.5137C87.5476 51.5137 81.2712 39.9103 80.2691 30.5643Z" fill="#2A293C"/>
<path d="M89.615 46.5507C89.5095 35.9388 80.8491 27.3418 70.211 27.3418C59.5833 27.3418 50.9283 35.9283 50.8069 46.5296C49.3723 46.5612 48.2173 47.7321 48.2173 49.172V58.0222C48.2173 59.4831 49.404 60.6698 50.865 60.6698C51.0126 60.6698 51.1498 60.6488 51.2922 60.6277C51.461 62.8006 52.078 66.0127 54.0928 68.1698C55.3375 69.5042 56.962 70.2374 58.9135 70.3745C59.0664 71.0338 59.6519 71.5296 60.3586 71.5296H62.0306C62.8481 71.5296 63.5179 70.865 63.5179 70.0422C63.5179 69.2194 62.8534 68.5549 62.0306 68.5549H60.3586C59.6044 68.5549 58.9873 69.1192 58.8924 69.8471C57.0991 69.7099 55.6171 69.0295 54.4778 67.8112C52.558 65.7595 51.9831 62.5897 51.8196 60.4852C52.8059 60.1002 53.5126 59.1456 53.5126 58.0222V49.172C53.5126 47.8745 52.5685 46.7933 51.3344 46.5717C51.4293 36.2395 59.8576 27.8692 70.211 27.8692C80.5538 27.8692 88.9821 36.2342 89.0875 46.5559C87.7532 46.6931 86.7089 47.8059 86.7089 49.1772V58.0274C86.7089 59.4884 87.8956 60.6751 89.3565 60.6751C90.8175 60.6751 92.0042 59.4884 92.0042 58.0274V49.1772C91.9989 47.8007 90.9494 46.6825 89.615 46.5507Z" fill="#5C60AB"/>
</svg>
