<svg width="69" height="54" viewBox="0 0 69 54" fill="none" xmlns="http://www.w3.org/2000/svg">
<path fill-rule="evenodd" clip-rule="evenodd" d="M0 33.2344C0 43.0908 4.48977 48.586 10.2835 50.326C15.0009 51.7808 20.4678 51.1222 23.2696 50.326C28.0005 49.3942 39.2889 44.6837 43.063 42.859C46.8371 41.0344 61.3838 36.8817 64.7851 34.8037C71.1737 28.8333 68.1003 22.3557 65.5366 19.4482C54.7079 9.77973 48.339 6.48624 31.2136 4.82901C13.6471 4.82901 6.72848 14.3729 6.72848 14.3729C6.72848 14.3729 0 23.378 0 33.2344Z" fill="#EAFEF3"/>
<path d="M40.7621 52.6999L27.977 52.747C25.4388 52.747 24.6438 50.9037 24.6438 49.4138V3.11419C24.6438 0.823357 26.8816 -0.41923 28.4717 0.128451L40.7621 3.8091C42.8998 4.35678 43.848 6.25894 43.848 8.03743V50.0145C43.7419 51.9049 42.5524 52.6999 40.7621 52.6999Z" fill="url(#paint0_linear)"/>
<path d="M41.0105 52.7765L29.3326 52.8236C27.8426 52.8236 26.6413 51.0039 26.6413 49.5198L26.5883 2.36631C26.5353 0.670266 28.0487 -0.0776421 29.2678 0.269811L40.6101 3.70312C42.8479 4.2508 43.9433 6.05285 43.9433 7.83134L43.9492 49.9674C43.8373 51.9402 42.4533 52.7765 41.0105 52.7765Z" fill="url(#paint1_linear)"/>
<path d="M24.9497 18.4551H24.8849C24.7554 18.4551 24.6553 18.3491 24.6553 18.2254V14.9511C24.6553 14.8215 24.7613 14.7214 24.8849 14.7214H24.9497C25.0793 14.7214 25.1794 14.8274 25.1794 14.9511V18.2254C25.1794 18.355 25.0793 18.4551 24.9497 18.4551Z" fill="#14715F"/>
<path d="M24.8321 18.349C24.7202 18.349 24.626 18.2548 24.626 18.1429V15.0099C24.626 14.8981 24.7202 14.8038 24.8321 14.8038C24.944 14.8038 25.0382 14.8981 25.0382 15.0099V18.1429C25.0382 18.2548 24.9499 18.349 24.8321 18.349Z" fill="#399986"/>
<path d="M24.9497 13.3917H24.8849C24.7554 13.3917 24.6553 13.2857 24.6553 13.162V9.88769C24.6553 9.75813 24.7613 9.65802 24.8849 9.65802H24.9497C25.0793 9.65802 25.1794 9.76402 25.1794 9.88769V13.162C25.1794 13.2916 25.0793 13.3917 24.9497 13.3917Z" fill="#14715F"/>
<path d="M24.8321 13.2857C24.7202 13.2857 24.626 13.1914 24.626 13.0795V9.94656C24.626 9.83467 24.7202 9.74045 24.8321 9.74045C24.944 9.74045 25.0382 9.83467 25.0382 9.94656V13.0795C25.0382 13.1914 24.9499 13.2857 24.8321 13.2857Z" fill="#399986"/>
<path d="M26.5938 4.6277C26.5938 4.6277 25.2452 4.47459 24.6504 4.80437V4.38625C24.6504 4.38625 24.8742 4.06825 26.5938 4.18014C26.5938 4.17425 26.6291 4.59237 26.5938 4.6277Z" fill="#399986"/>
<path d="M26.6414 48.2772C26.6414 48.2772 25.2398 48.1358 24.6392 48.4656V48.0475C24.6392 48.0475 24.9159 47.6942 26.6414 47.806V48.2772Z" fill="#29304F"/>
<path d="M43.083 7.81364C43.083 6.53572 42.4234 5.26957 40.7097 4.78078L40.2327 4.63945C40.0796 4.59233 39.9265 4.71011 39.9265 4.86323V5.18713C39.9206 5.86437 39.2728 6.35316 38.6191 6.16471L32.4768 4.42155C31.7407 4.21543 31.246 3.53231 31.2696 2.76673L31.2814 2.46639C31.2931 2.19549 31.1165 1.95404 30.8574 1.88338L29.9976 1.63015C28.4252 0.964685 27.4299 1.91282 27.4299 3.50286L27.5595 49.0958C27.5595 50.1617 28.6254 51.7046 30.4157 51.7046L41.0866 51.634C42.5294 51.634 43.1713 50.8095 43.1713 49.5198L43.083 7.81364Z" fill="url(#paint2_linear)"/>
<mask id="mask0" mask-type="alpha" maskUnits="userSpaceOnUse" x="27" y="1" width="17" height="51">
<path d="M43.083 7.81364C43.083 6.53572 42.4234 5.26957 40.7097 4.78078L40.2327 4.63945C40.0796 4.59233 39.9265 4.71011 39.9265 4.86323V5.18713C39.9206 5.86437 39.2728 6.35316 38.6191 6.16471L32.4768 4.42155C31.7407 4.21543 31.246 3.53231 31.2696 2.76673L31.2814 2.46639C31.2931 2.19549 31.1165 1.95404 30.8574 1.88338L29.9976 1.63015C28.4252 0.964685 27.4299 1.91282 27.4299 3.50286L27.5595 49.0958C27.5595 50.1617 28.6254 51.7046 30.4157 51.7046L41.0866 51.634C42.5294 51.634 43.1713 50.8095 43.1713 49.5198L43.083 7.81364Z" fill="url(#paint3_linear)"/>
</mask>
<g mask="url(#mask0)">
<rect width="20.2818" height="3.67745" transform="matrix(-0.914059 0.405581 0.405581 0.914059 42.7378 5.67651)" fill="white" fill-opacity="0.15"/>
<rect width="20.2818" height="1.59108" transform="matrix(-0.914059 0.405581 0.405581 0.914059 45.2126 9.85126)" fill="white" fill-opacity="0.15"/>
</g>
<g clip-path="url(#clip0)">
<path d="M26.4547 51.7354C26.513 51.6713 26.5422 51.5839 26.5422 51.4965V48.2968H13.0559V51.4965C13.0559 51.4965 13.0559 51.5256 13.0559 51.5547C13.0559 51.6072 13.0734 51.6596 13.1084 51.6946L13.155 51.7471C13.7378 52.2075 16.4887 52.5513 19.8049 52.5513C23.1152 52.5513 25.8719 52.2075 26.4547 51.7471V51.7354Z" fill="#E2C759"/>
<path d="M19.7989 49.2876C23.5327 49.2876 26.5596 48.8466 26.5596 48.3026C26.5596 47.7586 23.5327 47.3177 19.7989 47.3177C16.0652 47.3177 13.0383 47.7586 13.0383 48.3026C13.0383 48.8466 16.0652 49.2876 19.7989 49.2876Z" fill="#FFEA80"/>
<path d="M19.811 49.0603C23.2615 49.0603 26.0587 48.7028 26.0587 48.2618C26.0587 47.8208 23.2615 47.4633 19.811 47.4633C16.3604 47.4633 13.5632 47.8208 13.5632 48.2618C13.5632 48.7028 16.3604 49.0603 19.811 49.0603Z" fill="#EAD168"/>
<path d="M19.8628 49.0603C23.1845 49.0603 25.8774 48.7576 25.8774 48.3843C25.8774 48.0109 23.1845 47.7082 19.8628 47.7082C16.541 47.7082 13.8481 48.0109 13.8481 48.3843C13.8481 48.7576 16.541 49.0603 19.8628 49.0603Z" fill="#FFEA80"/>
<path d="M14.2221 49.3983C14.1056 49.375 13.9948 49.3517 13.8958 49.3284V51.7121C13.9948 51.7412 14.1056 51.7645 14.2221 51.7937V49.3983Z" fill="#C1A840"/>
<path d="M13.598 49.2468C13.4815 49.2118 13.3824 49.1768 13.3008 49.1477V51.5255C13.3824 51.5605 13.4815 51.5955 13.598 51.6305V49.2468Z" fill="#C1A840"/>
<path d="M25.2488 51.8228C25.4295 51.782 25.5926 51.747 25.7383 51.7062V49.3225C25.5926 49.3575 25.4295 49.3925 25.2488 49.4274V51.8228Z" fill="#C1A840"/>
<path d="M15.1074 49.544C14.9442 49.5207 14.7927 49.4974 14.647 49.4741V51.8811C14.7927 51.9102 14.9442 51.9394 15.1074 51.9627V49.544Z" fill="#C1A840"/>
<path d="M26.1636 49.1943V51.5722C26.2801 51.5314 26.3792 51.4906 26.4433 51.4498L26.4492 51.444C26.5074 51.3973 26.5366 51.3332 26.5366 51.2691V48.9845C26.5016 49.0544 26.3734 49.1244 26.1636 49.1943Z" fill="#C1A840"/>
<path d="M19.799 49.1535C16.2206 49.1535 13.2949 48.7514 13.0559 48.2385V48.4367C13.0559 48.4367 13.0559 48.4658 13.0559 48.495C13.0559 48.5474 13.0734 48.5999 13.1084 48.6348L13.155 48.6815C13.7378 49.1419 16.4887 49.4857 19.8049 49.4857C23.1152 49.4857 25.8719 49.1419 26.4547 48.6815L26.4606 48.6698C26.5189 48.6057 26.548 48.5183 26.548 48.4309V48.2327C26.3032 48.7514 23.3775 49.1535 19.799 49.1535Z" fill="white"/>
<path d="M26.5595 48.1686C26.5595 48.1453 26.5536 48.122 26.542 48.0987V48.2327C26.5536 48.2152 26.5595 48.1919 26.5595 48.1686Z" fill="white"/>
<path d="M13.0383 48.1686C13.0383 48.1919 13.0442 48.2152 13.0558 48.2385V48.0987C13.0442 48.122 13.0383 48.1453 13.0383 48.1686Z" fill="white"/>
<path d="M26.4547 48.4891C26.513 48.425 26.5422 48.3375 26.5422 48.2501V45.0505H13.0559V48.2501C13.0559 48.2501 13.0559 48.2793 13.0559 48.3084C13.0559 48.3608 13.0734 48.4133 13.1084 48.4483L13.155 48.5007C13.7378 48.9611 16.4887 49.305 19.8049 49.305C23.1152 49.305 25.8719 48.9611 26.4547 48.5007V48.4891Z" fill="#E2C759"/>
<path d="M19.7989 46.0355C23.5327 46.0355 26.5596 45.5945 26.5596 45.0505C26.5596 44.5065 23.5327 44.0656 19.7989 44.0656C16.0652 44.0656 13.0383 44.5065 13.0383 45.0505C13.0383 45.5945 16.0652 46.0355 19.7989 46.0355Z" fill="#FFEA80"/>
<path d="M19.811 45.814C23.2615 45.814 26.0587 45.4565 26.0587 45.0155C26.0587 44.5746 23.2615 44.2171 19.811 44.2171C16.3604 44.2171 13.5632 44.5746 13.5632 45.0155C13.5632 45.4565 16.3604 45.814 19.811 45.814Z" fill="#EAD168"/>
<path d="M19.8628 45.814C23.1845 45.814 25.8774 45.5113 25.8774 45.1379C25.8774 44.7645 23.1845 44.4619 19.8628 44.4619C16.541 44.4619 13.8481 44.7645 13.8481 45.1379C13.8481 45.5113 16.541 45.814 19.8628 45.814Z" fill="#FFEA80"/>
<path d="M14.2221 46.1462C14.1056 46.1229 13.9948 46.0996 13.8958 46.0763V48.46C13.9948 48.4891 14.1056 48.5124 14.2221 48.5416V46.1462Z" fill="#C1A840"/>
<path d="M13.598 46.0005C13.4815 45.9655 13.3824 45.9305 13.3008 45.9014V48.2734C13.3824 48.3084 13.4815 48.3434 13.598 48.3783V46.0005Z" fill="#C1A840"/>
<path d="M25.2488 48.5707C25.4295 48.5299 25.5926 48.4949 25.7383 48.4541V46.0704C25.5926 46.1054 25.4295 46.1403 25.2488 46.1753V48.5707Z" fill="#C1A840"/>
<path d="M15.1074 46.2977C14.9442 46.2744 14.7927 46.2511 14.647 46.2278V48.6348C14.7927 48.6639 14.9442 48.693 15.1074 48.7164V46.2977Z" fill="#C1A840"/>
<path d="M26.1636 45.948V48.3259C26.2801 48.2851 26.3792 48.2443 26.4433 48.2035L26.4492 48.1977C26.5074 48.1511 26.5366 48.087 26.5366 48.0228V45.7382C26.5016 45.8082 26.3734 45.8781 26.1636 45.948Z" fill="#C1A840"/>
<path d="M19.799 46.0238C16.2206 46.0238 13.2949 45.6216 13.0559 45.1088V45.3069C13.0559 45.3069 13.0559 45.3361 13.0559 45.3652C13.0559 45.4177 13.0734 45.4701 13.1084 45.5051L13.155 45.5575C13.7378 46.018 16.4887 46.3618 19.8049 46.3618C23.1152 46.3618 25.8719 46.018 26.4547 45.5575L26.4606 45.5459C26.5189 45.4818 26.548 45.3943 26.548 45.3069V45.1088C26.3032 45.6216 23.3775 46.0238 19.799 46.0238Z" fill="white"/>
<path d="M26.5595 45.0388C26.5595 45.0155 26.5536 44.9922 26.542 44.9689V45.1029C26.5536 45.0855 26.5595 45.0622 26.5595 45.0388Z" fill="white"/>
<path d="M13.0383 45.0388C13.0383 45.0622 13.0442 45.0855 13.0558 45.1088V44.9747C13.0442 44.9922 13.0383 45.0155 13.0383 45.0388Z" fill="white"/>
<path d="M26.4547 45.3361C26.513 45.272 26.5422 45.1846 26.5422 45.0971V41.8975H13.0559V45.0971C13.0559 45.0971 13.0559 45.1263 13.0559 45.1554C13.0559 45.2079 13.0734 45.2603 13.1084 45.2953L13.155 45.3477C13.7378 45.8082 16.4887 46.152 19.8049 46.152C23.1152 46.152 25.8719 45.8082 26.4547 45.3477V45.3361Z" fill="#E2C759"/>
<path d="M19.7989 42.8825C23.5327 42.8825 26.5596 42.4415 26.5596 41.8975C26.5596 41.3535 23.5327 40.9126 19.7989 40.9126C16.0652 40.9126 13.0383 41.3535 13.0383 41.8975C13.0383 42.4415 16.0652 42.8825 19.7989 42.8825Z" fill="#FFEA80"/>
<path d="M19.811 42.661C23.2615 42.661 26.0587 42.3035 26.0587 41.8625C26.0587 41.4216 23.2615 41.0641 19.811 41.0641C16.3604 41.0641 13.5632 41.4216 13.5632 41.8625C13.5632 42.3035 16.3604 42.661 19.811 42.661Z" fill="#EAD168"/>
<path d="M19.8628 42.661C23.1845 42.661 25.8774 42.3583 25.8774 41.9849C25.8774 41.6116 23.1845 41.3089 19.8628 41.3089C16.541 41.3089 13.8481 41.6116 13.8481 41.9849C13.8481 42.3583 16.541 42.661 19.8628 42.661Z" fill="#FFEA80"/>
<path d="M14.2221 42.999C14.1056 42.9757 13.9948 42.9524 13.8958 42.9291V45.3128C13.9948 45.3419 14.1056 45.3653 14.2221 45.3944V42.999Z" fill="#C1A840"/>
<path d="M13.598 42.8475C13.4815 42.8125 13.3824 42.7776 13.3008 42.7484V45.1263C13.3824 45.1613 13.4815 45.1962 13.598 45.2312V42.8475Z" fill="#C1A840"/>
<path d="M25.2488 45.4235C25.4295 45.3827 25.5926 45.3478 25.7383 45.307V42.9174C25.5926 42.9524 25.4295 42.9874 25.2488 43.0224V45.4235Z" fill="#C1A840"/>
<path d="M15.1074 43.1447C14.9442 43.1214 14.7927 43.0981 14.647 43.0748V45.4818C14.7927 45.511 14.9442 45.5401 15.1074 45.5634V43.1447Z" fill="#C1A840"/>
<path d="M26.1636 42.795V45.1729C26.2801 45.1321 26.3792 45.0913 26.4433 45.0505L26.4492 45.0447C26.5074 44.9981 26.5366 44.934 26.5366 44.8699V42.5911C26.5016 42.6552 26.3734 42.7251 26.1636 42.795Z" fill="#C1A840"/>
<path d="M19.799 42.7425C16.2206 42.7425 13.2949 42.3404 13.0559 41.8275V42.0257C13.0559 42.0257 13.0559 42.0548 13.0559 42.084C13.0559 42.1364 13.0734 42.1889 13.1084 42.2238L13.155 42.2705C13.7378 42.7309 16.4887 43.0747 19.8049 43.0747C23.1152 43.0747 25.8719 42.7309 26.4547 42.2705L26.4606 42.2588C26.5189 42.1947 26.548 42.1073 26.548 42.0198V41.8217C26.3032 42.3404 23.3775 42.7425 19.799 42.7425Z" fill="white"/>
<path d="M26.5595 41.7576C26.5595 41.7343 26.5536 41.711 26.542 41.6877V41.8217C26.5536 41.8042 26.5595 41.7809 26.5595 41.7576Z" fill="white"/>
<path d="M13.0383 41.7576C13.0383 41.7809 13.0442 41.8042 13.0558 41.8275V41.6877C13.0442 41.711 13.0383 41.7343 13.0383 41.7576Z" fill="white"/>
<path d="M26.4547 42.0898C26.513 42.0257 26.5422 41.9383 26.5422 41.8509V38.6512H13.0559V41.8509C13.0559 41.8509 13.0559 41.88 13.0559 41.9091C13.0559 41.9616 13.0734 42.014 13.1084 42.049L13.155 42.0956C13.7378 42.5561 16.4887 42.8999 19.8049 42.8999C23.1152 42.8999 25.8719 42.5561 26.4547 42.0956V42.0898Z" fill="#E2C759"/>
<path d="M19.7989 39.6362C23.5327 39.6362 26.5596 39.1952 26.5596 38.6512C26.5596 38.1073 23.5327 37.6663 19.7989 37.6663C16.0652 37.6663 13.0383 38.1073 13.0383 38.6512C13.0383 39.1952 16.0652 39.6362 19.7989 39.6362Z" fill="#FFEA80"/>
<path d="M19.811 39.4147C23.2615 39.4147 26.0587 39.0572 26.0587 38.6163C26.0587 38.1753 23.2615 37.8178 19.811 37.8178C16.3604 37.8178 13.5632 38.1753 13.5632 38.6163C13.5632 39.0572 16.3604 39.4147 19.811 39.4147Z" fill="#EAD168"/>
<path d="M19.8628 39.4147C23.1845 39.4147 25.8774 39.112 25.8774 38.7387C25.8774 38.3653 23.1845 38.0626 19.8628 38.0626C16.541 38.0626 13.8481 38.3653 13.8481 38.7387C13.8481 39.112 16.541 39.4147 19.8628 39.4147Z" fill="#FFEA80"/>
<path d="M14.2221 39.7469C14.1056 39.7236 13.9948 39.7003 13.8958 39.677V42.0607C13.9948 42.0898 14.1056 42.1132 14.2221 42.1423V39.7469Z" fill="#C1A840"/>
<path d="M13.598 39.6012C13.4815 39.5662 13.3824 39.5313 13.3008 39.5021V41.88C13.3824 41.915 13.4815 41.9499 13.598 41.9849V39.6012Z" fill="#C1A840"/>
<path d="M25.2488 42.1714C25.4295 42.1306 25.5926 42.0957 25.7383 42.0549V39.6712C25.5926 39.7061 25.4295 39.7411 25.2488 39.7761V42.1714Z" fill="#C1A840"/>
<path d="M15.1074 39.8985C14.9442 39.8751 14.7927 39.8518 14.647 39.8285V42.2355C14.7927 42.2647 14.9442 42.2938 15.1074 42.3171V39.8985Z" fill="#C1A840"/>
<path d="M26.1636 39.5488V41.9266C26.2801 41.8858 26.3792 41.845 26.4433 41.8043L26.4492 41.7984C26.5074 41.7518 26.5366 41.6877 26.5366 41.6236V39.339C26.5016 39.4089 26.3734 39.4788 26.1636 39.5488Z" fill="#C1A840"/>
</g>
<g clip-path="url(#clip1)">
<path d="M26.4547 48.3551C26.513 48.291 26.5422 48.2036 26.5422 48.1161V44.9165H13.0559V48.1161C13.0559 48.1161 13.0559 48.1453 13.0559 48.1744C13.0559 48.2269 13.0734 48.2793 13.1084 48.3143L13.155 48.3668C13.7378 48.8272 16.4887 49.171 19.8049 49.171C23.1152 49.171 25.8719 48.8272 26.4547 48.3668V48.3551Z" fill="#E2C759"/>
<path d="M19.7989 45.9073C23.5327 45.9073 26.5596 45.4663 26.5596 44.9223C26.5596 44.3783 23.5327 43.9373 19.7989 43.9373C16.0652 43.9373 13.0383 44.3783 13.0383 44.9223C13.0383 45.4663 16.0652 45.9073 19.7989 45.9073Z" fill="#FFEA80"/>
<path d="M19.811 45.6799C23.2615 45.6799 26.0587 45.3225 26.0587 44.8815C26.0587 44.4405 23.2615 44.083 19.811 44.083C16.3604 44.083 13.5632 44.4405 13.5632 44.8815C13.5632 45.3225 16.3604 45.6799 19.811 45.6799Z" fill="#EAD168"/>
<path d="M19.8628 45.68C23.1845 45.68 25.8774 45.3773 25.8774 45.0039C25.8774 44.6306 23.1845 44.3279 19.8628 44.3279C16.541 44.3279 13.8481 44.6306 13.8481 45.0039C13.8481 45.3773 16.541 45.68 19.8628 45.68Z" fill="#FFEA80"/>
<path d="M14.2221 46.018C14.1056 45.9947 13.9948 45.9714 13.8958 45.9481V48.3318C13.9948 48.3609 14.1056 48.3842 14.2221 48.4134V46.018Z" fill="#C1A840"/>
<path d="M13.598 45.8664C13.4815 45.8315 13.3824 45.7965 13.3008 45.7674V48.1452C13.3824 48.1802 13.4815 48.2152 13.598 48.2501V45.8664Z" fill="#C1A840"/>
<path d="M25.2488 48.4425C25.4295 48.4017 25.5926 48.3667 25.7383 48.3259V45.9422C25.5926 45.9772 25.4295 46.0122 25.2488 46.0471V48.4425Z" fill="#C1A840"/>
<path d="M15.1074 46.1637C14.9442 46.1404 14.7927 46.1171 14.647 46.0938V48.5008C14.7927 48.5299 14.9442 48.559 15.1074 48.5824V46.1637Z" fill="#C1A840"/>
<path d="M26.1636 45.814V48.1919C26.2801 48.1511 26.3792 48.1103 26.4433 48.0695L26.4492 48.0637C26.5074 48.017 26.5366 47.9529 26.5366 47.8888V45.6042C26.5016 45.6741 26.3734 45.7441 26.1636 45.814Z" fill="#C1A840"/>
<path d="M19.799 45.7732C16.2206 45.7732 13.2949 45.3711 13.0559 44.8582V45.0564C13.0559 45.0564 13.0559 45.0855 13.0559 45.1147C13.0559 45.1671 13.0734 45.2196 13.1084 45.2545L13.155 45.3012C13.7378 45.7616 16.4887 46.1054 19.8049 46.1054C23.1152 46.1054 25.8719 45.7616 26.4547 45.3012L26.4606 45.2895C26.5189 45.2254 26.548 45.138 26.548 45.0505V44.8524C26.3032 45.3711 23.3775 45.7732 19.799 45.7732Z" fill="white"/>
<path d="M26.5595 44.7883C26.5595 44.765 26.5536 44.7417 26.542 44.7184V44.8524C26.5536 44.8349 26.5595 44.8116 26.5595 44.7883Z" fill="white"/>
<path d="M13.0383 44.7883C13.0383 44.8116 13.0442 44.8349 13.0558 44.8582V44.7184C13.0442 44.7417 13.0383 44.765 13.0383 44.7883Z" fill="white"/>
<path d="M26.4547 45.1088C26.513 45.0446 26.5422 44.9572 26.5422 44.8698V41.6702H13.0559V44.8698C13.0559 44.8698 13.0559 44.8989 13.0559 44.9281C13.0559 44.9805 13.0734 45.033 13.1084 45.068L13.155 45.1204C13.7378 45.5808 16.4887 45.9247 19.8049 45.9247C23.1152 45.9247 25.8719 45.5808 26.4547 45.1204V45.1088Z" fill="#E2C759"/>
<path d="M19.7989 42.6551C23.5327 42.6551 26.5596 42.2142 26.5596 41.6702C26.5596 41.1262 23.5327 40.6852 19.7989 40.6852C16.0652 40.6852 13.0383 41.1262 13.0383 41.6702C13.0383 42.2142 16.0652 42.6551 19.7989 42.6551Z" fill="#FFEA80"/>
<path d="M19.811 42.4337C23.2615 42.4337 26.0587 42.0762 26.0587 41.6352C26.0587 41.1942 23.2615 40.8368 19.811 40.8368C16.3604 40.8368 13.5632 41.1942 13.5632 41.6352C13.5632 42.0762 16.3604 42.4337 19.811 42.4337Z" fill="#EAD168"/>
<path d="M19.8628 42.4337C23.1845 42.4337 25.8774 42.131 25.8774 41.7576C25.8774 41.3842 23.1845 41.0815 19.8628 41.0815C16.541 41.0815 13.8481 41.3842 13.8481 41.7576C13.8481 42.131 16.541 42.4337 19.8628 42.4337Z" fill="#FFEA80"/>
<path d="M14.2221 42.7659C14.1056 42.7426 13.9948 42.7193 13.8958 42.696V45.0797C13.9948 45.1088 14.1056 45.1321 14.2221 45.1612V42.7659Z" fill="#C1A840"/>
<path d="M13.598 42.6202C13.4815 42.5852 13.3824 42.5502 13.3008 42.5211V44.8931C13.3824 44.9281 13.4815 44.9631 13.598 44.998V42.6202Z" fill="#C1A840"/>
<path d="M25.2488 45.1904C25.4295 45.1496 25.5926 45.1146 25.7383 45.0738V42.6901C25.5926 42.7251 25.4295 42.76 25.2488 42.795V45.1904Z" fill="#C1A840"/>
<path d="M15.1074 42.9174C14.9442 42.8941 14.7927 42.8708 14.647 42.8474V45.2545C14.7927 45.2836 14.9442 45.3127 15.1074 45.3361V42.9174Z" fill="#C1A840"/>
<path d="M26.1636 42.5677V44.9456C26.2801 44.9048 26.3792 44.864 26.4433 44.8232L26.4492 44.8174C26.5074 44.7707 26.5366 44.7066 26.5366 44.6425V42.3579C26.5016 42.4278 26.3734 42.4978 26.1636 42.5677Z" fill="#C1A840"/>
<path d="M19.799 42.6435C16.2206 42.6435 13.2949 42.2413 13.0559 41.7285V41.9266C13.0559 41.9266 13.0559 41.9558 13.0559 41.9849C13.0559 42.0373 13.0734 42.0898 13.1084 42.1248L13.155 42.1772C13.7378 42.6376 16.4887 42.9815 19.8049 42.9815C23.1152 42.9815 25.8719 42.6376 26.4547 42.1772L26.4606 42.1656C26.5189 42.1015 26.548 42.014 26.548 41.9266V41.7285C26.3032 42.2413 23.3775 42.6435 19.799 42.6435Z" fill="white"/>
<path d="M26.5595 41.6585C26.5595 41.6352 26.5536 41.6119 26.542 41.5886V41.7226C26.5536 41.7052 26.5595 41.6818 26.5595 41.6585Z" fill="white"/>
<path d="M13.0383 41.6585C13.0383 41.6818 13.0442 41.7052 13.0558 41.7285V41.5944C13.0442 41.6119 13.0383 41.6352 13.0383 41.6585Z" fill="white"/>
<path d="M26.4547 41.9558C26.513 41.8917 26.5422 41.8042 26.5422 41.7168V38.5172H13.0559V41.7168C13.0559 41.7168 13.0559 41.746 13.0559 41.7751C13.0559 41.8276 13.0734 41.88 13.1084 41.915L13.155 41.9674C13.7378 42.4278 16.4887 42.7717 19.8049 42.7717C23.1152 42.7717 25.8719 42.4278 26.4547 41.9674V41.9558Z" fill="#E2C759"/>
<path d="M19.7989 39.5022C23.5327 39.5022 26.5596 39.0612 26.5596 38.5172C26.5596 37.9732 23.5327 37.5323 19.7989 37.5323C16.0652 37.5323 13.0383 37.9732 13.0383 38.5172C13.0383 39.0612 16.0652 39.5022 19.7989 39.5022Z" fill="#FFEA80"/>
<path d="M19.811 39.2807C23.2615 39.2807 26.0587 38.9232 26.0587 38.4822C26.0587 38.0413 23.2615 37.6838 19.811 37.6838C16.3604 37.6838 13.5632 38.0413 13.5632 38.4822C13.5632 38.9232 16.3604 39.2807 19.811 39.2807Z" fill="#EAD168"/>
<path d="M19.8628 39.2807C23.1845 39.2807 25.8774 38.978 25.8774 38.6046C25.8774 38.2312 23.1845 37.9286 19.8628 37.9286C16.541 37.9286 13.8481 38.2312 13.8481 38.6046C13.8481 38.978 16.541 39.2807 19.8628 39.2807Z" fill="#FFEA80"/>
<path d="M14.2221 39.6187C14.1056 39.5954 13.9948 39.5721 13.8958 39.5488V41.9325C13.9948 41.9616 14.1056 41.985 14.2221 42.0141V39.6187Z" fill="#C1A840"/>
<path d="M13.598 39.4672C13.4815 39.4322 13.3824 39.3972 13.3008 39.3681V41.746C13.3824 41.7809 13.4815 41.8159 13.598 41.8509V39.4672Z" fill="#C1A840"/>
<path d="M25.2488 42.0432C25.4295 42.0024 25.5926 41.9675 25.7383 41.9267V39.5371C25.5926 39.5721 25.4295 39.6071 25.2488 39.642V42.0432Z" fill="#C1A840"/>
<path d="M15.1074 39.7644C14.9442 39.7411 14.7927 39.7178 14.647 39.6945V42.1015C14.7927 42.1306 14.9442 42.1598 15.1074 42.1831V39.7644Z" fill="#C1A840"/>
<path d="M26.1636 39.4147V41.7926C26.2801 41.7518 26.3792 41.711 26.4433 41.6702L26.4492 41.6644C26.5074 41.6178 26.5366 41.5537 26.5366 41.4895V39.2108C26.5016 39.2749 26.3734 39.3448 26.1636 39.4147Z" fill="#C1A840"/>
<path d="M19.799 39.3622C16.2206 39.3622 13.2949 38.9601 13.0559 38.4472V38.6454C13.0559 38.6454 13.0559 38.6745 13.0559 38.7036C13.0559 38.7561 13.0734 38.8085 13.1084 38.8435L13.155 38.8901C13.7378 39.3506 16.4887 39.6944 19.8049 39.6944C23.1152 39.6944 25.8719 39.3506 26.4547 38.8901L26.4606 38.8785C26.5189 38.8144 26.548 38.727 26.548 38.6395V38.4414C26.3032 38.9601 23.3775 39.3622 19.799 39.3622Z" fill="white"/>
<path d="M26.5595 38.3773C26.5595 38.354 26.5536 38.3307 26.542 38.3073V38.4414C26.5536 38.4239 26.5595 38.4006 26.5595 38.3773Z" fill="white"/>
<path d="M13.0383 38.3773C13.0383 38.4006 13.0442 38.4239 13.0558 38.4472V38.3073C13.0442 38.3307 13.0383 38.354 13.0383 38.3773Z" fill="white"/>
<path d="M26.4547 38.7095C26.513 38.6454 26.5422 38.558 26.5422 38.4705V35.2709H13.0559V38.4705C13.0559 38.4705 13.0559 38.4997 13.0559 38.5288C13.0559 38.5813 13.0734 38.6337 13.1084 38.6687L13.155 38.7153C13.7378 39.1757 16.4887 39.5196 19.8049 39.5196C23.1152 39.5196 25.8719 39.1757 26.4547 38.7153V38.7095Z" fill="#E2C759"/>
<path d="M19.7989 36.2559C23.5327 36.2559 26.5596 35.8149 26.5596 35.2709C26.5596 34.727 23.5327 34.286 19.7989 34.286C16.0652 34.286 13.0383 34.727 13.0383 35.2709C13.0383 35.8149 16.0652 36.2559 19.7989 36.2559Z" fill="#FFEA80"/>
<path d="M19.811 36.0344C23.2615 36.0344 26.0587 35.6769 26.0587 35.236C26.0587 34.795 23.2615 34.4375 19.811 34.4375C16.3604 34.4375 13.5632 34.795 13.5632 35.236C13.5632 35.6769 16.3604 36.0344 19.811 36.0344Z" fill="#EAD168"/>
<path d="M19.8628 36.0344C23.1845 36.0344 25.8774 35.7317 25.8774 35.3583C25.8774 34.985 23.1845 34.6823 19.8628 34.6823C16.541 34.6823 13.8481 34.985 13.8481 35.3583C13.8481 35.7317 16.541 36.0344 19.8628 36.0344Z" fill="#FFEA80"/>
<path d="M14.2221 36.3666C14.1056 36.3433 13.9948 36.32 13.8958 36.2967V38.6804C13.9948 38.7095 14.1056 38.7328 14.2221 38.762V36.3666Z" fill="#C1A840"/>
<path d="M13.598 36.2209C13.4815 36.1859 13.3824 36.151 13.3008 36.1218V38.4997C13.3824 38.5347 13.4815 38.5696 13.598 38.6046V36.2209Z" fill="#C1A840"/>
<path d="M25.2488 38.7911C25.4295 38.7503 25.5926 38.7154 25.7383 38.6746V36.2909C25.5926 36.3258 25.4295 36.3608 25.2488 36.3958V38.7911Z" fill="#C1A840"/>
<path d="M15.1074 36.5181C14.9442 36.4948 14.7927 36.4715 14.647 36.4482V38.8552C14.7927 38.8844 14.9442 38.9135 15.1074 38.9368V36.5181Z" fill="#C1A840"/>
<path d="M26.1636 36.1685V38.5463C26.2801 38.5055 26.3792 38.4647 26.4433 38.4239L26.4492 38.4181C26.5074 38.3715 26.5366 38.3074 26.5366 38.2433V35.9586C26.5016 36.0286 26.3734 36.0985 26.1636 36.1685Z" fill="#C1A840"/>
</g>
<g clip-path="url(#clip2)">
<path d="M33.2152 53.1841C33.2735 53.12 33.3027 53.0326 33.3027 52.9452V49.7455H19.8164V52.9452C19.8164 52.9452 19.8164 52.9743 19.8164 53.0034C19.8164 53.0559 19.8339 53.1083 19.8689 53.1433L19.9155 53.1958C20.4983 53.6562 23.2492 54 26.5654 54C29.8757 54 32.6324 53.6562 33.2152 53.1958V53.1841Z" fill="#E2C759"/>
<path d="M26.5594 50.7363C30.2932 50.7363 33.3201 50.2953 33.3201 49.7513C33.3201 49.2073 30.2932 48.7664 26.5594 48.7664C22.8257 48.7664 19.7988 49.2073 19.7988 49.7513C19.7988 50.2953 22.8257 50.7363 26.5594 50.7363Z" fill="#FFEA80"/>
<path d="M26.5715 50.509C30.022 50.509 32.8192 50.1515 32.8192 49.7105C32.8192 49.2695 30.022 48.912 26.5715 48.912C23.1209 48.912 20.3237 49.2695 20.3237 49.7105C20.3237 50.1515 23.1209 50.509 26.5715 50.509Z" fill="#EAD168"/>
<path d="M26.6233 50.509C29.945 50.509 32.6379 50.2063 32.6379 49.833C32.6379 49.4596 29.945 49.1569 26.6233 49.1569C23.3015 49.1569 20.6086 49.4596 20.6086 49.833C20.6086 50.2063 23.3015 50.509 26.6233 50.509Z" fill="#FFEA80"/>
<path d="M20.9826 50.847C20.8661 50.8237 20.7553 50.8004 20.6562 50.777V53.1607C20.7553 53.1899 20.8661 53.2132 20.9826 53.2423V50.847Z" fill="#C1A840"/>
<path d="M20.3585 50.6954C20.242 50.6605 20.1429 50.6255 20.0613 50.5963V52.9742C20.1429 53.0092 20.242 53.0442 20.3585 53.0791V50.6954Z" fill="#C1A840"/>
<path d="M32.0093 53.2715C32.1899 53.2307 32.3531 53.1957 32.4988 53.1549V50.7712C32.3531 50.8062 32.1899 50.8411 32.0093 50.8761V53.2715Z" fill="#C1A840"/>
<path d="M21.8679 50.9927C21.7047 50.9694 21.5532 50.946 21.4075 50.9227V53.3297C21.5532 53.3589 21.7047 53.388 21.8679 53.4113V50.9927Z" fill="#C1A840"/>
<path d="M32.9241 50.643V53.0209C33.0406 52.9801 33.1397 52.9393 33.2038 52.8985L33.2096 52.8926C33.2679 52.846 33.2971 52.7819 33.2971 52.7178V50.4332C33.2621 50.5031 33.1339 50.573 32.9241 50.643Z" fill="#C1A840"/>
<path d="M26.5595 50.6022C22.9811 50.6022 20.0554 50.2001 19.8164 49.6872V49.8854C19.8164 49.8854 19.8164 49.9145 19.8164 49.9437C19.8164 49.9961 19.8339 50.0486 19.8689 50.0835L19.9155 50.1302C20.4983 50.5906 23.2492 50.9344 26.5654 50.9344C29.8757 50.9344 32.6324 50.5906 33.2152 50.1302L33.2211 50.1185C33.2794 50.0544 33.3085 49.967 33.3085 49.8796V49.6814C33.0637 50.2001 30.138 50.6022 26.5595 50.6022Z" fill="white"/>
<path d="M33.32 49.6173C33.32 49.594 33.3141 49.5707 33.3025 49.5474V49.6814C33.3141 49.6639 33.32 49.6406 33.32 49.6173Z" fill="white"/>
<path d="M19.7988 49.6173C19.7988 49.6406 19.8047 49.6639 19.8163 49.6872V49.5474C19.8047 49.5707 19.7988 49.594 19.7988 49.6173Z" fill="white"/>
<path d="M33.2152 49.9378C33.2735 49.8737 33.3027 49.7862 33.3027 49.6988V46.4992H19.8164V49.6988C19.8164 49.6988 19.8164 49.728 19.8164 49.7571C19.8164 49.8095 19.8339 49.862 19.8689 49.897L19.9155 49.9494C20.4983 50.4098 23.2492 50.7537 26.5654 50.7537C29.8757 50.7537 32.6324 50.4098 33.2152 49.9494V49.9378Z" fill="#E2C759"/>
<path d="M26.5594 47.4842C30.2932 47.4842 33.3201 47.0432 33.3201 46.4992C33.3201 45.9552 30.2932 45.5143 26.5594 45.5143C22.8257 45.5143 19.7988 45.9552 19.7988 46.4992C19.7988 47.0432 22.8257 47.4842 26.5594 47.4842Z" fill="#FFEA80"/>
<path d="M26.5715 47.2627C30.022 47.2627 32.8192 46.9052 32.8192 46.4642C32.8192 46.0233 30.022 45.6658 26.5715 45.6658C23.1209 45.6658 20.3237 46.0233 20.3237 46.4642C20.3237 46.9052 23.1209 47.2627 26.5715 47.2627Z" fill="#EAD168"/>
<path d="M26.6233 47.2627C29.945 47.2627 32.6379 46.96 32.6379 46.5866C32.6379 46.2132 29.945 45.9106 26.6233 45.9106C23.3015 45.9106 20.6086 46.2132 20.6086 46.5866C20.6086 46.96 23.3015 47.2627 26.6233 47.2627Z" fill="#FFEA80"/>
<path d="M20.9826 47.5949C20.8661 47.5716 20.7553 47.5483 20.6562 47.525V49.9087C20.7553 49.9378 20.8661 49.9611 20.9826 49.9903V47.5949Z" fill="#C1A840"/>
<path d="M20.3585 47.4492C20.242 47.4142 20.1429 47.3792 20.0613 47.3501V49.7221C20.1429 49.7571 20.242 49.7921 20.3585 49.827V47.4492Z" fill="#C1A840"/>
<path d="M32.0093 50.0194C32.1899 49.9786 32.3531 49.9436 32.4988 49.9028V47.5191C32.3531 47.5541 32.1899 47.589 32.0093 47.624V50.0194Z" fill="#C1A840"/>
<path d="M21.8679 47.7464C21.7047 47.7231 21.5532 47.6998 21.4075 47.6765V50.0835C21.5532 50.1126 21.7047 50.1417 21.8679 50.1651V47.7464Z" fill="#C1A840"/>
<path d="M32.9241 47.3967V49.7746C33.0406 49.7338 33.1397 49.693 33.2038 49.6522L33.2096 49.6464C33.2679 49.5998 33.2971 49.5357 33.2971 49.4715V47.1869C33.2621 47.2569 33.1339 47.3268 32.9241 47.3967Z" fill="#C1A840"/>
<path d="M26.5595 47.4725C22.9811 47.4725 20.0554 47.0703 19.8164 46.5575V46.7556C19.8164 46.7556 19.8164 46.7848 19.8164 46.8139C19.8164 46.8664 19.8339 46.9188 19.8689 46.9538L19.9155 47.0062C20.4983 47.4667 23.2492 47.8105 26.5654 47.8105C29.8757 47.8105 32.6324 47.4667 33.2152 47.0062L33.2211 46.9946C33.2794 46.9305 33.3085 46.843 33.3085 46.7556V46.5575C33.0637 47.0703 30.138 47.4725 26.5595 47.4725Z" fill="white"/>
<path d="M33.32 46.4875C33.32 46.4642 33.3141 46.4409 33.3025 46.4176V46.5516C33.3141 46.5342 33.32 46.5109 33.32 46.4875Z" fill="white"/>
<path d="M19.7988 46.4875C19.7988 46.5109 19.8047 46.5342 19.8163 46.5575V46.4234C19.8047 46.4409 19.7988 46.4642 19.7988 46.4875Z" fill="white"/>
<path d="M33.2152 46.7848C33.2735 46.7207 33.3027 46.6332 33.3027 46.5458V43.3462H19.8164V46.5458C19.8164 46.5458 19.8164 46.575 19.8164 46.6041C19.8164 46.6566 19.8339 46.709 19.8689 46.744L19.9155 46.7964C20.4983 47.2569 23.2492 47.6007 26.5654 47.6007C29.8757 47.6007 32.6324 47.2569 33.2152 46.7964V46.7848Z" fill="#E2C759"/>
<path d="M26.5594 44.3312C30.2932 44.3312 33.3201 43.8902 33.3201 43.3462C33.3201 42.8022 30.2932 42.3613 26.5594 42.3613C22.8257 42.3613 19.7988 42.8022 19.7988 43.3462C19.7988 43.8902 22.8257 44.3312 26.5594 44.3312Z" fill="#FFEA80"/>
<path d="M26.5715 44.1097C30.022 44.1097 32.8192 43.7522 32.8192 43.3112C32.8192 42.8703 30.022 42.5128 26.5715 42.5128C23.1209 42.5128 20.3237 42.8703 20.3237 43.3112C20.3237 43.7522 23.1209 44.1097 26.5715 44.1097Z" fill="#EAD168"/>
<path d="M26.6233 44.1097C29.945 44.1097 32.6379 43.807 32.6379 43.4336C32.6379 43.0603 29.945 42.7576 26.6233 42.7576C23.3015 42.7576 20.6086 43.0603 20.6086 43.4336C20.6086 43.807 23.3015 44.1097 26.6233 44.1097Z" fill="#FFEA80"/>
<path d="M20.9826 44.4477C20.8661 44.4244 20.7553 44.4011 20.6562 44.3778V46.7615C20.7553 46.7906 20.8661 46.814 20.9826 46.8431V44.4477Z" fill="#C1A840"/>
<path d="M20.3585 44.2962C20.242 44.2612 20.1429 44.2263 20.0613 44.1971V46.575C20.1429 46.61 20.242 46.6449 20.3585 46.6799V44.2962Z" fill="#C1A840"/>
<path d="M32.0093 46.8722C32.1899 46.8314 32.3531 46.7965 32.4988 46.7557V44.3661C32.3531 44.4011 32.1899 44.4361 32.0093 44.4711V46.8722Z" fill="#C1A840"/>
<path d="M21.8679 44.5934C21.7047 44.5701 21.5532 44.5468 21.4075 44.5235V46.9305C21.5532 46.9597 21.7047 46.9888 21.8679 47.0121V44.5934Z" fill="#C1A840"/>
<path d="M32.9241 44.2437V46.6216C33.0406 46.5808 33.1397 46.54 33.2038 46.4992L33.2096 46.4934C33.2679 46.4468 33.2971 46.3827 33.2971 46.3186V44.0398C33.2621 44.1039 33.1339 44.1738 32.9241 44.2437Z" fill="#C1A840"/>
<path d="M26.5595 44.1912C22.9811 44.1912 20.0554 43.7891 19.8164 43.2762V43.4744C19.8164 43.4744 19.8164 43.5035 19.8164 43.5327C19.8164 43.5851 19.8339 43.6376 19.8689 43.6725L19.9155 43.7192C20.4983 44.1796 23.2492 44.5234 26.5654 44.5234C29.8757 44.5234 32.6324 44.1796 33.2152 43.7192L33.2211 43.7075C33.2794 43.6434 33.3085 43.556 33.3085 43.4685V43.2704C33.0637 43.7891 30.138 44.1912 26.5595 44.1912Z" fill="white"/>
<path d="M33.32 43.2063C33.32 43.183 33.3141 43.1597 33.3025 43.1364V43.2704C33.3141 43.2529 33.32 43.2296 33.32 43.2063Z" fill="white"/>
<path d="M19.7988 43.2063C19.7988 43.2296 19.8047 43.2529 19.8163 43.2762V43.1364C19.8047 43.1597 19.7988 43.183 19.7988 43.2063Z" fill="white"/>
<path d="M33.2152 43.5385C33.2735 43.4744 33.3027 43.387 33.3027 43.2996V40.0999H19.8164V43.2996C19.8164 43.2996 19.8164 43.3287 19.8164 43.3578C19.8164 43.4103 19.8339 43.4627 19.8689 43.4977L19.9155 43.5443C20.4983 44.0048 23.2492 44.3486 26.5654 44.3486C29.8757 44.3486 32.6324 44.0048 33.2152 43.5443V43.5385Z" fill="#E2C759"/>
<path d="M26.5594 41.0849C30.2932 41.0849 33.3201 40.6439 33.3201 40.0999C33.3201 39.556 30.2932 39.115 26.5594 39.115C22.8257 39.115 19.7988 39.556 19.7988 40.0999C19.7988 40.6439 22.8257 41.0849 26.5594 41.0849Z" fill="#FFEA80"/>
<path d="M26.5715 40.8634C30.022 40.8634 32.8192 40.5059 32.8192 40.065C32.8192 39.624 30.022 39.2665 26.5715 39.2665C23.1209 39.2665 20.3237 39.624 20.3237 40.065C20.3237 40.5059 23.1209 40.8634 26.5715 40.8634Z" fill="#EAD168"/>
<path d="M26.6233 40.8634C29.945 40.8634 32.6379 40.5607 32.6379 40.1874C32.6379 39.814 29.945 39.5113 26.6233 39.5113C23.3015 39.5113 20.6086 39.814 20.6086 40.1874C20.6086 40.5607 23.3015 40.8634 26.6233 40.8634Z" fill="#FFEA80"/>
<path d="M20.9826 41.1956C20.8661 41.1723 20.7553 41.149 20.6562 41.1257V43.5094C20.7553 43.5385 20.8661 43.5619 20.9826 43.591V41.1956Z" fill="#C1A840"/>
<path d="M20.3585 41.0499C20.242 41.0149 20.1429 40.98 20.0613 40.9508V43.3287C20.1429 43.3637 20.242 43.3986 20.3585 43.4336V41.0499Z" fill="#C1A840"/>
<path d="M32.0093 43.6201C32.1899 43.5793 32.3531 43.5444 32.4988 43.5036V41.1199C32.3531 41.1548 32.1899 41.1898 32.0093 41.2248V43.6201Z" fill="#C1A840"/>
<path d="M21.8679 41.3472C21.7047 41.3238 21.5532 41.3005 21.4075 41.2772V43.6842C21.5532 43.7134 21.7047 43.7425 21.8679 43.7658V41.3472Z" fill="#C1A840"/>
<path d="M32.9241 40.9975V43.3753C33.0406 43.3345 33.1397 43.2937 33.2038 43.253L33.2096 43.2471C33.2679 43.2005 33.2971 43.1364 33.2971 43.0723V40.7877C33.2621 40.8576 33.1339 40.9275 32.9241 40.9975Z" fill="#C1A840"/>
</g>
<path d="M10.7008 33.5528L10.387 32.7865C10.2576 32.4696 10.0052 32.2174 9.68819 32.088L8.94409 31.7808C8.61087 31.645 8.60763 31.1762 8.93762 31.0339L9.68819 30.7138C9.98906 30.5844 10.2317 30.3452 10.3611 30.0412L10.7105 29.2199C10.8464 28.8998 11.2961 28.8901 11.4481 29.2037L11.8525 30.0347C11.9787 30.2934 12.1858 30.5004 12.4446 30.6265L13.2922 31.0371C13.6028 31.1859 13.5963 31.6321 13.2793 31.7711L12.4349 32.1462C12.1469 32.2756 11.9172 32.5051 11.7878 32.7929L11.4449 33.5657C11.3026 33.8891 10.8367 33.8794 10.7008 33.5528Z" fill="#FFEA80"/>
<path d="M27.1195 31.1383L26.8057 30.372C26.6763 30.0551 26.4239 29.8029 26.1069 29.6735L25.3628 29.3664C25.0296 29.2305 25.0263 28.7617 25.3563 28.6194L26.1069 28.2993C26.4078 28.17 26.6504 27.9307 26.7798 27.6267L27.1292 26.8054C27.2651 26.4853 27.7148 26.4756 27.8668 26.7892L28.2712 27.6203C28.3974 27.8789 28.6045 28.0859 28.8633 28.212L29.7109 28.6226C30.0215 28.7714 30.015 29.2176 29.698 29.3567L28.8536 29.7317C28.5656 29.8611 28.3359 30.0907 28.2065 30.3784L27.8636 31.1512C27.7213 31.4746 27.2554 31.4649 27.1195 31.1383Z" fill="#FFEA80"/>
<path d="M40.1578 44.6595L39.844 43.8932C39.7146 43.5763 39.4623 43.3241 39.1452 43.1947L38.4011 42.8876C38.0679 42.7518 38.0647 42.2829 38.3947 42.1406L39.1452 41.8205C39.4461 41.6912 39.6887 41.4519 39.8181 41.1479L40.1675 40.3266C40.3034 40.0065 40.7531 39.9968 40.9052 40.3105L41.3096 41.1415C41.4357 41.4001 41.6428 41.6071 41.9016 41.7332L42.7492 42.1439C43.0598 42.2926 43.0533 42.7388 42.7363 42.8779L41.8919 43.2529C41.604 43.3823 41.3743 43.6119 41.2449 43.8996L40.9019 44.6725C40.7596 44.9958 40.2937 44.9861 40.1578 44.6595Z" fill="#FFEA80"/>
<defs>
<linearGradient id="paint0_linear" x1="34.2459" y1="0" x2="34.2459" y2="52.747" gradientUnits="userSpaceOnUse">
<stop stop-color="#99E2C8"/>
<stop offset="1" stop-color="#109C93"/>
</linearGradient>
<linearGradient id="paint1_linear" x1="35.268" y1="0.186554" x2="35.268" y2="52.8236" gradientUnits="userSpaceOnUse">
<stop stop-color="#7ED3B5"/>
<stop offset="1" stop-color="#0D9AA3"/>
</linearGradient>
<linearGradient id="paint2_linear" x1="35.3006" y1="1.41489" x2="35.3006" y2="51.7046" gradientUnits="userSpaceOnUse">
<stop stop-color="#B8FCB2"/>
<stop offset="1" stop-color="#34B8B0"/>
</linearGradient>
<linearGradient id="paint3_linear" x1="35.3006" y1="1.41489" x2="35.3006" y2="51.7046" gradientUnits="userSpaceOnUse">
<stop stop-color="#B8FCB2"/>
<stop offset="1" stop-color="#34B8B0"/>
</linearGradient>
<clipPath id="clip0">
<rect x="13.0383" y="37.6663" width="13.5212" height="14.885" fill="white"/>
</clipPath>
<clipPath id="clip1">
<rect x="13.0383" y="34.286" width="13.5212" height="14.885" fill="white"/>
</clipPath>
<clipPath id="clip2">
<rect x="19.7988" y="39.115" width="13.5212" height="14.885" fill="white"/>
</clipPath>
</defs>
</svg>
