<svg width="63" height="54" viewBox="0 0 63 54" fill="none" xmlns="http://www.w3.org/2000/svg">
<path fill-rule="evenodd" clip-rule="evenodd" d="M0 24.13C0 13.8213 7.66713 7.95959 16.3549 7.95959C25.0427 7.95959 25.2152 11.4098 30.0522 12.8974C34.8891 14.385 39.445 14.5155 42.7584 12.5111C46.0669 10.512 49.6563 7.9074 54.5032 9.92218C59.35 11.937 65.5478 23.6029 60.2128 32.3249C54.8779 41.0469 46.9494 45.113 39.7063 46.1882C32.4682 47.2583 24.7715 44.9094 17.9672 41.8977C11.158 38.8912 0 34.4388 0 24.13Z" fill="#E7E8F7"/>
<path d="M38.5086 51.2152L25.869 51.261C23.3597 51.261 22.5737 49.4696 22.5737 48.0217V3.02646C22.5737 0.800161 24.7861 -0.407419 26.358 0.124832L38.5086 3.70179C40.6219 4.23404 41.5593 6.08261 41.5593 7.81099V48.6055C41.4545 50.4426 40.2784 51.2152 38.5086 51.2152Z" fill="url(#paint0_linear)"/>
<path d="M38.472 51.2153L27.1397 51.261C25.6939 51.261 24.5281 49.4951 24.5281 48.055L24.4767 2.29158C24.4252 0.651454 25.8939 -0.0743147 27.0768 0.262854L38.0834 3.59453C40.255 4.126 41.3179 5.87471 41.3179 7.60055L41.3236 48.4894C41.215 50.4038 39.8721 51.2153 38.472 51.2153Z" fill="url(#paint1_linear)"/>
<path d="M22.8858 13.3839H22.823C22.6972 13.3839 22.6001 13.281 22.6001 13.161V9.98365C22.6001 9.85792 22.703 9.76077 22.823 9.76077H22.8858C23.0116 9.76077 23.1087 9.86364 23.1087 9.98365V13.161C23.1087 13.2868 23.0116 13.3839 22.8858 13.3839Z" fill="#29304F"/>
<path d="M22.7725 13.281C22.6639 13.281 22.5725 13.1896 22.5725 13.081V10.0408C22.5725 9.9322 22.6639 9.84076 22.7725 9.84076C22.8811 9.84076 22.9725 9.9322 22.9725 10.0408V13.081C22.9725 13.1896 22.8868 13.281 22.7725 13.281Z" fill="#4D5377"/>
<path d="M22.8858 17.9099H22.823C22.6972 17.9099 22.6001 17.807 22.6001 17.687V14.5096C22.6001 14.3839 22.703 14.2868 22.823 14.2868H22.8858C23.0116 14.2868 23.1087 14.3896 23.1087 14.5096V17.687C23.1087 17.8127 23.0116 17.9099 22.8858 17.9099Z" fill="#29304F"/>
<path d="M22.7725 17.807C22.6639 17.807 22.5725 17.7156 22.5725 17.607V14.5667C22.5725 14.4582 22.6639 14.3667 22.7725 14.3667C22.8811 14.3667 22.9725 14.4582 22.9725 14.5667V17.607C22.9725 17.7156 22.8868 17.807 22.7725 17.807Z" fill="#4D5377"/>
<path d="M24.4811 4.49177C24.4811 4.49177 23.1724 4.34319 22.5952 4.66321V4.25747C22.5952 4.25747 22.8124 3.94887 24.4811 4.05745C24.4811 4.05174 24.5154 4.45748 24.4811 4.49177Z" fill="#29304F" fill-opacity="0.6"/>
<path d="M24.5289 46.8492C24.5289 46.8492 23.1688 46.7121 22.5859 47.0321V46.6263C22.5859 46.6263 22.8545 46.2834 24.5289 46.392V46.8492Z" fill="#29304F" fill-opacity="0.6"/>
<path d="M40.4824 7.58342C40.4824 6.34333 39.8424 5.11467 38.1794 4.64034L37.7165 4.50319C37.5679 4.45747 37.4193 4.57177 37.4193 4.72035V5.03466C37.4136 5.69185 36.785 6.16617 36.1507 5.9833L30.1902 4.29175C29.4759 4.09173 28.9959 3.42883 29.0187 2.68591L29.0301 2.39446C29.0416 2.13159 28.8701 1.89728 28.6187 1.82871L27.7843 1.58297C26.2585 0.93721 25.2927 1.85728 25.2927 3.40025L25.4184 47.6436C25.4184 48.6779 26.4528 50.1752 28.1901 50.1752L38.5451 50.1066C39.9453 50.1066 40.5682 49.3066 40.5682 48.055L40.4824 7.58342Z" fill="url(#paint2_linear)"/>
<mask id="mask0" mask-type="alpha" maskUnits="userSpaceOnUse" x="25" y="1" width="16" height="50">
<path d="M40.4824 7.58342C40.4824 6.34333 39.8424 5.11467 38.1794 4.64034L37.7165 4.50319C37.5679 4.45747 37.4193 4.57177 37.4193 4.72035V5.03466C37.4136 5.69185 36.785 6.16617 36.1507 5.9833L30.1902 4.29175C29.4759 4.09173 28.9959 3.42883 29.0187 2.68591L29.0301 2.39446C29.0416 2.13159 28.8701 1.89728 28.6187 1.82871L27.7843 1.58297C26.2585 0.93721 25.2927 1.85728 25.2927 3.40025L25.4184 47.6436C25.4184 48.6779 26.4528 50.1752 28.1901 50.1752L38.5451 50.1066C39.9453 50.1066 40.5682 49.3066 40.5682 48.055L40.4824 7.58342Z" fill="url(#paint3_linear)"/>
</mask>
<g mask="url(#mask0)">
<rect x="46.9639" y="7.30121" width="32.2754" height="5.57494" transform="rotate(143.018 46.9639 7.30121)" fill="white" fill-opacity="0.16"/>
<rect x="49.0471" y="9.77213" width="32.2754" height="2.72644" transform="rotate(143.018 49.0471 9.77213)" fill="white" fill-opacity="0.16"/>
</g>
<g clip-path="url(#clip0)">
<path d="M29.0558 53.2055C29.1126 53.143 29.141 53.0579 29.141 52.9728V49.8567H16.0071V52.9728C16.0071 52.9728 16.0071 53.0011 16.0071 53.0295C16.0071 53.0806 16.0241 53.1317 16.0582 53.1657L16.1036 53.2168C16.6712 53.6652 19.3502 54.0001 22.5797 54.0001C25.8036 54.0001 28.4883 53.6652 29.0558 53.2168V53.2055Z" fill="#E2C759"/>
<path d="M22.5737 50.8216C26.21 50.8216 29.1577 50.3921 29.1577 49.8624C29.1577 49.3326 26.21 48.9031 22.5737 48.9031C18.9375 48.9031 15.9897 49.3326 15.9897 49.8624C15.9897 50.3921 18.9375 50.8216 22.5737 50.8216Z" fill="#FFEA80"/>
<path d="M22.5855 50.6002C25.9459 50.6002 28.67 50.2521 28.67 49.8226C28.67 49.3932 25.9459 49.045 22.5855 49.045C19.2251 49.045 16.501 49.3932 16.501 49.8226C16.501 50.2521 19.2251 50.6002 22.5855 50.6002Z" fill="#EAD168"/>
<path d="M22.6358 50.6002C25.8708 50.6002 28.4933 50.3054 28.4933 49.9418C28.4933 49.5782 25.8708 49.2834 22.6358 49.2834C19.4008 49.2834 16.7783 49.5782 16.7783 49.9418C16.7783 50.3054 19.4008 50.6002 22.6358 50.6002Z" fill="#FFEA80"/>
<path d="M17.1428 50.9294C17.0293 50.9067 16.9214 50.884 16.825 50.8613V53.1827C16.9214 53.2111 17.0293 53.2338 17.1428 53.2622V50.9294Z" fill="#C1A840"/>
<path d="M16.5348 50.7818C16.4213 50.7478 16.3248 50.7137 16.2454 50.6853V53.0011C16.3248 53.0351 16.4213 53.0692 16.5348 53.1032V50.7818Z" fill="#C1A840"/>
<path d="M27.8811 53.2906C28.0571 53.2508 28.216 53.2168 28.3579 53.177V50.8556C28.216 50.8897 28.0571 50.9237 27.8811 50.9578V53.2906Z" fill="#C1A840"/>
<path d="M18.0048 51.0713C17.8459 51.0486 17.6983 51.0259 17.5564 51.0032V53.3473C17.6983 53.3757 17.8459 53.4041 18.0048 53.4268V51.0713Z" fill="#C1A840"/>
<path d="M28.772 50.7308V53.0465C28.8855 53.0068 28.982 52.967 29.0444 52.9273L29.0501 52.9216C29.1068 52.8762 29.1352 52.8138 29.1352 52.7514V50.5264C29.1012 50.5945 28.9763 50.6626 28.772 50.7308Z" fill="#C1A840"/>
<path d="M22.574 50.691C19.0891 50.691 16.2398 50.2993 16.0071 49.7999V49.9928C16.0071 49.9928 16.0071 50.0212 16.0071 50.0496C16.0071 50.1007 16.0241 50.1518 16.0582 50.1858L16.1036 50.2312C16.6712 50.6796 19.3502 51.0145 22.5797 51.0145C25.8036 51.0145 28.4883 50.6796 29.0558 50.2312L29.0615 50.2199C29.1183 50.1574 29.1467 50.0723 29.1467 49.9872V49.7942C28.9083 50.2993 26.059 50.691 22.574 50.691Z" fill="white"/>
<path d="M29.1574 49.7318C29.1574 49.7091 29.1517 49.6864 29.1404 49.6637V49.7942C29.1517 49.7772 29.1574 49.7545 29.1574 49.7318Z" fill="white"/>
<path d="M15.9897 49.7318C15.9897 49.7545 15.9954 49.7772 16.0068 49.7999V49.6637C15.9954 49.6864 15.9897 49.7091 15.9897 49.7318Z" fill="white"/>
<path d="M29.0558 50.0439C29.1126 49.9815 29.141 49.8964 29.141 49.8112V46.6952H16.0071V49.8112C16.0071 49.8112 16.0071 49.8396 16.0071 49.868C16.0071 49.9191 16.0241 49.9702 16.0582 50.0042L16.1036 50.0553C16.6712 50.5037 19.3502 50.8386 22.5797 50.8386C25.8036 50.8386 28.4883 50.5037 29.0558 50.0553V50.0439Z" fill="#E2C759"/>
<path d="M22.5737 47.6544C26.21 47.6544 29.1577 47.2249 29.1577 46.6952C29.1577 46.1654 26.21 45.736 22.5737 45.736C18.9375 45.736 15.9897 46.1654 15.9897 46.6952C15.9897 47.2249 18.9375 47.6544 22.5737 47.6544Z" fill="#FFEA80"/>
<path d="M22.5855 47.4387C25.9459 47.4387 28.67 47.0906 28.67 46.6611C28.67 46.2317 25.9459 45.8835 22.5855 45.8835C19.2251 45.8835 16.501 46.2317 16.501 46.6611C16.501 47.0906 19.2251 47.4387 22.5855 47.4387Z" fill="#EAD168"/>
<path d="M22.6358 47.4387C25.8708 47.4387 28.4933 47.1439 28.4933 46.7803C28.4933 46.4167 25.8708 46.1219 22.6358 46.1219C19.4008 46.1219 16.7783 46.4167 16.7783 46.7803C16.7783 47.1439 19.4008 47.4387 22.6358 47.4387Z" fill="#FFEA80"/>
<path d="M17.1428 47.7623C17.0293 47.7396 16.9214 47.7169 16.825 47.6942V50.0156C16.9214 50.044 17.0293 50.0667 17.1428 50.095V47.7623Z" fill="#C1A840"/>
<path d="M16.5348 47.6204C16.4213 47.5863 16.3248 47.5522 16.2454 47.5239V49.8339C16.3248 49.868 16.4213 49.902 16.5348 49.9361V47.6204Z" fill="#C1A840"/>
<path d="M27.8811 50.1234C28.0571 50.0837 28.216 50.0497 28.3579 50.0099V47.6885C28.216 47.7226 28.0571 47.7566 27.8811 47.7907V50.1234Z" fill="#C1A840"/>
<path d="M18.0048 47.9098C17.8459 47.8871 17.6983 47.8644 17.5564 47.8417V50.1858C17.6983 50.2142 17.8459 50.2426 18.0048 50.2653V47.9098Z" fill="#C1A840"/>
<path d="M28.772 47.5693V49.885C28.8855 49.8453 28.982 49.8056 29.0444 49.7658L29.0501 49.7602C29.1068 49.7148 29.1352 49.6523 29.1352 49.5899V47.365C29.1012 47.4331 28.9763 47.5012 28.772 47.5693Z" fill="#C1A840"/>
<path d="M22.574 47.6431C19.0891 47.6431 16.2398 47.2515 16.0071 46.752V46.945C16.0071 46.945 16.0071 46.9733 16.0071 47.0017C16.0071 47.0528 16.0241 47.1039 16.0582 47.1379L16.1036 47.189C16.6712 47.6374 19.3502 47.9723 22.5797 47.9723C25.8036 47.9723 28.4883 47.6374 29.0558 47.189L29.0615 47.1777C29.1183 47.1152 29.1467 47.0301 29.1467 46.945V46.752C28.9083 47.2515 26.059 47.6431 22.574 47.6431Z" fill="white"/>
<path d="M29.1574 46.6839C29.1574 46.6612 29.1517 46.6385 29.1404 46.6158V46.7463C29.1517 46.7293 29.1574 46.7066 29.1574 46.6839Z" fill="white"/>
<path d="M15.9897 46.6839C15.9897 46.7066 15.9954 46.7293 16.0068 46.752V46.6214C15.9954 46.6385 15.9897 46.6612 15.9897 46.6839Z" fill="white"/>
<path d="M29.0558 46.9733C29.1126 46.9109 29.141 46.8258 29.141 46.7406V43.6246H16.0071V46.7406C16.0071 46.7406 16.0071 46.769 16.0071 46.7974C16.0071 46.8485 16.0241 46.8995 16.0582 46.9336L16.1036 46.9847C16.6712 47.4331 19.3502 47.7679 22.5797 47.7679C25.8036 47.7679 28.4883 47.4331 29.0558 46.9847V46.9733Z" fill="#E2C759"/>
<path d="M22.5737 44.5838C26.21 44.5838 29.1577 44.1544 29.1577 43.6246C29.1577 43.0948 26.21 42.6654 22.5737 42.6654C18.9375 42.6654 15.9897 43.0948 15.9897 43.6246C15.9897 44.1544 18.9375 44.5838 22.5737 44.5838Z" fill="#FFEA80"/>
<path d="M22.5855 44.3681C25.9459 44.3681 28.67 44.02 28.67 43.5905C28.67 43.1611 25.9459 42.813 22.5855 42.813C19.2251 42.813 16.501 43.1611 16.501 43.5905C16.501 44.02 19.2251 44.3681 22.5855 44.3681Z" fill="#EAD168"/>
<path d="M22.6358 44.3681C25.8708 44.3681 28.4933 44.0733 28.4933 43.7097C28.4933 43.3461 25.8708 43.0513 22.6358 43.0513C19.4008 43.0513 16.7783 43.3461 16.7783 43.7097C16.7783 44.0733 19.4008 44.3681 22.6358 44.3681Z" fill="#FFEA80"/>
<path d="M17.1428 44.6973C17.0293 44.6746 16.9214 44.6519 16.825 44.6292V46.9506C16.9214 46.979 17.0293 47.0017 17.1428 47.0301V44.6973Z" fill="#C1A840"/>
<path d="M16.5348 44.5498C16.4213 44.5157 16.3248 44.4817 16.2454 44.4533V46.769C16.3248 46.8031 16.4213 46.8371 16.5348 46.8712V44.5498Z" fill="#C1A840"/>
<path d="M27.8811 47.0585C28.0571 47.0187 28.216 46.9847 28.3579 46.945V44.6179C28.216 44.6519 28.0571 44.686 27.8811 44.72V47.0585Z" fill="#C1A840"/>
<path d="M18.0048 44.8392C17.8459 44.8165 17.6983 44.7938 17.5564 44.7711V47.1152C17.6983 47.1436 17.8459 47.172 18.0048 47.1947V44.8392Z" fill="#C1A840"/>
<path d="M28.772 44.4987V46.8144C28.8855 46.7747 28.982 46.735 29.0444 46.6952L29.0501 46.6895C29.1068 46.6441 29.1352 46.5817 29.1352 46.5193V44.3C29.1012 44.3625 28.9763 44.4306 28.772 44.4987Z" fill="#C1A840"/>
<path d="M22.574 44.4476C19.0891 44.4476 16.2398 44.0559 16.0071 43.5565V43.7494C16.0071 43.7494 16.0071 43.7778 16.0071 43.8062C16.0071 43.8573 16.0241 43.9084 16.0582 43.9424L16.1036 43.9878C16.6712 44.4362 19.3502 44.7711 22.5797 44.7711C25.8036 44.7711 28.4883 44.4362 29.0558 43.9878L29.0615 43.9765C29.1183 43.914 29.1467 43.8289 29.1467 43.7438V43.5508C28.9083 44.0559 26.059 44.4476 22.574 44.4476Z" fill="white"/>
<path d="M29.1574 43.4884C29.1574 43.4657 29.1517 43.443 29.1404 43.4203V43.5508C29.1517 43.5338 29.1574 43.5111 29.1574 43.4884Z" fill="white"/>
<path d="M15.9897 43.4884C15.9897 43.5111 15.9954 43.5338 16.0068 43.5565V43.4203C15.9954 43.443 15.9897 43.4657 15.9897 43.4884Z" fill="white"/>
<path d="M29.0558 43.8119C29.1126 43.7494 29.141 43.6643 29.141 43.5791V40.4631H16.0071V43.5791C16.0071 43.5791 16.0071 43.6075 16.0071 43.6359C16.0071 43.687 16.0241 43.7381 16.0582 43.7721L16.1036 43.8175C16.6712 44.2659 19.3502 44.6008 22.5797 44.6008C25.8036 44.6008 28.4883 44.2659 29.0558 43.8175V43.8119Z" fill="#E2C759"/>
<path d="M22.5737 41.4223C26.21 41.4223 29.1577 40.9929 29.1577 40.4631C29.1577 39.9334 26.21 39.5039 22.5737 39.5039C18.9375 39.5039 15.9897 39.9334 15.9897 40.4631C15.9897 40.9929 18.9375 41.4223 22.5737 41.4223Z" fill="#FFEA80"/>
<path d="M22.5855 41.2067C25.9459 41.2067 28.67 40.8585 28.67 40.4291C28.67 39.9996 25.9459 39.6515 22.5855 39.6515C19.2251 39.6515 16.501 39.9996 16.501 40.4291C16.501 40.8585 19.2251 41.2067 22.5855 41.2067Z" fill="#EAD168"/>
<path d="M22.6358 41.2066C25.8708 41.2066 28.4933 40.9119 28.4933 40.5482C28.4933 40.1846 25.8708 39.8898 22.6358 39.8898C19.4008 39.8898 16.7783 40.1846 16.7783 40.5482C16.7783 40.9119 19.4008 41.2066 22.6358 41.2066Z" fill="#FFEA80"/>
<path d="M17.1428 41.5302C17.0293 41.5075 16.9214 41.4848 16.825 41.4621V43.7835C16.9214 43.8119 17.0293 43.8346 17.1428 43.863V41.5302Z" fill="#C1A840"/>
<path d="M16.5348 41.3883C16.4213 41.3542 16.3248 41.3202 16.2454 41.2918V43.6076C16.3248 43.6416 16.4213 43.6757 16.5348 43.7097V41.3883Z" fill="#C1A840"/>
<path d="M27.8811 43.8914C28.0571 43.8516 28.216 43.8176 28.3579 43.7778V41.4564C28.216 41.4905 28.0571 41.5245 27.8811 41.5586V43.8914Z" fill="#C1A840"/>
<path d="M18.0048 41.6778C17.8459 41.6551 17.6983 41.6324 17.5564 41.6096V43.9538C17.6983 43.9822 17.8459 44.0105 18.0048 44.0332V41.6778Z" fill="#C1A840"/>
<path d="M28.772 41.3372V43.653C28.8855 43.6132 28.982 43.5735 29.0444 43.5338L29.0501 43.5281C29.1068 43.4827 29.1352 43.4203 29.1352 43.3578V41.1329C29.1012 41.201 28.9763 41.2691 28.772 41.3372Z" fill="#C1A840"/>
</g>
<path d="M13.2431 40.671L12.9374 39.9247C12.8114 39.6161 12.5657 39.3705 12.2569 39.2445L11.5322 38.9454C11.2077 38.8131 11.2046 38.3565 11.5259 38.2179L12.2569 37.9062C12.5499 37.7802 12.7862 37.5472 12.9122 37.2512L13.2525 36.4513C13.3848 36.1396 13.8228 36.1301 13.9709 36.4356L14.3647 37.2449C14.4876 37.4968 14.6892 37.6983 14.9413 37.8212L15.7667 38.2211C16.0692 38.3659 16.0629 38.8005 15.7541 38.9359L14.9318 39.3012C14.6514 39.4272 14.4277 39.6507 14.3017 39.931L13.9677 40.6836C13.8291 40.9985 13.3754 40.9891 13.2431 40.671Z" fill="#FFEA80"/>
<path d="M30.1732 38.3196L29.8676 37.5733C29.7416 37.2647 29.4958 37.019 29.1871 36.8931L28.4624 36.5939C28.1379 36.4617 28.1347 36.0051 28.4561 35.8665L29.1871 35.5547C29.4801 35.4288 29.7164 35.1958 29.8424 34.8997L30.1827 34.0999C30.315 33.7881 30.753 33.7787 30.901 34.0842L31.2949 34.8934C31.4177 35.1454 31.6194 35.3469 31.8714 35.4697L32.6969 35.8696C32.9994 36.0145 32.9931 36.4491 32.6843 36.5845L31.862 36.9498C31.5816 37.0757 31.3579 37.2993 31.2319 37.5796L30.8979 38.3322C30.7593 38.6471 30.3056 38.6376 30.1732 38.3196Z" fill="#FFEA80"/>
<defs>
<linearGradient id="paint0_linear" x1="32.0665" y1="0" x2="32.0665" y2="51.261" gradientUnits="userSpaceOnUse">
<stop stop-color="#623DF4"/>
<stop offset="1" stop-color="#4521D9"/>
</linearGradient>
<linearGradient id="paint1_linear" x1="32.8995" y1="0.182037" x2="32.8995" y2="51.261" gradientUnits="userSpaceOnUse">
<stop stop-color="#9676F0"/>
<stop offset="1" stop-color="#5E38F4"/>
</linearGradient>
<linearGradient id="paint2_linear" x1="32.9304" y1="1.37408" x2="32.9304" y2="50.1752" gradientUnits="userSpaceOnUse">
<stop stop-color="#C7CBF5"/>
<stop offset="1" stop-color="#757DF2"/>
</linearGradient>
<linearGradient id="paint3_linear" x1="32.9304" y1="1.37408" x2="32.9304" y2="50.1752" gradientUnits="userSpaceOnUse">
<stop stop-color="#B8FCB2"/>
<stop offset="1" stop-color="#34B8B0"/>
</linearGradient>
<clipPath id="clip0">
<rect x="15.9897" y="39.5039" width="13.168" height="14.4961" fill="white"/>
</clipPath>
</defs>
</svg>
