<svg width="672" height="525" viewBox="0 0 672 525" fill="none" xmlns="http://www.w3.org/2000/svg">
<path d="M150.258 241.56C150.258 241.56 210.104 323.566 213.882 325.458C217.661 327.349 462.104 325.458 462.104 325.458L512.774 243.722L408.938 239.872L267.251 236.089L170.364 240.547L150.461 241.56" fill="#8E979E"/>
<path d="M517.56 230.885C517.56 230.885 520.731 232.1 521.136 234.87C521.541 237.64 521.136 236.221 521.136 236.221C521.136 236.221 521.136 237.977 521.136 238.585C520.664 240.544 519.382 242.165 517.628 243.179L516.751 233.924L517.56 230.885Z" fill="white"/>
<path d="M433.764 395.035L435.99 439.416C435.99 439.416 435.653 462.923 447.056 467.044C447.73 467.044 471.48 467.044 471.48 467.044C471.48 467.044 480.723 468.733 483.489 453.061C485.783 433.471 486.525 413.679 485.783 393.955L433.764 395.035Z" fill="black"/>
<path d="M458.123 420.637L460.349 465.017C460.349 465.017 460.349 488.525 471.482 492.645C472.089 492.645 495.838 492.645 495.838 492.645C495.838 492.645 505.082 494.334 507.848 478.663C510.142 459.073 510.952 439.281 510.209 419.556L458.123 420.637Z" fill="#353031"/>
<path d="M234.054 395.035L231.828 439.416C231.828 439.416 231.828 462.923 220.763 467.044C220.156 467.044 196.406 467.044 196.406 467.044C196.406 467.044 187.095 468.733 184.329 453.061C182.103 433.471 181.36 413.679 182.17 393.955L234.054 395.035Z" fill="black"/>
<path d="M209.696 420.637L207.469 465.017C207.469 465.017 207.807 488.525 196.404 492.645C195.729 492.645 171.98 492.645 171.98 492.645C171.98 492.645 162.737 494.334 159.97 478.663C157.676 459.073 156.867 439.281 157.609 419.556L209.696 420.637Z" fill="#353031"/>
<path d="M518.44 414.557C518.44 414.557 523.231 402.195 521.342 318.028L516.889 246.83L515.607 245.074C499.886 243.723 484.166 243.115 468.378 243.385L333.438 241.696L199.713 243.182C183.925 242.912 168.204 243.52 152.484 244.871L151.269 246.627L146.816 317.825C144.86 401.993 149.65 414.354 149.65 414.354C147.424 418.137 146.142 422.325 145.804 426.716C146.142 434.349 150.73 441.104 157.679 444.279C159.838 446.508 162.672 447.859 165.776 448.129H335.8H502.315C505.419 447.927 508.253 446.508 510.412 444.279C517.361 441.104 521.949 434.349 522.286 426.716C521.882 422.393 520.6 418.272 518.44 414.557Z" fill="url(#paint0_linear)"/>
<g opacity="0.15">
<g opacity="0.15">
<g opacity="0.15">
<path opacity="0.15" d="M467.771 327.415H206.933L149.988 234.196L522.287 237.371L467.771 327.415Z" fill="url(#paint1_linear)"/>
</g>
</g>
</g>
<path d="M459.066 370.918C476.319 370.918 490.304 356.311 490.304 338.291C490.304 320.272 476.319 305.665 459.066 305.665C441.813 305.665 427.827 320.272 427.827 338.291C427.827 356.311 441.813 370.918 459.066 370.918Z" fill="url(#paint2_linear)"/>
<path opacity="0.2" d="M463.453 366.731C478.507 366.731 490.711 354.18 490.711 338.698C490.711 323.215 478.507 310.665 463.453 310.665C448.399 310.665 436.195 323.215 436.195 338.698C436.195 354.18 448.399 366.731 463.453 366.731Z" fill="black"/>
<path d="M461.766 364.097C475.889 364.097 487.337 352.635 487.337 338.496C487.337 324.356 475.889 312.894 461.766 312.894C447.644 312.894 436.195 324.356 436.195 338.496C436.195 352.635 447.644 364.097 461.766 364.097Z" fill="#C7CBD7"/>
<path d="M461.765 360.381C473.838 360.381 483.625 350.582 483.625 338.495C483.625 326.407 473.838 316.608 461.765 316.608C449.692 316.608 439.905 326.407 439.905 338.495C439.905 350.582 449.692 360.381 461.765 360.381Z" fill="#899AAC"/>
<path opacity="0.35" d="M461.762 316.61C455.015 316.61 448.673 319.785 444.557 325.189C450.359 335.862 459.468 344.306 470.465 349.439C473.029 350.655 475.728 351.668 478.427 352.479C486.186 343.36 485.106 329.58 475.998 321.811C472.017 318.366 466.957 316.542 461.762 316.61Z" fill="url(#paint3_linear)"/>
<path opacity="0.23" d="M459.608 351.464C467.284 351.464 473.507 345.234 473.507 337.549C473.507 329.864 467.284 323.634 459.608 323.634C451.932 323.634 445.709 329.864 445.709 337.549C445.709 345.234 451.932 351.464 459.608 351.464Z" fill="white"/>
<path opacity="0.23" d="M467.502 333.701C471.005 333.701 473.844 330.858 473.844 327.351C473.844 323.844 471.005 321.001 467.502 321.001C463.999 321.001 461.16 323.844 461.16 327.351C461.16 330.858 463.999 333.701 467.502 333.701Z" fill="white"/>
<path d="M540.769 224.401C548.259 224.401 554.33 217.899 554.33 209.878C554.33 201.857 548.259 195.354 540.769 195.354C533.279 195.354 527.208 201.857 527.208 209.878C527.208 217.899 533.279 224.401 540.769 224.401Z" fill="#BDBDC1"/>
<path d="M540.774 214.2C542.973 214.2 544.755 212.264 544.755 209.876C544.755 207.489 542.973 205.553 540.774 205.553C538.576 205.553 536.793 207.489 536.793 209.876C536.793 212.264 538.576 214.2 540.774 214.2Z" fill="white"/>
<path d="M517.563 241.559L514.932 239.465L537.872 210.824L540.503 212.985L517.563 241.559Z" fill="white"/>
<g opacity="0.25">
<g opacity="0.25">
<g opacity="0.25">
<path opacity="0.25" d="M443.077 372.538L441.525 371.93C451.106 347.41 442.47 309.244 441.525 307.555L442.2 307.217V306.271L442.807 306.744C444.022 308.501 452.995 347.072 443.077 372.538Z" fill="white"/>
<path opacity="0.25" d="M446.92 372.538L445.301 371.93C454.882 347.41 446.246 309.244 445.301 307.555L445.976 307.217V306.271L446.583 306.744C447.797 308.501 456.838 347.072 446.92 372.538Z" fill="white"/>
<path opacity="0.25" d="M450.701 372.538L449.149 371.93C458.662 347.41 450.093 309.244 449.149 307.555L449.823 307.217V306.271L450.431 306.744C451.578 308.501 460.619 347.072 450.701 372.538Z" fill="white"/>
<path opacity="0.25" d="M454.818 372.538L453.267 371.93C462.78 347.41 454.211 309.244 453.267 307.555L453.941 307.217V306.271L454.549 306.744C455.696 308.501 464.737 347.072 454.818 372.538Z" fill="white"/>
<path opacity="0.25" d="M458.798 372.538L457.246 371.93C466.76 347.41 458.191 309.244 457.246 307.555L457.921 307.217V306.271L458.528 306.744C459.54 308.501 468.514 347.072 458.798 372.538Z" fill="white"/>
<path opacity="0.25" d="M463.186 372.538L461.634 371.93C471.147 347.41 462.579 309.244 461.634 307.555L462.241 307.217V306.271L462.848 306.744C464.13 308.501 473.104 347.072 463.186 372.538Z" fill="white"/>
<path opacity="0.25" d="M467.161 372.538L465.542 371.93C475.055 347.41 466.487 309.244 465.542 307.555L466.217 307.217V306.271L466.824 306.744C468.038 308.501 477.079 347.072 467.161 372.538Z" fill="white"/>
<path opacity="0.25" d="M471.615 372.538L469.996 371.93C479.577 347.41 470.941 309.244 469.996 307.555L470.671 307.217V306.271L471.278 306.744C472.29 308.501 481.533 347.072 471.615 372.538Z" fill="white"/>
<path opacity="0.25" d="M475.87 372.538L474.318 371.93C483.831 347.41 475.262 309.244 474.318 307.555L474.993 307.217V306.271L475.532 306.744C476.747 308.501 485.788 347.072 475.87 372.538Z" fill="white"/>
</g>
</g>
</g>
<path d="M150.259 230.885C150.259 230.885 147.087 232.1 146.683 234.87C146.278 237.64 146.683 236.221 146.683 236.221C146.683 236.221 146.683 237.977 146.683 238.585C147.155 240.477 148.437 242.165 150.191 243.179L151.068 233.924L150.259 230.885Z" fill="white"/>
<path d="M518.436 234.332L516.547 223.862C516.547 223.862 513.444 204.137 506.359 176.577C503.93 164.148 500.759 151.854 496.846 139.83C493.945 132.467 490.234 125.442 485.781 118.957L476.403 105.447C476.403 105.447 462 85 333.636 81.5C207.5 86.8627 191.41 105.244 191.41 105.244L182.032 118.754C177.579 125.171 173.868 132.129 170.967 139.357C167.053 151.381 163.882 163.675 161.453 176.104C154.706 203.935 151.265 223.389 151.265 223.389L149.376 233.86C149.849 245.276 150.995 245.546 150.995 245.546V246.356L152.21 244.6C167.93 243.249 183.651 242.641 199.439 242.911L333.636 241.223L468.104 243.181C483.892 242.911 499.612 243.519 515.333 244.87L516.615 246.627V245.816C516.615 245.816 517.964 245.748 518.436 234.332Z" fill="white"/>
<path d="M506.564 200.557L493.542 148.611C487.47 132.061 473.098 119.902 455.759 116.795C433.021 112.539 417.908 105.311 334.718 106.527C251.527 105.311 234.795 112.539 212.057 116.795C194.718 119.902 180.347 132.061 174.274 148.611L161.253 200.557C159.296 207.109 158.689 214 159.566 220.822C160.78 226.767 169.282 226.767 169.282 226.767H189.522H333.301H335.73H477.889H498.13C498.13 226.767 506.631 226.767 507.845 220.822C508.857 214 508.385 207.109 506.564 200.557Z" fill="#313038"/>
<path d="M208.821 370.918C226.074 370.918 240.06 356.311 240.06 338.291C240.06 320.272 226.074 305.665 208.821 305.665C191.569 305.665 177.583 320.272 177.583 338.291C177.583 356.311 191.569 370.918 208.821 370.918Z" fill="url(#paint4_linear)"/>
<path opacity="0.2" d="M204.366 366.731C219.42 366.731 231.624 354.18 231.624 338.698C231.624 323.215 219.42 310.665 204.366 310.665C189.312 310.665 177.108 323.215 177.108 338.698C177.108 354.18 189.312 366.731 204.366 366.731Z" fill="black"/>
<path d="M206.053 364.097C220.176 364.097 231.624 352.635 231.624 338.496C231.624 324.356 220.176 312.894 206.053 312.894C191.931 312.894 180.482 324.356 180.482 338.496C180.482 352.635 191.931 364.097 206.053 364.097Z" fill="#C7CBD7"/>
<path d="M206.052 360.381C218.125 360.381 227.912 350.582 227.912 338.495C227.912 326.407 218.125 316.608 206.052 316.608C193.979 316.608 184.191 326.407 184.191 338.495C184.191 350.582 193.979 360.381 206.052 360.381Z" fill="#899AAC"/>
<path opacity="0.35" d="M206.055 316.61C212.802 316.61 219.212 319.785 223.327 325.189C217.458 335.794 208.417 344.306 197.419 349.439C194.788 350.588 192.156 351.601 189.39 352.479C181.631 343.36 182.711 329.58 191.819 321.811C195.8 318.366 200.792 316.542 206.055 316.61Z" fill="url(#paint5_linear)"/>
<path opacity="0.23" d="M208.283 351.464C215.959 351.464 222.181 345.234 222.181 337.549C222.181 329.864 215.959 323.634 208.283 323.634C200.607 323.634 194.384 329.864 194.384 337.549C194.384 345.234 200.607 351.464 208.283 351.464Z" fill="white"/>
<path opacity="0.23" d="M200.318 333.701C203.821 333.701 206.66 330.858 206.66 327.351C206.66 323.844 203.821 321.001 200.318 321.001C196.815 321.001 193.976 323.844 193.976 327.351C193.976 330.858 196.815 333.701 200.318 333.701Z" fill="white"/>
<path d="M127.048 224.401C134.537 224.401 140.609 217.899 140.609 209.878C140.609 201.857 134.537 195.354 127.048 195.354C119.558 195.354 113.486 201.857 113.486 209.878C113.486 217.899 119.558 224.401 127.048 224.401Z" fill="#BDBDC1"/>
<path d="M127.047 214.2C129.246 214.2 131.028 212.264 131.028 209.876C131.028 207.489 129.246 205.553 127.047 205.553C124.849 205.553 123.066 207.489 123.066 209.876C123.066 212.264 124.849 214.2 127.047 214.2Z" fill="white"/>
<path d="M150.256 241.559L127.316 212.985L129.947 210.824L152.887 239.465L150.256 241.559Z" fill="white"/>
<g opacity="0.25">
<g opacity="0.25">
<g opacity="0.25">
<path opacity="0.25" d="M224.741 372.538L226.293 371.93C216.78 347.41 225.349 309.244 226.293 307.555L225.618 307.217V306.271L225.011 306.744C223.797 308.501 214.823 347.072 224.741 372.538Z" fill="white"/>
<path opacity="0.25" d="M220.898 372.538L222.517 371.93C212.936 347.41 221.572 309.244 222.517 307.555L221.91 307.217V306.271L221.303 306.744C220.021 308.501 210.98 347.072 220.898 372.538Z" fill="white"/>
<path opacity="0.25" d="M217.115 372.538L218.667 371.93C209.154 347.41 217.722 309.244 218.667 307.555L217.992 307.217V306.271L217.385 306.744C216.238 308.501 207.197 347.072 217.115 372.538Z" fill="white"/>
<path opacity="0.25" d="M213.003 372.538L214.555 371.93C205.042 347.41 213.678 309.244 214.555 307.555L213.881 307.217V306.271L213.273 306.744C212.126 308.501 203.085 347.072 213.003 372.538Z" fill="white"/>
<path opacity="0.25" d="M209.158 372.538L210.71 371.93C201.197 347.41 209.766 309.244 210.71 307.555L210.035 307.217V306.271L209.428 306.744C208.281 308.501 199.308 347.072 209.158 372.538Z" fill="white"/>
<path opacity="0.25" d="M204.638 372.538L206.19 371.93C196.677 347.41 205.245 309.244 206.19 307.555L205.515 307.217V306.271L204.908 306.744C203.693 308.501 194.72 347.072 204.638 372.538Z" fill="white"/>
<path opacity="0.25" d="M200.656 372.538L202.208 371.93C192.695 347.41 201.263 309.244 202.208 307.555L201.533 307.217V306.271L200.926 306.744C199.779 308.501 190.738 347.072 200.656 372.538Z" fill="white"/>
<path opacity="0.25" d="M196.204 372.538L197.823 371.93C188.242 347.41 196.879 309.244 197.823 307.555L197.216 307.217V306.271L196.609 306.744C195.664 308.501 186.286 347.072 196.204 372.538Z" fill="white"/>
<path opacity="0.25" d="M191.952 372.538L193.503 371.93C183.99 347.41 192.559 309.244 193.503 307.555L192.829 307.217V306.271L192.221 306.744C191.074 308.501 182.168 347.072 191.952 372.538Z" fill="white"/>
</g>
</g>
</g>
<path d="M520.398 413.541C518.644 409.894 515.068 407.529 511.02 407.462L333.304 406.178H331.955L154.307 407.462C150.258 407.529 146.683 409.894 144.928 413.541C143.376 416.851 142.634 420.567 142.769 424.214C144.186 437.251 160.042 437.724 160.042 437.724H505.217C505.217 437.724 521.073 437.319 522.557 424.214C522.692 420.499 521.95 416.851 520.398 413.541Z" fill="white"/>
<path d="M154.307 418.405L331.955 417.122H333.304L511.02 418.405C515.068 418.473 518.644 420.837 520.398 424.485C520.87 425.565 521.208 426.714 521.545 427.862C522.085 426.714 522.422 425.498 522.557 424.214C522.692 420.567 521.95 416.851 520.398 413.541C518.644 409.894 515.068 407.529 511.02 407.462L333.304 406.178H331.955L154.307 407.462C150.258 407.529 146.683 409.894 144.928 413.541C143.376 416.851 142.634 420.567 142.769 424.214C142.904 425.498 143.242 426.714 143.714 427.862C144.051 426.714 144.456 425.565 144.928 424.485C146.615 420.837 150.258 418.473 154.307 418.405Z" fill="white"/>
<path d="M160.037 437.658H505.213C505.213 437.658 517.897 437.252 521.541 427.863C521.203 426.714 520.866 425.566 520.394 424.485C518.64 420.838 515.064 418.473 511.016 418.406L333.3 417.122H331.95L154.302 418.406C150.254 418.473 146.678 420.838 144.924 424.485C144.452 425.566 144.047 426.714 143.709 427.863C147.42 437.252 160.037 437.658 160.037 437.658Z" fill="url(#paint6_linear)"/>
<path d="M501.839 205.553L488.345 151.108C484.229 136.45 471.815 125.642 456.769 123.548C436.528 120.238 419.256 113.888 334.919 114.293C248.76 113.888 231.42 120.238 211.179 123.548C196.133 125.642 183.719 136.45 179.603 151.108L166.109 205.553C165.164 209.539 164.962 213.659 165.434 217.713C165.974 223.387 174.88 222.914 174.88 222.914L193.637 222.238L333.232 222.914H336.47L474.311 222.238L493.068 222.914C493.068 222.914 501.974 223.387 502.581 217.713C503.053 213.592 502.784 209.471 501.839 205.553Z" fill="#92CACC"/>
<path d="M247.749 198.596C247.681 194.34 251.122 190.895 255.373 190.828H255.44H417.368C421.619 190.828 425.06 194.273 425.06 198.528V198.596V222.441H436.529V193.597C436.529 189.477 437.811 185.424 440.24 182.114L475.527 131.856C470.062 127.465 463.45 124.561 456.501 123.548C436.26 120.238 418.987 113.888 334.65 114.293C248.491 113.888 231.151 120.238 210.91 123.548C201.262 124.899 192.491 129.83 186.418 137.463C195.122 146.582 224.404 174.818 234.187 184.208C236.279 186.167 237.426 188.936 237.426 191.773V222.441H247.546L247.749 198.596Z" fill="#56555E"/>
<path opacity="0.41" d="M501.839 205.553L488.345 151.108C484.229 136.45 471.815 125.642 456.769 123.548C436.528 120.238 419.256 113.888 334.919 114.293C248.76 113.888 231.42 120.238 211.179 123.548C196.133 125.642 183.719 136.45 179.603 151.108L166.109 205.553C165.164 209.539 164.962 213.659 165.434 217.713C165.974 223.387 174.88 222.914 174.88 222.914L193.637 222.238L333.232 222.914H336.47L474.311 222.238L493.068 222.914C493.068 222.914 501.974 223.387 502.581 217.713C503.053 213.592 502.784 209.471 501.839 205.553Z" fill="white"/>
<g opacity="0.33">
<mask id="mask0" mask-type="alpha" maskUnits="userSpaceOnUse" x="165" y="113" width="339" height="110">
<path opacity="0.41" d="M502.649 205.279L489.155 150.833C485.04 136.175 472.625 125.367 457.579 123.273C437.339 119.963 420.066 113.613 335.729 114.018C249.57 113.613 232.23 119.963 211.989 123.273C196.943 125.367 184.529 136.175 180.413 150.833L166.919 205.279C165.975 209.264 165.772 213.385 166.245 217.438C166.784 223.112 175.69 222.639 175.69 222.639L194.447 221.963L334.042 222.639H337.281L475.122 221.963L493.878 222.639C493.878 222.639 502.784 223.112 503.391 217.438C503.864 213.317 503.594 209.196 502.649 205.279Z" fill="white"/>
</mask>
<g mask="url(#mask0)">
<path d="M402.588 65.3223L265.307 240.304L286 256.577L423.281 81.5954L402.588 65.3223Z" fill="white"/>
<path d="M315.227 63.4161L177.945 238.398L222.78 273.656L360.061 98.6743L315.227 63.4161Z" fill="white"/>
</g>
</g>
<path d="M333.572 376.798C360.848 376.798 382.96 354.66 382.96 327.352C382.96 300.043 360.848 277.905 333.572 277.905C306.296 277.905 284.184 300.043 284.184 327.352C284.184 354.66 306.296 376.798 333.572 376.798Z" fill="white"/>
<path d="M295.316 398.817H372.164C377.562 398.817 381.88 403.14 381.88 408.544V436.037C381.88 441.441 377.562 445.764 372.164 445.764H295.316C289.918 445.764 285.6 441.441 285.6 436.037V408.544C285.6 403.14 289.918 398.817 295.316 398.817Z" fill="#5B5ADB"/>
<path d="M372.164 400.505C376.617 400.505 380.193 404.085 380.193 408.544V436.104C380.193 440.562 376.617 444.143 372.164 444.143H295.316C290.93 444.075 287.355 440.495 287.287 436.104V408.544C287.355 404.153 290.93 400.573 295.316 400.505H372.164ZM372.164 397.128H295.316C289.041 397.128 283.914 402.261 283.914 408.544V436.104C283.914 442.386 289.041 447.52 295.316 447.52H372.164C378.439 447.52 383.567 442.386 383.567 436.104V408.544C383.567 402.194 378.439 397.128 372.164 397.128Z" fill="white"/>
<path d="M310.361 414.626C311.576 414.558 312.723 414.828 313.802 415.301C314.747 415.706 315.557 416.314 316.096 417.192C316.636 418.003 316.906 419.016 316.906 420.03C316.906 421.043 316.636 422.056 316.096 422.934C315.557 423.745 314.747 424.42 313.802 424.826C312.723 425.298 311.508 425.501 310.361 425.569H307.798V429.419H303.615V414.626H310.361ZM310.361 422.191C311.036 422.259 311.778 422.056 312.318 421.651C312.79 421.245 312.993 420.637 312.993 420.03C312.993 419.422 312.79 418.881 312.318 418.476C311.778 418.003 311.036 417.8 310.361 417.868H308.068V422.191H310.361Z" fill="white"/>
<path d="M320.956 414.622H325.072V429.281H320.956V414.622Z" fill="white"/>
<path d="M341.868 426.106V429.281H330.128V414.622H341.598V417.865H334.244V420.297H340.991V423.404H334.244V426.106H341.868Z" fill="white"/>
<path d="M352.667 425.569H350.44V429.419H346.257V414.626H353.004C354.219 414.558 355.366 414.828 356.445 415.301C357.39 415.706 358.199 416.382 358.739 417.192C359.211 418.071 359.481 419.016 359.481 420.03C359.549 421.043 359.279 421.988 358.739 422.867C358.199 423.61 357.457 424.285 356.647 424.69L359.819 429.284H355.366L352.667 425.569ZM355.298 420.165C355.366 419.557 355.096 419.016 354.691 418.611C354.151 418.138 353.409 417.935 352.734 418.003H350.44V422.326H352.734C353.409 422.394 354.084 422.191 354.691 421.786C355.163 421.313 355.366 420.705 355.298 420.03V420.165Z" fill="white"/>
<path d="M365.351 429.487C364.743 429.487 364.136 429.284 363.664 428.811C362.787 427.865 362.787 426.379 363.664 425.434C364.136 424.961 364.743 424.758 365.351 424.758C366.025 424.691 366.633 424.961 367.105 425.434C367.51 425.906 367.78 426.514 367.78 427.122C367.78 427.798 367.51 428.406 367.037 428.811C366.565 429.216 365.958 429.487 365.351 429.487Z" fill="white"/>
<defs>
<linearGradient id="paint0_linear" x1="145.792" y1="344.88" x2="522.273" y2="344.88" gradientUnits="userSpaceOnUse">
<stop stop-color="#FE7577"/>
<stop offset="1" stop-color="#FA6DB3"/>
</linearGradient>
<linearGradient id="paint1_linear" x1="336.126" y1="332.449" x2="336.126" y2="239.365" gradientUnits="userSpaceOnUse">
<stop stop-color="white" stop-opacity="0"/>
<stop offset="1" stop-color="white"/>
</linearGradient>
<linearGradient id="paint2_linear" x1="427.815" y1="338.259" x2="490.292" y2="338.259" gradientUnits="userSpaceOnUse">
<stop stop-opacity="0.2"/>
<stop offset="1" stop-opacity="0"/>
</linearGradient>
<linearGradient id="paint3_linear" x1="455.057" y1="345.071" x2="482.753" y2="317.476" gradientUnits="userSpaceOnUse">
<stop stop-color="white" stop-opacity="0"/>
<stop offset="0.89" stop-color="white"/>
</linearGradient>
<linearGradient id="paint4_linear" x1="240.047" y1="338.259" x2="177.503" y2="338.259" gradientUnits="userSpaceOnUse">
<stop stop-opacity="0.2"/>
<stop offset="1" stop-opacity="0"/>
</linearGradient>
<linearGradient id="paint5_linear" x1="212.747" y1="345.058" x2="185.052" y2="317.463" gradientUnits="userSpaceOnUse">
<stop stop-color="white" stop-opacity="0"/>
<stop offset="0.89" stop-color="white"/>
</linearGradient>
<linearGradient id="paint6_linear" x1="332.795" y1="435.262" x2="331.78" y2="393.921" gradientUnits="userSpaceOnUse">
<stop stop-color="#121212" stop-opacity="0.19"/>
<stop offset="1" stop-color="white" stop-opacity="0"/>
</linearGradient>
</defs>
</svg>
