<svg width="180" height="80" viewBox="0 0 180 80" fill="none" xmlns="http://www.w3.org/2000/svg">
<path fill-rule="evenodd" clip-rule="evenodd" d="M133.076 63.0313C135.817 63.8447 162.669 63.4877 166.731 51.3993C163.977 51.0832 156.055 53.5406 153.382 54.0027C151.971 54.2457 150.385 54.5012 149.044 55.0431C147.922 55.4972 146.786 56.3574 145.734 56.9723C144.455 57.7173 143.466 58.0241 142.067 58.4474C140.55 58.9072 139.115 59.9008 137.533 60.3811C136.37 60.7337 135.035 60.963 133.99 61.6121L133.076 63.0313Z" fill="#B3B3B3"/>
<path fill-rule="evenodd" clip-rule="evenodd" d="M118.263 51.1812C119.574 58.3024 132.89 63.9017 135.013 63.2651C135.746 63.046 149.218 57.2243 150.294 56.7315C151.298 56.2683 152.471 55.9454 153.004 54.8422C148.67 54.7019 132.773 52.3403 129.095 52.3221C125.491 52.3061 121.641 50.7466 118.038 50.7272C118.359 50.6576 118.662 52.362 118.833 52.4339L118.263 51.1812Z" fill="#B9B9B9"/>
<path fill-rule="evenodd" clip-rule="evenodd" d="M129.771 31.6991C129.836 32.2912 129.645 32.8274 129.654 33.4093C129.673 34.4429 130.124 35.1901 130.411 36.1461C130.739 37.2414 129.277 38.1278 129.486 39.2755C130.037 42.3193 130.168 45.8901 131.709 48.6749C132.312 49.7667 132.08 51.1631 132.733 52.264C133.462 53.4961 136.786 54.0825 138.203 53.8019C139.995 53.4471 139.342 52.8903 137.6 49.6994C136.948 48.5072 134.475 40.7951 133.755 38.1643C133.495 37.2128 132.37 29.0364 129.771 31.2439V31.6991Z" fill="#ACACAC"/>
<path fill-rule="evenodd" clip-rule="evenodd" d="M138.29 52.8213C139.505 52.8053 141.785 52.7676 143.001 52.6935C145.013 52.5714 152.397 51.491 153.787 50.2201C161.275 43.3762 153.841 27.8835 153.703 25.7787C156.205 25.7262 159.532 24.9618 161.896 25.7867C161.914 26.6024 162.39 27.1089 162.618 27.8254C163.015 29.0757 162.732 30.4025 162.811 31.694C162.916 33.4086 163.054 35.1895 162.905 36.9202C162.699 39.3239 162.76 43.3465 161.13 45.3442C160.104 46.5968 159.057 47.6395 158.507 49.2595C158.15 50.3091 158.026 50.9891 158.026 52.1014C158.028 53.9998 157.881 53.9792 159.732 54.1424C160.307 54.1937 162.575 54.0819 162.745 54.2736C163.431 55.0573 162.493 55.2159 161.949 55.4235C159.978 56.1674 157.477 55.8491 155.403 55.8514C151.722 55.8582 138.938 54.2576 137.68 54.0397C136.978 53.9188 138.248 53.9153 137.68 53.6336L138.29 52.8213Z" fill="#9D9D9D"/>
<path fill-rule="evenodd" clip-rule="evenodd" d="M167.482 25.433C165.88 25.433 164.277 25.4204 162.699 25.5505C160.693 25.7125 161.446 24.801 161.653 26.4118C163.875 43.8428 153.872 53.1019 154.267 54.4858C154.951 56.8781 162.984 55.1691 162.984 55.1691C164.873 55.4589 166.989 52.5863 167.93 50.9674C169.581 48.1187 170.517 44.6186 170.788 41.3124C171.403 33.8262 168.315 25.6794 167.482 25.5459V25.433Z" fill="#A9A9A9"/>
<path fill-rule="evenodd" clip-rule="evenodd" d="M130.113 20.9897C129.605 23.1607 129.275 25.4926 129.624 27.7286C129.827 29.0326 129.271 30.0331 129.771 31.2436C130.276 32.4563 129.855 34.2394 131.368 33.8071C132.553 33.4682 135.581 29.0794 144.356 26.8C147.162 26.071 152.05 26.7498 154.891 26.0927C154.472 24.4761 152.965 24.4065 151.622 23.2828C148.861 20.976 145.138 20.6052 141.619 20.5368C138.963 20.4866 136.272 20.2801 133.631 20.5025C132.471 20.5995 131.363 20.9737 130.229 21.1026L130.113 20.9897Z" fill="#B1B1B1"/>
<path fill-rule="evenodd" clip-rule="evenodd" d="M150.279 17.3434C154.363 17.3434 160.102 16.9715 163.363 19.8304C165.212 21.4539 166.952 23.213 167.469 25.5518C166.07 26.1085 162.468 26.5888 161.016 25.9157C160.305 25.5849 160.093 24.7703 159.51 24.1542C159.036 23.6523 158.568 23.5587 158.026 23.1765C157.391 22.7282 157.063 22.1612 156.455 21.7048C155.457 20.9633 154.113 20.7112 153.108 19.9502C152.11 19.1938 151.054 18.6873 150.052 17.9127L150.279 17.3434Z" fill="#D1D1D1"/>
<path fill-rule="evenodd" clip-rule="evenodd" d="M124.19 21.4449C128.149 21.4517 146.619 21.5373 152.899 25.3819C155.338 26.8753 158.939 26.3996 161.664 26.0151C161.551 20.1146 158.542 17.8204 157.589 17.5751C155.14 16.9454 144.137 17.0013 141.505 17.0013C134.743 17.0058 124.759 18.7684 120.313 22.3575L124.19 21.4449Z" fill="#C0C0C0"/>
<path fill-rule="evenodd" clip-rule="evenodd" d="M131.138 21.4448C128.032 21.4448 123.401 20.8744 120.6 22.1864C115.132 24.7498 115.77 46.783 117.182 49.2198C117.599 49.9397 118.063 50.9357 118.606 51.5551C119.373 52.4313 120.373 52.38 121.621 52.5511C124.822 52.9835 128.221 53.2869 131.456 53.117C132.23 53.077 133.061 53.2128 133.428 52.4644C133.809 51.6841 133.46 49.7081 133.185 48.9392C132.794 47.8405 132.511 47.0762 132.287 45.86C132.067 44.653 131.653 43.4973 131.387 42.2972C130.846 39.8421 130.961 37.1257 130.802 34.5725C130.521 30.1084 130.571 25.4275 131.138 20.9896V21.4448Z" fill="#BBBBBB"/>
<path fill-rule="evenodd" clip-rule="evenodd" d="M23.2441 60.7759C22.5721 60.9607 21.8431 61.1124 21.0594 61.2333C20.2756 61.3486 19.574 61.409 18.9556 61.409C16.8063 61.409 15.176 60.8032 14.0625 59.5905C12.9491 58.3767 12.3924 56.4338 12.3924 53.7574V42.0124H10V38.8933H12.3924V33.9375L15.9381 32.5708V38.8933H23.2441V42.0124H15.9381V52.0861C15.9381 53.2474 15.9643 54.1533 16.0168 54.8092C16.0704 55.4618 16.2416 56.0699 16.5302 56.638C16.8063 57.1662 17.1885 57.5518 17.6745 57.7971C18.1627 58.0401 18.8997 58.1622 19.8877 58.1622C20.4661 58.1622 21.0685 58.0709 21.6937 57.8907C22.3188 57.7081 22.7706 57.5564 23.0467 57.4355H23.2441V60.7759ZM41.3459 47.4805C41.3322 45.5376 40.8633 44.0317 39.9381 42.9684C39.0128 41.9051 37.6062 41.3712 35.7169 41.3712C33.814 41.3712 32.2967 41.9565 31.1684 43.1259C30.0378 44.2952 29.4001 45.7464 29.254 47.4805H41.3459ZM44.7638 50.344H29.254C29.254 51.6982 29.4491 52.8767 29.837 53.8817C30.226 54.8868 30.7565 55.7117 31.4296 56.3551C32.0879 56.986 32.866 57.4606 33.7615 57.7743C34.6571 58.0915 35.6451 58.2466 36.7266 58.2466C38.1629 58.2466 39.6049 57.9511 41.0561 57.3556C42.505 56.7612 43.5397 56.1748 44.1592 55.5976H44.336V59.6396C43.1507 60.1655 41.9357 60.607 40.691 60.9607C39.4464 61.3178 38.1389 61.4957 36.7699 61.4957C33.2789 61.4957 30.5557 60.5021 28.6003 58.5216C26.6438 56.5376 25.6661 53.722 25.6661 50.0736C25.6661 46.464 26.605 43.5993 28.4828 41.4785C30.3607 39.3565 32.8295 38.2955 35.8869 38.2955C38.7333 38.2955 40.9249 39.166 42.4605 40.9081C43.996 42.649 44.7638 45.1212 44.7638 48.327V50.344ZM62.8668 42.9536H62.6705C62.1446 42.8167 61.6358 42.7197 61.1441 42.6604C60.6512 42.5988 60.0637 42.568 59.3826 42.568C58.2931 42.568 57.2413 42.8224 56.2305 43.3301C55.2208 43.8366 54.242 44.4937 53.2974 45.298V60.9812H49.7516V38.8933H53.2974V42.1561C54.7017 40.9708 55.9384 40.13 57.0085 39.6349C58.0786 39.1409 59.1716 38.8933 60.2885 38.8933C60.9045 38.8933 61.3506 38.9104 61.6255 38.9424C61.9027 38.9766 62.3157 39.0393 62.8668 39.1306V42.9536ZM78.9413 42.9536H78.7439C78.218 42.8167 77.7103 42.7197 77.2174 42.6604C76.7257 42.5988 76.1382 42.568 75.4548 42.568C74.3653 42.568 73.3146 42.8224 72.3038 43.3301C71.2942 43.8366 70.3165 44.4937 69.3707 45.298V60.9812H65.825V38.8933H69.3707V42.1561C70.7751 40.9708 72.0118 40.13 73.0819 39.6349C74.152 39.1409 75.2449 38.8933 76.3607 38.8933C76.9779 38.8933 77.4239 38.9104 77.7 38.9424C77.975 38.9766 78.3891 39.0393 78.9413 39.1306V42.9536ZM93.9936 55.5668V49.4028C92.9235 49.4701 91.6628 49.5682 90.214 49.7017C88.7639 49.8329 87.6163 50.0245 86.7675 50.2767C85.7612 50.5801 84.949 51.0524 84.3283 51.6936C83.7077 52.3336 83.3985 53.2155 83.3985 54.3392C83.3985 55.6067 83.7568 56.5604 84.4755 57.2016C85.1931 57.8439 86.2974 58.1622 87.7862 58.1622C89.0138 58.1622 90.1387 57.9089 91.1643 57.4001C92.1888 56.8901 93.1334 56.2798 93.9936 55.5668ZM97.585 57.0487L94.054 58.8148C93.7392 59.0384 93.2577 59.1559 92.7261 59.5597C92.1956 59.9602 91.6811 60.2796 91.1837 60.5158C90.5939 60.8181 89.9185 61.0702 89.1587 61.2756C88.3989 61.4775 87.5079 61.5802 86.4857 61.5802C84.5987 61.5802 83.0004 60.923 81.6896 59.6088C80.3787 58.2934 79.725 56.6163 79.725 54.5799C79.725 52.9086 80.065 51.5578 80.7461 50.5242C81.4272 49.4929 82.3969 48.6818 83.6552 48.0885C84.9273 47.4976 86.456 47.0971 88.2449 46.8872C90.0337 46.6762 91.9503 46.5199 93.9936 46.4126V45.8354C93.9936 44.9843 93.8532 44.2792 93.5703 43.7214C93.2897 43.1635 92.8858 42.7254 92.3622 42.406C91.8636 42.1002 91.2613 41.8937 90.5596 41.7876C89.8603 41.6815 89.1267 41.6279 88.3669 41.6279C87.4497 41.6279 86.4195 41.7603 85.2787 42.0227C84.1378 42.2862 82.965 42.6672 81.7592 43.1669H81.5618V39.3896C82.2577 39.1922 83.2559 38.9743 84.5565 38.737C85.8571 38.4997 87.1371 38.3811 88.3989 38.3811C89.882 38.3811 91.1723 38.51 92.2686 38.7678C93.3672 39.0245 94.3164 39.4626 95.1162 40.0809C95.9056 40.6867 96.5046 41.4705 96.9187 42.4322C97.334 43.3928 97.5405 44.5861 97.5405 46.0076L97.585 57.0487Z" fill="#AFAFAF"/>
</svg>
