<svg width="125" height="127" viewBox="0 0 125 127" fill="none" xmlns="http://www.w3.org/2000/svg">
<path d="M116.553 61.5589L103.797 74.0265L92.0693 96.5522L78.8567 121.985L62.6359 114.336L45.1206 105.31L56.3532 83.7787L63.3213 59.685C58.4094 62.974 49.271 67.4485 38.3048 65.1156C26.4248 62.5915 32.1364 17.6547 32.1364 17.6547L45.1586 17.3105L46.4533 48.9766L61.189 42.4369L61.2271 42.4751C62.1028 42.0927 62.9025 41.7103 63.2832 41.4808C71.4317 37.0062 76.7625 36.4708 85.5201 39.6068L98.1236 43.8137C101.36 45.4199 113.316 51.3095 116.553 61.5589Z" fill="#FFB3C7"/>
<path d="M71.9654 38.7271C71.9654 38.7271 71.6608 38.88 71.1658 39.2625C70.6708 39.6067 69.9854 40.2186 69.3381 41.0599C68.6908 41.9396 68.0435 43.0869 67.5485 44.4254C67.0154 45.764 66.6346 47.332 66.2158 48.9382C65.34 52.1507 64.5404 55.0573 63.9693 57.1989C63.6646 58.2315 63.4362 59.0729 63.2839 59.6848C63.2077 59.9525 63.1316 60.182 63.0935 60.3732C63.0554 60.5262 63.0173 60.6027 63.0173 60.6027C63.0173 60.6027 63.0173 60.5262 63.0554 60.3732C63.0935 60.182 63.1696 59.9525 63.2077 59.6848C63.36 59.0729 63.5885 58.2315 63.855 57.1607C64.4262 55.019 65.1877 52.1125 66.0254 48.8617C66.4442 47.2555 66.8631 45.6875 67.3962 44.3489C67.9292 42.9721 68.5765 41.8248 69.2619 40.9835C69.9473 40.1038 70.6327 39.5302 71.1658 39.186C71.4323 39.033 71.6227 38.9183 71.775 38.8418C71.8892 38.7653 71.9654 38.7271 71.9654 38.7271Z" fill="#263238"/>
<g opacity="0.3">
<g opacity="0.3">
<path opacity="0.3" d="M67.2061 45.0757C63.5507 54.9809 57.0015 60.5263 47.7488 65.498C47.7488 65.498 55.7069 64.9244 63.0557 59.8761" fill="black"/>
</g>
</g>
<g opacity="0.3">
<g opacity="0.3">
<path opacity="0.3" d="M75.105 38.0386C76.6661 62.859 78.1892 87.6794 79.7504 112.538L75.1811 121.984L75.105 38.0386Z" fill="black"/>
</g>
</g>
<path d="M93.1719 63.7771C93.1338 63.8153 92.6388 62.6297 91.9915 61.2147C91.3442 59.7997 90.7731 58.6906 90.8111 58.6523C90.8492 58.6523 91.0015 58.9201 91.2681 59.3407C91.5346 59.7997 91.8392 60.4116 92.1819 61.1382C92.5246 61.8648 92.753 62.515 92.9434 62.9739C93.1338 63.4711 93.21 63.7771 93.1719 63.7771Z" fill="#FAFAFA"/>
<path d="M103.566 58.5377C103.604 58.5759 102.5 59.3408 101.091 60.2204C99.6823 61.1 98.54 61.7502 98.5019 61.7119C98.4639 61.6737 99.5681 60.9088 100.977 60.0292C102.348 59.1878 103.528 58.4994 103.566 58.5377Z" fill="#FAFAFA"/>
<path d="M99.0375 54.7897C98.9995 54.7897 98.8852 53.8719 98.8472 52.7628C98.771 51.6537 98.771 50.7358 98.8472 50.7358C98.8852 50.7358 98.9995 51.6537 99.0375 52.7628C99.1137 53.8719 99.1137 54.7897 99.0375 54.7897Z" fill="#FAFAFA"/>
<path d="M109.396 54.0628C109.358 54.1011 108.521 53.6421 107.531 53.0302C106.541 52.4183 105.741 51.8829 105.779 51.8064C105.817 51.7682 106.655 52.2271 107.645 52.839C108.635 53.4509 109.435 54.0246 109.396 54.0628Z" fill="#FAFAFA"/>
<path d="M93.595 74.6767C93.5569 74.6385 94.0138 73.4529 94.6231 72.0379C95.2323 70.5846 95.7654 69.4373 95.8416 69.4755C95.8796 69.5138 95.4227 70.6993 94.8135 72.1144C94.1662 73.5677 93.6331 74.715 93.595 74.6767Z" fill="#FAFAFA"/>
<path d="M88.9476 79.3805C88.9095 79.4188 88.4906 78.6539 88.0337 77.736C87.5768 76.8182 87.2341 76.015 87.2722 76.015C87.3103 75.9768 87.7291 76.7417 88.186 77.6595C88.681 78.5774 89.0237 79.3423 88.9476 79.3805Z" fill="#FAFAFA"/>
<path d="M92.8316 85.691C92.8316 85.7292 91.9939 86.0352 90.8897 86.1881C89.7854 86.3411 88.8716 86.3029 88.8716 86.2646C88.8716 86.1881 89.7854 86.1499 90.8516 85.9969C91.9177 85.844 92.7935 85.6145 92.8316 85.691Z" fill="#FAFAFA"/>
<path d="M97.7828 78.7686C97.7447 78.7304 98.0493 77.9272 98.4681 76.8946C98.887 75.9003 99.2678 75.0972 99.3439 75.0972C99.382 75.1354 99.0774 75.9385 98.6585 76.9711C98.2016 78.0037 97.8208 78.8069 97.7828 78.7686Z" fill="#FAFAFA"/>
<path d="M85.7509 93.3779C85.7128 93.4162 85.1416 92.6513 84.3801 91.7334C83.6186 90.8538 82.9332 90.1654 82.9712 90.1272C83.0093 90.0889 83.7709 90.7008 84.5324 91.6187C85.2939 92.4983 85.789 93.3397 85.7509 93.3779Z" fill="#FAFAFA"/>
<path d="M83.54 77.6981C83.578 77.7363 83.1592 78.5777 82.55 79.6103C81.9407 80.6429 81.4457 81.446 81.3696 81.446C81.3315 81.4077 81.7503 80.5664 82.3596 79.5338C82.9688 78.463 83.5019 77.6598 83.54 77.6981Z" fill="#FAFAFA"/>
<path d="M85.1018 72.2672C85.1018 72.3055 84.1499 72.1143 82.9695 71.8083C81.7891 71.5024 80.8752 71.2347 80.8752 71.1582C80.8752 71.1199 81.8272 71.3111 83.0076 71.6171C84.1879 71.9231 85.1399 72.229 85.1018 72.2672Z" fill="#FAFAFA"/>
<path d="M85.0234 61.2148C85.0614 61.1766 85.5564 61.9032 86.1657 62.7828C86.7749 63.6624 87.2699 64.3508 87.2318 64.3891C87.1938 64.4273 86.6226 63.7772 86.0134 62.8976C85.3661 61.9797 84.9853 61.2148 85.0234 61.2148Z" fill="#FAFAFA"/>
<path d="M81.5247 60.6411C81.5628 60.6793 80.9536 61.253 80.192 61.9414C79.4305 62.5915 78.7832 63.127 78.7451 63.0887C78.707 63.0505 79.3163 62.4768 80.0778 61.7884C80.8393 61.1383 81.4866 60.6028 81.5247 60.6411Z" fill="#FAFAFA"/>
<path d="M84.2637 54.8663C84.2256 54.9045 83.388 54.2161 82.5122 53.1453C81.6364 52.1127 81.0653 51.1566 81.1034 51.1183C81.1414 51.0801 81.7887 51.998 82.6645 52.9923C83.5403 54.0631 84.3018 54.828 84.2637 54.8663Z" fill="#FAFAFA"/>
<path d="M94.0139 53.0686C94.0139 53.1068 93.0619 53.451 91.8816 53.8335C90.7012 54.2159 89.7112 54.4454 89.6731 54.4071C89.6731 54.3689 90.625 54.0247 91.8054 53.6423C93.0239 53.2598 94.0139 53.0303 94.0139 53.0686Z" fill="#FAFAFA"/>
<path d="M80.3039 43.7372C80.2277 43.7372 80.2658 42.8576 80.1516 41.7867C80.0373 40.7159 79.7708 39.8745 79.847 39.8745C79.885 39.8745 80.2277 40.6776 80.342 41.7867C80.4562 42.8576 80.342 43.7754 80.3039 43.7372Z" fill="#FAFAFA"/>
<path d="M71.66 71.5023C71.66 71.5406 71.3173 71.77 70.7461 72.1525C70.175 72.5349 69.4134 73.1086 68.5757 73.7587C67.738 74.4089 67.0146 75.0208 66.5196 75.4797C65.9865 75.9386 65.6819 76.2064 65.6819 76.2064C65.6819 76.2064 65.9484 75.8622 66.4434 75.4032C66.9384 74.9061 67.6619 74.2941 68.4615 73.644C69.2992 72.9939 70.0607 72.4584 70.67 72.076C71.2411 71.6553 71.6219 71.4641 71.66 71.5023Z" fill="#FAFAFA"/>
<path d="M71.127 68.4047C71.0889 68.443 70.4416 67.4487 69.5659 66.2631C68.6901 65.0775 67.8905 64.1979 67.9286 64.1597C67.9666 64.1597 68.157 64.3509 68.4997 64.6951C68.8424 65.0393 69.2612 65.5365 69.7182 66.1484C70.1751 66.722 70.5178 67.2957 70.7843 67.7164C71.0508 68.137 71.1651 68.4047 71.127 68.4047Z" fill="#FAFAFA"/>
<path d="M73.4496 56.3193C73.4876 56.3576 72.65 56.8547 71.6219 57.4284C70.5938 58.002 69.718 58.4227 69.718 58.3845C69.68 58.3462 70.5177 57.8491 71.5457 57.2754C72.5738 56.7017 73.4496 56.2811 73.4496 56.3193Z" fill="#FAFAFA"/>
<path d="M71.1674 51.0419C71.1674 51.0802 70.9008 50.889 70.5201 50.5065C70.1393 50.1623 69.6443 49.6652 69.1493 49.0533C68.6543 48.4413 68.2355 47.8677 68.007 47.4088C67.7405 46.9498 67.6262 46.6821 67.6262 46.6821C67.6643 46.6439 68.3116 47.753 69.3016 48.9385C70.2916 50.1623 71.2054 51.0037 71.1674 51.0419Z" fill="#FAFAFA"/>
<path d="M75.128 50.9271C75.0899 50.8888 75.3945 50.1622 75.8134 49.2443C76.2322 48.3265 76.651 47.6381 76.6891 47.6763C76.7272 47.7146 76.4226 48.4412 76.0037 49.3591C75.5468 50.2387 75.166 50.9653 75.128 50.9271Z" fill="#FAFAFA"/>
<path d="M74.059 44.8843C73.9828 44.8843 74.059 43.6987 73.8305 42.2455C73.6021 40.7922 73.1832 39.6831 73.2594 39.6831C73.2974 39.6831 73.4117 39.9508 73.564 40.4097C73.7163 40.8687 73.9067 41.5188 74.0209 42.2455C74.1351 42.9721 74.1732 43.6605 74.1351 44.1194C74.1351 44.6166 74.0971 44.8843 74.059 44.8843Z" fill="#FAFAFA"/>
<path d="M75.0488 75.3648C75.0107 75.3648 75.0488 74.9441 75.0488 74.2557C75.0869 73.5673 75.0869 72.6112 75.0488 71.5786C75.0107 70.546 74.9727 69.5899 74.8965 68.9016C74.8204 68.2132 74.7823 67.7925 74.8204 67.7925C74.8584 67.7925 74.9346 68.2132 75.0488 68.9016C75.125 69.5899 75.2392 70.5461 75.2773 71.6169C75.3154 72.6877 75.2773 73.6438 75.2011 74.3322C75.125 74.9441 75.0488 75.3648 75.0488 75.3648Z" fill="#FAFAFA"/>
<path d="M74.478 84.8876C74.4399 84.9259 73.7926 84.161 72.8026 83.5109C71.8126 82.8607 70.8226 82.593 70.8607 82.5547C70.8607 82.5165 71.8888 82.6695 72.9168 83.3579C73.9068 84.008 74.5161 84.8494 74.478 84.8876Z" fill="#FAFAFA"/>
<path d="M79.235 90.7772C79.2731 90.8154 78.0927 91.5038 76.6077 92.2305C75.1227 92.9954 73.9423 93.569 73.9042 93.5308C73.8661 93.4925 75.0465 92.8424 76.5315 92.0775C77.9784 91.3126 79.1969 90.739 79.235 90.7772Z" fill="#FAFAFA"/>
<path d="M65.7966 93.3782C65.7585 93.4164 64.8828 92.3073 63.8547 90.9305C62.8266 89.5537 62.027 88.3681 62.1032 88.3681C62.1412 88.3299 63.017 89.439 64.0451 90.8158C65.0732 92.1926 65.8728 93.3399 65.7966 93.3782Z" fill="#FAFAFA"/>
<path d="M61.6867 82.5164C61.6487 82.5164 61.6106 82.2105 61.6106 81.7133C61.5725 81.2161 61.5725 80.566 61.6106 79.8011C61.6487 79.0745 61.7248 78.3861 61.7629 77.8889C61.8391 77.3917 61.8771 77.124 61.9152 77.124C61.9533 77.124 61.8391 78.3096 61.801 79.8011C61.7248 81.2926 61.7248 82.5164 61.6867 82.5164Z" fill="#FAFAFA"/>
<path d="M57.1886 101.065C57.1505 101.103 56.1605 100.338 54.9801 99.3441C53.7997 98.3497 52.8478 97.5084 52.8859 97.4701C52.9239 97.4319 53.9139 98.1968 55.0943 99.1911C56.3128 100.185 57.2266 101.027 57.1886 101.065Z" fill="#FAFAFA"/>
<path d="M59.8946 100.491C59.8565 100.491 59.7804 99.1529 59.7423 97.5084C59.7042 95.8639 59.7042 94.5254 59.7804 94.5254C59.8184 94.5254 59.8946 95.8639 59.9327 97.5084C59.9707 99.1529 59.9327 100.491 59.8946 100.491Z" fill="#FAFAFA"/>
<path d="M65.1889 112.003C65.1889 112.041 64.7319 111.85 63.9323 111.582C63.1708 111.353 62.1046 111.047 60.8862 110.894C59.6677 110.741 58.5635 110.703 57.7639 110.741C56.9642 110.779 56.4692 110.817 56.4692 110.779C56.4692 110.779 56.5835 110.741 56.8119 110.703C57.0404 110.664 57.345 110.626 57.7639 110.588C58.5635 110.511 59.7058 110.511 60.9242 110.664C62.1427 110.817 63.2469 111.162 64.0085 111.429C64.3892 111.582 64.6939 111.697 64.8842 111.812C65.0746 111.926 65.1889 112.003 65.1889 112.003Z" fill="#FAFAFA"/>
<path d="M69.5293 114.106C69.5293 114.068 69.872 114.297 70.4051 114.718C70.9001 115.101 71.5854 115.712 72.2708 116.401C72.9562 117.089 73.5655 117.778 73.9462 118.275C74.327 118.772 74.5555 119.116 74.5555 119.154C74.5174 119.154 74.2889 118.848 73.8701 118.389C73.4512 117.892 72.842 117.242 72.1566 116.554C71.4712 115.865 70.8239 115.253 70.3289 114.833C69.8339 114.412 69.5293 114.144 69.5293 114.106Z" fill="#FAFAFA"/>
<path d="M71.4297 94.1813C71.3916 94.2195 70.9347 93.1869 70.4397 91.9631C69.9447 90.7011 69.602 89.6685 69.6401 89.6685C69.6782 89.6303 70.1351 90.6629 70.6301 91.8867C71.1251 93.1487 71.5059 94.1813 71.4297 94.1813Z" fill="#FAFAFA"/>
<path d="M56.165 55.4396C56.165 55.4396 55.9746 55.7073 55.5939 56.0898C55.2131 56.4722 54.6419 56.9311 53.9565 57.3901C53.2712 57.849 52.6238 58.1932 52.1289 58.4227C51.6339 58.6521 51.3292 58.7286 51.3292 58.7286C51.2912 58.6904 52.5096 58.155 53.8423 57.2371C55.175 56.3192 56.0889 55.4014 56.165 55.4396Z" fill="#FAFAFA"/>
<path d="M57.1145 51.3861C57.0764 51.3861 57.0384 50.6213 57.1145 49.6652C57.1526 48.7091 57.2288 47.9824 57.3049 47.9824C57.343 47.9824 57.3811 48.7473 57.3049 49.7034C57.2668 50.6213 57.1907 51.3861 57.1145 51.3861Z" fill="#FAFAFA"/>
<path d="M49.5379 54.7896C49.4998 54.8279 48.6241 54.4837 47.5579 53.9865C46.4917 53.4893 45.6541 53.0686 45.6541 52.9922C45.6921 52.9539 46.5679 53.2981 47.6341 53.7953C48.7002 54.2925 49.5379 54.7514 49.5379 54.7896Z" fill="#FAFAFA"/>
<path d="M63.0933 49.5887C63.0553 49.5887 63.0552 48.6326 63.1695 47.4853C63.2456 46.3379 63.3599 45.3818 63.436 45.3818C63.4741 45.3818 63.4741 46.3379 63.3599 47.4853C63.2456 48.6708 63.1314 49.5887 63.0933 49.5887Z" fill="#FAFAFA"/>
<path d="M45.5041 62.8974C45.5041 62.9356 44.476 62.6297 43.3337 61.9413C42.1914 61.2529 41.4298 60.488 41.4679 60.4498C41.506 60.4115 42.3056 61.0999 43.4479 61.7501C44.5521 62.4385 45.5041 62.8209 45.5041 62.8974Z" fill="#FAFAFA"/>
<path d="M39.8283 55.0955C39.8663 55.1338 39.1429 56.0134 38.191 57.046C37.239 58.0786 36.4775 58.8817 36.4394 58.8435C36.4013 58.8052 37.1248 57.9256 38.0767 56.893C39.0286 55.8604 39.7902 55.0573 39.8283 55.0955Z" fill="#FAFAFA"/>
<path d="M39.3711 48.1351C39.3331 48.1734 38.4954 47.8292 37.5815 47.1408C36.6677 46.4524 36.0965 45.7257 36.1346 45.7257C36.1727 45.6875 36.82 46.3376 37.6958 46.9878C38.6096 47.6379 39.3711 48.0969 39.3711 48.1351Z" fill="#FAFAFA"/>
<path d="M35.8299 49.5887C35.8679 49.6269 35.5252 50.1241 35.0302 50.6977C34.5352 51.2714 34.1164 51.7303 34.0783 51.6921C34.0402 51.6538 34.3829 51.1567 34.8779 50.583C35.3349 50.0093 35.7537 49.5504 35.8299 49.5887Z" fill="#FAFAFA"/>
<path d="M43.443 36.6619C43.4811 36.7001 42.8338 37.5798 41.958 38.6506C41.0822 39.7214 40.3588 40.5246 40.3207 40.5246C40.2826 40.4863 40.9299 39.6067 41.8057 38.5359C42.6434 37.465 43.4049 36.6237 43.443 36.6619Z" fill="#FAFAFA"/>
<path d="M36.8987 38.1152C36.8606 38.1535 36.1372 37.3886 35.2614 36.3942C34.4237 35.3999 33.7383 34.5967 33.7764 34.5585C33.8145 34.5203 34.538 35.2851 35.4137 36.2795C36.2895 37.2738 36.9368 38.077 36.8987 38.1152Z" fill="#FAFAFA"/>
<path d="M40.1719 29.8164C40.1338 29.8546 39.6007 29.0133 39.0296 28.0189C38.4584 26.9863 38.0015 26.145 38.0777 26.1067C38.1157 26.0685 38.6488 26.9099 39.22 27.9042C39.7911 28.9368 40.21 29.8164 40.1719 29.8164Z" fill="#FAFAFA"/>
<path d="M40.0184 24.4623C39.9803 24.4241 40.5515 23.6974 41.0084 22.6648C41.4653 21.6322 41.6176 20.7144 41.6938 20.7526C41.7319 20.7526 41.6557 21.7087 41.1988 22.7413C40.7038 23.8121 40.0184 24.5005 40.0184 24.4623Z" fill="#FAFAFA"/>
<path d="M33.6979 24.156C33.6598 24.156 33.5837 23.047 34.1548 21.8231C34.4214 21.2112 34.8022 20.7141 35.0687 20.4081C35.3733 20.1022 35.5637 19.9109 35.6018 19.9492C35.6398 19.9874 34.8402 20.7141 34.3072 21.8996C33.8122 23.0852 33.7741 24.156 33.6979 24.156Z" fill="#FAFAFA"/>
<path d="M88.5993 15.0543C88.485 13.4481 88.3708 11.8801 88.5231 10.2738C88.7135 8.7058 89.2466 7.09955 90.2747 5.91398C91.3027 4.69017 92.902 3.92529 94.5012 4.11651C95.4912 4.23124 96.405 4.72841 97.3569 4.69017C98.4993 4.65193 99.4892 3.96353 100.517 3.46636C102.117 2.73972 103.982 2.5485 105.696 2.93094C106.61 3.12216 107.485 3.5046 108.171 4.193C108.818 4.84315 109.199 5.83749 108.97 6.75535C110.113 6.75535 111.293 6.75535 112.397 7.0613C113.502 7.36725 114.568 7.97916 115.139 8.9735C115.71 9.96785 115.672 11.3446 114.872 12.1478C115.938 11.9183 117.043 12.7597 117.309 13.7923C117.576 14.8631 117.043 16.0104 116.167 16.6223C115.291 17.2725 113.654 17.5402 112.626 17.349C111.56 17.1577 110.341 16.8518 109.503 16.2016" fill="#263238"/>
<path d="M87.7635 51.0805C92.1424 52.2278 96.5974 49.589 97.7397 45.1909C98.387 42.7433 98.92 40.6781 98.92 40.6781C98.92 40.6781 105.279 41.7872 107.373 35.7064C109.467 29.6638 113.085 15.3606 113.085 15.3606C107.107 9.96815 98.6535 8.28541 91.0762 10.9243L89.9339 11.3067L81.8616 40.8694C80.6812 45.3439 83.3466 49.9332 87.7635 51.0805Z" fill="#B65B52"/>
<path d="M98.9961 40.6018C98.9961 40.6018 95.0742 39.6074 91.8757 35.7065C91.8757 35.7065 92.2946 40.7165 98.5011 42.208L98.9961 40.6018Z" fill="#994840"/>
<path d="M88.6396 17.8848C88.5634 17.8083 84.908 15.246 83.6515 19.4528C82.395 23.6597 86.85 24.0421 86.888 23.9274C86.9261 23.7744 88.6396 17.8848 88.6396 17.8848Z" fill="#B65B52"/>
<path d="M86.0861 21.9383C86.0861 21.9383 86.01 21.9766 85.8576 21.9766C85.7053 21.9766 85.515 21.9766 85.3246 21.8236C84.9438 21.5176 84.7534 20.7145 84.9819 19.9496C85.0961 19.5672 85.2865 19.223 85.515 18.9553C85.7434 18.6876 86.01 18.5346 86.2384 18.5728C86.4669 18.5728 86.5811 18.7641 86.6192 18.917C86.6573 19.07 86.5811 19.1082 86.6192 19.1465C86.6192 19.1465 86.7334 19.1082 86.7334 18.917C86.7334 18.8405 86.7334 18.7258 86.6573 18.6111C86.5811 18.4963 86.4288 18.4199 86.2765 18.3816C85.9338 18.3051 85.553 18.5346 85.3246 18.8023C85.058 19.07 84.8296 19.4524 84.7153 19.9114C84.4869 20.7527 84.6773 21.6706 85.2484 22.053C85.515 22.206 85.7815 22.206 85.9338 22.1295C86.048 22.0148 86.0861 21.9383 86.0861 21.9383Z" fill="#B65B52"/>
<path d="M107.982 24.1183C107.83 24.5773 107.335 24.845 106.84 24.7302C106.345 24.5773 106.078 24.1183 106.193 23.6594C106.345 23.2005 106.84 22.9328 107.335 23.0475C107.868 23.2005 108.134 23.6594 107.982 24.1183Z" fill="#263238"/>
<path d="M109.122 23.5448C108.97 23.6213 108.475 22.9329 107.561 22.5887C106.647 22.2828 105.81 22.5122 105.734 22.3592C105.695 22.2828 105.886 22.1298 106.267 22.015C106.647 21.9003 107.219 21.8621 107.79 22.0533C108.361 22.2445 108.78 22.6269 109.008 22.9329C109.16 23.2771 109.199 23.5066 109.122 23.5448Z" fill="#263238"/>
<path d="M98.8417 21.0592C98.6894 21.5182 98.1944 21.7859 97.6994 21.6712C97.2044 21.5182 96.9379 21.0592 97.0521 20.6003C97.2044 20.1414 97.6994 19.8737 98.1944 19.9884C98.7275 20.1031 98.994 20.6003 98.8417 21.0592Z" fill="#263238"/>
<path d="M99.9483 20.6386C99.796 20.715 99.301 20.0267 98.3872 19.6825C97.4733 19.3765 96.6356 19.606 96.5595 19.453C96.5214 19.3765 96.7118 19.2235 97.0925 19.1088C97.4733 18.9941 98.0445 18.9558 98.6156 19.147C99.1868 19.3383 99.6056 19.7207 99.8341 20.0267C99.9864 20.3708 99.9864 20.6003 99.9483 20.6386Z" fill="#263238"/>
<path d="M98.0441 28.4403C98.1964 28.4785 97.8537 29.5111 98.5011 30.5055C99.1103 31.4998 100.253 31.7675 100.215 31.9205C100.215 31.997 99.9099 32.0352 99.453 31.8823C98.996 31.7293 98.3868 31.3851 98.006 30.7732C97.6253 30.1613 97.5872 29.4729 97.7014 29.0522C97.7776 28.5933 97.968 28.4021 98.0441 28.4403Z" fill="#263238"/>
<path d="M109.315 21.786C109.086 21.9389 108.515 21.5182 107.754 21.2505C106.992 20.9446 106.269 20.9063 106.193 20.6386C106.154 20.5239 106.345 20.3327 106.688 20.2179C107.03 20.1032 107.563 20.1032 108.096 20.2944C108.629 20.4857 109.01 20.8299 109.201 21.1358C109.429 21.4418 109.429 21.7095 109.315 21.786Z" fill="#263238"/>
<path d="M99.8339 16.8518C99.6816 16.9283 99.4531 16.8135 99.1866 16.6223C98.882 16.4693 98.5393 16.2399 98.0824 16.0869C97.6254 15.9339 97.2447 15.8192 96.902 15.7809C96.5593 15.7044 96.3308 15.6662 96.2547 15.5132C96.2166 15.3603 96.3689 15.1308 96.7877 14.9778C97.2066 14.8248 97.8158 14.7866 98.4631 15.0161C99.1104 15.2455 99.5674 15.7044 99.7577 16.0869C99.9862 16.5076 99.9862 16.7753 99.8339 16.8518Z" fill="#263238"/>
<path d="M112.816 17.349C112.816 17.349 108.323 17.349 104.135 13.907C101.393 11.6506 97.9662 10.0826 97.0524 10.5416C96.1004 11.0005 95.2247 14.1365 91.9501 14.366C91.9501 14.366 90.7697 20.485 88.4089 19.7201C86.0482 18.9553 89.6654 9.85316 89.6654 9.85316L96.2527 8.28516L102.992 8.51462L109.047 9.89141L114.263 12.9127L112.816 17.349Z" fill="#263238"/>
<path d="M79.4275 98.1584L83.5779 112.271L115.829 102.442C122.759 100.338 126.605 92.8808 124.358 85.9586L116.438 61.2529L99.2655 65.5363L108.709 88.4062L79.4275 98.1584Z" fill="#FFB3C7"/>
<path d="M116.553 102.174C116.553 102.174 116.515 102.212 116.401 102.212C116.287 102.251 116.134 102.289 115.944 102.365C115.525 102.48 114.916 102.671 114.154 102.939C112.555 103.436 110.27 104.125 107.377 105.004C101.589 106.763 93.4024 109.249 83.8832 112.156L83.807 112.194L83.7689 112.118C82.322 107.796 80.9513 103.054 79.3139 98.1968L79.2759 98.1203L79.352 98.0821C79.6186 98.0056 79.8851 97.8909 80.1516 97.8144C90.8893 94.2194 100.827 90.9304 108.633 88.3298L108.595 88.4446C106.31 82.8992 104.445 78.3481 103.15 75.1739C102.503 73.6059 102.008 72.3821 101.665 71.5025C101.513 71.0818 101.36 70.7758 101.284 70.5463C101.208 70.3169 101.17 70.2021 101.17 70.2021C101.17 70.2021 101.208 70.3169 101.322 70.5081C101.399 70.7376 101.551 71.0435 101.741 71.4642C102.084 72.3056 102.617 73.5294 103.264 75.0974C104.559 78.2716 106.463 82.7844 108.747 88.3298L108.785 88.4063L108.709 88.4446C100.904 91.0452 91.0035 94.3724 80.2659 97.9673C79.9993 98.0438 79.6947 98.1586 79.4663 98.2351L79.5424 98.1203C81.1416 102.977 82.5505 107.758 83.9593 112.041L83.8451 111.965C93.3643 109.096 101.551 106.649 107.339 104.89C110.232 104.01 112.555 103.322 114.116 102.863C114.916 102.633 115.525 102.442 115.944 102.327C116.134 102.251 116.287 102.212 116.401 102.212C116.515 102.174 116.553 102.174 116.553 102.174Z" fill="#263238"/>
<path d="M114.685 92.4606C114.647 92.4606 114.456 92.1164 113.999 91.581C113.581 91.0456 112.895 90.3572 112.019 89.7835C111.144 89.2099 110.268 88.8657 109.583 88.6744C108.935 88.4832 108.478 88.445 108.516 88.4067C108.516 88.4067 108.631 88.4067 108.821 88.4067C109.011 88.4067 109.278 88.4832 109.621 88.5597C110.306 88.7127 111.22 89.0569 112.134 89.6688C113.009 90.2807 113.695 90.9691 114.114 91.5427C114.304 91.8105 114.456 92.0782 114.571 92.2311C114.647 92.3841 114.685 92.4606 114.685 92.4606Z" fill="#263238"/>
<path d="M106.845 66.6839C106.807 66.6839 106.731 65.766 106.731 64.5805C106.731 63.4332 106.769 62.4771 106.845 62.4771C106.884 62.4771 106.96 63.3949 106.96 64.5805C106.96 65.766 106.922 66.6839 106.845 66.6839Z" fill="#FAFAFA"/>
<path d="M113.316 67.028C113.278 67.028 112.935 66.1484 112.631 65.0393C112.288 63.9302 112.059 62.9741 112.136 62.9741C112.174 62.9741 112.516 63.8537 112.821 64.9628C113.164 66.0719 113.392 67.028 113.316 67.028Z" fill="#FAFAFA"/>
<path d="M109.316 72.8796C109.316 72.9178 108.402 72.9178 107.374 72.5736C106.308 72.2677 105.546 71.8087 105.584 71.7705C105.622 71.7323 106.422 72.0765 107.45 72.3824C108.44 72.7266 109.316 72.8413 109.316 72.8796Z" fill="#FAFAFA"/>
<path d="M116.63 76.1298C116.592 76.1298 116.668 75.2119 116.859 74.1411C117.049 73.032 117.239 72.1524 117.316 72.1907C117.354 72.1907 117.277 73.1085 117.087 74.1793C116.897 75.2502 116.706 76.1298 116.63 76.1298Z" fill="#FAFAFA"/>
<path d="M114.001 81.4079C113.963 81.4461 113.544 80.6047 113.049 79.5722C112.592 78.5396 112.249 77.6599 112.288 77.6599C112.326 77.6217 112.744 78.4631 113.239 79.4957C113.734 80.5283 114.077 81.3696 114.001 81.4079Z" fill="#FAFAFA"/>
<path d="M112.934 85.9968C112.896 86.0351 112.096 85.6909 111.144 85.232C110.154 84.773 109.392 84.3523 109.431 84.2759C109.469 84.2376 110.268 84.5818 111.22 85.0407C112.21 85.5379 112.972 85.9586 112.934 85.9968Z" fill="#FAFAFA"/>
<path d="M121.201 84.7734C121.239 84.8117 120.896 85.5766 120.477 86.5327C120.058 87.4888 119.754 88.2919 119.716 88.2536C119.678 88.2536 119.868 87.4123 120.287 86.4562C120.706 85.5001 121.125 84.7734 121.201 84.7734Z" fill="#FAFAFA"/>
<path d="M118.877 95.902C118.839 95.902 118.687 94.9459 118.573 93.7603C118.459 92.5748 118.421 91.6187 118.459 91.6187C118.497 91.6187 118.649 92.5748 118.763 93.7603C118.916 94.9076 118.954 95.8637 118.877 95.902Z" fill="#FAFAFA"/>
<path d="M113.085 99.3825C113.047 99.4208 112.362 98.8471 111.562 98.1204C110.763 97.3938 110.153 96.7437 110.191 96.7054C110.229 96.6672 110.915 97.2408 111.714 97.9675C112.476 98.7324 113.123 99.3443 113.085 99.3825Z" fill="#FAFAFA"/>
<path d="M103.036 100.415C103.074 100.453 102.541 101.218 101.855 102.174C101.17 103.13 100.561 103.857 100.522 103.819C100.484 103.78 101.017 103.016 101.703 102.06C102.388 101.103 102.997 100.377 103.036 100.415Z" fill="#FAFAFA"/>
<path d="M106.194 95.6731C106.156 95.7114 105.433 95.1377 104.633 94.2963C103.872 93.455 103.339 92.6901 103.415 92.6518C103.453 92.6136 104.024 93.3402 104.785 94.1816C105.585 95.023 106.232 95.6349 106.194 95.6731Z" fill="#FAFAFA"/>
<path d="M98.6162 96.7438C98.6162 96.782 97.9689 97.0115 97.0932 96.935C96.2174 96.8585 95.6082 96.5908 95.6082 96.5143C95.6462 96.4761 96.2555 96.6673 97.0932 96.7055C97.9308 96.782 98.6162 96.7055 98.6162 96.7438Z" fill="#FAFAFA"/>
<path d="M93.8201 105.119C93.782 105.119 93.5917 104.392 93.4393 103.474C93.287 102.556 93.2109 101.792 93.249 101.792C93.287 101.792 93.4774 102.518 93.6297 103.436C93.782 104.354 93.8963 105.119 93.8201 105.119Z" fill="#FAFAFA"/>
<path d="M88.1473 107.987C88.1092 108.026 87.2715 107.529 86.2435 106.878C85.2154 106.228 84.4158 105.655 84.4158 105.616C84.4538 105.578 85.2915 106.075 86.3196 106.725C87.3858 107.376 88.1854 107.949 88.1473 107.987Z" fill="#FAFAFA"/>
<path d="M90.2052 97.8147C90.2433 97.8529 89.7102 98.5031 89.0629 99.3827C88.4537 100.224 87.9967 100.989 87.9587 100.951C87.9206 100.912 88.3014 100.148 88.9106 99.268C89.5198 98.3883 90.1671 97.7764 90.2052 97.8147Z" fill="#FAFAFA"/>
<path d="M85.7844 99.7651C85.7464 99.8034 85.2514 99.6122 84.6802 99.3062C84.071 99.0003 83.614 98.7325 83.6521 98.6943C83.6902 98.6561 84.1852 98.8473 84.7564 99.1532C85.3656 99.4209 85.8225 99.6887 85.7844 99.7651Z" fill="#FAFAFA"/>
<g opacity="0.2">
<g opacity="0.2">
<path opacity="0.2" d="M108.442 87.7947C110.155 87.9859 111.907 88.1389 113.62 88.3684C114.23 88.4449 114.801 88.5214 115.372 88.7508C115.905 88.9803 116.438 89.401 116.628 89.9746C116.819 90.5483 116.667 91.2749 116.133 91.5809C115.677 91.8868 115.067 91.7721 114.572 91.5044C114.077 91.2367 113.697 90.8542 113.278 90.4718C112.516 89.8217 111.602 89.3627 110.65 89.095C110.232 88.9803 109.775 88.9038 109.394 88.6361C109.013 88.4066 108.747 87.9477 108.861 87.4888" fill="black"/>
</g>
</g>
<path d="M101.312 29.35C101.696 29.3071 102.083 29.3145 102.465 29.3721C102.646 29.3721 102.818 29.3721 102.871 29.2703C102.927 29.0947 102.927 28.906 102.871 28.7304C102.792 28.2878 102.708 27.7921 102.62 27.2876C102.28 25.2429 102.072 23.5788 102.152 23.5655C102.231 23.5522 102.593 25.1986 102.916 27.2433C102.995 27.7478 103.074 28.2258 103.145 28.6861C103.214 28.9203 103.197 29.1717 103.097 29.3942C103.059 29.4502 103.009 29.4968 102.951 29.5305C102.893 29.5642 102.828 29.5842 102.761 29.589C102.66 29.6033 102.557 29.6033 102.456 29.589C102.067 29.5574 101.682 29.4771 101.312 29.35Z" fill="#263238"/>
<path d="M74.5699 0H0V127H74.5699V0Z" fill="#FAFAFA"/>
<path d="M79.694 110.856L84.1109 108.714L81.674 101.486L76.3433 100.262C75.8483 100.147 75.2771 100.033 74.6679 99.8415C73.9444 99.6503 73.259 99.3061 72.6498 98.8854C71.8883 98.35 70.9363 97.6233 70.5175 97.0879C70.0225 96.3995 68.9183 96.6672 68.9563 97.4321C68.9563 98.197 70.289 100.147 72.726 101.524C75.1248 102.901 70.8983 103.551 69.3371 103.819C67.814 104.087 63.0544 105.157 62.7879 105.693C62.369 106.496 63.1687 107.07 64.6917 106.764C66.2529 106.458 70.8983 105.884 71.0125 106.687C71.0125 106.687 71.0125 106.687 71.0125 106.725C70.251 107.911 70.3271 109.517 71.2029 110.626C72.0786 111.697 73.3352 113.074 74.2871 112.844C76.0767 112.424 79.694 110.856 79.694 110.856Z" fill="#B65B52"/>
<path d="M37.2162 58.4134C48.6785 58.4134 57.9705 49.3551 57.9705 38.1811C57.9705 27.0071 48.6785 17.9487 37.2162 17.9487C25.7539 17.9487 16.4619 27.0071 16.4619 38.1811C16.4619 49.3551 25.7539 58.4134 37.2162 58.4134Z" fill="#FFE6EC"/>
<path d="M30.1605 28.8623H31.5816V31.1789C32.4706 31.2539 33.3816 31.5163 34.3143 31.9661L33.7459 33.4955C33.2212 33.2107 32.7257 33.0082 32.2593 32.8883C31.7929 32.7683 31.3265 32.7083 30.8601 32.7083C30.1459 32.7083 29.5629 32.8733 29.1111 33.2032C28.6593 33.533 28.4334 34.0353 28.4334 34.7101C28.4334 35.3249 28.6374 35.7747 29.0455 36.0596C29.4536 36.3445 29.9929 36.5994 30.6633 36.8243L31.669 37.1617C32.7913 37.5365 33.6366 38.0313 34.205 38.6461C34.788 39.2459 35.0795 40.0256 35.0795 40.9852C35.0795 41.555 34.9775 42.0648 34.7734 42.5146C34.5694 42.9495 34.2925 43.3318 33.9427 43.6617C33.6075 43.9766 33.2067 44.2315 32.7403 44.4264C32.2739 44.6213 31.7783 44.7488 31.2536 44.8088V47.1704H29.8326V44.8088C29.2059 44.7788 28.6374 44.6888 28.1273 44.5389C27.6318 44.3889 27.1071 44.164 26.5532 43.8641L27.2528 42.3347C27.865 42.6946 28.4553 42.942 29.0237 43.0769C29.5921 43.1969 30.0949 43.2568 30.5322 43.2568C30.8965 43.2568 31.2318 43.2194 31.5378 43.1444C31.8585 43.0544 32.1354 42.927 32.3686 42.762C32.6164 42.5821 32.8058 42.3572 32.937 42.0873C33.0828 41.8174 33.1556 41.5025 33.1556 41.1426C33.1556 40.5129 32.937 40.0331 32.4998 39.7032C32.0771 39.3733 31.4504 39.0734 30.6196 38.8035L29.614 38.4662C29.1476 38.3162 28.7249 38.1438 28.3459 37.9489C27.967 37.7389 27.6391 37.4915 27.3621 37.2066C27.0998 36.9217 26.8885 36.5994 26.7281 36.2395C26.5824 35.8646 26.5095 35.4373 26.5095 34.9575C26.5095 33.8179 26.8375 32.9258 27.4933 32.281C28.1492 31.6363 29.0383 31.2614 30.1605 31.1564V28.8623Z" fill="#FFB3C7"/>
<path fill-rule="evenodd" clip-rule="evenodd" d="M29.1614 27.8574H32.5829V30.3112C33.3054 30.4605 34.0278 30.7127 34.7483 31.0602L35.572 31.4574L34.2822 34.9279L33.2713 34.379C32.8022 34.1243 32.3832 33.9566 32.0122 33.8612C31.6243 33.7614 31.2412 33.7127 30.8612 33.7127C30.2992 33.7127 29.9389 33.8413 29.7003 34.0155C29.5615 34.1169 29.4347 34.2829 29.4347 34.7098C29.4347 35.0817 29.5418 35.1816 29.6175 35.2344C29.9221 35.4471 30.3664 35.6649 30.9813 35.8711L31.9857 36.2081C31.986 36.2082 31.9854 36.208 31.9857 36.2081C33.1998 36.6137 34.2108 37.1787 34.9306 37.9531C35.7166 38.7667 36.0808 39.8085 36.0808 40.9849C36.0808 41.6766 35.9565 42.3317 35.6847 42.9309L35.6794 42.9427C35.4215 43.4922 35.0697 43.9776 34.6284 44.3938L34.627 44.3952C34.1961 44.7999 33.6913 45.1172 33.1256 45.3536C32.843 45.4718 32.5526 45.5686 32.2549 45.6445V48.1747H28.8334V45.7189C28.4915 45.667 28.1625 45.5954 27.8475 45.5028L27.8399 45.5005C27.2678 45.3274 26.6806 45.0735 26.0797 44.7481L25.2537 44.3009L26.8061 40.9071L27.7592 41.4674C28.2986 41.7845 28.7926 41.9877 29.2431 42.0962C29.7588 42.2043 30.1862 42.252 30.5332 42.252C30.8226 42.252 31.0718 42.2229 31.2858 42.172C31.5034 42.1094 31.6662 42.0296 31.7886 41.944C31.9035 41.8595 31.9827 41.7627 32.0392 41.6463L32.0486 41.627L32.0589 41.6081C32.1125 41.5086 32.1565 41.3638 32.1565 41.1424C32.1565 40.7758 32.0466 40.6167 31.9001 40.5062L31.8936 40.5012L31.8871 40.4962C31.5959 40.2689 31.0938 40.0128 30.3129 39.7591L30.3038 39.7562L29.304 39.4207C28.7955 39.2569 28.3234 39.0652 27.8911 38.8428L27.8774 38.8357L27.864 38.8283C27.407 38.5751 26.9989 38.2696 26.6475 37.9082L26.6381 37.8985L26.6289 37.8885C26.2915 37.5221 26.0203 37.1076 25.8162 36.6496L25.8063 36.6273L25.7975 36.6047C25.5987 36.0933 25.5104 35.5386 25.5104 34.9572C25.5104 33.6154 25.9032 32.4393 26.7948 31.5628C27.4432 30.9254 28.2455 30.5152 29.1614 30.3014V27.8574ZM30.1616 31.1562C29.0393 31.2611 28.1503 31.636 27.4944 32.2807C26.8385 32.9255 26.5106 33.8177 26.5106 34.9572C26.5106 35.437 26.5835 35.8644 26.7292 36.2392C26.8895 36.5991 27.1009 36.9215 27.3632 37.2064C27.6401 37.4913 27.9681 37.7387 28.347 37.9486C28.726 38.1435 29.1486 38.3159 29.615 38.4659L30.6207 38.8033C31.4515 39.0732 32.0782 39.373 32.5008 39.7029C32.9381 40.0328 33.1567 40.5126 33.1567 41.1424C33.1567 41.5022 33.0838 41.8171 32.9381 42.087C32.8069 42.3569 32.6174 42.5818 32.3697 42.7618C32.1365 42.9267 31.8595 43.0542 31.5389 43.1441C31.2328 43.2191 30.8976 43.2566 30.5332 43.2566C30.096 43.2566 29.5932 43.1966 29.0247 43.0766C28.738 43.0086 28.4457 42.9119 28.1478 42.7866C27.8552 42.6635 27.5572 42.5128 27.2539 42.3344L26.5543 43.8638C27.1082 44.1637 27.6328 44.3886 28.1284 44.5386C28.6385 44.6885 29.2069 44.7785 29.8336 44.8085V47.1701H31.2547V44.8085C31.7794 44.7485 32.2749 44.6211 32.7413 44.4261C33.2077 44.2312 33.6085 43.9763 33.9437 43.6614C34.2935 43.3315 34.5705 42.9492 34.7745 42.5144C34.9786 42.0645 35.0806 41.5547 35.0806 40.9849C35.0806 40.0253 34.7891 39.2456 34.2061 38.6458C33.6377 38.0311 32.7923 37.5362 31.6701 37.1614L30.6644 36.824C29.994 36.5991 29.4547 36.3442 29.0466 36.0593C28.6385 35.7744 28.4345 35.3246 28.4345 34.7098C28.4345 34.0351 28.6604 33.5328 29.1122 33.2029C29.564 32.873 30.147 32.7081 30.8612 32.7081C31.3276 32.7081 31.794 32.7681 32.2604 32.888C32.4477 32.9362 32.6397 32.9977 32.8365 33.0725C33.1295 33.1839 33.4331 33.3248 33.747 33.4953L34.3154 31.9659C33.3826 31.516 32.4717 31.2536 31.5826 31.1787V28.862H30.1616V31.1562Z" fill="#FFB3C7"/>
<path d="M43.1617 28.8623H44.5828V31.1789C45.4719 31.2539 46.3828 31.5163 47.3156 31.9661L46.7472 33.4955C46.2225 33.2107 45.7269 33.0082 45.2605 32.8883C44.7941 32.7683 44.3277 32.7083 43.8613 32.7083C43.1472 32.7083 42.5642 32.8733 42.1124 33.2032C41.6605 33.533 41.4346 34.0353 41.4346 34.7101C41.4346 35.3249 41.6387 35.7747 42.0468 36.0596C42.4549 36.3445 42.9941 36.5994 43.6646 36.8243L44.6702 37.1617C45.7925 37.5365 46.6378 38.0313 47.2063 38.6461C47.7893 39.2459 48.0808 40.0256 48.0808 40.9852C48.0808 41.555 47.9787 42.0648 47.7747 42.5146C47.5706 42.9495 47.2937 43.3318 46.9439 43.6617C46.6087 43.9766 46.2079 44.2315 45.7415 44.4264C45.2751 44.6213 44.7795 44.7488 44.2549 44.8088V47.1704H42.8338V44.8088C42.2071 44.7788 41.6387 44.6888 41.1285 44.5389C40.633 44.3889 40.1083 44.164 39.5545 43.8641L40.2541 42.3347C40.8662 42.6946 41.4565 42.942 42.0249 43.0769C42.5933 43.1969 43.0962 43.2568 43.5334 43.2568C43.8978 43.2568 44.233 43.2194 44.5391 43.1444C44.8597 43.0544 45.1366 42.927 45.3698 42.762C45.6176 42.5821 45.8071 42.3572 45.9382 42.0873C46.084 41.8174 46.1569 41.5025 46.1569 41.1426C46.1569 40.5129 45.9382 40.0331 45.501 39.7032C45.0783 39.3733 44.4516 39.0734 43.6208 38.8035L42.6152 38.4662C42.1488 38.3162 41.7261 38.1438 41.3472 37.9489C40.9682 37.7389 40.6403 37.4915 40.3634 37.2066C40.101 36.9217 39.8897 36.5994 39.7294 36.2395C39.5836 35.8646 39.5107 35.4373 39.5107 34.9575C39.5107 33.8179 39.8387 32.9258 40.4945 32.281C41.1504 31.6363 42.0395 31.2614 43.1617 31.1564V28.8623Z" fill="#FFB3C7"/>
<path fill-rule="evenodd" clip-rule="evenodd" d="M42.1638 27.8574H45.5853V30.3112C46.3079 30.4605 47.0302 30.7127 47.7508 31.0602L48.5744 31.4574L47.2846 34.9279L46.2738 34.379C45.8046 34.1243 45.3857 33.9566 45.0147 33.8612C44.6267 33.7614 44.2437 33.7127 43.8636 33.7127C43.3017 33.7127 42.9414 33.8413 42.7028 34.0155C42.5639 34.1169 42.4371 34.2829 42.4371 34.7098C42.4371 35.0817 42.5443 35.1816 42.6199 35.2344C42.9246 35.4471 43.3688 35.6649 43.9837 35.8711L44.9882 36.2081C44.9884 36.2082 44.9879 36.208 44.9882 36.2081C46.2023 36.6137 47.2133 37.1787 47.933 37.9531C48.7191 38.7667 49.0833 39.8085 49.0833 40.9849C49.0833 41.6766 48.9589 42.3317 48.6872 42.9309L48.6818 42.9427C48.424 43.4922 48.0722 43.9776 47.6308 44.3938L47.6294 44.3952C47.1985 44.7999 46.6937 45.1172 46.128 45.3536C45.8455 45.4718 45.5551 45.5686 45.2574 45.6445V48.1747H41.8359V45.7189C41.4939 45.667 41.165 45.5954 40.8499 45.5028L40.8423 45.5005C40.2702 45.3274 39.683 45.0735 39.0821 44.7481L38.2561 44.3009L39.8085 40.9071L40.7616 41.4674C41.301 41.7845 41.7951 41.9877 42.2455 42.0962C42.7612 42.2043 43.1886 42.252 43.5357 42.252C43.825 42.252 44.0743 42.2229 44.2882 42.172C44.5059 42.1094 44.6687 42.0296 44.791 41.944C44.906 41.8595 44.9851 41.7627 45.0417 41.6463L45.0511 41.627L45.0613 41.6081C45.115 41.5086 45.1589 41.3638 45.1589 41.1424C45.1589 40.7758 45.049 40.6167 44.9026 40.5062L44.896 40.5012L44.8896 40.4962C44.5983 40.2689 44.0962 40.0128 43.3153 39.7591L43.3062 39.7562L42.3064 39.4207C41.798 39.2569 41.3259 39.0652 40.8935 38.8428L40.8798 38.8357L40.8664 38.8283C40.4095 38.5751 40.0013 38.2696 39.65 37.9082L39.6405 37.8985L39.6314 37.8885C39.2939 37.5221 39.0227 37.1076 38.8187 36.6496L38.8088 36.6273L38.7999 36.6047C38.6011 36.0933 38.5128 35.5386 38.5128 34.9572C38.5128 33.6154 38.9056 32.4393 39.7972 31.5628C40.4456 30.9254 41.248 30.5152 42.1638 30.3014V27.8574ZM43.164 31.1562C42.0418 31.2611 41.1527 31.636 40.4968 32.2807C39.841 32.9255 39.513 33.8177 39.513 34.9572C39.513 35.437 39.5859 35.8644 39.7317 36.2392C39.892 36.5991 40.1033 36.9215 40.3657 37.2064C40.6426 37.4913 40.9705 37.7387 41.3495 37.9486C41.7284 38.1435 42.1511 38.3159 42.6175 38.4659L43.6231 38.8033C44.4539 39.0732 45.0806 39.373 45.5033 39.7029C45.9405 40.0328 46.1592 40.5126 46.1592 41.1424C46.1592 41.5022 46.0863 41.8171 45.9405 42.087C45.8094 42.3569 45.6199 42.5818 45.3721 42.7618C45.1389 42.9267 44.862 43.0542 44.5413 43.1441C44.2353 43.2191 43.9001 43.2566 43.5357 43.2566C43.0984 43.2566 42.5956 43.1966 42.0272 43.0766C41.7404 43.0086 41.4481 42.9119 41.1503 42.7866C40.8577 42.6635 40.5597 42.5128 40.2563 42.3344L39.5568 43.8638C40.1106 44.1637 40.6353 44.3886 41.1308 44.5386C41.641 44.6885 42.2094 44.7785 42.8361 44.8085V47.1701H44.2571V44.8085C44.7818 44.7485 45.2774 44.6211 45.7438 44.4261C46.2102 44.2312 46.611 43.9763 46.9462 43.6614C47.296 43.3315 47.5729 42.9492 47.777 42.5144C47.981 42.0645 48.083 41.5547 48.083 40.9849C48.083 40.0253 47.7915 39.2456 47.2085 38.6458C46.6401 38.0311 45.7948 37.5362 44.6725 37.1614L43.6669 36.824C42.9964 36.5991 42.4571 36.3442 42.0491 36.0593C41.641 35.7744 41.4369 35.3246 41.4369 34.7098C41.4369 34.0351 41.6628 33.5328 42.1146 33.2029C42.5665 32.873 43.1494 32.7081 43.8636 32.7081C44.33 32.7081 44.7964 32.7681 45.2628 32.888C45.4501 32.9362 45.6422 32.9977 45.8389 33.0725C46.132 33.1839 46.4355 33.3248 46.7494 33.4953L47.3178 31.9659C46.3851 31.516 45.4741 31.2536 44.5851 31.1787V28.862H43.164V31.1562Z" fill="#FFB3C7"/>
<path d="M37.4758 107.884C48.6251 107.884 57.6635 98.7976 57.6635 87.589C57.6635 76.3803 48.6251 67.2939 37.4758 67.2939C26.3264 67.2939 17.2881 76.3803 17.2881 87.589C17.2881 98.7976 26.3264 107.884 37.4758 107.884Z" fill="#E3F4E6"/>
<path d="M37.0887 78.853H38.4303V81.0401C39.2697 81.1109 40.1297 81.3586 41.0103 81.7833L40.4737 83.2272C39.9783 82.9583 39.5105 82.7672 39.0702 82.6539C38.6298 82.5407 38.1895 82.484 37.7492 82.484C37.075 82.484 36.5246 82.6398 36.098 82.9512C35.6714 83.2626 35.4582 83.7368 35.4582 84.3739C35.4582 84.9543 35.6508 85.3789 36.0361 85.6479C36.4214 85.9169 36.9305 86.1575 37.5634 86.3699L38.5129 86.6884C39.5724 87.0423 40.3705 87.5094 40.9071 88.0898C41.4575 88.656 41.7327 89.3922 41.7327 90.2981C41.7327 90.8361 41.6364 91.3174 41.4438 91.742C41.2511 92.1526 40.9897 92.5135 40.6594 92.825C40.343 93.1223 39.9646 93.3629 39.5242 93.5469C39.0839 93.731 38.6161 93.8513 38.1207 93.9079V96.1375H36.7791V93.9079C36.1874 93.8796 35.6508 93.7947 35.1692 93.6531C34.7014 93.5115 34.206 93.2992 33.6831 93.0161L34.3436 91.5722C34.9215 91.9119 35.4788 92.1455 36.0154 92.2729C36.5521 92.3861 37.0268 92.4428 37.4396 92.4428C37.7836 92.4428 38.1001 92.4074 38.389 92.3366C38.6918 92.2517 38.9532 92.1313 39.1734 91.9756C39.4073 91.8057 39.5862 91.5934 39.71 91.3386C39.8476 91.0838 39.9164 90.7865 39.9164 90.4468C39.9164 89.8522 39.71 89.3992 39.2972 89.0878C38.8982 88.7764 38.3065 88.4932 37.5222 88.2384L36.5727 87.9199C36.1324 87.7784 35.7334 87.6156 35.3756 87.4316C35.0178 87.2334 34.7082 86.9998 34.4468 86.7308C34.1991 86.4619 33.9996 86.1575 33.8482 85.8178C33.7106 85.4639 33.6418 85.0604 33.6418 84.6074C33.6418 83.5316 33.9514 82.6893 34.5706 82.0806C35.1898 81.4719 36.0292 81.118 37.0887 81.0189V78.853Z" fill="#AECEAB"/>
<path fill-rule="evenodd" clip-rule="evenodd" d="M36.1482 77.9048H39.3784V80.2214C40.0606 80.3623 40.7426 80.6005 41.4228 80.9285L42.2004 81.3035L40.9827 84.58L40.0284 84.0618C39.5855 83.8213 39.19 83.663 38.8397 83.5729C38.4734 83.4787 38.1118 83.4327 37.753 83.4327C37.2225 83.4327 36.8823 83.5541 36.657 83.7186C36.526 83.8143 36.4063 83.9711 36.4063 84.3741C36.4063 84.7252 36.5074 84.8194 36.5788 84.8693C36.8665 85.0701 37.2859 85.2757 37.8664 85.4705L38.8147 85.7886C39.9609 86.1716 40.9154 86.705 41.5949 87.436C42.337 88.2041 42.6808 89.1877 42.6808 90.2984C42.6808 90.9513 42.5634 91.5699 42.3069 92.1355L42.3018 92.1466C42.0584 92.6654 41.7263 93.1237 41.3096 93.5166L41.3082 93.5179C40.9014 93.9 40.4249 94.1996 39.8908 94.4228C39.624 94.5343 39.3499 94.6257 39.0688 94.6974V97.0861H35.8386V94.7677C35.5158 94.7187 35.2052 94.651 34.9078 94.5636L34.9006 94.5615C34.3605 94.3981 33.8061 94.1583 33.2388 93.8512L32.459 93.4289L33.9246 90.2249L34.8244 90.7538C35.3336 91.0532 35.8001 91.2451 36.2254 91.3474C36.7122 91.4495 37.1158 91.4945 37.4434 91.4945C37.7166 91.4945 37.9519 91.4671 38.1539 91.4191C38.3593 91.3599 38.513 91.2846 38.6285 91.2038C38.7371 91.124 38.8118 91.0327 38.8652 90.9228L38.8741 90.9045L38.8837 90.8866C38.9344 90.7928 38.9759 90.6561 38.9759 90.447C38.9759 90.1009 38.8721 89.9507 38.7338 89.8464L38.7277 89.8417L38.7216 89.8369C38.4466 89.6223 37.9726 89.3806 37.2353 89.1411L37.2268 89.1383L36.2829 88.8216C35.8028 88.667 35.3571 88.4859 34.9489 88.2759L34.936 88.2693L34.9233 88.2623C34.4919 88.0233 34.1066 87.7348 33.7749 87.3936L33.766 87.3844L33.7573 87.375C33.4388 87.0291 33.1827 86.6378 32.9901 86.2054L32.9807 86.1844L32.9724 86.163C32.7847 85.6802 32.7013 85.1565 32.7013 84.6076C32.7013 83.3408 33.0722 82.2305 33.9139 81.403C34.5261 80.8012 35.2836 80.414 36.1482 80.2121V77.9048ZM37.0925 81.0191C36.033 81.1182 35.1936 81.4721 34.5744 82.0808C33.9552 82.6895 33.6456 83.5318 33.6456 84.6076C33.6456 85.0606 33.7144 85.4641 33.852 85.818C34.0034 86.1577 34.2029 86.4621 34.4506 86.731C34.712 87 35.0216 87.2336 35.3794 87.4318C35.7372 87.6158 36.1362 87.7786 36.5765 87.9201L37.5259 88.2387C38.3103 88.4935 38.9019 88.7766 39.301 89.088C39.7138 89.3994 39.9202 89.8524 39.9202 90.447C39.9202 90.7867 39.8514 91.084 39.7138 91.3388C39.5899 91.5936 39.4111 91.806 39.1771 91.9758C38.957 92.1316 38.6955 92.2519 38.3928 92.3368C38.1039 92.4076 37.7874 92.443 37.4434 92.443C37.0306 92.443 36.5559 92.3864 36.0192 92.2731C35.7485 92.2088 35.4726 92.1176 35.1913 91.9992C34.9151 91.883 34.6338 91.7407 34.3474 91.5724L33.6869 93.0163C34.2098 93.2994 34.7052 93.5118 35.173 93.6533C35.6546 93.7949 36.1912 93.8798 36.7829 93.9081V96.1377H38.1245V93.9081C38.6199 93.8515 39.0877 93.7312 39.528 93.5472C39.9683 93.3631 40.3467 93.1225 40.6632 92.8252C40.9935 92.5138 41.2549 92.1528 41.4475 91.7423C41.6402 91.3176 41.7365 90.8363 41.7365 90.2984C41.7365 89.3924 41.4613 88.6563 40.9109 88.09C40.3743 87.5096 39.5762 87.0425 38.5167 86.6886L37.5672 86.3701C36.9343 86.1577 36.4252 85.9171 36.0399 85.6481C35.6546 85.3791 35.462 84.9545 35.462 84.3741C35.462 83.737 35.6752 83.2628 36.1018 82.9514C36.5284 82.64 37.0787 82.4842 37.753 82.4842C38.1933 82.4842 38.6336 82.5409 39.0739 82.6541C39.2508 82.6996 39.4321 82.7577 39.6179 82.8283C39.8945 82.9334 40.1811 83.0665 40.4775 83.2274L41.0141 81.7835C40.1335 81.3588 39.2735 81.1111 38.4341 81.0403V78.8532H37.0925V81.0191Z" fill="#AECEAB"/>
</svg>
