<svg width="70" height="29" viewBox="0 0 70 29" fill="none" xmlns="http://www.w3.org/2000/svg">
<g clip-path="url(#clip0)">
<path d="M24.5792 26.7048C24.436 26.6675 24.2853 26.6376 24.1346 26.6151C21.8515 26.2338 20.013 25.1648 18.7471 23.2135C17.6696 21.5388 17.1572 19.6847 17.0216 17.711C16.8558 15.3112 17.0216 12.9338 17.3456 10.5563C17.5265 9.21064 17.7148 7.86493 18.4307 6.66127C18.4909 6.54913 18.5286 6.42951 18.5587 6.30989C18.6718 5.8987 18.506 5.59218 18.0916 5.48004C17.8731 5.42771 17.647 5.40528 17.421 5.42771C16.7127 5.48751 16.0797 5.73423 15.492 6.10804C14.2337 6.90798 13.2466 7.97707 12.4554 9.22559C11.7547 10.3171 11.1669 11.4759 10.6319 12.6571C10.2251 13.5393 9.8483 14.429 9.44141 15.3635C9.3962 15.2065 9.35853 15.0944 9.32839 14.9748C8.70299 12.3132 8.28103 9.62183 7.98716 6.90798C7.8666 5.77909 7.91181 4.67261 8.28856 3.58857C8.4468 3.12505 8.43926 2.62415 8.35638 2.14567C8.25089 1.54011 7.85153 1.18873 7.23366 1.12144C6.47263 1.0392 5.8623 1.34573 5.33485 1.84663C4.91289 2.25034 4.63409 2.75124 4.37037 3.2671C3.48878 5.02399 2.89351 6.89303 2.41127 8.7845C1.34131 12.9786 0.633017 17.24 0.165848 21.5388C0.0603584 22.5032 -0.0828063 23.4751 0.0678934 24.447C0.165848 25.0526 0.422038 25.5386 1.07758 25.703C1.82354 25.8899 2.63732 25.6358 3.01407 25.0975C3.15724 24.8881 3.27026 24.6639 3.25519 24.4022C3.2778 24.3424 3.29287 24.29 3.3004 24.2302C3.30794 23.0565 3.30794 21.8902 3.30794 20.7164C3.38329 19.595 3.4511 18.4811 3.54906 17.3596C3.78264 14.7654 4.07651 12.1861 4.75465 9.65173C4.94303 8.92655 5.15401 8.20136 5.35745 7.47617C5.40266 7.51355 5.4328 7.57336 5.4328 7.63317C5.59857 11.3413 6.17877 15.0271 7.16585 18.6082C7.42204 19.5427 7.68576 20.4847 8.06251 21.3818C8.27349 21.8752 8.60503 22.279 9.20783 22.2491C9.8257 22.2191 10.2552 21.8827 10.4963 21.3071C10.5943 21.0753 10.647 20.8286 10.6696 20.5819C10.8203 18.9147 11.28 17.3297 11.8451 15.7672C12.5383 13.8234 13.3671 11.9469 14.5803 10.2573C14.7008 10.0928 14.7988 9.9134 15.0248 9.7564C14.731 11.3862 14.4974 12.9637 14.3542 14.5486C14.1885 16.4401 14.1357 18.3241 14.5351 20.2006C15.4167 24.3274 17.858 26.7946 21.9118 27.5422C22.8461 27.7141 23.7654 27.6468 24.6395 27.2506C24.7751 27.1908 24.9409 27.1086 24.9258 26.9366C24.9032 26.7796 24.7224 26.7422 24.5792 26.7048Z" fill="white"/>
<path d="M69.6761 22.4134C68.8623 21.3369 67.702 20.5668 66.3909 20.2379C64.8537 19.8416 63.2714 19.6921 61.689 19.7968C60.9732 19.8491 60.2574 19.9687 59.5642 20.1407C59.6847 19.9762 59.7676 19.8641 59.843 19.7594C60.8602 18.4511 62.111 17.4044 63.4598 16.4549C64.379 15.8045 65.336 15.2064 66.3231 14.6681C67.5588 13.9953 67.8451 13.2701 67.5437 12.0141C67.491 11.7898 67.3855 11.6926 67.1594 11.6403C66.0593 11.401 64.9366 11.244 63.8064 11.1768C63.5426 11.1618 63.4899 11.0721 63.5351 10.8403C63.6331 10.3021 63.7159 9.75629 63.8139 9.21801C63.8516 9.00868 63.8214 8.85168 63.6029 8.76196C63.5954 8.75449 63.5803 8.75449 63.5728 8.74701C63.0227 8.5302 62.3973 8.79187 62.1713 9.33763C61.998 9.80863 61.8925 10.3021 61.8774 10.7955C61.8623 11.0796 61.7493 11.1319 61.4931 11.1394C59.9108 11.1768 58.336 11.3487 56.7837 11.6627C56.4974 11.715 56.1885 11.7973 56.0755 12.0889C55.9022 12.5225 55.9021 12.9785 56.196 13.3673C56.4748 13.7411 56.844 13.8831 57.3187 13.7785C58.675 13.4719 60.0615 13.3 61.463 13.2701C62.3295 13.2477 63.196 13.3 64.055 13.4271C63.9947 13.5841 63.8591 13.614 63.7612 13.6738C62.5706 14.4289 61.4027 15.1989 60.3101 16.0811C58.7805 17.3147 57.3639 18.6454 56.4221 20.3949C56.2111 20.7836 56.0302 21.1724 56.0076 21.621C55.9624 22.4209 56.4974 22.8695 57.266 22.6826C58.7579 22.3162 60.2574 22.0321 61.787 21.8826C62.0356 21.8602 62.1185 21.92 62.1035 22.1742C62.0582 22.8545 62.0356 23.5423 61.9829 24.2227C61.9678 24.4694 62.0507 24.5965 62.2768 24.6638C62.9926 24.8806 63.7009 24.5068 63.8892 23.789C64.0249 23.2732 64.0776 22.7349 64.0399 22.1966C64.0173 21.8527 64.1304 21.7929 64.4544 21.8004C66.1422 21.8602 67.702 22.3761 69.2542 22.9816C69.4727 23.0639 69.7741 23.318 69.9398 23.1012C70.1207 22.877 69.8344 22.6153 69.6761 22.4134Z" fill="white"/>
<path d="M54.4025 17.4566C54.395 15.6249 54.3724 13.7933 54.3724 11.9616C54.3724 11.6775 54.2669 11.528 54.0107 11.4383C53.6264 11.2888 53.2044 11.2364 52.79 11.2888C52.3304 11.3486 52.0968 11.5803 52.0441 12.0364C51.9612 12.8139 51.8934 13.5989 51.8255 14.3764C51.6974 15.8642 51.6372 17.3594 51.381 18.8322C51.2378 19.677 50.8987 20.4321 50.198 20.9779C49.2561 21.7105 48.0505 21.4563 47.4703 20.4172C47.2744 20.0508 47.1463 19.6621 47.086 19.2509C46.7997 17.5837 46.9805 15.924 47.2066 14.2643C47.3196 13.4419 47.508 12.6195 47.5607 11.7897C47.5984 11.2514 47.5306 11.1916 46.9805 11.1991C46.3702 11.2065 45.903 11.4831 45.5112 11.9242C45.0516 12.4401 44.7803 13.0531 44.5995 13.711C44.072 15.5876 44.0344 17.494 44.2755 19.4154C44.396 20.3798 44.6824 21.2919 45.2249 22.1068C46.1969 23.5721 47.93 24.2973 49.5198 23.8861C50.635 23.6095 51.6221 22.9366 52.2776 22.0021C52.353 22.5927 52.4208 23.146 52.4811 23.6992C52.5112 24.0132 52.6921 24.1029 52.9709 24.0581C53.4832 23.9908 53.9655 23.7889 54.3799 23.4824C54.6512 23.288 54.7868 22.9591 54.7265 22.6301C54.508 20.9181 54.395 19.1911 54.4025 17.4566Z" fill="white"/>
<path d="M39.7395 23.7817C40.0635 24.0584 40.4553 24.1107 40.8697 24.1256C41.0958 24.0957 41.3218 24.0733 41.5403 24.0285C42.3918 23.8341 42.5274 23.6397 42.4219 22.7949C42.4144 22.7351 42.4068 22.6678 42.3993 22.608C41.8493 19.4082 41.5629 16.2084 42.2185 12.9862C42.2863 12.6946 42.1733 12.3956 41.9397 12.2161C41.5102 11.8498 41.0129 11.7152 40.4703 11.8722C39.9504 12.0218 39.7168 12.418 39.6264 12.9189C39.0161 16.3355 39.0538 19.7596 39.4305 23.1911C39.4456 23.4304 39.5586 23.6322 39.7395 23.7817Z" fill="white"/>
<path d="M23.0874 10.9074C23.4566 10.8775 23.8334 10.713 24.1951 10.5112C25.152 9.97288 26.1089 9.4346 27.0659 8.88136C27.2995 8.76174 27.518 8.60474 27.7064 8.42531C28.166 7.95432 28.1208 7.37118 27.5858 6.98242C27.1638 6.6759 26.7193 6.63104 26.237 6.85532C24.8506 7.50575 23.6149 8.44027 22.6202 9.59907C22.5374 9.69626 22.4695 9.80093 22.4168 9.91307C22.1681 10.399 22.4846 10.9074 23.0874 10.9074Z" fill="white"/>
<path d="M42.098 10.414C42.3166 10.3243 42.5351 10.2346 42.7611 10.1449C43.3489 9.90564 43.6879 9.28512 43.5598 8.6646C43.4543 8.14127 43.0173 7.85718 42.2186 7.85718C41.6535 7.90203 40.9904 8.05156 40.4328 8.45527C39.9732 8.77674 39.8677 9.24026 40.1163 9.69631C40.4855 10.3991 41.3445 10.7131 42.098 10.414Z" fill="white"/>
<path d="M50.8462 25.3889C50.5975 25.4338 50.3564 25.5085 50.1304 25.6132C47.8171 26.5477 45.4361 27.0561 42.9269 26.8393C41.3446 26.7047 39.815 26.3533 38.5265 25.3665C36.4242 23.7591 35.0604 21.6284 34.2315 19.1463C34.1788 19.0043 34.2014 18.8473 34.2918 18.7276C35.6858 16.8362 36.5599 14.698 37.2681 12.4776C38.0819 9.95064 38.5943 7.39379 38.4059 4.72481C38.323 3.51367 38.1422 2.31748 37.5545 1.22597C36.816 -0.142171 35.6029 -0.388884 34.3672 0.568064C33.6966 1.09139 33.1993 1.76425 32.7773 2.48944C31.7224 4.30614 31.1347 6.27237 30.9162 8.35822C30.5695 11.6402 30.5997 14.8999 31.5491 18.0996C31.6244 18.309 31.5792 18.5482 31.4436 18.7202C30.336 20.2976 28.8516 21.3592 26.9678 21.7929C24.9183 22.2639 23.2832 21.2172 22.7859 19.1986C22.7332 18.9744 22.7558 18.9145 22.9969 18.922C23.675 18.937 24.3532 18.8772 25.0163 18.7501C26.1691 18.5407 27.2542 18.1819 28.1282 17.367C30.4641 15.1914 28.8817 12.2533 26.7945 11.6328C23.9312 10.7805 20.6761 12.4402 19.8096 15.3484C19.0862 17.7782 19.5685 20.0584 21.0001 22.1368C21.5803 22.989 22.4167 23.6395 23.3962 23.9909C25.4834 24.7534 27.4576 24.5291 29.3338 23.3554C30.5168 22.6227 31.5265 21.6359 32.2875 20.4771C32.6492 21.1275 32.9732 21.7331 33.3198 22.3386C34.4049 24.2077 35.7461 25.8449 37.5545 27.0785C41.3069 29.6354 46.3327 29.6279 49.9345 27.0636C50.3866 26.7496 50.801 26.3832 51.1777 25.9795C51.2908 25.8524 51.3812 25.7104 51.2983 25.5459C51.2079 25.359 51.027 25.359 50.8462 25.3889ZM22.4996 17.0081C22.5071 16.881 22.4996 16.7614 22.4996 16.6343C22.5523 15.797 22.688 14.9746 23.1476 14.2494C23.7202 13.3448 24.632 12.9336 25.5739 13.143C26.5308 13.3523 26.998 14.1747 26.689 15.1017C26.5308 15.5802 26.2294 15.954 25.8376 16.2605C24.9409 16.9857 23.8935 17.2474 22.7558 17.2623C22.5674 17.2623 22.477 17.2025 22.4996 17.0081ZM33.6589 16.3801C33.6438 16.41 33.6061 16.4175 33.5534 16.4549C33.4102 15.8568 33.3349 15.2512 33.3198 14.6382C33.2068 11.5505 33.7342 8.56755 34.8042 5.6668C34.9549 5.23318 35.1734 4.822 35.4447 4.44819C35.5803 4.27624 35.7084 4.05195 35.9797 4.11176C36.2359 4.17157 36.3037 4.41081 36.3639 4.62014C36.5373 5.28552 36.5146 5.95837 36.4393 6.62375C36.1153 9.67402 35.3317 12.657 34.1261 15.483C33.998 15.797 33.8171 16.0811 33.6589 16.3801Z" fill="white"/>
</g>
<defs>
<clipPath id="clip0">
<rect width="70" height="29" fill="white"/>
</clipPath>
</defs>
</svg>
