<svg width="181" height="120" viewBox="0 0 181 120" fill="none" xmlns="http://www.w3.org/2000/svg">
<path d="M68.5809 59.1612C68.5809 48.6099 55.455 40 39.2904 40C23.1258 40 10 48.6099 10 59.1612C10 59.4144 10 60.1741 10 60.3007C10 71.4851 21.4798 80.5592 39.2904 80.5592C57.2276 80.5592 68.5809 71.4851 68.5809 60.3007C68.5809 59.8787 68.5809 59.6676 68.5809 59.1612Z" fill="#000F9F"/>
<path d="M39.2901 77.1828C54.8374 77.1828 67.441 69.1142 67.441 59.1612C67.441 49.2081 54.8374 41.1395 39.2901 41.1395C23.7428 41.1395 11.1392 49.2081 11.1392 59.1612C11.1392 69.1142 23.7428 77.1828 39.2901 77.1828Z" fill="#FFD100"/>
<path d="M29.9625 53.4634C29.9625 53.5056 29.6671 53.8011 29.8359 54.0121C30.3001 54.5608 31.6507 54.8984 33.0435 54.603C33.8876 54.4342 34.9427 53.5901 35.9556 52.7459C37.053 51.8596 38.1925 50.9733 39.2899 50.6357C40.4716 50.2558 41.2313 50.4247 41.6956 50.5513C42.2442 50.7201 42.8773 51.0577 43.8902 51.8596C45.8317 53.2946 53.5552 60.0897 54.9058 61.2292C56.0031 60.7227 60.7723 58.6969 67.2719 57.2619C66.7233 53.8011 64.613 50.5935 61.4054 48.019C56.9316 49.876 51.4872 50.8889 46.1271 48.2722C46.0849 48.2722 43.2149 46.8794 40.345 46.9638C36.1245 47.0482 34.2674 48.9053 32.326 50.8467L29.9625 53.4634Z" fill="white"/>
<path d="M54.6106 61.9889C54.5262 61.9045 45.4943 54.0121 43.4684 52.4927C42.2867 51.6064 41.6114 51.3954 40.9361 51.3109C40.5562 51.2687 40.092 51.3109 39.7121 51.4376C38.7414 51.6908 37.5175 52.5349 36.4201 53.4212C35.2806 54.3497 34.1833 55.1938 33.2125 55.4049C31.9464 55.7003 30.3848 55.3626 29.6673 54.8562C29.3719 54.6452 29.1608 54.4341 29.0764 54.2231C28.8232 53.6322 29.2874 53.1258 29.3719 53.0414L31.862 50.3402C32.1574 50.0448 32.4528 49.7494 32.7483 49.4961C31.9464 49.5805 31.1867 49.7916 30.4692 50.0026C29.5829 50.2558 28.6966 50.5091 27.8103 50.5091C27.4304 50.5091 25.489 50.1714 25.1091 50.087C22.8722 49.4539 20.8886 48.863 17.9342 47.4703C14.389 50.087 12.0255 53.379 11.3502 57.0087C11.8567 57.1353 12.6586 57.3885 13.0384 57.4729C21.0574 59.2455 23.5475 61.1026 24.0118 61.4824C24.5183 60.9337 25.1935 60.5961 25.9954 60.5961C26.8817 60.5961 27.6836 61.0604 28.1479 61.7356C28.6122 61.3558 29.2452 61.0604 30.0471 61.0604C30.427 61.0604 30.8068 61.1448 31.1867 61.2714C32.073 61.5668 32.5372 62.1999 32.7905 62.7486C33.0859 62.6219 33.4658 62.4953 33.8878 62.4953C34.3099 62.4953 34.7741 62.5797 35.2384 62.7908C36.7156 63.4238 36.9266 64.8588 36.8 65.9562C36.8844 65.9562 37.011 65.9562 37.1376 65.9562C38.868 65.9562 40.303 67.3911 40.303 69.1215C40.303 69.6702 40.1764 70.1767 39.9232 70.6409C40.3874 70.8942 41.6114 71.5272 42.6665 71.4006C43.5106 71.274 43.8483 71.0208 43.9749 70.852C44.0593 70.7253 44.1437 70.5987 44.0593 70.5143L41.7802 68.0242C41.7802 68.0242 41.4003 67.6866 41.527 67.5177C41.6536 67.3911 41.8646 67.56 42.0334 67.7288C43.173 68.6995 44.6079 70.1345 44.6079 70.1345C44.6502 70.1345 44.7346 70.3455 45.241 70.4299C45.7053 70.5143 46.465 70.4721 47.0136 70.0079C47.1403 69.8812 47.3091 69.7546 47.3935 69.5858C47.3935 69.5858 47.3935 69.5858 47.3513 69.5858C47.9422 68.8261 47.2669 68.1086 47.2669 68.1086L44.6079 65.1543C44.6079 65.1543 44.2281 64.8166 44.3547 64.6478C44.4813 64.5212 44.6924 64.69 44.8612 64.8588C45.7053 65.5763 46.887 66.7581 48.0266 67.8554C48.2376 68.0242 49.2505 68.6151 50.5589 67.771C51.3608 67.2645 51.5296 66.5892 51.4874 66.125C51.4452 65.4919 50.9387 65.0276 50.9387 65.0276L47.3513 61.398C47.3513 61.398 46.9714 61.0604 47.0981 60.8915C47.2247 60.7649 47.4357 60.9337 47.6045 61.1026C48.7441 62.0733 51.8672 64.901 51.8672 64.901C51.9094 64.9432 53.0068 65.7029 54.3151 64.8588C54.7794 64.5634 55.0748 64.0991 55.117 63.5505C55.2859 62.5375 54.6106 61.9889 54.6106 61.9889Z" fill="white"/>
<path d="M37.1378 66.5893C36.5891 66.5893 35.956 66.9269 35.8716 66.8847C35.8294 66.8425 35.9138 66.6315 35.956 66.5048C35.9982 66.3782 36.7579 64.1414 34.9431 63.3817C33.5503 62.7908 32.7484 63.4661 32.453 63.7615C32.3686 63.8459 32.3264 63.8459 32.3264 63.7193C32.2842 63.3395 32.1153 62.2421 30.9336 61.8623C29.2454 61.3558 28.148 62.5376 27.8948 62.9596C27.7682 61.9889 26.9663 61.2292 25.9534 61.2292C24.856 61.2292 23.9697 62.1155 23.9697 63.2128C23.9697 64.3102 24.856 65.1965 25.9534 65.1965C26.502 65.1965 26.9663 64.9855 27.3039 64.6478C27.3039 64.6478 27.3039 64.69 27.3039 64.7322C27.2195 65.2387 27.0507 66.9691 28.9077 67.6866C29.6674 67.982 30.3005 67.771 30.807 67.3912C30.9758 67.2645 30.9758 67.3067 30.9758 67.4756C30.8914 67.9398 30.9758 68.9105 32.3686 69.4592C33.4237 69.8813 34.0146 69.4592 34.4366 69.0794C34.6054 68.9105 34.6477 68.9527 34.6899 69.206C34.7321 70.5143 35.8294 71.5695 37.1378 71.5695C38.4883 71.5695 39.6279 70.4721 39.6279 69.0794C39.6279 67.6866 38.4883 66.5893 37.1378 66.5893Z" fill="white"/>
<path d="M54.991 61.0604C52.2054 58.6547 45.7902 53.0414 44.0598 51.7331C43.0469 50.9734 42.3716 50.5935 41.7807 50.4247C41.5275 50.3403 41.1476 50.2559 40.6834 50.2559C40.2613 50.2559 39.7549 50.3403 39.2906 50.5091C38.1511 50.8468 37.0537 51.7753 35.9564 52.6194L35.9142 52.6616C34.9013 53.4635 33.8462 54.3076 33.0865 54.4764C32.7488 54.5608 32.369 54.603 32.0313 54.603C31.145 54.603 30.3431 54.3498 30.0477 53.97C30.0055 53.9277 30.0477 53.8011 30.1321 53.6745L32.58 51.0578C34.4792 49.1586 36.2941 47.3437 40.4724 47.2593C40.5568 47.2593 40.599 47.2593 40.6834 47.2593C43.2579 47.2593 45.8746 48.4411 46.1701 48.5677C48.618 49.7494 51.1081 50.3403 53.6404 50.3403C56.2571 50.3403 59.0005 49.7072 61.8282 48.3989C61.4906 48.1456 61.1951 47.8502 60.8575 47.597C58.3674 48.6943 55.9617 49.243 53.6826 49.243C51.3191 49.243 48.9978 48.6943 46.7187 47.5548C46.5921 47.5126 43.7222 46.162 40.7678 46.162C40.6834 46.162 40.599 46.162 40.5146 46.162C37.0115 46.2464 35.0279 47.4703 33.7195 48.5677C32.4112 48.6099 31.3138 48.9053 30.3431 49.2008C29.4568 49.454 28.6971 49.665 27.9374 49.665C27.642 49.665 27.0933 49.6228 27.0511 49.6228C26.207 49.5806 21.9021 48.5255 18.4835 47.2593C18.1458 47.5126 17.8082 47.7658 17.4705 48.019C21.058 49.4962 25.4051 50.6357 26.7979 50.7202C27.1777 50.7624 27.5998 50.8046 27.9796 50.8046C28.9081 50.8046 29.7945 50.5513 30.6808 50.2981C31.1872 50.1715 31.7781 50.0027 32.369 49.876C32.2001 50.0449 32.0313 50.2137 31.9047 50.3403L29.4146 53.0414C29.2036 53.2525 28.7815 53.7589 29.077 54.4342C29.2036 54.6874 29.4146 54.9407 29.71 55.1517C30.3009 55.5315 31.356 55.827 32.3268 55.827C32.7066 55.827 33.0443 55.7848 33.3819 55.7004C34.437 55.4471 35.5344 54.603 36.6739 53.6745C37.6024 52.957 38.9108 52.0285 39.9237 51.7331C40.2191 51.6487 40.5568 51.6065 40.81 51.6065C40.8944 51.6065 40.9788 51.6065 41.0632 51.6065C41.7385 51.6909 42.3716 51.9019 43.5111 52.7882C45.537 54.3076 54.5689 62.2 54.6533 62.2844C54.6533 62.2844 55.2442 62.7908 55.202 63.5927C55.1598 64.057 54.9066 64.4791 54.4845 64.7323C54.1047 64.9855 53.6826 65.1121 53.3028 65.1121C52.7119 65.1121 52.2898 64.8167 52.2476 64.8167C52.2054 64.7745 49.1244 61.9467 47.9849 61.0182C47.8161 60.8494 47.6473 60.7228 47.4362 60.7228C47.3518 60.7228 47.2674 60.765 47.183 60.8494C47.0142 61.0604 47.2252 61.3559 47.4362 61.5669L51.0659 65.1965C51.0659 65.1965 51.5301 65.6186 51.5723 66.1673C51.6145 66.7581 51.3191 67.2646 50.7282 67.6445C50.3062 67.9399 49.8841 68.0665 49.4621 68.0665C48.9134 68.0665 48.5336 67.8133 48.4492 67.7711L47.9427 67.2646C47.0142 66.3361 46.0013 65.3654 45.2838 64.7745C45.1149 64.6479 44.9039 64.4791 44.7351 64.4791C44.6507 64.4791 44.5663 64.5213 44.5241 64.5635C44.4397 64.6479 44.3975 64.8167 44.6085 65.0699C44.6929 65.1965 44.7773 65.281 44.7773 65.281L47.394 68.2353C47.4362 68.2775 47.9427 68.8684 47.4362 69.5015L47.3518 69.6281C47.2674 69.7125 47.183 69.7969 47.0986 69.8813C46.6343 70.2612 46.0435 70.3034 45.7902 70.3034C45.6636 70.3034 45.537 70.3034 45.4526 70.2612C45.1994 70.219 45.0305 70.1346 44.9461 70.0501L44.9039 70.0079C44.7773 69.8391 43.4267 68.4886 42.3294 67.6022C42.2028 67.4756 41.9918 67.349 41.8229 67.349C41.7385 67.349 41.6541 67.3912 41.5697 67.4756C41.3587 67.7289 41.6963 68.0665 41.8229 68.1931L44.0598 70.6832C44.0598 70.7254 44.0176 70.7676 43.9754 70.852C43.891 70.9787 43.6378 71.2319 42.7937 71.3585C42.7092 71.3585 42.5826 71.3585 42.4982 71.3585C41.6541 71.3585 40.7678 70.9365 40.3035 70.7254C40.5146 70.2612 40.6412 69.7969 40.6412 69.2905C40.6412 67.4334 39.1218 65.9562 37.307 65.914C37.2648 65.914 37.2226 65.914 37.1804 65.914C37.2226 65.0699 37.1382 63.4661 35.4922 62.7486C35.0279 62.5376 34.5636 62.4532 34.0994 62.4532C33.7617 62.4532 33.3819 62.4954 33.0865 62.622C32.7488 61.9467 32.2001 61.4825 31.4405 61.2293C31.0184 61.1026 30.6386 61.0182 30.2165 61.0182C29.5412 61.0182 28.9081 61.2293 28.3595 61.6091C27.8108 60.9338 27.0089 60.554 26.1648 60.554C25.4051 60.554 24.6876 60.8494 24.1812 61.3981C23.4637 60.8494 20.7203 59.119 13.2922 57.4308C12.9124 57.3464 12.1105 57.0931 11.604 56.9665C11.5196 57.3886 11.4352 57.7684 11.393 58.1905C11.393 58.1905 12.7435 58.5281 13.039 58.5703C20.6359 60.2585 23.126 61.989 23.5481 62.3266C23.4215 62.6642 23.3371 63.0441 23.3371 63.4239C23.3371 64.9855 24.6032 66.2517 26.1648 66.2517C26.3336 66.2517 26.5024 66.2517 26.6713 66.2095C26.9245 67.349 27.642 68.2353 28.8237 68.6996C29.1614 68.8262 29.499 68.9106 29.8367 68.9106C30.0477 68.9106 30.2587 68.8684 30.4697 68.8262C30.6808 69.3749 31.145 70.0501 32.2424 70.4722C32.6222 70.641 33.002 70.6832 33.3397 70.6832C33.6351 70.6832 33.9306 70.641 34.226 70.5144C34.7325 71.7806 35.9564 72.5825 37.307 72.5825C38.1933 72.5825 39.0796 72.2026 39.7127 71.5695C40.2613 71.865 41.4009 72.4136 42.5404 72.4136C42.7092 72.4136 42.8359 72.4136 42.9625 72.3714C44.102 72.2448 44.6507 71.7806 44.9039 71.4429C44.9461 71.4007 44.9883 71.3163 45.0305 71.2319C45.2838 71.3163 45.5792 71.3585 45.959 71.3585C46.5921 71.3585 47.183 71.1475 47.7739 70.6832C48.3647 70.2612 48.7868 69.6281 48.8712 69.1216C48.8712 69.1216 48.8712 69.1216 48.8712 69.0794C49.0822 69.1216 49.2933 69.1216 49.5043 69.1216C50.1374 69.1216 50.7704 68.9106 51.4035 68.5308C52.5853 67.7711 52.7541 66.7581 52.7541 66.1251C52.9651 66.1673 53.1761 66.2095 53.3872 66.2095C53.978 66.2095 54.5689 66.0407 55.1598 65.6608C55.8773 65.1965 56.3415 64.4791 56.3837 63.6772C56.4259 63.1285 56.2993 62.5376 56.0039 62.0734C57.9453 61.2293 62.4191 59.5833 67.6947 58.4015C67.6525 57.9795 67.6103 57.5996 67.5259 57.1776C60.8997 58.4437 56.1727 60.5118 54.991 61.0604ZM37.1382 71.3585C35.9142 71.3585 34.9013 70.3878 34.8591 69.1638C34.8591 69.0794 34.8591 68.784 34.6058 68.784C34.5214 68.784 34.437 68.8262 34.3104 68.9106C34.0572 69.1638 33.6773 69.4171 33.1709 69.4171C32.9598 69.4171 32.7066 69.3749 32.4112 69.2483C31.1028 68.6996 31.1028 67.8133 31.145 67.4756C31.145 67.3912 31.145 67.2646 31.1028 67.1802L31.0184 67.0958H30.934C30.8496 67.0958 30.8074 67.138 30.723 67.1802C30.3431 67.4334 29.9633 67.56 29.6256 67.56C29.4146 67.56 29.2036 67.5178 28.9926 67.4334C27.2621 66.7581 27.3888 65.1543 27.4732 64.6479C27.4732 64.5635 27.4732 64.4791 27.3888 64.4369L27.3043 64.3946L27.2199 64.4791C26.8823 64.8167 26.4602 64.9855 25.996 64.9855C25.0253 64.9855 24.2234 64.1836 24.2234 63.2129C24.2234 62.2422 25.0253 61.4403 25.996 61.4403C26.8823 61.4403 27.642 62.1156 27.7686 63.0019L27.8108 63.4661L28.064 63.0441C28.1062 63.0019 28.8237 61.9045 30.1321 61.9045C30.3853 61.9045 30.6386 61.9467 30.8918 62.0312C31.9469 62.3688 32.1157 63.2973 32.1579 63.7194C32.1579 63.9726 32.3268 63.9726 32.369 63.9726C32.4534 63.9726 32.5378 63.9304 32.58 63.846C32.791 63.635 33.2131 63.2973 33.8884 63.2973C34.1838 63.2973 34.5214 63.3817 34.8591 63.5083C36.5473 64.2258 35.7876 66.3783 35.7876 66.3783C35.661 66.7159 35.6188 66.8848 35.7876 66.9692L35.872 67.0114H35.9142C35.9986 67.0114 36.083 66.9692 36.2518 66.927C36.4629 66.8426 36.8427 66.7159 37.1382 66.7159C38.4043 66.7159 39.4172 67.7711 39.4172 68.995C39.4172 70.3034 38.4043 71.3585 37.1382 71.3585Z" fill="#000F9F"/>
<path d="M168.438 46.9639C167.383 45.6556 165.779 44.9803 163.627 44.9803C161.474 44.9803 159.87 45.6556 158.815 46.9639C157.76 48.2723 157.212 49.8339 157.212 51.6487C157.212 53.5057 157.76 55.0673 158.815 56.3757C159.87 57.6841 161.474 58.3171 163.627 58.3171C165.779 58.3171 167.383 57.6841 168.438 56.3757C169.493 55.0673 170.042 53.5057 170.042 51.6487C170 49.8339 169.493 48.2723 168.438 46.9639ZM165.821 54.5609C165.315 55.2362 164.555 55.5738 163.627 55.5738C162.656 55.5738 161.939 55.2362 161.432 54.5609C160.926 53.8856 160.672 52.9149 160.672 51.6487C160.672 50.3826 160.926 49.4118 161.432 48.7366C161.939 48.0613 162.698 47.7236 163.627 47.7236C164.597 47.7236 165.315 48.0613 165.821 48.7366C166.328 49.4118 166.581 50.3826 166.581 51.6487C166.581 52.9149 166.328 53.8856 165.821 54.5609Z" fill="#000F9F"/>
<path d="M141.384 45.8244C140.329 45.2757 139.105 45.0225 137.713 45.0225C135.602 45.0225 134.083 45.5711 133.239 46.6685C132.69 47.386 132.395 48.2723 132.31 49.3696H135.476C135.56 48.9053 135.729 48.4833 135.94 48.2301C136.278 47.8502 136.826 47.6392 137.628 47.6392C138.346 47.6392 138.852 47.7236 139.232 47.9346C139.612 48.1456 139.781 48.4833 139.781 48.9898C139.781 49.4118 139.527 49.7072 139.063 49.9183C138.81 50.0449 138.346 50.1293 137.755 50.2137L136.615 50.3403C135.349 50.5091 134.378 50.7624 133.703 51.1422C132.521 51.8175 131.888 52.957 131.888 54.4764C131.888 55.6582 132.268 56.5867 133.028 57.2198C133.788 57.8528 134.716 58.1483 135.856 58.1905C143.03 58.5281 142.946 54.392 143.03 53.5479V48.9475C143.03 47.4282 142.482 46.373 141.384 45.8244ZM139.738 52.9992C139.696 54.0966 139.401 54.8563 138.81 55.2783C138.219 55.7004 137.544 55.9114 136.826 55.9114C136.362 55.9114 135.982 55.7848 135.687 55.5316C135.391 55.2783 135.223 54.8563 135.223 54.3076C135.223 53.6745 135.476 53.2103 135.982 52.9148C136.278 52.746 136.784 52.5772 137.502 52.4506L138.261 52.324C138.641 52.2396 138.937 52.1973 139.148 52.1129C139.359 52.0285 139.57 51.9441 139.781 51.8175V52.9992H139.738Z" fill="#000F9F"/>
<path d="M125.051 47.8502C125.853 47.8502 126.486 48.1034 126.866 48.6099C127.119 48.9897 127.288 49.4118 127.372 49.876H130.918C130.707 48.1034 130.116 46.8373 129.061 46.1198C128.006 45.4023 126.655 45.0646 125.009 45.0646C123.068 45.0646 121.548 45.6555 120.409 46.8373C119.311 48.019 118.763 49.7072 118.763 51.8597C118.763 53.7589 119.269 55.3205 120.282 56.5023C121.295 57.684 122.856 58.2749 124.967 58.2749C127.077 58.2749 128.681 57.5574 129.778 56.1224C130.453 55.2361 130.833 54.3076 130.918 53.2947H127.33C127.246 53.9699 127.035 54.4764 126.697 54.8985C126.36 55.3205 125.769 55.5315 124.967 55.5315C123.827 55.5315 123.068 55.0251 122.645 53.9699C122.434 53.4213 122.308 52.6616 122.308 51.7753C122.308 50.8045 122.434 50.0449 122.645 49.454C123.068 48.3988 123.869 47.8502 125.051 47.8502Z" fill="#000F9F"/>
<path d="M117.75 45.0647C110.49 45.0647 110.912 51.4799 110.912 51.4799V58.0217H114.204V51.9019C114.204 50.889 114.331 50.1715 114.584 49.665C115.049 48.8209 115.935 48.3567 117.243 48.3567C117.328 48.3567 117.454 48.3567 117.623 48.3567C117.792 48.3567 117.961 48.3989 118.172 48.3989V45.0225C118.045 45.0225 117.918 45.0225 117.876 45.0225C117.876 45.0647 117.834 45.0647 117.75 45.0647Z" fill="#000F9F"/>
<path d="M105.637 54.6452C105.51 54.8562 105.341 55.025 105.172 55.1517C104.708 55.5315 104.075 55.6581 103.315 55.6581C102.598 55.6581 102.049 55.5315 101.543 55.2361C100.741 54.7296 100.277 53.8855 100.192 52.6193H109.308C109.308 51.522 109.266 50.7201 109.182 50.1292C109.013 49.1585 108.675 48.2722 108.169 47.5547C107.62 46.7106 106.861 46.0775 106.016 45.6977C105.13 45.3178 104.159 45.1068 103.062 45.1068C101.205 45.1068 99.7279 45.6977 98.5883 46.8372C97.4488 47.9768 96.8579 49.665 96.8579 51.8174C96.8579 54.1387 97.491 55.8269 98.7572 56.8399C100.023 57.8528 101.501 58.4015 103.189 58.4015C105.215 58.4015 106.776 57.8106 107.916 56.5866C108.507 55.9536 108.886 55.3205 109.055 54.6874H105.637V54.6452ZM101.205 48.4832C101.669 48.019 102.302 47.7657 103.147 47.7657C103.906 47.7657 104.581 47.9768 105.088 48.441C105.594 48.9053 105.89 49.5384 105.974 50.4247H100.319C100.445 49.6228 100.741 48.9475 101.205 48.4832Z" fill="#000F9F"/>
<path d="M95.6341 58.0217H92.6375V50.4247C92.6375 49.7494 92.4265 48.1034 90.4006 48.1034C89.0923 48.1034 88.1216 49.0742 88.1216 50.4247V58.0217H85.125V50.4247C85.125 49.7494 84.914 48.1034 82.9303 48.1034C81.5797 48.1034 80.6512 49.0742 80.6512 50.4247V58.0217H77.6546V50.5091C77.6546 47.386 79.7227 45.0225 82.9725 45.0225C84.5763 45.0225 85.8847 45.6977 86.7288 46.7529C87.6151 45.6555 88.9235 45.0225 90.485 45.0225C93.7771 45.0225 95.7185 47.3015 95.7185 50.5091V58.0217H95.6341Z" fill="#000F9F"/>
<path d="M156.24 41.0973C156.24 41.0973 152.906 40.7597 152.906 43.4186V46.9639C152.526 46.373 152.062 45.9087 151.471 45.5711C150.88 45.2335 150.205 45.0646 149.445 45.0646C147.799 45.0646 146.491 45.6977 145.478 46.9217C144.507 48.1456 144.001 49.9182 144.001 52.0707C144.001 53.9277 144.507 55.4471 145.52 56.6289C146.533 57.8106 148.475 58.3171 150.205 58.3171C156.283 58.3171 156.198 53.1258 156.198 53.1258L156.24 41.0973ZM152.273 54.5608C151.809 55.2361 151.091 55.6159 150.163 55.6159C149.234 55.6159 148.559 55.2783 148.095 54.5608C147.631 53.8855 147.42 52.8726 147.42 51.6909C147.42 50.6357 147.631 49.7072 148.095 48.9897C148.559 48.2722 149.234 47.8924 150.205 47.8924C150.838 47.8924 151.387 48.1034 151.851 48.4833C152.611 49.1585 153.033 50.3403 153.033 51.8597C152.991 52.9992 152.737 53.8855 152.273 54.5608Z" fill="#000F9F"/>
<path d="M116.019 73.7643C115.892 73.9753 115.724 74.1441 115.555 74.2707C115.091 74.6506 114.458 74.7772 113.698 74.7772C113.023 74.7772 112.474 74.6928 111.967 74.3552C111.166 73.8487 110.701 73.0046 110.659 71.7384H119.733C119.733 70.6833 119.691 69.8392 119.607 69.2905C119.438 68.3198 119.142 67.4757 118.636 66.716C118.087 65.8719 117.37 65.281 116.483 64.9012C115.639 64.5213 114.669 64.3103 113.571 64.3103C111.756 64.3103 110.279 64.9012 109.14 66.0407C108 67.1803 107.451 68.8263 107.451 70.9787C107.451 73.2578 108.085 74.9038 109.351 75.959C110.617 76.9719 112.052 77.4783 113.698 77.4783C115.681 77.4783 117.243 76.8875 118.34 75.6635C118.931 75.0304 119.311 74.3974 119.48 73.7643H116.019ZM111.63 67.6867C112.094 67.2225 112.727 66.9692 113.571 66.9692C114.331 66.9692 114.964 67.1803 115.513 67.6445C116.019 68.1088 116.315 68.7419 116.357 69.586H110.786C110.87 68.8263 111.166 68.1932 111.63 67.6867Z" fill="#000F9F"/>
<path d="M106.776 64.3103C106.734 64.3103 106.692 64.3103 106.607 64.3103C99.3481 64.3103 99.7702 70.7255 99.7702 70.7255V77.1407H103.062V71.1476C103.062 70.1346 103.189 69.4171 103.442 68.9107C103.906 68.0666 104.793 67.6445 106.101 67.6445C106.185 67.6445 106.312 67.6445 106.481 67.6445C106.65 67.6445 106.818 67.6867 107.029 67.6867V64.3525C106.903 64.3103 106.818 64.3103 106.776 64.3103Z" fill="#000F9F"/>
<path d="M77.6125 62.6643C77.6125 65.1544 77.6125 77.1829 77.6125 77.1829H80.6935V60.3008C80.6935 60.3008 77.6125 60.1742 77.6125 62.6643Z" fill="#000F9F"/>
<path d="M86.518 60.2585H83.226V63.5506H86.518V60.2585Z" fill="#000F9F"/>
<path d="M86.518 64.6479H83.226V77.1406H86.518V64.6479Z" fill="#000F9F"/>
<path d="M95.3812 77.1828H92.047L87.6577 64.6479H91.1607L93.6508 73.4688L95.8455 65.7874C96.0987 65.0277 96.6052 64.6479 97.3649 64.6479H99.8128L95.3812 77.1828Z" fill="#000F9F"/>
</svg>
