<svg width="486" height="363" viewBox="0 0 486 363" fill="none" xmlns="http://www.w3.org/2000/svg">
<g clip-path="url(#clip0)">
<ellipse opacity="0.1" cx="250.29" cy="317.728" rx="235.71" ry="25.9286" fill="#303042"/>
<path d="M470.291 277.056H222.757V199.129H440.969L461.324 215.807C467.017 220.408 470.291 227.453 470.291 234.786V277.056Z" fill="#263238"/>
<path opacity="0.5" d="M470.291 277.056H222.757V199.129H440.969L461.324 215.807C467.017 220.408 470.291 227.453 470.291 234.786V277.056Z" fill="#263238"/>
<path d="M221.334 270.011C221.334 241.543 234.145 218.539 249.803 218.539H219.484C203.684 218.539 191.015 241.543 191.015 270.011C191.015 298.478 203.826 321.482 219.484 321.482H249.803C234.003 321.482 221.334 298.478 221.334 270.011Z" fill="#263238"/>
<path d="M249.802 321.482C265.525 321.482 278.271 298.438 278.271 270.011C278.271 241.584 265.525 218.539 249.802 218.539C234.08 218.539 221.334 241.584 221.334 270.011C221.334 298.438 234.08 321.482 249.802 321.482Z" fill="#263238"/>
<path d="M252.08 310.124C263.243 310.124 272.292 292.165 272.292 270.011C272.292 247.857 263.243 229.897 252.08 229.897C240.917 229.897 231.867 247.857 231.867 270.011C231.867 292.165 240.917 310.124 252.08 310.124Z" fill="white"/>
<path d="M56.9284 270.011C56.9284 241.543 69.7392 218.539 85.3969 218.539H55.0779C39.2779 218.539 26.6094 241.543 26.6094 270.011C26.6094 298.478 39.4202 321.482 55.0779 321.482H85.3969C69.5968 321.482 56.9284 298.478 56.9284 270.011Z" fill="#263238"/>
<path d="M85.3967 321.482C101.119 321.482 113.865 298.438 113.865 270.011C113.865 241.584 101.119 218.539 85.3967 218.539C69.674 218.539 56.9282 241.584 56.9282 270.011C56.9282 298.438 69.674 321.482 85.3967 321.482Z" fill="#263238"/>
<path d="M416.77 270.011C416.77 241.543 429.581 218.539 445.239 218.539H414.92C399.12 218.539 386.451 241.543 386.451 270.011C386.451 298.478 399.262 321.482 414.92 321.482H445.239C429.581 321.482 416.77 298.478 416.77 270.011Z" fill="#263238"/>
<path d="M445.239 321.482C460.961 321.482 473.707 298.438 473.707 270.011C473.707 241.584 460.961 218.539 445.239 218.539C429.516 218.539 416.77 241.584 416.77 270.011C416.77 298.438 429.516 321.482 445.239 321.482Z" fill="#263238"/>
<path d="M447.658 310.124C458.822 310.124 467.871 292.165 467.871 270.011C467.871 247.857 458.822 229.897 447.658 229.897C436.495 229.897 427.446 247.857 427.446 270.011C427.446 292.165 436.495 310.124 447.658 310.124Z" fill="white"/>
<path d="M187.599 284.388H151.017L149.024 282.375C146.889 280.219 144.042 279.069 141.053 279.069H49.5264C46.5372 279.069 43.6903 280.219 41.5552 282.375L40.2741 283.669H37.0002C26.1822 283.526 17.3569 274.611 17.3569 263.685V233.204H224.892L208.381 269.436C205.249 278.35 196.993 284.388 187.599 284.388Z" fill="#EE7EAF"/>
<path d="M187.599 284.388H151.017L149.024 282.375C146.889 280.219 144.042 279.069 141.053 279.069H49.5264C46.5372 279.069 43.6903 280.219 41.5552 282.375L40.2741 283.669H37.0002C26.1822 283.526 17.3569 274.611 17.3569 263.685V233.204H224.892L208.381 269.436C205.249 278.35 196.993 284.388 187.599 284.388Z" fill="url(#paint0_linear)"/>
<path d="M403.675 103.518C403.532 103.518 403.39 103.518 403.248 103.375C402.963 103.231 402.821 102.8 402.963 102.368L412.927 85.1152C413.069 84.8276 413.496 84.6839 413.923 84.8276C414.208 84.9714 414.35 85.4027 414.208 85.8341L404.244 103.087C404.102 103.518 403.959 103.518 403.675 103.518Z" fill="#263238"/>
<path d="M456.199 189.353V169.799C456.199 159.447 441.396 110.851 420.898 101.793C400.543 92.7353 351.15 88.5658 320.12 90.2911C289.089 92.0164 247.525 157.578 247.525 157.578L252.08 214.082C258.343 214.082 278.556 212.213 281.402 267.998C281.829 276.193 288.52 282.519 296.633 282.519H405.525C413.069 282.519 419.475 276.912 420.614 269.292C423.46 249.451 430.862 213.938 448.797 213.938C461.324 213.938 470.434 224.865 470.434 237.23C470.434 223.571 467.16 210.056 460.897 197.979L456.199 189.353Z" fill="url(#paint1_linear)"/>
<path d="M206.246 90.292C149.593 90.292 85.5391 157.579 85.5391 157.579H247.667C247.667 157.579 289.089 91.8735 320.262 90.292H206.246Z" fill="#ADADDE"/>
<path opacity="0.4" d="M209.804 90.2911C162.12 90.2911 112.157 138.025 97.4961 153.121C95.9303 154.846 97.0691 157.578 99.3465 157.578H230.159C240.835 157.578 250.811 169.284 257.204 143.776C271.296 124.366 298.342 91.4413 320.262 90.1473H209.804V90.2911Z" fill="white"/>
<path d="M247.667 157.578L187.741 205.312L26.6092 204.736C26.6092 204.736 17.3569 218.251 17.3569 233.204C27.4633 233.204 213.22 233.204 224.892 233.204C228.309 224.146 240.265 214.082 252.08 214.082C252.08 197.116 247.667 157.578 247.667 157.578Z" fill="url(#paint2_linear)"/>
<path opacity="0.2" d="M208.381 191.222C208.096 191.222 207.669 190.934 207.669 190.647C207.669 190.215 207.811 189.928 208.238 189.784C225.889 187.052 239.127 178.426 247.098 171.524C251.653 167.643 252.507 161.029 249.233 156.14C248.948 155.853 249.091 155.422 249.375 155.134C249.66 154.846 250.087 154.99 250.372 155.278C254.073 160.885 253.076 168.218 248.094 172.675C239.981 179.576 226.458 188.49 208.381 191.222C208.523 191.222 208.523 191.222 208.381 191.222Z" fill="black"/>
<path d="M26.6094 204.736C26.6094 204.736 54.9356 171.38 85.5392 157.578H247.667L187.741 205.312L26.6094 204.736Z" fill="#EE7EAF"/>
<path d="M152.013 204.737H45.6831V207.9H152.013V204.737Z" fill="#263238"/>
<path d="M149.736 198.554L155.429 192.803C156.71 191.509 158.276 190.647 160.127 190.215L203.114 180.726C204.68 180.438 206.246 180.438 207.669 180.87L209.947 181.589C216.637 183.458 219.056 191.797 214.502 197.116L205.249 207.756C203.683 209.625 201.406 210.775 198.986 210.919L157.28 214.801C154.433 215.088 151.728 214.082 149.736 212.069C146.035 208.331 146.035 202.292 149.736 198.554Z" fill="white"/>
<path d="M48.672 201.574L43.9747 192.659C43.263 191.365 42.2666 190.359 41.1279 189.64C38.8504 188.202 35.8612 188.202 33.5837 189.353L30.0251 191.222C28.317 192.228 26.8936 193.81 26.3242 195.679L24.1891 202.149C22.6233 206.749 25.4702 211.638 30.1675 212.357L39.9891 214.082C43.263 214.657 46.5369 213.076 48.1026 210.056L48.8144 208.762C49.9531 206.749 49.9531 203.874 48.672 201.574Z" fill="white"/>
<path opacity="0.4" d="M280.691 159.447H430.578C435.987 159.447 439.972 154.128 438.407 148.808C434.99 137.306 428.443 119.334 418.621 110.132C417.482 109.126 416.201 108.407 414.778 108.119C397.127 104.381 368.659 101.793 347.592 100.355C328.233 99.0615 309.302 106.25 295.779 120.197C288.662 127.529 280.976 136.587 274.143 146.795C270.585 152.402 274.428 159.447 280.691 159.447Z" fill="white"/>
<path d="M183.755 250.026C183.755 254.771 178.916 258.509 173.079 258.509C167.243 258.509 162.404 254.627 162.404 250.026C162.404 245.281 167.243 241.543 173.079 241.543C179.058 241.543 183.755 245.281 183.755 250.026Z" fill="#263238"/>
<path d="M97.7803 198.267C101.339 198.267 103.047 201.861 101.624 206.318C100.2 210.775 96.2146 214.37 92.7983 214.37C89.3821 214.37 87.5316 210.775 88.9551 206.318C90.3785 201.861 94.3641 198.267 97.7803 198.267Z" fill="#263238"/>
<path d="M26.0399 250.026C26.0399 254.771 24.7588 258.509 23.0507 258.509C21.3426 258.509 20.0615 254.627 20.0615 250.026C20.0615 245.281 21.3426 241.543 23.0507 241.543C24.6165 241.543 26.0399 245.281 26.0399 250.026Z" fill="#263238"/>
<path d="M276.136 158.153V153.265C276.136 147.37 281.545 142.913 287.238 144.063L305.458 147.945C309.729 148.808 312.86 152.69 312.86 157.147V158.153C312.86 163.329 308.732 167.499 303.608 167.499H285.388C280.264 167.499 276.136 163.329 276.136 158.153Z" fill="#263238"/>
<path d="M372.075 102.512C372.075 102.512 369.655 102.225 365.385 101.937C384.174 140.756 379.334 159.591 379.334 159.591H393.711C393.853 135.868 372.075 102.512 372.075 102.512Z" fill="#F076AB"/>
<path opacity="0.2" d="M213.932 142.05C213.362 148.377 208.096 153.265 201.833 153.265H127.957C122.548 153.265 120.555 147.226 124.541 142.626C132.085 133.999 140.056 126.379 147.458 120.053C161.407 108.263 178.631 102.081 194.715 103.231C196.708 103.375 198.701 103.519 200.836 103.662C206.245 104.094 210.658 108.119 211.797 113.439C214.359 126.091 214.501 135.581 213.932 142.05Z" fill="#407BFF"/>
<path opacity="0.2" d="M381.184 272.311C380.757 272.311 380.473 272.024 380.473 271.592C380.473 257.071 387.874 197.117 389.725 188.059C391.575 179.288 391.575 169.655 389.725 163.185C389.583 162.754 389.867 162.467 390.152 162.323C390.579 162.179 390.864 162.467 391.006 162.754C392.999 169.368 392.999 179.288 391.006 188.202C389.156 197.116 381.754 256.927 381.754 271.449C381.896 272.024 381.469 272.311 381.184 272.311Z" fill="black"/>
<path opacity="0.2" d="M379.192 188.778H361.826C360.402 188.778 359.406 187.627 359.691 186.19L360.118 184.177C360.402 182.739 361.826 181.589 363.249 181.589H380.615C382.039 181.589 383.035 182.739 382.75 184.177L382.323 186.19C382.039 187.627 380.615 188.778 379.192 188.778Z" fill="black"/>
<path d="M332.219 319.326L340.759 319.182L343.321 299.054L334.639 299.197L332.219 319.326Z" fill="#B55B52"/>
<path d="M373.213 318.607L381.612 316.019L376.345 297.041L368.089 299.629L373.213 318.607Z" fill="#B55B52"/>
<path d="M381.327 313.575L372.074 318.463C371.79 318.607 371.647 319.038 371.647 319.326L373.64 326.946C373.783 327.809 374.779 328.096 375.491 327.665C378.48 326.083 380.615 324.789 384.316 322.777C386.593 321.626 393.711 318.176 396.984 316.45C400.116 314.869 398.977 311.418 397.554 311.706C391.006 313.431 385.597 314.006 382.893 313.287C382.323 313.287 381.754 313.287 381.327 313.575Z" fill="#263238"/>
<path d="M341.044 318.176L331.649 318.32C331.365 318.32 330.938 318.607 330.938 318.895L329.372 326.659C329.23 327.521 329.799 328.24 330.653 328.24C334.069 328.096 338.909 327.809 343.179 327.809C348.161 327.665 349.585 327.953 355.421 327.809C358.979 327.809 359.833 324.071 358.41 323.783C351.72 322.345 349.015 322.345 343.179 318.751C342.467 318.463 341.756 318.176 341.044 318.176Z" fill="#263238"/>
<path d="M353.997 55.21C355.99 59.0919 358.125 63.4052 360.403 67.2871C362.68 71.3128 364.958 75.1948 367.377 78.9329C367.947 79.7956 368.659 80.802 369.228 81.6647L370.794 83.8213C371.078 84.2526 371.363 84.3964 371.363 84.5402C371.363 84.684 371.505 84.8278 371.932 84.8278C372.787 84.8278 374.495 83.9651 376.06 82.8149C376.772 82.2398 377.626 81.5209 378.48 80.802C379.192 80.0832 380.046 79.2205 380.758 78.5016L386.309 81.6647C385.74 83.1024 385.313 84.1089 384.601 85.4029C384.032 86.5531 383.32 87.7033 382.466 88.8535C381.612 90.0037 380.615 91.1539 379.477 92.1603C378.338 93.1667 376.914 94.1732 374.922 94.892C373.071 95.6109 370.651 95.8985 368.374 95.1796C366.096 94.6045 364.246 93.4543 362.965 92.3041C362.538 92.0165 362.253 91.729 361.968 91.4414L361.541 91.0101L361.257 90.5788L359.976 89.141C359.122 88.1346 358.41 87.1282 357.556 86.2655C354.424 82.2398 351.72 78.2141 349.158 73.9008C347.877 71.7442 346.595 69.5875 345.599 67.4309C344.46 65.2743 343.322 63.1176 342.325 60.6734L353.997 55.21Z" fill="#B55B52"/>
<path d="M338.624 55.21C336.346 63.1176 352.573 84.8278 352.573 84.8278L369.085 74.1883C369.085 74.1883 364.246 63.1176 357.698 54.6349C350.865 46.0083 341.186 46.5834 338.624 55.21Z" fill="#EBEBEB"/>
<g opacity="0.2">
<path opacity="0.2" d="M338.624 55.21C336.346 63.1176 352.573 84.8278 352.573 84.8278L369.085 74.1883C369.085 74.1883 364.246 63.1176 357.698 54.6349C350.865 46.0083 341.186 46.5834 338.624 55.21Z" fill="black"/>
</g>
<path opacity="0.2" d="M348.588 64.5554C352.004 65.9932 356.986 74.1884 359.549 80.3708L352.574 84.9716C352.574 84.9716 346.311 76.6326 342.041 68.4374C344.318 65.8494 346.88 63.8365 348.588 64.5554Z" fill="black"/>
<path d="M379.619 80.2269L385.597 70.4502L390.721 78.7892C390.721 78.7892 388.871 82.5274 385.028 83.5338L379.619 80.2269Z" fill="#B55B52"/>
<path d="M393.995 70.594V73.6133C393.995 74.6198 393.711 75.4824 393.141 76.2013L391.006 78.933L385.882 70.594L391.291 68.5812C392.43 68.0061 393.995 69.1563 393.995 70.594Z" fill="#B55B52"/>
<path d="M388.16 83.1025L378.765 82.9587L383.889 63.2615L393.284 63.4052L388.16 83.1025Z" fill="#687F8A"/>
<path d="M389.014 83.1025L379.761 82.9587L384.886 63.2615L394.28 63.4052L389.014 83.1025Z" fill="#263238"/>
<path opacity="0.2" d="M343.321 299.054L342.04 309.405L333.357 309.549L334.638 299.197L343.321 299.054Z" fill="black"/>
<path opacity="0.2" d="M368.089 299.629L376.345 297.041L379.049 306.818L370.793 309.406L368.089 299.629Z" fill="black"/>
<path d="M302.326 59.5233C309.301 90.0037 307.878 120.34 308.59 126.81C315.28 126.379 340.617 124.366 354.424 123.36C358.836 73.7571 348.445 48.5963 348.445 48.5963C348.445 48.5963 345.456 48.0212 341.471 47.5899C340.19 47.4461 338.909 47.3023 337.485 47.3023C336.773 47.3023 335.919 47.1586 335.065 47.1586C329.941 47.0148 321.4 47.8774 315.564 48.5963C314.283 48.7401 313.144 48.8839 311.863 49.1714C310.725 49.3152 309.586 49.6027 308.59 49.7465H308.447C304.035 50.7529 301.33 55.0662 302.326 59.5233Z" fill="white"/>
<g opacity="0.2">
<path opacity="0.2" d="M302.326 59.5233C309.301 90.0037 307.878 120.34 308.59 126.81C315.28 126.379 340.617 124.366 354.424 123.36C358.836 73.7571 348.445 48.5963 348.445 48.5963C348.445 48.5963 345.456 48.0212 341.471 47.5899C340.19 47.4461 338.909 47.3023 337.485 47.3023C336.773 47.3023 335.919 47.1586 335.065 47.1586C329.941 47.0148 321.4 47.8774 315.564 48.5963C314.283 48.7401 313.144 48.8839 311.863 49.1714C310.725 49.3152 309.586 49.6027 308.59 49.7465H308.447C304.035 50.7529 301.33 55.0662 302.326 59.5233Z" fill="black"/>
</g>
<path opacity="0.2" d="M310.156 65.8494L304.889 72.7506C304.889 72.8944 304.889 72.8944 304.889 73.0382C305.601 77.639 306.17 82.2398 306.597 86.5531C311.579 80.2269 310.868 68.8687 310.156 65.8494Z" fill="black"/>
<path d="M317.842 35.0814C318.981 39.6822 318.838 44.8581 315.564 48.5963C319.265 51.7594 323.963 55.3538 331.365 55.0662C338.766 54.7787 337.201 49.7465 334.923 47.1586C328.518 46.1521 328.518 41.9826 328.518 37.3818C328.518 36.3754 327.948 35.5127 326.952 35.2252L319.977 32.9248C318.696 32.6372 317.557 33.7874 317.842 35.0814Z" fill="#B55B52"/>
<path opacity="0.2" d="M328.518 37.6693L321.543 38.532C321.685 38.8195 321.828 39.1071 322.112 39.3946C323.393 41.5513 326.383 42.989 329.372 43.4203C328.66 41.8388 328.66 39.826 328.518 37.6693Z" fill="black"/>
<path d="M337.77 19.1223C341.756 19.8412 349.015 15.2404 347.307 9.34558C345.172 12.0773 337.77 11.2147 337.77 11.2147V19.1223Z" fill="#263238"/>
<path d="M322.397 25.5922C322.824 29.6179 317.984 36.663 312.148 34.6501C314.995 32.6372 314.568 25.1609 314.568 25.1609L322.397 25.5922Z" fill="#263238"/>
<path d="M316.704 17.6845C315.707 26.1673 314.568 31.1994 317.985 36.3753C323.109 44.1392 334.212 42.1264 337.77 34.0749C341.044 26.8861 342.183 14.0901 334.639 9.20173C327.095 4.31335 317.7 9.20173 316.704 17.6845Z" fill="#B55B52"/>
<path d="M315.564 26.311C317.7 28.4677 323.251 19.5536 322.254 16.3905C324.39 17.397 328.518 15.5279 328.233 11.9335C334.638 15.3841 343.891 18.1158 344.033 11.9335C344.175 5.75112 338.339 1.1503 332.645 0.5752C333.357 2.44428 331.507 3.16316 327.806 2.44428C324.105 1.58163 309.728 -5.03205 311.294 8.33909C306.027 8.62664 305.316 15.3841 315.564 26.311Z" fill="#263238"/>
<path d="M311.294 23.148C311.579 25.4484 312.86 27.4612 314.426 28.4677C316.703 30.193 318.127 28.3239 318.269 25.5922C318.411 23.148 318.269 19.266 315.564 18.6909C313.002 18.1158 311.01 20.4162 311.294 23.148Z" fill="#B55B52"/>
<path d="M324.248 125.66L354.424 123.36C354.424 123.36 358.267 185.758 357.983 212.213C357.698 239.818 345.172 307.249 345.172 307.249L330.653 307.536C330.653 307.536 331.792 241.975 331.792 214.945C331.792 178.57 324.248 125.66 324.248 125.66Z" fill="#263238"/>
<path opacity="0.2" d="M335.92 190.503C336.347 192.372 347.45 242.981 351.151 272.455C353.143 260.234 354.994 246.432 356.417 234.211L335.92 190.503Z" fill="black"/>
<path d="M338.055 124.51C338.055 124.51 360.972 181.301 366.097 206.174C371.79 233.492 380.758 302.36 380.758 302.36L365.242 304.805C365.242 304.805 353.428 253.333 346.88 227.022C339.336 196.973 309.729 149.527 308.448 126.81C338.055 124.51 338.055 124.51 338.055 124.51Z" fill="#263238"/>
<path d="M382.893 303.654L363.534 308.255L361.114 300.779L382.181 297.041L382.893 303.654Z" fill="#E06FA0"/>
<path d="M347.023 307.68L329.657 307.968V302.217L349.015 301.642L347.023 307.68Z" fill="#E06FA0"/>
<path d="M328.518 22.1415C328.376 22.8604 328.66 23.4355 329.087 23.5793C329.514 23.7231 329.941 23.148 330.084 22.4291C330.226 21.7102 329.941 21.1351 329.514 20.9913C329.087 20.9913 328.66 21.5664 328.518 22.1415Z" fill="#263238"/>
<path d="M336.916 24.0106C336.774 24.7294 337.058 25.3045 337.485 25.4483C337.912 25.5921 338.339 25.017 338.482 24.2981C338.624 23.5792 338.339 23.0041 337.912 22.8604C337.485 22.8604 337.058 23.2917 336.916 24.0106Z" fill="#263238"/>
<path d="M334.069 23.8669C334.069 23.8669 334.923 28.1802 336.204 30.3369C334.781 31.1995 332.788 30.3369 332.788 30.3369L334.069 23.8669Z" fill="#A02724"/>
<path d="M331.507 32.4934C328.945 31.9183 327.806 29.9055 327.806 29.9055C327.806 29.7617 327.806 29.6179 327.948 29.6179C328.091 29.6179 328.233 29.6179 328.233 29.7617C328.233 29.7617 329.514 32.0621 332.503 32.3497C332.646 32.3497 332.646 32.4934 332.646 32.6372C332.646 32.781 332.503 32.781 332.361 32.781C332.076 32.4934 331.792 32.4934 331.507 32.4934Z" fill="#263238"/>
<path d="M327.664 19.1222C327.664 19.1222 327.521 19.1222 327.521 18.9784C327.379 18.8346 327.379 18.5471 327.521 18.4033C329.229 16.8218 331.08 17.3969 331.08 17.3969C331.365 17.3969 331.365 17.6844 331.365 17.8282C331.365 18.1158 331.08 18.1158 330.938 18.1158C330.938 18.1158 329.514 17.8282 328.091 18.9784C327.948 19.1222 327.806 19.1222 327.664 19.1222Z" fill="#263238"/>
<path d="M341.471 21.8539C341.329 21.8539 341.186 21.7102 341.186 21.5664C340.759 19.8411 339.336 19.266 339.336 19.266C339.194 19.266 339.051 18.9784 339.051 18.6909C339.051 18.5471 339.336 18.4033 339.621 18.4033C339.763 18.4033 341.471 18.9784 342.041 21.2788C342.041 21.5664 342.041 21.7102 341.756 21.8539C341.613 21.8539 341.471 21.8539 341.471 21.8539Z" fill="#263238"/>
<path d="M384.601 313.575C383.889 314.006 383.035 314.15 382.466 314.294C382.323 314.294 382.323 314.294 382.323 314.15C382.323 314.15 382.323 314.006 382.323 313.862C382.466 313.575 384.174 310.699 385.312 310.699C385.455 310.699 385.74 310.699 385.882 310.987C386.167 311.418 386.167 311.706 386.024 312.137C385.597 312.856 385.17 313.287 384.601 313.575ZM382.75 313.862C384.174 313.431 385.17 312.856 385.455 312.281C385.597 311.993 385.597 311.706 385.312 311.562C385.17 311.418 385.17 311.418 385.028 311.418C384.601 311.274 383.462 312.712 382.75 313.862Z" fill="#E06FA0"/>
<path d="M382.466 314.294C382.466 314.294 382.324 314.294 382.466 314.294C382.324 314.294 382.181 314.294 382.181 314.15C382.181 314.006 381.185 311.706 381.754 310.556C381.897 310.268 382.039 309.981 382.466 309.981C382.893 309.837 383.178 309.981 383.32 310.124C383.747 310.987 383.035 313.431 382.466 314.294ZM382.466 310.412C382.324 310.556 382.181 310.556 382.181 310.843C381.897 311.562 382.324 313 382.466 313.719C382.893 312.712 383.32 310.987 382.893 310.412C382.751 310.412 382.751 310.268 382.466 310.412Z" fill="#E06FA0"/>
<path d="M341.898 319.326C341.756 319.326 341.756 319.182 341.756 319.182C341.756 319.038 341.756 319.038 341.898 319.038C342.325 318.895 345.741 317.026 346.738 317.601C346.88 317.744 347.023 317.888 347.023 318.176C347.023 318.607 346.88 318.895 346.596 319.182C345.742 319.901 343.322 319.613 341.898 319.326ZM346.453 317.888C345.742 317.601 343.891 318.463 342.61 319.038C344.46 319.326 345.884 319.182 346.453 318.751C346.596 318.607 346.738 318.32 346.738 318.032C346.596 318.032 346.596 317.888 346.453 317.888Z" fill="#E06FA0"/>
<path d="M341.898 319.326C341.898 319.326 341.756 319.326 341.898 319.326C341.756 319.326 341.756 319.182 341.756 319.182C341.756 319.038 341.898 316.738 343.037 315.875C343.322 315.588 343.749 315.444 344.176 315.444C344.745 315.444 344.887 315.732 344.887 316.019C345.03 317.026 343.037 318.895 342.041 319.326C341.898 319.326 341.898 319.326 341.898 319.326ZM344.318 315.875H344.176C343.891 315.875 343.606 315.875 343.322 316.163C342.61 316.738 342.325 318.176 342.183 318.895C343.179 318.176 344.603 316.738 344.46 316.163C344.46 316.019 344.46 315.875 344.318 315.875Z" fill="#E06FA0"/>
<path d="M315.992 62.1114C313.145 67.2873 310.298 72.607 307.736 78.0705C305.174 83.3902 302.754 88.8536 301.046 94.3171C300.903 95.036 300.619 95.6111 300.476 96.33C300.334 96.6175 300.334 97.0488 300.192 97.1926C300.192 97.3364 300.049 97.4802 300.049 97.7677C299.907 98.4866 299.907 99.493 300.192 100.499C300.619 102.656 301.615 105.1 302.896 107.544C305.601 112.433 309.302 117.177 313.145 121.634L309.017 126.667C303.608 122.928 298.768 118.759 294.498 113.152C292.505 110.42 290.512 107.257 289.231 103.375C288.662 101.362 288.235 99.2055 288.377 96.9051C288.377 96.33 288.52 95.7549 288.52 95.036C288.662 94.4609 288.662 94.1733 288.804 93.742C288.947 92.8793 289.089 92.0167 289.374 91.154C290.939 84.5404 293.217 78.5018 295.779 72.607C298.341 66.7122 301.188 61.1049 304.604 55.4977L315.992 62.1114Z" fill="#B55B52"/>
<path d="M307.166 50.4655C299.195 52.6221 291.509 75.1949 291.509 75.1949L310.583 80.5146C310.583 80.5146 314.853 75.1949 318.554 65.1306C322.539 54.0598 316.703 47.7337 307.166 50.4655Z" fill="#E2E2E2"/>
<g opacity="0.2">
<path opacity="0.2" d="M307.166 50.4655C299.195 52.6221 291.509 75.1949 291.509 75.1949L310.583 80.5146C310.583 80.5146 314.853 75.1949 318.554 65.1306C322.539 54.0598 316.703 47.7337 307.166 50.4655Z" fill="#E2E2E2"/>
</g>
<path d="M309.729 120.053L318.412 122.353L314.995 130.692C314.995 130.692 307.167 128.967 307.167 124.654L309.729 120.053Z" fill="#B55B52"/>
<path d="M321.828 127.961L319.123 134.574L314.995 130.692L318.411 122.353L321.828 127.961Z" fill="#B55B52"/>
<ellipse cx="344.539" cy="68.0625" rx="2.60356" ry="3.49039" fill="#FF80BB"/>
</g>
<defs>
<linearGradient id="paint0_linear" x1="24.2998" y1="258.288" x2="212.625" y2="258.288" gradientUnits="userSpaceOnUse">
<stop stop-color="#DD5893"/>
<stop offset="1" stop-color="#EA7AAB" stop-opacity="0"/>
</linearGradient>
<linearGradient id="paint1_linear" x1="466.039" y1="186.736" x2="248.195" y2="202.273" gradientUnits="userSpaceOnUse">
<stop stop-color="#D86698"/>
<stop offset="1" stop-color="#F080B1"/>
</linearGradient>
<linearGradient id="paint2_linear" x1="17.3569" y1="222.512" x2="251.684" y2="211.291" gradientUnits="userSpaceOnUse">
<stop stop-color="#DB5590"/>
<stop offset="1" stop-color="#ED83B2"/>
</linearGradient>
<clipPath id="clip0">
<rect width="486" height="363" fill="white"/>
</clipPath>
</defs>
</svg>
