<svg width="348" height="170" viewBox="0 0 348 170" fill="none" xmlns="http://www.w3.org/2000/svg">
<path d="M276.311 69.2076C276.311 69.2076 276.972 67.0809 281.084 66.2743C285.197 65.4676 293.422 65.3209 295.038 74.5611C296.654 83.8012 295.626 100.888 295.626 105.435C295.626 109.982 295.332 130.442 295.919 133.449C296.507 136.455 297.021 137.189 297.021 137.189C297.021 137.189 295.258 138.729 292.321 139.022C289.383 139.316 289.824 139.022 289.824 139.022L268.159 107.928L269.334 79.9145L276.311 69.2076Z" fill="white"/>
<path d="M260.667 83.2879L268.379 100.522L268.966 89.3747C268.966 89.3747 275.649 105.508 277.118 109.615C278.587 113.722 281.304 115.482 285.784 114.235C290.191 112.915 288.134 107.708 286.886 104.555C285.711 101.402 283.067 95.9748 283.067 95.0948C283.067 94.2147 282.994 92.8214 282.994 92.8214C282.994 92.8214 286.298 91.868 287.033 89.448C287.767 87.028 286.812 84.1679 286.812 84.1679C286.812 84.1679 289.383 84.5346 289.163 81.5279C288.942 78.4478 286.445 80.3545 286.445 80.3545C286.445 80.3545 285.784 70.8943 281.598 69.501C277.412 68.1076 276.09 69.501 276.09 69.501L261.108 83.3612" fill="#F176AD"/>
<path d="M277.706 79.7679C276.971 80.0612 276.531 81.9679 278.954 81.7479C281.378 81.5279 279.909 78.5945 277.486 79.7679" fill="#F497C0"/>
<path d="M278.44 74.6344C276.824 74.9277 276.31 75.9544 277.632 75.7344C278.954 75.5144 279.762 75.5144 280.643 75.7344C281.598 76.0277 281.304 74.121 278.44 74.6344Z" fill="#2F2945"/>
<path d="M276.457 78.2277C276.457 78.2277 277.265 77.1277 280.203 77.9344" stroke="#2F2945" stroke-miterlimit="10" stroke-linecap="round" stroke-linejoin="round"/>
<path d="M287.914 107.048C287.914 107.048 290.338 109.908 290.631 118.342C290.925 126.775 290.411 139.902 290.411 139.902L260.007 138.582C260.007 138.582 259.86 126.775 263.091 118.342C266.322 109.908 267.277 109.542 269.04 107.122C270.802 104.702 271.904 104.775 271.904 103.968C271.904 103.162 272.051 102.868 273.079 102.795C274.107 102.722 274.474 102.428 274.474 102.428C274.474 102.428 277.265 111.082 278.22 112.182C279.175 113.282 282.112 115.482 285.784 114.382C289.383 113.135 287.914 107.048 287.914 107.048Z" fill="#474B9F"/>
<path d="M236.946 78.8877C236.799 79.0344 232.172 76.101 230.41 70.0876C228.647 64.0742 228.72 54.3207 234.889 47.1339C241.059 39.9471 253.25 38.2604 261.842 42.0738C270.435 45.8872 272.344 49.0406 274.18 52.854C276.016 56.6674 277.852 61.2874 276.677 68.3276C275.502 75.3677 267.057 83.0678 261.916 84.1678C256.775 85.1945 252.589 84.7545 252.589 84.7545L236.946 78.8877Z" fill="#2C2C3D"/>
<path d="M251.707 85.9279C251.707 85.9279 252.956 86.1479 254.645 84.0212C256.334 81.8945 257.142 77.7144 257.142 77.7144C257.142 77.7144 257.876 77.8611 258.464 77.7144C259.051 77.5677 253.47 61.1408 253.47 61.1408C253.47 61.1408 251.634 58.5741 247.154 58.6474C242.674 58.7208 240.618 62.0941 240.618 62.0941C240.618 62.0941 238.047 68.9143 243.408 76.4677C248.77 84.0212 251.707 85.9279 251.707 85.9279Z" fill="#5358A7"/>
<path d="M244.951 68.1808C244.951 68.1808 245.906 67.8142 246.713 68.3275" stroke="#F8D1E3" stroke-miterlimit="10" stroke-linecap="round" stroke-linejoin="round"/>
<path d="M252.589 75.2943C255.833 75.2943 258.464 72.6677 258.464 69.4276C258.464 66.1874 255.833 63.5608 252.589 63.5608C249.344 63.5608 246.713 66.1874 246.713 69.4276C246.713 72.6677 249.344 75.2943 252.589 75.2943Z" fill="#F8D1E3"/>
<path d="M239.076 73.461C242.32 73.461 244.951 70.8343 244.951 67.5942C244.951 64.3541 242.32 61.7274 239.076 61.7274C235.831 61.7274 233.2 64.3541 233.2 67.5942C233.2 70.8343 235.831 73.461 239.076 73.461Z" fill="#F8D1E3"/>
<path d="M251.854 68.3275C250.899 68.9141 250.753 68.8408 250.826 69.2075C250.899 69.5741 251.781 68.8408 253.176 69.2075C254.571 69.5741 254.645 70.0141 255.159 69.5008C255.747 68.9875 252.882 67.7408 251.854 68.3275Z" fill="#2E2939"/>
<path d="M252.588 72.6543C253.156 72.6543 253.617 72.1947 253.617 71.6276C253.617 71.0606 253.156 70.601 252.588 70.601C252.021 70.601 251.56 71.0606 251.56 71.6276C251.56 72.1947 252.021 72.6543 252.588 72.6543Z" fill="#2E2939"/>
<path d="M250.826 71.2608C250.826 71.2608 252.956 69.7941 255.306 71.8475" stroke="#2E2939" stroke-miterlimit="10" stroke-linecap="round" stroke-linejoin="round"/>
<path d="M232.613 58.6474L241.132 57.6941C241.132 57.6941 239.663 64.0742 242.234 69.501C244.804 75.0011 249.504 83.8745 255.233 90.4747C260.961 97.0748 261.402 100.448 260.888 103.675C260.3 106.902 259.199 109.542 258.317 110.202C257.436 110.862 257.436 110.862 257.436 110.862C257.436 110.862 258.317 111.375 258.978 117.535C259.639 123.695 258.905 134.109 258.684 138.655C258.464 143.276 256.775 173.269 256.775 173.269L232.686 171.583L230.557 126.849L217.998 85.0479L212.857 71.8477L220.422 67.1543C220.422 67.1543 229.088 84.5345 233.494 90.4747C237.827 96.4148 237.019 95.1681 237.019 95.1681C237.019 95.1681 236.212 92.6014 238.709 91.0613C241.206 89.5213 242.527 90.8413 242.527 90.8413C242.527 90.8413 237.533 82.7012 235.11 75.9544C232.613 69.2076 232.099 65.9809 232.613 58.6474Z" fill="#F176AD"/>
<path d="M237.827 113.575C237.827 113.575 240.985 116.582 248.843 116.288C256.701 116.068 258.464 112.695 258.464 112.695C258.464 112.695 259.198 120.835 259.272 122.302C259.272 123.768 259.272 124.062 259.272 124.062C259.272 124.062 254.939 126.555 246.787 126.335C238.562 126.115 238.562 124.868 238.562 124.868L237.827 113.575Z" fill="#5E64AD"/>
<path d="M233.053 59.0874C233.053 59.0874 232.686 58.8674 232.466 54.614C232.246 50.3606 232.025 48.0873 232.466 46.4739C232.907 44.8605 233.935 45.6672 233.788 47.0606C233.641 48.4539 233.861 50.8006 234.963 51.754C236.065 52.7073 236.799 52.7807 236.285 48.8939C235.771 45.0072 235.33 44.6405 236.065 44.4939C236.799 44.3472 237.313 47.5739 237.313 47.5739C237.313 47.5739 236.285 43.5405 238.121 46.3272C239.957 49.1139 240.618 50.7273 240.985 53.734C241.352 56.7407 240.985 57.7674 240.985 57.7674L233.053 59.0874Z" fill="#5358A7"/>
<path d="M75.5963 115.922C75.5963 115.922 75.0088 103.015 73.7603 99.0549C72.5118 95.0949 72.5853 95.0949 72.5853 95.0949C72.5853 95.0949 69.7211 95.1682 67.0772 88.9348C64.5067 82.7013 63.4786 76.7612 63.9192 76.6146C64.3599 76.4679 65.2412 76.9812 66.2693 79.8413C67.2975 82.7013 67.9585 84.9747 68.4726 84.4614C68.9866 83.948 72.218 81.6013 74.715 80.9413C77.212 80.2813 77.4324 81.748 75.9635 82.2613C75.9635 82.2613 72.3649 83.4347 70.9696 84.168C69.5007 84.828 69.4273 85.708 71.9977 84.4614C74.5682 83.2147 76.9183 82.7747 77.9464 83.068C78.9746 83.3613 79.1215 84.0947 76.9917 84.388C74.8619 84.6814 73.6134 84.5347 71.9977 85.488C70.382 86.3681 70.4555 86.7347 72.4384 86.2947C74.4213 85.7814 76.8448 85.9281 78.0933 87.1747C79.3418 88.4214 79.1215 89.3014 77.6527 89.3748C76.1839 89.4481 76.037 87.2481 73.6869 87.1747C71.3368 87.1014 72.3649 88.8614 74.5682 89.3748C76.7714 89.8881 79.8559 90.5481 80.9575 93.7749C82.0591 97.0016 85.2171 111.448 85.2171 111.448L75.5963 115.922Z" fill="#F494BE"/>
<path d="M103.21 102.208C103.21 102.208 102.696 95.0948 103.504 93.6281C104.385 92.1614 107.543 90.1081 109.159 89.0081C110.701 87.908 110.921 86.808 109.526 86.8814C108.131 87.028 107.617 88.348 106.221 89.5947C104.826 90.8414 103.137 89.2281 105.12 87.5414C107.102 85.8547 108.718 85.8547 110.187 86.0747C111.729 86.2947 111.729 85.1947 109.673 84.9747C107.617 84.7547 105.046 85.6347 103.944 85.3413C102.843 85.048 102.99 83.508 105.487 83.4346C108.057 83.3613 112.243 84.4613 112.023 83.948C111.803 83.4346 109.159 83.068 106.588 82.7013C104.018 82.3346 103.577 81.1613 106.441 81.2346C109.306 81.3079 111.362 82.1146 112.537 82.7746C113.712 83.508 113.492 83.6546 114.006 82.2613C114.52 80.8679 115.401 75.9545 115.695 75.2212C115.989 74.4878 116.576 74.1945 116.576 77.4212C116.503 80.6479 116.65 86.7347 115.989 88.0547C115.328 89.3747 114.3 92.0881 113.565 92.8948C112.831 93.7015 112.096 94.3615 112.317 96.0482C112.464 97.8082 111.582 100.888 111.582 100.888L103.21 102.208Z" fill="#F494BE"/>
<path d="M86.9061 126.629V133.229L83.9685 134.402V127.142L86.9061 126.629Z" fill="#F494BE"/>
<path d="M112.757 113.942L113.345 120.542C113.345 120.542 92.4143 129.929 92.194 129.929C92.0471 129.929 88.5219 129.049 87.3469 127.509C86.0984 126.042 106.074 115.042 112.757 113.942Z" fill="#F494BE"/>
<path d="M103.651 145.256L104.826 153.323C104.826 153.323 109.526 153.176 112.39 147.309C115.255 141.442 112.978 135.136 112.978 135.136L103.651 145.256Z" fill="#F494BE"/>
<path d="M103.651 145.256C103.651 145.256 103.577 145.182 104.826 153.323C106.074 161.463 107.102 169.456 106.809 175.616C106.515 181.776 106.515 181.703 106.515 181.703L75.9635 180.163L81.8388 155.816L103.651 145.256Z" fill="#F1F0F0"/>
<path d="M125.536 115.922C125.536 115.922 121.35 93.8482 120.909 84.6814C120.542 75.5146 120.395 72.8745 120.322 72.8012C120.248 72.7279 117.751 68.4011 117.972 64.221C118.192 60.041 119.954 53.0009 120.689 53.0009C121.423 53.0009 120.983 61.6543 121.35 61.9477C121.717 62.241 122.231 61.4343 125.756 61.361C129.281 61.2877 130.603 62.241 130.603 62.5344C130.603 62.8277 128.033 62.681 125.683 62.681C123.333 62.681 122.158 62.9744 123.039 63.0477C123.92 63.1944 128.18 63.2677 129.796 64.0744C131.411 64.8811 131.117 65.6877 130.236 65.6144C129.355 65.5411 127.519 64.4411 125.609 64.5144C123.773 64.5877 122.819 64.7344 123.112 65.1744C123.406 65.6144 126.344 65.1011 127.813 66.3478C129.281 67.5944 130.163 69.8678 129.355 70.4545C128.474 71.0412 127.299 70.2345 126.564 68.1811C125.83 66.0544 123.553 66.2011 123.48 66.7878C123.406 67.3744 123.994 68.3278 125.977 70.1611C127.96 71.9945 128.988 72.6545 129.061 74.4146C129.135 76.1746 129.428 78.0813 129.428 78.0813L131.485 91.5015L135.23 113.575L125.536 115.922Z" fill="#EF5B97"/>
<path d="M128.694 77.2744C128.767 77.0544 130.089 76.0278 132.366 76.1011C134.643 76.1744 136.038 77.4211 136.846 76.6878C137.727 75.9544 139.71 71.701 145.512 71.6277C148.376 71.6277 150.579 73.3877 152.122 75.0744C153.737 76.8344 154.692 78.5945 155.206 78.4478C156.234 78.1545 159.613 75.3678 160.567 75.5878C161.522 75.8078 163.211 77.9345 163.138 79.9145C162.991 81.8945 162.183 82.4812 163.431 82.4812C164.68 82.4812 168.646 81.9679 170.115 85.4879C171.583 89.008 170.188 91.1347 168.793 92.0147C167.397 92.8947 166.296 94.8747 166.296 94.8747L130.824 91.7214L128.694 77.2744Z" fill="#F494BE"/>
<path d="M152.122 75.6611C152.122 75.6611 151.754 71.481 152.489 70.4543C153.223 69.4277 156.748 66.7143 157.556 65.8343C158.364 64.9542 158.364 64.2209 157.556 64.0742C156.748 63.9276 155.5 64.7342 154.765 65.9076C154.031 67.0076 153.737 68.0343 152.783 68.1076C151.828 68.1076 151.461 66.6409 152.415 65.4676C153.37 64.2942 155.279 63.3409 156.895 63.4142C158.511 63.4876 159.245 62.9009 158.07 62.5342C156.895 62.1675 155.353 62.0209 153.664 62.5342C151.975 63.0475 150.579 63.1942 151.093 62.0209C151.607 60.8475 157.703 61.2875 158.364 61.2142C158.952 61.2142 159.319 60.5542 157.336 60.6275C155.353 60.6275 151.534 61.1408 151.24 59.8942C150.873 58.5741 153.37 58.8675 155.647 59.1608C157.923 59.4542 160.494 60.5542 160.567 60.1875C160.714 59.8208 161.228 55.7874 161.449 53.8807C161.669 51.974 162.403 51.0207 162.697 52.9274C162.991 54.8341 163.431 63.7809 163.211 65.1742C162.917 66.6409 162.11 68.6943 161.449 69.941C160.788 71.1877 160.347 71.7744 160.641 73.3144C160.934 74.8544 161.008 76.3211 161.008 76.3211L160.788 80.4278L155.647 80.5745L152.122 75.6611Z" fill="#F05A94"/>
<path d="M54.8124 111.302C54.8124 111.302 64.2128 116.508 65.9754 116.802C67.738 117.022 74.4946 117.535 95.9393 105.068C117.384 92.6013 134.349 87.1012 149.331 89.8146C164.313 92.4547 173.787 98.4681 173.787 98.4681L171.069 109.175L144.41 111.155C144.41 111.155 132.733 108.368 125.463 110.202C118.192 112.035 111.362 115.262 106.001 117.608C100.64 119.955 77.6525 131.982 74.9352 132.862C72.2179 133.742 69.4271 134.182 69.4271 134.182L65.6816 129.929C65.6816 129.929 63.1846 128.902 59.3657 121.128C55.4733 113.355 54.8124 111.302 54.8124 111.302Z" fill="#201B2B"/>
<path d="M172.685 94.8014V97.7348C172.685 97.7348 171.363 100.301 171.069 102.135C170.776 103.968 170.776 103.968 170.776 103.968C170.776 103.968 154.839 102.868 128.914 113.135C102.99 123.402 82.8667 134.402 82.8667 134.402C82.8667 134.402 76.4773 134.769 70.6755 130.515C64.8736 126.262 64.6533 126.262 64.6533 126.262L67.0769 134.402L81.1041 155.816C81.1041 155.816 105.193 144.082 120.909 138.582C136.625 133.082 142.207 129.562 160.347 128.609C178.487 127.655 183.995 134.255 193.248 129.635C202.429 125.015 204.191 105.802 204.191 105.802L172.685 94.8014Z" fill="#2D2C3D"/>
<path d="M197.362 70.0877C197.362 70.0877 199.344 66.5676 200.226 63.9275C201.107 61.2875 210.581 65.6876 210.581 65.6876L209.039 72.801L197.362 70.0877Z" fill="#5E64AD"/>
<path d="M199.638 61.2142C199.638 61.2142 200.373 64.661 202.282 65.981C203.971 67.1543 206.248 67.301 208.304 67.0077C210.434 66.7143 210.654 65.6143 210.654 65.6143L199.638 61.2142Z" fill="#2D2D44"/>
<path d="M201.474 46.0338C201.474 46.0338 203.604 39.8737 204.779 36.867C205.954 33.8603 207.203 29.3869 208.671 29.0202C210.067 28.7269 217.705 27.0402 221.303 29.1669C224.828 31.2936 228.207 34.0069 228.647 35.327C229.014 36.647 228.133 38.0403 227.399 40.2404C226.664 42.4404 223.066 52.1206 222.184 53.5139C221.303 54.9073 220.789 55.1273 220.789 55.1273L218.366 55.714L201.474 46.0338Z" fill="#2D2C3D"/>
<path d="M202.429 64.4408C201.18 63.4875 198.536 61.2874 197.949 57.474C197.361 53.6606 199.711 51.9006 199.197 51.4606C198.683 50.9473 196.994 49.5539 198.83 46.9872C200.666 44.4205 201.547 46.3272 201.915 46.5472C202.282 46.7672 202.943 45.0072 203.457 43.9072C203.971 42.8071 205.22 42.0005 206.835 43.2471C208.524 44.4938 210.067 45.6672 211.609 45.9605C213.151 46.1805 214.62 45.3005 216.309 45.5938C217.998 45.8872 219.761 47.5005 219.761 49.4806C219.761 51.4606 219.467 53.6607 218.806 54.614C218.145 55.5674 218.292 55.8607 219.614 55.4207C220.936 54.9807 222.184 56.154 221.817 57.474C221.45 58.7207 218.659 61.8008 217.484 61.3608C216.309 60.9208 213.371 64.8075 210.948 65.7609C208.671 66.4942 204.779 66.2742 202.429 64.4408Z" fill="#5E64AD"/>
<path d="M202.796 48.1606C201.841 47.794 200.74 47.794 201.621 48.9673C202.502 50.0673 203.898 51.1673 204.706 50.5073C205.66 49.774 203.824 48.5273 202.796 48.1606Z" fill="#5155A5"/>
<path d="M216.236 53.0739C215.134 52.9273 213.665 52.7073 213.225 53.5873C212.784 54.4673 215.281 55.494 216.236 55.274C217.19 55.054 217.411 54.1006 217.411 54.1006L216.236 53.0739Z" fill="#5155A5"/>
<path d="M205.366 43.6138C204.779 43.6871 204.485 43.9071 204.559 44.2738C204.632 44.6405 205.44 44.1271 205.734 44.5671C206.027 45.0805 206.762 44.7138 206.541 44.2005C206.321 43.6871 205.807 43.5404 205.366 43.6138Z" fill="#2A305E"/>
<path d="M218.219 48.3806C217.998 47.8672 217.191 47.7206 216.897 48.1606C216.603 48.6006 217.411 48.6006 217.558 49.1139C217.778 49.7006 219.027 50.1406 218.219 48.3806Z" fill="#2A305E"/>
<path d="M208.01 53.1474C207.276 52.7807 206.321 52.5607 206.321 53.4408C206.321 54.3208 209.406 55.7141 209.92 55.1275C210.434 54.6141 209.406 53.8074 208.01 53.1474Z" fill="#2A305E"/>
<path d="M203.31 56.9608C203.31 56.9608 204.338 58.8675 206.027 59.4542C207.717 60.0409 209.185 59.8209 209.185 59.8209C209.185 59.8209 209.259 60.8476 207.643 60.9942C205.954 61.2142 204.044 60.0409 203.604 59.1609C203.237 58.2808 203.31 56.9608 203.31 56.9608Z" fill="#4A4CA0"/>
<path d="M204.265 56.594L204.044 57.254C204.044 57.254 206.174 58.574 207.202 59.1607C208.231 59.7474 208.818 59.7474 208.818 59.7474L209.332 59.3074L204.265 56.594Z" fill="#F6F7FB"/>
<path d="M203.677 56.4474C203.971 56.3007 205.88 56.0074 207.496 57.0341C209.112 58.0608 209.479 59.2341 209.479 59.3808C209.479 59.5275 207.129 58.4274 205.734 57.6941C204.926 57.2541 204.338 56.8874 204.044 56.6674C203.824 56.5207 203.677 56.4474 203.677 56.4474Z" fill="#2A305E"/>
<path d="M204.706 47.3539C205.111 47.3539 205.44 47.0256 205.44 46.6206C205.44 46.2155 205.111 45.8872 204.706 45.8872C204.3 45.8872 203.971 46.2155 203.971 46.6206C203.971 47.0256 204.3 47.3539 204.706 47.3539Z" fill="#2A305E"/>
<path d="M215.868 52.4141C216.274 52.4141 216.603 52.0858 216.603 51.6807C216.603 51.2757 216.274 50.9474 215.868 50.9474C215.463 50.9474 215.134 51.2757 215.134 51.6807C215.134 52.0858 215.463 52.4141 215.868 52.4141Z" fill="#2A305E"/>
<path d="M172.685 95.4614C172.685 95.4614 175.476 89.9613 178.781 85.4145C182.086 80.7944 183.701 81.0144 182.012 79.3278C180.323 77.6411 175.917 74.7077 174.668 66.5675C173.493 58.4274 175.182 50.6539 175.182 50.6539L188.034 53.1473C188.034 53.1473 186.272 64.6608 190.458 67.9609C194.644 71.2609 195.232 70.3076 196.407 69.7943C197.582 69.2809 198.904 69.2076 202.429 71.1143C205.954 73.021 209.626 72.4343 209.846 73.0943C210.067 73.7543 209.259 74.341 209.038 76.0277C208.818 77.7144 209.773 79.5478 209.92 79.6211C210.067 79.6944 214.693 80.5011 216.015 81.8945C217.337 83.2878 212.196 97.8081 212.196 97.8081C212.196 97.8081 210.214 95.608 209.038 94.8014C207.937 93.9947 207.937 93.848 206.909 97.1481C205.954 100.448 203.898 106.682 203.898 106.682L172.685 95.4614Z" fill="#F05A94"/>
<path d="M176.357 50.874C176.357 50.874 178.634 32.5403 180.764 25.6469C182.967 18.7534 187.227 10.0266 189.871 6.72654C192.514 3.42648 192.735 2.10646 193.469 2.32647C194.204 2.54647 193.543 4.0865 191.927 5.9932C190.385 7.89989 189.724 9.95326 191.413 10.6866C193.102 11.42 196.04 7.82656 198.022 4.89318C200.005 1.95979 201.474 0.346431 201.988 0.933108C202.502 1.44645 201.548 2.47313 200.079 4.45317C198.61 6.4332 197.508 8.3399 197.508 8.3399C197.508 8.3399 200.96 4.45317 202.649 3.35315C204.338 2.25313 204.852 2.98648 204.632 3.57315C204.412 4.15983 203.384 4.45317 202.356 5.11318C201.327 5.77319 200.813 6.28653 200.813 6.28653C200.813 6.28653 203.677 4.59984 204.118 5.25985C204.632 5.91986 202.796 6.87321 202.209 7.16655C201.621 7.45989 203.531 7.01988 203.824 7.60656C204.118 8.1199 200.74 10.0266 198.83 12.3733C196.921 14.72 193.249 17.2134 189.724 30.927C186.198 44.6405 186.859 52.9273 186.859 52.9273L176.357 50.874Z" fill="#5E64AD"/>
<path d="M128.914 148.409L128.18 150.242L126.785 180.163H141.62L158.438 180.676L159.392 150.829L128.914 148.409Z" fill="#F1F0F0"/>
<path d="M129.796 135.136C129.796 135.136 130.75 137.849 130.31 139.169C129.796 140.489 128.4 144.889 128.327 147.676C128.253 150.462 128.327 149.949 128.327 149.949C128.327 149.949 131.044 152.296 140.077 152.369C149.111 152.442 155.794 152.882 157.556 152.369C159.319 151.856 159.392 151.416 159.392 151.416L161.228 127.069L129.796 135.136Z" fill="#484CA0"/>
<path d="M161.375 152.076C161.375 152.149 161.522 158.236 161.522 158.236H168.793V152.076H161.375Z" fill="#FAD2E4"/>
<path d="M174.448 133.669C174.448 132.789 173.199 129.709 168.866 128.682C164.533 127.729 159.466 128.609 157.777 130.369C156.087 132.129 156.234 138.729 156.234 138.729C156.234 138.729 153.884 137.922 153.811 140.416C153.737 142.909 155.941 142.836 155.941 142.836C155.941 142.836 154.839 145.696 157.336 149.216C159.759 152.736 164.092 152.883 167.397 152.809C170.629 152.736 173.273 149.216 173.273 149.216L174.448 133.669Z" fill="#FAD2E4"/>
<path d="M158.291 134.402C157.63 134.696 157.336 135.062 157.63 135.502C157.997 135.942 158.218 135.282 159.393 135.502C160.568 135.722 161.082 135.796 161.082 135.062C161.082 134.329 158.805 134.182 158.291 134.402Z" fill="#352938"/>
<path d="M171.657 134.402C170.776 134.402 169.894 134.915 169.968 135.502C170.115 136.089 170.996 135.282 172.024 135.502C173.052 135.722 173.567 135.722 173.199 134.915C172.906 134.182 171.657 134.402 171.657 134.402Z" fill="#352938"/>
<path d="M157.483 137.556C157.483 137.556 158.217 137.189 159.319 137.409C160.421 137.629 160.714 138.069 160.714 138.069" stroke="#352938" stroke-miterlimit="10" stroke-linecap="round" stroke-linejoin="round"/>
<path d="M170.115 138.142C170.115 138.142 171.657 137.262 173.199 137.776" stroke="#352938" stroke-miterlimit="10" stroke-linecap="round" stroke-linejoin="round"/>
<path d="M159.172 138.802C159.578 138.802 159.906 138.474 159.906 138.069C159.906 137.664 159.578 137.336 159.172 137.336C158.766 137.336 158.438 137.664 158.438 138.069C158.438 138.474 158.766 138.802 159.172 138.802Z" fill="#352938"/>
<path d="M171.804 139.022C172.209 139.022 172.538 138.694 172.538 138.289C172.538 137.884 172.209 137.556 171.804 137.556C171.398 137.556 171.069 137.884 171.069 138.289C171.069 138.694 171.398 139.022 171.804 139.022Z" fill="#352938"/>
<path d="M165.635 137.556C164.827 137.556 164.46 142.762 164.533 143.202C164.68 143.569 166.883 143.422 166.883 143.422C166.883 143.422 167.104 137.556 165.635 137.556Z" fill="#F496BA"/>
<path d="M158.952 139.682C157.63 139.756 156.528 140.049 157.042 140.929C157.556 141.809 159.76 142.249 160.714 141.736C161.669 141.222 161.008 139.682 158.952 139.682Z" fill="#F496BA"/>
<path d="M172.685 139.902C172.685 139.902 171.51 139.682 170.702 140.489C169.894 141.296 171.143 142.102 171.657 142.176C172.245 142.249 172.245 142.249 172.245 142.249L172.685 139.902Z" fill="#F496BA"/>
<path d="M165.488 142.982C164.607 143.056 164.166 143.349 164.754 143.789C165.341 144.229 166.957 144.156 167.104 143.789C167.251 143.349 166.957 142.836 165.488 142.982Z" fill="#EF6DA7"/>
<path d="M163.652 146.722L163.799 147.602C163.799 147.602 164.68 147.896 165.855 147.896C167.03 147.896 167.912 147.529 167.912 147.529L168.058 146.649L163.652 146.722Z" fill="#F6F7FB"/>
<path d="M163.211 146.869C163.358 146.576 164.166 145.696 165.855 145.769C167.544 145.842 168.499 146.722 168.426 146.869C168.426 147.089 166.883 146.942 165.929 147.016C165.194 147.016 163.946 146.942 163.358 146.942C163.285 146.869 163.211 146.869 163.211 146.869Z" fill="#4D4A9F"/>
<path d="M163.652 147.676C163.652 147.676 164.607 148.629 165.855 148.482C167.104 148.409 168.058 147.676 168.058 147.676C168.058 147.676 168.279 148.189 167.838 148.849C167.397 149.509 165.414 149.802 164.386 149.289C163.432 148.849 163.652 147.676 163.652 147.676Z" fill="#F494BE"/>
<path d="M21.3966 127.875C21.3966 127.875 20.0747 125.822 20.295 119.662C20.5154 113.502 21.4701 111.009 22.8655 111.009C24.2608 111.009 24.8484 112.915 26.9047 112.549C28.9611 112.182 29.2548 109.982 31.6784 110.202C34.1019 110.348 33.441 112.842 36.2317 112.549C39.0959 112.255 40.1975 111.155 41.5195 113.722C42.8414 116.289 42.4008 125.089 41.5195 127.582C40.6382 130.075 39.4631 130.222 39.4631 130.222L21.3966 127.875Z" fill="white"/>
<path d="M10.0134 133.962C10.0134 133.962 8.98521 103.748 8.47112 103.382C7.95703 103.015 4.57875 101.182 2.8896 96.3416C1.20046 91.5015 0.245728 86.5147 0.245728 85.488C0.245728 84.4614 0.833256 84.5347 1.86143 87.0281C2.8896 89.5214 4.35842 92.9682 4.65219 92.9682C4.94595 93.0415 6.48821 91.1348 9.71962 89.8881C12.951 88.6414 13.8323 89.3748 13.3182 89.8881C13.3182 89.8881 10.2337 91.3548 8.2508 92.1615C6.26789 92.8948 5.97413 93.9215 7.07574 93.3348C8.17736 92.7482 11.4088 91.2081 13.0979 91.3548C14.787 91.4281 15.448 92.2348 14.273 92.7482C13.0979 93.2615 10.1603 92.8215 8.32424 94.1415C6.48821 95.4615 8.39768 95.0215 10.1603 94.6549C11.9228 94.2882 13.612 94.6549 14.6402 95.6082C15.6683 96.5616 15.5949 97.5882 14.4933 97.8082C13.4651 97.9549 11.8494 95.4615 10.3806 95.5349C8.91177 95.6815 7.22262 96.1949 9.35241 97.0749C11.4822 98.0282 16.109 99.4216 16.6965 101.108C17.284 102.795 19.5607 123.035 19.8545 125.969C20.1482 128.829 21.0295 134.769 21.0295 134.769L10.0134 133.962Z" fill="#FAD2E4"/>
<path d="M36.5256 139.022C36.5256 139.022 36.4521 147.016 36.5256 148.482C36.599 150.022 36.2318 151.122 32.927 150.976C29.5487 150.829 24.4812 150.829 23.6734 149.729C22.8655 148.629 24.0406 148.042 24.3344 146.356C24.5547 144.962 24.7016 140.416 24.7016 139.096C24.7016 138.876 24.7016 138.729 24.7016 138.729L36.5256 139.022Z" fill="#FAD2E4"/>
<path d="M24.9955 139.022L36.3054 139.609C36.3054 139.609 36.0116 141.736 33.2209 142.762C30.5036 143.862 28.1534 143.349 27.1253 142.322C26.0971 141.369 25.4361 140.636 24.9955 139.022Z" fill="#302D3C"/>
<path d="M10.0134 133.962C10.0134 133.962 9.57274 147.309 11.1884 151.636C12.8041 155.963 15.0074 158.749 15.8152 159.336C16.6231 159.923 17.4309 162.489 16.5496 164.836C15.6683 167.183 13.612 176.13 13.4651 178.843C13.3182 181.556 13.4651 181.263 13.4651 181.263L46.2932 180.53L42.1805 137.996L39.1695 137.409C39.1695 137.409 36.5256 148.849 35.6443 149.949C34.763 151.049 28.0799 150.463 26.4642 150.023C24.8485 149.656 23.8203 148.923 23.8203 148.116C23.8203 147.309 24.4813 139.096 24.4813 139.096L21.1764 134.769L10.0134 133.962Z" fill="#585CA9"/>
<path d="M25.9501 117.755C24.6281 117.902 22.7187 118.855 21.8374 123.329C20.9561 127.729 19.9279 136.162 23.3062 139.022C26.6845 141.956 32.8535 143.056 37.0397 139.242C41.2258 135.429 40.3445 129.562 40.2711 125.895C40.1976 122.229 40.932 119.882 38.0678 120.029C35.2771 120.175 31.6785 120.322 29.8424 118.782C28.1533 117.242 27.933 117.535 25.9501 117.755Z" fill="#FAD2E4"/>
<path d="M30.7236 125.309C30.2829 125.675 29.7689 129.562 29.5485 130.515C29.3282 131.469 29.8423 131.249 30.5767 131.395C31.3111 131.469 32.0455 132.129 31.9721 130.295C31.9721 128.389 32.1924 124.135 30.7236 125.309Z" fill="#F494BE"/>
<path d="M24.2608 127.582C23.1591 127.582 21.1028 127.362 22.8654 128.975C24.628 130.589 26.464 129.709 26.464 128.682C26.3905 127.729 25.142 127.582 24.2608 127.582Z" fill="#F494BE"/>
<path d="M37.1863 127.875C35.791 127.875 35.13 128.242 35.3503 129.415C35.5706 130.515 37.627 130.222 38.7286 129.635C39.8302 129.049 40.0505 127.875 37.1863 127.875Z" fill="#F494BE"/>
<path d="M23.6732 122.302C23.0123 122.815 22.7185 123.842 23.8936 123.475C25.0686 123.109 25.6561 123.035 25.6561 122.302C25.7296 121.569 24.0404 122.009 23.6732 122.302Z" fill="#402B3D"/>
<path d="M37.6271 122.742C36.6723 122.742 36.1582 123.109 36.9661 123.549C37.8474 124.062 38.288 124.429 38.8021 124.062C39.3162 123.695 38.5083 122.742 37.6271 122.742Z" fill="#402B3D"/>
<path d="M25.6561 126.482C25.5826 126.482 25.5826 126.482 25.5092 126.409C24.5545 125.822 23.8935 126.335 23.8935 126.409C23.7466 126.555 23.5997 126.482 23.4528 126.409C23.306 126.262 23.3794 126.115 23.4528 125.969C23.5263 125.969 24.481 125.089 25.803 125.969C25.9498 126.042 26.0233 126.262 25.8764 126.409C25.8764 126.409 25.803 126.482 25.6561 126.482Z" fill="#402B3D"/>
<path d="M38.2145 126.702C38.1411 126.702 38.0677 126.702 37.9942 126.629C37.4067 126.042 36.7457 126.409 36.7457 126.482C36.5988 126.555 36.3785 126.555 36.3051 126.409C36.2316 126.262 36.2316 126.042 36.3785 125.969C36.7457 125.675 37.627 125.382 38.4349 126.189C38.5817 126.335 38.5817 126.482 38.4349 126.629C38.3614 126.629 38.288 126.702 38.2145 126.702Z" fill="#402B3D"/>
<path d="M30.797 131.029C29.9892 130.809 28.3735 131.542 29.9892 131.762C31.6049 131.982 33.3675 131.542 30.797 131.029Z" fill="#F177AE"/>
<path d="M28.8875 134.402V134.989C28.8875 134.989 29.2547 135.576 30.4297 135.649C31.6048 135.722 32.3392 135.429 32.3392 135.429L32.1189 134.696L28.8875 134.402Z" fill="#FFFEFE"/>
<path d="M28.6671 134.329C28.6671 134.329 29.2547 133.669 30.7235 133.816C32.1923 133.962 32.7798 134.769 32.7064 134.916C32.633 135.062 32.1923 135.062 30.7235 134.842C29.1812 134.622 28.4468 134.549 28.6671 134.329Z" fill="#EE3E75"/>
<path d="M28.8143 135.282C29.1081 135.502 29.5487 136.016 30.5034 136.089C31.4582 136.162 32.0457 135.722 32.4129 135.796C32.7801 135.869 31.9723 137.262 30.3565 136.969C28.7408 136.676 28.3736 134.916 28.8143 135.282Z" fill="#F497BC"/>
<path d="M21.7639 126.702C21.7639 126.702 20.5889 124.795 20.1482 127.949C19.7076 131.102 21.7639 129.122 21.7639 129.122V126.702Z" fill="#FAD2E4"/>
<path d="M40.3445 130.222C40.3445 130.222 41.5195 132.129 41.9602 128.975C42.4008 125.822 40.3445 127.802 40.3445 127.802V130.222Z" fill="#FAD2E4"/>
<path d="M51.4341 141.736C51.4341 141.736 52.6826 141.516 55.0327 138.656C57.3828 135.796 58.6313 133.082 63.4784 133.302C68.3255 133.522 72.6585 134.842 73.9805 136.749C75.3024 138.656 76.1103 139.389 76.1103 139.389L68.3255 171.95L61.4955 177.67L55.3265 175.25C55.3265 175.25 52.3888 168.943 52.3154 168.649C52.1685 168.283 51.4341 141.736 51.4341 141.736Z" fill="#292331"/>
<path d="M58.1171 161.903C58.1171 161.903 58.1171 161.976 58.1171 162.049C58.1906 162.929 58.5578 167.476 57.8968 168.576C57.1624 169.823 56.7217 170.63 55.9873 170.996C55.2529 171.363 55.2529 171.363 55.2529 171.363C55.2529 171.363 57.4562 175.176 60.6876 175.176C63.919 175.176 66.3425 172.243 66.3425 172.243L66.7097 171.143C66.7097 171.143 65.3143 171.216 65.3878 166.669C65.5347 162.123 65.6081 161.609 65.6081 161.609L58.1171 161.903Z" fill="#FAD2E4"/>
<path d="M58.3375 162.196C58.3375 162.196 58.7782 164.323 61.4955 164.323C64.2128 164.323 65.1675 162.856 65.1675 162.856L58.3375 162.196Z" fill="#292331"/>
<path d="M57.8968 139.682C56.428 140.416 54.5185 141.956 54.1513 144.889C53.7841 147.749 53.4169 158.309 53.931 159.409C54.4451 160.509 58.3374 162.563 61.7892 163.076C65.2409 163.589 69.427 161.316 69.8677 159.629C70.3818 158.016 71.7037 151.269 71.7771 147.749C71.8506 144.156 72.0709 141.956 69.9411 140.636C67.7379 139.316 59.4391 138.876 57.7499 139.609" fill="#FAD2E4"/>
<path d="M57.3827 86.7347C58.1171 86.6614 58.4844 93.7748 58.1906 98.0282C57.8968 102.282 57.1624 103.528 55.9874 105.435C54.8857 107.342 54.592 108.955 54.0044 113.575C53.3435 118.195 51.1403 128.242 51.1403 133.155C51.1403 138.069 51.8012 147.456 52.2419 152.296C52.6825 157.136 53.1966 159.703 53.1966 159.703L43.7962 158.529L39.4631 138.142C39.4631 138.142 44.6774 112.402 45.9994 108.368C47.3213 104.335 49.3777 103.162 51.2871 101.695C53.1966 100.228 53.0497 99.4216 51.9481 99.4216C50.8465 99.3482 49.2308 101.255 48.6433 102.282C48.0557 103.308 46.0728 103.455 46.3666 101.622C46.5869 99.7882 48.3495 98.7616 50.4058 98.5416C52.4622 98.3949 54.3717 98.3216 53.4169 97.6615C52.3888 97.0015 49.7449 97.2949 47.6885 97.7349C45.6322 98.1016 44.9712 96.8549 46.6604 96.2682C48.4229 95.6815 52.2419 95.9015 53.1232 96.2682C54.0779 96.6349 54.3717 95.7548 52.0215 95.4615C49.6714 95.1682 46.6604 95.9015 46.2931 94.6548C45.9259 93.4081 49.8918 93.7748 51.7278 94.2148C53.5638 94.5815 54.8857 95.6815 55.3264 95.3882C55.6936 95.0948 56.0608 91.1348 56.428 88.8614C56.8687 86.6614 56.9421 86.7347 57.3827 86.7347Z" fill="#FAD2E4"/>
<path d="M70.7489 161.169C70.7489 161.169 74.7882 143.496 75.5226 136.089C76.257 128.755 76.0367 126.849 77.8727 125.822C79.7087 124.795 82.3526 122.815 82.3526 121.935C82.3526 121.055 80.59 120.835 79.7087 121.935C78.8274 123.035 78.4602 125.089 76.8445 125.015C75.2288 124.942 75.8163 122.155 77.5789 121.202C79.3415 120.249 81.3244 120.102 82.3526 120.249C83.3808 120.395 83.6745 119.589 82.1323 119.515C80.59 119.442 77.9461 119.589 76.6242 119.955C75.3022 120.322 74.2741 119.662 75.5226 118.782C76.7711 117.902 80.2962 118.122 81.6182 118.195C82.9401 118.342 84.262 117.829 82.4995 117.609C80.7369 117.462 76.9914 117.755 76.257 117.389C75.5226 117.095 75.5226 115.849 77.5789 115.775C79.6353 115.702 82.1323 115.995 83.3807 116.582C84.6292 117.169 84.923 117.535 84.9965 115.775C85.0699 114.015 85.1433 108.515 86.0246 108.295C86.9059 108.075 87.42 110.275 87.42 116.655C87.4934 123.035 86.6856 125.529 85.5105 127.215C84.3355 128.902 84.3355 136.456 84.1886 139.022C84.0417 141.589 81.9119 155.303 81.765 157.943C81.6182 160.583 81.4713 161.903 81.4713 161.903L70.7489 161.169Z" fill="#F2CBE0"/>
<path d="M43.796 158.529L53.123 159.629C53.123 159.629 53.4902 165.496 53.784 167.916C54.0778 170.336 54.5184 170.923 54.5184 170.923L55.3263 170.703C55.3263 170.703 56.5013 174.736 61.0547 174.736C65.608 174.736 66.5627 170.85 66.5627 170.85L67.8847 171.29L70.7489 161.169L81.3978 161.903C81.3978 161.903 80.2962 171.583 78.6071 175.543C76.9914 179.503 76.1835 180.383 76.1835 180.383L46.2196 180.09L43.796 158.529Z" fill="#E85188"/>
<path d="M57.4561 139.756C57.9702 139.902 58.1171 140.269 57.1624 141.076C56.2076 141.809 55.106 143.129 56.6483 143.716C58.1905 144.229 58.0437 143.496 58.4843 142.322C58.925 141.149 60.0266 140.856 60.0266 141.369C60.1 141.882 58.925 142.249 59.2922 143.569C59.6594 144.889 60.9813 145.549 62.0829 144.816C63.1111 144.082 62.8173 142.616 63.6252 142.762C64.433 142.909 63.6986 145.916 66.0487 145.402C68.3988 144.889 67.8848 143.276 67.5175 142.616C67.1503 142.029 67.6644 141.442 68.252 142.176C68.8395 142.909 68.252 144.009 69.5005 144.742C70.749 145.476 71.7771 144.376 71.1162 143.056C70.4552 141.736 69.2067 141.002 69.427 140.636C69.5739 140.269 70.749 140.562 70.749 140.562C70.749 140.562 67.2972 136.749 67.1503 136.676C67.0035 136.602 56.942 138.876 56.942 138.876L57.4561 139.756Z" fill="#292331"/>
<path d="M55.8404 149.362C54.6653 149.436 53.6371 149.729 54.8856 150.756C56.1341 151.782 57.7498 151.856 58.2639 150.902C58.778 149.949 57.0889 149.216 55.8404 149.362Z" fill="#F495BE"/>
<path d="M67.8114 150.316C66.4895 150.463 65.8285 150.976 66.0488 151.929C66.2692 152.883 68.8396 152.516 69.574 151.929C70.3084 151.269 69.7943 150.096 67.8114 150.316Z" fill="#F495BE"/>
<path d="M62.6704 147.749C62.2298 147.749 61.7157 150.169 61.275 151.562C60.8344 152.956 60.4672 153.909 62.0095 153.982C63.5517 154.056 63.4048 153.469 63.4048 150.829C63.4048 148.189 63.4783 147.822 62.6704 147.749Z" fill="#F495BE"/>
<path d="M62.8174 153.103C61.8627 152.736 60.3204 153.323 61.0548 153.763C61.8627 154.203 64.8737 153.836 62.8174 153.103Z" fill="#E65B95"/>
<path d="M54.8124 147.749C54.8124 147.749 55.3265 147.089 56.5015 147.382C57.6766 147.676 58.0438 147.749 58.0438 147.749" stroke="#303142" stroke-miterlimit="10" stroke-linecap="round" stroke-linejoin="round"/>
<path d="M67.077 148.776C67.077 148.776 67.9583 147.969 69.1334 148.116C70.3084 148.262 70.4553 148.556 70.4553 148.556" stroke="#303142" stroke-miterlimit="10" stroke-linecap="round" stroke-linejoin="round"/>
<path d="M56.7216 148.776C57.1272 148.776 57.456 148.447 57.456 148.042C57.456 147.637 57.1272 147.309 56.7216 147.309C56.316 147.309 55.9872 147.637 55.9872 148.042C55.9872 148.447 56.316 148.776 56.7216 148.776Z" fill="#303142"/>
<path d="M68.6927 149.509C69.0983 149.509 69.4271 149.181 69.4271 148.776C69.4271 148.371 69.0983 148.042 68.6927 148.042C68.2871 148.042 67.9583 148.371 67.9583 148.776C67.9583 149.181 68.2871 149.509 68.6927 149.509Z" fill="#303142"/>
<path d="M55.4731 144.889C56.1341 144.596 57.3091 144.229 58.117 144.742C58.9248 145.256 58.9983 145.989 58.117 145.769C57.2357 145.549 56.5747 145.402 56.0606 145.549C55.4731 145.696 54.8856 145.182 55.4731 144.889Z" fill="#303142"/>
<path d="M68.6925 146.209C68.0316 146.136 67.2972 146.502 66.93 146.062C66.5628 145.549 67.8112 145.182 68.9129 145.329C70.0145 145.402 70.9692 145.696 70.4551 146.282C70.0145 146.796 69.6473 146.282 68.6925 146.209Z" fill="#303142"/>
<path d="M59.439 156.256C59.8062 155.963 60.6141 155.523 61.2016 155.963C61.8626 156.329 61.5688 156.549 62.0094 156.623C62.4501 156.696 62.4501 156.183 63.3314 156.329C64.2127 156.476 64.8002 156.843 64.8002 157.063C64.8002 157.283 63.772 157.283 63.2579 157.649C62.7439 157.943 61.4219 158.016 60.6141 157.283C59.8796 156.549 59.1452 156.476 59.439 156.256Z" fill="#4C459C"/>
<path d="M59.3654 156.843C59.1451 156.916 59.2919 158.823 60.467 159.556C61.6421 160.289 63.3312 159.923 63.9187 159.116C64.5063 158.236 64.6532 157.429 64.5063 157.503C64.3594 157.576 64.1391 157.429 63.6984 157.943C63.2578 158.456 62.3765 158.676 61.4217 158.456C60.5405 158.163 59.9529 156.623 59.3654 156.843Z" fill="#E65B95"/>
<path d="M169.747 162.636C169.747 162.636 170.482 162.416 170.776 157.576C171.069 152.736 171.877 143.496 172.979 138.802C174.08 134.109 174.888 129.562 174.888 129.562L184.583 131.322C184.583 131.322 183.187 145.256 182.746 151.342C182.306 157.429 182.306 163.369 179.882 166.376C177.459 169.383 175.476 170.263 175.476 170.263L169.747 162.636Z" fill="#FAD2E4"/>
<path d="M149.845 129.635L157.042 163.589L152.856 170.996C152.856 170.996 147.201 168.209 146.1 162.856C144.998 157.576 140.224 131.762 140.224 131.762C140.224 131.762 148.156 129.342 149.845 129.635Z" fill="#FAD2E4"/>
<path d="M161.081 157.869C160.934 158.822 161.522 159.703 160.053 160.436C158.584 161.169 158.144 161.683 156.528 164.469C154.912 167.329 152.048 171.949 150.946 175.543C149.845 179.136 149.698 180.163 149.698 180.163H177.752C177.752 180.163 177.532 174.516 175.549 170.116C173.566 165.716 170.261 162.783 170.261 162.123C170.261 161.463 170.115 160.509 169.747 160.363C169.307 160.216 170.188 158.456 169.233 158.162C168.205 157.942 161.155 157.062 161.081 157.869Z" fill="#EE6EAA"/>
<path d="M142.574 168.356L141.766 179.87" stroke="#484A9E" stroke-miterlimit="10" stroke-linecap="round" stroke-linejoin="round"/>
<path d="M161.449 152.222C161.449 152.222 163.358 152.882 165.635 152.809C167.911 152.736 168.94 152.516 168.94 152.516C168.94 152.516 168.058 153.542 165.194 153.689C162.256 153.836 161.449 152.222 161.449 152.222Z" fill="#292331"/>
<path d="M229.308 83.1412C229.455 83.1412 232.466 82.3345 232.026 80.5745C231.658 78.8144 228.354 79.5478 228.354 79.5478L227.839 77.0544C227.839 77.0544 231.732 73.5343 231.071 70.9676C230.41 68.4009 225.489 70.601 225.489 70.601L221.156 66.0542C221.156 66.0542 220.128 63.9275 216.97 66.0542C213.812 68.1809 213.886 70.3076 215.575 72.5076C217.337 74.7077 218.439 76.7611 218.512 77.3477C218.586 77.9344 221.523 79.1811 221.523 79.1811L223.947 78.6678L229.308 83.1412Z" fill="#2E2D40"/>
<path d="M221.23 57.2542C221.23 57.2542 225.269 60.5542 225.93 63.0476C226.591 65.541 226.371 68.181 227.252 72.7277C228.133 77.2745 232.686 96.4148 235.33 103.382C237.974 110.348 239.296 114.088 238.195 118.929C237.093 123.769 231.805 127.509 231.805 127.509L227.546 111.008C227.546 111.008 226.003 114.748 221.523 115.628C217.044 116.509 214.473 114.895 213.078 113.428C211.682 111.888 210.36 110.202 210.36 110.202L211.389 96.0482C211.389 96.0482 213.959 81.5279 216.309 78.9612C218.659 76.3945 218.586 77.4212 218.586 77.4212C218.586 77.4212 218.659 78.2278 220.055 78.2278C221.45 78.2278 220.936 77.8612 220.936 77.8612C220.936 77.8612 219.834 73.7544 220.128 71.2611C220.422 68.7677 222.038 64.5143 220.862 64.1476C219.687 63.7809 218.659 65.1743 219.026 67.521C219.394 69.8677 219.026 70.381 218.219 70.6744C217.411 70.8944 216.603 69.501 216.823 67.8143C217.044 66.1276 218.145 64.5143 219.173 63.8543C220.202 63.1943 220.495 62.0209 219.026 62.9742C217.484 63.9276 215.428 66.7143 214.547 67.081C213.665 67.4477 213.225 67.0077 214.253 65.6876C215.281 64.4409 219.173 61.1409 219.173 61.1409C219.173 61.1409 217.558 61.4342 215.061 63.7809C212.564 66.1276 211.462 64.1476 211.462 64.1476L221.23 57.2542Z" fill="#FAD2E4"/>
<path d="M221.964 88.5678C222.37 88.5678 222.698 88.2394 222.698 87.8344C222.698 87.4294 222.37 87.1011 221.964 87.1011C221.558 87.1011 221.23 87.4294 221.23 87.8344C221.23 88.2394 221.558 88.5678 221.964 88.5678Z" fill="#2E2D40"/>
<path d="M215.501 88.2744C215.907 88.2744 216.236 87.9461 216.236 87.5411C216.236 87.1361 215.907 86.8077 215.501 86.8077C215.096 86.8077 214.767 87.1361 214.767 87.5411C214.767 87.9461 215.096 88.2744 215.501 88.2744Z" fill="#2E2D40"/>
<path d="M212.857 93.0413C212.857 93.0413 216.603 89.0079 217.998 89.0079C219.394 89.0079 220.863 90.108 220.202 91.2813C219.541 92.4547 214.987 93.408 212.857 93.0413Z" fill="#2E2D40"/>
<path d="M214.767 94.508C214.767 94.508 215.942 94.068 217.631 93.1146C219.32 92.1613 219.981 92.2346 220.348 92.528C220.642 92.8213 219.834 94.1413 217.558 94.508C215.281 94.8747 214.767 94.508 214.767 94.508Z" fill="#2E2D40"/>
<path d="M221.891 89.4479C221.156 89.7412 221.45 90.4746 221.891 91.0612C222.331 91.6479 223.066 91.2812 223.066 90.5479C223.066 89.8146 222.552 89.1545 221.891 89.4479Z" fill="#F49ABE"/>
<path d="M221.009 84.9745C221.009 84.9745 221.523 84.5345 221.964 84.9745" stroke="#303142" stroke-miterlimit="10" stroke-linecap="round" stroke-linejoin="round"/>
<path d="M215.501 84.4611C215.501 84.4611 215.942 83.7277 216.456 84.4611" stroke="#303142" stroke-miterlimit="10" stroke-linecap="round" stroke-linejoin="round"/>
<path d="M216.456 96.268C215.428 96.1947 214.547 97.5881 214.033 98.3947C213.518 99.2014 214.179 99.9348 214.767 99.4214C215.354 98.8347 215.648 98.7614 215.648 99.7881C215.648 100.815 216.603 101.108 216.97 100.595C217.337 100.081 216.75 99.3481 217.264 99.2014C217.778 99.0548 217.778 100.228 218.512 99.7881C219.247 99.2747 218.145 96.4147 216.456 96.268Z" fill="#2F2D3E"/>
<path d="M210.287 110.202C210.287 110.202 214.253 116.288 218.145 115.922C222.038 115.555 227.472 111.082 227.472 111.082C227.472 111.082 231.511 125.455 232.172 129.489C232.833 133.522 233.568 138.729 233.274 142.102C232.98 145.476 232.54 146.576 232.54 146.576L201.621 144.669C201.621 144.669 201.768 132.789 203.751 128.389C205.734 124.062 209.846 116.215 210.287 110.202Z" fill="#4B4B9F"/>
<path d="M201.988 144.669L200.005 180.97L231.218 180.163L232.613 146.576L201.621 144.669" fill="#F6F7FB"/>
<path d="M215.795 156.109L215.061 180.97" stroke="#303142" stroke-miterlimit="10"/>
<path d="M196.7 69.3543L193.542 70.7476C193.542 70.7476 190.384 77.0544 192.294 89.0079C194.203 100.961 194.864 109.175 199.638 116.215C204.412 123.255 205.146 124.429 205.146 124.429L210.287 112.182C210.287 112.182 206.468 110.788 204.118 103.748C201.768 96.6347 199.932 86.0012 200.079 78.0077C200.226 70.0143 200.446 66.0542 200.446 66.0542L196.7 69.3543Z" fill="#F8D1E3"/>
<path d="M200.005 64.661V64.5876C199.711 63.9276 195.893 56.2275 195.011 54.1008C194.13 51.9007 193.469 52.1207 194.497 55.3475C195.378 58.2075 196.039 60.6275 196.186 61.1409C196.186 61.2142 196.26 61.2876 196.26 61.2876C196.407 61.4342 196.554 61.8742 193.91 61.8009C191.045 61.7276 187.961 63.4143 187.447 63.7809C187.373 63.8543 187.3 63.8543 187.3 63.9276C187.08 64.3676 186.492 66.0543 188.548 65.0276C188.769 64.881 189.063 64.8076 189.283 64.661C189.723 64.5143 190.017 65.101 189.577 65.321C189.283 65.4676 189.063 65.6143 188.842 65.6876C187.226 66.4943 187.961 67.301 188.475 67.5943C188.622 67.6677 188.842 67.6677 188.989 67.521C189.209 67.2277 189.797 66.7877 191.266 65.981C192.147 65.541 192.881 65.1743 193.542 64.9543C193.983 64.8076 194.203 65.3943 193.836 65.6143C193.469 65.8343 193.028 66.1276 192.588 66.4943C191.045 67.521 190.678 68.621 190.605 69.1344C190.238 72.1411 191.853 71.6277 191.853 71.6277C192.735 71.2611 192.661 70.2344 192.661 69.941C192.661 69.2077 192.955 67.8877 193.983 67.0077C195.525 65.761 196.627 66.421 195.158 68.181C194.13 69.4277 193.542 70.5277 193.249 71.1144C193.175 71.3344 193.249 71.5544 193.469 71.6277L197.508 72.5811C197.655 72.6544 197.875 72.5078 197.949 72.3611L200.446 67.4477C200.446 67.3743 200.519 67.301 200.446 67.2277L200.005 64.661Z" fill="#FAD2E4"/>
<path d="M310.093 37.6738C310.02 37.6738 309.946 37.6738 309.873 37.6005C307.303 37.0871 302.749 34.5204 297.388 35.4004C291.88 36.3538 290.852 38.3338 285.417 38.4072C279.983 38.4805 278.073 38.3338 278 42.8072C277.926 47.2806 282.7 46.914 284.977 46.7673C287.253 46.6206 287.106 50.1407 288.942 51.0207C290.778 51.9007 293.202 51.2407 294.45 53.3674C295.625 55.4941 294.597 57.1808 297.461 57.9875C300.326 58.7942 301.648 60.5542 301.648 60.5542L315.087 67.521C315.087 67.521 317.364 67.2276 320.008 64.6609C322.652 62.0942 322.285 60.9942 327.499 61.2142C332.713 61.4342 334.402 61.5076 336.973 57.6942C339.543 53.8808 340.645 54.1741 343.582 53.6607C346.52 53.1474 349.017 49.334 345.639 45.8873C342.261 42.4406 338.515 45.5939 333.888 42.4406C329.261 39.2872 326.618 34.7404 321.109 35.9138C315.601 37.0871 314.133 38.2605 310.093 37.6738Z" fill="#2D2C3D"/>
<path d="M304.218 45.3006C303.704 46.6939 302.896 50.8007 301.868 53.5141C300.766 56.2274 300.693 59.5275 302.235 61.4342C303.777 63.3409 307.009 65.9809 311.709 65.8343C316.409 65.6876 318.098 64.8076 319.714 63.1209C321.256 61.5075 321.623 57.1808 321.623 57.1808C321.623 57.1808 324.414 58.2808 324.414 54.9808C324.414 51.6807 321.623 53.4407 321.623 53.4407C321.623 53.4407 321.844 47.2806 320.595 46.7673C319.273 46.2539 317.217 46.6206 315.014 45.1539C312.811 43.6872 311.635 40.6072 311.562 40.6072C311.415 40.6072 310.607 43.0272 308.037 44.1272C305.393 45.3739 304.218 45.3006 304.218 45.3006Z" fill="#FAD2E4"/>
<path d="M306.935 46.9874C306.201 46.4007 304.879 46.3274 304.218 46.4741C303.557 46.6207 303.337 47.4274 304.585 47.5008C305.76 47.5741 306.127 47.9408 306.935 47.7208C307.376 47.5741 306.935 46.9874 306.935 46.9874Z" fill="#36293D"/>
<path d="M317.658 47.5008C316.85 47.4274 315.748 48.0141 315.821 48.4541C315.895 48.8941 317.364 48.3808 317.951 48.6008C318.539 48.8208 319.714 48.9675 320.008 48.5274C320.375 48.0874 318.686 47.6474 317.658 47.5008Z" fill="#36293D"/>
<path d="M306.054 50.1408C306.054 50.1408 304.732 48.8208 303.19 49.6274" stroke="#36293D" stroke-miterlimit="10" stroke-linecap="round" stroke-linejoin="round"/>
<path d="M315.528 51.0208C315.601 51.0208 317.364 49.9207 319.347 51.0208" stroke="#36293D" stroke-miterlimit="10" stroke-linecap="round" stroke-linejoin="round"/>
<path d="M304.438 50.5075C304.763 50.5075 305.026 50.2448 305.026 49.9208C305.026 49.5968 304.763 49.3341 304.438 49.3341C304.114 49.3341 303.851 49.5968 303.851 49.9208C303.851 50.2448 304.114 50.5075 304.438 50.5075Z" fill="#36293D"/>
<path d="M317.07 51.7542C317.395 51.7542 317.658 51.4915 317.658 51.1675C317.658 50.8435 317.395 50.5808 317.07 50.5808C316.746 50.5808 316.483 50.8435 316.483 51.1675C316.483 51.4915 316.746 51.7542 317.07 51.7542Z" fill="#36293D"/>
<path d="M304.952 51.6074C303.851 51.3141 302.382 51.0941 302.602 52.5608C302.749 54.0275 305.76 53.6608 306.054 52.9275C306.421 52.1941 304.952 51.6074 304.952 51.6074Z" fill="#F494BE"/>
<path d="M316.556 52.8542C315.161 52.9275 314.353 53.3675 314.5 54.3942C314.646 55.4942 317.364 55.2009 318.319 54.6142C319.347 53.9542 319.2 52.7075 316.556 52.8542Z" fill="#F494BE"/>
<path d="M310.02 50.2142C309.065 50.7275 308.551 53.9542 308.257 54.8343C307.964 55.7143 308.478 56.2276 309.506 56.2276C310.534 56.2276 310.607 55.2743 310.754 53.2942C310.901 51.3875 311.195 49.4808 310.02 50.2142Z" fill="#F494BE"/>
<path d="M308.918 55.5676C308.184 55.4209 307.67 55.5676 307.963 55.9342C308.331 56.3009 310.314 57.0342 310.314 56.3742C310.314 55.7142 308.918 55.5676 308.918 55.5676Z" fill="#F0659B"/>
<path d="M306.127 58.4276C306.127 58.4276 306.274 59.3076 306.715 59.821C307.155 60.3343 308.184 60.921 309.579 60.701C310.901 60.481 311.195 60.3343 311.415 59.6743C311.635 59.0143 311.268 59.0143 311.268 59.0143C311.268 59.0143 309.799 59.7476 308.11 59.2343C306.495 58.6476 306.127 58.4276 306.127 58.4276Z" fill="white"/>
<path d="M305.834 58.2809C306.348 57.9142 307.302 57.3275 308.11 57.9876C308.918 58.6476 309.065 58.6476 309.726 58.2809C310.387 57.9142 311.856 58.6476 312.149 58.9409C312.443 59.2342 310.387 60.2609 308.918 60.1143C307.376 60.1143 305.834 58.2809 305.834 58.2809Z" fill="#4C4CA0"/>
<path d="M305.834 58.9411C305.834 59.5277 305.76 62.9011 308.331 62.9011C310.901 62.9011 311.856 60.6278 312.003 59.8211C312.15 59.0144 311.415 60.7011 309.579 61.2144C308.551 61.5078 307.229 61.2144 306.495 59.7478C306.127 59.1611 305.76 57.6944 305.834 58.9411Z" fill="#F393BD"/>
<path d="M264.413 50.7273L262.504 57.0341C262.504 57.0341 260.153 55.1274 259.125 56.0074C258.171 56.8874 260.888 59.5275 261.769 60.5542C262.65 61.5809 262.504 62.3142 262.063 62.6809C261.696 63.0476 259.419 60.3342 258.611 58.2808C257.803 56.1541 257.73 55.8608 257.73 55.8608L252.148 55.7141C252.148 55.7141 250.386 56.5941 249.651 57.1808C248.917 57.7675 247.375 56.4474 247.375 56.4474C247.375 56.4474 250.753 53.8074 254.131 52.5607C257.51 51.314 259.199 50.3607 264.413 50.7273Z" fill="#F7D0E3"/>
<path d="M309.579 66.861L314.941 71.7011L315.455 65.541L311.195 66.9344L309.579 66.861Z" fill="#FAD2E4"/>
<path d="M307.229 64.8076C307.229 64.8076 309.065 65.981 311.709 65.9076C314.353 65.761 315.528 65.541 315.528 65.541C315.528 65.541 313.986 67.3743 310.975 67.4477C307.963 67.521 306.935 64.8076 306.935 64.8076H307.229Z" fill="#2D2C3D"/>
<path d="M264.854 49.4807C264.854 49.4807 264.046 51.754 263.385 54.1007C262.651 56.4474 262.357 58.0608 262.357 58.0608C262.357 58.0608 275.062 61.4342 286.739 69.6477C298.416 77.8611 301.207 80.6479 301.134 81.3812C301.06 82.1146 297.462 87.248 295.772 94.2148C294.01 101.182 293.055 108.075 293.055 108.075L325.81 110.862C325.81 110.862 327.279 98.1748 324.268 85.6346C321.183 73.0211 304.218 62.0209 299.224 58.9408C294.157 55.8608 281.451 49.0406 281.451 49.0406L278.22 54.6141C278.147 54.5407 268.305 49.774 264.854 49.4807Z" fill="#F05A94"/>
<path d="M281.305 49.8473C281.305 49.8473 278.22 45.9606 274.107 44.7872C269.995 43.6139 264.413 42.8805 262.577 42.7339C260.741 42.5872 260.741 43.3939 263.458 44.1272C266.176 44.8606 269.187 46.1072 269.187 46.1072C269.187 46.1072 268.379 47.2806 267.424 49.8473C266.469 52.414 265.955 54.9807 266.837 55.1274C267.791 55.2741 268.526 50.874 269.113 49.4073C269.701 47.9406 269.701 47.9406 269.481 49.334C269.26 50.7273 268.305 54.3207 268.82 55.6407C269.334 56.9608 269.921 56.5208 269.995 53.8074C270.068 51.094 270.582 48.3806 271.317 48.454C272.051 48.5273 271.096 49.774 270.876 51.8273C270.729 53.8807 270.509 56.9608 271.537 56.7408C272.565 56.5208 272.051 54.3207 271.904 52.4874C271.757 50.654 272.271 49.4806 273.006 49.774C273.74 50.0673 277.118 56.1541 277.118 56.1541L281.305 49.8473Z" fill="#FAD2E4"/>
<path d="M292.981 108.075L286.151 188.083L321.109 186.983L325.736 110.862L292.981 108.075Z" fill="#474B9F"/>
<path d="M308.404 121.715L303.337 188.083" stroke="white" stroke-miterlimit="10"/>
<path d="M287.694 107.048C286.225 103.675 265.294 53.514 265.294 53.514C265.294 53.514 263.678 49.334 257.73 45.3739C251.781 41.4138 250.606 40.9738 253.25 43.4672C255.82 46.0339 257.509 48.5273 257.509 48.5273L253.837 51.3873C253.837 51.3873 248.035 46.6939 246.42 45.8139C244.804 45.0072 243.923 45.0072 246.126 47.0606C248.329 49.1873 250.532 51.9007 250.532 51.9007C250.532 51.9007 248.109 53.294 246.126 55.274C244.143 57.2541 243.556 58.4274 244.29 58.7208C245.024 59.0141 247.375 56.2274 248.696 54.9074C250.092 53.5874 250.092 53.5874 250.092 53.5874C250.092 53.5874 250.606 53.4407 248.917 55.3474C247.228 57.2541 244.878 60.5541 245.906 61.0675C246.934 61.5808 246.64 59.9675 248.403 57.7674C250.165 55.5674 251.047 54.9074 251.487 55.1274C251.854 55.3474 249.798 56.4474 249.357 58.2808C248.99 60.1141 248.843 63.6342 250.753 63.4142C252.589 63.1942 250.973 61.6542 250.973 59.8208C250.973 57.9874 251.193 56.8141 251.928 57.0341C252.662 57.2541 253.25 58.8674 252.883 61.1408C252.515 63.4142 252.442 62.9008 255.82 71.4077C259.199 79.9145 268.085 99.9348 268.085 99.9348L268.746 88.4946C268.746 88.4946 276.898 109.102 277.706 110.862C278.513 112.622 282.332 115.188 285.564 113.502C288.869 111.962 287.694 107.048 287.694 107.048ZM255.306 52.854L255.012 52.3407C255.012 52.3407 256.922 49.9206 257.289 50.0673C257.656 50.214 256.775 51.2406 256.187 51.974C255.526 52.7073 255.306 52.854 255.306 52.854ZM256.848 54.9074L256.187 53.734C256.187 53.734 257.95 51.3873 258.464 51.8273C259.052 52.2673 257.803 53.4407 257.362 54.174C256.848 54.9074 256.848 54.9074 256.848 54.9074ZM260.3 63.4875C259.419 62.1675 258.905 60.7741 258.905 59.2341C258.831 57.6941 258.684 57.4741 258.097 56.2274C257.583 55.2007 258.17 54.3207 258.611 53.734C258.684 53.6607 258.758 53.5874 258.831 53.514L258.905 53.4407L258.831 53.514C259.713 53.074 260.08 53.3673 260.08 55.274C260.153 57.1807 259.492 59.7475 260.227 61.4342C260.961 63.1208 261.181 64.6609 261.181 64.6609C261.181 64.6609 261.181 64.7342 260.3 63.4875Z" fill="#F176AD"/>
<path d="M262.509 180.635L259.841 137.693L290.167 139.149L288.954 180.635H262.509Z" fill="#F1F0F0"/>
</svg>
