<svg width="588" height="371" viewBox="0 0 588 371" fill="none" xmlns="http://www.w3.org/2000/svg">
<path d="M376.312 128.901L373.509 137.362V42.6513L308.926 23.5135V8H253.898V78.8539L217.97 92.8291L218.739 148.613C209.131 148.678 199.197 151.572 192.822 155.418C180.424 162.901 179.134 166.329 174.649 161.623C170.164 156.917 144.287 145.588 127.391 165.417C122.841 170.762 120.56 176.524 119.621 182.104H92.4011L46.421 231.369H47.3987H45.9777L45 317.215H176.513V243.949L177.934 243.754V315.559H272.463V314.529H326.278V316.811L426.359 322.795V282.134L426.49 282.186V310.605L516.312 297.347L520.145 253.649H532.008L531.239 208.02H532.008L531.226 206.925L509.311 176.511C508.49 173.043 505.935 172.665 506.13 168.585C506.339 163.879 510.615 160.463 508.06 155.965C505.492 151.481 496.079 151.259 496.079 145.588C496.079 139.917 493.302 136.072 489.769 136.606C486.237 137.141 485.063 139.917 484.529 145.797C484.177 149.643 482.143 151.155 479.653 152.876C479.914 152.628 480.109 152.367 480.253 152.12C482.534 147.987 482.534 142.707 477.971 139.435C473.409 136.15 479.106 135.016 477.971 127.885C476.837 120.754 471.271 122.188 471.271 122.188C471.271 122.188 474.973 105.787 464.857 105.787C454.74 105.787 457.295 122.331 457.295 122.331C457.295 122.331 457.295 122.331 454.975 122.761C453.775 122.983 452.524 123.543 451.598 124.039L442.173 111.432H389.987L376.312 128.901ZM408.369 182.221L407.874 181.452L408.33 181.413C408.33 181.687 408.356 181.947 408.369 182.221ZM308.926 187.305V186.914L326.278 215.008L308.926 187.305Z" fill="url(#paint0_linear)"/>
<path d="M74.8278 298.911L75.5449 286.409C75.5449 286.409 74.3194 276.488 86.8085 269.592C99.2975 262.696 158.862 231.186 181.65 216.377C204.438 201.567 266.648 163.044 277.742 156.956C288.837 150.881 309.708 153.866 342.782 154.857C375.856 155.861 420.089 157.49 430.258 159.876C440.426 162.262 454.858 182.781 466.578 193.745C478.284 204.709 503.862 227.223 509.455 231.121C515.048 235.019 517.538 246.361 515.921 274.481C514.305 302.601 513.418 318.219 513.418 318.219C513.418 318.219 513.861 333.915 493.785 332.767C473.709 331.62 90.563 329.365 83.8361 329.417C77.1223 329.482 68.1661 328.465 67.8533 311.492C67.5795 297.712 74.8278 298.911 74.8278 298.911Z" fill="#F080B1"/>
<path d="M368.177 162.732C349.743 162.732 311.794 162.262 307.087 162.328C302.381 162.393 299.305 163.892 283.869 183.838C268.434 203.771 232.166 238.97 232.166 238.97L368.972 234.694L377.72 166.056C377.72 166.043 377.759 162.732 368.177 162.732Z" fill="#F6F7FB"/>
<path d="M387.589 163.852L379.688 233.976L459.381 235.215C459.381 235.215 474.113 236.062 460.229 220.483C446.345 204.905 427.898 176.133 427.898 176.133C427.898 176.133 422.722 165.86 407.991 165.013C393.286 164.152 387.589 163.852 387.589 163.852Z" fill="#F6F7FB"/>
<path d="M466.551 193.745C455.287 183.185 441.495 163.839 431.417 160.267C429.006 161.818 427.572 163.826 429.423 166.225C434.116 172.3 473.995 220.587 473.995 220.587C473.995 220.587 478.349 226.545 484.372 221.187C486.497 219.297 488.909 217.446 491.151 215.842C482.364 208.164 472.613 199.416 466.551 193.745Z" fill="#F6F7FB"/>
<path d="M509.442 231.134C507.434 229.739 502.832 225.92 497.24 221.122C492.169 225.672 482.587 234.667 482.404 237.874C482.156 242.229 487.228 247.547 501.972 248.069C507.265 248.251 512.023 248.499 515.973 248.734C515.1 238.683 512.858 233.507 509.442 231.134Z" fill="#EAFEF3"/>
<path d="M102.661 289.642C114.811 288.665 131.589 271.157 126.01 263.113C122.581 258.172 116.245 257.507 108.514 257.833C98.5545 263.217 90.537 267.519 86.7955 269.592C82.9888 271.691 80.4727 274.077 78.791 276.371C81.1637 283.763 92.5055 290.464 102.661 289.642Z" fill="#F6F7FB"/>
<path d="M180.228 360.523C199.855 360.523 215.766 344.612 215.766 324.985C215.766 305.358 199.855 289.447 180.228 289.447C160.601 289.447 144.69 305.358 144.69 324.985C144.69 344.612 160.601 360.523 180.228 360.523Z" fill="#303042"/>
<path d="M180.229 339.742C188.379 339.742 194.987 333.135 194.987 324.985C194.987 316.835 188.379 310.228 180.229 310.228C172.079 310.228 165.472 316.835 165.472 324.985C165.472 333.135 172.079 339.742 180.229 339.742Z" fill="#5C61AC"/>
<path d="M433.777 360.275C453.404 360.275 469.315 344.364 469.315 324.737C469.315 305.111 453.404 289.2 433.777 289.2C414.15 289.2 398.239 305.111 398.239 324.737C398.239 344.364 414.15 360.275 433.777 360.275Z" fill="#303042"/>
<path d="M433.777 339.495C441.927 339.495 448.534 332.888 448.534 324.737C448.534 316.587 441.927 309.98 433.777 309.98C425.627 309.98 419.02 316.587 419.02 324.737C419.02 332.888 425.627 339.495 433.777 339.495Z" fill="#5C61AC"/>
<path d="M335.416 265.629C335.26 263.022 339.861 258.133 347.54 258.094C359.834 258.042 359.377 265.903 359.377 265.903L335.416 265.629Z" fill="#303042"/>
<path d="M493.446 284.962C513.796 285.301 518.32 283.281 523.339 288.678C528.397 294.114 530.926 316.081 518.659 316.276C505.061 316.511 485.493 316.302 485.493 316.302C485.493 316.302 474.438 315.755 474.543 300.997C474.647 285.601 484.242 284.806 493.446 284.962Z" fill="#C34D81"/>
<path d="M282.175 169.302C286.673 165.078 285.982 159.772 279.098 156.317C278.642 156.526 278.16 156.722 277.73 156.956C266.635 163.031 204.425 201.554 181.637 216.377C174.832 220.809 164.728 226.728 153.582 233.038L205.389 237.444C205.389 237.431 276.4 174.712 282.175 169.302Z" fill="#F6F7FB"/>
<path d="M74.8272 298.912C74.8272 298.912 102.986 297.282 107.94 298.573C112.907 299.864 116.31 312.705 121.603 316.146C126.895 319.588 131.315 320.618 131.536 326.341C131.771 332.064 127.208 331.542 118.03 331.477C108.853 331.412 79.377 332.194 74.9446 331.269C70.5251 330.343 66.9531 325.78 67.6701 312.496C68.3872 299.212 71.5681 299.081 74.8272 298.912Z" fill="#C44D81"/>
<path d="M230.824 239.217C235.713 232.112 240.328 221.852 251.591 220.705C262.855 219.558 268.578 229.061 267.118 235.032C265.658 240.99 258.487 248.864 250.587 242.15C242.687 235.423 240.497 234.628 240.497 234.628L236.065 241.759C236.065 241.759 234.357 244.783 231.723 243.297C228.96 241.746 230.824 239.217 230.824 239.217Z" fill="#21253A"/>
<path d="M263.637 229.805L279.724 222.661" stroke="#21253A" stroke-width="4" stroke-miterlimit="10" stroke-linecap="round" stroke-linejoin="round"/>
<path d="M273.779 205.309L284.104 232.269" stroke="#21253A" stroke-width="4" stroke-miterlimit="10" stroke-linecap="round" stroke-linejoin="round"/>
<path d="M296.828 363.13C420.645 363.13 521.018 360.76 521.018 357.837C521.018 354.914 420.645 352.544 296.828 352.544C173.011 352.544 72.6377 354.914 72.6377 357.837C72.6377 360.76 173.011 363.13 296.828 363.13Z" fill="#303042"/>
<path d="M409.464 247.495C409.464 247.495 408.421 222.804 421.249 213.691C434.09 204.578 460.359 202.949 465.678 211.762C470.996 220.574 464.908 244.77 464.908 244.77L409.464 247.495Z" fill="#F080B1"/>
<path d="M440.66 206.586C443.176 206.287 457.855 205.139 457.686 218.763C457.569 228.644 456.812 239.178 456.33 245.175L464.934 244.758C464.934 244.758 471.022 220.562 465.703 211.749C462.47 206.43 451.598 204.944 440.66 206.586Z" fill="#F37479"/>
<path d="M316.344 242.476C316.344 242.476 315.301 217.785 328.129 208.673C340.97 199.56 367.239 197.93 372.557 206.743C377.876 215.556 371.788 239.752 371.788 239.752L316.344 242.476Z" fill="#F080B1"/>
<path d="M347.54 201.58C350.056 201.28 364.735 200.133 364.566 213.756C364.448 223.638 363.692 234.172 363.21 240.169L371.814 239.751C371.814 239.751 377.902 215.556 372.583 206.743C369.35 201.424 358.478 199.925 347.54 201.58Z" fill="#F37479"/>
<path d="M328.324 198.96C324.83 199.012 322.327 199.443 316.982 197.552C311.637 195.662 302.551 186.197 305.654 173.004C308.756 159.798 319.186 152.732 331.831 154.844C344.477 156.956 354.476 162.953 354.736 178.388C354.997 193.837 337.254 200.12 332.053 200.251C326.851 200.381 328.324 198.96 328.324 198.96Z" fill="#303042"/>
<path d="M340.019 186.719C340.136 184.633 338.689 184.49 338.689 184.49C338.689 184.49 336.864 178.806 336.955 177.228C337.046 175.651 335.247 170.541 328.234 170.137C321.22 169.732 319.16 173.669 318.534 175.729C317.909 177.789 315.405 182.782 314.728 184.516C314.063 186.25 315.379 187.527 315.379 187.527C314.063 194.919 317.778 197.683 320.998 199.078C321.285 199.195 321.585 199.325 321.911 199.43L321.559 205.531L329.733 206L330.424 200.342C331.949 200.095 333.461 199.599 334.843 198.726C339.445 195.819 338.741 189.379 338.741 189.379C338.741 189.379 339.901 188.805 340.019 186.719Z" fill="#5B6599"/>
<path d="M319.836 185.976C319.866 185.466 318.91 184.996 317.703 184.927C316.495 184.857 315.492 185.215 315.463 185.726C315.434 186.236 316.389 186.706 317.597 186.775C318.804 186.844 319.807 186.486 319.836 185.976Z" fill="#4D4F9A"/>
<path d="M332.04 187.032C332.366 187.945 333.448 189.053 335.495 188.622C337.555 188.192 338.311 186.758 337.346 186.484C336.407 186.224 332.04 187.032 332.04 187.032Z" fill="#4D4F9A"/>
<path d="M318.899 186.263C322.16 186.263 324.804 183.619 324.804 180.357C324.804 177.095 322.16 174.451 318.899 174.451C315.637 174.451 312.993 177.095 312.993 180.357C312.993 183.619 315.637 186.263 318.899 186.263Z" fill="#FAD2E4"/>
<path d="M333.474 187.097C336.735 187.097 339.38 184.453 339.38 181.191C339.38 177.93 336.735 175.286 333.474 175.286C330.212 175.286 327.568 177.93 327.568 181.191C327.568 184.453 330.212 187.097 333.474 187.097Z" fill="#FAD2E4"/>
<path d="M324.048 181.074C324.048 181.074 325.456 179.418 328.22 181.309" stroke="#FAD2E4" stroke-miterlimit="10"/>
<path d="M315.574 182.364C315.639 182.351 317.843 180.8 320.554 182.417" stroke="#2C2C3C" stroke-width="0.5" stroke-miterlimit="10" stroke-linecap="round" stroke-linejoin="round"/>
<path d="M319.444 182.777C319.475 182.238 318.993 181.772 318.367 181.736C317.742 181.7 317.21 182.108 317.179 182.647C317.148 183.186 317.63 183.653 318.255 183.688C318.881 183.724 319.413 183.316 319.444 182.777Z" fill="#2C2D3B"/>
<path d="M331.375 183.681C331.44 183.668 333.643 182.117 336.355 183.734" stroke="#2C2C3C" stroke-width="0.5" stroke-miterlimit="10" stroke-linecap="round" stroke-linejoin="round"/>
<path d="M335.238 184.093C335.269 183.554 334.787 183.088 334.161 183.052C333.536 183.016 333.004 183.424 332.973 183.963C332.942 184.502 333.424 184.968 334.049 185.004C334.675 185.04 335.207 184.632 335.238 184.093Z" fill="#2C2D3B"/>
<path d="M318.938 179.027C317.439 179.014 316.383 178.962 316.396 179.575C316.409 180.188 316.761 180.214 318.455 180.305C320.15 180.396 320.059 180.826 320.685 180.435C321.31 180.044 320.685 179.04 318.938 179.027Z" fill="#2C2D3B"/>
<path d="M333.2 180.266C332.027 180.422 331.401 180.618 331.44 181.244C331.466 181.856 333.005 181.674 334.256 181.7C335.508 181.726 336.694 181.817 336.694 181.035C336.694 180.253 334.426 180.11 333.2 180.266Z" fill="#2C2D3B"/>
<path d="M325.43 187.449C324.113 187.227 323.461 187.592 323.357 187.853C323.253 188.127 324.7 188.44 326.173 188.44C327.659 188.44 328.233 187.931 325.43 187.449Z" fill="#2C2D3B"/>
<path d="M325.457 191.764L325.392 192.794C325.392 192.794 322.928 192.716 321.663 192.312C320.399 191.908 320.438 191.477 320.438 191.477L325.457 191.764Z" fill="white"/>
<path d="M325.835 191.79L325.77 192.833C325.77 192.833 327.529 193.146 329.185 192.872C330.841 192.598 330.867 192.272 330.867 192.272L325.835 191.79Z" fill="white"/>
<path d="M320.424 191.738C320.424 191.738 321.102 194.032 325.691 194.175C330.293 194.306 331.049 192.246 331.049 192.246C331.049 192.246 330.84 196.079 327.803 196.157C324.504 196.248 322.823 195.909 321.545 194.997C320.267 194.071 320.254 192.194 320.424 191.738Z" fill="#4E4F9F"/>
<path d="M320.333 191.477C319.889 191.36 322.145 189.743 326.082 189.965C330.019 190.186 331.166 192.038 331.049 192.233C330.931 192.442 321.415 191.764 320.333 191.477Z" fill="#2C2D3B"/>
<path d="M321.819 199.182L321.793 201.398C321.793 201.398 323.84 203.067 326.108 203.015C328.376 202.95 328.807 202.168 328.976 201.607C329.146 201.046 329.211 200.447 329.211 200.447C329.211 200.447 324.922 200.668 321.819 199.182Z" fill="#2C2D3B"/>
<path d="M315.692 209.715C315.692 209.715 315.601 207.551 315.888 206.3C316.174 205.048 316.422 204.084 319.799 204.475C323.175 204.866 325.443 205.218 328.924 205.426C332.405 205.622 335.495 205.257 335.938 207.968C336.368 210.68 336.199 211.619 336.199 211.619C336.199 211.619 339.705 211.54 344.685 215.569C349.652 219.597 350.03 226.259 349.77 229.792C349.509 233.325 346.641 247.834 346.641 247.834L297.728 245.031C297.728 245.031 298.301 246.14 299.279 235.736C300.244 225.32 301.691 209.168 315.692 209.715Z" fill="#98EED9"/>
<path d="M269.151 204.448C267.535 207.225 269.972 211.54 271.002 211.397C273.779 211.019 271.081 209.741 271.159 207.382C271.237 205.022 271.511 204.435 273.531 204.435C275.552 204.435 275.969 204.709 276.647 206.599C277.325 208.477 277.325 208.477 277.325 208.477C277.325 208.477 277.899 206.899 278.955 206.599C280.011 206.3 281.953 204.018 281.953 204.018C281.953 204.018 273.857 196.366 269.151 204.448Z" fill="#5B6599"/>
<path d="M281.94 204.031C279.75 206.013 276.803 206.717 277.312 208.49C277.82 210.263 279.059 212.531 279.724 213.287C280.402 214.043 283.595 223.912 285.473 227.536C287.324 231.108 290.27 238.578 295.98 239.504C301.703 240.429 313.984 232.334 313.984 232.334L314.57 215.686L305.81 217.003C305.81 217.003 305.953 223.938 304.949 226.128C303.946 228.318 292.108 211.162 292.108 211.162C292.108 211.162 286.138 200.251 281.94 204.031Z" fill="#98EED9"/>
<defs>
<linearGradient id="paint0_linear" x1="288.492" y1="322.788" x2="288.492" y2="8.00236" gradientUnits="userSpaceOnUse">
<stop stop-color="#5C61AC" stop-opacity="0"/>
<stop offset="1" stop-color="#5C61AC"/>
</linearGradient>
</defs>
</svg>
