<svg width="94" height="82" viewBox="0 0 94 82" fill="none" xmlns="http://www.w3.org/2000/svg">
<g filter="url(#filter0_f)">
<path fill-rule="evenodd" clip-rule="evenodd" d="M60.1241 50.618C60.1365 50.4944 60.1429 50.3701 60.1429 50.2453C60.1429 45.1393 49.5896 41 36.5714 41C23.5533 41 13 45.1393 13 50.2453C13 54.868 21.6498 58.6982 32.9475 59.382C32.935 59.5056 32.9287 59.6299 32.9287 59.7547C32.9287 64.8607 43.482 69 56.5001 69C69.5183 69 80.0716 64.8607 80.0716 59.7547C80.0716 55.132 71.4217 51.3018 60.1241 50.618Z" fill="black" fill-opacity="0.16"/>
</g>
<path fill-rule="evenodd" clip-rule="evenodd" d="M63.5716 47.4643V47.6429H63.5681C63.3435 53.3792 52.3181 58 38.7501 58C25.1822 58 14.1568 53.3792 13.9322 47.6429H13.9287V47.4643V36.9286H38.7501H63.5716V47.4643Z" fill="#DCF1E5"/>
<path fill-rule="evenodd" clip-rule="evenodd" d="M63.5716 38.8928V39.0714H63.5681C63.3435 44.8077 52.3181 49.4285 38.7501 49.4285C25.1822 49.4285 14.1568 44.8077 13.9322 39.0714H13.9287V38.8928V28.3571H38.7501H63.5716V38.8928Z" fill="#EAFEF3"/>
<ellipse cx="38.7501" cy="28.5357" rx="24.8214" ry="10.5357" fill="#DCF1E5"/>
<ellipse cx="38.5714" cy="29.25" rx="23.5714" ry="8.75" fill="#EAFEF3"/>
<path d="M42.4677 26.3266C41.4548 25.7997 40.1402 25.5108 38.7456 25.5115C36.2358 25.5127 34.0691 26.4688 33.4709 27.7949C33.4273 27.8915 33.2725 27.9597 33.0934 27.9597H31.2366C30.9937 27.9597 30.8091 27.8371 30.854 27.7045C31.5551 25.6361 34.8238 24.0714 38.7506 24.0714C40.9036 24.0714 42.8588 24.5419 44.3015 25.3078L45.4588 24.6649C45.9486 24.3927 46.7863 24.5855 46.7863 24.9704V27.3836C46.7863 27.6222 46.4381 27.8157 46.0086 27.8157H41.6648C40.972 27.8157 40.6251 27.3503 41.1149 27.0781L42.4677 26.3266ZM31.4925 29.2557H35.8363C36.5291 29.2557 36.8761 29.7211 36.3862 29.9933L35.0334 30.7448C36.0463 31.2718 37.361 31.5606 38.7556 31.5599C41.2641 31.5586 43.4317 30.6033 44.0302 29.2765C44.0738 29.1799 44.2286 29.1118 44.4078 29.1118H46.2645C46.5075 29.1118 46.692 29.2343 46.6471 29.367C45.946 31.4353 42.6773 33 38.7506 33C36.5975 33 34.6423 32.5295 33.1996 31.7636L32.0424 32.4065C31.5525 32.6786 30.7148 32.4859 30.7148 32.101V29.6878C30.7148 29.4492 31.063 29.2557 31.4925 29.2557Z" fill="#1BB978"/>
<path fill-rule="evenodd" clip-rule="evenodd" d="M63.5716 29.4643V29.6429H63.5681C63.3435 35.3792 52.3181 40 38.7501 40C25.1822 40 14.1568 35.3792 13.9322 29.6429H13.9287V29.4643V18.9286H38.7501H63.5716V29.4643Z" fill="#DCF1E5"/>
<path fill-rule="evenodd" clip-rule="evenodd" d="M63.5716 20.8928V21.0714H63.5681C63.3435 26.8077 52.3181 31.4285 38.7501 31.4285C25.1822 31.4285 14.1568 26.8077 13.9322 21.0714H13.9287V20.8928V10.3571H38.7501H63.5716V20.8928Z" fill="#EAFEF3"/>
<ellipse cx="38.7501" cy="10.5357" rx="24.8214" ry="10.5357" fill="#DCF1E5"/>
<ellipse cx="38.5714" cy="11.25" rx="23.5714" ry="8.75" fill="#EAFEF3"/>
<path fill-rule="evenodd" clip-rule="evenodd" d="M81.5716 57.4643V57.6429H81.5681C81.3435 63.3792 70.3181 68 56.7501 68C43.1822 68 32.1568 63.3792 31.9322 57.6429H31.9287V57.4643V46.9286H56.7501H81.5716V57.4643Z" fill="#DCF1E5"/>
<path fill-rule="evenodd" clip-rule="evenodd" d="M81.5716 48.8928V49.0714H81.5681C81.3435 54.8077 70.3181 59.4285 56.7501 59.4285C43.1822 59.4285 32.1568 54.8077 31.9322 49.0714H31.9287V48.8928V38.3571H56.7501H81.5716V48.8928Z" fill="#EAFEF3"/>
<ellipse cx="56.7501" cy="38.5357" rx="24.8214" ry="10.5357" fill="#DCF1E5"/>
<ellipse cx="56.5714" cy="39.25" rx="23.5714" ry="8.75" fill="#EAFEF3"/>
<path d="M60.4677 36.3266C59.4548 35.7997 58.1402 35.5108 56.7456 35.5115C54.2358 35.5127 52.0691 36.4688 51.4709 37.7949C51.4273 37.8915 51.2725 37.9597 51.0934 37.9597H49.2366C48.9937 37.9597 48.8091 37.8371 48.854 37.7045C49.5551 35.6361 52.8238 34.0714 56.7506 34.0714C58.9036 34.0714 60.8588 34.5419 62.3015 35.3078L63.4588 34.6649C63.9486 34.3927 64.7863 34.5855 64.7863 34.9704V37.3836C64.7863 37.6222 64.4381 37.8157 64.0086 37.8157H59.6648C58.972 37.8157 58.6251 37.3503 59.1149 37.0781L60.4677 36.3266ZM49.4925 39.2557H53.8363C54.5291 39.2557 54.8761 39.7211 54.3862 39.9933L53.0334 40.7448C54.0463 41.2718 55.361 41.5606 56.7556 41.5599C59.2641 41.5586 61.4317 40.6033 62.0302 39.2765C62.0738 39.1799 62.2286 39.1118 62.4078 39.1118H64.2645C64.5075 39.1118 64.692 39.2343 64.6471 39.367C63.946 41.4353 60.6773 43 56.7506 43C54.5975 43 52.6423 42.5295 51.1996 41.7636L50.0424 42.4065C49.5525 42.6786 48.7148 42.4859 48.7148 42.101V39.6878C48.7148 39.4492 49.063 39.2557 49.4925 39.2557Z" fill="#1BB978"/>
<defs>
<filter id="filter0_f" x="0" y="28" width="93.0716" height="54" filterUnits="userSpaceOnUse" color-interpolation-filters="sRGB">
<feFlood flood-opacity="0" result="BackgroundImageFix"/>
<feBlend mode="normal" in="SourceGraphic" in2="BackgroundImageFix" result="shape"/>
<feGaussianBlur stdDeviation="6.5" result="effect1_foregroundBlur"/>
</filter>
</defs>
</svg>
