<svg width="60" height="60" viewBox="0 0 60 60" fill="none" xmlns="http://www.w3.org/2000/svg">
  <circle cx="30" cy="30" r="30" fill="#ECECFF"/>
  <path d="M29.5625 29.5625C29.4375 29.6875 29.375 29.8125 29.375 30C29.375 30.1875 29.4375 30.3125 29.5625 30.4375C29.6875 30.5625 29.8125 30.625 30 30.625C30.1875 30.625 30.3125 30.5625 30.4375 30.4375C30.5625 30.3125 30.625 30.125 30.625 30C30.625 29.8125 30.5625 29.6875 30.4375 29.5625C30.1875 29.3125 29.8125 29.3125 29.5625 29.5625Z" fill="#5A59E6"/>
  <path d="M30 15C21.75 15 15 21.75 15 30C15 38.25 21.75 45 30 45C38.25 45 45 38.25 45 30C45 21.75 38.25 15 30 15ZM29.375 18.375C29.375 18 29.625 17.75 30 17.75C30.375 17.75 30.625 18 30.625 18.375V20.6875C30.625 21.0625 30.375 21.3125 30 21.3125C29.625 21.3125 29.375 21.0625 29.375 20.6875V18.375ZM20.75 30.625H18.4375C18.0625 30.625 17.8125 30.375 17.8125 30C17.8125 29.625 18.0625 29.375 18.4375 29.375H20.75C21.125 29.375 21.375 29.625 21.375 30C21.375 30.375 21.0625 30.625 20.75 30.625ZM30.625 41.625C30.625 42 30.375 42.25 30 42.25C29.625 42.25 29.375 42 29.375 41.625V39.3125C29.375 38.9375 29.625 38.6875 30 38.6875C30.375 38.6875 30.625 38.9375 30.625 39.3125V41.625ZM36.8125 24L32.5 32.1875C32.4375 32.3125 32.375 32.375 32.25 32.4375L24.0625 36.8125C23.9375 36.875 23.8125 36.875 23.75 36.875C23.5625 36.875 23.4375 36.8125 23.3125 36.6875C23.125 36.5 23.0625 36.1875 23.1875 35.9375L27.5 27.8125C27.5625 27.6875 27.625 27.625 27.75 27.5625L35.9375 23.1875C36.1875 23.0625 36.5 23.125 36.6875 23.3125C36.875 23.5 36.9375 23.8125 36.8125 24ZM41.625 30.625H39.3125C38.9375 30.625 38.6875 30.375 38.6875 30C38.6875 29.625 38.9375 29.375 39.3125 29.375H41.625C42 29.375 42.25 29.625 42.25 30C42.25 30.375 41.9375 30.625 41.625 30.625Z" fill="#5A59E6"/>
</svg>
