<svg width="60" height="60" viewBox="0 0 60 60" fill="none" xmlns="http://www.w3.org/2000/svg">
<circle cx="30" cy="30" r="30" fill="#ECECFF"/>
<path d="M44.035 40.3381L27.6889 24.9677C27.2551 24.5593 27.0539 23.9623 27.1501 23.3714C27.5114 21.1686 26.8914 19.2207 25.3602 17.7417C24.1652 16.5865 22.6302 15.9823 21.1177 16.0004C19.7477 16.0294 18.4427 16.4982 17.3427 17.3574C17.184 17.4819 17.0977 17.6716 17.1115 17.8685C17.1265 18.0655 17.239 18.2431 17.414 18.3446L21.2339 20.5596C21.1202 21.6701 20.4415 22.6452 19.4015 23.1648L15.9827 21.1819C15.7915 21.0719 15.5315 21.0792 15.3365 21.1819C15.1477 21.2822 15.024 21.4683 15.0115 21.6773C14.9077 23.3618 15.509 24.9616 16.7015 26.1845C17.879 27.3917 19.5365 28.0829 21.2502 28.0829C21.5289 28.0829 21.9352 28.0104 22.5289 27.8569C23.1802 27.6865 23.8827 27.8726 24.3552 28.3427L40.1838 44.072C40.8038 44.6713 41.6263 45 42.5 45C43.8788 45 45 43.9161 45 42.5821C45 41.7374 44.66 40.9423 44.035 40.3381Z" fill="#5B5ADB"/>
</svg>
