<svg width="116" height="20" viewBox="0 0 116 20" fill="none" xmlns="http://www.w3.org/2000/svg">
<path d="M18.8659 8.62638C19.0422 8.44665 19.1668 8.21944 19.2256 7.97027C19.2844 7.72111 19.2752 7.45985 19.1989 7.21584C19.1226 6.97182 18.9823 6.75472 18.7938 6.58889C18.6053 6.42307 18.3759 6.3151 18.1316 6.2771L13.4265 5.56645C13.3198 5.55072 13.2183 5.50827 13.1309 5.44276C13.0435 5.37725 12.9728 5.29065 12.9248 5.19042L10.8215 0.764376C10.7112 0.53475 10.5415 0.341578 10.3314 0.206553C10.1213 0.0715289 9.87902 0 9.6319 0C9.38478 0 9.14255 0.0715289 8.93242 0.206553C8.72229 0.341578 8.55258 0.53475 8.44235 0.764376L6.33571 5.19042C6.28804 5.29022 6.2178 5.37654 6.13101 5.44202C6.04421 5.50751 5.94343 5.5502 5.83729 5.56645L1.13224 6.2771C0.887867 6.3151 0.658536 6.42307 0.469997 6.58889C0.281458 6.75472 0.141177 6.97182 0.064904 7.21584C-0.0113689 7.45985 -0.020613 7.72111 0.0382097 7.97027C0.0970325 8.21944 0.221593 8.44665 0.397905 8.62638L3.80375 12.0761C3.87831 12.155 3.93353 12.2514 3.96475 12.357C3.99598 12.4627 4.0023 12.5746 3.98318 12.6833L3.18904 17.5475C3.14778 17.8009 3.17551 18.0612 3.26912 18.2992C3.36272 18.5371 3.51846 18.7432 3.71881 18.8942C3.91915 19.0451 4.15613 19.135 4.40303 19.1537C4.64993 19.1724 4.89695 19.1191 5.11625 18.9998L9.32288 16.7023C9.41819 16.6503 9.52424 16.6231 9.6319 16.6231C9.73956 16.6231 9.84561 16.6503 9.94092 16.7023L14.1476 18.9998C14.3391 19.1045 14.5524 19.1589 14.7689 19.1585C14.9619 19.1578 15.1525 19.1135 15.3273 19.0287C15.5022 18.9438 15.6571 18.8204 15.7814 18.6671C15.9056 18.5138 15.9963 18.3342 16.0469 18.1409C16.0976 17.9475 16.1071 17.745 16.0748 17.5475L15.2806 12.6833C15.2622 12.5732 15.2698 12.4601 15.3028 12.3538C15.3358 12.2474 15.3932 12.1509 15.47 12.0727L18.8659 8.62638Z" fill="#5B5ADB"/>
<path d="M42.8659 8.62638C43.0422 8.44665 43.1668 8.21944 43.2256 7.97027C43.2844 7.72111 43.2752 7.45985 43.1989 7.21584C43.1226 6.97182 42.9823 6.75472 42.7938 6.58889C42.6053 6.42307 42.3759 6.3151 42.1316 6.2771L37.4265 5.56645C37.3198 5.55072 37.2183 5.50827 37.1309 5.44276C37.0435 5.37725 36.9728 5.29065 36.9248 5.19042L34.8215 0.764376C34.7112 0.53475 34.5415 0.341578 34.3314 0.206553C34.1213 0.0715289 33.879 0 33.6319 0C33.3848 0 33.1426 0.0715289 32.9324 0.206553C32.7223 0.341578 32.5526 0.53475 32.4423 0.764376L30.3357 5.19042C30.288 5.29022 30.2178 5.37654 30.131 5.44202C30.0442 5.50751 29.9434 5.5502 29.8373 5.56645L25.1322 6.2771C24.8879 6.3151 24.6585 6.42307 24.47 6.58889C24.2815 6.75472 24.1412 6.97182 24.0649 7.21584C23.9886 7.45985 23.9794 7.72111 24.0382 7.97027C24.097 8.21944 24.2216 8.44665 24.3979 8.62638L27.8038 12.0761C27.8783 12.155 27.9335 12.2514 27.9648 12.357C27.996 12.4627 28.0023 12.5746 27.9832 12.6833L27.189 17.5475C27.1478 17.8009 27.1755 18.0612 27.2691 18.2992C27.3627 18.5371 27.5185 18.7432 27.7188 18.8942C27.9192 19.0451 28.1561 19.135 28.403 19.1537C28.6499 19.1724 28.897 19.1191 29.1162 18.9998L33.3229 16.7023C33.4182 16.6503 33.5242 16.6231 33.6319 16.6231C33.7396 16.6231 33.8456 16.6503 33.9409 16.7023L38.1476 18.9998C38.3391 19.1045 38.5524 19.1589 38.7689 19.1585C38.9619 19.1578 39.1525 19.1135 39.3273 19.0287C39.5022 18.9438 39.6571 18.8204 39.7814 18.6671C39.9056 18.5138 39.9963 18.3342 40.0469 18.1409C40.0976 17.9475 40.1071 17.745 40.0748 17.5475L39.2806 12.6833C39.2622 12.5732 39.2698 12.4601 39.3028 12.3538C39.3358 12.2474 39.3932 12.1509 39.47 12.0727L42.8659 8.62638Z" fill="#5B5ADB"/>
<path d="M66.8659 8.62638C67.0422 8.44665 67.1668 8.21944 67.2256 7.97027C67.2844 7.72111 67.2752 7.45985 67.1989 7.21584C67.1226 6.97182 66.9823 6.75472 66.7938 6.58889C66.6053 6.42307 66.3759 6.3151 66.1316 6.2771L61.4265 5.56645C61.3198 5.55072 61.2183 5.50827 61.1309 5.44276C61.0435 5.37725 60.9728 5.29065 60.9248 5.19042L58.8215 0.764376C58.7112 0.53475 58.5415 0.341578 58.3314 0.206553C58.1213 0.0715289 57.879 0 57.6319 0C57.3848 0 57.1426 0.0715289 56.9324 0.206553C56.7223 0.341578 56.5526 0.53475 56.4423 0.764376L54.3357 5.19042C54.288 5.29021 54.2178 5.37654 54.131 5.44202C54.0442 5.50751 53.9434 5.5502 53.8373 5.56645L49.1322 6.2771C48.8879 6.3151 48.6585 6.42307 48.47 6.58889C48.2815 6.75472 48.1412 6.97182 48.0649 7.21584C47.9886 7.45985 47.9794 7.72111 48.0382 7.97027C48.097 8.21944 48.2216 8.44665 48.3979 8.62638L51.8038 12.0761C51.8783 12.155 51.9335 12.2514 51.9648 12.357C51.996 12.4627 52.0023 12.5746 51.9832 12.6833L51.189 17.5475C51.1478 17.8009 51.1755 18.0612 51.2691 18.2992C51.3627 18.5371 51.5185 18.7432 51.7188 18.8942C51.9192 19.0451 52.1561 19.135 52.403 19.1537C52.6499 19.1724 52.897 19.1191 53.1162 18.9998L57.3229 16.7023C57.4182 16.6503 57.5242 16.6231 57.6319 16.6231C57.7396 16.6231 57.8456 16.6503 57.9409 16.7023L62.1476 18.9998C62.3391 19.1045 62.5524 19.1589 62.7689 19.1585C62.9619 19.1578 63.1525 19.1135 63.3273 19.0287C63.5022 18.9438 63.6571 18.8204 63.7814 18.6671C63.9056 18.5138 63.9963 18.3342 64.0469 18.1409C64.0976 17.9475 64.1071 17.745 64.0748 17.5475L63.2806 12.6833C63.2622 12.5732 63.2698 12.4601 63.3028 12.3538C63.3358 12.2474 63.3932 12.1509 63.47 12.0727L66.8659 8.62638Z" fill="#5B5ADB"/>
<path d="M90.8659 8.62638C91.0422 8.44665 91.1668 8.21944 91.2256 7.97027C91.2844 7.72111 91.2752 7.45985 91.1989 7.21584C91.1226 6.97182 90.9823 6.75472 90.7938 6.58889C90.6053 6.42307 90.3759 6.3151 90.1316 6.2771L85.4265 5.56645C85.3198 5.55072 85.2183 5.50827 85.1309 5.44276C85.0435 5.37725 84.9728 5.29065 84.9248 5.19042L82.8215 0.764376C82.7112 0.53475 82.5415 0.341578 82.3314 0.206553C82.1213 0.0715289 81.879 0 81.6319 0C81.3848 0 81.1426 0.0715289 80.9324 0.206553C80.7223 0.341578 80.5526 0.53475 80.4423 0.764376L78.3357 5.19042C78.288 5.29022 78.2178 5.37654 78.131 5.44202C78.0442 5.50751 77.9434 5.5502 77.8373 5.56645L73.1322 6.2771C72.8879 6.3151 72.6585 6.42307 72.47 6.58889C72.2815 6.75472 72.1412 6.97182 72.0649 7.21584C71.9886 7.45985 71.9794 7.72111 72.0382 7.97027C72.097 8.21944 72.2216 8.44665 72.3979 8.62638L75.8038 12.0761C75.8783 12.155 75.9335 12.2514 75.9648 12.357C75.996 12.4627 76.0023 12.5746 75.9832 12.6833L75.189 17.5475C75.1478 17.8009 75.1755 18.0612 75.2691 18.2992C75.3627 18.5371 75.5185 18.7432 75.7188 18.8942C75.9192 19.0451 76.1561 19.135 76.403 19.1537C76.6499 19.1724 76.897 19.1191 77.1162 18.9998L81.3229 16.7023C81.4182 16.6503 81.5242 16.6231 81.6319 16.6231C81.7396 16.6231 81.8456 16.6503 81.9409 16.7023L86.1476 18.9998C86.3391 19.1045 86.5524 19.1589 86.7689 19.1585C86.9619 19.1578 87.1525 19.1135 87.3273 19.0287C87.5022 18.9438 87.6571 18.8204 87.7814 18.6671C87.9056 18.5138 87.9963 18.3342 88.0469 18.1409C88.0976 17.9475 88.1071 17.745 88.0748 17.5475L87.2806 12.6833C87.2622 12.5732 87.2698 12.4601 87.3028 12.3538C87.3358 12.2474 87.3932 12.1509 87.47 12.0727L90.8659 8.62638Z" fill="#5B5ADB"/>
<mask id="mask0" mask-type="alpha" maskUnits="userSpaceOnUse" x="96" y="0" width="20" height="20">
<path d="M114.866 8.62638C115.042 8.44665 115.167 8.21944 115.226 7.97027C115.284 7.72111 115.275 7.45985 115.199 7.21584C115.123 6.97182 114.982 6.75472 114.794 6.58889C114.605 6.42307 114.376 6.3151 114.132 6.2771L109.427 5.56645C109.32 5.55072 109.218 5.50827 109.131 5.44276C109.044 5.37725 108.973 5.29065 108.925 5.19042L106.821 0.764376C106.711 0.53475 106.542 0.341578 106.331 0.206553C106.121 0.0715289 105.879 0 105.632 0C105.385 0 105.143 0.0715289 104.932 0.206553C104.722 0.341578 104.553 0.53475 104.442 0.764376L102.336 5.19042C102.288 5.29022 102.218 5.37654 102.131 5.44202C102.044 5.50751 101.943 5.5502 101.837 5.56645L97.1322 6.2771C96.8879 6.3151 96.6585 6.42307 96.47 6.58889C96.2815 6.75472 96.1412 6.97182 96.0649 7.21584C95.9886 7.45985 95.9794 7.72111 96.0382 7.97027C96.097 8.21944 96.2216 8.44665 96.3979 8.62638L99.8038 12.0761C99.8783 12.155 99.9335 12.2514 99.9648 12.357C99.996 12.4627 100.002 12.5746 99.9832 12.6833L99.189 17.5475C99.1478 17.8009 99.1755 18.0612 99.2691 18.2992C99.3627 18.5371 99.5185 18.7432 99.7188 18.8942C99.9192 19.0451 100.156 19.135 100.403 19.1537C100.65 19.1724 100.897 19.1191 101.116 18.9998L105.323 16.7023C105.418 16.6503 105.524 16.6231 105.632 16.6231C105.74 16.6231 105.846 16.6503 105.941 16.7023L110.148 18.9998C110.339 19.1045 110.552 19.1589 110.769 19.1585C110.962 19.1578 111.152 19.1135 111.327 19.0287C111.502 18.9438 111.657 18.8204 111.781 18.6671C111.906 18.5138 111.996 18.3342 112.047 18.1409C112.098 17.9475 112.107 17.745 112.075 17.5475L111.281 12.6833C111.262 12.5732 111.27 12.4601 111.303 12.3538C111.336 12.2474 111.393 12.1509 111.47 12.0727L114.866 8.62638Z" fill="#5B5ADB"/>
</mask>
<g mask="url(#mask0)">
<path d="M114.866 8.62638C115.042 8.44665 115.167 8.21944 115.226 7.97027C115.284 7.72111 115.275 7.45985 115.199 7.21584C115.123 6.97182 114.982 6.75472 114.794 6.58889C114.605 6.42307 114.376 6.3151 114.132 6.2771L109.427 5.56645C109.32 5.55072 109.218 5.50827 109.131 5.44276C109.044 5.37725 108.973 5.29065 108.925 5.19042L106.821 0.764376C106.711 0.53475 106.542 0.341578 106.331 0.206553C106.121 0.0715289 105.879 0 105.632 0C105.385 0 105.143 0.0715289 104.932 0.206553C104.722 0.341578 104.553 0.53475 104.442 0.764376L102.336 5.19042C102.288 5.29022 102.218 5.37654 102.131 5.44202C102.044 5.50751 101.943 5.5502 101.837 5.56645L97.1322 6.2771C96.8879 6.3151 96.6585 6.42307 96.47 6.58889C96.2815 6.75472 96.1412 6.97182 96.0649 7.21584C95.9886 7.45985 95.9794 7.72111 96.0382 7.97027C96.097 8.21944 96.2216 8.44665 96.3979 8.62638L99.8038 12.0761C99.8783 12.155 99.9335 12.2514 99.9648 12.357C99.996 12.4627 100.002 12.5746 99.9832 12.6833L99.189 17.5475C99.1478 17.8009 99.1755 18.0612 99.2691 18.2992C99.3627 18.5371 99.5185 18.7432 99.7188 18.8942C99.9192 19.0451 100.156 19.135 100.403 19.1537C100.65 19.1724 100.897 19.1191 101.116 18.9998L105.323 16.7023C105.418 16.6503 105.524 16.6231 105.632 16.6231C105.74 16.6231 105.846 16.6503 105.941 16.7023L110.148 18.9998C110.339 19.1045 110.552 19.1589 110.769 19.1585C110.962 19.1578 111.152 19.1135 111.327 19.0287C111.502 18.9438 111.657 18.8204 111.781 18.6671C111.906 18.5138 111.996 18.3342 112.047 18.1409C112.098 17.9475 112.107 17.745 112.075 17.5475L111.281 12.6833C111.262 12.5732 111.27 12.4601 111.303 12.3538C111.336 12.2474 111.393 12.1509 111.47 12.0727L114.866 8.62638Z" fill="#C9CED4"/>
<path d="M114.866 8.62638C115.042 8.44665 115.167 8.21944 115.226 7.97027C115.284 7.72111 115.275 7.45985 115.199 7.21584C115.123 6.97182 114.982 6.75472 114.794 6.58889C114.605 6.42307 114.376 6.3151 114.132 6.2771L109.427 5.56645C109.32 5.55072 109.218 5.50827 109.131 5.44276C109.044 5.37725 108.973 5.29065 108.925 5.19042L106.821 0.764376C106.711 0.53475 106.542 0.341578 106.331 0.206553C106.121 0.0715289 105.879 0 105.632 0C105.385 0 105.143 0.0715289 104.932 0.206553C104.722 0.341578 104.553 0.53475 104.442 0.764376L102.336 5.19042C102.288 5.29022 102.218 5.37654 102.131 5.44202C102.044 5.50751 101.943 5.5502 101.837 5.56645L97.1322 6.2771C96.8879 6.3151 96.6585 6.42307 96.47 6.58889C96.2815 6.75472 96.1412 6.97182 96.0649 7.21584C95.9886 7.45985 95.9794 7.72111 96.0382 7.97027C96.097 8.21944 96.2216 8.44665 96.3979 8.62638L99.8038 12.0761C99.8783 12.155 99.9335 12.2514 99.9648 12.357C99.996 12.4627 100.002 12.5746 99.9832 12.6833L99.189 17.5475C99.1478 17.8009 99.1755 18.0612 99.2691 18.2992C99.3627 18.5371 99.5185 18.7432 99.7188 18.8942C99.9192 19.0451 100.156 19.135 100.403 19.1537C100.65 19.1724 100.897 19.1191 101.116 18.9998L105.323 16.7023C105.418 16.6503 105.524 16.6231 105.632 16.6231C105.74 16.6231 105.846 16.6503 105.941 16.7023L110.148 18.9998C110.339 19.1045 110.552 19.1589 110.769 19.1585C110.962 19.1578 111.152 19.1135 111.327 19.0287C111.502 18.9438 111.657 18.8204 111.781 18.6671C111.906 18.5138 111.996 18.3342 112.047 18.1409C112.098 17.9475 112.107 17.745 112.075 17.5475L111.281 12.6833C111.262 12.5732 111.27 12.4601 111.303 12.3538C111.336 12.2474 111.393 12.1509 111.47 12.0727L114.866 8.62638Z" fill="#5B5ADB"/>
<rect x="106" width="10" height="20" fill="#C4C4C4"/>
</g>
</svg>
