<svg width="60" height="60" viewBox="0 0 60 60" fill="none" xmlns="http://www.w3.org/2000/svg">
<circle cx="30" cy="30" r="30" fill="#ECECFF"/>
<path d="M44.4003 28.6142C44.666 28.3532 44.8538 28.0233 44.9425 27.6615C45.0311 27.2998 45.0172 26.9205 44.9022 26.5662C44.7873 26.2119 44.5758 25.8967 44.2916 25.6559C44.0074 25.4151 43.6617 25.2584 43.2933 25.2032L36.2009 24.1714C36.04 24.1486 35.8871 24.0869 35.7553 23.9918C35.6235 23.8967 35.5169 23.771 35.4446 23.6254L32.274 17.1992C32.1078 16.8658 31.852 16.5853 31.5353 16.3893C31.2185 16.1932 30.8534 16.0894 30.4809 16.0894C30.1084 16.0894 29.7432 16.1932 29.4265 16.3893C29.1097 16.5853 28.8539 16.8658 28.6877 17.1992L25.5122 23.6254C25.4403 23.7703 25.3344 23.8957 25.2036 23.9907C25.0728 24.0858 24.9208 24.1478 24.7608 24.1714L17.6684 25.2032C17.3 25.2584 16.9544 25.4151 16.6701 25.6559C16.3859 25.8967 16.1745 26.2119 16.0595 26.5662C15.9445 26.9205 15.9306 27.2998 16.0193 27.6615C16.1079 28.0233 16.2957 28.3532 16.5615 28.6142L21.6955 33.6229C21.8079 33.7375 21.8911 33.8773 21.9382 34.0308C21.9852 34.1842 21.9948 34.3466 21.9659 34.5045L20.7688 41.5669C20.7067 41.9348 20.7485 42.3128 20.8896 42.6583C21.0307 43.0038 21.2654 43.303 21.5674 43.5222C21.8694 43.7414 22.2266 43.8719 22.5988 43.899C22.971 43.9261 23.3434 43.8487 23.6739 43.6756L30.015 40.3397C30.1587 40.2643 30.3186 40.2248 30.4809 40.2248C30.6432 40.2248 30.803 40.2643 30.9467 40.3397L37.2878 43.6756C37.5766 43.8275 37.8981 43.9066 38.2244 43.906C38.5154 43.905 38.8026 43.8407 39.0662 43.7174C39.3297 43.5942 39.5633 43.4151 39.7506 43.1925C39.9379 42.9699 40.0745 42.7092 40.1509 42.4284C40.2273 42.1477 40.2416 41.8537 40.1929 41.5669L38.9958 34.5045C38.968 34.3446 38.9795 34.1804 39.0292 34.026C39.079 33.8716 39.1655 33.7315 39.2813 33.6179L44.4003 28.6142Z" fill="#5A59E6"/>
</svg>
