<svg width="60" height="60" viewBox="0 0 60 60" fill="none" xmlns="http://www.w3.org/2000/svg">
<circle cx="30" cy="30" r="30" fill="#ECECFF"/>
<path d="M36.874 11.842H23.0347C21.6497 11.842 20.5264 12.8078 20.5264 13.9994V46.0007C20.5264 47.1921 21.6495 48.1578 23.0347 48.1578H36.8743C38.2596 48.1578 39.3826 47.1921 39.3826 46.0007V13.9994C39.3824 12.8078 38.2593 11.842 36.874 11.842Z" fill="#5A59E6"/>
<path fill-rule="evenodd" clip-rule="evenodd" d="M36.874 11.842H23.0347C21.6497 11.842 20.5264 12.8078 20.5264 13.9994V46.0007C20.5264 47.1921 21.6495 48.1578 23.0347 48.1578H36.8743C38.2596 48.1578 39.3826 47.1921 39.3826 46.0007V13.9994C39.3824 12.8078 38.2593 11.842 36.874 11.842Z" fill="#5A59E6"/>
<path d="M37.3687 41.2147C37.3687 41.4158 37.196 41.5788 36.9833 41.5788H23.017C22.8042 41.5788 22.6318 41.416 22.6318 41.2147V15.6272C22.6318 15.4261 22.8042 15.2631 23.017 15.2631H36.9833C37.196 15.2631 37.3687 15.4261 37.3687 15.627V41.2147Z" fill="white"/>
<path d="M34.3367 26.8772L32.1418 29.0499L29.9469 31.2226C29.9452 31.2242 29.9433 31.2253 29.9417 31.2268C29.919 31.2488 29.895 31.2682 29.8701 31.2854C29.8661 31.2882 29.8621 31.2908 29.8581 31.2935C29.8328 31.31 29.8069 31.324 29.7801 31.3355C29.776 31.3372 29.7718 31.3387 29.7676 31.3404C29.7404 31.3512 29.7126 31.36 29.6845 31.3658C29.6813 31.3665 29.6781 31.3667 29.6749 31.3673C29.6455 31.3728 29.6158 31.3761 29.5861 31.3761C29.5676 31.3761 29.5487 31.3749 29.5303 31.3728C29.5255 31.3722 29.5208 31.3712 29.5159 31.3705C29.5024 31.3686 29.4888 31.3665 29.4755 31.3634C29.4695 31.362 29.4637 31.3601 29.4579 31.3584C29.4458 31.3552 29.4338 31.3518 29.4219 31.3476C29.4153 31.3453 29.4089 31.3425 29.4024 31.3399C29.3914 31.3355 29.3806 31.331 29.3699 31.3259C29.3629 31.3225 29.3561 31.3187 29.3492 31.315C29.3394 31.3097 29.3296 31.3042 29.3201 31.2982C29.3127 31.2936 29.3056 31.2887 29.2984 31.2837C29.2897 31.2776 29.2811 31.2713 29.2726 31.2647C29.2652 31.2588 29.2579 31.2527 29.2506 31.2463C29.2428 31.2395 29.2352 31.2324 29.2277 31.2251C29.2205 31.218 29.2134 31.2109 29.2065 31.2034C29.2036 31.2002 29.2004 31.1975 29.1976 31.1943L27.0025 28.7113C26.7882 28.4688 26.7882 28.076 27.0025 27.8335C27.2169 27.5911 27.5641 27.5911 27.7784 27.8335L29.6103 29.9059L33.6137 25.943C33.842 25.7166 34.1882 25.7432 34.3881 26.0012C34.5877 26.2595 34.5647 26.6514 34.3367 26.8772Z" fill="#5A59E6"/>
<path opacity="0.6" d="M29.9999 45.7893C29.4186 45.7893 28.9473 45.318 28.9473 44.7367C28.9473 44.1556 29.4186 43.6841 29.9999 43.6841C30.5812 43.6841 31.0525 44.1556 31.0525 44.7367C31.0525 45.318 30.5812 45.7893 29.9999 45.7893Z" fill="white"/>
</svg>
