<svg width="60" height="60" viewBox="0 0 60 60" fill="none" xmlns="http://www.w3.org/2000/svg">
<circle cx="30" cy="30" r="30" fill="#ECECFF"/>
<path fill-rule="evenodd" clip-rule="evenodd" d="M43.7281 30.4396V30.6154C43.7281 31.2308 43.7281 31.6703 43.7281 32.1978C43.6416 34.2198 42.8632 36.1538 41.4792 38.1758C39.7492 40.5494 37.3272 42.5714 34.1268 44.3297C33.1753 44.8571 32.1373 45.2967 31.0128 45.7363C30.8398 45.8242 30.5803 45.9121 30.4073 46C26.4284 44.4176 23.3144 42.4835 20.8059 39.9341C18.9895 38 17.7785 36.0659 17.346 33.956C17.173 32.989 17 32.1099 17 31.2308C17 28.2418 17 25.1648 17 22.1758C17 21.2088 17 20.3297 17 19.3626C21.4979 19.011 25.7364 17.2527 30.4073 14C33.9538 16.4615 37.3272 18.044 40.7007 18.8352C41.6522 19.011 42.5172 19.1868 43.4686 19.2747C43.5551 19.2747 43.7281 19.2747 43.8146 19.2747V23.5824L43.7281 30.4396Z" fill="#5B5ADB"/>
<path d="M36.8856 22.2989L39.0291 24.5194L28.2156 35.7181L22.5276 29.8296L24.6726 27.609L28.2156 31.2785L36.8856 22.2989Z" fill="white"/>
</svg>
