<svg width="60" height="60" viewBox="0 0 60 60" fill="none" xmlns="http://www.w3.org/2000/svg">
<circle cx="30" cy="30" r="30" fill="#ECECFF"/>
<path fill-rule="evenodd" clip-rule="evenodd" d="M28.9936 14C28.4413 14 27.9936 14.4477 27.9936 15V16.9963C26.3465 17.4758 22.9007 18.5883 21.2645 19.9245C20.6062 20.4731 20.4965 21.4605 21.0451 22.1188C21.5936 22.7771 22.5811 22.8868 23.2393 22.3383C25.3239 20.656 27.8108 19.7783 30.4805 19.7783C36.8439 19.7783 42.0005 24.9348 42.0005 31.2983C42.0005 37.6617 36.8439 42.8549 30.4805 42.8549C24.2633 42.8549 19.1799 37.8811 18.9605 31.7371H20.6428C21.4839 31.7371 21.9959 30.7863 21.5205 30.0914L18.2291 25.1908C17.7902 24.5691 16.8759 24.5691 16.4736 25.1908L13.1822 30.0914C12.7068 30.7863 13.2188 31.7371 14.0599 31.7371H15.7788C15.9982 39.6366 22.4713 46 30.4439 46C38.5262 46 45.1091 39.4171 45.1091 31.3348C45.1457 28.3726 44.2679 25.6297 42.7685 23.3257L43.9022 22.192C44.3777 21.7165 44.3777 20.912 43.9022 20.4L41.3788 17.8765C40.9034 17.4011 40.0988 17.4011 39.5868 17.8765L38.4531 19.0103C37.1616 18.1658 35.714 17.5229 34.2107 17.1177V15C34.2107 14.4477 33.763 14 33.2107 14H28.9936Z" fill="#5B5ADB"/>
<path d="M30.4806 40.2583C35.4177 40.2583 39.404 36.2354 39.404 31.3348C39.404 26.4342 35.3811 22.4114 30.4806 22.4114C30.0783 22.4114 29.7491 22.7405 29.7491 23.1428V31.0422L23.7514 36.1622C23.6051 36.272 23.532 36.4548 23.4954 36.6377C23.4588 36.8205 23.532 37.0034 23.6783 37.1497C25.3971 39.1245 27.8474 40.2583 30.4806 40.2583Z" fill="#575ED3"/>
</svg>
