<svg width="60" height="60" viewBox="0 0 60 60" fill="none" xmlns="http://www.w3.org/2000/svg">
<circle cx="30" cy="30" r="30" fill="#ECECFF"/>
<path d="M16 18C16 16.8954 16.8954 16 18 16H42C43.1046 16 44 16.8954 44 18V21H16V18Z" fill="#5B5ADB"/>
<path fill-rule="evenodd" clip-rule="evenodd" d="M16 23H44V42C44 43.1046 43.1046 44 42 44H18C16.8954 44 16 43.1046 16 42V23ZM18 31H22V35H18V31ZM22 37H18V41H22V37ZM24 25H28V29H24V25ZM28 31H24V35H28V31ZM24 37H28V41H24V37ZM35 25H31V29H35V25ZM31 37H35V41H31V37ZM42 25H38V29H42V25ZM38 31H42V35H38V31ZM32.4668 34.9018C32.3496 35.0327 32.1504 35.0327 32.0332 34.9018L30.0879 32.7291C29.9707 32.5982 29.9707 32.3757 30.0879 32.2448L30.5098 31.7736C30.627 31.6427 30.8145 31.6427 30.9316 31.7736L32.2559 33.2395L35.0684 30.0982C35.1855 29.9673 35.373 29.9673 35.4902 30.0982L35.9121 30.5694C36.0293 30.7003 36.0293 30.9228 35.9121 31.0537L32.4668 34.9018Z" fill="#5B5ADB"/>
</svg>
