<svg width="60" height="60" viewBox="0 0 60 60" fill="none" xmlns="http://www.w3.org/2000/svg">
  <circle cx="30" cy="30" r="30" fill="#ECECFF"/>
  <path d="M36.9283 22.9052V32.142C35.4994 32.8233 33.7668 34.2139 33.7668 36.3419C33.7668 38.1339 34.2029 39.4001 35.0934 40.2183C35.7912 40.8561 36.7448 41.1796 37.936 41.1796C38.2429 41.1796 38.5647 41.1578 38.9046 41.1143C42 40.7192 42 38.445 42 37.4712C42 36.8148 41.4886 36.2859 40.8539 36.2859C40.2252 36.2859 39.7138 36.8148 39.7138 37.4712C39.7138 38.3828 39.7138 38.6285 38.6279 38.7654C37.9571 38.8494 37.0637 38.8619 36.6064 38.4419C36.2364 38.109 36.0469 37.3997 36.0469 36.3388C36.0469 34.9015 38.3903 34.0833 38.4083 34.077C38.8836 33.9184 39.2085 33.4642 39.2085 32.9477V18.7613L40.7185 16.0267C41.0344 15.4604 40.7727 15 40.144 15H35.9657C35.337 15 34.5098 15.4169 34.1217 15.9302L15.6655 40.1833C14.1625 42.1582 15.571 45 18.0528 45H21.7794C23.6 45 25.2767 44.0104 26.1566 42.4166L36.9283 22.9052Z" fill="#5A59E6"/>
</svg>
