<svg width="88" height="88" viewBox="0 0 88 88" fill="none" xmlns="http://www.w3.org/2000/svg">
<path d="M3.53782 70.7148V70.6391C3.53782 68.5846 4.82351 66.1897 6.39909 65.2821L48.877 40.7534C49.5198 40.3878 50.1122 40.3248 50.5786 40.5013L49.066 39.7072C48.5871 39.5181 47.982 39.5811 47.3392 39.9467L4.86132 64.4754C3.28573 65.383 2.00005 67.7905 2.00005 69.8324V69.9081C2.00005 71.0803 2.41601 71.887 3.08406 72.1895L4.55881 72.971C3.94117 72.6685 3.53782 71.8744 3.53782 70.7148Z" fill="#737387"/>
<path d="M3.53786 70.7147V70.6391C3.53786 68.5845 4.82354 66.1896 6.39913 65.2821L48.877 40.7533C50.4526 39.8457 51.7383 40.7659 51.7383 42.8205V42.8961C51.7383 44.9507 50.4526 47.3456 48.877 48.2531L6.39913 72.7819C4.81094 73.6894 3.53786 72.7693 3.53786 70.7147Z" fill="#E873A9"/>
<path d="M46.9611 49.2616L25.8734 15.5944C25.1297 14.4096 25.7977 11.939 27.3733 10.0735L27.4364 10.0105C28.7094 8.48535 30.1968 7.84251 31.1043 8.29627L29.0876 7.14925C28.18 6.68287 26.6927 7.32571 25.407 8.85088L25.344 8.91391C23.781 10.7794 23.1003 13.2499 23.844 14.4348L44.9317 48.1146C45.0703 48.3414 45.2468 48.4927 45.4611 48.6061L47.4526 49.7406C47.2636 49.6271 47.0997 49.4759 46.9611 49.2616Z" fill="#737387"/>
<path d="M51.1963 47.9633L51.1333 48.0263C49.5703 49.8918 47.6922 50.4464 46.9485 49.2616L25.8734 15.5944C25.1297 14.4096 25.7978 11.939 27.3734 10.0735L27.4364 10.0105C28.9994 8.14502 30.8775 7.59041 31.6212 8.77525L52.6962 42.4424C53.4399 43.6147 52.7719 46.0978 51.1963 47.9633Z" fill="url(#paint0_linear)"/>
<path d="M50.793 44.9633C50.793 45.5557 50.377 46.2868 49.8602 46.5767C49.3434 46.8792 48.9275 46.6271 48.9275 46.0347C48.9275 45.4423 49.3434 44.7112 49.8602 44.4213C50.377 44.1188 50.793 44.3709 50.793 44.9633Z" fill="#303042"/>
<path d="M5.69334 73.5509C4.72278 73.0215 4.40766 71.5972 5.01269 69.9459L26.3525 11.9264C27.0961 9.88448 28.9742 8.29629 30.5372 8.35931H30.6003C30.8902 8.37192 31.1423 8.44755 31.3691 8.56099C31.3691 8.56099 29.4028 7.71647 29.1633 7.70387H29.1003C27.5373 7.62824 25.6592 9.22904 24.9155 11.271L3.57575 69.2905C2.98333 70.9039 3.27324 72.303 4.18077 72.8576L5.00008 73.2358L5.69334 73.5509Z" fill="#737387"/>
<path d="M6.48737 73.7651H6.5504C8.11338 73.8407 9.99149 72.2399 10.7352 70.198L32.0749 12.1911C32.8186 10.1491 32.1632 8.44746 30.6002 8.37184H30.5372C28.9742 8.29621 27.0961 9.89701 26.3524 11.939L5.00002 69.9585C4.25634 71.9878 4.92439 73.6895 6.48737 73.7651Z" fill="#FF80BB"/>
<path d="M8.85693 69.1771C8.85693 69.7696 8.44098 70.5006 7.92419 70.7905C7.40739 71.0931 6.99144 70.841 6.99144 70.2485C6.99144 69.6561 7.40739 68.925 7.92419 68.6351C8.42838 68.3326 8.85693 68.5847 8.85693 69.1771Z" fill="#303042"/>
<path d="M29.9951 11.7499C29.9951 12.3424 29.5792 13.0734 29.0624 13.3633C28.5456 13.6658 28.1296 13.4138 28.1296 12.8213C28.1296 12.2289 28.5456 11.4978 29.0624 11.2079C29.5792 10.918 29.9951 11.1575 29.9951 11.7499Z" fill="#303042"/>
<path d="M74.4609 53.9919C75.497 54.9182 75.5039 56.1533 74.4746 57.0864C74.2894 57.2511 74.0835 57.4089 73.8708 57.5393C71.8398 56.3111 68.4571 56.318 66.4467 57.5736C66.2271 57.4432 66.0144 57.2923 65.8223 57.1276C64.793 56.2013 64.7793 54.9662 65.8086 54.0399C67.8396 52.1873 72.4093 52.1599 74.4609 53.9919Z" fill="#A1A1B3"/>
<path d="M58.3845 54.3006L55.3105 54.3144L55.3243 56.9766L60.1273 56.9561C60.2165 57.1756 60.3263 57.4021 60.4773 57.6148C60.7174 58.0196 61.033 58.4038 61.4447 58.7744L58.0689 60.7436L58.4325 60.9563L61.2732 62.5756L61.3487 62.6099L64.7108 60.6407C65.0264 60.7367 65.3284 60.8397 65.6577 60.9357C66.3782 61.1279 67.1123 61.2788 67.8808 61.3749L67.8946 62.1845V64.1401L72.5124 64.1126L72.4986 62.1571L72.4849 61.3474C73.2465 61.2376 73.9944 61.0798 74.7012 60.8808C75.0168 60.7848 75.3462 60.6887 75.6481 60.5721L79.0377 62.507L79.0994 62.4796L81.9264 60.8191L82.2969 60.6132L78.9004 58.6783C79.2984 58.3009 79.614 57.9098 79.861 57.505C79.9914 57.2854 80.1149 57.059 80.1973 56.8394L84.9866 56.8188L84.9797 54.1497L81.892 54.1634L80.1904 54.1771C79.9502 53.6145 79.566 53.0587 79.0377 52.5372C78.9828 52.4892 78.921 52.4206 78.8593 52.3657L82.2283 50.3964L78.9622 48.5301L75.5795 50.4925C74.5914 50.1494 73.521 49.9024 72.4232 49.7583L72.4094 47L67.7916 47.0206L67.8122 49.7858C66.7007 49.9367 65.6371 50.1906 64.6491 50.5611L61.2595 48.6193L58.0208 50.5131L61.4173 52.4549C61.3487 52.5098 61.2938 52.5715 61.2252 52.6333C60.7106 53.1548 60.3332 53.7106 60.1136 54.2869L58.3845 54.3006ZM65.8155 54.0536C67.8465 52.1873 72.4094 52.1667 74.461 53.9987C75.4971 54.925 75.504 56.1601 74.4748 57.0933C74.2895 57.258 74.0836 57.4158 73.8709 57.5461C71.8674 58.7949 68.4641 58.8155 66.4468 57.5805C66.2272 57.4501 66.0145 57.2991 65.8224 57.1345C64.8 56.215 64.7863 54.9799 65.8155 54.0536Z" fill="#E8E8E8"/>
<path d="M82.3101 64.6135L79.0577 66.5073L79.0303 62.5139L82.2895 60.6132L82.3101 64.6135Z" fill="#A1A1B3"/>
<path d="M79.0581 66.5073L75.6617 64.5655L75.6411 60.5789L79.0307 62.5139L79.0581 66.5073Z" fill="#737387"/>
<path d="M72.5188 68.106L67.9078 68.1335L67.8804 64.1332L72.4982 64.1126L72.5188 68.106Z" fill="#A1A1B3"/>
<path d="M75.6618 64.5655C74.0493 65.1624 72.4986 65.3408 72.4986 65.3408L72.4712 61.3474C72.4712 61.3474 74.6806 60.9838 75.6412 60.5721L75.6618 64.5655Z" fill="#A1A1B3"/>
<path d="M84.9999 60.8122L82.2896 60.8259V60.6132L80.2037 59.4261L80.1899 56.8462L84.9793 56.8256L84.9999 60.8122Z" fill="#A1A1B3"/>
<path d="M80.2036 59.4262L78.8862 58.6783C79.7782 57.9029 80.1831 56.8463 80.1831 56.8463L80.2036 59.4262Z" fill="#737387"/>
<path d="M64.7172 64.6272L61.3413 66.6033V62.6099L64.6966 60.6407L64.7172 64.6272Z" fill="#A1A1B3"/>
<path d="M61.3413 66.6033L58.0684 64.737L58.0615 60.7436L61.3413 62.6099V66.6033Z" fill="#737387"/>
<path d="M67.8667 61.3749C67.8667 61.3749 67.8804 65.1282 67.8941 65.3683C66.2611 65.2105 64.7173 64.6273 64.7173 64.6273C64.7173 64.6273 64.6761 60.3732 64.6967 60.6476C66.0484 61.1416 67.8667 61.3749 67.8667 61.3749Z" fill="#737387"/>
<path d="M60.1341 59.5291L58.062 60.7435V60.9563L55.3448 60.9631L55.3242 56.9766L60.1204 56.956L60.1341 59.5291Z" fill="#A1A1B3"/>
<path d="M61.4375 58.7743L60.127 59.5291L60.1201 56.956C60.6347 58.0813 61.4375 58.7743 61.4375 58.7743Z" fill="#737387"/>
<path d="M60.0996 54.3007L58.0274 54.3144L58.0137 50.52L61.4101 52.4618C60.4289 53.3812 60.0996 54.3007 60.0996 54.3007Z" fill="#737387"/>
<path d="M82.2553 54.1702L80.1832 54.1839C80.1832 54.1839 79.8469 53.2988 78.8589 52.3656L82.2279 50.3964L82.2553 54.1702Z" fill="#737387"/>
<path d="M68.1071 73.7736C68.704 74.3088 68.7109 75.0293 68.1139 75.5713C68.011 75.6674 67.8875 75.7566 67.764 75.8389C66.5838 75.1253 64.6214 75.1322 63.455 75.8595C63.3314 75.784 63.2011 75.6948 63.0913 75.5988C62.4943 75.0567 62.4875 74.3431 63.0844 73.8079C64.2646 72.7238 66.9132 72.7101 68.1071 73.7736Z" fill="#A1A1B3"/>
<path d="M58.7752 73.9451L56.9912 73.952L56.9981 75.4958L59.7838 75.4821C59.8319 75.6125 59.9005 75.736 59.9897 75.8664C60.1269 76.0997 60.3122 76.3261 60.5523 76.5388L58.5899 77.6778L58.8027 77.8013L60.4494 78.7413L60.4906 78.7619L62.4393 77.6229C62.6245 77.6778 62.7961 77.7396 62.9882 77.7944C63.4067 77.9042 63.8321 77.9934 64.2781 78.0483L64.285 78.5149V79.6471L66.9679 79.6333L66.961 78.5012L66.9541 78.0415C67.4001 77.9797 67.8324 77.8905 68.2441 77.7739C68.4294 77.719 68.6146 77.6641 68.793 77.5955L70.7623 78.7207L70.7966 78.707L72.4365 77.7464L72.6492 77.6229L70.6731 76.4976C70.9064 76.2781 71.0848 76.0516 71.2288 75.8183C71.3043 75.6948 71.3729 75.5576 71.4278 75.4341L74.2067 75.4204L74.1999 73.8697L72.409 73.8765L71.421 73.8834C71.2837 73.554 71.0573 73.2315 70.7554 72.9365C70.728 72.9022 70.6937 72.861 70.6525 72.8336L72.608 71.6946L70.7142 70.6104L68.7518 71.7495C68.1755 71.5505 67.5579 71.4064 66.9198 71.324L66.913 69.7184L64.2301 69.7322L64.2438 71.3378C63.5988 71.427 62.9813 71.5779 62.4049 71.7906L60.4357 70.6653L58.5556 71.7632L60.5249 72.8885C60.4837 72.9228 60.4563 72.9571 60.4151 72.9914C60.1132 73.2933 59.8936 73.6158 59.7701 73.952L58.7752 73.9451ZM63.0842 73.801C64.2576 72.7169 66.913 72.7032 68.1069 73.7667C68.7038 74.3019 68.7107 75.0224 68.1137 75.5645C68.0108 75.6605 67.8873 75.7497 67.7638 75.8321C66.5973 76.5594 64.6212 76.5662 63.4548 75.8526C63.3312 75.7772 63.2009 75.688 63.0911 75.5919C62.4941 75.0567 62.4873 74.3431 63.0842 73.801Z" fill="#E8E8E8"/>
<path d="M72.6628 79.9353L70.7759 81.0331L70.7622 78.7139L72.6491 77.6161L72.6628 79.9353Z" fill="#A1A1B3"/>
<path d="M70.7764 81.0331L68.8003 79.9078L68.7935 77.5886L70.7627 78.7139L70.7764 81.0331Z" fill="#737387"/>
<path d="M66.9749 81.9594L64.2989 81.9799L64.2852 79.6608L66.968 79.647L66.9749 81.9594Z" fill="#A1A1B3"/>
<path d="M68.7998 79.9077C67.8667 80.2508 66.9678 80.3606 66.9678 80.3606L66.9541 78.0414C66.9541 78.0414 68.2372 77.8287 68.793 77.5954L68.7998 79.9077Z" fill="#A1A1B3"/>
<path d="M74.2204 77.7258L72.6491 77.7396V77.6161L71.4415 76.923L71.4277 75.4272L74.2066 75.4135L74.2204 77.7258Z" fill="#737387"/>
<path d="M71.4418 76.9231L70.6802 76.4908C71.2017 76.0379 71.4349 75.4272 71.4349 75.4272L71.4418 76.9231Z" fill="#A1A1B3"/>
<path d="M62.4531 79.9422L60.4907 81.088V78.7688L62.4394 77.6298L62.4531 79.9422Z" fill="#A1A1B3"/>
<path d="M60.4905 81.0879L58.5899 80.0107L58.583 77.6846L60.4905 78.7687V81.0879Z" fill="#737387"/>
<path d="M64.2783 78.0552C64.2783 78.0552 64.2851 80.2303 64.292 80.3675C63.3382 80.2715 62.4531 79.9352 62.4531 79.9352C62.4531 79.9352 62.4325 77.4651 62.4394 77.6229C63.2216 77.918 64.2783 78.0552 64.2783 78.0552Z" fill="#737387"/>
<path d="M59.7838 76.9848L58.5831 77.6847V77.8151H57.0118L56.9912 75.5027L59.7838 75.489V76.9848Z" fill="#A1A1B3"/>
<path d="M60.5458 76.5457L59.7842 76.9848L59.7773 75.489C60.0793 76.1409 60.5458 76.5457 60.5458 76.5457Z" fill="#737387"/>
<path d="M59.7701 73.9451L58.5694 73.952L58.5625 71.7495L60.5318 72.8747C59.9554 73.4168 59.7701 73.9451 59.7701 73.9451Z" fill="#737387"/>
<path d="M72.6289 73.8765L71.4282 73.8834C71.4282 73.8834 71.236 73.3688 70.6597 72.8267L72.6152 71.6877L72.6289 73.8765Z" fill="#737387"/>
<path d="M50.4662 67.1042C50.871 67.4679 50.8779 67.955 50.4731 68.3187C50.4044 68.3804 50.3221 68.4422 50.2398 68.4971C49.4438 68.0168 48.1127 68.0168 47.3236 68.5108C47.2413 68.4559 47.1521 68.401 47.0766 68.3324C46.6718 67.9687 46.6649 67.4816 47.0697 67.1179C47.8657 66.3906 49.6634 66.3837 50.4662 67.1042Z" fill="#737387"/>
<path d="M44.1466 67.2209L42.939 67.2278L42.9458 68.2707L44.8327 68.2639C44.867 68.3531 44.9151 68.4354 44.97 68.5246C45.066 68.6824 45.1895 68.8334 45.3474 68.9843L44.0162 69.7528L44.1603 69.8352L45.2719 70.4733L45.3062 70.487L46.6305 69.7116C46.754 69.7528 46.8706 69.7871 47.001 69.8283C47.2823 69.9038 47.5705 69.9587 47.8724 69.9998L47.8793 70.3155V71.084L49.6976 71.0702L49.6907 70.3017L49.6838 69.9861C49.9857 69.9449 50.2808 69.8832 50.5552 69.8008C50.6788 69.7665 50.8091 69.7254 50.9258 69.6842L52.2569 70.4458L52.2775 70.4321L53.389 69.7803L53.5331 69.6979L52.1951 68.9363C52.353 68.7853 52.4765 68.6344 52.5725 68.4766C52.6206 68.3942 52.6686 68.305 52.7029 68.2158L54.583 68.209V67.1592L53.3685 67.166L52.7029 67.1729C52.6068 66.9533 52.4559 66.7338 52.25 66.5279C52.2295 66.5073 52.2089 66.4799 52.1814 66.4593L53.5057 65.6839L52.2226 64.9498L50.8915 65.7182C50.5004 65.581 50.0818 65.485 49.6495 65.4301L49.6427 64.3459L47.8449 64.3597L47.8518 65.4438C47.4127 65.5055 46.9941 65.6016 46.6099 65.7526L45.2719 64.9909L44.0025 65.7388L45.3405 66.5005C45.313 66.521 45.2925 66.5485 45.265 66.5691C45.0592 66.7749 44.9151 66.9876 44.8259 67.2209H44.1466ZM47.0696 67.1249C47.8655 66.3907 49.6632 66.3838 50.466 67.1043C50.8709 67.4679 50.8777 67.9551 50.4729 68.3188C50.4043 68.3805 50.322 68.4423 50.2396 68.4972C49.4505 68.9843 48.1125 68.9981 47.3235 68.5109C47.2411 68.456 47.1519 68.4011 47.0765 68.3325C46.6716 67.9757 46.6648 67.4885 47.0696 67.1249Z" fill="#E8E8E8"/>
<path d="M53.5536 71.276L52.2705 72.017L52.2637 70.4526L53.5399 69.7047L53.5536 71.276Z" fill="#A1A1B3"/>
<path d="M52.2706 72.0171L50.9395 71.2555L50.9326 69.691L52.2638 70.4527L52.2706 72.0171Z" fill="#737387"/>
<path d="M49.7046 72.6483L47.8931 72.662L47.8794 71.0907L49.6977 71.077L49.7046 72.6483Z" fill="#A1A1B3"/>
<path d="M50.9392 71.2555C50.308 71.4888 49.6973 71.5574 49.6973 71.5574L49.6904 69.9929C49.6904 69.9929 50.5618 69.8489 50.9324 69.691L50.9392 71.2555Z" fill="#A1A1B3"/>
<path d="M54.6106 69.7802L53.5402 69.7871V69.7048L52.7237 69.2382L52.7168 68.2227L54.5969 68.2158L54.6106 69.7802Z" fill="#A1A1B3"/>
<path d="M52.7236 69.2382L52.209 68.9432C52.5589 68.6413 52.7167 68.2227 52.7167 68.2227L52.7236 69.2382Z" fill="#737387"/>
<path d="M46.6373 71.2829L45.313 72.0582L45.3062 70.4869L46.6304 69.7184L46.6373 71.2829Z" fill="#A1A1B3"/>
<path d="M45.3129 72.0582L44.0229 71.324V69.7527L45.3061 70.4869L45.3129 72.0582Z" fill="#737387"/>
<path d="M47.8723 70.0066C47.8723 70.0066 47.8791 71.4818 47.886 71.5779C47.241 71.5161 46.6372 71.2897 46.6372 71.2897C46.6372 71.2897 46.6235 69.6155 46.6303 69.7253C47.1587 69.9105 47.8723 70.0066 47.8723 70.0066Z" fill="#737387"/>
<path d="M44.8327 69.2794L44.0231 69.7528V69.842H42.9527L42.9458 68.2776L44.8327 68.2639V69.2794Z" fill="#A1A1B3"/>
<path d="M45.3471 68.9843L44.8325 69.2794V68.2639C45.0315 68.7099 45.3471 68.9843 45.3471 68.9843Z" fill="#737387"/>
<path d="M44.8258 67.2209L44.0093 67.2278L44.0024 65.7388L45.3404 66.5005C44.9493 66.8641 44.8258 67.2209 44.8258 67.2209Z" fill="#A1A1B3"/>
<path d="M53.5265 67.1728L52.71 67.1797C52.71 67.1797 52.5796 66.8297 52.1885 66.4661L53.5127 65.6907L53.5265 67.1728Z" fill="#737387"/>
<defs>
<linearGradient id="paint0_linear" x1="53" y1="49.885" x2="25.5697" y2="49.885" gradientUnits="userSpaceOnUse">
<stop stop-color="#FE7577"/>
<stop offset="1" stop-color="#FA6DB3"/>
</linearGradient>
</defs>
</svg>
