<svg width="140" height="123" viewBox="0 0 140 123" fill="none" xmlns="http://www.w3.org/2000/svg">
<path d="M130.479 122.628L88.9935 122.432C86.6 122.417 84.3102 121.45 82.6267 119.744C80.9431 118.038 80.0033 115.732 80.0135 113.331L80.451 9.02087C80.4627 6.61969 81.4239 4.32127 83.1235 2.63004C84.8231 0.938805 87.1224 -0.0070562 89.5166 3.96381e-05L131.002 0.19273C133.399 0.203714 135.693 1.16854 137.38 2.87512C139.067 4.5817 140.009 6.89035 140 9.2936L139.56 113.604C139.548 116.008 138.585 118.309 136.882 120.001C135.179 121.693 132.876 122.638 130.479 122.628Z" fill="#24263B"/>
<path d="M130.943 3.78876L122.9 3.75319C122.37 3.76255 121.866 3.98229 121.498 4.36415C121.13 4.74602 120.929 5.25877 120.937 5.78977V7.25421C120.947 7.78522 120.746 8.29829 120.378 8.68071C120.011 9.06313 119.507 9.28363 118.978 9.29375L103.297 9.21964C102.767 9.2049 102.265 8.98001 101.9 8.59432C101.535 8.20863 101.338 7.69363 101.352 7.16231V5.70084C101.365 5.16952 101.168 4.65452 100.803 4.26883C100.439 3.88313 99.9364 3.65825 99.4067 3.64351H96.5779L89.537 3.6109C88.7055 3.60739 87.8815 3.76815 87.112 4.08403C86.3425 4.3999 85.6426 4.86468 85.0521 5.45184C84.4617 6.03901 83.9924 6.73705 83.671 7.50611C83.3496 8.27517 83.1824 9.1002 83.1789 9.93408L82.7503 111.748C82.7432 113.431 83.4028 115.048 84.584 116.243C85.7652 117.438 87.3714 118.114 89.0493 118.122L130.452 118.315C131.284 118.318 132.107 118.158 132.877 117.842C133.646 117.527 134.346 117.062 134.937 116.475C135.527 115.889 135.997 115.191 136.318 114.422C136.64 113.653 136.807 112.828 136.81 111.994L137.242 10.1772C137.247 9.34279 137.088 8.51559 136.774 7.74286C136.46 6.97013 135.998 6.26702 135.413 5.67372C134.828 5.08043 134.132 4.60857 133.365 4.28514C132.598 3.96171 131.775 3.79303 130.943 3.78876Z" fill="#FAF8F8"/>
<path opacity="0.3" d="M108.253 88.3426C109.297 89.1332 110.864 89.1332 111.803 88.3426L126.003 76.3951C127.047 75.5166 127.047 74.1989 126.003 73.4082L123.706 71.3877C122.662 70.597 121.096 70.597 120.156 71.3877L110.028 79.909L100.005 71.3877C99.0655 70.597 97.3949 70.597 96.4553 71.3877L94.0539 73.4082C93.1142 74.1989 93.1142 75.5166 94.0539 76.3951L108.253 88.3426Z" fill="#FF678E"/>
<path opacity="0.15" d="M108.253 73.0662C109.297 73.8568 110.864 73.8568 111.803 73.0662L126.003 61.1187C127.047 60.2402 127.047 58.9225 126.003 58.1318L123.706 56.1113C122.662 55.3207 121.096 55.3207 120.156 56.1113L110.028 64.6327L100.005 56.1113C99.0655 55.3207 97.3949 55.3207 96.4553 56.1113L94.0539 58.1318C93.1142 58.9225 93.1142 60.2402 94.0539 61.1187L108.253 73.0662Z" fill="#FF678E"/>
<path opacity="0.05" d="M108.253 57.7893C109.297 58.58 110.864 58.58 111.803 57.7893L126.003 45.8419C127.047 44.9634 127.047 43.6456 126.003 42.855L123.706 40.8345C122.662 40.0438 121.096 40.0438 120.156 40.8345L110.028 49.3558L100.005 40.8345C99.0655 40.0438 97.3949 40.0438 96.4553 40.8345L94.0539 42.855C93.1142 43.6456 93.1142 44.9634 94.0539 45.8419L108.253 57.7893Z" fill="#FF678E"/>
<path d="M86.2908 98.8247L80.3431 70.3029C80.3431 70.3029 76.8558 56.5563 64.855 51.821L64.0271 51.5657C64.0075 51.5579 62.8867 51.2163 62.8711 51.2084C62.3869 51.02 60.4186 50.3917 59.8992 50.2307C43.7159 44.5884 39.4202 46.0569 22.5574 51.8445C22.5574 51.8445 15.0632 53.8706 11.4352 63.6985C7.80337 73.5265 0.852051 88.8947 0.852051 88.8947L17.6758 94.8668L20.9015 90.0491V107.832V123H40.869H67.1786L65.9016 107.832L65.679 89.146" fill="#FFB3C7"/>
<path d="M39.1958 53.5888C39.2036 53.6006 39.0669 53.7262 38.8092 53.95C38.6803 54.0639 38.5202 54.1974 38.3249 54.3348C38.1297 54.4762 37.911 54.645 37.6493 54.8021C37.1377 55.1358 36.4973 55.4735 35.7553 55.7916C35.0094 56.0939 34.1619 56.3687 33.252 56.5533C32.3382 56.7261 31.4517 56.7967 30.6472 56.7967C29.8427 56.785 29.1203 56.7143 28.5228 56.5965C28.2221 56.5533 27.9565 56.4748 27.7222 56.4198C27.4879 56.3687 27.2887 56.302 27.1286 56.247C26.8084 56.1371 26.6326 56.0743 26.6365 56.0586C26.6483 56.0193 27.359 56.2667 28.5462 56.4512C29.1398 56.5494 29.8545 56.6004 30.6472 56.6043C31.44 56.5926 32.3109 56.518 33.213 56.3491C34.1112 56.1685 34.9469 55.9054 35.685 55.6149C36.4192 55.3125 37.0596 54.9906 37.5751 54.6764C38.6061 54.0561 39.1684 53.5574 39.1958 53.5888Z" fill="#FAFAFA"/>
<g opacity="0.3">
<path opacity="0.3" d="M20.9099 102.586L24.7019 106.987H28.4314V111.786L66.9956 120.75L66.6832 117.016L30.3996 104.49H24.3192L21.3864 102.134L20.9099 102.586Z" fill="black"/>
</g>
<path d="M32.2685 98.6644L29.0505 98.0637C29.0505 98.0637 21.4275 89.6807 19.9943 89.559C18.8188 89.4608 12.3322 89.5236 10.0711 89.5511C9.64151 89.555 9.29395 89.9084 9.29395 90.3403C9.29395 90.7644 9.62589 91.1138 10.0477 91.1295L17.7097 91.4279L17.7449 92.0483L10.0711 92.1504C9.29004 92.2093 8.79017 93.454 11.2895 93.6778L17.7097 93.9056V94.3061L11.1997 95.2209C10.8717 95.268 10.0047 95.4369 9.99689 95.7706C9.99689 95.7706 9.60246 96.5913 11.4574 96.8229C12.094 96.9014 17.7449 96.713 17.7449 96.713L17.5262 97.2234L11.6761 98.4917C11.2505 98.5859 10.9693 98.9903 11.0279 99.4262C11.0904 99.8699 11.4848 100.184 11.93 100.141L18.1784 99.5597L24.3096 104.483H32.5106L32.2685 98.6644Z" fill="#FFD3BD"/>
<path d="M86.3013 98.8248L67.5874 102.524L65.6855 89.1421" fill="#FF80A1"/>
<path d="M65.0865 99.3359L30.3962 98.209L30.4001 110.263L53.4176 114.861L69.5775 117.457C79.6218 117.457 87.6548 108.186 86.1006 98.209L86.0576 98.2208L65.0865 99.3359Z" fill="#FFB3C7"/>
<path d="M74.6387 99.1118C74.6387 99.1196 74.4825 99.1314 74.1896 99.1432C73.8693 99.151 73.4398 99.1628 72.9008 99.1785C71.7527 99.1982 70.1398 99.2296 68.156 99.2649C64.1492 99.3238 58.6155 99.3906 52.5038 99.3317C46.3882 99.2728 40.8545 99.049 36.8555 98.778C34.856 98.6445 33.2392 98.515 32.1263 98.4011C31.5873 98.3461 31.1617 98.3029 30.8414 98.2676C30.5485 98.2362 30.3962 98.2126 30.3962 98.2048C30.3962 98.1969 30.5524 98.2008 30.8453 98.2126C31.1656 98.2323 31.5912 98.2597 32.1341 98.2951C33.251 98.3736 34.8677 98.4757 36.8672 98.5856C40.8662 98.8094 46.396 98.9979 52.5077 99.0607C58.6155 99.1196 64.1492 99.0804 68.156 99.0725C70.1398 99.0725 71.7527 99.0725 72.9008 99.0725C73.4437 99.0804 73.8732 99.0843 74.1896 99.0882C74.4825 99.0961 74.6387 99.1039 74.6387 99.1118Z" fill="#263238"/>
<path d="M30.3933 98.3135C30.3972 98.3135 30.4011 98.3881 30.405 98.5294C30.4089 98.6826 30.4128 98.8907 30.4167 99.1537C30.4206 99.7152 30.4323 100.516 30.4401 101.529C30.448 103.591 30.4636 106.524 30.4792 110.05L30.4128 109.967C34.3298 110.811 39.0278 111.856 44.0812 112.924C51.0129 114.396 57.3199 115.562 61.9086 116.273C64.2009 116.627 66.0637 116.886 67.3486 117.058C67.9812 117.141 68.4772 117.208 68.8286 117.255C68.9888 117.278 69.1176 117.298 69.2153 117.31C69.3012 117.325 69.3441 117.333 69.3441 117.337C69.3441 117.341 69.2973 117.337 69.2114 117.333C69.1137 117.325 68.9849 117.314 68.8247 117.298C68.4733 117.259 67.9734 117.208 67.3368 117.141C66.0481 116.996 64.1814 116.756 61.8851 116.418C57.2887 115.743 50.97 114.6 44.0382 113.124C38.9809 112.056 34.2868 111 30.3738 110.136L30.3074 110.12V110.05C30.3191 106.524 30.3308 103.591 30.3386 101.529C30.3464 100.516 30.3542 99.7152 30.362 99.1537C30.366 98.8907 30.3699 98.6826 30.3738 98.5294C30.3855 98.3881 30.3894 98.3135 30.3933 98.3135Z" fill="#263238"/>
<path d="M27.4384 65.3435C27.4227 65.3435 27.4345 65.1315 27.4618 64.7545C27.4852 64.3776 27.5243 63.8318 27.536 63.1565C27.575 61.8097 27.5126 59.9368 27.1728 57.9068C26.8174 55.8846 26.3683 54.0431 25.6693 52.9005C25.3295 52.3272 24.9312 51.9464 24.6344 51.7265C24.3298 51.5105 24.1345 51.4281 24.1463 51.4085C24.1502 51.4006 24.197 51.4202 24.2907 51.4556C24.3845 51.4909 24.5172 51.5577 24.6813 51.6598C25.0015 51.8639 25.4272 52.2409 25.7943 52.822C26.1653 53.3992 26.4816 54.157 26.7315 55.0208C26.9815 55.8846 27.208 56.8466 27.3759 57.8714C27.7195 59.9171 27.7586 61.8057 27.6805 63.1604C27.6492 63.8397 27.5868 64.3854 27.5399 64.7624C27.4891 65.1393 27.4501 65.3435 27.4384 65.3435Z" fill="#263238"/>
<path d="M65.5903 54.7466C65.645 54.7466 65.6918 62.7605 65.6918 72.6434C65.6918 82.5303 65.645 90.5442 65.5903 90.5442C65.5356 90.5442 65.4888 82.5303 65.4888 72.6434C65.4888 62.7605 65.5356 54.7466 65.5903 54.7466Z" fill="#263238"/>
<path d="M77.5602 95.0042C77.5602 95.0434 76.9705 95.0238 76.0332 95.1416C75.5646 95.1966 75.0101 95.3026 74.4087 95.4596C73.8073 95.6245 73.159 95.8484 72.499 96.1428C71.8429 96.4452 71.2493 96.7907 70.7299 97.1323C70.2144 97.4857 69.7692 97.8312 69.4178 98.1493C68.7109 98.7814 68.336 99.2369 68.3087 99.2134C68.297 99.2055 68.3829 99.0838 68.5508 98.8757C68.7148 98.6636 68.9765 98.377 69.3201 98.0433C69.6638 97.7095 70.1051 97.3443 70.6245 96.9753C71.1478 96.6179 71.7492 96.2606 72.417 95.9544C73.0848 95.656 73.7487 95.4321 74.3618 95.2751C74.9788 95.1259 75.5412 95.0316 76.0176 94.9963C76.4941 94.957 76.8807 94.9453 77.1501 94.9649C77.4118 94.9767 77.5602 94.9924 77.5602 95.0042Z" fill="#263238"/>
<g opacity="0.3">
<g opacity="0.3">
<path opacity="0.3" d="M27.7653 96.6775C33.6115 93.1672 37.2629 87.3521 40.8284 81.5213C44.3938 75.6905 47.7172 69.5652 52.6612 64.8574C54.9341 62.6978 57.5896 60.872 58.4254 57.8447L49.537 64.9477L24.7778 93.5756L27.7653 96.6775Z" fill="black"/>
</g>
</g>
<path d="M11.7154 81.3131C11.7232 81.3917 10.3173 81.3367 8.72009 81.8825C7.92342 82.1573 7.24 82.5068 6.74404 82.7581C6.25198 83.0133 5.94347 83.1743 5.92785 83.1507C5.91613 83.1272 6.1934 82.923 6.67375 82.6324C7.15409 82.3458 7.83751 81.9688 8.6537 81.6901C9.46989 81.4113 10.247 81.3053 10.8094 81.2778C11.3678 81.2542 11.7154 81.2896 11.7154 81.3131Z" fill="#263238"/>
<path d="M11.7154 81.3131C11.7232 81.3917 10.3173 81.3367 8.72009 81.8825C7.92342 82.1573 7.24 82.5068 6.74404 82.7581C6.25198 83.0133 5.94347 83.1743 5.92785 83.1507C5.91613 83.1272 6.1934 82.923 6.67375 82.6324C7.15409 82.3458 7.83751 81.9688 8.6537 81.6901C9.46989 81.4113 10.247 81.3053 10.8094 81.2778C11.3678 81.2542 11.7154 81.2896 11.7154 81.3131Z" fill="#263238"/>
<path d="M65.4354 94.1446C65.4159 94.1799 65.0136 93.7873 64.0842 93.5203C63.1664 93.2337 61.7254 93.2376 60.093 93.7716C58.4372 94.2624 56.7189 95.4403 54.5983 96.3277C53.54 96.7557 52.3372 97.0934 51.068 97.007C49.7988 96.9442 48.5608 96.4573 47.3815 95.8683C46.1982 95.2754 45.093 94.604 43.9722 94.0818C42.8553 93.5517 41.6993 93.2258 40.5746 93.1159C38.3135 92.8999 36.2593 93.4261 34.7246 94.1799C33.1664 94.9142 32.1198 95.8879 31.4676 96.5869C31.3114 96.7675 31.1669 96.9285 31.042 97.0698C30.9326 97.2151 30.8389 97.3407 30.7608 97.4468C30.6905 97.541 30.6319 97.6156 30.585 97.6784C30.546 97.7295 30.5226 97.753 30.5187 97.753C30.5147 97.753 30.5304 97.7216 30.5655 97.6666C30.6085 97.6038 30.6592 97.5214 30.7256 97.4232C30.7998 97.3133 30.8896 97.1837 30.9912 97.0306C31.1122 96.8853 31.2489 96.7204 31.4051 96.5358C32.0456 95.8133 33.0883 94.816 34.6582 94.0543C35.4314 93.6577 36.3375 93.3357 37.3372 93.1237C38.3369 92.9117 39.4382 92.8214 40.5864 92.9313C41.7345 93.0334 42.9178 93.3672 44.0503 93.9012C45.1867 94.4273 46.2919 95.0987 47.4635 95.6877C48.6311 96.2727 49.8457 96.7439 51.0719 96.8107C52.2982 96.897 53.4697 96.579 54.5202 96.1589C56.6174 95.2951 58.3552 94.121 60.0422 93.6381C61.702 93.1159 63.1742 93.1316 64.0998 93.4496C64.5645 93.5949 64.9004 93.7794 65.1152 93.9169C65.2128 93.9836 65.287 94.0425 65.3534 94.0857C65.4119 94.121 65.4354 94.1446 65.4354 94.1446Z" fill="#FAFAFA"/>
<path d="M82.4047 79.6253C82.3969 79.6528 82.1626 79.5075 81.7018 79.4918C81.2449 79.4643 80.5732 79.6292 79.8663 80.0572C79.1439 80.4616 78.4487 81.1998 77.4646 81.7574C76.9764 82.0283 76.3828 82.2325 75.7541 82.1893C75.1293 82.1539 74.5239 81.9027 73.9538 81.616C73.3797 81.3255 72.8486 80.9996 72.298 80.7797C71.7512 80.552 71.1928 80.4027 70.6539 80.3164C70.1149 80.2261 69.5955 80.2064 69.1074 80.23C68.6231 80.2496 68.1701 80.3164 67.7679 80.4067C66.9595 80.5873 66.3386 80.8582 65.9246 81.0702C65.5106 81.2783 65.2959 81.4276 65.2841 81.4079C65.2802 81.404 65.331 81.3608 65.4325 81.2901C65.5341 81.2194 65.6825 81.1095 65.8895 80.9996C66.2956 80.764 66.9165 80.4695 67.7366 80.2653C68.1467 80.1632 68.6036 80.0847 69.0996 80.0611C69.5955 80.0297 70.1305 80.0415 70.6812 80.1279C71.2357 80.2104 71.8059 80.3596 72.3722 80.5912C72.9423 80.815 73.4773 81.1448 74.0436 81.4276C74.606 81.7142 75.18 81.9498 75.7619 81.9851C76.3438 82.0283 76.8944 81.8438 77.3709 81.5885C78.3237 81.0663 79.0384 80.336 79.7882 79.9316C80.5224 79.5075 81.2253 79.3583 81.7018 79.4133C81.94 79.4329 82.1157 79.4918 82.2329 79.5389C82.3501 79.59 82.4047 79.6175 82.4047 79.6253Z" fill="#FAFAFA"/>
<path d="M65.2328 74.2495C65.2289 74.2574 65.1391 74.2417 64.9673 74.2024C64.8814 74.1867 64.7759 74.1553 64.651 74.1357C64.5221 74.12 64.3737 74.1003 64.2136 74.0768C63.5536 74.0022 62.5773 74.0414 61.4291 74.3634C60.281 74.6854 58.9884 75.29 57.6254 76.0871C56.2625 76.8803 54.798 77.858 53.0915 78.5647C52.2401 78.9142 51.3692 79.1812 50.5023 79.2793C49.6353 79.3814 48.7801 79.3186 48.0029 79.1066C47.2258 78.8985 46.5346 78.5765 45.9019 78.2624C45.2693 77.9483 44.6913 77.6381 44.1524 77.3829C43.0784 76.8606 42.1373 76.6054 41.4734 76.5701C41.1414 76.5661 40.8837 76.5622 40.7079 76.5936C40.5322 76.6133 40.4385 76.6172 40.4385 76.6093C40.4385 76.6015 40.5283 76.5819 40.7001 76.5504C40.872 76.5073 41.1336 76.4955 41.4734 76.4876C42.149 76.4994 43.1175 76.7389 44.207 77.2494C44.7538 77.4967 45.3396 77.7991 45.9722 78.1053C46.6048 78.4077 47.2883 78.7218 48.0459 78.9181C48.7996 79.1184 49.6275 79.1772 50.4749 79.0752C51.3224 78.9809 52.1737 78.7179 53.0133 78.3723C54.6965 77.6773 56.1532 76.7114 57.5317 75.9222C58.9103 75.1291 60.2263 74.5322 61.394 74.222C62.5617 73.9119 63.5575 73.8962 64.2253 73.9982C64.3893 74.0257 64.5338 74.0532 64.6666 74.0768C64.7916 74.1043 64.897 74.1396 64.9829 74.1632C65.1469 74.2142 65.2328 74.2456 65.2328 74.2495Z" fill="#FAFAFA"/>
<path d="M77.3195 62.1708C77.3274 62.1826 77.179 62.269 76.9017 62.4143C76.6244 62.5596 76.2261 62.7598 75.7145 62.9875C75.2068 63.2113 74.5859 63.4548 73.8634 63.6315C73.1487 63.8121 72.3169 63.8946 71.4656 63.7964C70.6143 63.7061 69.8293 63.5255 69.1068 63.4273C68.3883 63.3213 67.7322 63.3134 67.1894 63.392C66.092 63.5412 65.557 64.0438 65.5413 64.0045C65.5374 64.0006 65.5687 63.9692 65.6273 63.9142C65.6897 63.8592 65.7874 63.7846 65.9202 63.7022C66.1857 63.5372 66.6114 63.3449 67.1659 63.2506C67.7205 63.1525 68.3961 63.1446 69.1303 63.2428C69.8644 63.3331 70.6533 63.5098 71.4851 63.5961C73.1605 63.7964 74.6445 63.2585 75.6598 62.858C76.1714 62.6538 76.5815 62.4692 76.8665 62.3475C77.1555 62.2219 77.3156 62.1591 77.3195 62.1708Z" fill="#FAFAFA"/>
<path d="M26.8246 68.7094C26.8168 68.7369 26.5942 68.5602 26.1334 68.5406C25.6765 68.517 25.0087 68.7055 24.3448 69.2081C24.005 69.4476 23.6575 69.746 23.2357 70.0208C22.8178 70.2996 22.3102 70.5077 21.7556 70.6177C20.6387 70.8336 19.3812 70.6255 18.1745 70.1897C16.9639 69.7499 15.8821 69.1923 14.8433 68.8233C14.3279 68.6348 13.8241 68.4934 13.3476 68.411C12.8673 68.3325 12.4143 68.3089 12.0042 68.3285C11.1763 68.3717 10.532 68.6034 10.1336 68.8311C9.73139 69.0588 9.54394 69.2434 9.52832 69.2277C9.52442 69.2238 9.56737 69.1766 9.65719 69.0903C9.74701 69.0039 9.89151 68.8861 10.0907 68.7644C10.489 68.5091 11.1451 68.2461 11.9925 68.1872C12.4143 68.1558 12.8829 68.1715 13.375 68.2461C13.867 68.3246 14.3825 68.462 14.9058 68.6466C15.9602 69.0078 17.0498 69.5654 18.2409 69.9973C19.4242 70.4253 20.6504 70.6294 21.7205 70.4331C22.2516 70.335 22.7358 70.1426 23.142 69.8795C23.552 69.6203 23.9074 69.3298 24.2589 69.0903C24.9462 68.5916 25.6609 68.411 26.1334 68.462C26.3716 68.4817 26.5512 68.5484 26.6606 68.6034C26.7777 68.6623 26.8285 68.7055 26.8246 68.7094Z" fill="#FAFAFA"/>
<path d="M48.8278 98.7815C48.8317 98.7776 48.8747 98.813 48.9528 98.8915C49.0348 98.9661 49.1363 99.0878 49.2613 99.2527C49.4995 99.5865 49.7924 100.136 49.8979 100.878C50.0033 101.609 49.9213 102.559 49.3785 103.407C48.8591 104.251 47.9765 104.923 47.4766 105.892C47.2384 106.379 47.1798 106.917 47.2813 107.42C47.379 107.922 47.5821 108.39 47.789 108.822C48.2147 109.678 48.6091 110.51 48.5935 111.28C48.5818 112.049 48.1991 112.603 47.8632 112.846C47.6953 112.972 47.5352 113.027 47.4337 113.054C47.3243 113.074 47.2696 113.078 47.2696 113.074C47.2618 113.05 47.504 113.039 47.8164 112.783C48.1171 112.536 48.4607 111.998 48.4529 111.28C48.449 110.557 48.0624 109.764 47.6211 108.904C47.4063 108.468 47.1915 107.993 47.0861 107.455C46.9728 106.921 47.0353 106.32 47.2931 105.798C47.5508 105.28 47.9218 104.856 48.2694 104.463C48.6208 104.071 48.9606 103.697 49.2184 103.297C49.7417 102.5 49.8393 101.597 49.7534 100.89C49.6675 100.172 49.4058 99.6297 49.191 99.2881C48.9762 98.9582 48.8122 98.7972 48.8278 98.7815Z" fill="#FAFAFA"/>
<path d="M65.2026 116.019C65.1987 116.023 65.1479 115.98 65.0542 115.89C64.9683 115.795 64.8472 115.642 64.7535 115.418C64.5465 114.971 64.5192 114.205 64.8511 113.392C65.0113 112.988 65.269 112.568 65.6088 112.187C65.9407 111.798 66.3351 111.425 66.7296 111.025C67.124 110.624 67.5223 110.184 67.8152 109.654C68.1081 109.128 68.2721 108.512 68.3385 107.868C68.4674 106.576 68.237 105.331 68.1706 104.193C68.0886 103.054 68.1862 101.986 68.5494 101.185C68.897 100.38 69.4164 99.8538 69.8342 99.6065C70.0412 99.4769 70.2169 99.4062 70.338 99.367C70.4591 99.3316 70.5255 99.3159 70.5255 99.3238C70.5333 99.3473 70.2677 99.4062 69.8772 99.6732C69.4867 99.9363 69.0024 100.455 68.6822 101.244C68.3502 102.025 68.2682 103.058 68.3581 104.181C68.4323 105.308 68.6744 106.556 68.5416 107.891C68.4752 108.555 68.3034 109.199 67.991 109.752C67.6824 110.306 67.2646 110.758 66.8662 111.158C66.0579 111.955 65.2963 112.65 64.9878 113.451C64.652 114.229 64.6559 114.955 64.8316 115.395C64.9917 115.835 65.226 116.003 65.2026 116.019Z" fill="#FAFAFA"/>
<path d="M67.2044 121.229C67.2044 121.229 67.0677 121.347 66.7709 121.504C66.4741 121.665 65.9977 121.849 65.3533 121.912C64.7128 121.979 63.9123 121.908 63.0336 121.649C62.151 121.402 61.2137 120.922 60.2257 120.345C59.2338 119.78 58.1677 119.101 56.9024 118.673C55.641 118.245 54.1765 118.209 52.712 118.527C51.2398 118.834 49.7714 119.442 48.2523 120.078C46.737 120.707 45.1593 121.402 43.4293 121.751C42.5662 121.932 41.6876 121.987 40.8284 121.896C39.9693 121.814 39.1453 121.547 38.4033 121.174C36.9076 120.424 35.7165 119.336 34.498 118.449C33.8888 118.005 33.2796 117.589 32.643 117.283C32.4829 117.204 32.3228 117.13 32.1666 117.055C32.0065 116.984 31.8425 116.933 31.6784 116.87C31.3582 116.741 31.0263 116.666 30.706 116.58C29.4095 116.262 28.1442 116.27 27.0234 116.431C25.8987 116.596 24.9107 116.917 24.0984 117.31C23.8914 117.4 23.7039 117.518 23.5204 117.612C23.3329 117.707 23.1611 117.813 23.001 117.923C22.8409 118.029 22.6808 118.127 22.5363 118.229C22.3957 118.339 22.2668 118.441 22.1418 118.543C21.8841 118.732 21.6888 118.94 21.5092 119.105C21.3257 119.269 21.189 119.426 21.0796 119.552C20.9742 119.67 20.8883 119.764 20.8219 119.839C20.7633 119.902 20.7321 119.933 20.7282 119.933C20.7242 119.929 20.7516 119.894 20.8063 119.827C20.8687 119.752 20.9468 119.65 21.0484 119.529C21.1538 119.395 21.2866 119.234 21.4662 119.065C21.6459 118.892 21.8372 118.68 22.0911 118.484C22.216 118.382 22.3488 118.276 22.4855 118.162C22.63 118.056 22.7862 117.954 22.9502 117.844C23.1103 117.73 23.2822 117.62 23.4696 117.522C23.6571 117.424 23.8445 117.302 24.0515 117.208C24.8716 116.8 25.8674 116.47 27.0078 116.289C28.1442 116.116 29.429 116.101 30.7529 116.419C31.0809 116.505 31.4207 116.58 31.7448 116.709C31.9088 116.772 32.0768 116.823 32.2408 116.894C32.4009 116.969 32.5649 117.047 32.7289 117.126C33.3811 117.44 34.002 117.856 34.6152 118.304C35.8453 119.191 37.0364 120.271 38.497 121.001C39.2234 121.362 40.02 121.621 40.8557 121.7C41.6876 121.782 42.5467 121.731 43.3941 121.555C45.0929 121.209 46.6628 120.526 48.182 119.898C49.7011 119.266 51.1812 118.657 52.6769 118.347C54.1648 118.025 55.6683 118.068 56.9609 118.516C58.2497 118.959 59.3158 119.65 60.3038 120.224C61.284 120.809 62.2018 121.288 63.0726 121.543C63.9357 121.81 64.7206 121.888 65.3533 121.833C65.9859 121.786 66.4585 121.614 66.7592 121.468C67.056 121.323 67.2005 121.217 67.2044 121.229Z" fill="#FAFAFA"/>
<path d="M45.4822 55.7327C49.8404 55.9486 53.5894 52.6622 53.9721 48.292C54.1986 45.7005 54.3783 43.486 54.3783 43.486C54.3783 43.486 61.0328 43.3172 61.9584 36.7718C62.8839 30.2263 63.6962 15.023 63.6962 15.023C56.5691 10.7785 47.712 10.7432 40.5498 14.9327L39.4876 15.5531L37.7732 47.1337C37.5311 51.6531 40.9872 55.5128 45.4822 55.7327Z" fill="#FFD3BD"/>
<path d="M55.2954 32.2472C55.2993 32.1765 55.8695 32.1333 56.7872 32.1255C57.0254 32.1294 57.2168 32.1019 57.2519 31.9763C57.3144 31.8388 57.2558 31.5758 57.1699 31.2773C57.0176 30.6491 56.8614 30.013 56.6974 29.3495C56.053 26.6088 55.643 24.3589 55.7836 24.3236C55.9202 24.2922 56.5568 26.4871 57.2012 29.2277C57.3496 29.8952 57.4941 30.5352 57.6346 31.1635C57.6854 31.4462 57.8065 31.7878 57.6346 32.1608C57.5448 32.3493 57.3418 32.4631 57.1816 32.4867C57.0215 32.5142 56.8887 32.4985 56.7755 32.4867C55.8578 32.4082 55.2954 32.3179 55.2954 32.2472Z" fill="#263238"/>
<path d="M54.4068 43.3937C54.4068 43.3937 50.2438 43.1934 46.2175 39.856C46.2175 39.856 47.6195 44.8386 54.2037 45.0939L54.4068 43.3937Z" fill="#EB996E"/>
<path d="M63.6161 16.6911C63.6161 16.6911 59.5156 18.4148 54.4583 15.5171C51.1388 13.6166 47.2102 12.5604 46.2963 13.2004C45.3825 13.8405 45.0037 17.3664 41.5671 18.2106C41.5671 18.2106 41.4304 24.9681 38.767 24.5793C36.1076 24.1906 38.3492 13.8365 38.3492 13.8365L45.0701 10.9859L52.2831 10.0239L58.9571 11.3511L64.0847 13.0748L63.6161 16.6911Z" fill="#263238"/>
<path d="M39.4129 22.4512C39.3075 22.3884 35.1055 20.5351 34.6681 25.0348C34.2307 29.5346 38.8154 29.0477 38.8389 28.9181C38.8584 28.7885 39.4129 22.4512 39.4129 22.4512Z" fill="#FFD3BD"/>
<path d="M37.631 27.0812C37.6114 27.0655 37.5489 27.1283 37.4084 27.1754C37.2756 27.2225 37.0491 27.2421 36.8226 27.1322C36.3657 26.9123 36.0415 26.1192 36.1001 25.3025C36.1274 24.8902 36.2524 24.5093 36.4281 24.1991C36.5961 23.885 36.8304 23.673 37.0725 23.6534C37.3146 23.6219 37.4708 23.7829 37.5138 23.9125C37.5607 24.046 37.5255 24.1324 37.5489 24.1402C37.5607 24.152 37.6505 24.0735 37.6349 23.885C37.6231 23.7947 37.5841 23.6808 37.4865 23.5866C37.3888 23.4884 37.2326 23.4295 37.0647 23.4295C36.7171 23.4178 36.3774 23.7083 36.1821 24.046C35.9712 24.3837 35.8228 24.8117 35.7916 25.275C35.733 26.1859 36.1118 27.0772 36.7406 27.3285C37.0491 27.4424 37.3185 27.3717 37.4669 27.2775C37.6114 27.1872 37.6466 27.089 37.631 27.0812Z" fill="#EB996E"/>
<path d="M44.5361 13.9191C43.6223 14.9007 42.6928 15.8902 41.5564 16.6008C40.42 17.3115 39.0336 17.716 37.7332 17.4136C36.4288 17.1113 35.2768 15.9765 35.226 14.6337C35.1713 13.2908 36.4796 11.9794 37.7839 12.266C36.8975 12.2817 36.1555 11.2726 36.4327 10.4245C36.71 9.5764 37.9011 9.20731 38.604 9.74916C37.4715 9.53713 37.3427 7.72703 38.2448 7.00456C39.1469 6.28209 40.4747 6.43915 41.5408 6.87498C42.6108 7.31082 43.591 7.98618 44.7197 8.22962C46.4887 8.61048 48.3047 7.87231 49.8707 6.95744C51.4367 6.04257 52.9246 4.92353 54.6663 4.44057C56.8064 3.84375 59.1222 4.27959 61.1685 5.14341C62.8673 5.86196 64.4802 6.89854 65.5853 8.38275C66.6905 9.86695 67.2372 11.838 66.7452 13.6246C66.2531 15.4111 64.6012 16.8953 62.754 16.9032C62.754 16.9032 58.6106 17.3233 55.2365 14.8065C51.8623 12.2896 44.7509 12.6233 44.7509 12.6233L44.5361 13.9191Z" fill="#263238"/>
<path d="M38.301 8.68159C38.2932 8.69729 38.383 8.76797 38.5588 8.88969C38.7345 9.01534 39.0079 9.18025 39.3632 9.38443C40.0779 9.78493 41.1675 10.2875 42.5929 10.6762C44.0105 11.061 45.7756 11.3084 47.7282 11.167C49.6887 11.0375 51.7467 10.4014 53.8907 9.87524C56.0269 9.34516 58.1513 9.08209 59.9829 9.53756C61.8144 9.96162 63.2594 11.0767 63.892 12.3371C64.5364 13.6093 64.4583 14.854 64.2318 15.604C63.9975 16.3735 63.6733 16.7151 63.7163 16.7426C63.728 16.7544 63.81 16.672 63.9506 16.507C64.0756 16.3304 64.2669 16.0594 64.4075 15.6629C64.7043 14.8933 64.8488 13.574 64.1966 12.184C63.5484 10.798 62.0175 9.57682 60.0883 9.10172C58.1513 8.59913 55.941 8.86613 53.7775 9.40406C51.6062 9.93806 49.591 10.5741 47.6931 10.7234C45.7991 10.8843 44.0729 10.6802 42.6749 10.3425C39.8592 9.65535 38.344 8.58343 38.301 8.68159Z" fill="#455A64"/>
<path d="M36.2874 15.6347C36.2367 15.6622 36.3812 16.102 36.8654 16.6595C37.3379 17.2132 38.1971 17.8532 39.314 18.1006C40.4309 18.344 41.4775 18.1163 42.1375 17.8061C42.8053 17.4998 43.1216 17.1582 43.0864 17.115C43.0435 17.0522 42.6686 17.2838 42.0164 17.488C41.372 17.6961 40.4192 17.8453 39.4155 17.6294C38.4119 17.4095 37.6074 16.8794 37.1075 16.42C36.5999 15.9606 36.3538 15.5955 36.2874 15.6347Z" fill="#455A64"/>
<path d="M37.6852 13.4138C37.572 13.4688 37.9156 14.2855 38.7826 14.8823C39.6457 15.487 40.5282 15.5224 40.5361 15.3967C40.5634 15.2593 39.8175 15.0276 39.0521 14.4858C38.2827 13.9596 37.8024 13.3392 37.6852 13.4138Z" fill="#455A64"/>
<path d="M65.8205 19.6905C65.8791 19.7062 66.008 19.4824 66.0392 19.078C66.0744 18.6814 65.9884 18.0963 65.6448 17.5663C65.3011 17.0362 64.8051 16.7181 64.4302 16.5886C64.0514 16.4551 63.7976 16.4826 63.7859 16.5415C63.7468 16.671 64.6685 16.9302 65.2425 17.8254C65.8244 18.7246 65.6877 19.6748 65.8205 19.6905Z" fill="#263238"/>
<path d="M68.1354 13.2347C68.0026 13.1798 67.5106 14.3734 66.339 15.355C65.1869 16.3602 63.9373 16.6586 63.9724 16.796C63.9685 16.9217 65.3822 16.8157 66.6514 15.7202C67.9284 14.6404 68.2604 13.2504 68.1354 13.2347Z" fill="#455A64"/>
<path d="M61.3476 24.9993C61.2968 25.5333 60.8087 25.9299 60.2542 25.8867C59.6996 25.8435 59.2935 25.3802 59.3403 24.8462C59.3911 24.3122 59.8793 23.9156 60.4338 23.9588C60.9883 23.998 61.3984 24.4653 61.3476 24.9993Z" fill="#263238"/>
<path d="M62.1404 24.9091C61.9998 25.023 61.3163 24.3633 60.2385 24.222C59.1646 24.0689 58.3054 24.5204 58.2039 24.3751C58.1531 24.3084 58.3093 24.0885 58.6881 23.8843C59.0591 23.6801 59.6683 23.5113 60.3361 23.6016C61.0039 23.6919 61.535 24.0139 61.8279 24.3123C62.1286 24.6068 62.2106 24.8581 62.1404 24.9091Z" fill="#263238"/>
<path d="M51.5715 23.6316C51.5207 24.1656 51.0326 24.5622 50.478 24.519C49.9235 24.4758 49.5174 24.0125 49.5642 23.4785C49.615 22.9445 50.1031 22.5479 50.6577 22.5911C51.2122 22.6343 51.6223 23.0976 51.5715 23.6316Z" fill="#263238"/>
<path d="M52.2749 23.6044C52.1343 23.7183 51.4509 23.0547 50.373 22.9173C49.2991 22.7642 48.4399 23.2157 48.3384 23.0704C48.2876 23.0037 48.4439 22.7838 48.8227 22.5796C49.1937 22.3754 49.8029 22.2066 50.4707 22.2969C51.1385 22.3872 51.6696 22.7092 51.9625 23.0076C52.2632 23.3021 52.3452 23.5534 52.2749 23.6044Z" fill="#263238"/>
<path d="M51.8547 20.6333C51.6438 20.8218 50.8355 20.2328 49.7498 20.1307C48.6641 20.0012 47.7542 20.4095 47.5863 20.1779C47.5082 20.0679 47.6527 19.7891 48.051 19.5221C48.4415 19.2551 49.1093 19.0353 49.8552 19.1138C50.6011 19.1923 51.2065 19.5496 51.5345 19.8951C51.8704 20.2368 51.9563 20.5391 51.8547 20.6333Z" fill="#263238"/>
<path d="M54.47 34.0466C54.5832 34.0545 54.6613 34.2586 54.6457 34.5021C54.6301 34.7455 54.5285 34.9379 54.4153 34.9301C54.302 34.9222 54.2239 34.718 54.2395 34.4746C54.2552 34.2312 54.3606 34.0388 54.47 34.0466Z" fill="#263238"/>
<path d="M42.9404 57.523C42.9404 57.523 45.1195 54.429 46.4864 52.6895C48.1461 50.5849 49.1341 48.767 49.1341 47.7854C49.1341 46.7998 49.1341 42.571 49.1341 42.571C49.1341 42.571 51.2 42.0802 51.4929 44.44C51.7897 46.7998 51.4929 47.3927 51.4929 47.3927C51.4929 47.3927 60.1625 41.5227 60.7522 41.9467C61.7871 42.6967 59.8267 44.2633 59.8267 44.2633L54.5429 49.0654L57.5538 48.1073C58.2841 47.8757 59.0691 48.2723 59.3151 48.9987C59.5182 49.5955 59.2995 50.2551 58.7762 50.6124L56.9954 52.1634L57.8936 51.8022C58.5575 51.5352 59.3151 51.8218 59.6353 52.4618C59.8931 52.9762 59.8032 53.5965 59.4127 54.0167L57.7881 55.7561L58.5497 55.3478C59.0417 55.0847 59.6509 55.281 59.897 55.7757C60.1039 56.1919 59.9907 56.6985 59.6275 56.989L49.9191 64.7045L42.9404 57.523Z" fill="#FFD3BD"/>
<path d="M49.92 64.7033C49.92 64.7033 49.881 64.668 49.799 64.5895C49.7131 64.5031 49.5959 64.3853 49.4436 64.2322C49.1234 63.9102 48.6626 63.4429 48.0651 62.8383C46.8544 61.6054 45.0971 59.8149 42.8906 57.5689L42.8516 57.5297L42.8828 57.4865C43.5194 56.5834 44.2067 55.6136 44.9565 54.5888C45.3314 54.0783 45.7219 53.5522 46.1281 53.0182C46.542 52.4842 46.9638 51.9462 47.3621 51.3651C47.7643 50.784 48.151 50.1754 48.4829 49.5197C48.8071 48.86 49.1117 48.1651 49.0375 47.3876C49.0375 45.8406 49.0336 44.2307 49.0336 42.5738V42.4952L49.1078 42.4835C49.635 42.3853 50.2012 42.4442 50.6738 42.7426C50.9081 42.8957 51.0916 43.1117 51.2439 43.3434C51.3728 43.5868 51.4743 43.8499 51.529 44.1208C51.6344 44.6626 51.6696 45.1966 51.7047 45.7503C51.7204 46.0251 51.7243 46.3039 51.7125 46.5827C51.693 46.8654 51.6891 47.1324 51.5798 47.4387L51.4353 47.313C52.7748 46.4099 54.1611 45.4951 55.5944 44.5841C56.3129 44.1286 57.0393 43.6732 57.7852 43.2295C58.535 42.7897 59.2809 42.3421 60.101 41.9809C60.2103 41.9377 60.3197 41.8945 60.4369 41.8591C60.4954 41.8434 60.554 41.8277 60.6243 41.8238C60.6594 41.8199 60.6985 41.8238 60.7415 41.8317C60.8039 41.8552 60.8274 41.8788 60.8469 41.8984C61.0578 42.0398 61.1788 42.3382 61.1398 42.5895C61.0656 43.0999 60.7454 43.4729 60.4447 43.8106C60.1283 44.1522 59.7691 44.431 59.4488 44.7372C59.1169 45.0396 58.7888 45.338 58.4608 45.6364C57.1486 46.8301 55.8599 47.9962 54.6063 49.1388L54.5087 48.97C55.1023 48.7815 55.6881 48.597 56.27 48.4085C56.5589 48.3143 56.8518 48.2239 57.1369 48.1336C57.2814 48.0904 57.422 48.0394 57.5704 48.0001C57.7227 47.957 57.8867 47.9373 58.0429 47.9452C58.6873 47.9648 59.2653 48.4478 59.4215 49.0564C59.5933 49.665 59.3278 50.3482 58.8201 50.6858L58.8279 50.678C58.2226 51.2041 57.629 51.7224 57.0432 52.2289L56.9495 52.0758C57.2424 51.958 57.5353 51.8402 57.8203 51.7264C58.121 51.6007 58.4686 51.5772 58.781 51.6635C59.4137 51.8324 59.8706 52.4528 59.8511 53.0888C59.8472 53.403 59.7417 53.7092 59.5543 53.9527C59.359 54.1883 59.1637 54.3807 58.9685 54.5927C58.5819 55.005 58.2031 55.4094 57.8321 55.806L57.7383 55.6803C58.0117 55.535 58.2851 55.3898 58.5545 55.2484C58.8513 55.107 59.2028 55.1228 59.484 55.268C59.7691 55.4094 59.9721 55.6882 60.0346 55.9944C60.0971 56.3007 60.019 56.6227 59.8354 56.8622C59.7417 56.9839 59.6207 57.0703 59.5152 57.1567C59.4059 57.243 59.2965 57.3294 59.1911 57.4119C58.9763 57.5807 58.7654 57.7496 58.5584 57.9145C58.1406 58.2443 57.7383 58.5623 57.3478 58.8686C55.7896 60.0976 54.4423 61.1577 53.3371 62.0294C52.2398 62.8893 51.3845 63.5607 50.7948 64.0241C50.5097 64.2479 50.2871 64.4167 50.1348 64.5384C49.9942 64.6484 49.92 64.7033 49.92 64.7033C49.92 64.7033 49.9981 64.6327 50.1465 64.5109C50.3028 64.3853 50.5214 64.2047 50.8065 63.973C51.3923 63.5018 52.2437 62.8147 53.3332 61.9391C54.4267 61.0596 55.7584 59.9916 57.3009 58.7547C57.6876 58.4445 58.0859 58.1265 58.4959 57.7967C58.7029 57.6318 58.9099 57.4669 59.1208 57.2941C59.2262 57.2077 59.3317 57.1253 59.441 57.0389C59.5504 56.9525 59.6558 56.874 59.7339 56.7679C59.894 56.5638 59.9604 56.2811 59.9018 56.0219C59.8472 55.7628 59.6714 55.5233 59.4254 55.4015C59.1833 55.2759 58.8787 55.2641 58.6287 55.3858C58.3632 55.5272 58.0937 55.6725 57.8203 55.8177L57.4025 56.0416L57.7266 55.696C58.0976 55.2994 58.4725 54.8911 58.8591 54.4788C59.0466 54.2707 59.2575 54.0626 59.4332 53.8506C59.5972 53.6346 59.6909 53.3637 59.6949 53.0849C59.7105 52.5274 59.3082 51.9777 58.7498 51.8324C58.4725 51.7578 58.1718 51.7774 57.9023 51.8913C57.6134 52.0091 57.3244 52.1269 57.0315 52.2447L56.5316 52.4449L56.9378 52.0915C57.5196 51.585 58.1132 51.0667 58.7185 50.5366L58.7225 50.5327L58.7264 50.5288C59.1716 50.2304 59.402 49.6336 59.2497 49.1035C59.113 48.5695 58.6053 48.1493 58.0429 48.1336C57.7657 48.1062 57.4962 48.2239 57.2033 48.3143C56.9143 48.4046 56.6253 48.4988 56.3364 48.5891C55.7545 48.7737 55.1687 48.9621 54.5751 49.1506L54.1416 49.288L54.4775 48.9818C55.731 47.8392 57.0198 46.6691 58.3358 45.4754C58.6639 45.177 58.9958 44.8786 59.3278 44.5763C59.6558 44.2661 60.0073 43.9912 60.308 43.6653C60.6009 43.3434 60.8938 42.9703 60.9484 42.562C60.9719 42.3617 60.9016 42.1693 60.7297 42.0515C60.7063 41.9926 60.6048 42.0241 60.4993 42.0515C60.3978 42.079 60.2924 42.1222 60.1869 42.1654C59.3942 42.5149 58.6404 42.9625 57.8984 43.3983C57.1565 43.842 56.4301 44.2936 55.7115 44.749C54.2783 45.66 52.8919 46.5709 51.5524 47.4701L51.3025 47.6389L51.4079 47.3444C51.486 47.1245 51.5095 46.8301 51.5212 46.567C51.5329 46.2961 51.529 46.0251 51.5134 45.7542C51.4821 45.2163 51.4431 44.6666 51.3455 44.1561C51.2947 43.9009 51.201 43.6614 51.0838 43.4376C50.9471 43.2256 50.7831 43.0332 50.5761 42.8997C50.1622 42.6327 49.6272 42.5738 49.1546 42.6641L49.2288 42.5738C49.2288 44.2347 49.2249 45.8406 49.2249 47.3876C49.221 47.5839 49.2288 47.7685 49.2132 47.9727C49.1859 48.169 49.1468 48.3614 49.0882 48.5459C48.9711 48.915 48.8149 49.2605 48.6469 49.5943C48.3072 50.2618 47.9128 50.8743 47.5066 51.4554C47.1044 52.0405 46.6709 52.5823 46.2608 53.1124C45.8508 53.6425 45.4603 54.1647 45.0854 54.6751C44.3316 55.696 43.6365 56.6619 43 57.5611L42.9922 57.4786C45.1635 59.7364 46.8974 61.5308 48.0885 62.7715C48.6782 63.388 49.139 63.867 49.4553 64.2008C49.6076 64.3617 49.7248 64.4835 49.8068 64.5738C49.881 64.6562 49.92 64.7033 49.92 64.7033Z" fill="#EB996E"/>
<path d="M49.9202 64.7026L23.3099 100.025C19.2719 105.385 11.9925 107.348 5.94333 104.438C1.5226 102.31 -1.71875 97.842 0.991489 88.6462L26.481 71.1106L41.9731 56.0762L49.9202 64.7026Z" fill="#FFB3C7"/>
<path d="M5.9484 104.435C5.9484 104.435 6.04603 104.482 6.23739 104.581C6.42875 104.683 6.70602 104.832 7.0692 105.024C7.83072 105.342 8.97496 105.817 10.5488 105.963C11.3298 106.022 12.2085 106.053 13.1536 105.916C13.63 105.876 14.1142 105.755 14.6219 105.656C14.8758 105.598 15.1257 105.515 15.3835 105.444C15.6451 105.378 15.9028 105.287 16.1645 105.185C17.215 104.812 18.3007 104.298 19.3629 103.607C20.4251 102.924 21.4717 102.068 22.3621 100.972C24.178 98.8126 26.0565 96.3467 28.0833 93.7121C30.1062 91.0774 32.2463 88.2386 34.4957 85.2545C38.9867 79.2784 43.8956 72.6859 49.0232 65.7478C49.2965 65.3787 49.5699 65.0096 49.8394 64.6405L49.8472 64.7701C47.1252 61.8095 44.4658 58.9236 41.9078 56.1397L42.0445 56.1476C36.6201 60.6473 31.6019 64.9468 27.0484 68.7751C22.5027 72.6073 18.4256 75.9723 14.9773 78.713C11.5329 81.4576 8.73283 83.5936 6.78022 85.0267C5.81172 85.7531 5.04239 86.2871 4.5308 86.6602C4.27696 86.8408 4.0817 86.9782 3.94501 87.0764C3.81224 87.1706 3.74194 87.2138 3.74194 87.2138C3.74194 87.2138 3.80443 87.1588 3.9333 87.0607C4.06608 86.9586 4.25743 86.8172 4.50737 86.6287C5.01114 86.2479 5.77266 85.7021 6.73335 84.9678C8.67035 83.519 11.4587 81.3673 14.8914 78.6109C18.3241 75.8545 22.3894 72.4817 26.9312 68.6416C31.473 64.8054 36.4874 60.502 41.9117 55.9944L41.9859 55.9355L42.0484 56.0062C44.6102 58.7862 47.2697 61.676 49.9917 64.6327L50.0502 64.6955L49.9995 64.7622C49.7261 65.1313 49.4566 65.5004 49.1833 65.8695C44.0518 72.8076 39.139 79.3962 34.6402 85.3683C32.3869 88.3525 30.2429 91.1834 28.2122 93.8181C26.1775 96.4488 24.2952 98.9068 22.4676 101.066C21.5654 102.17 20.5032 103.03 19.4293 103.717C18.3553 104.408 17.258 104.922 16.1996 105.295C15.938 105.393 15.6763 105.484 15.4108 105.55C15.1491 105.621 14.8953 105.704 14.6415 105.758C14.1299 105.857 13.6378 105.974 13.1575 106.014C12.2046 106.143 11.3181 106.112 10.5331 106.045C8.95153 105.884 7.80339 105.397 7.04577 105.067C6.67868 104.871 6.40531 104.71 6.22177 104.604C6.03822 104.494 5.9484 104.435 5.9484 104.435Z" fill="#263238"/>
<path d="M26.1253 95.2346C26.1096 95.2581 25.8246 94.9833 25.1958 94.6967C24.571 94.4061 23.5634 94.2059 22.3333 94.3354C21.7202 94.3943 21.0563 94.5357 20.3611 94.7477C19.666 94.9597 18.9435 95.2581 18.1781 95.5605C17.4127 95.8628 16.6043 96.1848 15.7334 96.4204C14.8626 96.652 13.9175 96.7934 12.9568 96.6913C11.9961 96.5892 11.0979 96.2869 10.27 95.9414C9.43819 95.5958 8.66885 95.1993 7.92295 94.8616C6.44287 94.1666 5.00184 93.719 3.76778 93.7896C2.53373 93.8446 1.59647 94.3236 1.08098 94.7713C0.553773 95.2228 0.393656 95.5919 0.370224 95.5762C0.362414 95.5723 0.409278 95.4859 0.503004 95.3249C0.608445 95.1718 0.764654 94.944 1.03021 94.7084C1.5418 94.2333 2.49467 93.719 3.75997 93.6444C5.02917 93.5541 6.50535 94.0017 7.99715 94.6888C8.75086 95.0265 9.52019 95.4152 10.3442 95.7568C11.1643 96.0984 12.0469 96.389 12.9763 96.4871C13.9058 96.5853 14.8274 96.4518 15.6827 96.2241C16.5418 95.9963 17.3424 95.6822 18.1078 95.3838C18.8732 95.0854 19.5996 94.7909 20.3104 94.5828C21.0172 94.3747 21.6928 94.2412 22.3177 94.1862C23.5712 94.0724 24.5983 94.3001 25.2232 94.6221C25.8597 94.9362 26.1253 95.2346 26.1253 95.2346Z" fill="#FAFAFA"/>
<path d="M35.526 83.3897C35.4948 83.3818 35.6822 83.1541 35.6275 82.6908C35.569 82.2471 35.2097 81.5914 34.4521 81.2537C34.0811 81.0809 33.6398 80.9671 33.1594 80.8571C32.683 80.7472 32.1558 80.6176 31.6481 80.3702C30.621 79.8912 29.676 79.0627 28.8012 78.1282C27.9225 77.1898 27.1415 76.2514 26.3057 75.5328C25.4817 74.8064 24.6031 74.3156 23.8025 74.0957C23.0058 73.868 22.3185 73.8758 21.8655 73.9622C21.4086 74.0447 21.1703 74.1585 21.1625 74.1389C21.1586 74.1311 21.2172 74.1036 21.3305 74.0525C21.4437 74.0015 21.6155 73.9347 21.8499 73.8876C22.3068 73.7738 23.0175 73.7423 23.8376 73.9583C24.6616 74.1625 25.5794 74.6572 26.4229 75.3915C27.2781 76.1179 28.0709 77.0602 28.9418 77.9908C29.8126 78.9214 30.7343 79.7302 31.7223 80.2053C32.6986 80.6922 33.7374 80.7275 34.5067 81.128C35.2995 81.505 35.6588 82.2118 35.6978 82.6869C35.7174 82.9303 35.6705 83.1188 35.6158 83.2326C35.569 83.3426 35.5299 83.3936 35.526 83.3897Z" fill="#FAFAFA"/>
<path d="M66.0857 13.9191C65.8626 14.1174 65.0074 13.4975 63.8589 13.3901C62.7104 13.2537 61.7478 13.6835 61.5702 13.4397C61.4875 13.324 61.6404 13.0305 62.0618 12.7495C62.4749 12.4685 63.1814 12.2371 63.9704 12.3197C64.7595 12.4024 65.3999 12.7784 65.7469 13.1421C66.1022 13.5017 66.1931 13.8199 66.0857 13.9191Z" fill="#263238"/>
</svg>
