<svg width="88" height="88" viewBox="0 0 88 88" fill="none" xmlns="http://www.w3.org/2000/svg">
<path d="M34.8311 33.3495C27.0991 28.8787 14.5478 28.8883 6.80608 33.3495C-0.925964 37.8204 -0.935641 45.0589 6.80608 49.5297C14.5478 54.0006 27.0894 53.9909 34.8311 49.5297C42.5632 45.0589 42.5632 37.8204 34.8311 33.3495Z" fill="#202020"/>
<path d="M34.8315 49.5297C27.0898 53.9909 14.5482 54.0006 6.80647 49.5297C3.10012 47.3911 1.16469 44.6137 1.01953 41.8073L1.02921 56.5553C1.17437 59.3714 3.10012 62.1584 6.81615 64.3067C14.5579 68.7776 27.0995 68.7776 34.8412 64.3067C38.625 62.1197 40.5507 59.2843 40.6378 56.4198V41.5364C40.5894 44.4298 38.654 47.3233 34.8315 49.5297Z" fill="#3E3E3E"/>
<path d="M34.8315 49.5297C27.0898 53.9909 14.5482 54.0006 6.80647 49.5297C3.10012 47.3911 1.16469 44.6137 1.01953 41.8073L1.02921 42.4557C1.02921 42.4557 1.01953 46.8588 6.82582 50.1974C14.5675 54.6683 27.1091 54.6683 34.8412 50.1974C38.6153 48.0104 40.5507 45.175 40.6378 42.3105V41.5364C40.5894 44.4298 38.654 47.3233 34.8315 49.5297Z" fill="#575757"/>
<path d="M34.812 54.3489C27.0703 58.8101 14.5287 58.8101 6.79662 54.3489C3.09027 52.2103 1.16451 49.4329 1 46.6169L1.00968 47.2652C1.00968 47.2652 1 51.6684 6.80629 55.007C14.5383 59.4681 27.0896 59.4778 34.8217 55.007C38.5957 52.8296 40.5312 49.9845 40.6183 47.1201L40.6086 46.3459C40.5699 49.2491 38.6441 52.1425 34.812 54.3489Z" fill="#161616"/>
<path d="M34.8217 59.323C27.08 63.7939 14.5384 63.7842 6.80638 59.323C3.10003 57.1844 1.17428 54.407 1.01944 51.6006H1.00977L1.01944 52.2587C1.01944 52.2587 1.00977 56.6521 6.80638 60.0004C14.5481 64.4713 27.0897 64.4713 34.8314 60.0004C38.6152 57.8231 40.5409 54.978 40.628 52.1135V51.3394C40.5797 54.2328 38.6442 57.1166 34.8217 59.323Z" fill="#161616"/>
<path d="M39.4183 48.0297L37.5313 48.6684L34.87 52.3167L32.325 51.8231L29.9444 54.8134L26.9251 53.4005L24.1574 56.0133L21.1382 53.9521L18.0124 55.7714L15.4286 53.5166L12.0416 54.5424L9.7675 52.007L6.34179 52.1715L4.86119 49.2877L2.7806 49.0845L1.87094 45.862L1.00968 44.9814L1 45.4846L1.71611 46.0749L2.63544 49.4619L4.70635 49.7038L6.11922 52.607L9.67073 52.5005L11.8965 55.0359L15.2932 54.0198L17.935 56.294L21.1285 54.4747L24.0607 56.5456L26.8477 53.9424L29.9637 55.3359L32.2959 52.365L34.8604 52.8489L37.5796 49.1426L39.4086 48.5522C39.4086 48.5522 40.328 45.2427 40.5021 44.2943C40.5699 43.9459 40.6086 43.5879 40.6183 43.2395L40.628 42.6008C40.6183 43.1234 40.5505 43.6363 40.4247 44.1491C40.2215 44.962 39.4183 48.0297 39.4183 48.0297Z" fill="#202020"/>
<path d="M39.4185 53.236L37.5314 53.8747L34.8702 57.523L32.3251 57.0295L29.9445 60.01L26.9253 58.5972L24.1576 61.21L21.1383 59.1488L18.0223 60.9681L15.4385 58.7133L12.0515 59.7391L9.77736 57.2036L6.35164 57.3682L4.87104 54.494L2.79045 54.2908L1.89048 51.0683L1.02921 50.1877L1.01953 50.6909L1.72596 51.2812L2.64529 54.6586L4.7162 54.9005L6.12907 57.8036L9.68058 57.6972L11.8967 60.2423L15.2933 59.2262L17.9449 61.4906L21.1287 59.6713L24.0608 61.7422L26.8479 59.1294L29.9639 60.5229L32.2961 57.552L34.8605 58.0359L37.5798 54.3392L39.4185 53.7489C39.4185 53.7489 40.3378 50.4296 40.512 49.491C40.5797 49.1426 40.6185 48.7845 40.6281 48.4361L40.6378 47.8071C40.6281 48.3297 40.5604 48.8426 40.4346 49.3652C40.2314 50.1684 39.4185 53.236 39.4185 53.236Z" fill="#202020"/>
<path d="M39.4184 58.3843L37.5217 59.023L34.8701 62.6713L32.325 62.1777L29.9541 65.1583L26.9349 63.7454L24.1672 66.3582L21.1576 64.297L18.0319 66.1163L15.4384 63.8712L12.0514 64.897L9.77727 62.3519L6.35156 62.5164L4.86127 59.6423L2.78069 59.4391L1.88071 56.2069L1.01944 55.3263L1.00977 55.8198L1.7162 56.4101L2.63553 59.7971L4.70644 60.0391L6.1193 62.9325L9.66114 62.8261L11.8772 65.3712L15.2739 64.3551L17.9158 66.6195L21.1092 64.8002L24.0414 66.8711L26.8187 64.268L29.9445 65.6615L32.2767 62.6906L34.8411 63.1745L37.5507 59.4778L39.3894 58.8875C39.3894 58.8875 40.3087 55.5682 40.4829 54.6295C40.5506 54.2812 40.599 53.9231 40.599 53.565L40.6087 52.936C40.599 53.4489 40.5313 53.9715 40.4055 54.4844C40.2313 55.3263 39.4184 58.3843 39.4184 58.3843Z" fill="#202020"/>
<path d="M30.7571 35.7011C25.2702 32.5367 16.3672 32.5367 10.8706 35.7011C5.38363 38.8752 5.38363 44.0138 10.8706 47.1782C16.3672 50.3523 25.2605 50.3523 30.7571 47.1782C36.2538 44.0138 36.2538 38.8752 30.7571 35.7011Z" fill="#080808"/>
<path d="M29.4991 36.4269C24.7089 33.6592 16.9285 33.6592 12.1383 36.4269C7.3384 39.1945 7.34807 43.6847 12.1383 46.4524C16.9285 49.2201 24.6992 49.2201 29.4991 46.4524C34.2893 43.6847 34.2893 39.1945 29.4991 36.4269Z" fill="#B9B9B9"/>
<path d="M23.8865 39.6687C22.193 38.6913 19.4447 38.6816 17.7416 39.6687C16.0481 40.6461 16.0481 42.2428 17.7319 43.2202C19.4351 44.1976 22.1834 44.1976 23.8769 43.2202C25.5897 42.2331 25.5897 40.6461 23.8865 39.6687Z" fill="#6E6E6E"/>
<path d="M21.6317 40.9751C21.1769 40.7139 20.4511 40.7139 20.006 40.9751C19.5608 41.2267 19.5511 41.6525 20.006 41.9138C20.4511 42.1751 21.1769 42.1751 21.622 41.9138C22.0769 41.6525 22.0672 41.2267 21.6317 40.9751Z" fill="#4A4A4A"/>
<path d="M20.8091 42.5428C20.3639 42.5428 20.0059 42.746 20.0059 43.0169C20.0059 43.104 20.0446 43.1815 20.1123 43.2395C20.2188 43.0557 20.5284 42.9202 20.8671 42.9299C21.1671 42.9299 21.4284 43.0266 21.5736 43.1621C21.6026 43.1137 21.6123 43.0653 21.6219 43.0073C21.6219 42.746 21.2542 42.5331 20.8091 42.5428Z" fill="#414141"/>
<path d="M20.1123 43.2395C20.2478 43.375 20.5091 43.4718 20.8091 43.4814C21.1574 43.4814 21.4574 43.346 21.5736 43.1621C21.4284 43.0169 21.1671 42.9298 20.8671 42.9298C20.5187 42.9202 20.2188 43.0556 20.1123 43.2395Z" fill="#161616"/>
<path d="M18.1093 40.9461C17.6544 40.9461 17.2964 41.159 17.2964 41.4106C17.2964 41.4977 17.3351 41.5751 17.4028 41.6428C17.519 41.459 17.819 41.3332 18.1673 41.3332C18.4673 41.3428 18.7286 41.4299 18.8641 41.5751C18.9028 41.5267 18.9125 41.4686 18.9125 41.4203C18.9028 41.1493 18.5544 40.9461 18.1093 40.9461Z" fill="#414141"/>
<path d="M17.4028 41.6331C17.5383 41.7783 17.7996 41.8654 18.1093 41.8751C18.4576 41.8847 18.7576 41.7493 18.8641 41.5654C18.7286 41.4202 18.4673 41.3331 18.1673 41.3235C17.8189 41.3235 17.519 41.4493 17.4028 41.6331Z" fill="#161616"/>
<path d="M20.8671 39.388C20.4219 39.388 20.0542 39.6009 20.0542 39.8525C20.0542 39.9396 20.0929 40.017 20.1703 40.0848C20.2768 39.9106 20.5864 39.7654 20.9251 39.7751C21.2251 39.7751 21.4864 39.8622 21.6219 40.0074C21.6509 39.959 21.6703 39.9009 21.6703 39.8525C21.6703 39.5912 21.3122 39.3783 20.8671 39.388Z" fill="#414141"/>
<path d="M20.1704 40.0752C20.3059 40.2203 20.5672 40.3171 20.8672 40.3171C21.2155 40.3171 21.5155 40.1816 21.622 40.0074C21.4865 39.8623 21.2252 39.7752 20.9252 39.7752C20.5865 39.7558 20.2769 39.901 20.1704 40.0752Z" fill="#161616"/>
<path d="M23.5673 40.9751C23.1221 40.9751 22.7544 41.1783 22.7544 41.4396C22.7544 41.5267 22.7931 41.6041 22.8608 41.6719C22.977 41.488 23.277 41.3525 23.6253 41.3622C23.9253 41.3622 24.1963 41.459 24.3318 41.6041C24.3608 41.5557 24.3802 41.4977 24.3802 41.4493C24.3802 41.1783 24.0124 40.9751 23.5673 40.9751Z" fill="#414141"/>
<path d="M22.8608 41.6719C22.9963 41.8074 23.2673 41.9041 23.5673 41.9041C23.9156 41.9138 24.2156 41.7783 24.3318 41.5945C24.1963 41.4493 23.9253 41.3525 23.6253 41.3525C23.277 41.3525 22.977 41.488 22.8608 41.6719Z" fill="#161616"/>
<path d="M26.4027 44.6621C25.2802 45.3104 24.9027 46.2201 25.2511 47.0426C25.3769 46.5104 25.7737 45.9975 26.4898 45.5911C27.8059 44.8266 29.751 44.6524 31.3574 45.0685C31.5993 44.8459 31.8026 44.604 31.9864 44.3718C30.2832 43.6943 27.922 43.7814 26.4027 44.6621Z" fill="#414141"/>
<path d="M26.4897 45.5911C25.7735 45.9976 25.3768 46.5105 25.251 47.0427C25.3768 47.333 25.5897 47.6233 25.909 47.8846C27.2154 47.5459 28.4348 47.0621 29.5089 46.4427C30.2444 46.0169 30.8637 45.5524 31.3669 45.0589C29.7509 44.6621 27.8154 44.8363 26.4897 45.5911Z" fill="#161616"/>
<path d="M9.82549 38.2945C8.761 39.5332 8.36424 40.9267 8.6352 42.2718C8.66423 41.217 9.09003 40.1816 9.91259 39.2139C11.3158 39.5042 12.3706 40.1816 12.7093 41.0041C12.719 40.9751 12.7286 40.9461 12.7286 40.917C12.9222 39.7364 11.6835 38.6719 9.82549 38.2945Z" fill="#414141"/>
<path d="M9.90287 39.2138C9.08031 40.1816 8.65452 41.217 8.62549 42.2718C8.68355 42.5815 8.78032 42.8815 8.90613 43.1815C10.8416 43.0363 12.4286 42.1654 12.6899 41.0138C12.3609 40.1816 11.3061 39.5042 9.90287 39.2138Z" fill="#161616"/>
<path d="M17.1606 45.5427C15.2639 45.0008 13.0284 45.3104 11.7607 46.2298C11.8769 46.3072 12.0027 46.3846 12.1382 46.4523C12.293 46.5491 12.4575 46.6362 12.622 46.7136C13.9187 46.1523 15.6897 46.0169 17.2477 46.462C18.438 46.8201 19.2412 47.4297 19.5315 48.1362C19.7637 47.091 18.8735 46.0459 17.1606 45.5427Z" fill="#414141"/>
<path d="M17.2478 46.462C15.6994 46.0266 13.9188 46.1524 12.6221 46.7137C14.5769 47.7298 16.9574 48.3104 19.3961 48.4749C19.4541 48.3588 19.4928 48.2523 19.5219 48.1362C19.2412 47.4298 18.438 46.8201 17.2478 46.462Z" fill="#161616"/>
<path d="M15.2739 35.1205C15.4384 35.4011 15.6804 35.6527 15.99 35.8753C18.3126 35.2947 20.877 35.1495 23.3253 35.4205C23.5576 35.1592 23.7124 34.8592 23.7608 34.5592C20.9447 34.1528 17.9158 34.3366 15.2739 35.1205Z" fill="#414141"/>
<path d="M15.9897 35.8752C16.88 36.5235 18.3026 36.9009 19.8413 36.8235C21.3993 36.7364 22.6767 36.1848 23.325 35.43C20.8767 35.1397 18.3123 35.2849 15.9897 35.8752Z" fill="#161616"/>
<path d="M29.4995 36.4269C29.3737 36.3591 29.2479 36.2817 29.1124 36.214C27.7189 36.8236 27.0899 37.8591 27.4963 38.8365C27.6415 38.1784 28.2414 37.5591 29.1995 37.143C29.3253 37.2107 29.4511 37.2784 29.5866 37.3559C31.2317 38.3042 32.3155 39.4558 32.8284 40.6751C32.8961 40.6654 32.9542 40.6558 33.0123 40.6461C32.722 39.1074 31.551 37.6171 29.4995 36.4269Z" fill="#414141"/>
<path d="M29.5864 37.3558C29.4606 37.2784 29.3348 37.2107 29.1993 37.1429C28.2412 37.559 27.6413 38.1784 27.4961 38.8364C27.5735 39.0203 27.6896 39.2041 27.8348 39.3687C28.7735 40.4428 30.8734 40.9654 32.8185 40.6751C32.3153 39.4558 31.2315 38.3042 29.5864 37.3558Z" fill="#161616"/>
<g clip-path="url(#clip0)">
<path d="M66.3543 61.1573C66.129 60.8495 65.6233 60.5665 64.8874 60.775L60.0464 62.6018L59.6559 62.3635L64.6772 59.2808C65.7335 58.7546 66.134 58.3029 65.7735 57.9852C65.7735 57.9852 65.0827 57.464 64.1315 57.732L57.9638 61.4799L57.278 61.1374L63.1152 56.7789C63.9162 56.2279 62.7998 55.7861 62.7998 55.7861C62.7998 55.7861 61.8837 55.4237 61.0426 55.9599L55.2705 60.2389C55.1904 60.2737 54.3794 60.0056 54.3794 60.0056L57.7035 56.0244C58.094 55.7017 57.9538 55.255 57.3881 55.0316C57.3881 55.0316 56.1816 54.6593 55.6309 55.2053L49.9438 61.2615C49.9438 61.2615 49.4732 61.5445 48.8324 61.9068L48.6172 60.2985C48.5521 59.4248 47.9864 59.0376 46.9751 59.1021C45.223 59.1964 45.9238 60.8147 45.9238 60.8147C45.9238 60.8147 45.8137 64.7364 46.089 65.0839C46.3193 65.3718 46.2592 65.7044 45.9489 65.9625L44.5571 67.134L50.7498 69.5913L52.2367 68.3602C52.522 68.1219 52.9326 67.9481 53.4081 67.8538C54.1641 67.7099 55.3255 67.4617 55.9012 67.2135C56.3218 67.0347 60.0614 64.3988 60.0614 64.3988L65.7335 61.8771C66.2091 61.6487 66.4894 61.3409 66.3543 61.1573Z" fill="#FF80BB"/>
<path d="M46.9899 63.6741L46.9949 63.6641C47.1001 63.4705 47.2853 63.2918 47.5406 63.1429L48.8473 62.3933C49.2828 62.1451 49.8885 62.0111 50.5043 62.031H50.5544C51.6157 62.0607 52.4818 62.5224 52.6119 63.128L52.8272 64.1357C52.9173 64.5577 52.627 64.9796 52.0562 65.2477L51.4305 65.5455C50.5644 65.9576 49.2878 65.9278 48.4868 65.4711L47.5306 64.925C46.9649 64.5974 46.7546 64.1159 46.9899 63.6741Z" fill="#5B5ADB"/>
<path d="M57.5233 63.8478C56.0265 62.7309 54.2042 61.7679 52.1316 61.0133C51.6861 60.8495 51.5209 60.5119 51.7812 60.2488C51.7862 60.2439 51.7862 60.2439 51.7912 60.2389C52.0515 59.9758 52.6773 59.8964 53.1779 60.0801C55.4407 60.9091 57.4332 61.9565 59.0653 63.1777C59.4207 63.4457 59.3406 63.8081 58.9 63.9818C58.895 63.9818 58.89 63.9868 58.885 63.9868C58.4445 64.1556 57.8487 64.0911 57.5233 63.8478Z" fill="#5B5ADB"/>
<path d="M64.677 59.2759L59.6558 62.3586L60.0462 62.5969L61.3379 62.1104L64.677 60.0602C65.468 59.668 65.8885 59.3156 65.9035 59.0326H65.9085V58.2285H65.9035C65.9085 58.5164 65.488 58.8738 64.677 59.2759Z" fill="url(#paint0_linear)"/>
<path d="M54.3843 60.0006C54.3843 60.0006 54.6596 60.09 54.9049 60.1595L57.7084 56.7988C57.8636 56.635 57.9337 56.4811 57.9287 56.3421V55.6223C57.9237 55.7563 57.8536 55.8953 57.7084 56.0144L54.3843 60.0006Z" fill="url(#paint1_linear)"/>
<path d="M45.9087 61.5594C45.9137 61.1176 45.9237 60.8147 45.9237 60.8147C45.9237 60.8147 45.7986 60.5169 45.7886 60.1744V60.9786C45.7986 61.2417 45.8787 61.475 45.9087 61.5594Z" fill="#B3B3B5"/>
<path d="M46.089 65.0839C45.9538 64.9151 45.9138 63.8776 45.9038 62.8699C45.8938 64.0116 45.9188 65.5505 46.074 65.8384C46.2692 65.6001 46.2792 65.3271 46.089 65.0839Z" fill="#B3B3B5"/>
<path d="M63.1151 56.7789L57.2778 61.1374L57.9086 61.4501L63.1151 57.5632C63.3153 57.4243 63.3954 57.2952 63.4055 57.1761V56.3917C63.3954 56.5109 63.3153 56.6399 63.1151 56.7789Z" fill="url(#paint2_linear)"/>
<path d="M66.3893 61.2416C66.4093 61.4253 66.144 61.6785 65.7385 61.882L60.0664 64.4038C60.0664 64.4038 56.3268 67.0347 55.9063 67.2184C55.3305 67.4666 54.1691 67.7148 53.4131 67.8588C52.9376 67.9481 52.527 68.1268 52.2417 68.3651L50.7548 69.5962L45.1929 67.3872L44.5571 67.9183L50.7498 70.3756L52.2367 69.1445C52.522 68.9062 52.9326 68.7325 53.4081 68.6381C54.1641 68.4942 55.3255 68.246 55.9012 67.9978C56.3218 67.8191 60.0614 65.1831 60.0614 65.1831L65.7335 62.6614C66.124 62.4678 66.3793 62.2245 66.3843 62.0458H66.3893V61.2416Z" fill="url(#paint3_linear)"/>
<path d="M50.6246 70.6933L44.1265 68.1169V67.3326L50.6246 69.9139V70.6933Z" fill="url(#paint4_linear)"/>
<path d="M50.6246 69.9139L44.1265 67.3326L44.4268 67.0844L50.9249 69.6607L50.6246 69.9139Z" fill="#5B5ADB"/>
<path d="M56.0667 57.186L54.5098 56.7144L55.7914 55.4585C56.0166 55.2153 56.5423 55.1209 56.9678 55.25L56.9828 55.255C57.4084 55.384 57.5686 55.6868 57.3433 55.9301L56.0667 57.186Z" fill="#5B5ADB"/>
<path d="M48.1216 61.2367L46.3644 61.2516L46.3594 59.9361C46.3544 59.6581 46.7399 59.4347 47.2205 59.4298H47.2405C47.7211 59.4248 48.1166 59.6482 48.1216 59.9212V61.2367Z" fill="#5B5ADB"/>
<path d="M61.0475 57.8909L59.6357 57.2903L61.2027 56.213C61.488 55.9946 62.0337 55.945 62.4192 56.1138L62.4342 56.1187C62.8197 56.2825 62.8998 56.5953 62.6094 56.8187L61.0475 57.8909Z" fill="#5B5ADB"/>
<path d="M63.3557 59.7326L62.2192 59.127L63.9564 58.159C64.2468 57.9803 64.7324 57.9703 65.0428 58.1391L65.0528 58.1441C65.3632 58.3129 65.3782 58.5908 65.0878 58.7696L63.3557 59.7326Z" fill="#5B5ADB"/>
<path d="M63.8413 62.3388L62.9702 61.7282L64.7274 61.0878C65.0178 60.9488 65.4483 60.9736 65.6836 61.1424L65.6936 61.1474C65.9339 61.3161 65.8888 61.5594 65.5985 61.6984L63.8413 62.3388Z" fill="#5B5ADB"/>
<path d="M50.9249 69.6607L50.6245 69.9139V70.6933L50.9249 70.4451V69.6607Z" fill="#5B5ADB"/>
<path d="M84.8722 69.353C84.9273 69.0204 84.717 68.6332 83.901 68.6183L78.1238 68.9062L77.9786 68.5885L84.9573 67.2383C86.319 67.0645 87.0549 66.7766 86.9949 66.3993C86.9949 66.3993 86.8196 65.749 85.7633 65.7292L77.2277 67.3475L76.9073 66.856L85.6582 64.6122C86.8196 64.3442 86.2089 63.6542 86.2089 63.6542C86.2089 63.6542 85.7032 63.0883 84.5218 63.3265L75.896 65.5207C75.7959 65.5256 75.3053 65.0739 75.3053 65.0739L81.5381 62.4777C82.1538 62.299 82.3991 61.8671 82.0888 61.5196C82.0888 61.5196 81.3378 60.8644 80.4016 61.192L70.3541 64.9846C70.3541 64.9846 69.7083 65.1037 68.8373 65.2526L69.9837 63.7783C70.6545 62.989 70.4843 62.4926 69.5381 62.2791C67.9211 61.887 67.1902 63.5003 67.1902 63.5003C67.1902 63.5003 63.836 66.9205 63.791 67.3028C63.7559 67.6155 63.4255 67.8935 62.9399 68.0375L60.7422 68.6878L64.1514 72.5349L66.4793 71.8598C66.9249 71.7308 67.4355 71.6861 67.9311 71.7357C68.7171 71.8151 69.9436 71.9144 70.6595 71.8499C71.1752 71.8052 76.652 70.5046 76.652 70.5046L83.7358 69.8295C84.3365 69.7451 84.8372 69.5515 84.8722 69.353Z" fill="#FF80BB"/>
<path d="M69.9736 63.7733L68.8271 65.2477C69.0624 65.2079 69.2827 65.1682 69.478 65.1335L69.9736 64.4981C70.2489 64.1704 70.3741 63.9024 70.3691 63.674H70.3741V63.0089C70.3591 63.2223 70.2239 63.4804 69.9736 63.7733Z" fill="url(#paint5_linear)"/>
<path d="M81.5331 62.4777L75.3003 65.0739C75.3003 65.0739 75.7909 65.5306 75.891 65.5207L76.0813 65.471L81.5331 63.1975C81.9736 63.0684 82.2189 62.8153 82.2139 62.5522H82.2189V61.8175H82.2139C82.2189 62.0905 81.9736 62.3486 81.5331 62.4777Z" fill="url(#paint6_linear)"/>
<path d="M85.6581 64.6172L76.9072 66.861L77.2276 67.3524L79.5355 66.9156L85.6581 65.342C86.2438 65.2079 86.379 64.9647 86.369 64.7612V64.0563C86.364 64.2548 86.2238 64.4882 85.6581 64.6172Z" fill="url(#paint7_linear)"/>
<path d="M84.9572 67.2432L77.9785 68.5934L78.1237 68.9111L80.797 68.7771L84.9572 67.9729C86.3189 67.7992 87.0548 67.5113 86.9947 67.134V66.439H86.9897C87.0047 66.7915 86.2838 67.0744 84.9572 67.2432Z" fill="url(#paint8_linear)"/>
<path d="M84.8725 69.353C84.8374 69.5515 84.3368 69.7451 83.726 69.8246L76.6422 70.4997C76.6422 70.4997 71.1654 71.8003 70.6498 71.8449C69.9339 71.9095 68.7073 71.8102 67.9214 71.7308C67.4257 71.6811 66.9201 71.7258 66.4696 71.8549L64.1417 72.53L61.2431 69.2537L60.7324 69.4026L64.1417 73.2498L66.4696 72.5747C66.9151 72.4456 67.4257 72.4009 67.9214 72.4506C68.7073 72.53 69.9339 72.6293 70.6498 72.5647C71.1654 72.5201 76.6422 71.2195 76.6422 71.2195L83.726 70.5444C84.3368 70.4649 84.8424 70.2713 84.8725 70.0728C84.8775 70.043 84.8775 70.0132 84.8775 69.9884V69.9536V69.9487V69.2388C84.8825 69.2785 84.8775 69.3133 84.8725 69.353Z" fill="url(#paint9_linear)"/>
<path d="M63.761 73.5029L60.1865 69.4622V68.7374L63.761 72.7732V73.5029Z" fill="url(#paint10_linear)"/>
<path d="M63.761 72.7732L60.1865 68.7374L60.6571 68.6034L64.2366 72.6392L63.761 72.7732Z" fill="#5B5ADB"/>
<path d="M64.2363 72.6392L63.7607 72.7732V73.5029L64.2363 73.364V72.6392Z" fill="#5B5ADB"/>
</g>
<defs>
<linearGradient id="paint0_linear" x1="59.6558" y1="62.5969" x2="65.9085" y2="62.5969" gradientUnits="userSpaceOnUse">
<stop stop-color="#FE7577"/>
<stop offset="1" stop-color="#FA6DB3"/>
</linearGradient>
<linearGradient id="paint1_linear" x1="54.3843" y1="60.1595" x2="57.9289" y2="60.1595" gradientUnits="userSpaceOnUse">
<stop stop-color="#FE7577"/>
<stop offset="1" stop-color="#FA6DB3"/>
</linearGradient>
<linearGradient id="paint2_linear" x1="57.2778" y1="61.4501" x2="63.4055" y2="61.4501" gradientUnits="userSpaceOnUse">
<stop stop-color="#FE7577"/>
<stop offset="1" stop-color="#FA6DB3"/>
</linearGradient>
<linearGradient id="paint3_linear" x1="44.5571" y1="70.3756" x2="66.3904" y2="70.3756" gradientUnits="userSpaceOnUse">
<stop stop-color="#FE7577"/>
<stop offset="1" stop-color="#FA6DB3"/>
</linearGradient>
<linearGradient id="paint4_linear" x1="40.8921" y1="69.0167" x2="43.6317" y2="74.3115" gradientUnits="userSpaceOnUse">
<stop offset="0.000903179" stop-color="#2E2D93"/>
<stop offset="1" stop-color="#5B5ADB"/>
</linearGradient>
<linearGradient id="paint5_linear" x1="68.8271" y1="65.2477" x2="70.3741" y2="65.2477" gradientUnits="userSpaceOnUse">
<stop stop-color="#FE7577"/>
<stop offset="1" stop-color="#FA6DB3"/>
</linearGradient>
<linearGradient id="paint6_linear" x1="75.3003" y1="65.5208" x2="82.2189" y2="65.5208" gradientUnits="userSpaceOnUse">
<stop stop-color="#FE7577"/>
<stop offset="1" stop-color="#FA6DB3"/>
</linearGradient>
<linearGradient id="paint7_linear" x1="76.9072" y1="67.3524" x2="86.3695" y2="67.3524" gradientUnits="userSpaceOnUse">
<stop stop-color="#FE7577"/>
<stop offset="1" stop-color="#FA6DB3"/>
</linearGradient>
<linearGradient id="paint8_linear" x1="77.9785" y1="68.9111" x2="86.9981" y2="68.9111" gradientUnits="userSpaceOnUse">
<stop stop-color="#FE7577"/>
<stop offset="1" stop-color="#FA6DB3"/>
</linearGradient>
<linearGradient id="paint9_linear" x1="60.7324" y1="73.2498" x2="84.8795" y2="73.2498" gradientUnits="userSpaceOnUse">
<stop stop-color="#FE7577"/>
<stop offset="1" stop-color="#FA6DB3"/>
</linearGradient>
<linearGradient id="paint10_linear" x1="58.4074" y1="71.1255" x2="62.9756" y2="74.5505" gradientUnits="userSpaceOnUse">
<stop offset="0.000903179" stop-color="#2E2D93"/>
<stop offset="1" stop-color="#5B5ADB"/>
</linearGradient>
<clipPath id="clip0">
<rect x="44.1265" y="54.8976" width="42.8733" height="18.6054" fill="white"/>
</clipPath>
</defs>
</svg>
