<svg width="60" height="43" viewBox="0 0 60 43" fill="none" xmlns="http://www.w3.org/2000/svg">
<g clip-path="url(#clip0)">
<path d="M37.0446 42.1507C34.3962 42.1576 31.7724 41.648 29.3257 40.6507C26.8788 39.6538 24.6573 38.1892 22.7896 36.3423C22.5413 36.0979 22.3443 35.8081 22.2099 35.489C22.0755 35.1698 22.0063 34.8278 22.0063 34.4823C22.0063 34.1369 22.0755 33.7948 22.2099 33.4756C22.3443 33.1565 22.5413 32.8667 22.7896 32.6223C23.0379 32.3782 23.3327 32.1843 23.6571 32.0522C23.9816 31.92 24.3293 31.852 24.6805 31.852C25.0316 31.852 25.3794 31.92 25.7038 32.0522C26.0283 32.1843 26.3231 32.3782 26.5714 32.6223C29.3495 35.3542 33.117 36.8888 37.0452 36.8888C40.9736 36.8888 44.7408 35.3542 47.5191 32.6223C47.7675 32.3782 48.0623 32.1843 48.3866 32.0522C48.711 31.92 49.0588 31.852 49.4101 31.852C49.7611 31.852 50.1089 31.92 50.4333 32.0522C50.7576 32.1843 51.0524 32.3782 51.3008 32.6223C51.5492 32.8667 51.746 33.1565 51.8805 33.4756C52.015 33.7948 52.084 34.1369 52.084 34.4823C52.084 34.8278 52.015 35.1698 51.8805 35.489C51.746 35.8081 51.5492 36.0979 51.3008 36.3423C49.4336 38.19 47.2118 39.6549 44.7646 40.6522C42.3176 41.6491 39.6936 42.1587 37.0446 42.1507Z" fill="#FFFEFF"/>
<path d="M48.4031 7.04432C46.9248 7.01788 45.4559 7.28234 44.0831 7.82218C42.7101 8.362 41.4608 9.1663 40.4083 10.1878C39.3559 11.2093 38.5216 12.4275 37.9547 13.7706C37.3877 15.1138 37.0993 16.5549 37.1066 18.0092V24.5806C37.1069 24.9569 37.1825 25.3295 37.3292 25.677C37.4759 26.0246 37.6909 26.3403 37.9616 26.6062C38.2324 26.8721 38.5535 27.0829 38.9072 27.2266C39.2608 27.3703 39.6396 27.4442 40.0222 27.4439C40.4048 27.4442 40.7837 27.3703 41.1373 27.2266C41.4909 27.0829 41.8124 26.8721 42.0831 26.6062C42.3538 26.3403 42.5686 26.0246 42.7153 25.677C42.8619 25.3295 42.9376 24.9569 42.9379 24.5806V17.8097C42.9257 17.0969 43.0582 16.389 43.3274 15.7272C43.5967 15.0653 43.9973 14.463 44.5063 13.9553C45.015 13.4477 45.6216 13.0449 46.2903 12.7706C46.9593 12.4963 47.6773 12.356 48.4019 12.3578C49.8924 12.3439 51.328 12.9084 52.3982 13.929C53.468 14.9496 54.0857 16.344 54.1176 17.8097V24.5806C54.1179 24.9569 54.1935 25.3295 54.3402 25.677C54.4869 26.0246 54.7016 26.3403 54.9724 26.6062C55.2431 26.8721 55.5645 27.0829 55.9182 27.2266C56.2718 27.3703 56.6506 27.4442 57.0332 27.4439C57.4158 27.4442 57.7947 27.3703 58.1483 27.2266C58.5016 27.0829 58.8231 26.8721 59.0938 26.6062C59.3645 26.3403 59.5793 26.0246 59.726 25.677C59.8729 25.3295 59.9486 24.9569 59.9489 24.5806V18.0092C59.928 16.5418 59.6121 15.0929 59.0193 13.7462C58.4266 12.3994 57.5689 11.1813 56.4953 10.1621C55.4219 9.14283 54.1541 8.34261 52.7648 7.80754C51.3756 7.27243 49.8924 7.01306 48.4008 7.04432H48.4031Z" fill="#FFFEFF"/>
<path d="M0.00235381 18.3788C-0.0519185 20.7119 0.8342 22.9714 2.46734 24.6642C4.10046 26.357 6.34806 27.3457 8.71954 27.4145C8.98678 27.4368 9.77414 27.4615 10.2561 27.4462C10.6116 27.4465 10.9636 27.3779 11.2922 27.2444C11.6207 27.1109 11.9193 26.915 12.1709 26.668C12.4225 26.421 12.6221 26.1276 12.7584 25.8047C12.8948 25.4818 12.9651 25.1356 12.9654 24.7859C12.9652 24.4363 12.895 24.09 12.7588 23.767C12.6225 23.4441 12.4228 23.1506 12.1712 22.9036C11.9196 22.6565 11.621 22.4607 11.2924 22.3272C10.9638 22.1937 10.6116 22.1253 10.2561 22.1257H9.46397C8.49606 22.1183 7.57055 21.7339 6.89014 21.0567C6.20974 20.3795 5.82988 19.4647 5.83368 18.5126V12.3061H10.317C11.0192 12.3071 11.693 12.0337 12.1903 11.546C12.6876 11.0584 12.9677 10.3965 12.969 9.70575C12.9685 9.36369 12.8995 9.02507 12.766 8.70925C12.6324 8.39343 12.4369 8.1066 12.1907 7.86509C11.9444 7.62362 11.6521 7.43222 11.3306 7.30187C11.0092 7.17151 10.6647 7.10473 10.317 7.10533H5.83368V2.86796C5.83368 2.10733 5.52649 1.37786 4.97971 0.840009C4.43293 0.302164 3.6913 0 2.91803 0C2.14474 0 1.40313 0.302164 0.856339 0.840009C0.309545 1.37786 0.00235381 2.10733 0.00235381 2.86796V9.70341V18.38V18.3788Z" fill="#FFFEFF"/>
<path d="M24.6805 7.0443C22.5881 7.0443 20.5427 7.65463 18.8029 8.7981C17.0631 9.94155 15.7071 11.5668 14.9064 13.4683C14.1057 15.3698 13.8962 17.4622 14.3044 19.4808C14.7126 21.4994 15.7202 23.3536 17.1997 24.809C18.6793 26.2643 20.5644 27.2554 22.6166 27.657C24.6688 28.0585 26.796 27.8524 28.7291 27.0648C30.6623 26.2772 32.3145 24.9433 33.4771 23.232C34.6394 21.5207 35.26 19.5088 35.26 17.4506C35.2597 14.6908 34.1449 12.0441 32.1608 10.0926C30.1771 8.14109 27.4863 7.04461 24.6805 7.0443ZM24.6805 22.4989C23.6699 22.4817 22.6869 22.1713 21.855 21.6066C21.023 21.0418 20.3793 20.2479 20.0046 19.3245C19.6298 18.4012 19.5407 17.3894 19.7485 16.4164C19.9563 15.4434 20.4517 14.5524 21.1725 13.8554C21.8933 13.1584 22.8074 12.6863 23.8001 12.4986C24.7927 12.3108 25.8195 12.4157 26.7518 12.8C27.684 13.1844 28.48 13.831 29.04 14.6588C29.5997 15.4866 29.8985 16.4587 29.8985 17.453C29.8864 18.8026 29.3298 20.0921 28.3514 21.0383C27.3729 21.9845 26.0526 22.5098 24.6805 22.4989Z" fill="#FFFEFF"/>
</g>
<defs>
<clipPath id="clip0">
<rect width="60" height="42.2535" fill="white"/>
</clipPath>
</defs>
</svg>
