<svg width="88" height="88" viewBox="0 0 88 88" fill="none" xmlns="http://www.w3.org/2000/svg">
<path d="M70.9874 61.7964L75.4717 59.2162V62.4337L70.9874 65.0217V61.7964Z" fill="#B3B3B5"/>
<path d="M75.4716 62.4337L77.3135 62.5891V59.3716L75.4716 59.2162V62.4337Z" fill="#969697"/>
<path d="M66.1846 67.1433L61.7314 69.1095V65.892L66.1846 63.9258V67.1433Z" fill="#969697"/>
<path d="M71.1504 67.1588L66.1843 67.1433V63.9258L71.1504 63.9413V67.1588Z" fill="#B3B3B5"/>
<path d="M75.456 58.2991L59.6172 64.6719L61.7311 65.8921L66.1766 63.9258L69.9381 64.4931C70.521 64.5009 71.0261 64.2678 71.1505 63.9414L70.9795 61.7964L75.4716 59.2161L77.3135 59.3716L75.456 58.2991Z" fill="#E8E8E8"/>
<path d="M79 63.5682L67.9641 72.7078V69.4903L79 60.3507V63.5682Z" fill="#969697"/>
<path d="M61.9256 66.1099C61.949 66.2731 61.7158 66.4363 61.3972 66.5839L46.6386 73.4075C46.0169 73.6951 45.1309 73.664 44.5714 73.3454L42.8771 72.3661C42.5507 72.1796 42.4108 71.9309 42.4263 71.69H42.4186V75.0007H42.4263C42.4419 75.2106 42.5818 75.4204 42.8693 75.5914L44.5636 76.5706C45.1231 76.897 46.0091 76.9204 46.6309 76.6406L61.3894 69.817C61.708 69.6693 61.949 69.4983 61.9179 69.3351H61.9256V66.1254V66.1099Z" fill="url(#paint0_linear)"/>
<path d="M42.8849 72.3659L44.5791 73.3451C45.1387 73.6715 46.0247 73.6948 46.6464 73.4073L61.4049 66.5837C61.8635 66.3739 62.1588 66.1252 61.7391 65.8843L58.5138 64.0268C58.304 63.9025 57.9698 63.8869 57.7211 63.9879H57.7134C57.4491 64.089 57.3714 64.291 57.5191 64.4543L57.5268 64.462C57.8222 64.7807 57.6667 65.177 57.1538 65.3791L43.0947 70.9903C42.302 71.3167 42.201 71.9695 42.8849 72.3659Z" fill="#5B5ADB"/>
<path d="M69.2466 70.361C69.2544 70.4387 69.2233 70.5164 69.1456 70.5863L69.1378 70.5941C68.9591 70.7418 68.6093 70.7884 68.3296 70.7029L68.314 70.6951C67.77 70.5242 67.0783 70.6174 66.7286 70.9128L57.0061 79.0264C56.4543 79.485 55.3197 79.5472 54.6358 79.1508L52.9415 78.1716C52.6462 78.0006 52.4985 77.7752 52.4908 77.5498V80.7751C52.4985 81.0005 52.6462 81.2181 52.9415 81.3891L54.6358 82.3683C55.3197 82.7647 56.4543 82.7025 57.0061 82.2439L66.7286 74.1303C67.0861 73.8349 67.77 73.7417 68.314 73.9126L68.3296 73.9204C68.6093 74.0059 68.9591 73.9593 69.1378 73.8116L69.1456 73.8038C69.2155 73.7417 69.2466 73.6795 69.2466 73.6095H69.2544L69.2466 70.361Z" fill="url(#paint1_linear)"/>
<path d="M54.6357 79.1507L52.9414 78.1714C52.3819 77.845 52.3353 77.3321 52.8249 76.9823L64.6457 68.4645C65.011 68.2003 65.4384 68.0293 65.8503 68.2702L69.0756 70.1277C69.2854 70.252 69.3165 70.4463 69.1455 70.5862L69.1377 70.594C68.959 70.7416 68.6093 70.7883 68.3295 70.7028L68.3139 70.695C67.7699 70.524 67.0782 70.6173 66.7285 70.9126L57.0061 79.0263C56.4543 79.4848 55.3196 79.547 54.6357 79.1507Z" fill="#5B5ADB"/>
<path d="M77.3135 60.4129V59.3715L77.4146 60.3507L77.3135 60.4129Z" fill="#969697"/>
<path d="M69.1997 65.6667L68.1661 63.4673V63.8403L69.0754 65.7677L69.1997 65.6667Z" fill="#969697"/>
<path d="M79 60.3507L67.9641 69.4903L65.8502 68.2701L69.1998 65.6666L68.1584 63.4672C68.1507 63.133 68.547 62.8377 69.1143 62.7677L72.938 62.9309L77.4146 60.3507L77.3135 59.3715L79 60.3507Z" fill="#E8E8E8"/>
<path d="M70.4278 63.677C70.4045 63.6226 70.3501 63.5682 70.2724 63.5216C70.0314 63.3739 69.6273 63.3739 69.3864 63.5216C69.3087 63.5604 69.2543 63.6148 69.231 63.677C69.161 63.5527 69.2154 63.4128 69.3864 63.3195C69.6273 63.1796 70.0314 63.1796 70.2724 63.3195C70.4434 63.4206 70.49 63.5527 70.4278 63.677Z" fill="#B3B3B5"/>
<path d="M70.4277 63.6771C70.4044 63.7315 70.35 63.7859 70.2723 63.8247C70.0314 63.9646 69.6272 63.9646 69.3863 63.8247C69.3086 63.7859 69.262 63.7315 69.2309 63.6771C69.2542 63.6227 69.3086 63.5683 69.3863 63.5216C69.6272 63.374 70.0314 63.374 70.2723 63.5216C70.35 63.5683 70.4044 63.6227 70.4277 63.6771Z" fill="#969697"/>
<path d="M8.99977 61.7687L28.2363 72.9356V46.3037L8.99977 35.1368V61.7687Z" fill="#FF80BB"/>
<path d="M40.266 17.0057L59.5161 28.1726L28.2364 46.3036L8.99982 35.1367L40.266 17.0057Z" fill="#FEA9D1"/>
<path d="M26.218 27.7648L27.1121 28.2953L28.4668 27.5336L43.1787 36.0482L44.0728 35.5449L28.4668 26.4999L26.218 27.7648Z" fill="#FF80BB"/>
<path d="M27.1121 28.2953L41.824 36.8099L43.1787 36.0482L28.4668 27.5336L27.1121 28.2953Z" fill="#E07AAA"/>
<path d="M28.2364 72.9356L59.5161 54.8046V28.1727L28.2364 46.3036V72.9356Z" fill="#FF80BB"/>
<path d="M31.2573 67.8759V68.9504L56.4951 54.3287V38.7141L55.5062 39.299V53.8119L31.2573 67.8759Z" fill="#FEA9D1"/>
<path d="M31.2574 53.3357V67.8758L55.5063 53.8117V39.2988L31.2574 53.3357Z" fill="#EF79B0"/>
<path d="M31.2169 49.4865C31.2169 50.6698 32.0432 51.1595 33.0728 50.561C34.1024 49.9625 34.9287 48.5207 34.9287 47.3238C34.9287 46.1405 34.1024 45.6508 33.0728 46.2493C32.0568 46.8478 31.2169 48.3031 31.2169 49.4865Z" fill="#AF0D0D"/>
<path d="M32.9102 46.8747V48.3301L31.7046 49.0238V49.391L32.9102 48.6974V50.1527L33.2489 49.9487V48.4933L34.4546 47.7997V47.4324L33.2489 48.1261V46.6843L32.9102 46.8747Z" fill="white"/>
<path d="M52.9864 36.8776C52.9864 38.0609 53.8128 38.5506 54.8423 37.9521C55.8719 37.3536 56.6982 35.9119 56.6982 34.7149C56.6982 33.5316 55.8719 33.0419 54.8423 33.6404C53.8128 34.2389 52.9864 35.6806 52.9864 36.8776Z" fill="#086692"/>
<path d="M53.4604 36.4012V36.7684L56.2104 35.1771V34.8098L53.4604 36.4012Z" fill="white"/>
<path d="M42.5282 14.9658C42.7856 14.8162 43.0159 14.8162 43.1785 14.9386L45.373 16.2172L43.4087 17.4413L43.1649 26.2824L40.9839 25.0174V15.8499L42.5282 14.9658Z" fill="#FD7294"/>
<path d="M43.1789 17.1283L44.7097 16.2442C45.1838 15.9722 45.5767 16.1898 45.5767 16.7475V24.8812L43.1789 26.2686V17.1283Z" fill="#FF80BB"/>
<path d="M22.9801 24.4326L25.1611 25.6976V29.4108L22.9801 28.1458V24.4326Z" fill="url(#paint2_linear)"/>
<path d="M22.9803 24.4324L40.9841 14L43.1787 15.2649L25.1614 25.6974L22.9803 24.4324Z" fill="url(#paint3_linear)"/>
<path d="M25.1614 25.6974L43.1787 15.265V18.9782L25.1614 29.4107V25.6974Z" fill="#5B5ADB"/>
<path d="M21.4498 27.18L22.9806 26.2959L25.1616 27.5608L22.7638 38.1157L20.5828 36.8507V28.6898C20.5828 28.1321 20.9756 27.4656 21.4498 27.18Z" fill="#FD7294"/>
<path d="M23.6308 28.445L25.1616 27.5609V36.7148L22.7638 38.1021V29.9548C22.7638 29.3971 23.1567 28.7306 23.6308 28.445Z" fill="#FF80BB"/>
<path d="M31.7451 39.054V41.339C31.7451 41.7607 31.4742 42.1687 30.9188 42.4952C29.8215 43.1344 28.0333 43.1344 26.936 42.4952C26.3806 42.1823 26.1096 41.7607 26.1096 41.339V39.054H31.7451Z" fill="#AF0D0D"/>
<path d="M28.9274 40.6861C27.3712 40.6861 26.1096 39.9554 26.1096 39.0539C26.1096 38.1525 27.3712 37.4218 28.9274 37.4218C30.4836 37.4218 31.7451 38.1525 31.7451 39.0539C31.7451 39.9554 30.4836 40.6861 28.9274 40.6861Z" fill="#FF2020"/>
<path d="M54.8423 25.7925V28.0775C54.8423 28.4992 54.5713 28.9072 54.0159 29.2337C52.9186 29.873 51.1304 29.873 50.0331 29.2337C49.4777 28.9208 49.2068 28.4992 49.2068 28.0775V25.7925H54.8423Z" fill="#086692"/>
<path d="M50.0331 26.9487C51.1304 27.588 52.9186 27.588 54.0159 26.9487C55.1132 26.3094 55.1132 25.2757 54.0159 24.6364C52.9186 23.9972 51.1304 23.9972 50.0331 24.6364C48.9358 25.2757 48.9358 26.3094 50.0331 26.9487Z" fill="#148FCA"/>
<defs>
<linearGradient id="paint0_linear" x1="71.6375" y1="71.4842" x2="62.593" y2="87.9296" gradientUnits="userSpaceOnUse">
<stop offset="0.000903179" stop-color="#2E2D93"/>
<stop offset="1" stop-color="#5B5ADB"/>
</linearGradient>
<linearGradient id="paint1_linear" x1="77.5984" y1="76.5096" x2="65.9173" y2="92.462" gradientUnits="userSpaceOnUse">
<stop offset="0.000903179" stop-color="#2E2D93"/>
<stop offset="1" stop-color="#5B5ADB"/>
</linearGradient>
<linearGradient id="paint2_linear" x1="26.2467" y1="26.9273" x2="22.5932" y2="28.5273" gradientUnits="userSpaceOnUse">
<stop offset="0.000903179" stop-color="#2E2D93"/>
<stop offset="1" stop-color="#5B5ADB"/>
</linearGradient>
<linearGradient id="paint3_linear" x1="53.2323" y1="19.8619" x2="43.098" y2="37.3533" gradientUnits="userSpaceOnUse">
<stop offset="0.000903179" stop-color="#2E2D93"/>
<stop offset="1" stop-color="#5B5ADB"/>
</linearGradient>
</defs>
</svg>
