<svg width="88" height="88" viewBox="0 0 88 88" fill="none" xmlns="http://www.w3.org/2000/svg">
<path d="M82.207 53.8827L82.9574 53.4506C82.9574 53.4506 82.9574 53.4506 82.4268 53.1474C81.9871 53.1095 81.5778 53.1095 81.1987 53.1398L81.4337 53.7994L82.207 53.8827Z" fill="#B2B2B2"/>
<path d="M59.4346 64.0257L62.3304 63.5784V66.1103L59.4346 66.5576V64.0257Z" fill="#999999"/>
<path d="M85.9139 55.2852C85.5652 55.5278 85.262 55.6566 85.262 55.6566C85.262 55.6566 83.3289 56.5436 81.3201 56.2403C81.3201 56.2403 80.0693 55.9447 78.1665 57.0439C78.1665 57.0439 67.7734 63.0402 65.9313 64.1091C66.227 64.4729 66.371 64.8595 66.3786 65.2537L64.6275 67.3839C62.7778 68.2481 60.0563 68.1875 58.3279 67.1868C58.2749 67.1565 58.2218 67.1186 58.1687 67.0883L56.9482 65.2537V67.8236C56.9558 68.5134 57.4182 69.2033 58.3279 69.7263C60.17 70.7876 63.1568 70.7876 64.9989 69.7263C65.9086 69.2033 66.371 68.5134 66.3786 67.8236V66.3908C69.047 64.852 78.1741 59.5834 78.1741 59.5834C80.0844 58.4842 81.3276 58.7799 81.3276 58.7799C83.3289 59.0831 85.2696 58.1961 85.2696 58.1961C85.2696 58.1961 86.9449 57.476 86.9904 56.21H86.998V53.6402L85.9139 55.2852ZM66.3786 65.3144V65.3068V65.3144Z" fill="#B2B2B2"/>
<path d="M80.8423 52.1392L82.9573 50.9187V53.4506L80.8423 54.6711V52.1392Z" fill="#999999"/>
<path d="M63.1114 66.5576L62.3306 66.1103V63.5784L64.4607 64.8065L63.6799 66.4818L63.1114 66.5576Z" fill="#808080"/>
<path d="M59.4346 66.1558L58.6538 65.701L59.4346 64.0257V66.1558Z" fill="#727272"/>
<path d="M81.3276 56.2479C83.3289 56.5511 85.2695 55.6642 85.2695 55.6642C85.2695 55.6642 87.3618 54.7773 86.9448 53.2232C86.4142 52.92 86.4142 52.92 86.4142 52.92L84.2992 54.1405L81.4337 53.7994L80.8424 52.1392L82.9574 50.9187C82.9574 50.9187 82.9574 50.9187 82.4268 50.6155C79.7356 50.3729 78.1968 51.5782 78.1968 51.5782C78.1968 51.5782 76.6655 52.6926 77.181 53.8524C77.181 53.8524 77.6964 54.5726 75.7861 55.6718C75.7861 55.6718 65.2414 61.7666 63.5206 62.7597C61.7998 62.3352 59.7303 62.5247 58.3279 63.3358C56.4858 64.3971 56.4858 66.1255 58.3279 67.1868C60.17 68.2481 63.1567 68.2481 64.9988 67.1868C66.4392 66.3529 66.75 65.1173 65.9313 64.109C67.7734 63.0478 78.1664 57.0439 78.1664 57.0439C80.0768 55.9523 81.3276 56.2479 81.3276 56.2479ZM64.4606 64.8065L63.6798 66.4818L60.7764 66.9291L58.6538 65.701L59.4346 64.0257L62.338 63.5784L64.4606 64.8065Z" fill="#E8E8E8"/>
<path d="M77.3404 56.8923C77.3025 56.8544 77.257 56.824 77.1964 56.7861L77.1812 56.7786C76.8173 56.5663 76.226 56.5663 75.8622 56.7786L65.9846 62.4868C65.9239 62.5171 65.8784 62.555 65.8405 62.5929C65.6283 62.3883 65.6738 62.1153 65.9846 61.9334L75.8622 56.2328C76.226 56.0205 76.8173 56.0205 77.1812 56.2328L77.1964 56.2403C77.5072 56.4147 77.5527 56.6876 77.3404 56.8923Z" fill="#999999"/>
<path d="M77.3402 56.8923C77.3023 56.9302 77.2568 56.9605 77.1962 56.9984L67.3186 62.7066C66.9547 62.9189 66.3634 62.9189 65.9995 62.7066L65.9844 62.6991C65.9237 62.6687 65.8782 62.6308 65.8403 62.5929C65.8782 62.555 65.9237 62.5247 65.9844 62.4868L75.862 56.7786C76.2258 56.5663 76.8171 56.5663 77.181 56.7786L77.1962 56.7861C77.2568 56.8165 77.3023 56.8544 77.3402 56.8923Z" fill="#B2B2B2"/>
<path d="M67.2504 49.8802C66.7879 49.4102 66.5681 48.8871 66.5833 48.364V50.2668L67.2504 49.8802Z" fill="#B2B2B2"/>
<path d="M76.6655 48.364C76.6655 48.3868 76.6731 48.4095 76.6731 48.4323L76.6655 48.364Z" fill="#B2B2B2"/>
<path d="M75.1951 50.4866C73.5501 51.4418 71.0409 51.5934 69.1154 50.949L55.4702 58.8253C56.2662 59.7426 56.0236 60.8797 54.7046 61.6454C53.052 62.6005 50.376 62.6005 48.7234 61.6454C47.9199 61.1829 47.5105 60.5765 47.4878 59.97V59.97V62.4944C47.503 63.1084 47.9123 63.7149 48.7234 64.1773C50.376 65.1325 53.052 65.1325 54.7046 64.1773C55.5385 63.6997 55.9402 63.0705 55.9326 62.4413V61.092L69.1154 53.481C71.0409 54.1178 73.5501 53.9661 75.1951 53.0186C76.2033 52.4349 76.6885 51.6768 76.6658 50.9111H76.6733V48.4247C76.6733 49.1752 76.1806 49.9181 75.1951 50.4866Z" fill="#B2B2B2"/>
<path d="M53.9919 58.6131L50.8838 58.1279V60.6599L53.6356 61.092L53.9919 60.8873V58.6131Z" fill="#999999"/>
<path d="M49.792 61.289L49.4432 61.236L48.6094 59.4394L50.8836 58.1279V60.6599L49.792 61.289Z" fill="#727272"/>
<path d="M53.9917 60.8873V58.6131L54.8256 60.4021L53.9917 60.8873Z" fill="#727272"/>
<path d="M74.2854 49.4253L70.6543 48.8644V46.3324L74.2854 46.8934V49.4253Z" fill="#999999"/>
<path d="M70.654 48.8644L68.9256 49.865L67.9932 47.8637L70.654 46.3324V48.8644Z" fill="#808080"/>
<path d="M75.2555 48.9932L74.3306 49.5239L74.2852 49.4253V46.8934L75.2555 48.9932Z" fill="#808080"/>
<path d="M68.054 46.3703C66.409 47.3255 66.1437 48.7658 67.2505 49.8802L53.6053 57.7565C52.0209 57.294 50.0424 57.4381 48.7233 58.2037C47.0707 59.1589 47.0707 60.7053 48.7233 61.6529C50.3759 62.6081 53.0519 62.6081 54.7045 61.6529C56.0311 60.8873 56.2737 59.7502 55.4701 58.8329L69.1153 50.9566C71.0408 51.5934 73.55 51.4418 75.195 50.4942C77.166 49.3571 77.166 47.5074 75.195 46.3703C73.224 45.2256 70.025 45.2256 68.054 46.3703ZM54.8258 60.4021L52.5516 61.7136L49.4435 61.236L48.6096 59.4394L50.8838 58.1279L53.9919 58.6055L54.8258 60.4021ZM75.2556 48.9932L72.5948 50.5245L68.9637 49.9636L67.9934 47.8637L70.6542 46.3324L74.2853 46.8934L75.2556 48.9932Z" fill="#E8E8E8"/>
<path d="M21.0441 69.4515L51.2583 52.0056V36.0778L21.0441 53.5236V69.4515Z" fill="#5B5ADB"/>
<path d="M23.0628 65.573V66.3574L49.2388 51.243V44.2996L48.5125 44.7136V50.8726L23.0628 65.573Z" fill="#31308A"/>
<path d="M23.063 59.4139V65.573L48.5127 50.8726V44.7136L23.063 59.4139Z" fill="url(#paint0_linear)"/>
<path d="M21.0441 56.2255L51.2583 38.7797V36.0778L21.0441 53.5236V56.2255Z" fill="#31308A"/>
<path d="M21.0439 69.4515V53.5236L3.53278 43.4135V59.3413L21.0439 69.4515Z" fill="#5B5ADB"/>
<path d="M21.0439 56.2255V53.5236L3.53278 43.4135V46.1153L21.0439 56.2255Z" fill="#31308A"/>
<path d="M20.6371 54.6712L52.7905 36.1069V30.9792L20.6371 49.5435V54.6712Z" fill="url(#paint1_linear)"/>
<path d="M20.6372 54.6712V49.5435L2.00027 38.7797V43.9146L20.6372 54.6712Z" fill="url(#paint2_linear)"/>
<path d="M20.6371 49.5435L52.7905 30.9792L34.1536 20.2154L2.00015 38.7797L20.6371 49.5435Z" fill="#5B5ADB"/>
<path d="M11.1735 34.0805L12.0233 34.5671L27.0287 25.9096L35.0834 30.5579L35.9404 30.064L27.0287 24.9218L11.1735 34.0805Z" fill="#31308A"/>
<path d="M14.9644 34.923L21.2396 38.5545L22.0967 38.0606L14.9644 33.9425V34.923Z" fill="#31308A"/>
<path d="M12.0229 34.5671L20.0848 39.2227L21.2397 38.5545L14.9644 34.923V33.9425L26.7959 27.108L33.9282 31.2334L35.083 30.5579L27.0283 25.9096L12.0229 34.5671Z" fill="url(#paint3_linear)"/>
<path d="M32.3739 22.1256L33.9282 22.9899V31.2334L32.3739 30.3691V22.1256Z" fill="#FF80BB"/>
<path d="M35.9404 19.7796V30.064L33.9286 31.2261V22.9898L22.0971 29.8171V38.0606L20.0852 39.2227V28.931L35.9404 19.7796Z" fill="url(#paint4_linear)"/>
<path d="M18.5307 38.3584L20.085 39.2227V28.931L18.5307 28.0667V38.3584Z" fill="#FF80BB"/>
<path d="M18.5309 28.0667L20.0852 28.931L35.9404 19.7796L34.3861 18.9153L18.5309 28.0667Z" fill="#FF80BB"/>
<path d="M32.6934 47.7132V42.5782L28.3429 40.0725V39.3316L33.6885 42.4039V48.2797L32.6934 47.7132Z" fill="#FF80BB"/>
<path d="M33.6887 48.2797V42.4039L42.1792 37.5014V43.3772L33.6887 48.2797Z" fill="url(#paint5_linear)"/>
<path d="M33.6887 42.4039L42.1792 37.5014L36.8336 34.4291L28.3431 39.3317L33.6887 42.4039Z" fill="#FF80BB"/>
<defs>
<linearGradient id="paint0_linear" x1="61.1801" y1="55.1668" x2="40.7525" y2="80.0784" gradientUnits="userSpaceOnUse">
<stop offset="0.000903179" stop-color="#2E2D93"/>
<stop offset="1" stop-color="#5B5ADB"/>
</linearGradient>
<linearGradient id="paint1_linear" x1="68.7947" y1="42.8519" x2="46.1937" y2="73.5108" gradientUnits="userSpaceOnUse">
<stop offset="0.000903179" stop-color="#2E2D93"/>
<stop offset="1" stop-color="#5B5ADB"/>
</linearGradient>
<linearGradient id="paint2_linear" x1="29.9136" y1="46.7434" x2="14.2419" y2="65.1142" gradientUnits="userSpaceOnUse">
<stop offset="0.000903179" stop-color="#2E2D93"/>
<stop offset="1" stop-color="#5B5ADB"/>
</linearGradient>
<linearGradient id="paint3_linear" x1="46.561" y1="32.5812" x2="35.0448" y2="52.5198" gradientUnits="userSpaceOnUse">
<stop offset="0.000903179" stop-color="#2E2D93"/>
<stop offset="1" stop-color="#5B5ADB"/>
</linearGradient>
<linearGradient id="paint4_linear" x1="35.9404" y1="39.2227" x2="20.0852" y2="39.2227" gradientUnits="userSpaceOnUse">
<stop stop-color="#FE7577"/>
<stop offset="1" stop-color="#FA6DB3"/>
</linearGradient>
<linearGradient id="paint5_linear" x1="42.1792" y1="48.2797" x2="33.6887" y2="48.2797" gradientUnits="userSpaceOnUse">
<stop stop-color="#FE7577"/>
<stop offset="1" stop-color="#FA6DB3"/>
</linearGradient>
</defs>
</svg>
