<svg width="98" height="188" viewBox="0 0 98 188" fill="none" xmlns="http://www.w3.org/2000/svg">
<path d="M12.9937 0.25H84.6856C91.7615 0.25 97.4294 5.14736 97.4309 11.1118V175.938C97.4309 181.901 91.763 186.798 84.6871 186.798H12.9937C5.91782 186.798 0.25 181.901 0.25 175.938V11.1118C0.25 5.14738 5.91933 0.25 12.9937 0.25Z" stroke="white" stroke-width="0.5"/>
<path d="M50.1323 180.978C45.8857 180.978 42.4424 177.532 42.4424 173.281C42.4424 169.032 45.8858 165.584 50.1323 165.584C54.3789 165.584 57.8222 169.032 57.8222 173.281C57.8222 177.532 54.3789 180.978 50.1323 180.978Z" stroke="white" stroke-width="0.5"/>
<path d="M91.6772 157.512C91.6772 158.418 90.8114 159.213 89.6632 159.213H7.62197C6.4739 159.213 5.60938 158.42 5.60938 157.512V20.4323C5.60938 19.5265 6.47402 18.7314 7.62197 18.7314H89.6632C90.8115 18.7314 91.6772 19.5268 91.6772 20.431V157.512Z" stroke="white" stroke-width="0.5"/>
<rect x="15.8711" y="31.5903" width="24.4863" height="24.4863" rx="2" fill="url(#paint0_linear)"/>
<defs>
<linearGradient id="paint0_linear" x1="15.8711" y1="56.0767" x2="40.3574" y2="56.0767" gradientUnits="userSpaceOnUse">
<stop stop-color="#FE7577"/>
<stop offset="1" stop-color="#FA6DB3"/>
</linearGradient>
</defs>
</svg>
