<svg width="102" height="102" fill="none" xmlns="http://www.w3.org/2000/svg">
  <path opacity=".2" d="M51 102c28.166 0 51-22.834 51-51S79.166 0 51 0 0 22.834 0 51s22.834 51 51 51z" fill="#98F9C2"/>
  <g filter="url(#filter0_d)">
    <path d="M79.944 41.58c.055.082.098.229.098.386v30.84a.87.87 0 01-.05.296.864.864 0 01-.817.568H24.234a.858.858 0 01-.859-.857v-.847-30a.842.842 0 01.275-.628.863.863 0 01.135-.102c.384-.29 9.52-7.13 27.408-20.52a.86.86 0 011.03 0l27.463 20.556c.12.106.202.207.257.308z" fill="#000"/>
  </g>
  <path d="M79.944 41.58c.055.082.098.229.098.386v30.84a.87.87 0 01-.05.296.864.864 0 01-.817.568H24.234a.858.858 0 01-.859-.857v-.847-30a.842.842 0 01.275-.628.863.863 0 01.135-.102c.384-.29 9.52-7.13 27.408-20.52a.86.86 0 011.03 0l27.463 20.556c.12.106.202.207.257.308z" fill="url(#paint0_linear)"/>
  <path fill-rule="evenodd" clip-rule="evenodd" d="M79.944 41.58c.055.082.098.229.098.386v30.84a.87.87 0 01-.05.296.864.864 0 01-.817.568H24.234a.858.858 0 01-.859-.857v-.847-30a.842.842 0 01.275-.628.863.863 0 01.135-.102c.384-.29 9.52-7.13 27.408-20.52a.86.86 0 011.03 0l27.463 20.556c.12.106.202.207.257.308z" fill="#000" fill-opacity=".1"/>
  <path fill-rule="evenodd" clip-rule="evenodd" d="M30.557 47.762l8.942 8.924h23.885l8.942-8.13V30.07c0-.882-.715-1.597-1.597-1.597H32.153c-.881 0-1.596.715-1.596 1.597v17.692z" fill="#C5FAEA"/>
  <path opacity=".3" fill-rule="evenodd" clip-rule="evenodd" d="M45.115 41.684l4.497 4.488 8.688-8.67a1.05 1.05 0 011.48 0c.41.409.41 1.07 0 1.48l-9.427 9.408a1.049 1.049 0 01-1.481 0l-5.238-5.227a1.044 1.044 0 010-1.479 1.05 1.05 0 011.481 0z" fill="#000"/>
  <path fill-rule="evenodd" clip-rule="evenodd" d="M79.942 41.579c.056.082.099.23.099.386v30.84a.868.868 0 01-.493.782.864.864 0 01-.374.082H24.233a.858.858 0 01-.859-.857v-.847-30a.842.842 0 01.275-.628.868.868 0 01.135-.102c.129-.097 5.326 5 15.59 15.288h24.08l16.231-15.252c.12.106.202.207.257.308z" fill="url(#paint1_linear)"/>
  <defs>
    <linearGradient id="paint0_linear" x1="80.042" y1="70.453" x2="54.38" y2="22.337" gradientUnits="userSpaceOnUse">
      <stop stop-color="#98F9C2"/>
      <stop offset="1" stop-color="#67F2E3"/>
    </linearGradient>
    <linearGradient id="paint1_linear" x1="80.041" y1="62.765" x2="62.513" y2="42.699" gradientUnits="userSpaceOnUse">
      <stop stop-color="#98F9C2"/>
      <stop offset="1" stop-color="#67F2E3"/>
    </linearGradient>
    <filter id="filter0_d" x="14.375" y="12.545" width="74.667" height="71.125" filterUnits="userSpaceOnUse" color-interpolation-filters="sRGB">
      <feFlood flood-opacity="0" result="BackgroundImageFix"/>
      <feColorMatrix in="SourceAlpha" values="0 0 0 0 0 0 0 0 0 0 0 0 0 0 0 0 0 0 127 0"/>
      <feOffset dy="1"/>
      <feGaussianBlur stdDeviation="4.5"/>
      <feColorMatrix values="0 0 0 0 0.576471 0 0 0 0 0.972549 0 0 0 0 0.772549 0 0 0 0.7 0"/>
      <feBlend in2="BackgroundImageFix" result="effect1_dropShadow"/>
      <feBlend in="SourceGraphic" in2="effect1_dropShadow" result="shape"/>
    </filter>
  </defs>
</svg>