<svg width="407" height="283" viewBox="0 0 407 283" fill="none" xmlns="http://www.w3.org/2000/svg">
<path d="M162.114 122.49C162.114 122.49 155.954 123.019 150.128 116.191C144.303 109.363 141.387 103.321 151.137 96.9384C160.887 90.556 162.331 88.5845 162.114 78.9886C161.896 69.3928 157.097 57.9813 163.229 47.2438C169.361 36.5062 177.661 20.8232 180.097 13.8839C182.533 6.94457 189.546 0.116648 203.343 0.00526288C217.14 -0.106123 231.941 1.45884 236.735 13.5442C241.529 25.6295 241.663 39.7197 246.485 47.0155C251.307 54.3112 252.533 65.3941 252.198 70.4064C251.864 75.4187 256.101 79.6959 262.952 85.293C269.803 90.8902 274.826 94.694 273.036 103.538C271.247 112.382 262.506 118.876 256.68 120.775C250.855 122.674 162.47 123.003 162.47 123.003" fill="#F07379"/>
<path d="M194.273 77.0342C194.273 77.0342 195.728 92.8565 194.925 96.8831C194.123 100.91 191.285 104.346 191.285 104.346L206.203 124.373L221.611 104.223C219.93 100.556 218.719 96.6923 218.004 92.7228C217.106 86.9029 221.588 77.7972 221.588 77.7972L194.273 77.0342Z" fill="#7174B2"/>
<path d="M110.02 207.304C110.02 207.304 99.8627 204.297 84.9341 215.747C70.0054 227.198 54.759 235.953 43.4036 254.855C32.0483 273.757 30.5821 280.624 83.7411 282.417C136.9 284.21 329.936 280.925 349.056 279.432C368.177 277.939 388.496 281.621 367.882 254.855C347.267 228.089 312.426 207.277 306.93 206.959C301.433 206.642 110.02 207.304 110.02 207.304Z" fill="#F084B1"/>
<path d="M115.989 231.821C115.989 231.821 92.0857 232.868 91.4892 245.85C90.8927 258.832 127.083 268.684 212.663 271.073C298.244 273.462 326.328 257.94 327.499 245.103C328.67 232.266 275.511 225.405 275.511 225.405L115.989 231.821Z" fill="#E25390"/>
<path d="M193.376 78.9883C193.376 78.9883 199.608 89.2859 206.197 89.1355C212.786 88.9851 219.677 80.336 219.677 80.336L193.376 78.9883Z" fill="#303143"/>
<path d="M185.611 108.094C185.611 108.094 178.587 103.917 168.43 114.064C158.273 124.211 154.387 141.225 153.044 155.555C151.701 169.885 152.893 175.254 147.966 176.601C143.038 177.949 134.67 174.496 122.122 184.66C109.574 194.824 109.423 207.945 110.321 211.677C111.218 215.408 112.411 216.6 115.104 210.334C117.796 204.069 162.013 204.96 162.013 204.96L185.611 108.094Z" fill="#7174B2"/>
<path d="M225.296 111.43C229.127 111.099 232.983 111.635 236.577 112.997C240.172 114.359 243.414 116.514 246.061 119.299C255.176 128.851 259.657 147.953 261.447 162.133C263.236 176.312 263.242 185.713 273.549 187.801C283.857 189.89 295.061 189.74 301.784 197.949C308.507 206.158 309.555 219.14 307.164 219.886C304.772 220.632 272.635 211.376 272.635 211.376L242.031 191.076L225.296 111.43Z" fill="#7174B2"/>
<path d="M147.804 197.642C140.049 194.807 129.14 193.186 121.821 199.285C114.501 205.383 106.585 222.419 117.038 239.133C127.49 255.846 163.201 265.253 193.822 266.149C224.443 267.046 270.906 264.061 288.834 252.271C306.762 240.481 313.184 235.106 309.75 219.585C306.316 204.063 292.569 200.928 274.195 201.674C255.822 202.42 252.533 198.093 247.9 171.076C243.268 144.06 243.998 131.379 237.147 117.945C230.296 104.512 220.267 103.616 220.267 103.616L205.327 120.474L192.617 102.441C192.617 102.441 186.653 101.817 181.273 111.964C175.894 122.111 171.267 136.14 170.124 153.455C168.981 170.77 169.751 179.274 162.426 190.769C155.101 202.264 147.804 197.642 147.804 197.642Z" fill="#F8C8DB"/>
<path d="M110.019 265.102C110.019 265.102 139.007 254.732 150.875 246.223C162.743 237.713 162.258 238.459 162.258 238.459L188.927 240.397C188.927 240.397 166.718 262.412 158.574 264.718C150.429 267.024 110.019 265.102 110.019 265.102Z" fill="#7174B2"/>
<path d="M231.322 252.154L256.719 242.999C256.719 242.999 268.794 249.682 286.51 253.647C304.226 257.612 301.238 257.924 301.238 257.924C301.238 257.924 285.4 265.387 272.852 266.278C260.304 267.169 257.015 266.278 257.015 266.278L231.322 252.154Z" fill="#7174B2"/>
<path d="M182.623 19.4421C180.393 23.619 178.442 41.8305 178.442 41.8305C178.442 41.8305 176.948 39.8925 173.514 40.4884C170.08 41.0843 169.183 48.6975 171.284 51.833C173.386 54.9685 176.402 53.9214 176.402 53.9214C176.402 53.9214 174.651 69.5154 186.519 76.6051C198.02 83.472 212.213 85.1149 225.959 77.5017C239.706 69.8885 237.61 54.367 237.61 54.367C237.61 54.367 242.689 55.5588 242.243 47.2049C241.797 38.851 236.713 41.0787 236.713 41.0787C236.713 41.0787 236.713 36.0051 235.966 28.9878C235.219 21.9705 234.472 19.4365 234.472 19.4365L182.623 19.4421Z" fill="#7174B2"/>
<path d="M199.726 63.1102C200.963 63.3536 202.245 63.1976 203.388 62.6646C205.406 61.7735 206.226 62.4029 207.346 62.9431C208.467 63.4833 209.47 61.8793 211.321 62.7203C212.465 63.2246 213.728 63.3983 214.966 63.2215C214.966 63.2215 211.454 67.5878 206.822 67.2871C202.19 66.9864 199.726 63.1102 199.726 63.1102Z" fill="#EC79AE"/>
<path d="M206.822 34.9634C204.949 35.008 203.533 41.4572 203.388 46.9763C203.243 52.4955 203.087 53.8432 207.346 53.9156C211.605 53.988 211.527 49.8111 210.858 42.649C210.189 35.4869 209.81 34.8854 206.822 34.9634Z" fill="#7987C0"/>
<path d="M195.182 39.4579C195.025 39.4584 194.873 39.4082 194.747 39.3148C194.622 39.2214 194.53 39.0899 194.485 38.94C194.457 38.8564 193.699 36.7123 190.332 36.7123C186.787 36.7123 185.315 38.4555 185.276 38.5334C185.153 38.683 184.976 38.7785 184.783 38.7993C184.59 38.8201 184.397 38.7647 184.245 38.6448C184.094 38.5253 183.996 38.3513 183.973 38.1604C183.951 37.9696 184.004 37.7774 184.122 37.6256C184.2 37.5254 186.028 35.2476 190.332 35.2476C194.792 35.2476 195.845 38.3775 195.907 38.5111C195.941 38.6211 195.948 38.7375 195.929 38.8509C195.91 38.9644 195.864 39.0718 195.796 39.1644C195.728 39.2571 195.638 39.3324 195.536 39.3843C195.433 39.4363 195.319 39.4634 195.204 39.4635L195.182 39.4579Z" fill="white"/>
<path d="M229.872 39.4579C229.715 39.4578 229.562 39.4075 229.436 39.3143C229.309 39.2211 229.216 39.0899 229.17 38.94C229.17 38.8564 228.384 36.7123 225.022 36.7123C221.477 36.7123 220.005 38.4555 219.961 38.5334C219.836 38.6727 219.663 38.7592 219.476 38.7754C219.29 38.7916 219.104 38.7363 218.957 38.6206C218.81 38.505 218.713 38.3377 218.685 38.1529C218.657 37.968 218.7 37.7795 218.807 37.6256C218.885 37.5254 220.719 35.2476 225.022 35.2476C229.482 35.2476 230.53 38.3775 230.597 38.5111C230.632 38.6207 230.641 38.7369 230.622 38.8505C230.604 38.964 230.559 39.0716 230.491 39.1645C230.423 39.2573 230.334 39.3328 230.231 39.3848C230.129 39.4367 230.015 39.4637 229.9 39.4635L229.872 39.4579Z" fill="white"/>
<path d="M180.231 43.323C181.05 40.5384 186.731 40.8614 191.285 43.5458C195.84 46.2302 194.63 49.5884 190.466 50.2623C186.302 50.9362 178.982 47.6503 180.231 43.323Z" fill="#EC79AE"/>
<path d="M221.014 45.4113C222.259 44.1474 223.77 43.1766 225.437 42.5697C227.104 41.9627 228.886 41.7348 230.653 41.9027C234.761 42.3482 234.984 45.3333 232.671 47.4998C230.357 49.6662 226.394 50.6353 222.436 49.5158C218.478 48.3964 219.883 46.5029 221.014 45.4113Z" fill="#EC79AE"/>
<path d="M205.105 51.9717C203.611 51.9717 201.877 53.8708 204.508 54.5113C207.268 55.1852 211.248 55.0682 210.501 53.0521C209.754 51.0361 205.105 51.9717 205.105 51.9717Z" fill="#EC79AE"/>
<rect y="19.5884" width="42.0494" height="42.0494" fill="#D9F7FB"/>
<rect y="68.9507" width="42.0494" height="42.0494" fill="#D9F7FB"/>
<rect x="49.3623" y="19.5879" width="42.0494" height="42.0494" fill="#D9F7FB"/>
<rect x="49.3623" y="68.9507" width="42.0494" height="42.0494" fill="#D9F7FB"/>
<rect x="322.117" y="32.647" width="84.8824" height="60.9412" fill="#FFAEA0" fill-opacity="0.3"/>
<rect x="326.47" y="36.9995" width="76.1765" height="52.2353" fill="white"/>
<g opacity="0.3">
<path fill-rule="evenodd" clip-rule="evenodd" d="M377.118 65.3828C374.787 67.9158 373.357 71.34 373.357 75.1089C373.357 82.9108 379.485 89.2354 387.044 89.2354C390.795 89.2354 394.193 87.6781 396.665 85.1558L377.118 65.3828Z" fill="#F087A1"/>
<mask id="mask0" mask-type="alpha" maskUnits="userSpaceOnUse" x="357" y="47" width="23" height="23">
<ellipse cx="368.464" cy="58.9309" rx="10.7046" ry="11.0486" fill="#C4C4C4"/>
</mask>
<g mask="url(#mask0)">
<ellipse cx="368.464" cy="58.9309" rx="10.7046" ry="11.0486" fill="#FFDFB3"/>
<rect width="38.8633" height="0.466038" transform="matrix(0.687968 -0.725741 0.703632 0.710565 355.313 69.7739)" fill="#F087A1"/>
<rect width="38.8633" height="0.466038" transform="matrix(0.687968 -0.725741 0.703632 0.710565 361.277 77.8228)" fill="#F087A1"/>
<rect width="38.8633" height="0.466038" transform="matrix(0.687968 -0.725741 0.703632 0.710565 356.795 70.2627)" fill="#F087A1"/>
<rect width="38.8633" height="0.466038" transform="matrix(0.687968 -0.725741 0.703632 0.710565 362.76 78.313)" fill="#F087A1"/>
<rect width="38.8633" height="0.466038" transform="matrix(0.687968 -0.725741 0.703632 0.710565 358.278 70.7524)" fill="#F087A1"/>
<rect width="38.8633" height="0.466038" transform="matrix(0.687968 -0.725741 0.703632 0.710565 364.241 78.8027)" fill="#F087A1"/>
<rect width="38.8633" height="0.466038" transform="matrix(0.687968 -0.725741 0.703632 0.710565 359.759 71.2422)" fill="#F087A1"/>
<rect width="38.8633" height="0.466038" transform="matrix(0.687968 -0.725741 0.703632 0.710565 365.724 79.2915)" fill="#F087A1"/>
<rect width="38.8633" height="0.466038" transform="matrix(0.687968 -0.725741 0.703632 0.710565 361.242 71.7314)" fill="#F087A1"/>
<rect width="38.8633" height="0.466038" transform="matrix(0.687968 -0.725741 0.703632 0.710565 367.207 79.7817)" fill="#F087A1"/>
<rect width="38.8633" height="0.466038" transform="matrix(0.687968 -0.725741 0.703632 0.710565 362.725 72.2212)" fill="#F087A1"/>
<rect width="38.8633" height="0.466038" transform="matrix(0.687968 -0.725741 0.703632 0.710565 368.688 80.2715)" fill="#F087A1"/>
<rect width="38.8633" height="0.466038" transform="matrix(0.687968 -0.725741 0.703632 0.710565 364.208 72.7114)" fill="#F087A1"/>
<rect width="38.8633" height="0.466038" transform="matrix(0.687968 -0.725741 0.703632 0.710565 370.172 80.7603)" fill="#F087A1"/>
</g>
<path fill-rule="evenodd" clip-rule="evenodd" d="M375.354 89.163C375.413 88.5226 375.444 87.8734 375.444 87.2169C375.444 76.05 366.673 66.9976 355.854 66.9976C345.035 66.9976 336.264 76.05 336.264 87.2169C336.264 87.8734 336.294 88.5226 336.353 89.163H375.354Z" fill="#FFAEA0"/>
</g>
</svg>
