<svg width="300" height="321" viewBox="0 0 300 321" fill="none" xmlns="http://www.w3.org/2000/svg">
<g clip-path="url(#clip0)">
<circle opacity="0.1" cx="146.5" cy="144.5" r="144.5" fill="#5B5ADB"/>
<path d="M144.584 214.178C192.435 214.178 231.225 175.315 231.225 127.376C231.225 79.4361 192.435 40.5734 144.584 40.5734C96.7343 40.5734 57.9441 79.4361 57.9441 127.376C57.9441 175.315 96.7343 214.178 144.584 214.178Z" fill="#2A293C"/>
<path d="M169.356 245.632C169.356 245.632 185.503 244.649 204.867 254.875C209.597 257.374 236.819 256.577 228.213 225.846C219.608 195.116 200.396 162.356 200.396 162.356L216.245 159.519C216.245 159.519 282.262 258.45 243.067 283.058C199.595 310.345 175.116 293.425 175.116 293.425L169.356 245.632Z" fill="#5C61AC"/>
<path d="M132.279 208.207C132.279 208.207 133.382 236.414 128.97 242.683C124.557 248.953 163.665 243.28 163.665 243.28C163.665 243.28 158.071 224.971 161.01 209.239C163.338 196.798 132.279 208.207 132.279 208.207Z" fill="#5C61AC"/>
<path d="M132.391 212.32H159.906C159.906 212.32 152.619 218.491 146.146 219.2C139.674 219.909 132.391 212.32 132.391 212.32Z" fill="#2A293C"/>
<path d="M148.836 215.533H141.339C117.909 215.533 98.9116 196.505 98.9116 173.026V117.742C98.9116 94.2686 117.904 75.2356 141.339 75.2356H148.836C172.265 75.2356 191.263 94.2637 191.263 117.742V173.026C191.258 196.505 172.265 215.533 148.836 215.533Z" fill="#5C61AC"/>
<path d="M98.9114 164.292C103.958 164.292 108.049 160.194 108.049 155.138C108.049 150.082 103.958 145.983 98.9114 145.983C93.8649 145.983 89.7739 150.082 89.7739 155.138C89.7739 160.194 93.8649 164.292 98.9114 164.292Z" fill="#5C61AC"/>
<path d="M136.14 185.795C134.632 184.313 138.288 186.822 142.72 187.164C147.152 187.506 154.669 182.381 154.669 182.381C154.669 182.381 149.031 198.441 136.14 185.795Z" fill="#2A293C"/>
<path d="M128.974 239.07C128.974 239.07 96.4417 242.923 77.4979 273.282C58.5542 303.641 59.8087 321.427 59.8087 321.427H203.983C203.983 321.427 211.056 244.591 163.67 239.607C135.632 236.663 128.974 239.07 128.974 239.07Z" fill="#5C61AC"/>
<path d="M128.975 239.07C128.975 239.07 135.008 241.119 146.571 241.749C158.135 242.38 163.675 239.612 163.675 239.612C163.675 239.612 168.6 266.881 187.563 281.419C207.454 296.667 208.874 321.432 208.874 321.432H84.6685C84.6685 321.432 87.3726 294.511 104.828 280.251C120.852 267.15 128.975 239.07 128.975 239.07Z" fill="#EF6DA7"/>
<path d="M143.325 143.616C143.325 143.616 132.645 168.048 144.375 168.048C156.104 168.048 145.473 143.416 145.473 143.416" fill="#484A9E"/>
<path d="M98.9116 145.988C98.9116 145.988 95.7096 100.2 145.365 100.2C197.179 100.2 191.263 145.988 191.263 145.988L210.661 90.9774L154.757 61.9879L105.106 66.2717L84.6685 92.6254V128.862L98.9116 145.988Z" fill="#2A293C"/>
<path d="M85.376 249.603L103.954 284.031L123.19 274.475L128.974 239.07C128.974 239.07 114.311 239.06 85.376 249.603Z" fill="#EF6DA7"/>
<path d="M207.268 250.425L188.691 284.852L169.454 275.297L163.67 239.891C163.67 239.891 178.333 239.881 207.268 250.425Z" fill="#EF6DA7"/>
<path d="M111.998 147.088C111.998 147.088 113.96 143.685 118.002 143.685C122.043 143.685 123.522 147.088 123.522 147.088" stroke="#2A293C" stroke-width="3" stroke-miterlimit="10" stroke-linecap="round" stroke-linejoin="round"/>
<path d="M169.356 132.158C169.356 132.158 171.319 128.755 175.36 128.755C179.402 128.755 180.881 132.158 180.881 132.158" stroke="#2A293C" stroke-miterlimit="10" stroke-linecap="round" stroke-linejoin="round"/>
<path d="M137.028 182.885C137.028 182.885 139.801 183.257 141.265 181.531C142.734 179.804 143.735 179.936 144.667 180.445C145.6 180.954 146.581 178.816 147.45 179.227C148.318 179.633 153.434 181.839 153.434 181.839C153.434 181.839 144.814 189.526 137.028 182.885Z" fill="#303042"/>
<path d="M191.258 164.292C196.305 164.292 200.396 160.194 200.396 155.138C200.396 150.082 196.305 145.983 191.258 145.983C186.212 145.983 182.121 150.082 182.121 155.138C182.121 160.194 186.212 164.292 191.258 164.292Z" fill="#5C61AC"/>
<path d="M175.121 146.609C176.167 146.609 177.015 144.805 177.015 142.58C177.015 140.354 176.167 138.55 175.121 138.55C174.075 138.55 173.227 140.354 173.227 142.58C173.227 144.805 174.075 146.609 175.121 146.609Z" fill="#2A293C"/>
<path d="M170.347 151.93C174.035 151.93 177.025 148.935 177.025 145.24C177.025 141.545 174.035 138.55 170.347 138.55C166.66 138.55 163.67 141.545 163.67 145.24C163.67 148.935 166.66 151.93 170.347 151.93Z" fill="#2A293C"/>
<path d="M173.227 151.93C176.915 151.93 179.905 148.935 179.905 145.24C179.905 141.545 176.915 138.55 173.227 138.55C169.539 138.55 166.55 141.545 166.55 145.24C166.55 148.935 169.539 151.93 173.227 151.93Z" fill="#EF6DA7"/>
<path d="M185.801 159.862C193.862 159.862 200.396 153.315 200.396 145.24C200.396 137.164 193.862 130.618 185.801 130.618C177.741 130.618 171.207 137.164 171.207 145.24C171.207 153.315 177.741 159.862 185.801 159.862Z" fill="#EF6DA7"/>
<path d="M187.763 138.55L179.905 131.865L169.356 139.792V150.688L178.562 157.93L187.763 138.55Z" fill="#EF6DA7"/>
<path d="M188.252 160.659C196.751 160.659 203.642 153.756 203.642 145.24C203.642 136.724 196.751 129.821 188.252 129.821C179.752 129.821 172.861 136.724 172.861 145.24C172.861 153.756 179.752 160.659 188.252 160.659Z" fill="#2A293C"/>
<path d="M192.161 159.519C200.221 159.519 206.756 152.973 206.756 144.898C206.756 136.822 200.221 130.276 192.161 130.276C184.101 130.276 177.566 136.822 177.566 144.898C177.566 152.973 184.101 159.519 192.161 159.519Z" fill="#EF6DA7"/>
<path d="M225.88 133.665L213.267 121.331L188.671 130.696V159.094L211.666 165.486L225.88 133.665Z" fill="#EF6DA7"/>
<path d="M220.872 170.611C235.715 170.611 247.748 158.555 247.748 143.685C247.748 128.814 235.715 116.759 220.872 116.759C206.029 116.759 193.997 128.814 193.997 143.685C193.997 158.555 206.029 170.611 220.872 170.611Z" fill="#303142"/>
<path d="M220.872 167.197C233.833 167.197 244.34 156.67 244.34 143.685C244.34 130.699 233.833 120.172 220.872 120.172C207.911 120.172 197.403 130.699 197.403 143.685C197.403 156.67 207.911 167.197 220.872 167.197Z" fill="#484A9E"/>
<path d="M220.872 164.948C232.593 164.948 242.095 155.428 242.095 143.685C242.095 131.942 232.593 122.422 220.872 122.422C209.151 122.422 199.649 131.942 199.649 143.685C199.649 155.428 209.151 164.948 220.872 164.948Z" fill="#F6F7FB"/>
<path d="M220.872 128.378L225.48 137.728L235.779 139.225L228.325 146.506L230.083 156.786L220.872 151.93L211.656 156.786L213.418 146.506L205.965 139.225L216.264 137.728L220.872 128.378Z" fill="#F080B1"/>
<path d="M198.794 120.798C198.794 120.798 191.936 121.087 189.945 127.376C187.953 133.665 182.574 146.154 188.256 141.91C193.938 137.665 192.049 129.498 195.431 128.168C198.814 126.838 200.425 126.222 200.425 126.222L205.891 121.326L198.794 120.798Z" fill="#484A9E"/>
<path d="M188.251 126.295C188.251 126.295 184.658 128.672 182.125 134.291C179.592 139.909 179.919 142.78 182.125 141.782C184.331 140.785 185.181 134.036 188.671 132.158C192.161 130.281 194.928 124.549 194.928 124.549L188.251 126.295Z" fill="#484A9E"/>
<path d="M187.075 128.378C187.075 128.378 183.97 127.478 180.348 129.821C176.727 132.163 171.806 142.692 175.731 140.032C179.655 137.371 185.805 130.618 185.805 130.618L187.075 128.378Z" fill="#484A9E"/>
</g>
<defs>
<clipPath id="clip0">
<rect width="300" height="321" fill="white"/>
</clipPath>
</defs>
</svg>
