<svg width="156" height="125" viewBox="0 0 156 125" fill="none" xmlns="http://www.w3.org/2000/svg">
<path d="M96.3918 111.621C109.119 111.621 119.437 101.632 119.437 89.3104C119.437 76.9887 109.119 67 96.3918 67C83.6642 67 73.3464 76.9887 73.3464 89.3104C73.3464 101.632 83.6642 111.621 96.3918 111.621Z" fill="#FFE6EC"/>
<path d="M88.5572 79.0342H90.1351V81.5887C91.1223 81.6714 92.1338 81.9608 93.1696 82.4568L92.5384 84.1433C91.9558 83.8291 91.4056 83.6059 90.8877 83.4737C90.3698 83.3414 89.8519 83.2752 89.334 83.2752C88.541 83.2752 87.8937 83.4571 87.392 83.8209C86.8903 84.1846 86.6394 84.7385 86.6394 85.4826C86.6394 86.1605 86.866 86.6565 87.3192 86.9707C87.7723 87.2848 88.3711 87.5659 89.1156 87.8139L90.2322 88.1859C91.4784 88.5993 92.417 89.1449 93.0482 89.8228C93.6956 90.4842 94.0192 91.344 94.0192 92.4022C94.0192 93.0305 93.906 93.5927 93.6794 94.0887C93.4528 94.5682 93.1453 94.9898 92.7569 95.3536C92.3847 95.7008 91.9396 95.9819 91.4217 96.1968C90.9039 96.4118 90.3536 96.5523 89.771 96.6185V99.2226H88.1931V96.6185C87.4972 96.5854 86.866 96.4862 86.2996 96.3208C85.7493 96.1555 85.1667 95.9075 84.5517 95.5768L85.3285 93.8903C86.0083 94.2871 86.6637 94.5599 87.2949 94.7087C87.926 94.841 88.4844 94.9072 88.9699 94.9072C89.3745 94.9072 89.7467 94.8658 90.0866 94.7832C90.4426 94.6839 90.7501 94.5434 91.0091 94.3615C91.2842 94.1631 91.4946 93.9151 91.6402 93.6175C91.8021 93.3199 91.883 92.9726 91.883 92.5758C91.883 91.8814 91.6402 91.3523 91.1547 90.9885C90.6854 90.6248 89.9895 90.2941 89.067 89.9965L87.9503 89.6244C87.4324 89.4591 86.9631 89.2689 86.5423 89.054C86.1216 88.8225 85.7574 88.5497 85.4499 88.2355C85.1586 87.9214 84.924 87.5659 84.7459 87.1691C84.5841 86.7557 84.5032 86.2845 84.5032 85.7554C84.5032 84.4988 84.8673 83.515 85.5956 82.804C86.3238 82.093 87.3111 81.6797 88.5572 81.5639V79.0342Z" fill="#FFB3C7"/>
<path fill-rule="evenodd" clip-rule="evenodd" d="M87.4477 77.9263H91.2469V80.6321C92.0493 80.7967 92.8514 81.0749 93.6515 81.458L94.5661 81.896L93.1339 85.7229L92.0114 85.1177C91.4905 84.8368 91.0253 84.6519 90.6133 84.5467C90.1825 84.4367 89.7572 84.3829 89.3352 84.3829C88.7112 84.3829 88.3111 84.5247 88.0462 84.7168C87.892 84.8286 87.7512 85.0118 87.7512 85.4825C87.7512 85.8925 87.8702 86.0027 87.9542 86.0609C88.2925 86.2954 88.7858 86.5356 89.4686 86.7631L90.5839 87.1346C90.5842 87.1347 90.5836 87.1345 90.5839 87.1346C91.932 87.5819 93.0546 88.205 93.8538 89.0589C94.7267 89.956 95.131 91.1048 95.131 92.4021C95.131 93.1648 94.993 93.8872 94.6912 94.5479L94.6853 94.5609C94.399 95.1669 94.0083 95.7021 93.5183 96.1611L93.5167 96.1626C93.0382 96.6089 92.4777 96.9588 91.8496 97.2195C91.5358 97.3497 91.2134 97.4565 90.8828 97.5402V100.33H87.0836V97.6223C86.7039 97.5651 86.3386 97.4861 85.9888 97.3839L85.9803 97.3815C85.3451 97.1906 84.6931 96.9106 84.0258 96.5518L83.1086 96.0586L84.8324 92.3163L85.8907 92.9341C86.4897 93.2838 87.0383 93.5079 87.5385 93.6274C88.1111 93.7467 88.5857 93.7993 88.9711 93.7993C89.2924 93.7993 89.5691 93.7672 89.8067 93.7111C90.0483 93.642 90.2291 93.554 90.3649 93.4597C90.4926 93.3664 90.5805 93.2598 90.6433 93.1314L90.6537 93.1101L90.6651 93.0892C90.7247 92.9796 90.7735 92.8199 90.7735 92.5757C90.7735 92.1715 90.6515 91.996 90.4888 91.8742L90.4816 91.8687L90.4744 91.8632C90.151 91.6125 89.5935 91.3301 88.7263 91.0504L88.7163 91.0471L87.6061 90.6772C87.0415 90.4966 86.5173 90.2851 86.0372 90.0399L86.022 90.0321L86.0071 90.0239C85.4997 89.7448 85.0465 89.4079 84.6564 89.0093L84.6459 88.9986L84.6357 88.9876C84.261 88.5836 83.9599 88.1265 83.7333 87.6214L83.7223 87.5969L83.7125 87.5719C83.4917 87.008 83.3937 86.3963 83.3937 85.7553C83.3937 84.2756 83.8299 82.9787 84.8199 82.0122C85.5398 81.3093 86.4308 80.857 87.4477 80.6212V77.9263ZM88.5584 81.5638C87.3122 81.6796 86.325 82.0929 85.5967 82.8039C84.8685 83.5149 84.5043 84.4987 84.5043 85.7553C84.5043 86.2844 84.5852 86.7556 84.7471 87.169C84.9251 87.5658 85.1598 87.9213 85.4511 88.2354C85.7586 88.5496 86.1227 88.8224 86.5435 89.0539C86.9643 89.2688 87.4336 89.459 87.9515 89.6243L89.0682 89.9963C89.9906 90.294 90.6865 90.6246 91.1559 90.9884C91.6414 91.3522 91.8841 91.8813 91.8841 92.5757C91.8841 92.9725 91.8032 93.3197 91.6414 93.6174C91.4957 93.915 91.2853 94.163 91.0102 94.3614C90.7513 94.5433 90.4438 94.6838 90.0877 94.783C89.7479 94.8657 89.3756 94.907 88.9711 94.907C88.4855 94.907 87.9272 94.8409 87.296 94.7086C86.9776 94.6336 86.6531 94.5269 86.3223 94.3888C85.9974 94.253 85.6665 94.0868 85.3297 93.8902L84.5529 95.5767C85.1679 95.9074 85.7505 96.1554 86.3007 96.3207C86.8672 96.4861 87.4983 96.5853 88.1942 96.6184V99.2225H89.7722V96.6184C90.3548 96.5522 90.905 96.4117 91.4229 96.1967C91.9408 95.9818 92.3858 95.7007 92.7581 95.3535C93.1465 94.9897 93.454 94.5681 93.6805 94.0886C93.9071 93.5926 94.0204 93.0304 94.0204 92.4021C94.0204 91.3439 93.6967 90.4841 93.0494 89.8227C92.4182 89.1448 91.4795 88.5992 90.2334 88.1858L89.1167 87.8138C88.3723 87.5658 87.7735 87.2847 87.3203 86.9706C86.8672 86.6564 86.6406 86.1604 86.6406 85.4825C86.6406 84.7384 86.8914 84.1845 87.3931 83.8208C87.8948 83.457 88.5422 83.2751 89.3352 83.2751C89.8531 83.2751 90.371 83.3413 90.8888 83.4735C91.0969 83.5267 91.3101 83.5945 91.5286 83.677C91.854 83.7998 92.191 83.9552 92.5396 84.1432L93.1707 82.4567C92.135 81.9606 91.1235 81.6713 90.1363 81.5886V79.0341H88.5584V81.5638Z" fill="#FFB3C7"/>
<path d="M102.995 79.0342H104.573V81.5887C105.56 81.6714 106.571 81.9608 107.607 82.4568L106.976 84.1433C106.393 83.8291 105.843 83.6059 105.325 83.4737C104.807 83.3414 104.289 83.2752 103.772 83.2752C102.979 83.2752 102.331 83.4571 101.829 83.8209C101.328 84.1846 101.077 84.7385 101.077 85.4826C101.077 86.1605 101.304 86.6565 101.757 86.9707C102.21 87.2848 102.809 87.5659 103.553 87.8139L104.67 88.1859C105.916 88.5993 106.855 89.1449 107.486 89.8228C108.133 90.4842 108.457 91.344 108.457 92.4022C108.457 93.0305 108.343 93.5927 108.117 94.0887C107.89 94.5682 107.583 94.9898 107.194 95.3536C106.822 95.7008 106.377 95.9819 105.859 96.1968C105.341 96.4118 104.791 96.5523 104.208 96.6185V99.2226H102.631V96.6185C101.935 96.5854 101.304 96.4862 100.737 96.3208C100.187 96.1555 99.6042 95.9075 98.9892 95.5768L99.766 93.8903C100.446 94.2871 101.101 94.5599 101.732 94.7087C102.364 94.841 102.922 94.9072 103.407 94.9072C103.812 94.9072 104.184 94.8658 104.524 94.7832C104.88 94.6839 105.188 94.5434 105.447 94.3615C105.722 94.1631 105.932 93.9151 106.078 93.6175C106.24 93.3199 106.32 92.9726 106.32 92.5758C106.32 91.8814 106.078 91.3523 105.592 90.9885C105.123 90.6248 104.427 90.2941 103.505 89.9965L102.388 89.6244C101.87 89.4591 101.401 89.2689 100.98 89.054C100.559 88.8225 100.195 88.5497 99.8874 88.2355C99.5961 87.9214 99.3615 87.5659 99.1834 87.1691C99.0216 86.7557 98.9407 86.2845 98.9407 85.7554C98.9407 84.4988 99.3048 83.515 100.033 82.804C100.761 82.093 101.749 81.6797 102.995 81.5639V79.0342Z" fill="#FFB3C7"/>
<path fill-rule="evenodd" clip-rule="evenodd" d="M101.885 77.9263H105.684V80.6321C106.487 80.7967 107.289 81.0749 108.089 81.458L109.004 81.896L107.571 85.7229L106.449 85.1177C105.928 84.8368 105.463 84.6519 105.051 84.5467C104.62 84.4367 104.195 84.3829 103.773 84.3829C103.149 84.3829 102.749 84.5247 102.484 84.7168C102.33 84.8286 102.189 85.0118 102.189 85.4825C102.189 85.8925 102.308 86.0027 102.392 86.0609C102.73 86.2954 103.223 86.5356 103.906 86.7631L105.021 87.1346C105.022 87.1347 105.021 87.1345 105.021 87.1346C106.37 87.5819 107.492 88.205 108.291 89.0589C109.164 89.956 109.569 91.1048 109.569 92.4021C109.569 93.1648 109.43 93.8872 109.129 94.5479L109.123 94.5609C108.836 95.1669 108.446 95.7021 107.956 96.1611L107.954 96.1626C107.476 96.6089 106.915 96.9588 106.287 97.2195C105.973 97.3497 105.651 97.4565 105.32 97.5402V100.33H101.521V97.6223C101.141 97.5651 100.776 97.4861 100.426 97.3839L100.418 97.3815C99.7826 97.1906 99.1306 96.9106 98.4633 96.5518L97.5461 96.0586L99.2699 92.3163L100.328 92.9341C100.927 93.2838 101.476 93.5079 101.976 93.6274C102.549 93.7467 103.023 93.7993 103.409 93.7993C103.73 93.7993 104.007 93.7672 104.244 93.7111C104.486 93.642 104.667 93.554 104.802 93.4597C104.93 93.3664 105.018 93.2598 105.081 93.1314L105.091 93.1101L105.103 93.0892C105.162 92.9796 105.211 92.8199 105.211 92.5757C105.211 92.1715 105.089 91.996 104.926 91.8742L104.919 91.8687L104.912 91.8632C104.588 91.6125 104.031 91.3301 103.164 91.0504L103.154 91.0471L102.044 90.6772C101.479 90.4966 100.955 90.2851 100.475 90.0399L100.46 90.0321L100.445 90.0239C99.9372 89.7448 99.484 89.4079 99.0939 89.0093L99.0834 88.9986L99.0732 88.9876C98.6985 88.5836 98.3974 88.1265 98.1708 87.6214L98.1598 87.5969L98.15 87.5719C97.9292 87.008 97.8312 86.3963 97.8312 85.7553C97.8312 84.2756 98.2674 82.9787 99.2574 82.0122C99.9773 81.3093 100.868 80.857 101.885 80.6212V77.9263ZM102.996 81.5638C101.75 81.6796 100.762 82.0929 100.034 82.8039C99.306 83.5149 98.9418 84.4987 98.9418 85.7553C98.9418 86.2844 99.0227 86.7556 99.1846 87.169C99.3626 87.5658 99.5973 87.9213 99.8886 88.2354C100.196 88.5496 100.56 88.8224 100.981 89.0539C101.402 89.2688 101.871 89.459 102.389 89.6243L103.506 89.9963C104.428 90.294 105.124 90.6246 105.593 90.9884C106.079 91.3522 106.322 91.8813 106.322 92.5757C106.322 92.9725 106.241 93.3197 106.079 93.6174C105.933 93.915 105.723 94.163 105.448 94.3614C105.189 94.5433 104.881 94.6838 104.525 94.783C104.185 94.8657 103.813 94.907 103.409 94.907C102.923 94.907 102.365 94.8409 101.734 94.7086C101.415 94.6336 101.091 94.5269 100.76 94.3888C100.435 94.253 100.104 94.0868 99.7672 93.8902L98.9904 95.5767C99.6054 95.9074 100.188 96.1554 100.738 96.3207C101.305 96.4861 101.936 96.5853 102.632 96.6184V99.2225H104.21V96.6184C104.792 96.5522 105.343 96.4117 105.86 96.1967C106.378 95.9818 106.823 95.7007 107.196 95.3535C107.584 94.9897 107.891 94.5681 108.118 94.0886C108.345 93.5926 108.458 93.0304 108.458 92.4021C108.458 91.3439 108.134 90.4841 107.487 89.8227C106.856 89.1448 105.917 88.5992 104.671 88.1858L103.554 87.8138C102.81 87.5658 102.211 87.2847 101.758 86.9706C101.305 86.6564 101.078 86.1604 101.078 85.4825C101.078 84.7384 101.329 84.1845 101.831 83.8208C102.332 83.457 102.98 83.2751 103.773 83.2751C104.291 83.2751 104.808 83.3413 105.326 83.4735C105.534 83.5267 105.748 83.5945 105.966 83.677C106.291 83.7998 106.628 83.9552 106.977 84.1432L107.608 82.4567C106.572 81.9606 105.561 81.6713 104.574 81.5886V79.0341H102.996V81.5638Z" fill="#FFB3C7"/>
<path d="M132.256 57.4096C145.37 57.4096 156 46.7966 156 33.7048C156 20.613 145.37 10 132.256 10C119.143 10 108.512 20.613 108.512 33.7048C108.512 46.7966 119.143 57.4096 132.256 57.4096Z" fill="#E3F4E6"/>
<path d="M131.801 23.5015H133.379V26.056C134.366 26.1387 135.378 26.428 136.414 26.9241L135.783 28.6106C135.2 28.2964 134.65 28.0732 134.132 27.9409C133.614 27.8087 133.096 27.7425 132.578 27.7425C131.785 27.7425 131.138 27.9244 130.636 28.2882C130.134 28.6519 129.884 29.2058 129.884 29.9499C129.884 30.6278 130.11 31.1238 130.563 31.438C131.016 31.7521 131.615 32.0332 132.36 32.2812L133.476 32.6532C134.723 33.0666 135.661 33.6122 136.292 34.2901C136.94 34.9515 137.263 35.8113 137.263 36.8695C137.263 37.4978 137.15 38.06 136.924 38.556C136.697 39.0355 136.389 39.4571 136.001 39.8209C135.629 40.1681 135.184 40.4492 134.666 40.6641C134.148 40.8791 133.598 41.0196 133.015 41.0857V43.6899H131.437V41.0857C130.741 41.0527 130.11 40.9535 129.544 40.7881C128.993 40.6228 128.411 40.3748 127.796 40.0441L128.573 38.3576C129.252 38.7544 129.908 39.0272 130.539 39.176C131.17 39.3083 131.729 39.3744 132.214 39.3744C132.619 39.3744 132.991 39.3331 133.331 39.2504C133.687 39.1512 133.994 39.0107 134.253 38.8288C134.528 38.6304 134.739 38.3824 134.884 38.0848C135.046 37.7871 135.127 37.4399 135.127 37.0431C135.127 36.3487 134.884 35.8196 134.399 35.4558C133.93 35.092 133.234 34.7614 132.311 34.4637L131.194 34.0917C130.677 33.9264 130.207 33.7362 129.786 33.5213C129.366 33.2898 129.002 33.017 128.694 32.7028C128.403 32.3887 128.168 32.0332 127.99 31.6364C127.828 31.223 127.747 30.7518 127.747 30.2227C127.747 28.9661 128.111 27.9823 128.84 27.2713C129.568 26.5603 130.555 26.147 131.801 26.0312V23.5015Z" fill="#AECEAB"/>
<path fill-rule="evenodd" clip-rule="evenodd" d="M130.692 22.3936H134.492V25.0993C135.294 25.264 136.096 25.5421 136.896 25.9253L137.811 26.3633L136.379 30.1902L135.256 29.585C134.735 29.3041 134.27 29.1192 133.858 29.014C133.427 28.904 133.002 28.8502 132.58 28.8502C131.956 28.8502 131.556 28.992 131.291 29.1841C131.137 29.2959 130.996 29.479 130.996 29.9497C130.996 30.3598 131.115 30.47 131.199 30.5282C131.537 30.7627 132.03 31.0029 132.713 31.2304L133.829 31.6019C133.829 31.602 133.828 31.6018 133.829 31.6019C135.177 32.0492 136.299 32.6723 137.098 33.5261C137.971 34.4233 138.376 35.5721 138.376 36.8694C138.376 37.6321 138.238 38.3545 137.936 39.0152L137.93 39.0282C137.644 39.6341 137.253 40.1694 136.763 40.6284L136.761 40.6299C136.283 41.0762 135.722 41.4261 135.094 41.6868C134.78 41.817 134.458 41.9238 134.127 42.0075V44.7976H130.328V42.0896C129.949 42.0323 129.583 41.9533 129.233 41.8512L129.225 41.8488C128.59 41.6579 127.938 41.3779 127.27 41.0191L126.353 40.5259L128.077 36.7835L129.135 37.4014C129.734 37.7511 130.283 37.9752 130.783 38.0947C131.356 38.214 131.83 38.2665 132.216 38.2665C132.537 38.2665 132.814 38.2345 133.051 38.1784C133.293 38.1093 133.474 38.0213 133.61 37.927C133.737 37.8337 133.825 37.727 133.888 37.5987L133.898 37.5774L133.91 37.5565C133.969 37.4469 134.018 37.2872 134.018 37.043C134.018 36.6387 133.896 36.4633 133.733 36.3414L133.726 36.336L133.719 36.3304C133.396 36.0798 132.838 35.7974 131.971 35.5177L131.961 35.5144L130.851 35.1445C130.286 34.9639 129.762 34.7524 129.282 34.5072L129.267 34.4994L129.252 34.4912C128.744 34.2121 128.291 33.8752 127.901 33.4766L127.891 33.4659L127.88 33.4549C127.506 33.0509 127.205 32.5938 126.978 32.0887L126.967 32.0642L126.957 32.0392C126.736 31.4753 126.638 30.8636 126.638 30.2226C126.638 28.7429 127.074 27.446 128.064 26.4795C128.784 25.7766 129.675 25.3243 130.692 25.0885V22.3936ZM131.803 26.0311C130.557 26.1468 129.57 26.5602 128.841 27.2712C128.113 27.9822 127.749 28.966 127.749 30.2226C127.749 30.7517 127.83 31.2229 127.992 31.6363C128.17 32.0331 128.404 32.3886 128.696 32.7027C129.003 33.0169 129.367 33.2897 129.788 33.5212C130.209 33.7361 130.678 33.9263 131.196 34.0916L132.313 34.4636C133.235 34.7612 133.931 35.0919 134.4 35.4557C134.886 35.8194 135.129 36.3485 135.129 37.043C135.129 37.4398 135.048 37.787 134.886 38.0846C134.74 38.3823 134.53 38.6303 134.255 38.8287C133.996 39.0106 133.688 39.1511 133.332 39.2503C132.993 39.333 132.62 39.3743 132.216 39.3743C131.73 39.3743 131.172 39.3082 130.541 39.1759C130.222 39.1008 129.898 38.9942 129.567 38.856C129.242 38.7203 128.911 38.5541 128.574 38.3575L127.798 40.044C128.412 40.3747 128.995 40.6227 129.545 40.788C130.112 40.9534 130.743 41.0526 131.439 41.0856V43.6898H133.017V41.0856C133.599 41.0195 134.15 40.879 134.668 40.664C135.185 40.4491 135.63 40.168 136.003 39.8208C136.391 39.457 136.699 39.0354 136.925 38.5559C137.152 38.0598 137.265 37.4977 137.265 36.8694C137.265 35.8112 136.941 34.9514 136.294 34.29C135.663 33.6121 134.724 33.0665 133.478 32.6531L132.361 32.2811C131.617 32.0331 131.018 31.752 130.565 31.4378C130.112 31.1237 129.885 30.6277 129.885 29.9497C129.885 29.2057 130.136 28.6518 130.638 28.288C131.139 27.9243 131.787 27.7424 132.58 27.7424C133.098 27.7424 133.616 27.8085 134.133 27.9408C134.341 27.994 134.555 28.0618 134.773 28.1442C135.099 28.2671 135.436 28.4225 135.784 28.6105L136.415 26.924C135.38 26.4279 134.368 26.1386 133.381 26.0559V23.5013H131.803V26.0311Z" fill="#AECEAB"/>
<path d="M83.7709 65.4565C83.7709 65.4565 75.7541 96.2215 64.9771 101.999C57.8752 105.806 51.6054 101.264 47.4032 94.068L32.2069 69.3934C31.4006 66.4733 32.9874 63.4281 35.8251 62.4373L48.4938 57.979L61.116 80.6774L77.2686 60.8626" fill="#F6B493"/>
<path d="M40.4511 45.9857C49.1605 48.4313 49.5534 52.4256 53.9158 59.4702L60.7852 72.0891L49.3414 79.4467L47.2429 84.1918L46.1109 125L0 124.77L8.27009 91.737L4.97239 70.0451C4.66743 66.6244 3.69053 60.2315 4.73463 56.9308C8.00648 46.6167 20.21 45.5164 27.7151 43.9521C29.2658 43.6288 30.7596 44.1242 32.0208 44.5101" fill="#F5F5F5"/>
<path d="M47.1292 86.2881C47.0931 85.9439 47.0827 85.5945 47.0982 85.2452C47.0982 84.5152 47.0982 83.5453 47.1344 82.3772V82.3512C47.7133 81.3187 48.2147 80.2446 48.6385 79.1391C49.1709 77.8251 49.3001 76.3859 49.021 74.9988C48.6489 73.4345 47.7909 72.1205 47.2171 70.8273C46.6951 69.6697 46.3488 68.4391 46.1834 67.1772C46.0748 66.3377 46.0541 65.4825 46.1162 64.6378C46.1162 64.3354 46.173 64.1164 46.1989 63.9495C46.204 63.8661 46.2247 63.7878 46.2557 63.7148C46.2764 64.0225 46.2764 64.3354 46.2557 64.643C46.235 65.4825 46.2867 66.3168 46.416 67.1459C46.602 68.3713 46.9638 69.5654 47.4859 70.6917C48.0545 71.9641 48.9332 73.2989 49.326 74.9154C49.6206 76.3598 49.4811 77.8616 48.9177 79.2225C48.4835 80.3332 47.9666 81.4126 47.367 82.445V82.3929C47.3102 83.5609 47.2688 84.5308 47.2326 85.2608C47.2275 85.605 47.1964 85.9491 47.1292 86.2881Z" fill="#24263B"/>
<path d="M40.8131 44.5519C40.8544 44.6509 40.8803 44.7552 40.8906 44.8647C40.9475 45.1672 40.9785 45.48 40.994 45.7877C41.0353 46.9349 40.8441 48.082 40.4358 49.151C39.831 50.7518 38.7817 52.1441 37.4172 53.1661C35.7063 54.3967 33.6129 54.9494 31.5247 54.7304C30.4496 54.6209 29.4055 54.3341 28.4234 53.8805C27.5189 53.4529 26.6867 52.8741 25.9579 52.1806C24.7432 50.9917 23.818 49.5369 23.2546 47.9308C22.8721 46.8566 22.655 45.7251 22.6085 44.5832C22.5878 44.2755 22.5878 43.9626 22.6085 43.655C22.6034 43.5455 22.6137 43.4412 22.6395 43.3369C22.6757 43.3369 22.6395 43.7801 22.7119 44.5779C22.8049 45.699 23.0479 46.8045 23.4407 47.8578C24.0144 49.4221 24.9397 50.83 26.1388 51.9772C26.8469 52.6499 27.6533 53.1974 28.5371 53.6093C29.483 54.0473 30.4961 54.3237 31.5351 54.428C33.5457 54.647 35.5616 54.1255 37.2208 52.9627C39.4795 51.2941 40.8234 48.64 40.8389 45.8138C40.8751 44.9951 40.7769 44.5571 40.8131 44.5519Z" fill="#24263B"/>
<path d="M58.6964 68.2773C58.2674 68.6006 57.8126 68.8874 57.3319 69.1325C56.479 69.6539 55.2902 70.3214 53.998 71.1088C52.7058 71.8961 51.5532 72.6314 50.7158 73.1633C50.2816 73.4761 49.8164 73.7525 49.3306 73.9819C49.7234 73.6117 50.1472 73.278 50.6021 72.986C51.4084 72.4072 52.5507 71.6406 53.8481 70.848C55.1455 70.0555 56.3498 69.3984 57.2337 68.9448C57.6989 68.6736 58.1899 68.4494 58.6964 68.2773Z" fill="#24263B"/>
<path d="M6.30582 68.8198C6.30582 68.8198 6.33683 68.9137 6.39369 69.0962L6.61078 69.9096L7.42228 73.0383C8.10973 75.7498 9.09181 79.6189 10.2858 84.3066L10.1359 84.2232L31.4624 77.5018L31.9793 77.3089L31.8811 77.4809C30.8525 72.6628 29.4517 67.9334 27.684 63.3395C26.03 59.1262 24.133 55.4709 21.9983 52.8376C21.0473 51.6383 19.905 50.6058 18.6231 49.782C17.6617 49.151 16.5607 48.7599 15.4184 48.6452C15.2013 48.6087 14.9791 48.5879 14.7568 48.5879L14.1676 48.6192C13.9867 48.6192 13.8213 48.6192 13.6507 48.6557L13.2475 48.7443L12.6893 48.859C12.6273 48.8747 12.5601 48.8851 12.4981 48.8903C12.5549 48.8642 12.6169 48.8434 12.679 48.8277L13.232 48.6869L13.6404 48.5827C13.7954 48.5514 13.966 48.5514 14.1572 48.5305L14.7517 48.4888C14.9739 48.4836 15.2013 48.4992 15.4236 48.5253C16.5866 48.6244 17.7134 49.0102 18.7006 49.636C20.0032 50.4546 21.1661 51.4871 22.1327 52.6864C24.3398 55.3301 26.2678 58.9958 27.9373 63.2195C29.7257 67.8238 31.1419 72.569 32.1757 77.4027V77.5331L32.0517 77.5748L31.5348 77.7677C23.5386 80.328 16.1317 82.5859 10.1721 84.437L10.0532 84.4735L10.0222 84.3535C8.86955 79.6606 7.92366 75.7758 7.25688 73.0591C6.93641 71.719 6.68831 70.6657 6.51257 69.9305L6.32649 69.1118C6.30582 69.0179 6.30065 68.9189 6.30582 68.8198Z" fill="#24263B"/>
<path d="M31.2453 74.5502C31.2453 74.6336 26.3453 76.0676 20.2513 77.7623C14.1572 79.457 9.21069 80.7606 9.21069 80.6824C9.21069 80.6041 14.1056 79.165 20.1996 77.4703C26.2936 75.7756 31.2195 74.472 31.2453 74.5502Z" fill="#24263B"/>
<path d="M29.3691 7.80062C27.958 4.71369 24.0762 3.25886 20.8043 4.07753C17.5325 4.89619 14.9481 7.59204 13.568 10.6842C12.1879 13.7763 11.821 17.2544 11.7951 20.6542C11.7951 22.4531 11.8726 24.273 11.5108 26.0354C11.149 27.7979 10.291 29.5395 8.79204 30.5198C7.61355 31.2916 6.16629 31.521 4.89993 32.1363C3.63357 32.7516 2.47059 34.0604 2.78588 35.4475C3.15804 37.1004 5.21522 37.5958 6.88475 37.7679C6.96745 40.7557 9.43297 43.1126 12.3947 43.0292C13.6145 42.9927 14.7879 42.5391 15.7234 41.7412C15.2065 43.827 17.0311 45.9754 19.1297 46.2256C21.2282 46.4759 23.2647 45.1515 24.4329 43.3577C25.601 41.564 25.9318 39.3739 26.0197 37.2412C26.1075 35.1085 25.9577 32.9497 26.1644 30.864" fill="#7C5142"/>
<path d="M53.1818 11.6856C53.1818 11.6856 54.7325 1.20467 40.4355 1.01174C24.4432 0.797947 21.559 14.5692 24.2985 21.8225L32.2481 13.8757L53.1818 11.6856Z" fill="#7C5142"/>
<path d="M40.6374 45.9858C40.7977 43.1961 40.9165 40.9226 40.9165 40.9226C40.9165 40.9226 49.1039 41.1156 50.3083 33.9562C51.5126 26.7968 52.8927 10.1211 52.8927 10.1211C45.5788 5.34988 36.1302 5.50631 28.9766 10.5174L28.3046 10.9867L23.1358 44.093C22.3709 48.9268 25.6169 53.4737 30.4032 54.2715C35.205 55.0693 39.7432 51.7895 40.534 46.9453C40.5857 46.6272 40.6219 46.3091 40.6374 45.9858Z" fill="#FFBE9D"/>
<path d="M49.9718 22.8285C49.8943 23.3239 49.4343 23.6628 48.9432 23.5846C48.4522 23.5064 48.1162 23.0423 48.1937 22.5469C48.2661 22.0672 48.7003 21.7335 49.181 21.7856C49.6772 21.8482 50.0338 22.3019 49.977 22.8077C49.9718 22.8129 49.9718 22.8233 49.9718 22.8285Z" fill="#263238"/>
<path d="M50.6336 21.9681C50.5044 22.0776 49.9099 21.4466 48.9537 21.2641C47.9975 21.0816 47.2273 21.504 47.1446 21.3632C47.0619 21.2224 47.2428 21.0921 47.584 20.8991C48.0337 20.6593 48.5506 20.581 49.0519 20.6697C49.5533 20.7583 50.0185 21.0086 50.3648 21.3841C50.6284 21.6813 50.6956 21.9212 50.6336 21.9681Z" fill="#263238"/>
<path d="M40.3739 21.9005C40.3584 22.401 39.9449 22.7973 39.4487 22.7817C38.9525 22.7661 38.5596 22.3489 38.5752 21.8483C38.5752 21.8014 38.5803 21.7545 38.5907 21.7127C38.6062 21.2122 39.0197 20.8159 39.5159 20.8315C40.0121 20.8471 40.4049 21.2643 40.3894 21.7649C40.3894 21.8066 40.3842 21.8535 40.3739 21.9005Z" fill="#263238"/>
<path d="M40.8491 21.0872C40.725 21.1967 40.1255 20.5397 39.1744 20.3833C38.2233 20.2268 37.448 20.6231 37.3601 20.4771C37.3188 20.4146 37.4635 20.206 37.8047 20.0183C38.2544 19.7784 38.7712 19.7002 39.2726 19.7888C39.774 19.8723 40.2392 20.1278 40.5855 20.5032C40.8439 20.7952 40.9111 21.0403 40.8491 21.0872Z" fill="#263238"/>
<path d="M42.0845 28.5434C42.6169 28.5121 43.1492 28.5486 43.6713 28.6581C43.9194 28.6947 44.1572 28.7051 44.2399 28.5382C44.3122 28.2723 44.3122 27.9959 44.2399 27.73C44.1623 27.0417 44.0848 26.3221 44.0021 25.566C43.6971 22.4895 43.5421 19.9918 43.6558 19.9761C43.7695 19.9605 44.1107 22.4426 44.4208 25.5191C44.488 26.2752 44.5552 26.9948 44.6172 27.6831C44.6896 28.0324 44.6482 28.4026 44.4983 28.7259C44.3898 28.8876 44.2089 28.9867 44.0176 28.9971C43.8781 28.9971 43.7385 28.9814 43.5989 28.9502C43.0769 28.8876 42.5703 28.7468 42.0845 28.5434Z" fill="#263238"/>
<path d="M40.9415 40.9224C37.6387 40.4114 34.5529 38.9357 32.0615 36.6831C32.0615 36.6831 33.7982 42.3772 40.8123 42.8465L40.9415 40.9224Z" fill="#EB996E"/>
<path d="M41.149 31.3857C41.1077 30.7547 40.7562 30.1812 40.2135 29.8631C39.8413 29.6389 39.3865 29.5867 38.973 29.7275C38.5595 29.8839 38.2804 30.275 38.27 30.7182C38.332 31.2084 38.6732 31.6203 39.1435 31.7611C39.6139 31.8915 40.0998 31.9176 40.5805 31.8446C40.7149 31.8393 40.8441 31.8081 40.9681 31.7559C41.0922 31.6933 41.1646 31.5682 41.1646 31.4326" fill="#EB996E"/>
<path d="M39.0614 28.7783C38.9942 28.7783 38.8391 29.0182 38.8133 29.4927C38.7771 30.7963 39.6972 31.9278 40.9687 32.1416C41.439 32.2094 41.7182 32.1051 41.713 32.0321C41.713 31.8705 40.6069 31.8131 39.8367 30.8641C39.0666 29.9151 39.2165 28.8044 39.0614 28.7783Z" fill="#263238"/>
<path d="M27.3019 20.3259C27.1934 20.2477 23.2289 18.5217 22.0969 23.2304C20.965 27.939 26.3819 27.4592 26.4232 27.3237C26.4646 27.1881 27.3019 20.3259 27.3019 20.3259Z" fill="#FFBE9D"/>
<path d="M25.3117 25.3474C25.3117 25.3474 25.2135 25.3839 25.0481 25.4152C24.8207 25.4517 24.5933 25.41 24.3968 25.2901C23.911 24.9929 23.6577 24.1116 23.8386 23.2565C23.9213 22.8445 24.097 22.4639 24.3555 22.1354C24.5312 21.8486 24.831 21.6661 25.1618 21.6452C25.3737 21.6348 25.565 21.7756 25.6218 21.9789C25.658 22.1249 25.6218 22.2136 25.6218 22.2292C25.6218 22.2449 25.7459 22.1719 25.7562 21.9685C25.7511 21.8433 25.7097 21.7286 25.627 21.6348C25.5133 21.5044 25.3479 21.4262 25.1773 21.4106C24.7535 21.3949 24.3452 21.5878 24.0919 21.932C23.7869 22.2866 23.5698 22.7194 23.4716 23.1782C23.2752 24.1377 23.575 25.1336 24.2521 25.483C24.5106 25.6134 24.8103 25.629 25.0791 25.5299C25.2755 25.4569 25.3272 25.3579 25.3117 25.3474Z" fill="#EB996E"/>
<path d="M51.2691 6.82063C52.9541 8.05123 53.6881 10.2152 53.0988 12.228C52.3959 14.4806 50.3128 16.9209 44.5238 16.8427L45.8418 15.3671C43.2006 17.4007 39.7375 18.0108 36.569 17.0044L38.192 13.834C38.192 13.834 30.873 21.6609 26.7844 21.9998L27.3013 13.6567C28.2885 5.78296 31.6328 3.42083 36.693 2.99846C38.5745 2.82638 40.4663 2.85767 42.3374 3.09753C45.5782 3.5564 48.6537 4.83915 51.2691 6.82063Z" fill="#7C5142"/>
<path d="M22.6491 0C23.0368 0.0938595 23.3986 0.255506 23.7294 0.479726C25.3938 1.46004 26.7118 2.93572 27.5078 4.7034C27.6939 5.05798 27.8128 5.43864 27.8696 5.83493C27.7818 5.87665 27.2029 4.12982 25.7194 2.49771C24.236 0.865593 22.5975 0.0990739 22.6491 0Z" fill="#7C5142"/>
<path d="M7.91395 26.6925C7.91395 26.6925 7.81574 26.5882 7.59348 26.4474C7.26268 26.244 6.88019 26.1502 6.4977 26.1658C5.89295 26.1815 5.32955 26.463 4.94706 26.9323C4.48186 27.5946 4.38882 28.4497 4.69378 29.2006C5.06594 30.1027 5.88778 30.7389 6.84918 30.864C7.9553 31.0361 9.0821 30.6971 9.91945 29.9515C10.8705 29.1485 11.5269 28.0482 11.7854 26.8228C11.9249 26.1815 11.9249 25.5244 11.7854 24.8831C11.6303 24.2208 11.3977 23.5795 11.0928 22.9694C10.8033 22.3384 10.4932 21.7179 10.2503 21.0661C10.0125 20.4247 9.85742 19.7573 9.79023 19.0742C9.68168 17.7863 9.83158 16.4879 10.2296 15.2573C10.9222 13.1871 12.1265 11.3308 13.7289 9.86555C14.7833 8.8696 15.9256 7.97794 17.1403 7.19577C17.5693 6.91941 17.9104 6.71083 18.143 6.57526C18.2567 6.50226 18.3808 6.43447 18.5048 6.38232C18.4015 6.47618 18.2929 6.55961 18.174 6.6274L17.2075 7.29485C16.0186 8.10308 14.9022 9.01039 13.8632 10.0063C12.3178 11.4716 11.1548 13.3019 10.4777 15.3303C10.1004 16.5244 9.9608 17.781 10.0693 19.0325C10.1417 19.6895 10.2916 20.3309 10.5139 20.9514C10.7516 21.5823 11.0618 22.1924 11.3564 22.8338C11.6665 23.4648 11.9043 24.127 12.0645 24.8101C12.2092 25.4879 12.2092 26.1919 12.0645 26.8698C11.7854 28.1525 11.0876 29.3101 10.0797 30.1444C9.18031 30.937 7.97598 31.2812 6.79749 31.0882C5.74822 30.937 4.86435 30.2331 4.48186 29.2371C4.16657 28.4237 4.28545 27.5007 4.79716 26.7915C5.21583 26.291 5.83609 26.0042 6.48736 26.0146C6.89053 26.0094 7.28336 26.1293 7.61416 26.3588C7.73304 26.4474 7.83642 26.5621 7.91395 26.6925Z" fill="#7C5142"/>
<path d="M26.6403 10.9557C26.4749 10.6741 26.3767 10.356 26.3509 10.0327C26.2268 9.25576 26.2579 8.46317 26.4388 7.70186C26.6145 6.93534 26.935 6.21575 27.3898 5.57438C27.7413 5.08944 28.0308 4.85479 28.0514 4.88086C28.0721 4.90694 27.1159 6.03325 26.7282 7.76965C26.3405 9.50605 26.7334 10.94 26.6403 10.9557Z" fill="#263238"/>
<path d="M22.3706 26.1709C22.0967 26.4108 21.8848 26.7184 21.7504 27.0574C21.6367 27.4224 21.6677 27.8134 21.8434 28.1524C22.0864 28.5487 22.505 28.8094 22.9651 28.8511C23.4251 28.9241 23.8903 28.7885 24.2366 28.4757C24.5054 28.2045 24.6553 27.8395 24.6553 27.4589C24.6397 27.0886 24.526 26.7288 24.3245 26.416C24.3245 26.416 24.4382 26.4577 24.5674 26.6193C24.7483 26.854 24.8517 27.1356 24.8672 27.4328C24.8982 27.8864 24.738 28.3297 24.433 28.6582C24.0298 29.044 23.4716 29.2161 22.9237 29.1327C22.381 29.0805 21.8951 28.7729 21.616 28.3036C21.4196 27.8969 21.4041 27.4224 21.5695 27C21.6728 26.7236 21.8486 26.4838 22.0864 26.3117C22.2518 26.197 22.3655 26.1709 22.3706 26.1709Z" fill="#455A64"/>
<path d="M54.3697 14.0839C54.3129 14.0839 54.5403 13.2809 54.5455 11.9982C54.5816 8.53057 52.7002 5.32892 49.6713 3.69159C48.5393 3.07107 47.7381 2.89378 47.7536 2.83643C47.9449 2.84164 48.1361 2.87293 48.317 2.94071C48.8184 3.0815 49.3043 3.26922 49.7695 3.50387C52.9535 5.09427 54.9073 8.42628 54.7574 12.0034C54.7367 12.53 54.6695 13.0515 54.5506 13.5677C54.5144 13.745 54.4524 13.9223 54.3697 14.0839Z" fill="#7C5142"/>
<path d="M41.31 19.2513C41.279 19.2878 41.0826 19.1001 40.726 18.8811C40.2659 18.5943 39.7542 18.417 39.2167 18.3597C38.6791 18.3075 38.1364 18.3753 37.6298 18.563C37.2318 18.7038 37.0044 18.8446 36.9786 18.8029C36.9527 18.7612 37.1491 18.5682 37.5471 18.3649C38.0744 18.1042 38.6636 17.9947 39.2477 18.0572C39.8318 18.1198 40.3848 18.3492 40.85 18.709C41.1963 18.9906 41.341 19.2305 41.31 19.2513Z" fill="#7C5142"/>
<path d="M50.4262 20.1326C49.8111 20.2317 49.1909 20.2317 48.5758 20.1326C47.9556 20.1326 47.3405 20.0387 46.7512 19.8458C47.3611 19.7467 47.9866 19.7467 48.5965 19.8458C49.2167 19.8406 49.837 19.9397 50.4262 20.1326Z" fill="#7C5142"/>
<path d="M83.771 65.4564C83.771 65.4564 86.7017 58.4326 82.7372 59.1991C76.6639 60.3671 77.5684 66.3272 77.5684 66.3272L83.771 65.4564Z" fill="#F6B493"/>
<path d="M89.4152 33.9508C88.9035 33.7683 88.3711 33.664 87.8283 33.6432C91.126 36.1148 92.0202 42.4764 89.7098 48.9006C87.4562 55.1579 82.8973 59.4285 78.8553 59.3972L78.5348 59.3138C75.325 56.7848 74.4773 50.5014 76.7568 44.1502C79.0362 37.7991 83.7346 33.4607 87.8232 33.6432C87.4097 33.3303 86.9496 33.0748 86.4638 32.8923C82.091 31.2863 76.4053 35.8541 73.8209 43.0917C71.2933 50.1207 72.6062 57.0663 76.7102 58.9279H76.6275L68.5435 79.7855C68.1817 80.7085 68.6314 81.7514 69.5514 82.1112C70.4715 82.471 71.5001 82.0225 71.8567 81.0944L80.0234 60.1533C84.4118 61.7541 90.0768 57.1915 92.6767 49.9539C95.2766 42.7163 93.8035 35.5569 89.4152 33.9508Z" fill="#24263B"/>
<path d="M85.7664 52.8168C85.8232 52.5978 85.9059 52.384 86.0145 52.1807L86.7691 50.4964C87.6271 48.6609 88.2939 46.7368 88.7643 44.7605C89.214 42.7895 89.214 40.7454 88.7643 38.7744C88.5368 37.9662 88.2526 37.1788 87.9063 36.4175C88.0561 36.5896 88.1802 36.7825 88.2784 36.9911C88.5679 37.5386 88.8005 38.1174 88.9659 38.717C89.4879 40.7142 89.5189 42.8104 89.0537 44.8231C88.5834 46.8098 87.8804 48.7391 86.9604 50.559C86.614 51.2577 86.3246 51.8209 86.1178 52.2015C86.03 52.4205 85.9111 52.6291 85.7664 52.8168Z" fill="#C9CBD1"/>
<path d="M84.9186 54.4851C84.9754 54.5477 84.7273 54.897 84.3552 55.2673C83.983 55.6375 83.6419 55.8878 83.585 55.8304C83.5282 55.7731 83.7763 55.4237 84.1484 55.0535C84.5206 54.6832 84.8617 54.4277 84.9186 54.4851Z" fill="#C9CBD1"/>
<path d="M76.1005 62.3174C75.475 61.1233 74.7462 59.4756 73.6453 58.7038C72.5443 57.9321 71.0144 57.0404 69.7222 58.1824C71.3452 60.5237 72.8545 62.9432 74.2345 65.4409L76.1005 62.3174Z" fill="#F6B493"/>
<path d="M84.7116 60.2054C84.7116 60.2054 84.4687 58.8184 82.4529 59.4285C80.437 60.0386 74.1208 61.3683 75.3406 62.724C76.5604 64.0798 78.7158 63.4697 78.7158 63.4697C78.7158 63.4697 75.2062 64.2362 75.5422 64.9766C75.8782 65.7171 76.4622 66.9998 77.956 66.1968C79.4498 65.3938 83.5952 64.0328 83.5952 64.0328L84.7116 60.2054Z" fill="#F6B493"/>
<path opacity="0.5" d="M84.4831 63.3027C84.4831 63.3027 84.4831 63.1671 84.4831 62.9533C84.4728 62.6613 84.2815 62.4006 84.0076 62.3067C83.5579 62.2546 83.1031 62.3224 82.6896 62.5049L81.0097 62.9585C79.8157 63.2766 78.7302 63.5425 77.9394 63.7198C77.5207 63.845 77.0866 63.9232 76.6472 63.9545C77.0452 63.7615 77.4587 63.6155 77.8877 63.5165C78.6631 63.2818 79.7382 62.995 80.9322 62.6717L82.6172 62.2389C83.0824 62.0512 83.5889 62.0043 84.08 62.1034C84.4159 62.2442 84.6279 62.5883 84.5968 62.9585C84.5813 63.1932 84.4935 63.3079 84.4831 63.3027Z" fill="#263238" fill-opacity="0.3"/>
<path d="M30.5837 78.0651L36.6829 89.4743L66.9618 74.0917C66.9618 74.0917 71.4173 65.4567 72.1565 65.5662C72.8956 65.6757 76.1726 67.0992 76.1726 67.0992C76.1726 67.0992 80.8246 64.565 81.8273 65.2533C82.8301 65.9416 84.1843 74.2847 83.3056 76.8658C82.4269 79.4469 73.2316 84.6457 73.2316 84.6457C73.2316 84.6457 48.4213 101.082 37.634 106.854C30.5321 110.66 24.2675 106.119 20.06 98.9228L12.8857 83.608" fill="#FFBE9D"/>
</svg>
