<svg width="604" height="606" viewBox="0 0 604 606" fill="none" xmlns="http://www.w3.org/2000/svg">
<g clip-path="url(#clip0)">
<path opacity="0.66" d="M308.87 555.68C448.626 555.68 561.92 442.386 561.92 302.63C561.92 162.874 448.626 49.5801 308.87 49.5801C169.114 49.5801 55.8201 162.874 55.8201 302.63C55.8201 442.386 169.114 555.68 308.87 555.68Z" fill="url(#paint0_linear)" fill-opacity="0.2"/>
<path d="M311.89 293.55C298.11 294.29 288.28 296.35 266.9 289.68C245.52 283.01 208.17 247.01 218.44 194.4C228.71 141.79 268.82 112.28 319.13 118.75C369.44 125.22 409.81 147.36 413.14 208.32C416.47 269.28 347.37 296.81 326.81 298.09C306.26 299.38 311.89 293.55 311.89 293.55Z" fill="#2C2D3B"/>
<path d="M356.26 243.43C356.42 235.17 350.67 234.81 350.67 234.81C350.67 234.81 342.59 212.63 342.71 206.38C342.83 200.13 334.95 180.2 307.18 179.67C279.41 179.14 271.85 195.01 269.69 203.23C267.53 211.45 258.38 231.54 256 238.51C253.61 245.47 259.03 250.33 259.03 250.33C254.96 279.72 270.03 290.08 282.95 295.09C284.08 295.53 285.31 295.96 286.6 296.37L286.14 320.52L318.5 321.14L320.37 298.7C326.36 297.52 332.25 295.3 337.59 291.64C355.34 279.47 351.58 254.12 351.58 254.12C351.58 254.12 356.1 251.69 356.26 243.43Z" fill="#5B6599"/>
<path d="M276.454 243.566C276.493 241.539 272.643 239.822 267.856 239.73C263.069 239.638 259.156 241.206 259.117 243.233C259.078 245.259 262.928 246.977 267.715 247.069C272.502 247.16 276.415 245.592 276.454 243.566Z" fill="#4D4F9A"/>
<path d="M324.81 245.83C326.24 249.36 330.67 253.62 338.71 251.6C346.75 249.58 349.54 243.8 345.72 242.89C341.9 241.99 324.81 245.83 324.81 245.83Z" fill="#4D4F9A"/>
<path d="M271.88 244.8C284.776 244.8 295.23 234.346 295.23 221.45C295.23 208.554 284.776 198.1 271.88 198.1C258.984 198.1 248.53 208.554 248.53 221.45C248.53 234.346 258.984 244.8 271.88 244.8Z" fill="#FAD2E4"/>
<path d="M329.57 245.91C342.466 245.91 352.92 235.456 352.92 222.56C352.92 209.664 342.466 199.21 329.57 199.21C316.674 199.21 306.22 209.664 306.22 222.56C306.22 235.456 316.674 245.91 329.57 245.91Z" fill="#FAD2E4"/>
<path d="M292.35 223.51C292.35 223.51 297.65 216.77 308.86 223.83" stroke="#FAD2E4" stroke-miterlimit="10"/>
<path d="M259.05 229.88C259.3 229.8 267.77 223.37 278.75 229.34" stroke="#2C2C3C" stroke-width="0.5" stroke-miterlimit="10" stroke-linecap="round" stroke-linejoin="round"/>
<path d="M274.381 231.013C274.422 228.87 272.455 227.095 269.987 227.048C267.519 227 265.484 228.699 265.443 230.841C265.402 232.983 267.37 234.759 269.838 234.806C272.306 234.853 274.34 233.155 274.381 231.013Z" fill="#2C2D3B"/>
<path d="M321.65 232.72C321.9 232.64 330.37 226.21 341.35 232.18" stroke="#2C2C3C" stroke-width="0.5" stroke-miterlimit="10" stroke-linecap="round" stroke-linejoin="round"/>
<path d="M336.978 233.851C337.019 231.709 335.052 229.933 332.583 229.886C330.115 229.839 328.081 231.537 328.04 233.679C327.999 235.822 329.966 237.597 332.434 237.644C334.903 237.692 336.937 235.993 336.978 233.851Z" fill="#2C2D3B"/>
<path d="M271.83 216.2C265.91 216.37 261.73 216.34 261.85 218.76C261.97 221.18 263.38 221.21 270.1 221.34C276.82 221.47 276.53 223.13 278.9 221.51C281.27 219.88 278.71 216 271.83 216.2Z" fill="#2C2D3B"/>
<path d="M328.33 218.95C323.71 219.74 321.3 220.63 321.5 223.06C321.7 225.49 327.72 224.52 332.69 224.45C337.66 224.38 342.33 224.55 342.22 221.46C342.12 218.38 333.18 218.13 328.33 218.95Z" fill="#2C2D3B"/>
<path d="M298.74 248.5C293.52 247.81 290.97 249.35 290.61 250.43C290.26 251.51 295.99 252.54 301.84 252.31C307.69 252.08 309.89 249.96 298.74 248.5Z" fill="#2C2D3B"/>
<path d="M299.5 265.53L299.42 269.62C299.42 269.62 289.66 269.68 284.6 268.25C279.54 266.82 279.65 265.15 279.65 265.15L299.5 265.53Z" fill="white"/>
<path d="M301 265.56L300.92 269.66C300.92 269.66 307.91 270.61 314.44 269.32C320.97 268.03 321 266.69 321 266.69L301 265.56Z" fill="white"/>
<path d="M279.63 266.16C279.63 266.16 282.63 275.14 300.82 274.99C319.01 274.84 321.67 266.55 321.67 266.55C321.67 266.55 321.4 281.73 309.43 282.5C296.42 283.34 289.75 282.29 284.56 278.85C279.37 275.41 279.01 267.99 279.63 266.16Z" fill="#4E4F9F"/>
<path d="M279.23 265.14C277.47 264.73 286.12 258.01 301.72 258.31C317.31 258.61 322.1 265.71 321.67 266.54C321.24 267.37 283.55 266.14 279.23 265.14Z" fill="#2C2D3B"/>
<path d="M286.26 295.37L286.47 304.13C286.47 304.13 294.8 310.42 303.75 309.84C312.71 309.26 314.27 306.1 314.88 303.86C315.49 301.62 315.66 299.24 315.66 299.24C315.66 299.24 298.74 300.8 286.26 295.37Z" fill="#2C2D3B"/>
<path d="M348.13 341.49C348.13 341.49 348.13 336.65 348.13 332.01C348.13 327.36 344.84 320.01 332.65 319.43C320.46 318.85 288.52 318.27 280.78 318.27C273.04 318.27 268.97 322.53 268.78 329.88C268.59 337.23 268.78 339.56 268.78 339.56C268.78 339.56 254.26 340.91 244.01 352.53C233.75 364.14 217.11 405.76 212.66 440.79C208.21 475.82 208.6 479.69 208.6 479.69L395.18 478.34C395.18 478.34 402.92 441.95 404.47 424.15C406.02 406.34 405.05 377.5 385.5 358.34C365.94 339.17 348.13 341.49 348.13 341.49Z" fill="#E1809A"/>
<path d="M165.72 328.61C165.72 328.61 160.8 330.99 155.96 334.82C152.13 337.85 157.7 343.6 164.71 351.37C171.56 358.96 198.13 387.37 200.19 389.05C202.25 390.73 204.82 391.37 208.57 387.5C212.32 383.63 219.55 372.27 219.55 372.27L171.02 326.08L165.72 328.61Z" fill="#222342"/>
<path d="M180.87 362.94L201.48 384.52C201.48 384.52 203.83 387.53 207.7 385.72C211.57 383.91 216.52 376.9 217.71 375.08C218.9 373.26 220.26 372 217.71 369.29C215.16 366.58 176.88 328 176.88 328C176.88 328 173.69 324.15 170.83 325.74C166.86 327.94 163.45 329.74 158.38 333.29C155.94 335 158.11 337.67 161.8 342C165.77 346.67 171.52 353.12 171.52 353.12L180.87 362.94Z" fill="#E1809A"/>
<path d="M187.48 375.78C187.48 375.78 178.65 379.36 178.65 382.98C178.65 386.59 183.68 390.85 181.75 392.66C179.82 394.47 174.01 398.21 178.65 403.76C183.3 409.31 196.07 414.08 200.07 418.21C204.07 422.34 207.42 426.73 207.42 426.73C207.42 426.73 223.81 422.47 229.74 411.5C235.67 400.53 238.51 397.82 238.51 397.82C238.51 397.82 234.48 397.14 232.45 387.11C230.42 377.08 218.99 368.71 215.14 367.91C211.29 367.11 209.23 371.14 210.51 376.4C211.8 381.66 212.7 382.36 212.7 382.36L208.03 388.03C206.27 389.85 202.28 390.41 200.35 388.76C200.22 388.65 200.09 388.52 199.96 388.39L187.48 375.78Z" fill="#5A6499"/>
<mask id="mask0" mask-type="alpha" maskUnits="userSpaceOnUse" x="164" y="330" width="47" height="48">
<path d="M174.39 330.98L165.49 336.79C165.49 336.79 162.26 338.73 167.17 343.89C172.07 349.05 195.56 375.12 195.56 375.12C195.56 375.12 198.4 379.51 202.27 375.77C206.14 372.03 209.24 368.83 209.24 368.83C209.24 368.83 211.69 366.67 209.24 363.96C208.47 363.1 204.09 358.52 201 355.41C195.26 349.65 178.29 331.47 178.29 331.47C178.29 331.47 176.4 329.67 174.39 330.98Z" fill="#222342"/>
</mask>
<g mask="url(#mask0)">
<path d="M174.39 330.98L165.49 336.79C165.49 336.79 162.26 338.73 167.17 343.89C172.07 349.05 195.56 375.12 195.56 375.12C195.56 375.12 198.4 379.51 202.27 375.77C206.14 372.03 209.24 368.83 209.24 368.83C209.24 368.83 211.69 366.67 209.24 363.96C208.47 363.1 204.09 358.52 201 355.41C195.26 349.65 178.29 331.47 178.29 331.47C178.29 331.47 176.4 329.67 174.39 330.98Z" fill="#222342"/>
<path d="M165 336L212.04 364.47" stroke="white" stroke-width="2" stroke-miterlimit="10"/>
<path d="M162 341L210.3 369.78" stroke="white" stroke-width="2" stroke-miterlimit="10"/>
</g>
<path d="M246.08 397.26C237.43 388.75 228.54 408.8 227.29 411.36C227.14 411.67 226.97 411.97 226.81 412.27C226.52 412.76 226.23 413.28 225.92 413.82C221.41 421.06 212.84 425.21 206.21 426.72C206.21 426.72 200.32 429.56 203.81 434.85C205.49 437.41 214.07 444 222.49 450.13C222.49 450.13 222.87 450.52 230 455.52C237.13 460.52 256.77 479.34 256.77 479.34L349.29 478.67C349.3 478.67 251.08 402.18 246.08 397.26Z" fill="#C96A86"/>
</g>
<defs>
<linearGradient id="paint0_linear" x1="308.865" y1="49.5765" x2="308.865" y2="555.682" gradientUnits="userSpaceOnUse">
<stop stop-color="#EB6D95"/>
<stop offset="1" stop-color="#EB6D95" stop-opacity="0"/>
</linearGradient>
<clipPath id="clip0">
<rect width="603.47" height="605.26" fill="white"/>
</clipPath>
</defs>
</svg>
