<svg width="496" height="680" viewBox="0 0 496 680" fill="none" xmlns="http://www.w3.org/2000/svg">
<path d="M496 425.5H440.045V394.975H409.52V361.911H372.215V429.741H341.69V439.914H324.731V445.851H297.604V338.172H242.492V433.129H207.726V368.691H161.096V408.541H133.964V292.384H74.6105V420.411H41.5462V391.587H0V497.571H32.2161H41.5462H74.6105H97.5066H121.246H133.964H161.096H176.358H195.856H207.726H242.492H257.749H297.604H324.731H334.061H341.69H351.015H372.215H378.147H408.672H409.52H434.368H440.045H496V425.5Z" fill="url(#paint0_linear)"/>
<path d="M199.626 384.205H154.988V497.817H199.626V384.205Z" fill="#CFD1E2"/>
<path d="M164.248 387.487H158.597V393.139H164.248V387.487Z" fill="#9FA7C9"/>
<path d="M174.974 387.487H169.322V393.139H174.974V387.487Z" fill="#9FA7C9"/>
<path d="M185.697 387.487H180.046V393.139H185.697V387.487Z" fill="#9FA7C9"/>
<path d="M196.424 387.487H190.772V393.139H196.424V387.487Z" fill="#9FA7C9"/>
<path d="M164.248 396.922H158.597V402.573H164.248V396.922Z" fill="#9FA7C9"/>
<path d="M174.974 396.922H169.322V402.573H174.974V396.922Z" fill="#9FA7C9"/>
<path d="M185.697 396.922H180.046V402.573H185.697V396.922Z" fill="#9FA7C9"/>
<path d="M196.424 396.922H190.772V402.573H196.424V396.922Z" fill="#9FA7C9"/>
<path d="M164.248 405.966H158.597V411.618H164.248V405.966Z" fill="#9FA7C9"/>
<path d="M174.974 405.966H169.322V411.618H174.974V405.966Z" fill="#9FA7C9"/>
<path d="M185.697 405.966H180.046V411.618H185.697V405.966Z" fill="#9FA7C9"/>
<path d="M196.424 405.966H190.772V411.618H196.424V405.966Z" fill="#9FA7C9"/>
<path d="M164.248 414.725H158.597V420.376H164.248V414.725Z" fill="#9FA7C9"/>
<path d="M174.974 414.725H169.322V420.376H174.974V414.725Z" fill="#9FA7C9"/>
<path d="M185.697 414.725H180.046V420.376H185.697V414.725Z" fill="#9FA7C9"/>
<path d="M196.424 414.725H190.772V420.376H196.424V414.725Z" fill="#9FA7C9"/>
<path d="M164.248 424.054H158.597V429.705H164.248V424.054Z" fill="#9FA7C9"/>
<path d="M174.974 424.054H169.322V429.705H174.974V424.054Z" fill="#9FA7C9"/>
<path d="M185.697 424.054H180.046V429.705H185.697V424.054Z" fill="#9FA7C9"/>
<path d="M196.424 424.054H190.772V429.705H196.424V424.054Z" fill="#9FA7C9"/>
<path d="M164.248 433.661H158.597V439.312H164.248V433.661Z" fill="#9FA7C9"/>
<path d="M174.974 433.661H169.322V439.312H174.974V433.661Z" fill="#9FA7C9"/>
<path d="M185.697 433.661H180.046V439.312H185.697V433.661Z" fill="#9FA7C9"/>
<path d="M196.424 433.661H190.772V439.312H196.424V433.661Z" fill="#9FA7C9"/>
<path d="M164.248 442.705H158.597V448.356H164.248V442.705Z" fill="#9FA7C9"/>
<path d="M174.974 442.705H169.322V448.356H174.974V442.705Z" fill="#9FA7C9"/>
<path d="M185.697 442.705H180.046V448.356H185.697V442.705Z" fill="#9FA7C9"/>
<path d="M196.424 442.705H190.772V448.356H196.424V442.705Z" fill="#9FA7C9"/>
<path d="M164.248 452.316H158.597V457.967H164.248V452.316Z" fill="#9FA7C9"/>
<path d="M174.974 452.316H169.322V457.967H174.974V452.316Z" fill="#9FA7C9"/>
<path d="M185.697 452.316H180.046V457.967H185.697V452.316Z" fill="#9FA7C9"/>
<path d="M196.424 452.316H190.772V457.967H196.424V452.316Z" fill="#9FA7C9"/>
<path d="M164.248 461.079H158.597V466.73H164.248V461.079Z" fill="#9FA7C9"/>
<path d="M174.974 461.079H169.322V466.73H174.974V461.079Z" fill="#9FA7C9"/>
<path d="M185.697 461.079H180.046V466.73H185.697V461.079Z" fill="#9FA7C9"/>
<path d="M196.424 461.079H190.772V466.73H196.424V461.079Z" fill="#9FA7C9"/>
<path d="M164.248 470.122H158.597V475.774H164.248V470.122Z" fill="#9FA7C9"/>
<path d="M174.974 470.122H169.322V475.774H174.974V470.122Z" fill="#9FA7C9"/>
<path d="M185.697 470.122H180.046V475.774H185.697V470.122Z" fill="#9FA7C9"/>
<path d="M196.424 470.122H190.772V475.774H196.424V470.122Z" fill="#9FA7C9"/>
<path d="M164.248 479.448H158.597V485.099H164.248V479.448Z" fill="#9FA7C9"/>
<path d="M174.974 479.448H169.322V485.099H174.974V479.448Z" fill="#9FA7C9"/>
<path d="M185.697 479.448H180.046V485.099H185.697V479.448Z" fill="#9FA7C9"/>
<path d="M196.424 479.448H190.772V485.099H196.424V479.448Z" fill="#9FA7C9"/>
<path d="M453.67 470.193H414.111V496.853H453.67V470.193Z" fill="#DADCEA"/>
<path d="M470.594 470.479H413.775L431 454.112H470.579L470.594 470.479Z" fill="#E7E8F7"/>
<path d="M453.734 470.434V496.813H486.708V470.434L470.226 454.419C470.226 454.419 453.734 470.906 453.734 470.434Z" fill="#CFD1E2"/>
<path d="M421.876 479.478H417.73V487.392H421.876V479.478Z" fill="url(#paint1_linear)"/>
<path d="M431.356 479.478H427.211V487.392H431.356V479.478Z" fill="url(#paint2_linear)"/>
<path d="M442.108 479.478H437.963V487.392H442.108V479.478Z" fill="url(#paint3_linear)"/>
<path d="M51.6193 312.766H41.0596V496.753H51.6193V312.766Z" fill="#E7E8F7"/>
<path d="M97.8224 312.766H50.665V496.753H97.8224V312.766Z" fill="#CFD1E2"/>
<path d="M61.782 318.673H59.7744V487.839H61.782V318.673Z" fill="#9FA7C9"/>
<path d="M75.2068 318.392H73.1992V487.558H75.2068V318.392Z" fill="#9FA7C9"/>
<path d="M88.6345 318.392H86.627V487.558H88.6345V318.392Z" fill="#9FA7C9"/>
<path d="M339.803 287.616V497.641H383.894V318.769C383.894 318.769 341.499 287.616 339.803 287.616Z" fill="#CFD1E2"/>
<path d="M339.803 287.616V497.641H349.981V294.402C349.981 294.402 341.499 287.616 339.803 287.616Z" fill="#E7E8F7"/>
<path d="M377.298 323.225H356.951V324.495H377.298V323.225Z" fill="#9FA7C9"/>
<path d="M377.298 330.291H356.951V331.561H377.298V330.291Z" fill="#9FA7C9"/>
<path d="M377.298 336.791H356.951V338.061H377.298V336.791Z" fill="#9FA7C9"/>
<path d="M377.298 343.858H356.951V345.127H377.298V343.858Z" fill="#9FA7C9"/>
<path d="M377.298 350.925H356.951V352.194H377.298V350.925Z" fill="#9FA7C9"/>
<path d="M377.298 357.424H356.951V358.693H377.298V357.424Z" fill="#9FA7C9"/>
<path d="M377.298 364.209H356.951V365.479H377.298V364.209Z" fill="#9FA7C9"/>
<path d="M377.298 371.271H356.951V372.541H377.298V371.271Z" fill="#9FA7C9"/>
<path d="M377.298 377.776H356.951V379.045H377.298V377.776Z" fill="#9FA7C9"/>
<path d="M377.298 384.556H356.951V385.826H377.298V384.556Z" fill="#9FA7C9"/>
<path d="M377.298 391.622H356.951V392.892H377.298V391.622Z" fill="#9FA7C9"/>
<path d="M377.298 398.122H356.951V399.392H377.298V398.122Z" fill="#9FA7C9"/>
<path d="M377.298 405.469H356.951V406.739H377.298V405.469Z" fill="#9FA7C9"/>
<path d="M377.298 412.536H356.951V413.806H377.298V412.536Z" fill="#9FA7C9"/>
<path d="M377.298 419.035H356.951V420.305H377.298V419.035Z" fill="#9FA7C9"/>
<path d="M377.298 426.384H356.951V427.653H377.298V426.384Z" fill="#9FA7C9"/>
<path d="M377.298 433.45H356.951V434.72H377.298V433.45Z" fill="#9FA7C9"/>
<path d="M377.298 439.949H356.951V441.219H377.298V439.949Z" fill="#9FA7C9"/>
<path d="M377.298 447.016H356.951V448.286H377.298V447.016Z" fill="#9FA7C9"/>
<path d="M377.298 454.082H356.951V455.352H377.298V454.082Z" fill="#9FA7C9"/>
<path d="M377.298 460.582H356.951V461.852H377.298V460.582Z" fill="#9FA7C9"/>
<path d="M377.298 467.081H356.951V468.351H377.298V467.081Z" fill="#9FA7C9"/>
<path d="M377.298 474.147H356.951V475.417H377.298V474.147Z" fill="#9FA7C9"/>
<path d="M377.298 480.647H356.951V481.917H377.298V480.647Z" fill="#9FA7C9"/>
<path d="M166.798 498.098C156.871 494.846 147.099 491.117 137.408 487.197C127.53 483.182 117.583 478.971 107.023 477.556C100.838 476.798 94.5817 476.808 88.3983 477.586C80.2727 478.511 72.2824 480.379 64.5888 483.152C59.5699 484.968 54.5109 487.202 49.1507 487.413C41.2711 487.724 33.3664 483.623 25.7176 485.556C17.5118 487.623 11.6648 496.181 3.78516 498.103L166.798 498.098Z" fill="#F7F7F7"/>
<path d="M0.937875 498.098C0.937875 497.997 0.907762 497.897 0.887686 497.796C0.803216 497.887 0.730691 497.988 0.671875 498.098H0.937875Z" fill="#F7F7F7"/>
<path d="M431.331 498.098C421.404 494.846 411.632 491.117 401.941 487.197C392.059 483.182 382.116 478.971 371.557 477.556C365.371 476.798 359.115 476.808 352.932 477.586C344.806 478.511 336.816 480.379 329.122 483.152C324.103 484.968 319.044 487.202 313.684 487.413C305.804 487.724 297.9 483.623 290.251 485.556C282.045 487.623 276.198 496.181 268.313 498.103L431.331 498.098Z" fill="#F7F7F7"/>
<path d="M265.498 498.098C265.498 497.997 265.468 497.897 265.448 497.796C265.364 497.887 265.291 497.988 265.232 498.098H265.498Z" fill="#F7F7F7"/>
<path d="M146.416 675.686C145.588 676.102 126.28 675.686 125.452 677.969C124.624 680.253 162.401 679.631 162.401 679.631L198.311 678.592L219.064 679.631C219.064 679.631 214.708 670.496 213.463 670.291C212.218 670.085 154.08 666.968 154.08 666.968L146.416 675.686Z" fill="#2D2D2D"/>
<path d="M174.591 611.73C174.591 611.73 174.205 627.816 174.616 628.227C175.028 628.639 193.452 629.883 208.147 629.683C222.843 629.482 236.554 628.985 237.157 628.985L236.855 617.442L174.591 611.73Z" fill="#2D2D2D"/>
<path d="M168.572 361.403C168.572 361.403 192.281 365.604 244.508 362.909C245.105 363.511 304.378 357.067 304.378 357.067L264.317 346.703L205.486 346.402L175.157 356.299L168.572 361.403Z" fill="#2D2D2D"/>
<path d="M267.431 468.321C267.431 468.321 265.424 494.991 279.055 516.065L284.43 515.062L274.824 469.289L267.431 468.321Z" fill="#2D2D2D"/>
<path d="M224.252 623.791C224.252 625.352 222.696 637.181 223.629 644.654C223.629 644.654 224.252 651.505 226.435 654.305C226.435 654.305 229.236 659.6 228.302 665.513V667.696C228.302 667.696 220.207 669.563 202.771 667.696L175.062 668.007C175.062 668.007 167.9 668.318 147.96 665.497L130.524 659.896C135.832 658.848 141.325 659.279 146.404 661.141C146.404 661.141 147.96 659.896 152.633 658.029C152.633 658.029 166.645 651.505 178.475 642.471C178.475 642.471 188.332 632.403 192.693 623.399L224.252 623.791Z" fill="white"/>
<path d="M126.243 670.602C126.243 670.602 125.831 665.724 127.176 663.229C127.962 661.776 129.194 660.613 130.69 659.912L145.054 664.529C147.14 665.197 149.286 665.658 151.463 665.904C156.351 666.451 165.606 667.41 172.412 667.696L197.531 667.279L201.787 667.174L214.254 668.012L225.566 667.596L228.472 667.701C228.472 667.701 229.617 671.435 228.472 677.041L227.97 679.219L212.296 679.53L195.483 678.803C188.842 678.448 182.185 678.552 175.558 679.114C175.558 679.114 160.818 679.947 159.262 679.219C147.958 677.64 136.877 674.748 126.243 670.602Z" fill="#CFD1E2"/>
<path d="M202.354 648.288C202.354 648.288 202.46 639.154 211.8 639.254C221.14 639.354 218.751 651.6 218.751 651.6C218.751 651.6 218.962 658.245 208.999 656.79C208.999 656.795 202.46 655.139 202.354 648.288Z" fill="#CFD1E2"/>
<path d="M208.272 651.505L209 648.599L206.194 646.104L209.206 646.415L211.384 643.198L212.217 646.521L215.434 646.732L212.528 648.804L213.251 651.816L210.762 649.949L208.272 651.505Z" fill="#575ED3"/>
<path d="M183.613 649.091C183.279 648.765 182.866 648.531 182.415 648.412C181.963 648.293 181.489 648.294 181.038 648.413C180.618 648.53 180.259 648.803 180.034 649.176C179.954 649.306 179.898 649.449 179.868 649.598C179.771 649.658 179.682 649.731 179.602 649.814C179.445 649.966 179.32 650.149 179.233 650.35C179.147 650.552 179.102 650.769 179.101 650.988C179.112 651.441 179.24 651.883 179.472 652.273C179.71 652.649 180.031 652.965 180.411 653.196C180.801 653.426 181.243 653.553 181.695 653.568C182.147 653.577 182.592 653.464 182.985 653.241C183.361 653.023 183.68 652.721 183.919 652.358C183.968 652.293 184.01 652.222 184.044 652.147C184.145 651.951 184.224 651.744 184.28 651.53C184.333 651.312 184.358 651.087 184.355 650.863C184.35 650.636 184.315 650.412 184.25 650.195C184.13 649.781 183.911 649.402 183.613 649.091Z" fill="#2D2D2D"/>
<path d="M190.655 644.739C190.576 644.508 190.468 644.287 190.334 644.082C190.233 643.931 190.12 643.789 189.997 643.655C189.86 643.525 189.712 643.406 189.556 643.299C189.356 643.169 189.14 643.066 188.913 642.993C188.685 642.918 188.446 642.877 188.206 642.872C187.964 642.863 187.723 642.897 187.493 642.973C187.283 643.021 187.09 643.123 186.931 643.269C186.752 643.386 186.605 643.547 186.504 643.736C186.299 644.129 186.24 644.583 186.339 645.015L186.369 645.086C186.366 645.131 186.366 645.176 186.369 645.221C186.369 645.447 186.399 645.671 186.459 645.889C186.586 646.323 186.815 646.72 187.127 647.048C187.441 647.37 187.828 647.611 188.256 647.751L188.376 647.791C188.555 647.828 188.736 647.853 188.918 647.866H189.049C189.239 647.853 189.429 647.828 189.616 647.791L190.013 647.625C190.2 647.523 190.359 647.374 190.474 647.194C190.578 647.093 190.652 646.967 190.69 646.827C190.795 646.632 190.843 646.411 190.831 646.19C190.859 645.816 190.837 645.439 190.765 645.071C190.738 644.957 190.701 644.846 190.655 644.739Z" fill="#2D2D2D"/>
<path d="M196.457 637.834C196.38 637.483 196.206 637.162 195.955 636.905C195.789 636.732 195.585 636.601 195.358 636.524C195.134 636.41 194.886 636.357 194.635 636.368C194.451 636.376 194.268 636.4 194.088 636.438C194.049 636.445 194.01 636.455 193.973 636.468C193.707 636.543 193.456 636.662 193.23 636.82C193.053 636.936 192.885 637.065 192.728 637.206C192.591 637.364 192.465 637.532 192.352 637.708C192.197 637.943 192.078 638.2 192 638.471C191.976 638.544 191.959 638.62 191.95 638.697C191.906 638.912 191.883 639.13 191.88 639.349C191.895 639.792 192.01 640.227 192.216 640.619C192.316 640.808 192.463 640.967 192.643 641.081C192.801 641.228 192.995 641.332 193.205 641.382C193.42 641.447 193.647 641.457 193.867 641.412C194.044 641.398 194.215 641.344 194.369 641.256C194.539 641.261 194.708 641.239 194.871 641.191C195.083 641.138 195.283 641.048 195.463 640.925C195.758 640.731 196.008 640.476 196.196 640.177C196.317 639.991 196.407 639.786 196.462 639.57C196.477 639.519 196.487 639.467 196.492 639.415C196.528 639.232 196.552 639.048 196.562 638.862C196.57 638.75 196.57 638.638 196.562 638.526C196.527 638.295 196.502 638.054 196.457 637.834Z" fill="#2D2D2D"/>
<path d="M201.757 631.691C201.748 631.522 201.727 631.354 201.692 631.189C201.643 630.99 201.564 630.8 201.456 630.627C201.36 630.487 201.256 630.352 201.144 630.225C201.117 630.193 201.087 630.162 201.054 630.135C200.902 629.996 200.733 629.877 200.552 629.778C200.398 629.702 200.239 629.637 200.075 629.583C199.896 629.537 199.713 629.508 199.528 629.497C199.089 629.479 198.653 629.581 198.269 629.794C198.197 629.828 198.128 629.868 198.063 629.914C197.882 630.04 197.714 630.183 197.561 630.341C197.247 630.661 197.01 631.049 196.868 631.475C196.77 631.823 196.77 632.191 196.868 632.539C196.909 632.706 196.977 632.865 197.069 633.011C197.229 633.274 197.453 633.492 197.722 633.643C197.907 633.762 198.119 633.829 198.339 633.839C198.459 633.859 198.581 633.859 198.7 633.839L198.836 633.879C199.063 633.928 199.296 633.95 199.528 633.944C199.709 633.932 199.888 633.907 200.065 633.869C200.237 633.814 200.405 633.747 200.567 633.668C200.75 633.571 200.919 633.449 201.069 633.307C201.094 633.307 201.124 633.262 201.15 633.231C201.166 633.217 201.179 633.2 201.19 633.181C201.293 633.064 201.389 632.94 201.476 632.81C201.589 632.633 201.671 632.438 201.717 632.233C201.755 632.068 201.776 631.9 201.782 631.731C201.775 631.717 201.766 631.703 201.757 631.691Z" fill="#2D2D2D"/>
<path d="M175.93 653.959C175.875 653.787 175.807 653.619 175.724 653.457C175.706 653.413 175.682 653.371 175.654 653.332C175.568 653.201 175.463 653.076 175.363 652.95L175.318 652.895C175.286 652.86 175.251 652.828 175.212 652.8C175.076 652.677 174.93 652.566 174.775 652.469L174.71 652.433C174.57 652.368 174.414 652.303 174.269 652.248C174.222 652.229 174.173 652.217 174.123 652.213C173.957 652.181 173.79 652.159 173.621 652.147H173.551C173.496 652.147 173.445 652.147 173.39 652.147C173.285 652.122 173.177 652.107 173.069 652.102L172.627 652.163C172.352 652.239 172.101 652.386 171.9 652.589C171.865 652.614 171.839 652.644 171.809 652.669L171.774 652.715C171.674 652.84 171.573 652.966 171.483 653.096C171.458 653.126 171.438 653.16 171.423 653.196C171.414 653.214 171.405 653.233 171.398 653.252C171.333 653.397 171.267 653.543 171.212 653.693C171.197 653.73 171.187 653.769 171.182 653.809C171.145 653.991 171.118 654.175 171.102 654.361C171.095 654.585 171.117 654.809 171.167 655.028C171.177 655.108 171.197 655.185 171.227 655.259C171.289 655.43 171.359 655.597 171.438 655.761C171.535 655.911 171.642 656.053 171.759 656.188C171.783 656.218 171.81 656.247 171.839 656.273L171.885 656.313C172.005 656.408 172.131 656.514 172.261 656.599C172.291 656.621 172.323 656.639 172.356 656.654C172.497 656.722 172.641 656.782 172.788 656.835H172.848H172.959C173.137 656.871 173.319 656.895 173.501 656.905H173.611C173.792 656.905 173.977 656.865 174.158 656.83L174.259 656.8H174.314C174.464 656.746 174.612 656.684 174.755 656.614L174.846 656.564C174.992 656.469 175.131 656.363 175.262 656.248C175.419 656.1 175.554 655.931 175.664 655.746L175.719 655.651C175.801 655.49 175.868 655.322 175.92 655.149C175.987 654.929 176.014 654.7 176 654.471C176 654.311 175.96 654.145 175.935 653.969C175.933 653.966 175.932 653.963 175.93 653.959Z" fill="#2D2D2D"/>
<path d="M166.816 655.324L166.48 655.063C166.295 654.945 166.082 654.877 165.862 654.868C165.718 654.827 165.565 654.827 165.421 654.868C165.294 654.876 165.169 654.903 165.049 654.948L164.743 654.993C164.466 655.069 164.213 655.216 164.01 655.42L163.96 655.485L163.755 655.585C163.692 655.62 163.632 655.659 163.574 655.701C163.404 655.813 163.247 655.944 163.107 656.092C162.873 656.337 162.701 656.635 162.605 656.961C162.513 657.302 162.513 657.663 162.605 658.004C162.648 658.181 162.718 658.35 162.811 658.506C162.979 658.784 163.212 659.018 163.489 659.189C163.818 659.387 164.193 659.496 164.578 659.505C164.774 659.506 164.969 659.484 165.16 659.44C165.353 659.396 165.539 659.325 165.712 659.229L165.772 659.199C165.905 659.11 166.033 659.013 166.154 658.908C166.305 658.77 166.434 658.609 166.535 658.431C166.56 658.386 166.575 658.341 166.595 658.296L166.891 658.07C167.094 657.866 167.241 657.614 167.318 657.337V657.272C167.318 657.191 167.343 657.111 167.353 657.031C167.363 656.951 167.378 656.87 167.383 656.79C167.384 656.608 167.364 656.426 167.323 656.248C167.233 655.903 167.059 655.585 166.816 655.324Z" fill="#2D2D2D"/>
<path d="M158.594 658.877C158.537 658.803 158.473 658.734 158.403 658.672C158.281 658.501 158.123 658.36 157.942 658.255L157.886 658.22C157.65 658.101 157.388 658.041 157.123 658.044C156.855 658.034 156.589 658.095 156.353 658.222C156.116 658.35 155.918 658.537 155.778 658.767C155.74 658.765 155.701 658.765 155.663 658.767C155.444 658.777 155.231 658.844 155.046 658.963C154.685 659.201 154.416 659.555 154.283 659.966C154.283 660.117 154.248 660.263 154.228 660.408C154.226 660.703 154.304 660.993 154.453 661.246L154.709 661.582C154.913 661.785 155.166 661.931 155.442 662.009C155.65 662.055 155.862 662.084 156.075 662.094H156.175C156.352 662.081 156.528 662.058 156.702 662.024C156.771 662.014 156.84 661.999 156.908 661.979C157.068 661.924 157.224 661.848 157.384 661.778L157.485 661.728C157.662 661.622 157.83 661.501 157.987 661.367C158.04 661.324 158.091 661.277 158.137 661.226C158.276 661.07 158.4 660.902 158.509 660.724C158.529 660.697 158.546 660.666 158.559 660.634C158.634 660.478 158.704 660.313 158.765 660.132C158.863 659.699 158.805 659.246 158.599 658.852L158.594 658.877Z" fill="#2D2D2D"/>
<path d="M153.369 657.367C153.189 657.602 155.287 660.478 155.287 660.478C155.572 660.689 155.918 660.803 156.273 660.803C156.628 660.803 156.973 660.689 157.259 660.478C157.259 660.478 157.62 660.378 158.037 659.133L156.637 656.122C156.637 656.122 156.014 655.5 154.87 656.227C154.271 656.455 153.75 656.851 153.369 657.367Z" fill="#BABBC6"/>
<path d="M157.701 655.51C157.49 655.741 161.154 655.605 162.76 657.106C162.76 657.106 164.627 658.561 165.872 657.317C166.126 657.02 166.265 656.643 166.265 656.253C166.265 655.862 166.126 655.485 165.872 655.189C164.745 654.306 163.443 653.675 162.052 653.337C161.798 653.279 161.534 653.279 161.28 653.337C159.889 653.669 158.637 654.429 157.701 655.51Z" fill="#BABBC6"/>
<path d="M163.432 653.061C163.432 653.061 162.343 653.322 162.81 652.388L165.043 649.999C165.043 649.999 165.404 649.498 168.556 649.949C170.605 650.484 172.527 651.419 174.213 652.7C174.213 652.7 175.216 653.839 174.474 655.033C174.474 655.033 173.796 655.862 172.295 655.239C170.795 654.617 168.782 653.478 168.782 653.478C168.782 653.478 165.118 651.866 163.432 653.061Z" fill="#BABBC6"/>
<path d="M174.955 649.794C174.955 649.794 180.3 652.022 180.561 652.022C180.822 652.022 182.428 651.917 182.684 650.777C182.684 650.777 183.186 648.961 179.728 648.027L173.344 645.929C173.344 645.929 171.999 645.427 170.649 646.762L169.299 648.213L168.44 649.342C168.827 649.127 169.248 648.982 169.685 648.915C169.685 648.915 170.699 648.599 174.955 649.794Z" fill="#BABBC6"/>
<path d="M175.473 644.809C175.614 644.724 176.773 643.304 180.04 644.307L186.063 646.119C186.063 646.119 188.031 646.902 189.019 646.33C189.019 646.33 190.419 644.98 188.864 643.891C188.864 643.891 186.319 641.969 180.301 641.191C180.301 641.191 178.224 640.774 177.792 641.401L174.936 644.719C174.936 644.719 174.655 645.326 175.473 644.809Z" fill="#BABBC6"/>
<path d="M193.225 641.021C193.225 641.021 192.457 638.135 193.642 638.511C193.953 638.616 194.369 637.472 196.151 639.756C196.151 639.756 199.579 647.435 200.513 655.53C200.718 655.43 201.24 664.664 200.824 666.531C200.809 668.248 200.344 669.93 199.474 671.41C199.474 671.41 194.806 677.934 188.578 679.505C188.578 679.505 186.5 678.572 187.122 677.222C187.122 677.222 196.257 676.183 199.268 669.437C199.268 669.437 200.824 662.797 196.568 650.652C196.543 650.672 193.325 640.604 193.225 641.021Z" fill="#BABBC6"/>
<path d="M285.24 474.117C283.92 474.117 273.897 475.437 267.569 474.644C267.569 474.644 261.767 474.117 259.398 472.27C259.398 472.27 254.911 469.896 249.902 470.689H248.055C248.055 470.689 246.474 477.545 248.055 492.31L247.794 515.784C247.794 515.784 247.528 521.846 249.902 538.725L254.65 553.49C255.538 548.995 255.173 544.342 253.596 540.04C253.596 540.04 254.65 538.725 256.231 534.765C256.231 534.765 261.752 522.9 269.415 512.883C269.415 512.883 277.948 504.531 285.591 500.837L285.24 474.117Z" fill="white"/>
<path d="M245.597 557.124C245.597 557.124 249.728 557.475 251.836 556.331C253.075 555.658 254.063 554.601 254.651 553.32L250.741 541.154C250.174 539.389 249.784 537.571 249.577 535.729C249.11 531.588 248.292 523.749 248.071 517.982L248.423 496.712L248.513 493.108L247.81 482.569L248.162 472.988L248.071 470.529C248.071 470.529 244.909 469.56 240.162 470.529L238.315 470.97L238.054 484.24L238.666 498.479C238.966 504.104 238.879 509.744 238.405 515.357C238.405 515.357 237.702 527.839 238.315 529.159C239.648 538.732 242.092 548.117 245.597 557.124Z" fill="#CFD1E2"/>
<path d="M264.492 492.662C264.492 492.662 272.231 492.577 272.141 484.667C272.051 476.758 261.682 478.8 261.682 478.8C261.682 478.8 256.055 478.625 257.285 487.066C257.285 487.041 258.69 492.577 264.492 492.662Z" fill="#CFD1E2"/>
<path d="M261.767 487.654L264.231 487.036L266.339 489.41L266.078 486.866L268.803 485.019L265.988 484.316L265.812 481.591L264.055 484.05L261.506 483.438L263.087 485.546L261.767 487.654Z" fill="#575ED3"/>
<path d="M263.814 508.537C264.09 508.819 264.287 509.169 264.388 509.55C264.488 509.932 264.488 510.333 264.387 510.715C264.285 511.065 264.056 511.364 263.744 511.553C263.634 511.623 263.511 511.671 263.383 511.694C263.331 511.777 263.269 511.853 263.197 511.92C263.066 512.052 262.909 512.156 262.737 512.227C262.564 512.298 262.38 512.333 262.193 512.331C261.81 512.321 261.436 512.21 261.109 512.01C260.787 511.812 260.517 511.54 260.321 511.217C260.128 510.886 260.021 510.511 260.01 510.128C260.003 509.747 260.098 509.371 260.286 509.039C260.47 508.721 260.726 508.451 261.034 508.251C261.089 508.206 261.15 508.169 261.215 508.14C261.374 508.055 261.542 507.987 261.717 507.94C261.902 507.896 262.093 507.876 262.284 507.879C262.474 507.883 262.663 507.911 262.846 507.965C263.211 508.073 263.543 508.27 263.814 508.537Z" fill="#2D2D2D"/>
<path d="M267.504 502.574C267.701 502.64 267.888 502.731 268.061 502.845C268.188 502.931 268.309 503.027 268.422 503.131C268.531 503.248 268.632 503.372 268.723 503.503C268.833 503.671 268.919 503.854 268.979 504.045C269.046 504.239 269.082 504.442 269.085 504.647C269.092 504.851 269.063 505.055 268.999 505.249C268.958 505.427 268.871 505.591 268.748 505.726C268.652 505.88 268.515 506.005 268.352 506.088C268.203 506.187 268.029 506.244 267.85 506.253C267.666 506.298 267.473 506.289 267.293 506.228H267.233H267.117C266.539 506.22 265.985 505.99 265.572 505.586C265.295 505.322 265.089 504.992 264.974 504.627C264.96 504.594 264.949 504.561 264.939 504.527C264.908 504.374 264.886 504.22 264.874 504.065C264.871 504.03 264.871 503.995 264.874 503.96C264.885 503.791 264.906 503.623 264.939 503.458L265.08 503.121C265.166 502.96 265.292 502.824 265.446 502.725C265.532 502.64 265.637 502.578 265.752 502.544C265.92 502.46 266.106 502.418 266.294 502.424C266.612 502.401 266.931 502.422 267.243 502.484C267.333 502.506 267.42 502.536 267.504 502.574Z" fill="#2D2D2D"/>
<path d="M273.351 497.657C273.648 497.727 273.92 497.88 274.134 498.098C274.28 498.238 274.392 498.41 274.46 498.6C274.553 498.792 274.597 499.004 274.591 499.218C274.583 499.373 274.563 499.527 274.53 499.679V499.78C274.466 500.002 274.366 500.212 274.234 500.402C274.135 500.546 274.024 500.682 273.903 500.809C273.774 500.925 273.636 501.033 273.491 501.13C273.294 501.26 273.077 501.36 272.849 501.426L272.653 501.471C272.471 501.507 272.287 501.526 272.101 501.526C271.726 501.517 271.359 501.421 271.027 501.245C270.867 501.159 270.731 501.035 270.631 500.884C270.511 500.742 270.424 500.575 270.376 500.395C270.329 500.216 270.321 500.028 270.355 499.845C270.365 499.69 270.41 499.539 270.485 499.403C270.483 499.264 270.501 499.125 270.54 498.992C270.587 498.813 270.664 498.643 270.766 498.49C270.931 498.24 271.147 498.028 271.399 497.867C271.553 497.767 271.723 497.691 271.9 497.642H272.031C272.185 497.612 272.341 497.592 272.498 497.581C272.593 497.576 272.688 497.576 272.784 497.581C272.959 497.601 273.16 497.622 273.351 497.657Z" fill="#2D2D2D"/>
<path d="M278.546 493.179C278.683 493.187 278.819 493.206 278.953 493.234C279.122 493.273 279.283 493.341 279.429 493.435C279.549 493.513 279.664 493.601 279.771 493.696L279.846 493.776C279.963 493.904 280.064 494.045 280.147 494.198C280.214 494.329 280.271 494.465 280.318 494.604C280.352 494.756 280.375 494.911 280.388 495.066C280.401 495.438 280.314 495.807 280.137 496.135C280.107 496.195 280.072 496.252 280.032 496.306C279.927 496.463 279.806 496.61 279.67 496.742C279.399 497.008 279.072 497.209 278.712 497.329C278.416 497.412 278.104 497.412 277.808 497.329C277.669 497.292 277.535 497.235 277.412 497.159C277.188 497.024 277.003 496.834 276.875 496.607C276.779 496.456 276.722 496.283 276.709 496.105C276.692 496.004 276.692 495.9 276.709 495.799C276.709 495.759 276.709 495.723 276.674 495.683C276.633 495.49 276.614 495.293 276.619 495.096C276.63 494.944 276.652 494.793 276.684 494.644C276.73 494.498 276.787 494.355 276.855 494.218C276.936 494.061 277.037 493.916 277.156 493.786C277.175 493.76 277.197 493.737 277.221 493.716L277.266 493.681C277.367 493.6 277.472 493.51 277.578 493.44C277.732 493.343 277.902 493.273 278.079 493.234C278.226 493.201 278.376 493.182 278.526 493.179H278.546Z" fill="#2D2D2D"/>
<path d="M259.68 515.046C259.826 515.092 259.969 515.149 260.106 515.217L260.212 515.277C260.323 515.353 260.43 515.435 260.533 515.523L260.583 515.563C260.612 515.589 260.639 515.618 260.663 515.648C260.768 515.765 260.862 515.891 260.944 516.025L260.974 516.075C261.03 516.195 261.085 516.326 261.13 516.451C261.145 516.49 261.155 516.531 261.16 516.572C261.188 516.711 261.207 516.852 261.215 516.993C261.22 517.011 261.22 517.03 261.215 517.049C261.218 517.094 261.218 517.139 261.215 517.184C261.234 517.273 261.246 517.364 261.25 517.455C261.25 517.581 261.215 517.706 261.2 517.832C261.136 518.065 261.012 518.278 260.839 518.449C260.819 518.477 260.796 518.503 260.769 518.524L260.734 518.559C260.628 518.64 260.523 518.725 260.412 518.8L260.327 518.855H260.282C260.156 518.911 260.031 518.966 259.905 519.011L259.805 519.041C259.651 519.071 259.495 519.091 259.338 519.101C259.148 519.107 258.957 519.091 258.771 519.051C258.706 519.04 258.642 519.022 258.58 518.996C258.439 518.947 258.302 518.889 258.169 518.82C258.042 518.738 257.922 518.648 257.808 518.549L257.732 518.479L257.702 518.439C257.615 518.338 257.533 518.232 257.456 518.123L257.411 518.042C257.356 517.927 257.301 517.796 257.255 517.676V517.626C257.253 517.596 257.253 517.565 257.255 517.535C257.226 517.383 257.205 517.229 257.195 517.074C257.193 517.042 257.193 517.01 257.195 516.978C257.207 516.823 257.229 516.669 257.26 516.517C257.259 516.488 257.259 516.46 257.26 516.431C257.263 516.415 257.263 516.398 257.26 516.381C257.311 516.256 257.361 516.13 257.421 516.01C257.432 515.984 257.446 515.958 257.461 515.934C257.544 515.81 257.635 515.691 257.732 515.578C257.855 515.448 257.996 515.335 258.149 515.242L258.229 515.192C258.364 515.125 258.503 515.068 258.646 515.021C258.833 514.967 259.028 514.945 259.223 514.956L259.634 515.011L259.68 515.046Z" fill="#2D2D2D"/>
<path d="M258.535 522.766L258.75 523.047C258.849 523.197 258.908 523.37 258.921 523.549C258.951 523.671 258.951 523.798 258.921 523.92C258.913 524.028 258.889 524.135 258.851 524.236L258.816 524.492C258.753 524.728 258.628 524.943 258.454 525.115L258.399 525.155C258.369 525.215 258.344 525.275 258.314 525.33C258.283 525.384 258.25 525.436 258.213 525.486C258.12 525.631 258.009 525.765 257.882 525.882C257.674 526.078 257.423 526.222 257.149 526.304C256.858 526.382 256.552 526.382 256.261 526.304C256.113 526.266 255.971 526.206 255.839 526.128C255.601 525.987 255.401 525.789 255.257 525.551C255.092 525.273 255 524.957 254.991 524.633C254.992 524.464 255.01 524.296 255.046 524.131C255.088 523.97 255.148 523.815 255.227 523.669C255.225 523.651 255.225 523.632 255.227 523.614C255.302 523.501 255.384 523.394 255.473 523.293C255.591 523.165 255.728 523.057 255.88 522.971L255.99 522.921L256.181 522.67C256.353 522.498 256.568 522.373 256.803 522.309H256.858C256.923 522.309 256.994 522.309 257.064 522.279H257.27C257.423 522.278 257.577 522.294 257.727 522.329C258.028 522.404 258.307 522.554 258.535 522.766Z" fill="#2D2D2D"/>
<path d="M255.525 529.747C255.589 529.792 255.648 529.844 255.7 529.902C255.844 530.008 255.964 530.143 256.052 530.299L256.082 530.344C256.182 530.543 256.234 530.763 256.232 530.986C256.242 531.214 256.19 531.439 256.082 531.64C255.974 531.84 255.815 532.008 255.62 532.126C255.622 532.159 255.622 532.193 255.62 532.226C255.609 532.405 255.552 532.578 255.454 532.728C255.368 532.886 255.244 533.021 255.093 533.119C254.96 533.245 254.795 533.332 254.616 533.37L254.24 533.42C253.991 533.423 253.746 533.357 253.532 533.23L253.246 533.014C253.077 532.839 252.953 532.625 252.885 532.392C252.844 532.217 252.821 532.039 252.814 531.86V531.769C252.814 531.624 252.85 531.473 252.875 531.323C252.883 531.265 252.897 531.208 252.915 531.152C252.96 531.017 253.025 530.881 253.08 530.75L253.126 530.66C253.216 530.513 253.319 530.374 253.432 530.244C253.468 530.197 253.508 530.153 253.552 530.113C253.679 529.995 253.817 529.889 253.964 529.797L254.044 529.757C254.175 529.692 254.315 529.636 254.451 529.581C254.635 529.534 254.828 529.534 255.013 529.581C255.195 529.59 255.372 529.648 255.525 529.747Z" fill="#2D2D2D"/>
<path d="M256.804 534.153C256.608 534.303 254.164 532.526 254.164 532.526C253.986 532.284 253.891 531.991 253.891 531.691C253.891 531.39 253.986 531.098 254.164 530.855C254.164 530.855 254.254 530.549 255.308 530.198L257.858 531.382C257.858 531.382 258.385 531.884 257.772 532.888C257.575 533.392 257.239 533.831 256.804 534.153Z" fill="#BABBC6"/>
<path d="M258.374 530.494C258.178 530.67 258.298 527.568 257.024 526.208C257.024 526.208 255.789 524.627 256.848 523.568C257.099 523.354 257.419 523.236 257.749 523.236C258.079 523.236 258.398 523.354 258.65 523.568C259.396 524.525 259.93 525.63 260.216 526.81C260.266 527.023 260.266 527.245 260.216 527.457C259.934 528.637 259.29 529.699 258.374 530.494Z" fill="#BABBC6"/>
<path d="M260.478 525.627C260.478 525.627 260.257 526.55 261.05 526.128L263.057 524.241C263.057 524.241 263.499 523.93 263.103 521.23C262.649 519.496 261.858 517.869 260.774 516.442C260.505 516.211 260.172 516.066 259.819 516.027C259.466 515.987 259.11 516.055 258.796 516.221C258.796 516.221 258.094 516.793 258.621 518.068C259.148 519.343 260.126 521.079 260.126 521.079C260.126 521.079 261.482 524.221 260.478 525.627Z" fill="#BABBC6"/>
<path d="M263.218 515.869C263.218 515.869 261.331 511.352 261.331 511.121C261.331 510.891 261.416 509.54 262.385 509.32C262.385 509.32 263.926 508.883 264.714 511.829L266.47 517.234C266.584 517.643 266.578 518.076 266.453 518.481C266.329 518.887 266.091 519.248 265.768 519.523L264.538 520.667L263.585 521.39C263.768 521.063 263.89 520.706 263.946 520.336C263.946 520.336 264.232 519.453 263.218 515.869Z" fill="#BABBC6"/>
<path d="M267.439 515.438C267.514 515.322 268.713 514.344 267.88 511.573L266.339 506.474C266.339 506.474 265.682 504.803 266.164 503.965C266.164 503.965 267.308 502.775 268.232 504.095C268.232 504.095 269.858 506.248 270.515 511.347C270.515 511.347 270.866 513.104 270.339 513.455L267.529 515.874C267.529 515.874 267.002 516.135 267.439 515.438Z" fill="#BABBC6"/>
<path d="M272.889 509.545C272.959 509.435 274.164 508.541 273.326 505.992L271.79 501.314C271.79 501.314 271.127 499.783 271.614 499.015C271.614 499.015 272.753 497.926 273.677 499.136C273.677 499.136 275.303 501.113 275.966 505.791C275.966 505.791 276.317 507.407 275.79 507.728L272.974 509.947C272.974 509.947 272.447 510.187 272.889 509.545Z" fill="#BABBC6"/>
<path d="M186.883 350.598C185.633 355.582 173.492 546.224 173.492 546.224L174.24 628.468C174.24 628.468 191.982 623.56 208.489 624.629C223.646 625.632 237.749 630.927 237.759 628.468C237.759 624.734 234.517 542.485 234.517 542.485L249.463 348.199L186.883 350.598Z" fill="#FE94BF"/>
<path d="M285.026 350.598C284.128 360.505 364.57 397.334 386.99 447.151C409.409 496.969 279.049 516.065 279.049 516.065C279.322 504.831 277.351 493.655 273.252 483.192L267.425 468.321L342.151 450.474C342.151 450.474 263.28 425.148 243.35 391.522L246.607 347.306L285.026 350.598Z" fill="#FE94BF"/>
<path d="M243.916 127.238C245.025 127.238 264.93 123.921 282.621 104.016C287.931 98.0485 290.847 90.1839 292.333 82.1036C297.065 56.3869 286.466 30.4092 266.079 14.0477C255.79 5.77657 242.912 0.757696 228.447 0.0701108C193.611 -1.58612 170.941 26.5999 170.941 26.5999C170.941 26.5999 143.297 56.4571 168.733 102.887C194.169 149.316 243.916 127.238 243.916 127.238Z" fill="#2A2A39"/>
<path d="M216.835 138.852L217.944 157.653L243.375 156.543L241.166 131.113L216.835 138.852Z" fill="#DDA680"/>
<path d="M215.751 139.956C215.751 141.065 214.551 146.591 230.185 145.477C230.185 145.477 241.011 142.159 238.602 134.435L215.751 139.956Z" fill="#51321D"/>
<path d="M214.628 142.17C214.628 142.17 236.741 144.383 248.907 130.004C248.907 130.004 256.646 120.052 251.12 103.464C251.12 103.464 258.859 103.464 257.755 91.3036C257.755 91.3036 252.235 83.5595 247.803 89.0903L241.168 90.1944C241.168 90.1944 242.272 66.9721 223.471 60.3372C223.471 60.3372 213.519 57.0197 203.567 59.233C203.567 59.233 190.297 63.6547 185.875 75.8204V113.427C185.875 113.427 185.875 132.227 195.827 136.649C195.827 136.639 204.676 144.383 214.628 142.17Z" fill="#DDA680"/>
<path d="M229.552 64.7439C219.474 64.7439 211.294 73.4265 211.294 84.1117C211.298 85.0372 211.367 85.9612 211.499 86.8771H204.343C202.958 83.8848 200.74 81.3548 197.955 79.5897C195.17 77.8247 191.936 76.8995 188.638 76.9247C179.173 76.9247 171.499 84.3526 171.499 93.487C171.499 102.621 179.173 110.074 188.638 110.074C198.104 110.074 205.773 102.672 205.773 93.5121C205.773 92.3972 205.657 91.2855 205.427 90.1946H212.237C214.641 97.8986 221.477 103.464 229.547 103.464C239.625 103.464 247.796 94.8019 247.796 84.1117C247.796 73.4215 239.63 64.7439 229.552 64.7439Z" fill="white"/>
<path d="M202.461 123.368C202.461 123.368 206.33 130.555 212.965 130.555C219.6 130.555 226.235 122.816 226.235 122.816L219.4 123.71C215.491 124.217 211.537 124.276 207.615 123.885L202.461 123.368Z" fill="#3C3B50"/>
<path d="M205.669 112.789C205.979 112.96 206.26 113.178 206.502 113.437C206.789 113.707 207.114 113.936 207.466 114.114C208.268 114.525 209.142 114.776 210.04 114.852C211.661 114.952 213.107 113.913 214.116 112.739C214.202 112.642 214.253 112.518 214.257 112.388C214.262 112.258 214.222 112.131 214.142 112.028C214.063 111.925 213.95 111.853 213.824 111.824C213.697 111.795 213.564 111.812 213.448 111.871C212.867 112.188 212.228 112.384 211.569 112.448C210.91 112.512 210.245 112.442 209.614 112.242C209.312 112.15 209.021 112.025 208.745 111.871C208.43 111.658 208.094 111.478 207.742 111.334C206.939 111.063 206.131 111.434 205.433 111.81C205.345 111.868 205.274 111.95 205.23 112.046C205.186 112.142 205.17 112.248 205.183 112.353C205.197 112.458 205.24 112.557 205.307 112.638C205.374 112.72 205.463 112.781 205.564 112.814C206.592 113.286 207.646 113.702 208.72 114.059C209.221 114.241 209.754 114.316 210.286 114.28C210.817 114.243 211.336 114.096 211.807 113.848C211.933 113.774 212.025 113.653 212.063 113.512C212.1 113.37 212.079 113.219 212.005 113.093C211.931 112.966 211.81 112.874 211.669 112.837C211.527 112.8 211.376 112.821 211.25 112.895C210.447 113.371 209.508 113.171 208.68 112.895C207.722 112.563 206.788 112.152 205.855 111.755L205.99 112.759C206.306 112.554 206.659 112.413 207.029 112.342C207.372 112.346 207.703 112.467 207.968 112.684C208.559 113.048 209.209 113.306 209.89 113.447C211.293 113.727 212.751 113.503 214.005 112.814L213.333 111.946C212.469 112.95 211.25 113.923 209.82 113.718C209.056 113.614 208.322 113.356 207.661 112.96C207.393 112.767 207.14 112.554 206.904 112.322C206.619 112.067 206.293 111.862 205.94 111.715C205.87 111.695 205.797 111.69 205.725 111.699C205.653 111.707 205.583 111.73 205.52 111.766C205.457 111.802 205.402 111.85 205.358 111.908C205.313 111.966 205.281 112.031 205.262 112.102C205.227 112.243 205.247 112.392 205.319 112.518C205.391 112.645 205.509 112.738 205.649 112.779L205.669 112.789Z" fill="#3C3B50"/>
<path d="M207.506 112.236C208.921 111.473 209.162 109.807 209.277 108.357C209.333 107.714 208.369 107.629 208.193 108.206C207.817 109.431 207.415 110.716 206.381 111.554C205.945 111.905 206.417 112.638 206.918 112.477C207.41 112.336 207.895 112.168 208.369 111.975C208.788 111.772 209.109 111.411 209.262 110.972C209.606 110.047 209.708 109.05 209.558 108.076C209.558 107.929 209.5 107.789 209.397 107.685C209.293 107.582 209.153 107.524 209.006 107.524C208.86 107.524 208.719 107.582 208.616 107.685C208.512 107.789 208.454 107.929 208.454 108.076C208.248 110.214 208.645 112.542 210.301 114.048C210.828 114.525 211.611 113.747 211.084 113.265C209.634 111.95 209.383 109.933 209.578 108.076H208.474C208.588 108.865 208.532 109.669 208.309 110.434C208.281 110.565 208.22 110.686 208.132 110.786C208.044 110.886 207.932 110.962 207.807 111.007C207.425 111.142 207.034 111.253 206.652 111.378L207.189 112.302C208.364 111.353 208.856 109.857 209.282 108.467L208.198 108.322C208.113 109.365 208.008 110.685 206.969 111.248C206.346 111.589 206.903 112.542 207.531 112.201L207.506 112.236Z" fill="#3C3B50"/>
<path d="M185.958 97.2054C189.88 97.2672 193.739 96.2142 197.085 94.169C198.295 93.4312 197.186 91.514 195.971 92.2618C192.954 94.1112 189.471 95.0586 185.933 94.9921C184.508 94.9921 184.508 97.1803 185.933 97.2054H185.958Z" fill="#3C3B50"/>
<path d="M222.367 91.4739C226.74 91.9619 231.162 91.7689 235.476 90.9018C236.871 90.6257 236.279 88.4927 234.889 88.7687C230.766 89.5823 226.542 89.7516 222.367 89.2706C222.074 89.2733 221.794 89.3911 221.587 89.5987C221.381 89.8063 221.264 90.0869 221.263 90.3798C221.269 90.6706 221.387 90.9478 221.593 91.1535C221.799 91.3592 222.076 91.4776 222.367 91.4839V91.4739Z" fill="#3C3B50"/>
<path d="M202.462 174.24C202.462 174.24 207.983 156.543 206.884 158.757C205.784 160.97 206.884 155.439 214.628 155.439L248.907 154.335C248.907 154.335 263.281 155.439 263.281 167.605L264.39 175.344C264.39 175.344 289.82 180.865 292.034 206.305C292.872 215.927 289.063 245.177 289.845 275.696C290.915 317.232 304.4 357.062 304.4 357.062C304.4 357.062 274.222 350.899 237.895 351.823C199.18 353.328 168.564 361.429 168.564 361.429L178.743 319.2C180.58 304.336 181.227 289.349 180.68 274.381L178.145 205.201C178.145 205.201 183.661 176.448 202.462 174.24Z" fill="#575ED3"/>
<path d="M179.288 312.31C179.288 312.31 195.685 309.173 201.216 305.855L199.554 294.131L179.288 299.04V312.31Z" fill="#2D2D2D"/>
<path d="M221.03 292.098C221.03 292.098 226.325 289.764 231.926 281.824C231.926 281.824 228.815 276.841 228.348 276.685C227.881 276.529 222.119 274.351 222.119 274.351L221.03 292.098Z" fill="#9B6B4B"/>
<path d="M250.096 291.391C250.096 291.391 244.806 289.052 239.2 281.112C239.2 281.112 242.317 276.133 242.784 275.978C243.25 275.822 249.007 273.644 249.007 273.644L250.096 291.391Z" fill="#9B6B4B"/>
<path d="M240.975 234.607H230.405C226.771 234.607 223.825 237.553 223.825 241.187V275.782C223.825 279.416 226.771 282.362 230.405 282.362H240.975C244.609 282.362 247.554 279.416 247.554 275.782V241.187C247.554 237.553 244.609 234.607 240.975 234.607Z" fill="white"/>
<path d="M239.994 279.917H231.462C230.704 279.911 229.955 279.755 229.258 279.459C228.56 279.162 227.928 278.732 227.397 278.191C226.866 277.65 226.447 277.01 226.164 276.307C225.88 275.605 225.738 274.853 225.745 274.095V242.065C225.738 241.307 225.88 240.555 226.164 239.853C226.447 239.15 226.866 238.51 227.397 237.969C227.928 237.428 228.56 236.998 229.258 236.702C229.955 236.405 230.704 236.249 231.462 236.243H239.994C240.752 236.249 241.501 236.405 242.198 236.702C242.896 236.998 243.528 237.428 244.059 237.969C244.59 238.51 245.009 239.15 245.292 239.853C245.576 240.555 245.718 241.307 245.71 242.065V274.095C245.718 274.853 245.576 275.605 245.292 276.307C245.009 277.01 244.59 277.65 244.059 278.191C243.528 278.732 242.896 279.162 242.198 279.459C241.501 279.755 240.752 279.911 239.994 279.917Z" fill="#D9D9DB"/>
<path d="M233.835 237.94C233.472 237.913 233.124 237.783 232.833 237.564C232.542 237.345 232.32 237.047 232.194 236.705L231.782 235.822H240.229L239.873 236.645C239.751 237 239.527 237.312 239.23 237.542C238.933 237.772 238.576 237.91 238.201 237.94H233.835Z" fill="white"/>
<path d="M236.032 237.122C236.232 237.122 236.394 236.96 236.394 236.761C236.394 236.561 236.232 236.399 236.032 236.399C235.833 236.399 235.671 236.561 235.671 236.761C235.671 236.96 235.833 237.122 236.032 237.122Z" fill="#ACACAF"/>
<path d="M196.96 280.314C196.96 280.314 202.526 285.092 200.699 303.185L196.438 304.39L191.56 281.057L196.96 280.314Z" fill="#2D2D2D"/>
<path d="M273.312 280.59C273.885 280.48 266.788 282.844 269.573 302.774L272.645 302.312L276.585 289.935L273.312 280.59Z" fill="#2D2D2D"/>
<path d="M270.282 300.173L268.706 305.352C268.706 305.352 273.886 308.73 293.359 311.094L292.455 305.352L270.282 300.173Z" fill="#2D2D2D"/>
<path d="M254.456 292.861C254.456 292.861 246.762 291.887 247.149 286.532C247.149 286.316 247.445 259.365 247.445 259.365C247.445 259.365 247.345 243.099 247.345 243.39C247.345 243.681 247.249 241.739 248.71 241.739C250.17 241.739 250.461 244.75 250.461 244.75C250.461 244.75 250.818 249.553 251.144 252.931C251.269 254.266 254.065 264.911 254.065 264.911C254.065 264.911 256.303 268.319 256.89 271.531C256.976 272.033 257.959 282.437 257.959 282.437L280.163 283.506L279.094 299.481L254.456 292.861Z" fill="#DDA680"/>
<path d="M216.815 293.518C216.815 293.518 224.509 292.545 224.118 287.19C224.118 286.974 223.826 260.017 223.826 260.017C223.826 260.017 223.927 243.756 223.927 244.047C223.927 244.338 224.022 242.391 222.562 242.391C221.101 242.391 220.81 245.402 220.81 245.402C220.81 245.402 220.454 250.206 220.128 253.583C219.997 254.918 217.207 265.558 217.207 265.558C217.207 265.558 214.968 268.971 214.381 272.183C214.296 272.66 213.312 283.089 213.312 283.089L191.108 284.158L192.172 300.128L216.815 293.518Z" fill="#DDA680"/>
<path d="M193.653 177.568C186.371 178.316 157.472 181.011 131.69 236.941C102.937 299.311 146.049 308.064 148.277 309.163C150.506 310.262 175.921 311.351 200.8 303.14C200.8 303.14 198.361 300.289 197.121 292.184C195.681 282.733 197.061 280.269 197.061 280.269L174.26 283.441C174.26 283.441 158.521 285.579 157.698 272.224C157.539 268.585 158.446 264.98 160.308 261.85C163.901 255.606 179.088 231.174 179.088 231.174L200.132 219.992C200.132 219.992 195.876 207.311 200.132 198.604C212.923 199.795 189.542 180.9 193.653 177.568Z" fill="#575ED3"/>
<path d="M275.104 180.734C277.317 181.793 309.94 178.079 338.688 238.572C367.436 299.064 324.314 307.546 322.101 308.61C319.887 309.674 294.457 310.733 269.573 302.773L272.675 292.148C273.763 288.399 273.981 284.451 273.312 280.605L296.113 283.671C296.113 283.671 311.857 285.744 312.675 272.791C312.831 269.245 311.919 265.734 310.055 262.713C305.443 254.938 293.077 227.796 286.176 231.671C276.775 236.951 281.754 236.976 281.754 236.976L275.104 180.734Z" fill="#575ED3"/>
<path fill-rule="evenodd" clip-rule="evenodd" d="M238.993 260.625C238.861 260.494 238.758 260.337 238.689 260.164C238.62 259.992 238.587 259.807 238.591 259.621C238.591 259.254 238.737 258.901 238.997 258.642C239.257 258.382 239.609 258.236 239.976 258.236C240.344 258.236 240.696 258.382 240.956 258.642C241.216 258.901 241.362 259.254 241.362 259.621C241.366 259.806 241.333 259.991 241.265 260.163C241.197 260.336 241.095 260.493 240.965 260.625C240.7 260.879 240.346 261.021 239.979 261.021C239.611 261.021 239.258 260.879 238.993 260.625Z" fill="#2D2D2D"/>
<path fill-rule="evenodd" clip-rule="evenodd" d="M237.768 253.713C237.449 253.22 236.992 252.831 236.454 252.594C235.821 252.319 235.136 252.185 234.446 252.203H230.566V260.91H232.965V258.632H234.446C235.136 258.649 235.821 258.515 236.454 258.24C236.991 258.005 237.448 257.618 237.768 257.126C238.083 256.615 238.241 256.024 238.225 255.425C238.241 254.822 238.082 254.228 237.768 253.713ZM235.425 256.363C235.105 256.607 234.706 256.724 234.305 256.694H232.97V254.145H234.305C234.707 254.114 235.106 254.234 235.425 254.481C235.666 254.735 235.801 255.072 235.801 255.422C235.801 255.772 235.666 256.109 235.425 256.363Z" fill="#2D2D2D"/>
<defs>
<linearGradient id="paint0_linear" x1="0" y1="394.975" x2="496" y2="394.975" gradientUnits="userSpaceOnUse">
<stop stop-color="#E7E8F7"/>
<stop offset="1" stop-color="#E6E9F4"/>
</linearGradient>
<linearGradient id="paint1_linear" x1="3868.19" y1="8103.3" x2="3902.43" y2="8103.3" gradientUnits="userSpaceOnUse">
<stop stop-color="#E7E8F7"/>
<stop offset="1" stop-color="#E6E9F4"/>
</linearGradient>
<linearGradient id="paint2_linear" x1="3955.95" y1="8103.3" x2="3990.2" y2="8103.3" gradientUnits="userSpaceOnUse">
<stop stop-color="#E7E8F7"/>
<stop offset="1" stop-color="#E6E9F4"/>
</linearGradient>
<linearGradient id="paint3_linear" x1="4055.53" y1="8103.3" x2="4089.77" y2="8103.3" gradientUnits="userSpaceOnUse">
<stop stop-color="#E7E8F7"/>
<stop offset="1" stop-color="#E6E9F4"/>
</linearGradient>
</defs>
</svg>
