<svg width="101" height="77" viewBox="0 0 101 77" fill="none" xmlns="http://www.w3.org/2000/svg">
<path d="M0.312465 34.9434L17.3812 72.2219C17.7724 73.0691 18.483 73.7271 19.3578 74.0522C20.2325 74.3773 21.2004 74.3431 22.05 73.9571L24.7598 72.7191L87.5064 43.9914C88.3539 43.6014 89.0126 42.8916 89.3384 42.0173C89.6642 41.143 89.6305 40.1753 89.2448 39.3258L74.1616 6.40007L72.186 2.05059C71.7941 1.20396 71.0834 0.54653 70.2089 0.221518C69.3344 -0.103494 68.3669 -0.0697471 67.5172 0.315403L2.05753 30.2778C1.20998 30.668 0.550968 31.3773 0.224099 32.2512C-0.10277 33.1251 -0.0710075 34.0928 0.312465 34.9434Z" fill="#FF80A1"/>
<path d="M15.6506 68.4418L87.512 35.5411L79.1017 17.1716L7.24037 50.0723L15.6506 68.4418Z" fill="white"/>
<path d="M33.7238 53.0342L79.1356 32.243L76.1257 25.6688L30.7139 46.46L33.7238 53.0342Z" fill="#407BFF"/>
<path opacity="0.8" d="M33.7238 53.0342L79.1356 32.243L76.1257 25.6688L30.7139 46.46L33.7238 53.0342Z" fill="white"/>
<g style="mix-blend-mode:multiply" opacity="0.5">
<path d="M10.0716 35.4107L24.7597 72.7057L87.5063 43.978C88.3538 43.588 89.0125 42.8783 89.3383 42.004C89.6641 41.1297 89.6304 40.162 89.2447 39.3124L74.1615 6.38672L12.0603 30.8439C11.1928 31.1881 10.4968 31.8616 10.1242 32.7172C9.75158 33.5729 9.73266 34.5412 10.0716 35.4107Z" fill="#24263B"/>
</g>
<path d="M14.4409 30.9725L82.3667 7.11786C83.2479 6.81119 84.2147 6.8659 85.0556 7.27003C85.8966 7.67417 86.5434 8.39485 86.8545 9.2745L100.44 47.9589C100.747 48.8401 100.692 49.807 100.289 50.6484C99.8855 51.4899 99.1656 52.1375 98.2863 52.45L30.3605 76.3047C29.4788 76.6105 28.512 76.5555 27.6707 76.1515C26.8295 75.7475 26.182 75.0274 25.8695 74.148L12.2843 35.4636C11.9775 34.582 12.0321 33.6147 12.4362 32.7732C12.8403 31.9317 13.5611 31.2843 14.4409 30.9725Z" fill="#FFB3C7"/>
<path d="M23.3938 67.0938L97.9642 40.9065L92.0545 24.0781L17.4841 50.2654L23.3938 67.0938Z" fill="white"/>
<path d="M68.5569 23.7048L83.9718 18.2915L83.1285 15.8901L67.7136 21.3034L68.5569 23.7048Z" fill="white"/>
<path d="M81.5297 50.8944L93.897 46.5513L93.4563 45.2962L81.089 49.6393L81.5297 50.8944Z" fill="#914A63"/>
<path d="M78.8027 54.5502L94.7395 48.9536L94.2988 47.6986L78.362 53.2951L78.8027 54.5502Z" fill="#914A63"/>
<path d="M80.0783 42.9082L89.3831 39.6419C89.8736 39.4673 90.2754 39.1062 90.5011 38.637C90.7267 38.1678 90.7581 37.6285 90.5882 37.1363C90.4136 36.6458 90.0525 36.244 89.5833 36.0183C89.1141 35.7927 88.5747 35.7613 88.0826 35.9312L78.7745 39.2007C78.2839 39.3753 77.8822 39.7365 77.6565 40.2057C77.4308 40.6749 77.3995 41.2142 77.5694 41.7064C77.7446 42.1971 78.1065 42.5987 78.5764 42.8238C79.0463 43.0488 79.5862 43.0792 80.0783 42.9082Z" fill="#FF80A1"/>
<path d="M64.139 48.5057L73.4471 45.2362C73.9339 45.0609 74.3325 44.7016 74.5572 44.2355C74.782 43.7694 74.8149 43.2338 74.6489 42.7437C74.4736 42.2538 74.1122 41.8528 73.6431 41.6278C73.174 41.4027 72.635 41.3719 72.1432 41.5419L62.8384 44.8114C62.3479 44.986 61.9461 45.3472 61.7205 45.8164C61.4948 46.2856 61.4635 46.8249 61.6333 47.3171C61.8112 47.8046 62.1737 48.2025 62.6425 48.425C63.1114 48.6474 63.6489 48.6764 64.139 48.5057Z" fill="#FF80A1"/>
<path d="M48.2095 54.1029L57.5176 50.8333C58.0032 50.6567 58.4003 50.2969 58.6238 49.831C58.8472 49.365 58.8792 48.8301 58.7128 48.3409C58.5376 47.8509 58.1762 47.4499 57.707 47.2249C57.2379 46.9999 56.6989 46.9691 56.2072 47.1391L46.8925 50.3954C46.4026 50.5707 46.0016 50.9321 45.7766 51.4012C45.5516 51.8704 45.5207 52.4093 45.6907 52.9011C45.8658 53.3941 46.2294 53.7975 46.7016 54.0228C47.1738 54.2481 47.7161 54.2769 48.2095 54.1029Z" fill="#FF80A1"/>
<g opacity="0.8">
<path d="M32.2636 59.7004L41.5717 56.4309C42.0591 56.2562 42.4585 55.8972 42.6839 55.431C42.9093 54.9649 42.9426 54.4289 42.7768 53.9384C42.6016 53.4485 42.2402 53.0475 41.771 52.8225C41.3019 52.5974 40.7629 52.5666 40.2712 52.7366L30.9631 56.0061C30.4725 56.1807 30.0708 56.5419 29.8451 57.0111C29.6194 57.4803 29.5881 58.0196 29.758 58.5118C29.9358 58.9993 30.2983 59.3972 30.7672 59.6197C31.236 59.8421 31.7736 59.8711 32.2636 59.7004Z" fill="#FF80A1"/>
</g>
<path d="M79.2499 35.419L87.5321 32.5105C88.2355 32.2635 88.6055 31.493 88.3585 30.7895L86.6326 25.8749C86.3856 25.1715 85.6151 24.8015 84.9116 25.0485L76.6295 27.957C75.926 28.204 75.556 28.9745 75.8031 29.678L77.529 34.5926C77.776 35.296 78.5465 35.666 79.2499 35.419Z" fill="#FF678E"/>
<path opacity="0.8" d="M30.8579 39.8272C29.6631 39.8275 28.5117 39.3791 27.6317 38.5709C26.7517 37.7627 26.2073 36.6535 26.1062 35.463C26.0051 34.2724 26.3546 33.0873 27.0857 32.1423C27.8168 31.1973 28.8761 30.5612 30.0539 30.36C31.2316 30.1588 32.442 30.4071 33.4454 31.0559C34.4487 31.7046 35.1719 32.7064 35.4718 33.863C35.7716 35.0196 35.6263 36.2466 35.0645 37.3011C34.5027 38.3557 33.5655 39.1608 32.4383 39.5572C31.9306 39.7361 31.3962 39.8274 30.8579 39.8272ZM30.8579 30.608C30.3522 30.609 29.8503 30.6947 29.3729 30.8615C28.2545 31.2547 27.3379 32.0759 26.8248 33.1447C26.3117 34.2135 26.2441 35.4423 26.6368 36.5609C26.909 37.3334 27.3883 38.0162 28.0223 38.5347C28.6564 39.0532 29.4207 39.3874 30.2318 39.5009C31.0429 39.6144 31.8697 39.5027 32.6216 39.1781C33.3736 38.8535 34.0219 38.3285 34.4956 37.6604C34.9693 36.9923 35.2503 36.2068 35.3078 35.3898C35.3654 34.5728 35.1972 33.7557 34.8217 33.0278C34.4463 32.2999 33.878 31.6892 33.1789 31.2624C32.4798 30.8356 31.6769 30.6093 30.8579 30.608Z" fill="white"/>
<path opacity="0.8" d="M19.6896 38.9908C19.9931 39.8498 20.5443 40.5996 21.2737 41.1455C22.0031 41.6914 22.8779 42.0089 23.7876 42.058C24.6973 42.107 25.6011 41.8854 26.385 41.4211C27.1688 40.9568 27.7975 40.2707 28.1917 39.4493C28.5858 38.628 28.7277 37.7082 28.5995 36.8062C28.4713 35.9043 28.0787 35.0605 27.4712 34.3816C26.8638 33.7026 26.0688 33.2189 25.1866 32.9914C24.3044 32.764 23.3746 32.803 22.5146 33.1037C21.9419 33.3039 21.4144 33.6152 20.9623 34.0196C20.5102 34.4241 20.1424 34.9139 19.8799 35.4608C19.6175 36.0077 19.4656 36.6011 19.4329 37.2068C19.4002 37.8126 19.4875 38.4188 19.6896 38.9908Z" fill="white"/>
</svg>
