<svg width="68" height="68" viewBox="0 0 68 68" fill="none" xmlns="http://www.w3.org/2000/svg">
<circle cx="34" cy="34" r="34" fill="#FFE6EC"/>
<path d="M47.9922 25.0796C47.9837 24.9235 47.9687 24.8006 47.9687 24.8006C47.9565 24.6989 47.8727 24.6566 47.7822 24.7055L44.2166 26.6525C44.1264 26.7018 43.9745 26.7113 43.8785 26.6738L41.9755 25.9277C41.8798 25.89 41.8035 25.7756 41.8058 25.674L41.854 23.5502C41.8563 23.4479 41.9325 23.3247 42.0227 23.2763L45.7925 21.255C45.883 21.2069 45.8891 21.1179 45.8055 21.058C45.8055 21.058 45.4013 20.7683 45.0959 20.6096C44.6687 20.3873 44.2085 20.22 43.7242 20.1178C43.3599 20.0409 42.9824 20 42.5952 20C39.6099 20 37.1898 22.4032 37.1898 25.3676C37.1898 25.653 37.2142 25.9329 37.2563 26.2062C37.2858 26.4008 37.307 26.6053 37.3044 26.8129C37.3012 27.0373 37.2702 27.2665 37.1901 27.4928C37.149 27.6086 37.0956 27.7241 37.0266 27.8373C36.9576 27.9507 36.8908 28.0299 36.8908 28.0299C36.8244 28.108 36.711 28.2312 36.6383 28.3038L27.1125 37.7479C27.0397 37.8202 26.9124 37.9291 26.8295 37.9898C26.8295 37.9898 26.7579 38.0431 26.6497 38.1042C26.4716 38.2058 26.2968 38.2715 26.1117 38.3098C25.9366 38.3461 25.7524 38.3567 25.5474 38.3492C25.4346 38.3449 25.316 38.3348 25.1892 38.3204C24.9323 38.2911 24.6713 38.2646 24.4051 38.2646C21.4201 38.2646 19 40.6677 19 43.6321C19 43.7289 19.0029 43.8251 19.0081 43.9207C19.0165 44.0771 19.0316 44.2 19.0316 44.2C19.0438 44.3017 19.1279 44.344 19.2181 44.2948L22.7837 42.3478C22.8739 42.2982 23.0258 42.2887 23.1218 42.3267L25.0248 43.0726C25.1208 43.11 25.1971 43.2244 25.1945 43.3263L25.146 45.4501C25.1437 45.5524 25.0677 45.6756 24.9772 45.724L21.2075 47.7453C21.117 47.794 21.1112 47.8824 21.1947 47.9426C21.1947 47.9426 21.599 48.2323 21.9041 48.3906C22.3316 48.613 22.7921 48.7803 23.2761 48.8825C23.64 48.9594 24.0179 49 24.4051 49C27.3904 49 29.8104 46.5968 29.8104 43.6324C29.8104 43.347 29.7861 43.0671 29.7443 42.7938C29.7144 42.5992 29.693 42.3947 29.6959 42.1871C29.6991 41.9627 29.7301 41.7338 29.8099 41.5075C29.851 41.3917 29.9047 41.2762 29.9734 41.163C30.0421 41.0493 30.1091 40.9704 30.1091 40.9704C30.1753 40.8923 30.2892 40.7691 30.362 40.6968L39.8877 31.2529C39.9602 31.1809 40.0876 31.0718 40.1705 31.011C40.1705 31.011 40.2421 30.9578 40.35 30.8967C40.5278 30.7951 40.7029 30.7294 40.888 30.6911C41.0631 30.6551 41.247 30.6442 41.452 30.6516C41.5651 30.656 41.6837 30.666 41.8105 30.6804C42.0674 30.7095 42.3284 30.7363 42.5946 30.7363C45.5796 30.7363 48 28.3331 48 25.3687C48.0003 25.2711 47.9971 25.1749 47.9922 25.0796Z" fill="#24263B"/>
</svg>
