<svg width="68" height="68" viewBox="0 0 68 68" fill="none" xmlns="http://www.w3.org/2000/svg">
<circle cx="34" cy="34" r="34" fill="#FFE6EC"/>
<path d="M33.5625 34.5625C33.4375 34.6875 33.375 34.8125 33.375 35C33.375 35.1875 33.4375 35.3125 33.5625 35.4375C33.6875 35.5625 33.8125 35.625 34 35.625C34.1875 35.625 34.3125 35.5625 34.4375 35.4375C34.5625 35.3125 34.625 35.125 34.625 35C34.625 34.8125 34.5625 34.6875 34.4375 34.5625C34.1875 34.3125 33.8125 34.3125 33.5625 34.5625Z" fill="#24263B"/>
<path d="M34 20C25.75 20 19 26.75 19 35C19 43.25 25.75 50 34 50C42.25 50 49 43.25 49 35C49 26.75 42.25 20 34 20ZM33.375 23.375C33.375 23 33.625 22.75 34 22.75C34.375 22.75 34.625 23 34.625 23.375V25.6875C34.625 26.0625 34.375 26.3125 34 26.3125C33.625 26.3125 33.375 26.0625 33.375 25.6875V23.375ZM24.75 35.625H22.4375C22.0625 35.625 21.8125 35.375 21.8125 35C21.8125 34.625 22.0625 34.375 22.4375 34.375H24.75C25.125 34.375 25.375 34.625 25.375 35C25.375 35.375 25.0625 35.625 24.75 35.625ZM34.625 46.625C34.625 47 34.375 47.25 34 47.25C33.625 47.25 33.375 47 33.375 46.625V44.3125C33.375 43.9375 33.625 43.6875 34 43.6875C34.375 43.6875 34.625 43.9375 34.625 44.3125V46.625ZM40.8125 29L36.5 37.1875C36.4375 37.3125 36.375 37.375 36.25 37.4375L28.0625 41.8125C27.9375 41.875 27.8125 41.875 27.75 41.875C27.5625 41.875 27.4375 41.8125 27.3125 41.6875C27.125 41.5 27.0625 41.1875 27.1875 40.9375L31.5 32.8125C31.5625 32.6875 31.625 32.625 31.75 32.5625L39.9375 28.1875C40.1875 28.0625 40.5 28.125 40.6875 28.3125C40.875 28.5 40.9375 28.8125 40.8125 29ZM45.625 35.625H43.3125C42.9375 35.625 42.6875 35.375 42.6875 35C42.6875 34.625 42.9375 34.375 43.3125 34.375H45.625C46 34.375 46.25 34.625 46.25 35C46.25 35.375 45.9375 35.625 45.625 35.625Z" fill="#24263B"/>
</svg>
