<svg width="68" height="68" viewBox="0 0 68 68" fill="none" xmlns="http://www.w3.org/2000/svg">
<circle cx="34" cy="34" r="34" fill="#FFE6EC"/>
<path d="M45.7107 23.583H25.5554C25.3436 23.583 25.162 23.6741 25.0107 23.7955L20.8041 28.0078C20.6831 28.1596 20.5923 28.372 20.5923 28.5541V42.6729C20.5923 43.8262 21.5304 44.7974 22.7107 44.7974H45.7107C46.8607 44.7974 47.8291 43.8566 47.8291 42.6729V25.7075C47.8291 24.5542 46.891 23.583 45.7107 23.583Z" fill="#24263B"/>
<path fill-rule="evenodd" clip-rule="evenodd" d="M45.7107 23.583H25.5554C25.3436 23.583 25.162 23.6741 25.0107 23.7955L20.8041 28.0078C20.6831 28.1596 20.5923 28.372 20.5923 28.5541V42.6729C20.5923 43.8262 21.5304 44.7974 22.7107 44.7974H45.7107C46.8607 44.7974 47.8291 43.8566 47.8291 42.6729V25.7075C47.8291 24.5542 46.891 23.583 45.7107 23.583Z" fill="#24263B"/>
<path d="M43.6831 31.14H37.9937V34.1749H44.8029V32.2629C44.8029 31.6559 44.2884 31.14 43.6831 31.14Z" fill="white"/>
<rect x="37.9932" y="34.9335" width="6.80921" height="3.03473" fill="white"/>
<path d="M31.941 31.14H26.2818C25.6463 31.14 25.1318 31.656 25.1318 32.2933V34.175H31.941V31.14Z" fill="white"/>
<path d="M37.9937 41.7624H43.6831C44.3187 41.7624 44.8331 41.2465 44.8331 40.6092V38.7275H37.9937V41.7624Z" fill="white"/>
<path d="M32.6976 38.3633C32.6976 38.5757 32.516 38.7578 32.3042 38.7578H25.1318V40.6698C25.1318 41.3072 25.6463 41.8231 26.2818 41.8231H37.2371V31.14H32.6976V38.3633Z" fill="white"/>
<rect x="25.1313" y="34.9335" width="6.80921" height="3.03473" fill="white"/>
</svg>
