<svg width="68" height="68" viewBox="0 0 68 68" fill="none" xmlns="http://www.w3.org/2000/svg">
<circle cx="34" cy="34" r="34" fill="#FFE6EC"/>
<path d="M42.9283 27.9052V37.142C41.4994 37.8233 39.7668 39.2139 39.7668 41.3419C39.7668 43.1339 40.2029 44.4001 41.0934 45.2183C41.7912 45.8561 42.7448 46.1796 43.936 46.1796C44.2429 46.1796 44.5647 46.1578 44.9046 46.1143C48 45.7192 48 43.445 48 42.4712C48 41.8148 47.4886 41.2859 46.8539 41.2859C46.2252 41.2859 45.7138 41.8148 45.7138 42.4712C45.7138 43.3828 45.7138 43.6285 44.6279 43.7654C43.9571 43.8494 43.0637 43.8619 42.6064 43.4419C42.2364 43.109 42.0469 42.3997 42.0469 41.3388C42.0469 39.9015 44.3903 39.0833 44.4083 39.077C44.8836 38.9184 45.2085 38.4642 45.2085 37.9477V23.7613L46.7185 21.0267C47.0344 20.4604 46.7727 20 46.144 20H41.9657C41.337 20 40.5098 20.4169 40.1217 20.9302L21.6655 45.1833C20.1625 47.1582 21.571 50 24.0528 50H27.7794C29.6 50 31.2767 49.0104 32.1566 47.4166L42.9283 27.9052Z" fill="#24263B"/>
</svg>
