<svg width="68" height="68" viewBox="0 0 68 68" fill="none" xmlns="http://www.w3.org/2000/svg">
<circle cx="34" cy="34" r="34" fill="#FFE6EC"/>
<path d="M40.8213 15.7894H26.9819C25.597 15.7894 24.4736 16.7551 24.4736 17.9468V49.948C24.4736 51.1394 25.5967 52.1052 26.9819 52.1052H40.8216C42.2068 52.1052 43.3299 51.1394 43.3299 49.948V17.9468C43.3296 16.7551 42.2065 15.7894 40.8213 15.7894Z" fill="#24263B"/>
<path fill-rule="evenodd" clip-rule="evenodd" d="M40.8213 15.7894H26.9819C25.597 15.7894 24.4736 16.7551 24.4736 17.9468V49.948C24.4736 51.1394 25.5967 52.1052 26.9819 52.1052H40.8216C42.2068 52.1052 43.3299 51.1394 43.3299 49.948V17.9468C43.3296 16.7551 42.2065 15.7894 40.8213 15.7894Z" fill="#24263B"/>
<path d="M41.3159 45.162C41.3159 45.3631 41.1433 45.5261 40.9305 45.5261H26.9643C26.7515 45.5261 26.5791 45.3633 26.5791 45.162V19.5745C26.5791 19.3734 26.7515 19.2104 26.9643 19.2104H40.9305C41.1433 19.2104 41.3159 19.3734 41.3159 19.5743V45.162Z" fill="white"/>
<path d="M38.2845 30.8245L36.0895 32.9972L33.8946 35.1699C33.893 35.1716 33.891 35.1726 33.8894 35.1742C33.8667 35.1962 33.8427 35.2156 33.8179 35.2328C33.8139 35.2356 33.8099 35.2382 33.8058 35.2409C33.7806 35.2573 33.7546 35.2713 33.7278 35.2828C33.7237 35.2845 33.7196 35.2861 33.7154 35.2877C33.6881 35.2986 33.6604 35.3073 33.6322 35.3131C33.6291 35.3138 33.6258 35.3141 33.6227 35.3147C33.5932 35.3202 33.5635 35.3235 33.5338 35.3235C33.5154 35.3235 33.4964 35.3223 33.4781 35.3202C33.4732 35.3196 33.4685 35.3185 33.4636 35.3179C33.4502 35.3159 33.4366 35.3138 33.4233 35.3107C33.4173 35.3094 33.4115 35.3074 33.4056 35.3058C33.3936 35.3025 33.3815 35.2991 33.3697 35.295C33.3631 35.2927 33.3566 35.2899 33.3501 35.2873C33.3392 35.2829 33.3284 35.2784 33.3177 35.2733C33.3107 35.2699 33.3039 35.2661 33.2969 35.2623C33.2871 35.257 33.2774 35.2515 33.2678 35.2455C33.2605 35.241 33.2533 35.2361 33.2462 35.2311C33.2375 35.225 33.2288 35.2187 33.2204 35.212C33.213 35.2061 33.2056 35.2001 33.1984 35.1937C33.1906 35.1868 33.183 35.1798 33.1755 35.1724C33.1682 35.1654 33.1611 35.1582 33.1542 35.1507C33.1513 35.1475 33.1482 35.1448 33.1454 35.1416L30.9503 32.6587C30.736 32.4162 30.736 32.0234 30.9503 31.7809C31.1646 31.5384 31.5119 31.5384 31.7262 31.7809L33.5581 33.8533L37.5615 29.8904C37.7897 29.6639 38.1359 29.6906 38.3359 29.9486C38.5355 30.2068 38.5125 30.5988 38.2845 30.8245Z" fill="#24263B"/>
<path opacity="0.6" d="M33.9472 49.7367C33.3658 49.7367 32.8945 49.2654 32.8945 48.684C32.8945 48.1029 33.3658 47.6314 33.9472 47.6314C34.5285 47.6314 34.9998 48.1029 34.9998 48.684C34.9998 49.2654 34.5285 49.7367 33.9472 49.7367Z" fill="white"/>
</svg>
