<svg width="107" height="78" viewBox="0 0 107 78" fill="none" xmlns="http://www.w3.org/2000/svg">
<path opacity="0.1" d="M81.0853 75.5647C90.9122 71.9622 98.4958 66.1751 103.836 62.2042L72.2444 49.5676L40.1264 35.3515C33.8081 29.3842 18.5389 18.608 8.00841 23.2414C-2.52209 27.8748 -0.415993 37.9841 3.26968 41.1432L14.8532 49.5676L49.0773 69.5756C51.8801 71.2816 56.8828 74.6799 63.2041 76.598C69.0485 78.3714 75.3509 77.6668 81.0853 75.5647Z" fill="#303042"/>
<path d="M80.3808 18.6665C80.5831 18.3608 80.8865 18.055 81.1899 18.157C81.291 18.157 81.3921 18.2589 81.4933 18.3608C81.5944 18.5646 81.7967 20.1951 81.7967 20.5008C81.7967 21.8256 81.5944 22.7428 81.4933 23.0485C81.3921 23.3543 81.1899 23.5581 80.8865 23.66C80.2797 23.8638 79.6729 23.3543 79.4706 22.7428C79.1672 22.1314 79.066 21.3161 79.2683 20.7047C79.5717 19.9913 79.9763 19.2779 80.3808 18.6665Z" fill="#282523"/>
<path opacity="0.6" d="M81.4927 18.36C81.3916 18.2581 81.3916 18.2581 81.1893 18.1562C80.8859 18.0543 80.5825 18.36 80.3802 18.6658C79.8746 19.2772 79.5712 19.9906 79.3689 20.7039C79.1666 21.3154 79.2678 22.1306 79.5712 22.7421C79.5712 22.844 81.2905 20.3982 81.4927 18.36Z" fill="#282523"/>
<path d="M74.2096 52.6026L58.1292 61.8763L54.3872 56.2713L56.3088 52.195L61.8712 48.3225L74.2096 52.6026Z" fill="#26231F"/>
<path d="M15.7545 21.519L10.0909 25.3915L9.88865 25.7992C8.77617 28.1431 8.97844 30.8946 10.3943 33.0347L11.8102 35.2766L27.9917 25.7992L15.7545 21.519Z" fill="#26231F"/>
<path d="M69.0582 54.848C67.4401 53.9308 66.0242 53.8289 65.0128 54.4403L61.4731 56.4785L69.5639 70.338L73.1036 68.2998C74.1149 67.6884 74.7218 66.4655 74.7218 64.6311C74.6206 61.0644 72.0923 56.6823 69.0582 54.848Z" fill="#26231F"/>
<path d="M71.078 66.7699C71.078 70.4386 68.5497 71.8653 65.4145 70.031C62.2793 68.1966 59.751 63.8146 59.751 60.1459C59.751 56.4772 62.2793 55.0505 65.4145 56.8848C68.5497 58.7192 71.078 63.2031 71.078 66.7699Z" fill="#3F3932"/>
<path d="M65.4081 68.2007C63.2843 66.9778 61.4639 64.0224 61.4639 61.4747C61.4639 58.927 63.1832 57.908 65.307 59.0289C67.4308 60.2518 69.2512 63.2072 69.2512 65.7549C69.3524 68.3026 67.6331 69.4236 65.4081 68.2007Z" fill="#D8D8D8"/>
<path d="M65.4059 67.586C63.5854 66.5669 62.0684 63.9173 61.9673 61.7772C61.9673 59.6372 63.3832 58.72 65.2036 59.7391C67.024 60.7582 68.541 63.4078 68.6422 65.5478C68.7433 67.6879 67.3274 68.6051 65.4059 67.586Z" fill="#A8A8A8"/>
<path d="M65.6149 65.7508C64.6036 65.1393 63.6934 63.7126 63.6934 62.4897C63.6934 61.2668 64.5024 60.7573 65.5138 61.3687C66.5251 61.9802 67.4353 63.4069 67.4353 64.6298C67.5365 65.7508 66.6263 66.3622 65.6149 65.7508Z" fill="#D8D8D8"/>
<path d="M67.6358 62.3932C67.1302 61.5779 66.5234 60.8646 65.8154 60.4569C64.5007 59.7436 63.3882 60.355 63.3882 61.9856C63.3882 63.6161 64.5007 65.4504 65.9165 66.2657C67.2313 66.9791 68.2426 66.3676 68.3438 64.9409C68.3438 64.839 68.3438 64.839 68.3438 64.7371C68.3438 63.9218 68.0404 63.1066 67.6358 62.3932ZM67.4336 64.7371C67.4336 65.8581 66.6245 66.3676 65.6131 65.7562C64.6018 65.1447 63.6916 63.718 63.6916 62.4951C63.6916 61.2722 64.5007 60.7627 65.512 61.3741C66.0177 61.6798 66.5234 62.1894 66.9279 62.9027C67.1302 63.2085 67.2313 63.5142 67.3324 63.8199C67.4336 64.1256 67.4336 64.4314 67.4336 64.7371C67.4336 64.6352 67.4336 64.6352 67.4336 64.7371Z" fill="#BEBEBE"/>
<path d="M23.2379 28.2418C21.6198 27.3246 20.2039 27.2227 19.1925 27.8341L15.6528 29.8723L23.7436 43.7318L27.2833 41.6936C28.2946 41.0822 28.9015 39.8593 28.9015 38.0249C28.8003 34.4582 26.272 30.0761 23.2379 28.2418Z" fill="#26231F"/>
<path d="M25.3637 40.1637C25.3637 43.8324 22.8353 45.2591 19.7002 43.4248C16.565 41.5904 14.0366 37.2084 14.0366 33.5397C14.0366 29.871 16.565 28.4443 19.7002 30.2786C22.8353 32.113 25.3637 36.495 25.3637 40.1637Z" fill="#3F3932"/>
<path d="M19.6982 41.5945C17.5743 40.3716 15.7539 37.4162 15.7539 34.8685C15.7539 32.3208 17.4732 31.3018 19.597 32.4227C21.7208 33.6456 23.5413 36.601 23.5413 39.1487C23.5413 41.6964 21.822 42.7155 19.6982 41.5945Z" fill="#D8D8D8"/>
<path d="M19.6988 40.8836C17.8784 39.8645 16.3614 37.2149 16.2603 35.0748C16.2603 32.9348 17.6761 32.0176 19.4966 33.0367C21.317 34.0558 22.834 36.7054 22.9351 38.8454C22.9351 40.9855 21.5192 41.9027 19.6988 40.8836Z" fill="#A8A8A8"/>
<path d="M21.1241 39.1874C21.8508 38.7674 21.8543 37.3979 21.1318 36.1286C20.4093 34.8593 19.2345 34.1708 18.5078 34.5908C17.781 35.0108 17.7776 36.3803 18.5001 37.6496C19.2226 38.9189 20.3974 39.6074 21.1241 39.1874Z" fill="#D8D8D8"/>
<path d="M21.818 35.785C21.3123 34.9698 20.7055 34.2564 19.9975 33.8488C18.6828 33.1354 17.5703 33.7469 17.5703 35.3774C17.5703 37.0079 18.6828 38.8423 20.0987 39.6575C21.4134 40.3709 22.4248 39.7595 22.5259 38.3327C22.5259 38.2308 22.5259 38.2308 22.5259 38.1289C22.5259 37.3137 22.2225 36.4984 21.818 35.785ZM21.6157 38.027C21.6157 39.148 20.8066 39.6575 19.7953 39.0461C18.7839 38.4347 17.8737 37.0079 17.8737 35.785C17.8737 34.5621 18.6828 34.0526 19.6941 34.6641C20.1998 34.9698 20.7055 35.4793 21.11 36.1927C21.3123 36.4984 21.4134 36.8041 21.5146 37.1098C21.6157 37.4156 21.6157 37.7213 21.6157 38.027C21.7168 38.027 21.7168 37.9251 21.6157 38.027Z" fill="#BEBEBE"/>
<path d="M103.744 41.1865C101.924 38.4349 98.5865 35.2758 95.8559 33.4414C88.0685 28.2441 84.8322 25.2888 77.7528 19.2762C75.3256 17.1362 70.8757 12.856 68.2462 10.9198C67.1337 10.1045 45.9966 -0.0862979 42.7603 0.117518C41.3444 0.423242 36.8945 0.932782 32.748 1.64614C32.748 1.64614 29.3094 1.34041 29.3094 1.44232C25.1629 1.54423 6.95866 12.6522 6.7564 12.856C5.84619 13.5694 5.34051 14.3846 5.23938 15.098C5.13824 15.9133 5.03711 16.7285 5.03711 17.5438V27.327C5.03711 28.1422 5.23938 28.8556 5.64392 29.5689C6.25072 30.6899 10.5995 34.2567 12.0154 35.2758C12.0154 29.5689 13.8358 25.9003 19.3982 29.1613C24.5561 32.2186 26.781 38.1292 26.781 43.938L58.335 61.9757C58.4361 56.2688 60.2565 52.804 65.7178 55.9631C70.7745 58.9185 72.9995 64.6253 73.1006 70.3322C75.0222 71.4532 74.112 70.8417 74.7188 71.1474C76.9437 72.2684 79.4721 72.778 82.0005 72.5741C88.3719 72.2684 93.4287 69.5169 98.182 66.3577C101.924 63.912 104.756 61.3643 106.172 59.1223C106.778 58.1032 107.082 56.9822 106.981 55.8612C106.778 52.9059 106.677 45.8742 103.744 41.1865Z" fill="#D9D9E3"/>
<path d="M10.3934 14.4893C18.8887 9.39394 28.7998 3.27946 32.7441 1.64893C32.7441 1.64893 29.3055 1.34321 29.3055 1.44511C25.159 1.54702 6.95479 12.655 6.75252 12.8588C6.44912 13.1645 6.14572 13.3684 5.94345 13.6741C5.64004 13.9798 5.84231 14.5913 6.24685 14.6932C6.85366 14.897 7.5616 14.9989 8.06727 15.1008C8.77521 15.2027 9.68542 14.897 10.3934 14.4893Z" fill="#D9D9E3"/>
<path d="M21.9204 11.4342L14.4365 12.8609C14.3353 12.8609 14.2342 12.759 14.3353 12.6571L30.2135 3.38344C31.2248 2.8739 32.135 2.46626 33.3486 2.26245L41.2371 1.03955L23.3363 10.9246C22.9318 11.1284 22.4261 11.3323 21.9204 11.4342Z" fill="#282523"/>
<path d="M30.8199 3.4825C31.7302 2.97296 32.6404 2.56532 33.854 2.46342L40.1243 1.44434L23.7405 10.5142C23.336 10.718 22.8303 10.9218 22.3246 11.0237L16.1554 12.2466C16.0543 12.2466 16.0543 12.1447 16.1554 12.1447L30.8199 3.4825Z" fill="#42445A"/>
<path d="M97.7718 60.0416C105.761 55.0481 106.469 50.1566 106.469 49.7489C106.065 46.8955 105.357 43.7363 103.739 41.2906C101.918 38.539 98.5809 35.3799 95.8503 33.5455C88.0629 28.3482 84.8266 25.3929 77.7472 19.3803C75.32 17.2403 70.8701 12.9601 68.2406 11.0239C67.1281 10.1067 46.8 -0.491751 43.0581 0.0177893C40.3274 0.833054 29.9106 6.33609 22.6289 11.2277C28.0902 13.1639 44.8785 21.4185 47.3057 24.4757C50.1375 27.9406 59.6441 43.023 59.6441 43.023C62.8804 46.386 70.4655 53.01 73.803 56.1691C77.6461 60.0416 77.3427 61.4683 77.7472 64.4237C77.8483 64.9332 78.1517 65.3409 78.6574 65.4428C84.1187 66.3599 90.2879 64.9332 97.7718 60.0416Z" fill="#D9D9E3"/>
<path d="M43.0581 0.016607C40.3274 0.831871 29.9106 6.3349 22.6289 11.2265C27.2811 12.857 40.2263 19.1753 45.3842 22.844C45.8898 23.1497 53.0704 20.2963 58.835 16.9333C63.8918 13.978 67.6337 10.615 67.4315 10.5131C63.4872 8.27116 46.3955 -0.391025 43.0581 0.016607Z" fill="#D9D9E3"/>
<path opacity="0.6" d="M78.3569 58.0022C92.6168 59.0212 105.764 46.8942 104.247 42.1045C104.045 41.7988 103.944 41.4931 103.742 41.1873C101.921 38.4358 98.5838 35.2767 95.8531 33.4423C92.2123 30.9965 89.5828 29.0603 87.1556 27.124C77.3455 40.3721 59.647 43.0217 59.647 43.0217C62.1753 45.5694 69.8616 52.601 73.5024 55.8621C74.8171 57.085 76.5364 57.7983 78.3569 58.0022Z" fill="#D9D9E3"/>
<path opacity="0.2" d="M21.0139 17.0386C20.9128 17.0386 20.9128 17.0386 20.9128 17.1405C19.8003 19.4844 20.1037 26.516 19.8003 29.3694C19.9014 29.3694 19.9014 29.4714 20.0026 29.4714C20.2048 26.6179 20.1037 19.2805 21.115 17.1405C21.115 17.1405 21.115 17.0386 21.0139 17.0386Z" fill="#BC972A"/>
<path opacity="0.2" d="M38.6107 30.2853C38.5096 30.2853 38.5096 30.1833 38.4085 30.1833C38.0039 34.973 37.4983 41.2913 37.4983 48.4249L26.4746 42.0047C26.4746 42.1066 26.4746 42.2085 26.4746 42.3104L37.5994 48.7306L58.1297 60.6539C58.1297 60.5519 58.1297 60.45 58.1297 60.3481L37.8017 48.6287C37.8017 41.3932 38.2062 35.0749 38.6107 30.2853Z" fill="#242639"/>
<path d="M65.8123 41.7985C72.8917 39.8622 79.87 35.3783 85.7358 29.7733C86.4437 29.1619 86.3426 28.0409 85.6347 27.4294L67.6327 11.7356C63.4862 15.5062 56.7102 19.2768 48.1138 23.0474C52.3614 30.3848 57.4181 37.4164 61.3624 40.8813C62.7783 42.1042 64.093 42.2061 65.8123 41.7985Z" fill="#282523"/>
<path d="M62.3769 38.9444C62.1746 38.9444 61.9723 38.9444 61.77 38.9444C60.3542 38.7406 59.3428 37.8235 58.4326 36.7025C56.2076 33.9509 51.5555 27.8365 49.5328 24.5754C49.3305 24.2697 49.4316 23.7601 49.8362 23.5563C57.8258 19.9895 63.5905 16.6266 67.4336 13.3655C67.737 13.0598 68.1415 13.0598 68.4449 13.3655L82.5026 25.6964C82.7049 25.9002 82.9071 26.2059 82.9071 26.5117C82.9071 26.8174 82.806 27.1231 82.6037 27.3269C76.4345 33.2376 70.4676 36.9063 63.7927 38.7406C63.2871 38.8425 62.8825 38.9444 62.3769 38.9444Z" fill="#42445A"/>
<path d="M47.4062 26.2074C46.496 24.7807 45.1812 23.5578 43.6642 22.6406C37.5961 19.0738 28.3929 14.2841 24.4487 12.9593C23.5385 12.6536 12.9193 17.4433 14.6386 18.4624C19.4931 21.2139 51.4516 38.7421 56.306 41.3917C56.6094 41.5955 57.014 41.1878 56.8117 40.984C55.5981 38.6401 50.1368 30.2837 47.4062 26.2074Z" fill="#282523"/>
<path d="M89.9871 58.1036C90.2905 59.2246 91.5041 61.8742 92.2121 61.6704C95.5495 60.957 102.123 56.0654 103.033 54.2311C103.337 53.6196 102.123 49.5433 101.719 49.4414C100.202 51.1738 98.0779 53.1101 95.7518 54.5368C92.8189 56.4731 89.7849 57.594 89.9871 58.1036Z" fill="#484C76"/>
<path d="M95.8497 54.5415C94.1305 55.5606 92.4112 56.3758 91.2987 56.9873C90.3885 57.3949 89.8828 57.7006 89.984 58.1083C90.1862 59.0254 91.0964 60.9617 91.8044 61.5731C95.1418 60.8598 101.614 55.9682 102.626 54.1338C102.929 53.6243 102.12 50.669 101.614 49.6499C100.097 51.3823 97.9736 53.2167 95.8497 54.5415Z" fill="#24263B"/>
<path d="M25.0539 13.6707C24.5482 13.4669 24.0426 13.4669 23.638 13.6707C23.1324 13.8745 22.2222 14.2821 21.3119 14.6898C21.1097 16.3203 20.8063 18.4604 20.604 20.9062C26.1664 23.9634 34.864 28.855 38.1003 30.5874C38.6059 25.492 39.1116 22.1291 39.3139 20.9062C34.5606 18.4604 27.7846 14.8936 25.0539 13.6707Z" fill="#42445A"/>
<path d="M20.6054 15.1003C17.9759 16.3232 15.1442 17.8519 15.751 18.2595C15.9532 18.3614 17.5714 19.2786 19.9986 20.6034C20.2009 18.4633 20.4032 16.629 20.6054 15.1003Z" fill="#42445A"/>
<path d="M50.138 37.3148C52.4641 38.5377 54.2845 39.5568 55.2959 40.1682C53.6777 37.5186 48.621 29.7736 46.4972 26.5125C45.587 25.1877 44.4745 24.0667 43.1598 23.2515C42.2495 22.7419 41.2382 22.1305 40.0246 21.519C39.8223 22.8438 39.3166 26.3087 38.9121 31.2003C43.0586 33.4423 47.104 35.6843 50.138 37.3148Z" fill="#42445A"/>
<path d="M43.0611 37.2152L40.027 35.4827C39.8248 35.3808 39.7236 35.177 39.7236 34.9732V34.5656C39.7236 34.3618 39.8248 34.3618 40.027 34.4637L43.0611 36.1961C43.2633 36.298 43.3645 36.5018 43.3645 36.7056V37.1133C43.3645 37.3171 43.2633 37.3171 43.0611 37.2152Z" fill="#35312D"/>
<path d="M24.8535 26.6185L21.8195 24.8861C21.6172 24.7842 21.5161 24.5803 21.5161 24.3765V23.9689C21.5161 23.7651 21.6172 23.7651 21.8195 23.867L24.8535 25.5994C25.0558 25.7013 25.157 25.9052 25.157 26.109V26.5166C25.157 26.7204 24.9547 26.7204 24.8535 26.6185Z" fill="#35312D"/>
<path d="M47.3074 37.7242C46.8018 38.3357 47.3074 40.0681 48.1165 40.4758C48.3188 40.5777 48.4199 40.5777 48.6222 40.5777C50.2403 40.7815 52.5664 40.7815 53.3755 39.8643C53.5778 39.5586 53.5778 39.4567 53.4766 39.049C53.2744 38.5395 52.7687 36.3994 52.3642 36.1956C51.9596 35.9918 47.6108 37.4185 47.3074 37.7242Z" fill="#282523"/>
<path opacity="0.6" d="M52.9708 37.6203C52.7685 37.0088 52.4651 36.3974 52.2628 36.2955C51.8583 36.0917 47.6107 37.5184 47.3072 37.8241C47.2061 37.926 47.105 38.1298 47.105 38.3336C49.3299 38.5374 51.8583 38.1298 52.9708 37.6203Z" fill="#282523"/>
<path d="M55.1953 39.1508C55.0941 39.1508 53.5771 38.7431 53.3748 38.7431C52.5658 38.6412 51.3521 40.1699 51.6556 40.5775C51.7567 40.6794 55.3975 40.8832 55.4987 40.8832C56.1055 40.9851 56.0043 39.2527 55.1953 39.1508Z" fill="#282523"/>
<path d="M8.1693 26.716L7.05682 26.1045C6.85455 26.0026 6.75342 25.7988 6.75342 25.6969V25.4931C6.75342 25.2892 6.85455 25.2892 7.05682 25.3912L8.1693 26.0026C8.37157 26.1045 8.4727 26.3083 8.4727 26.4102V26.5121C8.4727 26.8179 8.27044 26.8179 8.1693 26.716Z" fill="#CB5E12"/>
<path d="M56.8133 55.0474L55.7009 54.436C55.4986 54.3341 55.3975 54.1302 55.3975 54.0283V53.9264C55.3975 53.7226 55.4986 53.7226 55.7009 53.8245L56.8133 54.436C57.0156 54.5379 57.1167 54.7417 57.1167 54.8436V54.9455C57.1167 55.0474 57.0156 55.1493 56.8133 55.0474Z" fill="#CB5E12"/>
<path d="M4.93185 16.219C4.93185 16.219 4.12278 18.8686 4.93185 22.3335C5.74093 22.5373 6.04433 18.9705 6.14547 17.5438C6.14547 17.2381 6.04433 16.8304 5.74093 16.6266L4.93185 16.219Z" fill="#282523"/>
<path d="M87.0524 59.0248C88.3671 58.821 89.8841 62.4897 88.4682 63.3049C87.0524 64.1202 83.5127 65.0374 78.5571 64.4259C76.4332 63.7126 76.0287 59.5343 78.1525 59.2286C79.7707 59.4324 82.1979 59.6362 87.0524 59.0248Z" fill="#F0FDFF"/>
<path d="M78.2539 59.3311C74.9164 59.1273 76.3323 64.2227 78.6584 64.5284C77.8493 63.5094 77.2425 60.2483 78.2539 59.3311Z" fill="#FFB3C7"/>
<path d="M103.438 48.0195C103.236 48.9367 104.045 51.9939 104.45 52.1977C104.854 52.4016 106.27 49.7519 106.27 48.4271C106.27 47.3061 105.663 44.5546 104.955 43.6375C104.45 45.7775 103.539 47.4081 103.438 48.0195Z" fill="#F0FDFF"/>
<path d="M90.8957 66.7671C84.6254 69.4167 79.9732 69.111 77.1414 68.3976C76.838 68.2957 76.6357 68.4995 76.6357 68.8052V70.3339C76.6357 70.5377 76.838 70.8434 77.0403 70.8434C78.5573 71.251 83.9174 72.2701 91.098 69.111C91.3003 69.0091 91.4014 68.8053 91.4014 68.6014V67.0728C91.4014 66.7671 91.098 66.5633 90.8957 66.7671Z" fill="#42445A"/>
<path d="M96.2582 56.5764C96.5616 57.1879 97.1684 57.3917 97.6741 57.0859C98.1797 56.7802 98.382 56.0669 98.1797 55.4554C97.8763 54.844 97.2695 54.6402 96.7638 54.9459C96.2582 55.2516 96.0559 55.965 96.2582 56.5764Z" fill="#4C4742"/>
<path d="M106.776 56.6777C105.664 58.614 104.956 59.3274 104.551 59.6331C104.45 59.735 104.349 59.5312 104.349 59.3274V57.6968C104.349 57.3911 104.45 57.0854 104.551 56.9835C105.462 55.9644 105.967 55.1491 106.675 53.7224C106.675 54.5377 106.675 55.3529 106.776 55.9644C106.776 56.1682 106.776 56.4739 106.776 56.6777Z" fill="#42445A"/>
<path d="M101.415 60.0408L95.5488 63.9133V66.0533L101.415 62.1808V60.0408Z" fill="#E8E8E8"/>
</svg>
