<svg width="47" height="41" viewBox="0 0 47 41" fill="none" xmlns="http://www.w3.org/2000/svg">
<path d="M23.6199 0C18.8867 0 14.199 0 9.4658 0C7.46329 0 5.64284 0.544299 4.00442 1.72361C2.13845 3.039 0.955151 4.76262 0.317989 6.93982C0.090435 7.71091 -0.000587463 8.52736 -0.000587463 9.38916C-0.000587463 14.2879 -0.000587463 19.2319 -0.000587463 24.1306C-0.000587463 26.1717 0.682079 28.0314 1.9564 29.6643C3.59481 31.7508 5.73386 32.9301 8.32801 33.293C8.6466 33.3383 8.96518 33.3383 9.32927 33.3383C10.9677 33.3383 12.6061 33.3383 14.2445 33.3383C14.4721 33.3383 14.6541 33.3837 14.7906 33.5651C16.338 34.9712 17.8854 36.3773 19.4328 37.7834C20.3886 38.6452 21.2988 39.5071 22.2545 40.3235C22.9372 40.9585 23.984 40.9132 24.6666 40.3235C26.2595 38.872 27.8524 37.4659 29.3998 36.0145C30.3556 35.1527 31.2658 34.3362 32.2216 33.4744C32.3126 33.3837 32.4946 33.3383 32.5856 33.3383C34.1785 33.3383 35.7259 33.3383 37.3188 33.3383C39.6399 33.3383 41.6879 32.658 43.4629 31.2065C45.1013 29.8457 46.1936 28.1221 46.6487 26.0356C46.7852 25.4006 46.8763 24.7203 46.8763 24.0852C46.8763 19.1412 46.9218 14.1518 46.8763 9.20773C46.8307 5.89657 45.2834 3.31115 42.5072 1.49682C41.4149 0.771091 40.1861 0.362866 38.9117 0.181433C38.3201 0.0907165 37.6829 0.0907165 37.0913 0.0907165C32.6312 0 28.1255 0 23.6199 0Z" fill="#FF80A1"/>
<path d="M23.4377 11.884C23.2101 11.6119 23.0281 11.3397 22.8005 11.1129C20.2974 8.75429 16.2469 9.34394 14.4719 12.2469C13.1521 14.3787 13.4707 17.1002 15.2456 18.8692C17.8853 21.5 20.5705 24.1761 23.2101 26.8069C23.5287 27.1244 23.5287 27.1244 23.8018 26.8069C26.1684 24.4483 28.535 22.0896 30.9471 19.6856C31.5842 19.0053 32.3124 18.4156 32.722 17.5538C34.1784 14.6962 32.9041 11.1583 29.8548 10.0243C27.7158 9.20787 25.7588 9.61609 24.0748 11.1583C23.9838 11.249 23.8928 11.3397 23.8018 11.4304C23.7107 11.5665 23.6197 11.6572 23.4377 11.884Z" fill="#FFE0B3"/>
</svg>
