<svg width="135" height="96" viewBox="0 0 135 96" fill="none" xmlns="http://www.w3.org/2000/svg">
<path d="M126.375 92.4552C126.067 92.4561 125.77 92.3456 125.538 92.1443L41.4998 20.3865C41.2622 20.1583 41.1208 19.8479 41.1045 19.5189C41.0882 19.1898 41.1983 18.8669 41.4122 18.6164C41.6261 18.3658 41.9277 18.2064 42.2552 18.1709C42.5828 18.1353 42.9115 18.2263 43.1742 18.4252L127.212 90.1877C127.413 90.3584 127.557 90.5869 127.624 90.842C127.691 91.0971 127.677 91.3666 127.586 91.6141C127.495 91.8615 127.33 92.0749 127.113 92.2253C126.896 92.3758 126.639 92.456 126.375 92.4552V92.4552Z" fill="#FF80A1"/>
<path d="M71.3074 92.4553C71.0161 92.4547 70.7333 92.3571 70.5037 92.1779C70.3148 92.0323 70.17 91.8372 70.0855 91.6142C70.001 91.3912 69.9802 91.1491 70.0253 90.9149L78.067 50.7306C78.0999 50.5648 78.1653 50.407 78.2592 50.2664C78.3531 50.1258 78.4739 50.0051 78.6145 49.9111C78.755 49.8172 78.9128 49.7518 79.0786 49.7188C79.2445 49.6859 79.4152 49.6858 79.581 49.7188C79.7469 49.7518 79.9046 49.8171 80.0452 49.9111C80.1858 50.005 80.3066 50.1257 80.4005 50.2663C80.4945 50.4069 80.5598 50.5646 80.5928 50.7305C80.6258 50.8963 80.6258 51.0671 80.5928 51.2329L73.0439 88.9296L116.893 68.8662C117.047 68.7913 117.214 68.748 117.386 68.7387C117.557 68.7295 117.728 68.7546 117.89 68.8125C118.051 68.8704 118.199 68.96 118.325 69.076C118.452 69.1919 118.553 69.332 118.625 69.4878C118.696 69.6437 118.736 69.8122 118.741 69.9836C118.746 70.1549 118.717 70.3256 118.656 70.4856C118.594 70.6456 118.502 70.7917 118.383 70.9154C118.264 71.039 118.122 71.1376 117.964 71.2055L71.824 92.3214C71.6628 92.4009 71.4869 92.4465 71.3074 92.4553V92.4553Z" fill="#FF80A1"/>
<path d="M42.3377 19.3821H1.23486C11.8789 37.5846 41.4192 75.3531 70.7011 75.3531H106.532C83.3879 75.334 52.9817 37.5846 42.3377 19.3821Z" fill="#FFB3C7"/>
<path d="M48.4663 24.4383L48.7581 24.1274L49.093 23.759C49.3178 23.515 49.5475 23.2806 49.7675 23.0032C50.2124 22.4817 50.6525 21.9603 51.0783 21.4245C51.923 20.3584 52.7134 19.2504 53.4463 18.1045C53.8099 17.5352 54.1495 16.9564 54.4653 16.3775C54.781 15.7987 55.0824 15.2103 55.3503 14.6171C55.878 13.4617 56.2945 12.2587 56.5941 11.0244L57.3738 13.6986C56.9188 13.1475 56.3756 12.6755 55.7665 12.3017C54.9734 11.7791 54.1526 11.3 53.3076 10.8665C52.4321 10.4121 51.5184 9.97675 50.5856 9.55099L47.7774 8.28805L47.7105 8.25457C47.3368 8.08587 47.0333 7.79269 46.8518 7.42511C46.6703 7.05752 46.622 6.63832 46.7151 6.23909C46.8083 5.83985 47.0372 5.48533 47.3627 5.23607C47.6882 4.98682 48.0901 4.85827 48.4998 4.87239C49.6216 4.92213 50.7396 5.03553 51.8485 5.21204C52.9664 5.38792 54.0745 5.62104 55.1685 5.91048C56.3126 6.21445 57.432 6.60466 58.5172 7.07774C59.8277 7.63031 61.0259 8.4183 62.0524 9.40269C62.3623 9.7125 62.5972 10.0891 62.739 10.5038C62.8808 10.9184 62.9257 11.3599 62.8705 11.7946L62.8322 12.0673C62.6019 13.7984 62.1766 15.4979 61.5645 17.1334C60.9774 18.7113 60.2572 20.2365 59.4118 21.6924C58.5896 23.1187 57.6705 24.4869 56.661 25.7874C56.154 26.4332 55.6421 27.0694 55.0919 27.7009C54.8193 28.0071 54.5418 28.3132 54.2548 28.6146L53.8099 29.0643L53.3315 29.5427C52.6768 30.2069 51.7851 30.5838 50.8525 30.5905C49.9199 30.5973 49.0229 30.2333 48.3587 29.5786C47.6945 28.9239 47.3176 28.0322 47.3108 27.0996C47.3041 26.167 47.6681 25.27 48.3228 24.6058L48.4663 24.4383Z" fill="#B4836B"/>
<path d="M49.6812 4.95875L45.5671 4.45166L44.2037 9.41251C44.2037 9.41251 48.3561 10.4793 50.1548 7.79557L49.6812 4.95875Z" fill="#B4836B"/>
<path d="M42.3569 4.4231L41.8259 8.58026L44.2035 9.41265L45.5669 4.4518L42.3569 4.4231Z" fill="#B4836B"/>
<path d="M54.4492 63.5371C54.4492 63.5371 43.3172 54.8545 33.8787 38.1301C33.3525 37.1965 33.0338 36.1603 32.9442 35.0924C32.8546 34.0244 32.9962 32.9497 33.3594 31.9414C33.7226 30.9331 34.2988 30.0149 35.0489 29.2493C35.7989 28.4838 36.7051 27.8889 37.7058 27.5052C41.2602 26.1466 45.0872 24.8597 48.2063 23.8647C49.7401 23.3704 51.3929 23.3872 52.9163 23.9125C54.4397 24.4379 55.7515 25.4434 56.6546 26.7781C60.5104 32.5187 64.3087 40.6129 76.144 50.3098C76.3028 50.4387 76.4271 50.6049 76.5058 50.7937C76.5844 50.9825 76.6149 51.1879 76.5945 51.3914C76.5741 51.5949 76.5035 51.7901 76.3889 51.9596C76.2744 52.129 76.1195 52.2673 75.9383 52.3621L54.4492 63.5371Z" fill="white"/>
<path opacity="0.2" d="M33.0283 35.958C34.4252 31.5808 35.6307 32.9011 36.1809 33.3364C40.4529 36.733 42.6726 44.0618 42.2516 50.697C39.1328 46.6969 36.3154 42.4707 33.8224 38.0533C33.4496 37.4008 33.1817 36.6937 33.0283 35.958Z" fill="black"/>
<path d="M33.9326 16.0813C36.1571 18.9229 39.5536 24.2665 38.4725 27.1942C41.3675 28.4248 44.6282 28.478 47.5618 27.3425C51.3076 25.9982 50.0494 24.7305 48.3798 23.7929C44.4954 24.3526 43.1176 21.377 42.4622 18.7411L33.9326 16.0813Z" fill="#B4836B"/>
<path opacity="0.2" d="M42.4806 18.765L37.6968 17.282C37.9425 18.5662 38.3795 19.8062 38.9932 20.9608C40.0074 22.5107 42.715 23.3527 44.7338 22.9556C43.4948 21.9415 42.8633 20.3006 42.4806 18.765Z" fill="black"/>
<path d="M44.1606 5.08813C45.8924 6.48023 46.6961 9.65671 46.0742 11.8668C42.9408 6.92513 42.8977 5.46606 42.8977 5.46606L44.1606 5.08813Z" fill="#263238"/>
<path d="M33.4189 11.9383C34.5287 16.4352 34.9497 19.1141 37.6813 21.1281C38.5448 21.8013 39.5769 22.2241 40.6645 22.3502C41.7522 22.4763 42.8536 22.3008 43.8482 21.843C44.8429 21.3852 45.6925 20.6626 46.3041 19.7544C46.9157 18.8462 47.2657 17.7873 47.3159 16.6935C47.5503 12.4933 45.699 5.85329 40.9008 4.6382C36.1026 3.4231 32.3138 7.44631 33.4189 11.9383Z" fill="#B4836B"/>
<path d="M34.2051 16.0763C35.3771 14.4642 35.9512 11.2925 35.2623 8.93404C38.1326 8.20211 47.0162 7.68545 44.586 2.91118C42.1558 -1.8631 38.8454 0.284844 38.7832 1.99268C33.3392 0.414008 29.6939 2.2223 31.1769 3.90622C25.5702 5.93457 27.5412 10.484 28.785 11.0294C26.8427 13.3447 27.699 18.5209 30.732 18.6357C33.7649 18.7505 35.0757 21.0659 36.7883 20.4057C36.463 18.6452 34.2051 16.0763 34.2051 16.0763Z" fill="#263238"/>
<path d="M40.0404 12.4407C40.093 12.7899 40.3131 13.0434 40.5427 13.01C40.7723 12.9765 40.9111 12.6703 40.8632 12.3259C40.8154 11.9814 40.5906 11.7231 40.3609 11.7566C40.1313 11.7901 39.9926 12.0962 40.0404 12.4407Z" fill="#263238"/>
<path d="M44.3076 11.618C44.3554 11.9672 44.5803 12.2208 44.786 12.1873C44.9917 12.1538 45.1591 11.8476 45.1113 11.5032C45.0635 11.1588 44.853 10.9148 44.6377 10.9148C44.4224 10.9148 44.255 11.2736 44.3076 11.618Z" fill="#263238"/>
<path d="M32.0429 16.7413C32.7048 17.5646 33.653 18.1078 34.6979 18.2626C36.0757 18.4491 36.5158 17.1958 35.9178 16.0142C35.3868 14.9474 34.0043 13.5696 32.7461 13.9236C31.488 14.2776 31.244 15.6984 32.0429 16.7413Z" fill="#B4836B"/>
<path d="M42.9299 12.0054C42.9299 12.0054 44.1642 14.0194 45.2836 14.9235C44.7382 15.622 43.5662 15.488 43.5662 15.488L42.9299 12.0054Z" fill="#87573F"/>
<path d="M41.7668 17.3537C40.8972 17.3543 40.063 17.0102 39.4466 16.3969C39.4362 16.3871 39.4279 16.3752 39.4222 16.3621C39.4165 16.3489 39.4136 16.3347 39.4136 16.3204C39.4136 16.3061 39.4165 16.2919 39.4222 16.2787C39.4279 16.2655 39.4362 16.2537 39.4466 16.2438C39.4679 16.2237 39.4962 16.2124 39.5255 16.2124C39.5549 16.2124 39.5831 16.2237 39.6045 16.2438C39.9507 16.5677 40.3649 16.8101 40.8168 16.9533C41.2687 17.0964 41.7469 17.1368 42.2164 17.0714C42.2455 17.0672 42.2751 17.0742 42.2991 17.0912C42.3232 17.1081 42.3398 17.1335 42.3456 17.1623C42.3483 17.1765 42.3481 17.1911 42.3449 17.2052C42.3418 17.2193 42.3357 17.2326 42.3272 17.2443C42.3187 17.256 42.3079 17.2658 42.2954 17.2731C42.2829 17.2804 42.2691 17.285 42.2547 17.2867C42.0939 17.3207 41.9308 17.3431 41.7668 17.3537V17.3537Z" fill="#263238"/>
<path d="M37.4864 11.1396C37.4481 11.1385 37.4104 11.1287 37.3764 11.1109C37.324 11.0834 37.2846 11.0363 37.2666 10.9799C37.2487 10.9235 37.2538 10.8623 37.2807 10.8095C37.4361 10.503 37.6652 10.2397 37.9474 10.0435C38.2296 9.84732 38.5562 9.72424 38.8977 9.68534C38.9571 9.68131 39.0157 9.70051 39.0612 9.73889C39.1068 9.77727 39.1356 9.83182 39.1416 9.89105C39.145 9.91921 39.1424 9.94776 39.1342 9.97489C39.126 10.002 39.1122 10.0272 39.0938 10.0487C39.0754 10.0703 39.0527 10.0878 39.0272 10.1002C39.0016 10.1126 38.9739 10.1195 38.9455 10.1207V10.1207C38.6755 10.1555 38.4184 10.2568 38.1971 10.4154C37.9759 10.574 37.7974 10.7851 37.6778 11.0296C37.6584 11.0632 37.6305 11.091 37.5969 11.1103C37.5633 11.1297 37.5252 11.1398 37.4864 11.1396V11.1396Z" fill="#263238"/>
<path d="M45.753 10.0007C45.7163 10.0071 45.6785 10.0048 45.6428 9.99399C45.6071 9.98319 45.5744 9.96419 45.5473 9.9385C45.3534 9.73429 45.1144 9.57821 44.8495 9.4827C44.5845 9.38719 44.3009 9.35488 44.0213 9.38835C43.9626 9.39733 43.9027 9.38419 43.8532 9.35148C43.8037 9.31877 43.7681 9.26883 43.7534 9.21135C43.7464 9.18397 43.7451 9.15544 43.7496 9.12754C43.7541 9.09963 43.7642 9.07295 43.7795 9.04915C43.7948 9.02536 43.8148 9.00498 43.8383 8.98926C43.8618 8.97354 43.8882 8.96284 43.9161 8.95781C44.2653 8.91651 44.6195 8.95584 44.9512 9.07278C45.2829 9.18971 45.5834 9.38113 45.8296 9.63233C45.8697 9.67418 45.892 9.72987 45.892 9.78781C45.892 9.84574 45.8697 9.90143 45.8296 9.94328C45.8077 9.96678 45.7817 9.98621 45.753 10.0007V10.0007Z" fill="#263238"/>
<path d="M122.582 89.6902L128.022 88.6903L114.531 76.2715L110.742 81.7107L122.582 89.6902Z" fill="#B4836B"/>
<path d="M122.352 92.6371C121.922 91.3933 122.252 89.7142 121.032 87.7959C121.032 87.7959 123.902 84.8921 125.098 86.1694C126.294 87.4467 130.006 88.7574 134.522 87.7241C135.154 87.5806 135.345 89.4702 133.924 89.9582C131.575 90.7619 129.839 91.3216 127.834 92.0105C126.122 92.5989 125.816 93.1251 124.486 93.6848C123.376 94.1536 122.788 93.8857 122.352 92.6371Z" fill="#B4836B"/>
<path d="M71.0448 54.8879C71.0448 54.8879 88.8454 57.2799 99.3029 60.9634C106.244 63.3984 119.395 79.7209 119.395 79.7209L114.075 85.0644C114.075 85.0644 100.877 76.3435 91.1943 71.6266C74.2452 74.9753 57.0663 76.0852 54.4496 63.5515C58.358 60.9539 71.0448 54.8879 71.0448 54.8879Z" fill="#263238"/>
<path opacity="0.2" d="M96.6477 60.7478L94.8203 73.4633C97.7672 75.0324 100.838 76.812 103.642 78.4911L96.6477 60.7478Z" fill="black"/>
<path d="M122.098 80.0316L114.434 87.5709L111.846 85.1025L119.725 77.0513L122.098 80.0316Z" fill="#484C76"/>
<path d="M76.307 50.9986C76.307 50.9986 96.4853 44.5069 106.924 48.1761C113.865 50.6111 107.455 73.7458 107.455 73.7458L98.0017 74.9035C98.0017 74.9035 96.9541 65.6802 96.0882 60.9777C87.5108 64.5656 62.3286 72.1719 59.731 59.6382C63.6202 57.0645 76.307 50.9986 76.307 50.9986Z" fill="#263238"/>
<path d="M101.772 87.5709L106.278 87.7719L105.9 72.6836L99.2892 73.162L101.772 87.5709Z" fill="#B4836B"/>
<path d="M100.131 90.4556C100.509 89.1926 101.762 88.0302 101.896 85.7578C101.896 85.7578 105.934 85.0977 106.144 86.8294C106.355 88.5612 108.603 91.7998 112.871 93.6129C113.464 93.8664 112.512 95.5264 111.077 95.072C108.685 94.3496 106.967 93.7803 104.939 93.1584C103.207 92.6322 102.647 92.8762 101.246 92.5509C100.088 92.283 99.7628 91.7233 100.131 90.4556Z" fill="#B4836B"/>
<path d="M108.408 75.1187L97.7874 76.7787L97.1224 73.2626L108.216 71.3108L108.408 75.1187Z" fill="#484C76"/>
<path d="M40.0693 33.9616C40.8953 37.3756 41.7305 40.8861 42.6425 44.2926C43.0853 45.9978 43.5796 47.6844 44.0791 49.3322C44.5402 50.8788 45.102 52.3937 45.7609 53.8672C45.8803 54.1219 46.0124 54.3705 46.1567 54.612C46.2015 54.6922 46.2423 54.7458 46.2109 54.7179C46.1794 54.6901 46.2149 54.7445 46.1067 54.6413L45.9718 54.542L45.8745 54.4752L45.7743 54.4251L45.7162 54.4012C45.6882 54.387 45.6591 54.3751 45.6291 54.3655C45.5444 54.3456 45.5918 54.3711 45.6728 54.4024C45.7875 54.4406 45.9049 54.4701 46.024 54.4907C46.3625 54.5606 46.7048 54.6106 47.0492 54.6403C47.8064 54.7108 48.644 54.7365 49.4944 54.7386C50.3448 54.7407 51.2165 54.7396 52.0957 54.7155C55.6078 54.6256 59.2359 54.366 62.8318 54.1819L62.8691 54.1762C63.3454 54.1576 63.8123 54.3107 64.1844 54.6075C64.5565 54.9043 64.8089 55.325 64.8954 55.7925C64.9819 56.26 64.8966 56.7431 64.6553 57.1533C64.4139 57.5635 64.0326 57.8733 63.5811 58.026C60.0273 59.1901 56.3956 60.1017 52.7131 60.754C50.7802 61.1208 48.8222 61.3401 46.8561 61.4099C46.2887 61.4242 45.7209 61.4101 45.155 61.3677C44.8454 61.3384 44.5236 61.3 44.1588 61.23C43.727 61.1547 43.3039 61.0365 42.8958 60.8771C42.7857 60.8339 42.6405 60.7743 42.499 60.7033L42.2871 60.5994L42.0782 60.4787L41.8362 60.3196C41.7427 60.2562 41.6524 60.1882 41.5657 60.1158C41.4429 60.0183 41.3254 59.9145 41.2136 59.8047C40.911 59.5194 40.6312 59.2108 40.3768 58.882C39.9972 58.3828 39.6506 57.8596 39.3392 57.3155C38.8156 56.4059 38.3479 55.4654 37.9386 54.4991C37.5446 53.5856 37.1911 52.6877 36.8535 51.7874C36.1739 49.9929 35.6147 48.202 35.0617 46.4155C33.9753 42.8288 33.0857 39.2831 32.3392 35.6016C32.1453 34.5903 32.3543 33.5432 32.9218 32.6827C33.4893 31.8222 34.3706 31.2161 35.3784 30.9932C36.3862 30.7703 37.4412 30.9481 38.3191 31.4889C39.1971 32.0296 39.8288 32.8908 40.0802 33.8893L40.0693 33.9616Z" fill="#B4836B"/>
<path d="M61.9464 54.0309L66.1652 52.5342L66.8824 58.7532C66.8824 58.7532 61.9677 59.8162 60.8 57.5076L60.9373 55.3944C60.957 55.0888 61.0631 54.7968 61.2424 54.5544C61.4218 54.3121 61.6666 54.1301 61.9464 54.0309Z" fill="#B4836B"/>
<path d="M69.7717 52.2188L72.1157 56.5305L66.8827 58.7533L66.1645 52.5343L69.7717 52.2188Z" fill="#B4836B"/>
<path d="M85.2672 92.4552C84.9612 92.4558 84.6654 92.3453 84.4348 92.1443L0.396942 20.3865C0.159316 20.1583 0.0178803 19.8479 0.00158255 19.5189C-0.0147152 19.1898 0.0953544 18.8669 0.309267 18.6164C0.523179 18.3658 0.824762 18.2064 1.15231 18.1709C1.47986 18.1353 1.80861 18.2263 2.07129 18.4252L86.1044 90.1877C86.3054 90.3584 86.449 90.5869 86.5159 90.842C86.5828 91.0971 86.5697 91.3666 86.4784 91.6141C86.387 91.8615 86.2218 92.0749 86.0052 92.2253C85.7886 92.3758 85.5309 92.456 85.2672 92.4552V92.4552Z" fill="#FF80A1"/>
<path d="M30.1992 92.4553C29.9095 92.454 29.6285 92.3564 29.4003 92.1779C29.2118 92.032 29.0674 91.8368 28.9829 91.6139C28.8985 91.391 28.8774 91.1491 28.9219 90.9149L36.9684 50.7306C37.0014 50.5648 37.0667 50.407 37.1606 50.2664C37.2546 50.1258 37.3753 50.0051 37.5159 49.9111C37.6565 49.8172 37.8142 49.7518 37.98 49.7188C38.1459 49.6859 38.3166 49.6858 38.4825 49.7188C38.6483 49.7518 38.806 49.8171 38.9466 49.9111C39.0872 50.005 39.208 50.1257 39.3019 50.2663C39.3959 50.4069 39.4612 50.5646 39.4942 50.7305C39.5272 50.8963 39.5272 51.0671 39.4942 51.2329L31.9453 88.9296L75.7941 68.8662C75.9483 68.7913 76.1159 68.748 76.2871 68.7387C76.4583 68.7295 76.6296 68.7546 76.7909 68.8125C76.9523 68.8704 77.1004 68.96 77.2267 69.076C77.353 69.1919 77.4548 69.332 77.5262 69.4878C77.5976 69.6437 77.6371 69.8122 77.6425 69.9836C77.6478 70.1549 77.6189 70.3256 77.5573 70.4856C77.4958 70.6456 77.4029 70.7917 77.2841 70.9154C77.1654 71.039 77.0231 71.1376 76.8657 71.2055L30.7207 92.3214C30.5579 92.4015 30.3804 92.4471 30.1992 92.4553V92.4553Z" fill="#FF80A1"/>
</svg>
