<svg width="91" height="92" viewBox="0 0 91 92" fill="none" xmlns="http://www.w3.org/2000/svg">
<path d="M84.754 46.9854L75.9827 55.5521L67.9183 71.03L58.8329 88.505L47.6789 83.2493L35.6348 77.0477L43.3588 62.2531L48.1502 45.6978C44.7726 47.9577 38.4887 51.0323 30.9481 49.4293C22.779 47.6949 26.7064 16.818 26.7064 16.818L35.661 16.5815L36.5512 38.3399L46.684 33.8463L46.7102 33.8726C47.3124 33.6098 47.8622 33.347 48.1241 33.1894C53.7272 30.1148 57.3928 29.7469 63.4149 31.9017L72.0814 34.7923C74.307 35.896 82.5284 39.9429 84.754 46.9854Z" fill="#FFB3C7"/>
<path d="M54.0939 31.2974C54.0939 31.2974 53.8844 31.4025 53.5441 31.6653C53.2037 31.9018 52.7324 32.3222 52.2873 32.9003C51.8422 33.5047 51.3971 34.2931 51.0567 35.2128C50.6901 36.1326 50.4283 37.21 50.1403 38.3136C49.5381 40.521 48.9882 42.5182 48.5955 43.9897C48.386 44.6992 48.2289 45.2774 48.1242 45.6978C48.0718 45.8818 48.0195 46.0394 47.9933 46.1708C47.9671 46.2759 47.9409 46.3285 47.9409 46.3285C47.9409 46.3285 47.9409 46.2759 47.9671 46.1708C47.9933 46.0394 48.0456 45.8818 48.0718 45.6978C48.1766 45.2774 48.3337 44.6993 48.5169 43.9635C48.9097 42.4919 49.4333 40.4947 50.0094 38.2611C50.2974 37.1574 50.5854 36.08 50.9519 35.1603C51.3185 34.2142 51.7636 33.4259 52.2349 32.8478C52.7062 32.2434 53.1775 31.8492 53.5441 31.6127C53.7273 31.5076 53.8582 31.4288 53.963 31.3762C54.0415 31.3236 54.0939 31.2974 54.0939 31.2974Z" fill="#263238"/>
<g opacity="0.3">
<g opacity="0.3">
<path opacity="0.3" d="M50.8214 35.6597C48.3078 42.4657 43.8043 46.2761 37.4419 49.6922C37.4419 49.6922 42.9141 49.2981 47.9674 45.8293" fill="black"/>
</g>
</g>
<g opacity="0.3">
<g opacity="0.3">
<path opacity="0.3" d="M58.8057 30.8242C59.8792 47.8788 60.9265 64.9333 62 82.0142L58.858 88.5049L58.8057 30.8242Z" fill="black"/>
</g>
</g>
<path d="M68.6763 48.5096C68.6502 48.5358 68.3098 47.7212 67.8647 46.7489C67.4196 45.7766 67.0268 45.0146 67.053 44.9883C67.0792 44.9883 67.1839 45.1722 67.3672 45.4613C67.5505 45.7766 67.7599 46.1971 67.9956 46.6964C68.2312 47.1957 68.3883 47.6424 68.5192 47.9577C68.6502 48.2993 68.7025 48.5096 68.6763 48.5096Z" fill="#FAFAFA"/>
<path d="M75.8238 44.9092C75.85 44.9355 75.0907 45.4611 74.1219 46.0655C73.1531 46.6699 72.3677 47.1166 72.3415 47.0903C72.3153 47.0641 73.0746 46.5385 74.0434 45.9341C74.9859 45.356 75.7976 44.883 75.8238 44.9092Z" fill="#FAFAFA"/>
<path d="M72.7097 42.3341C72.6836 42.3341 72.605 41.7034 72.5788 40.9413C72.5265 40.1793 72.5265 39.5486 72.5788 39.5486C72.605 39.5486 72.6836 40.1793 72.7097 40.9413C72.7621 41.7034 72.7621 42.3341 72.7097 42.3341Z" fill="#FAFAFA"/>
<path d="M79.833 41.8347C79.8068 41.8609 79.2308 41.5456 78.55 41.1251C77.8693 40.7047 77.3194 40.3368 77.3456 40.2842C77.3718 40.258 77.9478 40.5733 78.6286 40.9938C79.3094 41.4142 79.8592 41.8084 79.833 41.8347Z" fill="#FAFAFA"/>
<path d="M68.9673 55.9988C68.9412 55.9725 69.2554 55.1579 69.6743 54.1856C70.0932 53.187 70.4598 52.3987 70.5121 52.425C70.5383 52.4512 70.2241 53.2659 69.8052 54.2382C69.3601 55.2367 68.9935 56.0251 68.9673 55.9988Z" fill="#FAFAFA"/>
<path d="M65.7717 59.2312C65.7455 59.2574 65.4575 58.7319 65.1433 58.1012C64.8291 57.4705 64.5935 56.9187 64.6197 56.9187C64.6458 56.8924 64.9339 57.418 65.2481 58.0486C65.5884 58.6793 65.8241 59.2049 65.7717 59.2312Z" fill="#FAFAFA"/>
<path d="M68.4423 63.5671C68.4423 63.5934 67.8662 63.8036 67.1069 63.9087C66.3476 64.0138 65.7192 63.9875 65.7192 63.9613C65.7192 63.9087 66.3476 63.8824 67.0808 63.7773C67.8139 63.6722 68.4161 63.5145 68.4423 63.5671Z" fill="#FAFAFA"/>
<path d="M71.8469 58.8108C71.8208 58.7845 72.0302 58.2327 72.3182 57.5232C72.6062 56.8399 72.8681 56.2881 72.9204 56.2881C72.9466 56.3144 72.7372 56.8662 72.4491 57.5757C72.135 58.2852 71.8731 58.8371 71.8469 58.8108Z" fill="#FAFAFA"/>
<path d="M63.5735 68.8491C63.5474 68.8753 63.1546 68.3498 62.6309 67.7191C62.1073 67.1147 61.636 66.6417 61.6622 66.6154C61.6884 66.5891 62.212 67.0096 62.7357 67.6403C63.2593 68.2447 63.5997 68.8228 63.5735 68.8491Z" fill="#FAFAFA"/>
<path d="M62.0532 58.0749C62.0793 58.1012 61.7913 58.6793 61.3724 59.3888C60.9535 60.0983 60.6131 60.6501 60.5607 60.6501C60.5345 60.6239 60.8226 60.0457 61.2415 59.3362C61.6604 58.6004 62.027 58.0486 62.0532 58.0749Z" fill="#FAFAFA"/>
<path d="M63.127 54.3433C63.127 54.3696 62.4724 54.2382 61.6608 54.0279C60.8491 53.8177 60.2207 53.6338 60.2207 53.5812C60.2207 53.5549 60.8753 53.6863 61.6869 53.8966C62.4986 54.1068 63.1532 54.317 63.127 54.3433Z" fill="#FAFAFA"/>
<path d="M63.0731 46.749C63.0993 46.7228 63.4396 47.222 63.8586 47.8264C64.2775 48.4308 64.6179 48.9039 64.5917 48.9301C64.5655 48.9564 64.1728 48.5097 63.7538 47.9053C63.3087 47.2746 63.0469 46.749 63.0731 46.749Z" fill="#FAFAFA"/>
<path d="M60.6674 46.3548C60.6936 46.3811 60.2747 46.7753 59.751 47.2483C59.2273 47.695 58.7822 48.0629 58.756 48.0366C58.7299 48.0104 59.1488 47.6162 59.6724 47.1432C60.1961 46.6965 60.6412 46.3286 60.6674 46.3548Z" fill="#FAFAFA"/>
<path d="M62.5509 42.3869C62.5247 42.4131 61.9487 41.9401 61.3465 41.2043C60.7443 40.4948 60.3515 39.8379 60.3777 39.8116C60.4039 39.7853 60.849 40.416 61.4512 41.0992C62.0534 41.835 62.5771 42.3606 62.5509 42.3869Z" fill="#FAFAFA"/>
<path d="M69.2554 41.1518C69.2554 41.178 68.6008 41.4146 67.7891 41.6773C66.9774 41.9401 66.2967 42.0978 66.2705 42.0715C66.2705 42.0452 66.9251 41.8087 67.7368 41.5459C68.5746 41.2832 69.2554 41.1255 69.2554 41.1518Z" fill="#FAFAFA"/>
<path d="M59.8278 34.7398C59.7755 34.7398 59.8017 34.1354 59.7231 33.3996C59.6446 32.6638 59.4613 32.0857 59.5137 32.0857C59.5398 32.0857 59.7755 32.6375 59.854 33.3996C59.9326 34.1354 59.854 34.7661 59.8278 34.7398Z" fill="#FAFAFA"/>
<path d="M53.8842 53.8177C53.8842 53.844 53.6485 54.0017 53.2558 54.2645C52.863 54.5272 52.3394 54.9214 51.7633 55.3682C51.1873 55.8149 50.6898 56.2353 50.3495 56.5507C49.9829 56.866 49.7734 57.05 49.7734 57.05C49.7734 57.05 49.9567 56.8135 50.2971 56.4981C50.6375 56.1565 51.1349 55.736 51.6848 55.2893C52.2608 54.8426 52.7845 54.4747 53.2034 54.2119C53.5961 53.9229 53.858 53.7915 53.8842 53.8177Z" fill="#FAFAFA"/>
<path d="M53.5176 51.6893C53.4915 51.7156 53.0464 51.0324 52.4442 50.2178C51.8419 49.4031 51.2921 48.7987 51.3183 48.7725C51.3445 48.7725 51.4754 48.9039 51.711 49.1404C51.9467 49.3769 52.2347 49.7185 52.5489 50.1389C52.8631 50.5331 53.0987 50.9273 53.282 51.2163C53.4653 51.5054 53.5438 51.6893 53.5176 51.6893Z" fill="#FAFAFA"/>
<path d="M55.1146 43.3854C55.1408 43.4117 54.5648 43.7533 53.8579 44.1475C53.1509 44.5417 52.5487 44.8307 52.5487 44.8045C52.5225 44.7782 53.0985 44.4366 53.8055 44.0424C54.5124 43.6482 55.1146 43.3592 55.1146 43.3854Z" fill="#FAFAFA"/>
<path d="M53.5454 39.7591C53.5454 39.7854 53.3621 39.654 53.1003 39.3912C52.8384 39.1547 52.498 38.8131 52.1577 38.3926C51.8173 37.9722 51.5293 37.578 51.3722 37.2626C51.1889 36.9473 51.1104 36.7634 51.1104 36.7634C51.1365 36.7371 51.5816 37.4991 52.2624 38.3138C52.9432 39.1547 53.5715 39.7328 53.5454 39.7591Z" fill="#FAFAFA"/>
<path d="M56.2688 39.68C56.2426 39.6537 56.4521 39.1544 56.7401 38.5238C57.0281 37.8931 57.3161 37.4201 57.3423 37.4464C57.3685 37.4726 57.159 37.9719 56.871 38.6026C56.5568 39.207 56.295 39.7063 56.2688 39.68Z" fill="#FAFAFA"/>
<path d="M55.5337 35.5282C55.4813 35.5282 55.5337 34.7136 55.3766 33.715C55.2195 32.7164 54.9314 31.9543 54.9838 31.9543C55.01 31.9543 55.0886 32.1383 55.1933 32.4536C55.298 32.769 55.4289 33.2157 55.5075 33.715C55.586 34.2143 55.6122 34.6873 55.586 35.0026C55.586 35.3442 55.5598 35.5282 55.5337 35.5282Z" fill="#FAFAFA"/>
<path d="M56.2142 56.4719C56.1881 56.4719 56.2142 56.1828 56.2142 55.7098C56.2404 55.2368 56.2404 54.5798 56.2142 53.8703C56.1881 53.1608 56.1619 52.5039 56.1095 52.0309C56.0571 51.5579 56.031 51.2688 56.0571 51.2688C56.0833 51.2688 56.1357 51.5579 56.2142 52.0309C56.2666 52.5039 56.3452 53.1608 56.3713 53.8966C56.3975 54.6324 56.3713 55.2894 56.319 55.7624C56.2666 56.1828 56.2142 56.4719 56.2142 56.4719Z" fill="#FAFAFA"/>
<path d="M55.8216 63.0152C55.7954 63.0414 55.3503 62.5159 54.6696 62.0691C53.9888 61.6224 53.308 61.4385 53.3342 61.4122C53.3342 61.3859 54.0412 61.491 54.7481 61.964C55.4289 62.4108 55.8478 62.9889 55.8216 63.0152Z" fill="#FAFAFA"/>
<path d="M59.093 67.0618C59.1192 67.0881 58.3075 67.5611 57.2864 68.0604C56.2652 68.5859 55.4536 68.9801 55.4274 68.9538C55.4012 68.9275 56.2129 68.4808 57.234 67.9553C58.2289 67.4297 59.0668 67.0355 59.093 67.0618Z" fill="#FAFAFA"/>
<path d="M49.8523 68.8489C49.8261 68.8752 49.2239 68.1131 48.517 67.1671C47.81 66.2211 47.2602 65.4064 47.3125 65.4064C47.3387 65.3801 47.9409 66.1422 48.6479 67.0882C49.3548 68.0343 49.9046 68.8226 49.8523 68.8489Z" fill="#FAFAFA"/>
<path d="M47.0261 61.3859C46.9999 61.3859 46.9737 61.1757 46.9737 60.834C46.9476 60.4924 46.9476 60.0457 46.9737 59.5201C46.9999 59.0208 47.0523 58.5478 47.0785 58.2062C47.1308 57.8646 47.157 57.6807 47.1832 57.6807C47.2094 57.6807 47.1308 58.4953 47.1047 59.5201C47.0523 60.545 47.0523 61.3859 47.0261 61.3859Z" fill="#FAFAFA"/>
<path d="M43.9331 74.1308C43.9069 74.157 43.2261 73.6315 42.4145 72.9482C41.6028 72.265 40.9482 71.6869 40.9744 71.6606C41.0006 71.6343 41.6813 72.1599 42.493 72.8431C43.3309 73.5264 43.9592 74.1045 43.9331 74.1308Z" fill="#FAFAFA"/>
<path d="M45.7938 73.7366C45.7676 73.7366 45.7153 72.8169 45.6891 71.6869C45.6629 70.5569 45.6629 69.6372 45.7153 69.6372C45.7414 69.6372 45.7938 70.5569 45.82 71.6869C45.8462 72.8169 45.82 73.7366 45.7938 73.7366Z" fill="#FAFAFA"/>
<path d="M49.4344 81.6465C49.4344 81.6727 49.1202 81.5414 48.5703 81.3574C48.0467 81.1997 47.3136 80.9895 46.4757 80.8844C45.6378 80.7793 44.8785 80.753 44.3287 80.7793C43.7789 80.8056 43.4385 80.8318 43.4385 80.8056C43.4385 80.8056 43.517 80.7793 43.6741 80.753C43.8312 80.7267 44.0407 80.7004 44.3287 80.6742C44.8785 80.6216 45.664 80.6216 46.5019 80.7267C47.3397 80.8318 48.099 81.0683 48.6227 81.2523C48.8845 81.3574 49.094 81.4362 49.2249 81.5151C49.3558 81.5939 49.4344 81.6465 49.4344 81.6465Z" fill="#FAFAFA"/>
<path d="M52.4189 83.0917C52.4189 83.0654 52.6546 83.2231 53.0211 83.5121C53.3615 83.7749 53.8328 84.1954 54.3041 84.6684C54.7754 85.1414 55.1943 85.6144 55.4562 85.956C55.718 86.2976 55.8751 86.5341 55.8751 86.5604C55.8489 86.5604 55.6918 86.3502 55.4038 86.0349C55.1158 85.6932 54.6969 85.2465 54.2256 84.7735C53.7543 84.3005 53.3092 83.88 52.9688 83.591C52.6284 83.3019 52.4189 83.118 52.4189 83.0917Z" fill="#FAFAFA"/>
<path d="M53.7257 69.4008C53.6996 69.4271 53.3854 68.7176 53.045 67.8767C52.7046 67.0095 52.469 66.3 52.4951 66.3C52.5213 66.2737 52.8355 66.9833 53.1759 67.8242C53.5163 68.6913 53.7781 69.4008 53.7257 69.4008Z" fill="#FAFAFA"/>
<path d="M43.2291 42.7811C43.2291 42.7811 43.0982 42.965 42.8364 43.2278C42.5746 43.4906 42.1818 43.8059 41.7105 44.1213C41.2392 44.4366 40.7941 44.6731 40.4538 44.8308C40.1134 44.9884 39.9039 45.041 39.9039 45.041C39.8777 45.0147 40.7156 44.6468 41.632 44.0161C42.5484 43.3855 43.1768 42.7548 43.2291 42.7811Z" fill="#FAFAFA"/>
<path d="M43.8823 39.9955C43.8561 39.9955 43.8299 39.4699 43.8823 38.813C43.9085 38.156 43.9608 37.6567 44.0132 37.6567C44.0394 37.6567 44.0656 38.1823 44.0132 38.8393C43.987 39.4699 43.9347 39.9955 43.8823 39.9955Z" fill="#FAFAFA"/>
<path d="M38.6721 42.3342C38.6459 42.3605 38.0437 42.124 37.3106 41.7824C36.5775 41.4408 36.0015 41.1517 36.0015 41.0992C36.0276 41.0729 36.6299 41.3094 37.363 41.651C38.0961 41.9926 38.6721 42.308 38.6721 42.3342Z" fill="#FAFAFA"/>
<path d="M47.9932 38.7602C47.967 38.7602 47.967 38.1033 48.0456 37.3149C48.0979 36.5266 48.1765 35.8696 48.2288 35.8696C48.255 35.8696 48.255 36.5266 48.1765 37.3149C48.0979 38.1296 48.0194 38.7602 47.9932 38.7602Z" fill="#FAFAFA"/>
<path d="M35.8984 47.905C35.8984 47.9313 35.1915 47.7211 34.406 47.2481C33.6205 46.7751 33.0968 46.2495 33.123 46.2232C33.1492 46.1969 33.699 46.6699 34.4845 47.1167C35.2438 47.5897 35.8984 47.8525 35.8984 47.905Z" fill="#FAFAFA"/>
<path d="M31.9953 42.5444C32.0215 42.5706 31.524 43.175 30.8695 43.8845C30.2149 44.5941 29.6912 45.1459 29.6651 45.1196C29.6389 45.0933 30.1363 44.489 30.7909 43.7794C31.4455 43.0699 31.9691 42.5181 31.9953 42.5444Z" fill="#FAFAFA"/>
<path d="M31.6814 37.7619C31.6552 37.7881 31.0792 37.5516 30.4508 37.0786C29.8224 36.6056 29.4296 36.1063 29.4558 36.1063C29.482 36.0801 29.9271 36.5268 30.5293 36.9735C31.1577 37.4202 31.6814 37.7356 31.6814 37.7619Z" fill="#FAFAFA"/>
<path d="M29.246 38.7603C29.2721 38.7866 29.0365 39.1282 28.6961 39.5224C28.3557 39.9166 28.0677 40.2319 28.0415 40.2056C28.0154 40.1793 28.251 39.8377 28.5914 39.4436C28.9056 39.0494 29.1936 38.734 29.246 38.7603Z" fill="#FAFAFA"/>
<path d="M34.4811 29.8783C34.5073 29.9046 34.0622 30.509 33.46 31.2448C32.8578 31.9806 32.3603 32.5324 32.3341 32.5324C32.3079 32.5061 32.753 31.9017 33.3552 31.1659C33.9313 30.4301 34.4549 29.852 34.4811 29.8783Z" fill="#FAFAFA"/>
<path d="M29.9811 30.8769C29.9549 30.9032 29.4574 30.3777 28.8552 29.6944C28.2792 29.0112 27.8079 28.4594 27.834 28.4331C27.8602 28.4068 28.3577 28.9324 28.9599 29.6156C29.5621 30.2988 30.0072 30.8507 29.9811 30.8769Z" fill="#FAFAFA"/>
<path d="M32.2319 25.1744C32.2057 25.2006 31.8392 24.6225 31.4464 23.9393C31.0537 23.2298 30.7395 22.6517 30.7919 22.6254C30.818 22.5991 31.1846 23.1772 31.5773 23.8605C31.9701 24.57 32.2581 25.1744 32.2319 25.1744Z" fill="#FAFAFA"/>
<path d="M32.1262 21.4956C32.1001 21.4693 32.4928 20.97 32.807 20.2605C33.1212 19.551 33.2259 18.9203 33.2783 18.9466C33.3045 18.9466 33.2521 19.6036 32.9379 20.3131C32.5975 21.0489 32.1262 21.5219 32.1262 21.4956Z" fill="#FAFAFA"/>
<path d="M27.7801 21.2853C27.7539 21.2853 27.7016 20.5232 28.0943 19.6823C28.2776 19.2619 28.5394 18.9203 28.7227 18.71C28.9322 18.4998 29.0631 18.3684 29.0893 18.3947C29.1154 18.421 28.5656 18.9203 28.199 19.7349C27.8587 20.5495 27.8325 21.2853 27.7801 21.2853Z" fill="#FAFAFA"/>
<path d="M65.5325 15.0309C65.454 13.9272 65.3754 12.8498 65.4802 11.7462C65.6111 10.6687 65.9776 9.56506 66.6846 8.75044C67.3915 7.90954 68.4912 7.38397 69.5909 7.51536C70.2716 7.5942 70.9 7.93582 71.5546 7.90954C72.3401 7.88326 73.0208 7.41025 73.7278 7.06864C74.8275 6.56935 76.1104 6.43796 77.2887 6.70074C77.917 6.83213 78.5193 7.09491 78.9905 7.56792C79.4357 8.01465 79.6975 8.69788 79.5404 9.32856C80.3259 9.32856 81.1375 9.32856 81.8969 9.53879C82.6562 9.74901 83.3893 10.1695 83.782 10.8527C84.1748 11.5359 84.1486 12.4819 83.5987 13.0338C84.3319 12.8761 85.0912 13.4542 85.2744 14.1638C85.4577 14.8995 85.0912 15.6879 84.489 16.1083C83.8868 16.5551 82.7609 16.739 82.0539 16.6076C81.3208 16.4762 80.483 16.266 79.9069 15.8193" fill="#263238"/>
<path d="M64.9578 39.785C67.9688 40.5733 71.0322 38.7601 71.8177 35.7381C72.2628 34.0563 72.6294 32.6373 72.6294 32.6373C72.6294 32.6373 77.0019 33.3994 78.442 29.2211C79.8821 25.0692 82.3694 15.2411 82.3694 15.2411C78.2587 11.5359 72.4461 10.3797 67.2357 12.1928L66.4502 12.4556L60.8994 32.7687C60.0878 35.8432 61.9206 38.9966 64.9578 39.785Z" fill="#B65B52"/>
<path d="M72.6818 32.5848C72.6818 32.5848 69.985 31.9016 67.7856 29.2212C67.7856 29.2212 68.0737 32.6636 72.3415 33.6885L72.6818 32.5848Z" fill="#AA6550"/>
<path d="M65.5601 16.9755C65.5077 16.923 62.9941 15.1623 62.1301 18.0529C61.2661 20.9435 64.3295 21.2063 64.3557 21.1275C64.3818 21.0224 65.5601 16.9755 65.5601 16.9755Z" fill="#B65B52"/>
<path d="M63.8043 19.761C63.8043 19.761 63.7519 19.7873 63.6472 19.7873C63.5424 19.7873 63.4115 19.7873 63.2806 19.6822C63.0188 19.4719 62.8879 18.9201 63.045 18.3945C63.1235 18.1318 63.2544 17.8953 63.4115 17.7113C63.5686 17.5274 63.7519 17.4222 63.909 17.4485C64.0661 17.4485 64.1446 17.5799 64.1708 17.685C64.197 17.7901 64.1446 17.8164 64.1708 17.8427C64.1708 17.8427 64.2494 17.8164 64.2494 17.685C64.2494 17.6325 64.2494 17.5536 64.197 17.4748C64.1446 17.396 64.0399 17.3434 63.9352 17.3171C63.6995 17.2646 63.4377 17.4222 63.2806 17.6062C63.0973 17.7901 62.9402 18.0529 62.8617 18.3683C62.7046 18.9464 62.8355 19.5771 63.2282 19.8398C63.4115 19.945 63.5948 19.945 63.6995 19.8924C63.7781 19.8136 63.8043 19.761 63.8043 19.761Z" fill="#B65B52"/>
<path d="M78.861 21.2586C78.7562 21.574 78.4158 21.7579 78.0755 21.6791C77.7351 21.574 77.5518 21.2586 77.6303 20.9433C77.7351 20.628 78.0755 20.444 78.4158 20.5228C78.7824 20.628 78.9657 20.9433 78.861 21.2586Z" fill="#263238"/>
<path d="M79.6451 20.8646C79.5404 20.9172 79.2 20.4442 78.5716 20.2077C77.9432 19.9974 77.3672 20.1551 77.3148 20.05C77.2886 19.9974 77.4195 19.8923 77.6814 19.8135C77.9432 19.7347 78.3359 19.7084 78.7287 19.8398C79.1214 19.9712 79.4094 20.234 79.5665 20.4442C79.6713 20.6807 79.6975 20.8383 79.6451 20.8646Z" fill="#263238"/>
<path d="M72.5758 19.1566C72.4711 19.4719 72.1307 19.6559 71.7903 19.577C71.4499 19.4719 71.2666 19.1566 71.3452 18.8412C71.4499 18.5259 71.7903 18.342 72.1307 18.4208C72.4972 18.4996 72.6805 18.8412 72.5758 19.1566Z" fill="#263238"/>
<path d="M73.3365 18.8676C73.2318 18.9201 72.8914 18.4471 72.263 18.2106C71.6346 18.0004 71.0586 18.158 71.0062 18.0529C70.98 18.0004 71.1109 17.8953 71.3728 17.8164C71.6346 17.7376 72.0274 17.7113 72.4201 17.8427C72.8128 17.9741 73.1009 18.2369 73.258 18.4471C73.3627 18.6836 73.3627 18.8413 73.3365 18.8676Z" fill="#263238"/>
<path d="M72.027 24.2284C72.1318 24.2546 71.8961 24.9642 72.3412 25.6474C72.7602 26.3306 73.5457 26.5146 73.5195 26.6197C73.5195 26.6722 73.31 26.6985 72.9958 26.5934C72.6816 26.4883 72.2627 26.2518 72.0009 25.8313C71.739 25.4109 71.7129 24.9379 71.7914 24.6488C71.8438 24.3335 71.9747 24.2021 72.027 24.2284Z" fill="#263238"/>
<path d="M79.7773 19.6559C79.6202 19.761 79.2274 19.4719 78.7038 19.288C78.1801 19.0777 77.6826 19.0515 77.6303 18.8675C77.6041 18.7887 77.735 18.6573 77.9706 18.5785C78.2063 18.4996 78.5728 18.4996 78.9394 18.631C79.306 18.7624 79.5678 18.9989 79.6987 19.2091C79.8558 19.4194 79.8558 19.6033 79.7773 19.6559Z" fill="#263238"/>
<path d="M73.2576 16.2659C73.1528 16.3184 72.9957 16.2396 72.8124 16.1082C72.603 16.0031 72.3673 15.8454 72.0531 15.7403C71.7389 15.6352 71.4771 15.5563 71.2415 15.5301C71.0058 15.4775 70.8487 15.4512 70.7964 15.3461C70.7702 15.241 70.8749 15.0833 71.1629 14.9782C71.4509 14.8731 71.8699 14.8468 72.315 15.0045C72.7601 15.1622 73.0743 15.4775 73.2052 15.7403C73.3623 16.0294 73.3623 16.2133 73.2576 16.2659Z" fill="#263238"/>
<path d="M82.1848 16.6078C82.1848 16.6078 79.0952 16.6078 76.2151 14.2428C74.3299 12.6924 71.9734 11.615 71.345 11.9303C70.6905 12.2456 70.0883 14.4004 67.8365 14.5581C67.8365 14.5581 67.0249 18.7626 65.4015 18.2371C63.7782 17.7115 66.2656 11.4573 66.2656 11.4573L70.7952 10.3799L75.4296 10.5376L79.5927 11.4836L83.1797 13.5595L82.1848 16.6078Z" fill="#263238"/>
<path d="M58.8353 0.0795898H0.0546875V91.9482H58.8353V0.0795898Z" fill="#FAFAFA"/>
<path d="M58.8592 91.9474C58.8592 91.3693 58.833 54.0806 58.8068 0.0788346L58.8592 0.131391C40.8192 0.131391 20.9463 0.131391 0.0785476 0.131391L0.157097 0.0525564C0.157097 34.8186 0.157098 66.8255 0.130915 91.9212L0.0785476 91.8686C35.9753 91.9212 58.4141 91.9474 58.8592 91.9474C58.4141 91.9474 35.9753 91.9737 0.0785476 92H0.0261825V91.9474C0.0261825 66.8255 0.0261829 34.8186 0 0.0788346V0H0.0785476C20.9463 0 40.8192 0 58.8592 0H58.9116V0.0525564C58.8854 54.0806 58.8592 91.3693 58.8592 91.9474Z" fill="#263238"/>
<rect x="31" y="73" width="19" height="9" rx="4.5" fill="#FF80A1"/>
<path d="M59.4088 80.8579L62.446 79.3863L60.7703 74.4197L57.1047 73.5788C56.7643 73.5 56.3716 73.4211 55.9527 73.2897C55.4552 73.1583 54.9839 72.9218 54.565 72.6328C54.0413 72.2649 53.3867 71.7656 53.0987 71.3977C52.7584 70.9247 51.9991 71.1086 52.0252 71.6342C52.0252 72.1598 52.9416 73.5 54.6173 74.446C56.2669 75.392 53.3606 75.8387 52.2871 76.0227C51.2397 76.2066 47.9669 76.9424 47.7836 77.3103C47.4956 77.8621 48.0454 78.2563 49.0927 78.0461C50.1662 77.8359 53.3606 77.4417 53.4391 77.9935C53.4391 77.9935 53.4391 77.9935 53.4391 78.0198C52.9155 78.8344 52.9678 79.9381 53.57 80.7002C54.1722 81.436 55.0363 82.382 55.6908 82.2243C56.9214 81.9353 59.4088 80.8579 59.4088 80.8579Z" fill="#B65B52"/>
<path d="M59.2256 72.1336L62.0795 81.8303L84.2565 75.0768C89.0217 73.6315 91.6662 68.5072 90.1214 63.7509L84.6754 46.7751L72.8669 49.7183L79.3602 65.4327L59.2256 72.1336Z" fill="#FFB3C7"/>
<path d="M84.7542 74.8929C84.7542 74.8929 84.728 74.9192 84.6494 74.9192C84.5709 74.9455 84.4661 74.9717 84.3352 75.0243C84.0472 75.1031 83.6283 75.2345 83.1046 75.4185C82.005 75.7601 80.434 76.2331 78.4441 76.8375C74.4643 78.0463 68.8349 79.7544 62.2892 81.7515L62.2369 81.7778L62.2107 81.7252C61.2157 78.7558 60.2731 75.4973 59.1473 72.16L59.1211 72.1074L59.1735 72.0811C59.3567 72.0286 59.54 71.9497 59.7233 71.8972C67.1069 69.427 73.9406 67.1671 79.3081 65.3802L79.2819 65.459C77.711 61.6487 76.428 58.5216 75.5378 56.3405C75.0927 55.2631 74.7523 54.4222 74.5166 53.8178C74.4119 53.5287 74.3072 53.3185 74.2548 53.1608C74.2024 53.0032 74.1763 52.9243 74.1763 52.9243C74.1763 52.9243 74.2024 53.0032 74.281 53.1345C74.3334 53.2922 74.4381 53.5024 74.569 53.7915C74.8047 54.3696 75.1712 55.2105 75.6163 56.2879C76.5065 58.469 77.8157 61.5698 79.3867 65.3802L79.4128 65.4327L79.3605 65.459C73.993 67.2459 67.1854 69.5321 59.8018 72.0023C59.6186 72.0548 59.4091 72.1337 59.252 72.1862L59.3044 72.1074C60.4041 75.4447 61.3728 78.7295 62.3416 81.6727L62.263 81.6201C68.8088 79.6493 74.4381 77.9674 78.4179 76.7586C80.4078 76.1543 82.005 75.6812 83.0785 75.3659C83.6283 75.2082 84.0472 75.0768 84.3352 74.998C84.4661 74.9455 84.5709 74.9192 84.6494 74.9192C84.728 74.8929 84.7542 74.8929 84.7542 74.8929Z" fill="#263238"/>
<path d="M83.4697 68.2184C83.4435 68.2184 83.3126 67.9818 82.9984 67.6139C82.7104 67.2461 82.2391 66.7731 81.6369 66.3789C81.0347 65.9847 80.4325 65.7482 79.9612 65.6168C79.5161 65.4854 79.2019 65.4591 79.2281 65.4329C79.2281 65.4329 79.3066 65.4329 79.4375 65.4329C79.5685 65.4329 79.7517 65.4854 79.9874 65.538C80.4587 65.6431 81.0871 65.8796 81.7155 66.3C82.3177 66.7205 82.789 67.1935 83.077 67.5877C83.2079 67.7716 83.3126 67.9556 83.3912 68.0607C83.4435 68.1658 83.4697 68.2184 83.4697 68.2184Z" fill="#263238"/>
<path d="M78.0786 50.5066C78.0524 50.5066 78 49.8759 78 49.0613C78 48.2729 78.0262 47.616 78.0786 47.616C78.1047 47.616 78.1571 48.2466 78.1571 49.0613C78.1571 49.8759 78.1309 50.5066 78.0786 50.5066Z" fill="#FAFAFA"/>
<path d="M82.5283 50.7433C82.5021 50.7433 82.2665 50.1389 82.057 49.3768C81.8214 48.6147 81.6643 47.9578 81.7166 47.9578C81.7428 47.9578 81.9785 48.5622 82.1879 49.3242C82.4236 50.0863 82.5807 50.7433 82.5283 50.7433Z" fill="#FAFAFA"/>
<path d="M79.7778 54.7638C79.7778 54.7901 79.1494 54.7901 78.4425 54.5536C77.7094 54.3434 77.1857 54.028 77.2119 54.0018C77.2381 53.9755 77.7879 54.212 78.4948 54.4222C79.1756 54.6587 79.7778 54.7376 79.7778 54.7638Z" fill="#FAFAFA"/>
<path d="M84.8073 56.9973C84.7811 56.9973 84.8335 56.3666 84.9644 55.6308C85.0954 54.8687 85.2263 54.2643 85.2786 54.2906C85.3048 54.2906 85.2525 54.9213 85.1215 55.6571C84.9906 56.3929 84.8597 56.9973 84.8073 56.9973Z" fill="#FAFAFA"/>
<path d="M82.9995 60.6237C82.9734 60.65 82.6854 60.0719 82.345 59.3624C82.0308 58.6529 81.7951 58.0485 81.8213 58.0485C81.8475 58.0222 82.1355 58.6003 82.4759 59.3098C82.8163 60.0193 83.0519 60.5975 82.9995 60.6237Z" fill="#FAFAFA"/>
<path d="M82.2652 63.777C82.239 63.8033 81.6892 63.5668 81.0346 63.2515C80.3539 62.9361 79.8302 62.6471 79.8564 62.5945C79.8826 62.5682 80.4324 62.8047 81.087 63.1201C81.7678 63.4617 82.2914 63.7508 82.2652 63.777Z" fill="#FAFAFA"/>
<path d="M87.9502 62.9363C87.9764 62.9626 87.7407 63.4881 87.4527 64.1451C87.1647 64.802 86.9552 65.3539 86.9291 65.3276C86.9029 65.3276 87.0338 64.7495 87.3218 64.0925C87.6098 63.4356 87.8978 62.9363 87.9502 62.9363Z" fill="#FAFAFA"/>
<path d="M86.3525 70.5831C86.3263 70.5831 86.2216 69.9261 86.1431 69.1115C86.0645 68.2968 86.0383 67.6399 86.0645 67.6399C86.0907 67.6399 86.1954 68.2968 86.274 69.1115C86.3787 69.8998 86.4049 70.5568 86.3525 70.5831Z" fill="#FAFAFA"/>
<path d="M82.37 72.9747C82.3438 73.001 81.8725 72.6068 81.3227 72.1076C80.7728 71.6083 80.3539 71.1616 80.3801 71.1353C80.4063 71.109 80.8775 71.5032 81.4274 72.0025C81.951 72.528 82.3962 72.9485 82.37 72.9747Z" fill="#FAFAFA"/>
<path d="M75.4594 73.6841C75.4856 73.7104 75.119 74.2359 74.6477 74.8929C74.1764 75.5499 73.7575 76.0491 73.7313 76.0229C73.7051 75.9966 74.0717 75.471 74.543 74.8141C75.0143 74.1571 75.4332 73.6578 75.4594 73.6841Z" fill="#FAFAFA"/>
<path d="M77.6312 70.4254C77.605 70.4516 77.1075 70.0575 76.5577 69.4793C76.034 68.9012 75.6675 68.3757 75.7198 68.3494C75.746 68.3231 76.1387 68.8224 76.6624 69.4005C77.2122 69.9786 77.6573 70.3991 77.6312 70.4254Z" fill="#FAFAFA"/>
<path d="M72.42 71.1614C72.42 71.1876 71.9749 71.3453 71.3727 71.2928C70.7705 71.2402 70.3516 71.0563 70.3516 71.0037C70.3777 70.9774 70.7967 71.1088 71.3727 71.1351C71.9487 71.1876 72.42 71.1351 72.42 71.1614Z" fill="#FAFAFA"/>
<path d="M69.1226 76.9163C69.0964 76.9163 68.9655 76.417 68.8607 75.7864C68.756 75.1557 68.7036 74.6301 68.7298 74.6301C68.756 74.6301 68.8869 75.1294 68.9916 75.7601C69.0964 76.3908 69.1749 76.9163 69.1226 76.9163Z" fill="#FAFAFA"/>
<path d="M65.2212 78.887C65.195 78.9133 64.619 78.5717 63.912 78.1249C63.2051 77.6782 62.6553 77.284 62.6553 77.2578C62.6815 77.2315 63.2575 77.5731 63.9644 78.0198C64.6975 78.4666 65.2474 78.8607 65.2212 78.887Z" fill="#FAFAFA"/>
<path d="M66.6364 71.8969C66.6626 71.9232 66.2961 72.3699 65.8509 72.9743C65.432 73.5525 65.1178 74.078 65.0916 74.0517C65.0655 74.0255 65.3273 73.4999 65.7462 72.8955C66.1651 72.2911 66.6103 71.8706 66.6364 71.8969Z" fill="#FAFAFA"/>
<path d="M63.5967 73.2374C63.5705 73.2637 63.2301 73.1323 62.8374 72.9221C62.4184 72.7119 62.1042 72.5279 62.1304 72.5016C62.1566 72.4753 62.497 72.6067 62.8897 72.817C63.3087 73.0009 63.6229 73.1849 63.5967 73.2374Z" fill="#FAFAFA"/>
<g opacity="0.2">
<g opacity="0.2">
<path opacity="0.2" d="M79.1768 65.0122C80.355 65.1436 81.5594 65.2487 82.7376 65.4064C83.1566 65.459 83.5493 65.5115 83.9421 65.6692C84.3086 65.8269 84.6752 66.1159 84.8061 66.5101C84.937 66.9043 84.8323 67.4035 84.4657 67.6138C84.1515 67.824 83.7326 67.7452 83.3922 67.5612C83.0518 67.3773 82.79 67.1145 82.502 66.8517C81.9783 66.405 81.3499 66.0896 80.6954 65.9057C80.4074 65.8269 80.0932 65.7743 79.8313 65.5904C79.5695 65.4327 79.3862 65.1173 79.4648 64.802" fill="black"/>
</g>
</g>
<rect x="5" y="5" width="34" height="2" fill="#24263B"/>
<rect opacity="0.8" x="5" y="11" width="45" height="1" fill="#24263B"/>
<rect opacity="0.8" x="5" y="29" width="45" height="1" fill="#24263B"/>
<rect opacity="0.8" x="5" y="14" width="45" height="1" fill="#24263B"/>
<rect opacity="0.8" x="5" y="32" width="45" height="1" fill="#24263B"/>
<rect opacity="0.8" x="5" y="17" width="45" height="1" fill="#24263B"/>
<rect opacity="0.8" x="5" y="35" width="45" height="1" fill="#24263B"/>
<rect opacity="0.8" x="5" y="20" width="45" height="1" fill="#24263B"/>
<rect opacity="0.8" x="5" y="38" width="45" height="1" fill="#24263B"/>
<rect opacity="0.8" x="5" y="23" width="45" height="1" fill="#24263B"/>
<rect opacity="0.8" x="5" y="41" width="45" height="1" fill="#24263B"/>
<rect opacity="0.8" x="5" y="26" width="45" height="1" fill="#24263B"/>
<rect opacity="0.8" x="5" y="44" width="45" height="1" fill="#24263B"/>
</svg>
