<svg width="62" height="92" fill="none" xmlns="http://www.w3.org/2000/svg"><path d="M34.048 34.021c4.39.11 8.826.228 13.07 1.348s8.343 3.358 10.861 6.946c2.772 3.949 3.323 8.998 3.601 13.813.463 7.983.41 16.005-.376 23.962-.397 4.035-1.832 7.78-5.592 9.317-4.523 1.847-10.601 0-10.601 0" fill="#263238"/><path d="M45.82 88.444s.056-.006.165-.01c.116-.002.279-.002.49-.008l1.875-.015c.815-.006 1.814.006 2.958-.154.284-.047.58-.08.88-.156.151-.033.302-.068.456-.1.154-.042.309-.09.463-.137.317-.082.625-.215.948-.334.311-.145.64-.28.949-.47a6.854 6.854 0 001.763-1.407 5.375 5.375 0 001.162-2.128c.42-1.65.598-3.473.666-5.388.06-1.918.039-3.937.057-6.027l.03-6.473c.008-2.217.032-4.384-.04-6.47-.073-2.087-.236-4.1-.565-5.989-.64-3.78-1.968-7.058-3.678-9.405-.85-1.174-1.784-2.11-2.62-2.903a54.822 54.822 0 00-2.226-1.957c-.622-.517-1.105-.922-1.44-1.2-.16-.136-.285-.24-.373-.316a2.442 2.442 0 01-.125-.112s.048.032.133.1c.092.071.217.172.383.302.338.272.83.668 1.458 1.176a51.93 51.93 0 012.246 1.94c.845.788 1.785 1.722 2.65 2.902 1.734 2.352 3.079 5.648 3.731 9.444.335 1.897.5 3.916.578 6.009.074 2.092.053 4.259.041 6.476-.011 2.217-.02 4.38-.032 6.473-.018 2.09 0 4.106-.065 6.03-.072 1.921-.252 3.754-.685 5.418a5.493 5.493 0 01-1.194 2.172 6.933 6.933 0 01-1.8 1.422c-.313.19-.645.325-.962.47-.33.118-.64.251-.96.331-.16.044-.315.095-.469.133l-.462.1c-.303.074-.602.107-.89.151-1.152.154-2.154.133-2.969.13-.809-.005-1.44-.011-1.876-.014-.21-.003-.373-.006-.489-.01-.106.01-.163.004-.163.004z" fill="#455A64"/><path d="M58.747 66.79c-.011-.039.67-.237 1.538-.275.869-.042 1.565.091 1.56.13-.007.044-.7-.018-1.55.023-.854.039-1.539.166-1.548.121z" fill="#455A64"/><path d="M39.783 34.252c0-.003.038-.003.112-.003.083.003.193.003.335.006.294.012.73.009 1.287.047 1.108.113 2.726.328 4.623.985.234.085.474.174.72.266.121.044.246.091.373.139.122.056.246.109.37.168.25.112.505.228.762.346.261.115.507.266.771.399 1.043.544 2.098 1.238 3.141 2.048a21.61 21.61 0 013.023 2.835 15.867 15.867 0 012.445 3.71c1.322 2.763 1.894 5.654 2.187 8.27.279 2.624.29 5 .309 6.993.005 1.992.011 3.603.041 4.715a590.863 590.863 0 00.045 1.616c0 .074 0 .113-.003.116-.003 0-.006-.039-.015-.113-.006-.082-.015-.192-.024-.334a50.96 50.96 0 01-.065-1.28c-.047-1.114-.068-2.725-.089-4.717-.03-1.99-.053-4.363-.338-6.979-.3-2.604-.874-5.477-2.184-8.217a15.673 15.673 0 00-2.421-3.677 21.698 21.698 0 00-2.997-2.822 21.097 21.097 0 00-3.114-2.049c-.258-.136-.507-.284-.762-.402l-.756-.346a43.573 43.573 0 01-.367-.168c-.125-.047-.246-.095-.37-.14-.244-.09-.484-.182-.715-.268-1.879-.665-3.488-.896-4.593-1.026-.555-.047-.99-.056-1.28-.077-.14-.008-.253-.014-.336-.02a3.518 3.518 0 00-.115-.021z" fill="#E0E0E0"/><path d="M37.039 34.24s1.075-2.835 4.907-2.297c0 0 1.707-.094 2.019.854 0 0-3.569-.883-5.089 1.579l-1.837-.136z" fill="#263238"/><path d="M47.961 37.693h-2.243s-.436-5.92-5.877-5.69c0 0 6.763-2.259 8.12 5.69zM58.785 70.402l3.215.446-.32 1.14-3.005-.233.11-1.353z" fill="#455A64"/><path d="M58.977 71.436c-.02-.015.127-.24.376-.576l.045-.062.05.062c.142.174.294.355.45.544l-.103-.015c.104-.077.21-.157.323-.236.112-.083.225-.163.332-.24l.062-.044.044.059c.146.2.282.393.412.58l-.083-.013c.344-.227.567-.36.581-.343.015.021-.183.19-.51.44l-.044.036-.038-.047c-.14-.177-.285-.363-.436-.562l.104.015-.33.243c-.112.08-.219.16-.322.233l-.06.044-.044-.056c-.148-.195-.29-.384-.427-.561h.095c-.276.316-.456.514-.477.5z" fill="#E8505B"/><path d="M12.007 91.526s-.623-2.021-.498-2.876c.124-.854 1.277-1.631 1.277-1.631l-1.25-32.41s-.163-14.177 7.361-18.584l4.49-1.129 11.075-.653c.359.118 13.375 5.001 15.165 6.908l-5.613 28.582s.682 8.445 1.363 14.516c.14 1.242 1.073 7.369 1.073 7.369l-34.443-.092z" fill="#FFB3C7"/><path opacity=".3" d="M45.168 82.337c-.103.789-.406 1.75-1.164 1.992-.76.245-1.583.175-2.368.033-2.777-.494-5.332-1.795-7.84-3.08-4.688-2.4-9.418-4.83-13.463-8.197-.569-.473-1.176-1.212-.827-1.862.395-.739 1.506-.49 2.267-.142 7.952 3.656 15.447 7.6 23.395 11.256z" fill="#000"/><path d="M17.213 36.906s-4.958 1.65-6.561 6.231c-1.773 5.06-2.946 14.885-2.946 14.885l4.899.615 4.608-21.73zM49.626 41.148s2.658 3.488 3.953 7.727c1.293 4.238 2.033 16.522 2.033 16.522l-13.336-.186-.708-10.806s-1.349-18.033 8.058-13.257z" fill="#FFB3C7"/><path d="M9.457 47.553s.098-.15.367-.346c.267-.192.768-.393 1.405-.269.646.095 1.275.6 2.101.916.41.157.89.278 1.376.169.489-.107.91-.455 1.357-.792.225-.169.462-.343.74-.464.276-.125.617-.166.922-.039.309.112.54.373.718.639.183.266.332.558.524.818.187.26.436.488.753.58.311.103.66.077.99-.01.335-.085.658-.233.966-.413.308-.18.605-.402.925-.597.317-.198.655-.384 1.03-.5.374-.109.795-.136 1.183-.003.389.128.724.364 1.026.624.305.26.59.541.907.786.31.246.66.459 1.055.518.388.076.8.02 1.182-.122.77-.29 1.452-.81 2.208-1.226.38-.204.777-.4 1.206-.48.427-.079.883-.052 1.286.101.81.314 1.408.923 2.125 1.266.178.088.365.15.552.195.19.038.382.047.575.035.385-.026.755-.154 1.105-.316.702-.316 1.337-.76 2.063-.996.358-.119.746-.172 1.12-.1.376.064.702.268.975.496.545.452.972 1.028 1.594 1.22.306.095.629.09.934.027.308-.062.602-.165.892-.266.572-.2 1.17-.408 1.752-.275.287.056.536.207.752.37.217.165.403.346.593.514.19.169.382.316.587.429.204.109.427.174.643.206.436.063.853-.005 1.209-.124.362-.118.664-.292.922-.47.512-.357.856-.712 1.09-.943l.267-.266a.911.911 0 01.095-.088c.003.003-.027.035-.083.097l-.255.278c-.231.237-.566.6-1.079.97a3.598 3.598 0 01-.933.487 2.715 2.715 0 01-1.245.14 2.043 2.043 0 01-.673-.21 3.415 3.415 0 01-.607-.435c-.383-.325-.762-.742-1.307-.851-.54-.121-1.117.077-1.69.28-.29.101-.586.21-.906.275a1.998 1.998 0 01-.996-.026c-.332-.1-.62-.31-.877-.538-.258-.228-.498-.482-.765-.7-.264-.222-.569-.409-.916-.465-.344-.065-.705-.015-1.049.098-.696.227-1.33.67-2.045.996-.355.165-.744.301-1.153.33a2.396 2.396 0 01-.616-.038 2.69 2.69 0 01-.584-.206c-.747-.358-1.345-.964-2.113-1.257a2.238 2.238 0 00-1.2-.094c-.406.077-.791.263-1.162.464-.744.408-1.428.937-2.231 1.238-.4.151-.842.21-1.263.127-.427-.065-.8-.295-1.12-.546-.643-.5-1.156-1.15-1.885-1.39-.356-.124-.741-.1-1.094 0-.355.11-.684.287-.995.482-.318.192-.611.411-.928.597a3.975 3.975 0 01-1.002.426c-.347.088-.723.115-1.064.003-.347-.104-.622-.358-.815-.63-.198-.272-.346-.564-.524-.824-.172-.26-.383-.494-.658-.598-.273-.112-.575-.08-.833.033-.264.11-.495.28-.72.446-.445.331-.88.692-1.402.801-.516.113-1.01-.02-1.425-.186-.84-.33-1.456-.836-2.08-.937-.617-.13-1.11.056-1.376.237-.29.183-.394.328-.403.322zM7.886 55.543c0-.003.045 0 .13.009.093.008.22.023.383.038.338.02.836.163 1.458-.038.314-.068.667-.133 1.052-.198.386-.068.8-.16 1.257-.216.453-.053.963-.053 1.467.106.504.148.993.405 1.532.586.537.189 1.144.21 1.746.05.604-.142 1.197-.42 1.837-.642.631-.227 1.363-.402 2.09-.2.717.2 1.294.73 2.015.904.177.041.361.053.545.038.184-.02.367-.068.545-.13.362-.124.712-.307 1.094-.44.376-.14.824-.198 1.227-.042.4.154.711.447 1.037.686.163.121.332.234.516.31.183.077.382.11.58.11.404-.015.798-.174 1.18-.352.385-.177.774-.375 1.21-.485.219-.047.444-.077.672-.044.228.027.448.106.646.21.4.21.732.502 1.085.742.175.118.358.227.551.301.098.036.193.068.296.083l.151.027.155.006c.412.008.818-.11 1.209-.252.391-.142.776-.307 1.18-.428.396-.118.832-.195 1.247-.089.42.089.765.36 1.052.63.29.274.557.564.866.78.308.219.678.32 1.04.296.364-.024.714-.157 1.043-.317.329-.16.643-.346.957-.52.623-.343 1.307-.662 2.015-.582.703.083 1.275.47 1.779.83.51.367.975.754 1.487.993a4.275 4.275 0 001.553.42c.513.033.996-.02 1.44-.112a5.19 5.19 0 002.072-1.008 4.6 4.6 0 00.963-1.1c.083-.144.14-.263.181-.337.042-.076.062-.115.065-.112a.873.873 0 01-.05.121c-.039.077-.089.198-.169.346a4.5 4.5 0 01-.951 1.13 5.193 5.193 0 01-2.09 1.046c-.45.097-.942.153-1.464.124a4.396 4.396 0 01-1.594-.42c-.53-.245-1.002-.636-1.509-.996-.503-.358-1.064-.727-1.721-.801-.661-.074-1.32.227-1.936.573-.314.175-.625.364-.963.526-.335.163-.7.308-1.093.334a1.77 1.77 0 01-1.133-.319c-.329-.227-.598-.523-.886-.792-.284-.266-.604-.514-.987-.594-.379-.095-.785-.027-1.17.089-.391.115-.774.283-1.17.425-.398.145-.819.272-1.266.263l-.166-.006-.166-.03c-.11-.014-.22-.05-.323-.09-.208-.08-.4-.196-.581-.317-.362-.245-.69-.535-1.067-.733a1.725 1.725 0 00-.593-.192c-.204-.027-.415 0-.62.041-.408.104-.79.296-1.179.473-.388.177-.797.349-1.238.364a1.595 1.595 0 01-.644-.121 2.627 2.627 0 01-.548-.332c-.332-.248-.634-.529-.999-.668-.361-.139-.761-.091-1.126.042-.37.127-.72.307-1.093.437-.187.062-.38.116-.581.136-.199.018-.4.003-.593-.041-.77-.195-1.34-.724-2.018-.914-.682-.189-1.384-.029-2.01.193-.634.215-1.232.493-1.852.635a3.074 3.074 0 01-1.808-.062c-.55-.19-1.034-.446-1.526-.594-.489-.16-.978-.163-1.428-.112-.45.047-.866.139-1.254.2-.385.063-.738.119-1.052.184-.157.03-.305.065-.447.086-.146.02-.282.014-.404.003-.246-.027-.453-.057-.622-.08a20.387 20.387 0 00-.382-.053.422.422 0 01-.134-.015zM12.818 62.512c0-.003.03 0 .088.003l.258.027c.225.023.56.068.987.133.857.118 2.084.372 3.619.496.767.065 1.609.06 2.51-.044.45-.041.927-.083 1.42-.012.242.036.491.104.723.213.23.11.441.26.643.42.403.31.785.685 1.28.836.243.077.504.062.759-.006.255-.07.497-.192.752-.307.252-.115.519-.237.815-.272.294-.047.614.026.866.186.512.31.847.828 1.369 1.046.524.228 1.117.086 1.654-.073.545-.16 1.084-.373 1.665-.385.288-.003.578.05.833.172.258.12.48.29.685.46.409.347.77.734 1.22.94.448.217.958.154 1.405.004.457-.142.875-.364 1.331-.467.447-.1.928-.11 1.325.097.195.104.355.27.453.458.098.19.145.382.208.562.059.18.136.346.255.473.115.13.266.219.423.272.32.106.652.08.937-.006.287-.089.521-.248.702-.432.184-.18.32-.378.43-.561.216-.37.332-.686.418-.896l.095-.24c.02-.052.035-.079.035-.079.003 0-.006.03-.02.086l-.08.245c-.078.213-.184.532-.395.913-.106.19-.24.394-.426.583a1.78 1.78 0 01-.73.464 1.651 1.651 0 01-.995.014 1.125 1.125 0 01-.472-.295 1.385 1.385 0 01-.281-.508c-.065-.184-.116-.373-.205-.544a.958.958 0 00-.406-.405c-.358-.186-.812-.178-1.241-.08-.433.097-.85.322-1.32.47-.23.077-.48.136-.737.148a1.697 1.697 0 01-.768-.151c-.486-.222-.856-.618-1.256-.955a3.116 3.116 0 00-.652-.44c-.237-.112-.501-.16-.768-.157-.54.012-1.073.216-1.624.381-.276.083-.56.16-.86.19-.296.03-.613.005-.897-.122-.578-.25-.916-.777-1.387-1.058a1.137 1.137 0 00-.768-.168c-.267.032-.521.148-.77.26-.252.115-.504.236-.777.313a1.5 1.5 0 01-.839.003c-.542-.168-.927-.558-1.324-.866a3.348 3.348 0 00-.617-.405 2.415 2.415 0 00-.681-.204c-.469-.07-.937-.032-1.387.006-.904.098-1.76.098-2.531.027-1.544-.142-2.765-.411-3.619-.547l-.98-.16-.256-.041a.32.32 0 01-.095-.015zM12.406 82.224c0-.002.03-.014.086-.035.065-.024.151-.053.261-.092.228-.08.563-.2 1.002-.343.438-.136.978-.316 1.636-.38.332-.036.693.046 1.04.17.35.122.711.278 1.111.317.4.038.812-.092 1.215-.275.406-.177.821-.414 1.307-.523.49-.11 1.01-.044 1.512.088.503.133.995.332 1.514.482.513.151 1.067.255 1.61.14.545-.113 1.051-.406 1.606-.624.278-.11.575-.198.892-.21.314-.015.637.07.907.236.542.322.93.846 1.496 1.055.279.1.584.095.874.021.29-.07.57-.195.848-.322.279-.124.557-.254.853-.337.297-.086.623-.112.925-.018.305.086.548.293.753.5.207.207.391.428.602.606.411.38.992.431 1.508.313.525-.103 1.017-.304 1.52-.438.252-.059.507-.12.768-.115.255-.003.521.047.738.178.228.112.4.304.536.496.137.195.243.4.353.594.213.385.477.74.862.86.374.127.774.045 1.097-.112.326-.157.599-.375.812-.618.415-.49.634-1.02.856-1.418a5.85 5.85 0 01.558-.9c.15-.188.252-.271.252-.271.005.006-.084.098-.226.29a6.52 6.52 0 00-.53.907c-.214.402-.421.934-.845 1.448a2.632 2.632 0 01-.833.648c-.334.165-.758.263-1.173.127-.424-.13-.715-.52-.93-.905-.226-.38-.43-.824-.848-1.037-.403-.24-.925-.172-1.408-.044-.492.13-.984.336-1.526.446-.27.056-.557.083-.845.032-.145-.014-.282-.076-.42-.127a1.806 1.806 0 01-.368-.245c-.226-.19-.412-.41-.614-.612-.201-.2-.424-.387-.693-.461-.267-.083-.557-.06-.839.02-.282.08-.554.208-.833.332-.278.124-.563.254-.874.33-.308.08-.652.09-.963-.023-.625-.24-1.014-.774-1.523-1.07a1.489 1.489 0 00-.824-.219 2.554 2.554 0 00-.842.198c-.542.213-1.055.509-1.633.627-.578.121-1.159.009-1.68-.148-.525-.156-1.017-.354-1.509-.487-.489-.13-.987-.195-1.45-.095-.461.1-.87.328-1.285.505-.41.184-.848.32-1.275.272-.423-.044-.788-.21-1.135-.33-.346-.128-.681-.21-1.001-.178-.643.053-1.186.225-1.624.352-.43.133-.768.24-1.011.316-.11.032-.196.056-.264.077-.053.027-.086.032-.086.03zM29.052 74.903c.003.006-.056.041-.169.106-.115.066-.287.151-.521.237a4.292 4.292 0 01-2.777.056c-.234-.074-.468-.18-.706-.28-.237-.095-.492-.178-.752-.154-.261.023-.51.153-.744.319-.237.165-.465.363-.735.529-.133.083-.285.15-.445.195-.08.024-.163.033-.246.038-.083.012-.166.003-.252-.005-.678-.086-1.218-.532-1.804-.831-.294-.15-.608-.269-.913-.234l-.113.015c-.035.01-.07.024-.107.036a.858.858 0 00-.204.094 1.87 1.87 0 00-.347.305c-.213.227-.397.49-.652.689a.977.977 0 01-.441.203.789.789 0 01-.474-.07c-.29-.142-.469-.397-.629-.621-.16-.23-.3-.458-.471-.642a1.632 1.632 0 00-1.26-.5c-.435.01-.788.225-1.063.43a2.557 2.557 0 00-.617.635c-.275.414-.22.715-.24.71 0 0-.02-.069-.009-.202.012-.13.065-.325.196-.54a2.57 2.57 0 01.613-.672c.279-.212.646-.449 1.112-.467.453-.026.98.124 1.36.524.184.198.332.428.489.653.157.221.332.452.575.57.243.118.545.065.767-.12.229-.181.41-.438.632-.678.11-.118.23-.236.376-.328a.962.962 0 01.237-.11c.042-.014.083-.032.125-.04l.13-.018c.356-.042.7.094 1.002.248.604.31 1.14.742 1.751.816.303.038.596-.045.848-.201.255-.154.483-.349.729-.517.243-.169.515-.314.815-.338.3-.026.572.071.815.172.243.103.468.21.693.287.226.076.45.127.667.165a4.383 4.383 0 002.054-.162c.465-.166.7-.317.705-.302zM12.697 90.123c0-.003.033.006.089.023.032.01.068.021.107.036.044.009.094.015.154.023.234.03.586-.038.992-.239.412-.18.875-.517 1.52-.668.164-.035.336-.041.514-.024.177.027.352.086.518.172.335.171.628.431.954.668.32.233.706.44 1.138.402.43-.033.836-.263 1.275-.458.22-.098.453-.19.705-.234a2.18 2.18 0 01.77.015c.513.094.996.313 1.506.452.507.15 1.058.145 1.598.024.542-.115 1.075-.328 1.62-.535.546-.207 1.112-.42 1.726-.497.61-.094 1.259.03 1.828.29.575.248 1.1.57 1.654.792.548.225 1.144.316 1.692.157 1.108-.317 1.914-1.212 2.966-1.558a2.46 2.46 0 011.583-.009c.498.157.925.426 1.328.686.4.263.776.529 1.159.745.382.219.773.375 1.161.464a4.363 4.363 0 002.143-.089 4.517 4.517 0 001.452-.742c.714-.561.925-1.046.949-1.023.002 0-.012.03-.045.08l-.145.23c-.145.19-.362.477-.723.76a4.449 4.449 0 01-1.464.778c-.62.189-1.381.284-2.19.115a4.281 4.281 0 01-1.198-.467c-.39-.219-.77-.482-1.17-.742-.4-.254-.821-.517-1.298-.662a2.3 2.3 0 00-1.497.015c-.498.166-.957.473-1.428.777-.472.305-.964.63-1.544.792-.584.172-1.227.074-1.79-.16-.57-.227-1.094-.549-1.657-.791-.557-.252-1.159-.367-1.749-.278-.59.07-1.147.278-1.692.485-.545.207-1.085.42-1.645.538-.554.124-1.14.13-1.665-.03-.525-.145-1.005-.364-1.494-.458a2.058 2.058 0 00-.723-.02c-.234.038-.46.123-.676.218-.43.189-.85.425-1.316.461-.47.038-.889-.192-1.209-.432-.329-.242-.616-.502-.933-.668a1.532 1.532 0 00-.486-.165 1.548 1.548 0 00-.483.018c-.623.136-1.091.46-1.512.638-.412.195-.78.257-1.02.216-.059-.012-.112-.018-.156-.03-.042-.017-.078-.03-.107-.044-.06-.033-.089-.044-.086-.047zM13.428 39.3c.01-.006.086.107.288.266.202.157.54.35 1.02.444.48.103 1.078.103 1.775.035.346-.026.72-.062 1.12-.056.397.006.83.056 1.245.222.418.162.809.416 1.227.641.21.112.426.216.66.293.232.074.48.112.732.12.507.021 1.035-.082 1.574-.18.54-.097 1.114-.197 1.707-.13.602.069 1.147.373 1.663.686.518.314 1.049.65 1.66.736.302.036.613.015.918-.062.305-.08.602-.2.895-.334.59-.266 1.17-.609 1.838-.78a2.649 2.649 0 011.022-.062c.34.056.658.189.945.351.578.326 1.073.748 1.636 1.008.56.264 1.186.314 1.779.22.595-.084 1.158-.276 1.715-.444.555-.172 1.106-.331 1.66-.402a4.572 4.572 0 011.612.1c1.02.243 1.888.683 2.703.996.803.361 1.603.426 2.294.364a5.483 5.483 0 001.719-.429c.904-.402 1.197-.913 1.215-.886 0 0-.071.118-.252.304-.178.19-.489.426-.937.639-.447.21-1.034.39-1.733.46a4.96 4.96 0 01-1.126-.008c-.4-.042-.81-.178-1.216-.337-.823-.31-1.692-.742-2.69-.973a4.402 4.402 0 00-1.568-.091c-.54.07-1.082.227-1.636.402-.554.168-1.123.366-1.737.452-.607.097-1.271.05-1.86-.228-.59-.272-1.089-.694-1.649-1.01a2.775 2.775 0 00-.895-.335 2.455 2.455 0 00-.96.06c-.637.162-1.215.5-1.81.771-.3.136-.605.26-.922.343-.32.08-.652.103-.978.065-.655-.095-1.204-.45-1.716-.76-.516-.316-1.038-.606-1.604-.67-1.14-.125-2.21.345-3.268.295a2.98 2.98 0 01-.765-.13 4.152 4.152 0 01-.679-.305c-.424-.23-.809-.484-1.209-.644-.812-.322-1.633-.222-2.32-.18-.697.059-1.31.053-1.793-.062a2.377 2.377 0 01-1.026-.48 1.373 1.373 0 01-.273-.295z" fill="#FAFAFA"/><path opacity=".3" d="M35.657 42.7l4.184 2.888c-1.33 3.29-.097 7.856 1.056 11.592.447 1.455 1.932 2.968 1.86 4.487-.07 1.52 1.204 4.103-.272 4.487-.978.254-2.042-.077-2.854-.677-.815-.6-1.414-1.44-1.947-2.296-2.94-4.741-4.312-13.81-2.027-20.481z" fill="#000"/><path d="M13.629 87.607c0-.006.056 0 .16.018.121.02.27.05.45.082.412.08.972.184 1.654.314 1.396.26 3.331.597 5.477.895 2.148.299 4.098.503 5.515.633.69.062 1.257.112 1.678.148l.456.044c.104.012.16.02.157.027 0 .005-.056.005-.16.005-.121-.002-.273-.008-.456-.014-.397-.015-.973-.05-1.68-.1a85.31 85.31 0 01-5.528-.589 87.709 87.709 0 01-5.477-.94 51.14 51.14 0 01-1.645-.364l-.444-.109c-.107-.03-.16-.044-.157-.05zM20.143 86.836c.003-.006.086.011.246.053.16.035.39.112.7.168a14.93 14.93 0 006.501-.02 14.572 14.572 0 004.413-1.797 14.45 14.45 0 003.556-3.166 14.72 14.72 0 002.03-3.325c.448-1.02.706-1.886.848-2.492.083-.302.116-.541.154-.7.036-.16.056-.246.06-.243.005 0-.007.086-.03.248-.03.163-.053.405-.128.71-.124.611-.367 1.49-.806 2.52a14.375 14.375 0 01-2.018 3.37 14.462 14.462 0 01-3.586 3.207 14.435 14.435 0 01-4.463 1.804c-1.452.319-2.8.393-3.921.328a13.426 13.426 0 01-2.626-.388c-.305-.067-.536-.153-.693-.198a1.17 1.17 0 01-.237-.08zM22.767 34.882c.006 0 .006.074.006.212 0 .154-.003.358-.003.61.006.526-.006 1.303.225 2.213.124.45.308.937.64 1.378.32.446.783.827 1.325 1.123.542.298 1.168.511 1.828.653a8.74 8.74 0 002.084.201c1.437-.03 2.795-.428 3.85-1.085a6.072 6.072 0 002.21-2.391c.424-.842.552-1.61.578-2.134.018-.526-.035-.819-.017-.819.006 0 .017.071.038.21.024.139.036.346.039.612a5.21 5.21 0 01-.54 2.178 6.098 6.098 0 01-2.231 2.465c-1.073.68-2.457 1.091-3.921 1.118a8.735 8.735 0 01-2.12-.207 6.757 6.757 0 01-1.863-.677c-.557-.307-1.035-.706-1.36-1.17-.341-.459-.525-.964-.644-1.425-.222-.934-.19-1.715-.18-2.244.009-.266.023-.47.032-.609.012-.141.02-.215.024-.212z" fill="#263238"/><path d="M20.954 35.395s-7.21.272-8.924 7.455c-1.982 8.318-.785 17.49 1.707 22.083l.119-8.182a37.468 37.468 0 014.01-16.337l3.088-5.019z" fill="#455A64"/><path d="M12.48 59c-.005 0-.011-.086-.017-.251-.006-.178-.012-.417-.024-.718a15.916 15.916 0 01-.003-1.138c.012-.444.01-.95.05-1.508l.054-.875c.02-.304.06-.62.089-.946.056-.656.163-1.35.264-2.083.237-1.46.566-3.054 1.025-4.7a43.479 43.479 0 011.589-4.543c.296-.677.569-1.327.865-1.913.145-.295.276-.585.42-.854.143-.269.282-.526.416-.774.255-.497.524-.928.746-1.313.223-.384.427-.709.602-.97.166-.25.3-.451.397-.6.092-.135.142-.206.148-.203.006.003-.038.08-.121.222l-.37.614c-.167.266-.365.591-.578.982-.217.387-.478.818-.727 1.318-.127.248-.263.508-.403.777-.139.272-.266.562-.412.858-.29.588-.557 1.235-.85 1.912a45.04 45.04 0 00-1.57 4.531 45.313 45.313 0 00-1.035 4.68c-.107.73-.216 1.42-.279 2.074-.032.325-.074.642-.098.943-.02.305-.041.594-.062.872-.05.556-.053 1.061-.074 1.505-.02.443-.024.824-.02 1.137-.004.302-.007.541-.007.719-.005.16-.011.245-.014.245zM15.78 37.213c.006.003-.026.068-.086.192-.07.136-.16.316-.275.538a38.268 38.268 0 00-.966 1.995c-.187.429-.404.896-.596 1.41-.098.257-.21.52-.308.795-.098.278-.196.562-.3.854a33.355 33.355 0 00-1.043 3.881c-.557 2.803-.673 5.398-.667 7.269.006.937.024 1.693.05 2.217.01.248.015.449.021.603.003.139.003.21-.003.21a.977.977 0 01-.026-.21l-.05-.603a38.028 38.028 0 01-.101-2.22c-.033-1.874.065-4.484.625-7.301.284-1.407.66-2.722 1.06-3.899.105-.292.208-.576.306-.854.1-.275.216-.538.317-.795.199-.514.424-.979.617-1.407.403-.848.75-1.525 1.013-1.98.125-.216.226-.39.3-.527a.998.998 0 01.112-.168z" fill="#263238"/><path d="M44.251 38.162s-4.842 13.15-1.274 24.247l.196 3.922s-2.73-.186-4.798-4.08c-2.066-3.892-2.736-7.909-3.435-13.696-.7-5.788 2.48-13.162 2.48-13.162s5.643 1.235 6.831 2.77z" fill="#455A64"/><path d="M43.302 66.011a.326.326 0 01-.072-.032c-.053-.03-.118-.068-.201-.112a4.058 4.058 0 01-.694-.55c-.557-.535-1.158-1.516-1.535-2.84-.198-.66-.346-1.399-.474-2.194a41.412 41.412 0 01-.352-2.548c-.196-1.8-.3-3.792-.255-5.882.044-2.09.234-4.076.512-5.867.276-1.788.614-3.39 1.008-4.703.391-1.315.86-2.329 1.242-2.994.192-.334.355-.582.47-.748.057-.077.102-.136.137-.186.033-.041.048-.062.05-.06.004.004-.011.024-.038.069l-.121.195c-.107.168-.264.423-.445.76-.364.67-.815 1.684-1.188 2.997-.38 1.31-.703 2.908-.972 4.694a46.534 46.534 0 00-.498 5.85c-.045 2.083.053 4.07.24 5.863.098.899.204 1.75.338 2.542.121.795.263 1.529.453 2.182.362 1.315.937 2.287 1.473 2.828.533.544.936.713.922.736z" fill="#263238"/><path d="M43.12 65.878a.319.319 0 01-.08-.026l-.228-.095a5.083 5.083 0 01-.815-.494c-.67-.49-1.476-1.407-2.205-2.692-.702-1.295-1.508-2.864-2.122-4.72a29.907 29.907 0 01-1.398-6.175 30.348 30.348 0 01-.077-6.332c.163-1.945.56-3.665.936-5.087.21-.706.388-1.35.605-1.894.204-.55.364-1.029.542-1.398.163-.37.293-.66.385-.866l.104-.225a.285.285 0 01.041-.074.28.28 0 01-.026.08l-.09.23c-.085.21-.207.503-.358.875-.169.376-.32.855-.515 1.404-.208.547-.377 1.189-.581 1.895-.365 1.422-.747 3.133-.901 5.07a31.124 31.124 0 00.089 6.298c.26 2.223.758 4.31 1.38 6.145.602 1.848 1.397 3.417 2.081 4.712.712 1.282 1.497 2.199 2.149 2.698.323.255.602.408.791.515.092.044.163.08.222.109a.45.45 0 01.072.047zM40.823 43.14l3.141.827-.453 1.094-2.955-.589.267-1.333z" fill="#263238"/><path d="M40.895 44.189c-.018-.018.157-.222.441-.526l.054-.057.041.068c.122.19.25.388.38.595l-.101-.027.347-.198c.124-.068.243-.133.358-.198l.066-.036.035.065a85 85 0 00.34.624l-.08-.024c.368-.186.608-.292.617-.272.012.021-.204.166-.56.376l-.05.03-.033-.054a46.671 46.671 0 00-.367-.609l.1.03c-.115.065-.234.133-.355.2-.122.069-.237.13-.35.196l-.065.035-.036-.062-.355-.608.094.011c-.299.287-.503.458-.521.44z" fill="#FF678E"/><path d="M15.09 61.924l-3.42-6.293H1.268l-.33.627L9.744 70.86l9.97.478-4.623-9.414z" fill="#455A64"/><path d="M54.756 65.397v10.999a6.682 6.682 0 01-2.463 5.178 6.712 6.712 0 01-6.766 1.011L21.25 71.853l2.377-8.076 19.53 6.42-.023-5.007 11.623.207z" fill="#FFBE9D"/><path d="M14.76 62.548l-3.42-6.29H.94l8.475 15.226 9.97.479-4.623-9.415z" fill="#263238"/><path d="M24.58 64.64l-1.645-2.036a5.712 5.712 0 00-4.446-2.12h-1.437l-.981 1.1s-7.036.305-7.293 1.17l-.006.282-.003.162 6.016.405s-5.118-.015-5.427-.006c-.337.012-1.428-.086-1.404.515.017.493.601.88 1.487 1.01.365.054 4.798.438 4.798.438s-4.655-.044-4.88-.044c-.549-.004-.478.871-.155.98.258.087 6.508 1.907 6.508 1.907s-1.052.704-1.908.642c-.86-.062-2.33-1.162-2.635-.642-.305.52-.246.825-.062.95.184.12 2.208 1.16 2.88 1.344.673.183 6.18 1.052 6.18 1.052l1.985.32 2.428-7.428zM2.389 58.711s-1.088.379-.533 1.774a11.87 11.87 0 002.207 3.485s-.192.72.433 1.25c0 0-.77.192-.287 1.49 0 0-.53 1.345.915 1.92 0 0-.385 1.106 1.011 1.636 1.396.529 2.744-.385 2.744-.385l-6.49-11.17z" fill="#FFBE9D"/><path d="M4.597 63.863c.99.266 2.075.48 2.99.825.303.115.6.121.798.373.198.25.246.653.017.88-.201.198-.521.195-.803.163-1.055-.127-2.065-.488-3.064-.848" fill="#FFBE9D"/><path d="M4.99 65.51c.99.266 2.075.478 2.991.824.302.116.599.121.797.373.199.251.246.653.018.88-.201.199-.522.196-.803.163-1.055-.127-2.066-.487-3.064-.848" fill="#FFBE9D"/><path d="M5.555 67.203c.99.266 2.074.479 2.99.825.302.115.599.12.797.372.199.251.246.653.018.881-.202.198-.522.195-.803.163-1.055-.127-2.066-.488-3.065-.849" fill="#FFBE9D"/><path d="M4.591 65.288c.018-.042.714.2 1.592.443.874.245 1.6.396 1.591.44-.006.042-.747-.044-1.633-.292-.886-.243-1.565-.556-1.55-.591zM4.407 66.74c.015-.042.815.221 1.81.51.996.293 1.811.5 1.803.545-.01.041-.842-.1-1.844-.396-1.005-.29-1.784-.621-1.77-.66zM5.056 68.607c.009-.041.77.113 1.698.343.927.23 1.671.452 1.662.494-.008.041-.77-.112-1.698-.343-.927-.23-1.671-.452-1.662-.494zM3.775 63.662c.014-.041.892.255 1.994.535 1.103.287 2.01.45 2.003.494-.003.02-.234.006-.607-.05a15.34 15.34 0 01-1.437-.296 14.368 14.368 0 01-1.4-.434c-.352-.13-.562-.23-.553-.249zM13.676 61.667c0-.041 1.106-.083 2.469-.089 1.363-.005 2.469.021 2.469.066 0 .04-1.106.082-2.469.088-1.36.006-2.466-.02-2.469-.065z" fill="#EB996E"/><path d="M6.22 58.898c.225.18.554.145.735-.08a.52.52 0 00-.08-.733.524.524 0 00-.735.08.518.518 0 00.08.733z" fill="#EBEBEB"/><path d="M41.883 69.91c.002-.011.085 0 .24.027.154.024.37.08.637.163a7.323 7.323 0 013.518 2.435c.169.22.296.405.373.538.08.133.118.21.11.216-.021.015-.21-.269-.57-.683a8.597 8.597 0 00-1.579-1.421 8.532 8.532 0 00-1.888-.979c-.515-.192-.847-.272-.841-.295z" fill="#EB996E"/><path d="M28.638 40.775a5.931 5.931 0 01-5.462-6.204c.113-2.246.228-4.271.228-4.271s-4.827-.748-4.887-5.563c-.059-4.815.777-15.87.777-15.87a16.813 16.813 0 0116.857 2.114l.714.55-1.828 23.79c-.25 3.27-3.118 5.714-6.399 5.454z" fill="#FFBE9D"/><path d="M23.396 30.229s3.05.248 6.292-1.782c0 0-1.488 3.464-6.304 3.032l.012-1.25z" fill="#EB996E"/><path d="M20.485 16.413c-.012.363.284.674.663.695a.66.66 0 00.712-.621c.012-.364-.285-.674-.664-.695-.38-.02-.7.257-.711.62zM20.207 15.639c.086.088.608-.296 1.349-.293.74-.009 1.286.372 1.366.28.039-.04-.047-.2-.284-.375a1.91 1.91 0 00-1.094-.337c-.462.003-.85.172-1.073.346-.228.178-.305.337-.264.379zM27.48 16.584c-.012.364.284.674.664.695a.66.66 0 00.71-.62c.013-.364-.284-.675-.663-.695a.66.66 0 00-.711.62zM27.5 15.777c.086.089.608-.295 1.349-.292.74-.01 1.286.372 1.366.28.038-.04-.048-.2-.285-.375a1.91 1.91 0 00-1.093-.337c-.463.003-.85.172-1.076.346-.225.174-.302.337-.26.378zM24.805 21.263c.003-.041-.456-.12-1.206-.216-.19-.02-.367-.056-.4-.186-.044-.136.036-.34.128-.558.177-.459.364-.937.56-1.44.776-2.048 1.342-3.733 1.26-3.763-.084-.03-.78 1.605-1.56 3.654-.186.505-.367.987-.536 1.448-.071.216-.196.458-.098.742.05.142.19.242.311.275.122.035.229.038.323.044.75.039 1.215.042 1.218 0zM26.99 21.775c-.121-.006-.121.795-.812 1.366-.688.57-1.547.482-1.553.594-.012.05.193.157.554.165.356.012.875-.1 1.295-.449.421-.349.602-.816.629-1.147.032-.334-.057-.532-.113-.529zM27.308 12.878c.075.201.816.107 1.684.21.871.086 1.573.34 1.69.16.05-.086-.072-.275-.356-.47-.282-.195-.73-.379-1.254-.438-.522-.056-1.002.027-1.319.154-.314.13-.477.287-.445.384zM20.481 13.499c.13.168.64-.006 1.257-.015.613-.03 1.135.112 1.253-.062.053-.086-.03-.254-.258-.414-.225-.16-.598-.287-1.022-.275-.42.015-.788.166-1.002.337-.213.171-.284.346-.228.429z" fill="#263238"/><path d="M36.272 16.517c.083-.035 3.317-.978 3.213 2.314-.107 3.293-3.396 2.507-3.4 2.412-.005-.097.187-4.726.187-4.726z" fill="#FFBE9D"/><path d="M37.13 20.026c.015-.009.056.041.151.089.095.047.255.08.43.023.353-.115.664-.659.7-1.253a1.905 1.905 0 00-.134-.825c-.092-.245-.243-.416-.418-.455a.294.294 0 00-.344.148c-.047.092-.03.157-.047.163-.009.008-.068-.057-.039-.193a.35.35 0 01.137-.2.429.429 0 01.32-.075c.255.027.474.267.584.53.121.266.19.588.169.925-.042.662-.403 1.27-.884 1.395a.615.615 0 01-.521-.103c-.1-.09-.116-.163-.104-.169z" fill="#EB996E"/><path d="M17.446 4.706a5.18 5.18 0 013.59-2.699 5.198 5.198 0 014.338 1.18c.73-1.449 2.21-2.498 3.823-2.705a5.095 5.095 0 014.39 1.643c.924 1.047 1.404 2.465 2.489 3.346.94.763 2.21 1.014 3.153 1.77 1.04.831 1.556 2.262 1.29 3.565-.268 1.301-1.308 2.415-2.591 2.773 1.034 1.862.065 4.534-1.926 5.303l-.48-.198c-1.826-1.998-2.244-5.155-1-7.558-.059.003-.115-.006-.171-.01a3.9 3.9 0 01-2.09.477 3.946 3.946 0 01-2.934-1.623c-1.318.949-3.206 1.028-4.6.192-.218-.133-.438-.287-.692-.313-.303-.033-.59.124-.866.257-.723.355-1.538.585-2.335.47-.744-.107-1.461-.57-1.755-1.253-.018-.003-.035-.003-.056-.006-.93-.169-1.677-.961-1.932-1.868-.258-.908-.074-1.901.355-2.743z" fill="#263238"/></svg>