<svg width="98" height="127" viewBox="0 0 98 127" fill="none" xmlns="http://www.w3.org/2000/svg">
<path d="M55.6523 79.3012L42.9704 65.0797L42.8406 82.3684L46.6629 93.4578L8.66419 100.046L7.05387 70.064L4.31694 47.0595C4.15432 45.688 4.45039 44.3012 5.15894 43.1157C5.86749 41.9301 6.94862 41.0126 8.23359 40.5062L18.6918 36.3772L33.4382 39.0787L39.3663 41.332C41.8518 42.2785 44.0675 43.8197 45.8194 45.8208L63.6567 66.2181" fill="#FF80A1"/>
<path d="M42.0859 61.6588C42.802 61.649 43.517 61.5978 44.2271 61.5054C45.938 61.2444 47.5319 60.4783 48.8046 59.3055C50.0772 58.1327 50.9707 56.6065 51.3703 54.9226C51.5172 54.2192 51.6255 53.5084 51.6947 52.7932C51.7426 52.9859 51.7605 53.1849 51.7478 53.3831C51.7522 53.9184 51.6968 54.4526 51.5827 54.9757C51.2255 56.7272 50.3264 58.3219 49.0127 59.5341C47.6989 60.7462 46.037 61.5143 44.2625 61.7296C43.7324 61.7981 43.1966 61.8099 42.664 61.765C42.4669 61.7609 42.2717 61.725 42.0859 61.6588Z" fill="white"/>
<path d="M43.1905 81.6314C43.279 81.6314 43.3026 75.6385 43.2436 68.2534C43.1846 60.8684 43.0607 54.8813 42.9723 54.8813C42.8838 54.8813 42.8602 60.8684 42.9192 68.2593C42.9782 75.6503 43.102 81.6314 43.1905 81.6314Z" fill="#263238"/>
<path d="M41.7974 86.0256L18.8401 76.7826C17.9326 76.4172 17.1452 75.8056 16.5667 75.0166C15.9883 74.2276 15.6418 73.2927 15.5664 72.3173L13.8853 50.3038C13.8853 50.3038 14.0858 40.9369 8.23445 40.4827L4.92535 41.7922C0.625284 44.0749 -0.436465 50.3392 0.147495 55.1701C0.979195 62.0361 1.32722 71.757 2.25329 77.7145C3.02011 82.5927 5.79244 86.8809 10.5821 88.1373L38.8599 94.26L41.7974 86.0256Z" fill="#FF80A1"/>
<path d="M14.2154 53.6604C14.2538 53.8251 14.2774 53.9929 14.2861 54.1618C14.3215 54.5216 14.3746 55.0053 14.4336 55.6128C14.5516 56.9046 14.7167 58.7214 14.9173 60.951C15.1179 63.1807 15.342 65.9 15.6015 68.8729C15.6605 69.622 15.7254 70.3829 15.7903 71.1615C15.8359 71.9537 15.9344 72.7419 16.0852 73.5209C16.2453 74.3087 16.645 75.0277 17.2295 75.5795C17.8585 76.1327 18.5739 76.579 19.3471 76.9008C25.6763 79.6378 31.51 81.9028 35.7452 83.4895L40.7767 85.3417L42.1452 85.8431C42.3052 85.8959 42.461 85.961 42.6112 86.0377C42.4442 86.0073 42.2804 85.9619 42.1216 85.9021L40.7354 85.4538C39.5557 85.0527 37.7861 84.4569 35.6744 83.6842C31.4097 82.1506 25.5701 79.9209 19.2174 77.1957C18.4139 76.8581 17.6708 76.3919 17.0172 75.8155C16.3899 75.2199 15.9615 74.4455 15.7903 73.5976C15.638 72.8071 15.5414 72.0068 15.5013 71.2028C15.4364 70.4183 15.3774 69.6574 15.3184 68.9082C15.0884 65.9589 14.876 63.2456 14.7285 60.9805C14.5811 58.7155 14.4336 56.9282 14.3392 55.6364C14.2979 55.0466 14.2685 54.5393 14.2508 54.1795C14.224 54.0078 14.2121 53.8341 14.2154 53.6604Z" fill="#263238"/>
<path d="M1.06156 65.6284C1.08524 65.7251 1.09906 65.8239 1.10283 65.9233L1.17952 66.7727C1.2503 67.5573 1.33877 68.6131 1.45085 69.899C1.56292 71.1849 1.73988 72.7834 1.96993 74.5176C2.19566 76.3956 2.54044 78.2574 3.00218 80.0917C3.21932 81.0366 3.59852 81.9366 4.12292 82.752C4.63524 83.5007 5.2094 84.205 5.8394 84.8578C6.91296 85.9623 8.15294 86.8918 9.51422 87.6124C10.7833 88.2574 12.1441 88.7031 13.5488 88.9337C13.449 88.9465 13.3479 88.9465 13.248 88.9337C12.9628 88.9147 12.679 88.8773 12.3986 88.8216C11.361 88.6283 10.3561 88.2887 9.41394 87.813C8.01427 87.1084 6.73912 86.18 5.63885 85.0642C4.98666 84.4044 4.39447 83.6878 3.86927 82.9231C3.31847 82.0849 2.91917 81.1565 2.68955 80.1802C2.22137 78.3319 1.88043 76.4538 1.66911 74.5589C1.45676 72.7893 1.31519 71.2439 1.22081 69.9226C1.12643 68.6013 1.07335 67.5278 1.04386 66.7845C1.04386 66.4424 1.04386 66.1593 1.04386 65.9292C1.03371 65.8287 1.03968 65.7271 1.06156 65.6284Z" fill="#263238"/>
<path d="M10.877 81.0296C10.9372 80.5995 11.0794 80.185 11.2957 79.8085C11.7688 78.8684 12.4246 78.0321 13.2247 77.3485C14.0248 76.6648 14.9532 76.1476 15.9556 75.827C16.362 75.6718 16.7948 75.5977 17.2297 75.6088C16.8437 75.7697 16.45 75.9114 16.05 76.0335C15.1017 76.4003 14.2223 76.9248 13.4487 77.5848C12.6771 78.2461 12.0212 79.0316 11.5081 79.9088C11.0952 80.5872 10.9241 81.0472 10.877 81.0296Z" fill="#263238"/>
<path d="M15.3945 64.2894C15.4446 64.3041 15.4923 64.326 15.5361 64.3543L15.949 64.5725C16.4814 64.8349 17.029 65.0653 17.5888 65.2627C19.6529 65.9869 21.8666 66.1777 24.0242 65.8171C27.2289 65.2455 30.0919 63.4656 32.0226 60.8446C33.1766 59.3308 33.9001 57.5332 34.1166 55.6421C34.2238 54.6483 34.1192 53.6432 33.8099 52.6928C33.4836 51.7225 32.9152 50.8516 32.1583 50.1623C31.4124 49.464 30.4727 49.0075 29.4627 48.8528C28.9841 48.7671 28.4924 48.7911 28.0244 48.9229C27.5565 49.0547 27.1246 49.2909 26.7611 49.6137C26.4319 49.9361 26.2415 50.3741 26.2302 50.8347C26.2404 51.2927 26.3976 51.7352 26.6785 52.097C26.9714 52.4466 27.3308 52.7345 27.7358 52.9441C28.1408 53.1537 28.5834 53.2808 29.038 53.318C30.6353 53.5171 32.257 53.312 33.7545 52.7215C35.2519 52.131 36.5771 51.1739 37.6086 49.9382C38.3905 48.9765 38.9793 47.8729 39.3428 46.688C39.6139 45.7901 39.7608 44.8593 39.7793 43.9216C39.7858 43.3291 39.7424 42.7372 39.6495 42.152C39.6141 41.9692 39.5846 41.8158 39.5669 41.6978C39.5618 41.6449 39.5618 41.5915 39.5669 41.5386C39.8107 42.301 39.9302 43.0976 39.9208 43.898C39.9268 44.8497 39.7957 45.7973 39.5315 46.7116C38.8748 48.9153 37.4572 50.8144 35.5312 52.0707C33.6052 53.327 31.2958 53.8589 29.0144 53.5717C28.5272 53.5287 28.0534 53.3898 27.6202 53.1631C27.1869 52.9363 26.8027 52.6261 26.4898 52.2504C26.1694 51.8382 25.9914 51.3331 25.9825 50.8111C25.983 50.2744 26.1949 49.7594 26.5724 49.3778C26.9687 49.0239 27.4396 48.7638 27.9501 48.6167C28.4607 48.4697 28.9978 48.4395 29.5216 48.5284C30.5945 48.6874 31.5928 49.1711 32.3824 49.9146C33.181 50.6362 33.7786 51.5529 34.1166 52.5748C34.4378 53.5634 34.5464 54.6086 34.4352 55.6421C34.205 57.5744 33.457 59.4086 32.2704 60.9508C30.6329 63.1852 28.3086 64.8217 25.653 65.61C22.9973 66.3983 20.1565 66.2949 17.5652 65.3158C16.7996 65.0707 16.0698 64.7256 15.3945 64.2894Z" fill="white"/>
<path d="M0.353516 58.4203C0.453107 58.2437 0.580596 58.0843 0.731034 57.9484C1.10803 57.5493 1.52286 57.1878 1.96972 56.8689C3.47555 55.8342 5.22704 55.2138 7.04841 55.0699C8.04769 54.9574 9.0583 54.9992 10.0449 55.1937C10.8467 55.3603 11.6225 55.6341 12.3512 56.0078C12.8404 56.2542 13.3098 56.5382 13.7551 56.8571C13.9274 56.9627 14.0826 57.094 14.2152 57.2464C14.1798 57.2936 13.4956 56.7746 12.2569 56.2024C10.6422 55.4536 8.85135 55.1677 7.0838 55.3766C5.30895 55.5167 3.59552 56.0899 2.0936 57.0459C0.955178 57.8068 0.394806 58.4616 0.353516 58.4203Z" fill="white"/>
<path d="M4.0293 42.6771C4.58895 43.2042 5.2133 43.6581 5.88735 44.0279C6.62342 44.4053 7.42372 44.6414 8.24678 44.7239C9.24876 44.8244 10.2602 44.6828 11.1961 44.311C12.1136 43.9198 12.923 43.3127 13.5555 42.5414C14.0777 41.898 14.4775 41.1643 14.7352 40.3767C14.9473 39.6372 15.0681 38.8745 15.095 38.1057C15.1524 38.309 15.1783 38.5198 15.1717 38.731C15.1816 39.3095 15.1041 39.8862 14.9417 40.4415C14.7012 41.2704 14.3004 42.044 13.762 42.7184C13.1153 43.5644 12.2562 44.224 11.2719 44.6301C10.2876 45.0362 9.21333 45.1745 8.15831 45.0306C7.30298 44.9338 6.47515 44.6692 5.72219 44.252C5.21524 43.9737 4.75376 43.6197 4.35371 43.2021C4.21421 43.0485 4.10424 42.8706 4.0293 42.6771Z" fill="white"/>
<path d="M24.0371 78.8767C24.0382 78.7299 24.054 78.5837 24.0843 78.4402C24.1667 78.0305 24.3036 77.6338 24.4913 77.2605C25.2413 75.8866 26.4595 74.8275 27.9243 74.2758C30.0803 73.4185 32.4664 73.3331 34.6782 74.0339C35.8933 74.3937 37.2853 74.842 38.2173 76.0276C38.4517 76.3304 38.5996 76.6911 38.6453 77.0712C38.691 77.4514 38.6328 77.8368 38.4768 78.1865C38.1209 78.8689 37.5452 79.4113 36.8429 79.7261C36.165 80.0616 35.4225 80.2468 34.6664 80.2687C33.9156 80.3051 33.1762 80.0753 32.5783 79.6199C32.3022 79.3843 32.0772 79.0949 31.917 78.7693C31.7567 78.4437 31.6646 78.0888 31.6463 77.7264C31.6076 77.0491 31.7142 76.3714 31.9589 75.7386C32.8478 73.5883 34.5409 71.8698 36.6778 70.949C38.0955 70.3172 39.6486 70.0496 41.1961 70.1703C41.7595 70.2132 42.3149 70.3302 42.8477 70.5184C42.8477 70.5596 42.2578 70.365 41.1843 70.2883C39.9023 70.2188 38.6197 70.4115 37.4148 70.8547C36.2099 71.2979 35.1081 71.9823 34.1768 72.866C33.3121 73.6942 32.6378 74.7006 32.2007 75.8153C31.9719 76.4108 31.8734 77.0484 31.9117 77.6851C31.9288 78.0078 32.012 78.3235 32.156 78.6126C32.3001 78.9018 32.5021 79.1583 32.7493 79.3662C33.2886 79.7805 33.9576 79.9896 34.6369 79.9561C35.346 79.9376 36.0425 79.7645 36.6778 79.4488C37.319 79.1628 37.8464 78.6708 38.176 78.0509C38.3089 77.7495 38.3581 77.418 38.3187 77.0911C38.2793 76.7642 38.1526 76.4539 37.9519 76.1928C37.5404 75.6734 37.0132 75.2572 36.4123 74.9777C35.8297 74.699 35.2238 74.472 34.6015 74.2994C32.4481 73.6025 30.1212 73.6629 28.0069 74.4704C26.5739 74.9889 25.3677 75.9927 24.5975 77.3076C24.3421 77.8036 24.1537 78.3312 24.0371 78.8767Z" fill="white"/>
<path d="M8.74805 87.1643C8.74805 87.1054 9.62103 87.0346 10.9482 86.5745C12.6808 85.9643 14.2331 84.9299 15.4633 83.5657C16.6935 82.2016 17.5626 80.551 17.9911 78.7648C18.3273 77.3963 18.3155 76.5056 18.3745 76.5115C18.4158 76.7152 18.4258 76.9241 18.404 77.1309C18.3905 77.6963 18.3233 78.2592 18.2035 78.8119C17.8212 80.6558 16.9538 82.3642 15.6909 83.7609C14.4279 85.1576 12.8151 86.192 11.019 86.7573C10.4812 86.9324 9.9283 87.0568 9.36739 87.129C9.16373 87.1706 8.95512 87.1825 8.74805 87.1643Z" fill="white"/>
<path d="M1.30273 70.0523C1.39002 70.0033 1.48318 69.9657 1.57997 69.9402C1.76872 69.8812 2.04007 69.7987 2.39988 69.7043C3.42096 69.4356 4.47776 69.3281 5.53203 69.3857C6.26418 69.4411 6.98192 69.6185 7.65552 69.9107C8.44004 70.2491 9.12304 70.7858 9.63744 71.4679C10.2022 72.2418 10.4758 73.1901 10.4101 74.1459C10.3723 74.6544 10.2168 75.1471 9.95596 75.5851C9.69194 76.0469 9.27455 76.4017 8.77625 76.5879C8.5135 76.6775 8.23179 76.6963 7.95947 76.6425C7.68714 76.5886 7.4338 76.464 7.22492 76.2812C6.87089 75.891 6.67892 75.3805 6.68814 74.8537C6.65773 73.9139 6.84339 72.9795 7.23082 72.1227C7.76914 70.9016 8.69997 69.8954 9.87552 69.2638C11.0511 68.6322 12.4039 68.4115 13.7193 68.6366C14.0021 68.6806 14.2804 68.7497 14.551 68.8431C14.7338 68.9139 14.8282 68.9552 14.8223 68.967C14.8164 68.9788 14.4271 68.8431 13.7016 68.7546C12.6762 68.6305 11.6361 68.7643 10.6756 69.1439C9.25261 69.7149 8.11371 70.8262 7.50806 72.2348C7.14782 73.0532 6.97645 73.9423 7.00667 74.836C6.99417 75.2872 7.15454 75.7261 7.45497 76.063C7.62413 76.2069 7.82782 76.3043 8.04604 76.3457C8.26425 76.387 8.48947 76.3709 8.69956 76.2989C9.1365 76.1373 9.50357 75.8286 9.73772 75.4259C9.97244 75.0283 10.1136 74.5825 10.1506 74.1223C10.2125 73.2363 9.96435 72.3563 9.4487 71.6331C8.9698 70.9839 8.32917 70.4714 7.59063 70.1467C6.94522 69.8536 6.25546 69.6702 5.54972 69.604C4.51822 69.527 3.481 69.6006 2.47066 69.8222C1.70974 69.9697 1.31453 70.0759 1.30273 70.0523Z" fill="white"/>
<g opacity="0.3">
<path opacity="0.3" d="M35.197 83.401C32.7432 82.0148 30.3425 80.9472 27.7766 79.7852C25.2107 78.6231 22.692 77.119 21.0109 74.8539C17.8434 70.5834 18.2032 64.4194 14.9648 60.2078C15.1772 63.0391 15.3876 65.8724 15.596 68.7076C15.7906 71.303 15.3954 73.8748 17.0647 75.6385C18.4745 77.1249 21.2232 78.2633 23.1698 78.9063C27.0805 80.1981 31.2921 82.1151 35.197 83.401Z" fill="black"/>
</g>
<path d="M75.1194 115.755C75.1194 115.755 94.3311 121.063 95.1038 121.347C96.2835 121.754 96.0653 125.995 94.2662 125.924C93.4109 125.894 79.5197 126.443 77.7502 126.337C75.9806 126.231 70.6719 124.137 70.6719 124.137L75.1194 115.755Z" fill="#FF80A1"/>
<path d="M83.0989 123.087C83.3363 122.38 83.62 121.691 83.9483 121.022C84.3618 120.403 84.815 119.812 85.305 119.252C84.6214 119.627 84.054 120.182 83.6649 120.857C83.2758 121.532 83.08 122.302 83.0989 123.081V123.087Z" fill="#263238"/>
<path d="M81.0938 122.178C81.1881 122.178 81.3828 121.287 81.8959 120.285C82.4091 119.282 83.0108 118.58 82.9459 118.515C82.3852 118.952 81.9283 119.507 81.608 120.142C81.2877 120.776 81.1121 121.474 81.0938 122.184V122.178Z" fill="#263238"/>
<path d="M79.2474 121.677C79.3416 120.989 79.4915 120.311 79.6957 119.648C79.9968 119.022 80.3459 118.421 80.7397 117.849C80.1306 118.259 79.6613 118.845 79.3946 119.529C79.1279 120.213 79.0765 120.963 79.2474 121.677Z" fill="#263238"/>
<path d="M79.56 119.193C79.7293 118.738 79.7996 118.251 79.7664 117.766C79.7603 117.237 79.695 116.711 79.5717 116.197C79.4978 115.893 79.4012 115.595 79.2827 115.306C79.227 115.123 79.1207 114.96 78.976 114.834C78.879 114.762 78.7599 114.727 78.6393 114.733C78.5187 114.74 78.4042 114.788 78.3154 114.87C78.1663 115.013 78.0759 115.206 78.0617 115.412C78.0471 115.581 78.0471 115.751 78.0617 115.92C78.0635 116.236 78.1031 116.551 78.1797 116.858C78.3073 117.372 78.5058 117.866 78.7695 118.326C78.9808 118.77 79.2729 119.17 79.6307 119.506C79.6779 119.506 79.3535 119.028 78.9701 118.244C78.746 117.79 78.5777 117.311 78.4687 116.816C78.4066 116.527 78.375 116.233 78.3743 115.937C78.3743 115.642 78.3743 115.277 78.5513 115.135C78.586 115.104 78.6312 115.086 78.6781 115.086C78.725 115.086 78.7702 115.104 78.8049 115.135C78.9008 115.229 78.9735 115.344 79.0173 115.471C79.1302 115.749 79.2268 116.032 79.3063 116.321C79.4414 116.81 79.5264 117.312 79.56 117.819C79.5953 118.645 79.5069 119.188 79.56 119.193Z" fill="#263238"/>
<path d="M79.536 118.999C79.1447 118.835 78.7203 118.767 78.2974 118.798C77.8382 118.798 77.3806 118.854 76.9348 118.963C76.6601 119.026 76.3945 119.123 76.1444 119.252C75.987 119.332 75.8599 119.461 75.7822 119.62C75.7046 119.778 75.6805 119.958 75.7138 120.131C75.7579 120.297 75.8449 120.448 75.9661 120.569C76.0873 120.69 76.2383 120.777 76.4039 120.821C76.6866 120.892 76.9824 120.892 77.2651 120.821C77.7197 120.718 78.1464 120.516 78.5156 120.232C78.8652 119.997 79.1674 119.699 79.4063 119.353C79.0515 119.56 78.7106 119.791 78.3858 120.043C78.029 120.288 77.6285 120.462 77.2061 120.556C76.9719 120.615 76.7266 120.615 76.4924 120.556C76.3816 120.528 76.2802 120.471 76.1983 120.392C76.1165 120.312 76.0572 120.212 76.0264 120.102C76.0084 119.994 76.0264 119.883 76.0775 119.786C76.1287 119.689 76.2101 119.611 76.3095 119.565C76.5286 119.444 76.7626 119.353 77.0056 119.294C77.4289 119.173 77.8639 119.098 78.3032 119.07C79.0524 118.975 79.5242 119.052 79.536 118.999Z" fill="#263238"/>
<path d="M86.0488 123.293C86.1311 122.706 86.2593 122.126 86.4322 121.559C86.7018 121.032 87.0155 120.529 87.3701 120.055C86.8105 120.36 86.3735 120.849 86.1327 121.439C85.892 122.029 85.8623 122.684 86.0488 123.293Z" fill="#263238"/>
<path d="M72.6465 124.184C72.8792 124.331 73.1287 124.45 73.3897 124.538C74.0869 124.802 74.8001 125.023 75.525 125.198C77.9342 125.724 80.3978 125.958 82.8628 125.894C85.7413 125.859 88.3367 125.729 90.2184 125.653L92.4421 125.535C92.7153 125.53 92.9876 125.502 93.2561 125.452C92.9851 125.409 92.7102 125.395 92.4362 125.411H90.2125L82.8628 125.552C80.4205 125.615 77.9785 125.417 75.5781 124.962C73.7377 124.591 72.6701 124.119 72.6465 124.184Z" fill="#263238"/>
<path d="M72.0801 124.62C72.0801 124.661 72.6286 124.355 73.5193 123.965C74.6509 123.431 75.9103 123.226 77.1529 123.375C78.3749 123.64 79.478 124.294 80.2968 125.239C80.6376 125.642 81.0062 126.021 81.3998 126.372C81.1467 125.903 80.8312 125.47 80.462 125.086C80.0833 124.646 79.6559 124.25 79.1879 123.906C78.6017 123.472 77.92 123.185 77.2 123.069C75.8963 122.911 74.5756 123.16 73.419 123.782C72.9305 123.988 72.4783 124.27 72.0801 124.62Z" fill="#263238"/>
<path d="M54.7047 110.452C54.7047 110.452 36.5252 122.355 35.8764 122.839C34.8972 123.576 36.018 127.098 37.7168 126.49C38.519 126.201 53.7727 121.954 55.4125 121.317C57.0523 120.68 61.4703 117.106 61.4703 117.106L54.7047 110.452Z" fill="#FF80A1"/>
<path d="M49.3069 119.866C49.0876 119.118 48.6668 118.444 48.0905 117.919C47.5142 117.393 46.8045 117.036 46.0391 116.887C46.6783 117.271 47.2911 117.696 47.8735 118.161C48.3863 118.699 48.865 119.268 49.3069 119.866Z" fill="#263238"/>
<path d="M50.9352 118.391C50.7039 117.718 50.3263 117.105 49.8297 116.595C49.333 116.085 48.7295 115.691 48.0625 115.442C48.0154 115.525 48.8117 116.032 49.5962 116.811C50.3807 117.589 50.8526 118.439 50.9352 118.391Z" fill="#263238"/>
<path d="M52.5737 117.341C52.5712 116.599 52.289 115.885 51.7832 115.342C51.3606 114.742 50.7297 114.321 50.0137 114.162C50.5608 114.589 51.0754 115.056 51.5532 115.56C51.94 116.126 52.2813 116.721 52.5737 117.341Z" fill="#263238"/>
<path d="M51.524 115.082C51.5712 115.082 51.3234 114.569 51.117 113.72C50.9928 113.227 50.9197 112.723 50.8987 112.216C50.8785 111.917 50.8785 111.617 50.8987 111.319C50.8965 111.184 50.9312 111.052 50.999 110.936C51.0245 110.895 51.0647 110.867 51.1109 110.856C51.1572 110.845 51.2059 110.852 51.2467 110.877C51.4532 110.959 51.5594 111.313 51.6596 111.596C51.7462 111.877 51.8055 112.165 51.8366 112.457C51.8822 112.963 51.8664 113.472 51.7894 113.973C51.6655 114.835 51.4945 115.359 51.5417 115.377C51.7847 114.955 51.9449 114.491 52.0135 114.009C52.1267 113.492 52.1664 112.962 52.1315 112.434C52.1079 112.118 52.0505 111.805 51.9605 111.502C51.9119 111.339 51.8528 111.179 51.7835 111.024C51.7049 110.831 51.5579 110.673 51.3706 110.582C51.2612 110.531 51.1375 110.52 51.021 110.551C50.9045 110.583 50.8027 110.654 50.7336 110.753C50.636 110.917 50.585 111.104 50.5861 111.295C50.5211 112.136 50.6172 112.98 50.8692 113.785C50.9934 114.259 51.2165 114.701 51.524 115.082Z" fill="#263238"/>
<path d="M51.459 114.888C51.459 114.935 51.9073 114.722 52.6387 114.54C53.0662 114.437 53.5029 114.378 53.9423 114.363C54.193 114.346 54.4448 114.362 54.6914 114.41C54.8 114.425 54.9009 114.474 54.9794 114.55C55.058 114.627 55.11 114.726 55.1279 114.835C55.1328 114.952 55.1065 115.068 55.0516 115.172C54.9966 115.276 54.9151 115.363 54.8153 115.424C54.6124 115.552 54.3817 115.629 54.1428 115.649C53.7118 115.691 53.2767 115.647 52.8628 115.519C52.4784 115.375 52.0842 115.258 51.6831 115.171C52.016 115.437 52.3963 115.637 52.8039 115.761C53.2416 115.928 53.7105 115.999 54.1782 115.967C54.4692 115.952 54.7514 115.862 54.9981 115.708C55.1441 115.618 55.2632 115.491 55.3431 115.339C55.423 115.188 55.4607 115.017 55.4523 114.846C55.4315 114.671 55.3541 114.507 55.2317 114.379C55.1093 114.251 54.9486 114.167 54.774 114.139C54.4976 114.09 54.2159 114.078 53.9364 114.103C53.4777 114.134 53.0242 114.219 52.5856 114.357C52.1742 114.445 51.7886 114.626 51.459 114.888Z" fill="#263238"/>
<path d="M40.0284 125.835C40.0284 125.865 40.3351 125.652 40.4767 125.133C40.618 124.455 40.4956 123.749 40.1346 123.157C39.9598 122.841 39.7627 122.537 39.5447 122.249C39.3674 122.003 39.1593 121.781 38.9254 121.588C38.7578 121.45 38.5521 121.365 38.3355 121.346C38.1822 121.346 38.1055 121.376 38.1055 121.394C38.1055 121.411 38.4299 121.423 38.7661 121.765C38.9644 121.966 39.1405 122.187 39.2911 122.426C39.5027 122.711 39.6995 123.006 39.8809 123.311C40.2068 123.84 40.3479 124.462 40.282 125.08C40.2128 125.337 40.1281 125.589 40.0284 125.835Z" fill="#263238"/>
<path d="M46.5579 120.957C46.5823 120.638 46.5375 120.317 46.4265 120.017C46.3155 119.717 46.141 119.444 45.9149 119.217C45.7333 118.953 45.4961 118.733 45.2199 118.571C44.9437 118.409 44.6352 118.309 44.3164 118.279C44.7985 118.621 45.2504 119.004 45.6672 119.424C46.0067 119.909 46.3046 120.422 46.5579 120.957Z" fill="#263238"/>
<path d="M59.5999 117.737C59.3173 117.894 59.0488 118.075 58.7977 118.279C58.0772 118.779 57.3288 119.238 56.5562 119.654C55.4128 120.26 54.2305 120.79 53.0171 121.24C51.6368 121.754 50.0678 122.237 48.4634 122.709C45.1897 123.653 42.2286 124.514 40.0933 125.157L37.551 125.953C37.2372 126.037 36.9313 126.147 36.6367 126.284C36.9582 126.24 37.2758 126.171 37.5864 126.077L40.1405 125.363C42.2935 124.774 45.2604 123.948 48.5342 123.004C50.1681 122.526 51.7194 122.031 53.0997 121.5C54.3281 121.033 55.5208 120.477 56.6683 119.836C57.439 119.4 58.1763 118.907 58.8744 118.362C59.1331 118.174 59.3758 117.965 59.5999 117.737Z" fill="#263238"/>
<path d="M60.2722 117.978C59.7831 117.763 59.2639 117.624 58.7327 117.565C57.4403 117.326 56.1057 117.491 54.9104 118.037C54.2642 118.375 53.7096 118.865 53.2942 119.465C52.9521 119.938 52.6651 120.448 52.4389 120.987C52.2023 121.464 52.0336 121.972 51.9375 122.497C52.2046 122.041 52.441 121.568 52.6453 121.081C53.1372 119.929 53.9901 118.969 55.0755 118.344C56.2173 117.83 57.4806 117.648 58.7209 117.819C59.6646 117.896 60.2604 118.025 60.2722 117.978Z" fill="#263238"/>
<path d="M92.4825 81.4249C92.4825 81.4249 97.9387 83.3715 97.9564 89.4883C98.0036 101.197 74.2913 114.109 74.2913 114.109L42.7338 93.2044L40.7578 92.4022C40.7578 92.4022 83.3751 76.4052 92.4825 81.4249Z" fill="#24263B"/>
<path d="M58.7207 103.763C59.0113 103.602 59.2875 103.416 59.5465 103.208C60.0597 102.831 60.797 102.276 61.6995 101.574C63.5103 100.182 65.9642 98.2004 68.6126 95.9294C71.2611 93.6584 73.5851 91.5291 75.2367 89.9541C76.0625 89.1696 76.7232 88.5208 77.1774 88.0666C77.4226 87.8452 77.6476 87.6024 77.8498 87.3411C77.5783 87.5311 77.3237 87.7443 77.0889 87.9781L75.0834 89.789C73.3905 91.3167 71.0428 93.4225 68.4003 95.6876C65.7577 97.9526 63.3275 99.9581 61.5638 101.397L59.4698 103.108C59.2031 103.306 58.9526 103.525 58.7207 103.763Z" fill="white"/>
<path d="M83.5772 85.8016C81.5136 85.5832 79.4475 86.192 77.832 87.4945C77.8851 87.583 79.0117 86.8457 80.628 86.3856C82.2442 85.9255 83.5772 85.9019 83.5772 85.8016Z" fill="white"/>
<path d="M80.8588 83.9553C80.1287 84.2652 79.4863 84.7502 78.9883 85.3675C78.4904 85.9848 78.1522 86.7154 78.0039 87.4945C78.0983 87.4945 78.4404 86.5448 79.2367 85.5715C80.033 84.5983 80.9119 84.0379 80.8588 83.9553Z" fill="white"/>
<path d="M94.2174 121.046C94.2174 121.01 93.8399 120.934 93.4034 121.293C92.8891 121.773 92.5663 122.423 92.495 123.122C92.3916 123.81 92.49 124.512 92.7782 125.145C93.0023 125.623 93.2501 125.847 93.2796 125.824C93.2018 125.561 93.1052 125.305 92.9905 125.057C92.784 124.45 92.7234 123.804 92.8136 123.169C92.8837 122.537 93.1427 121.941 93.5568 121.459C93.893 121.111 94.2233 121.099 94.2174 121.046Z" fill="#263238"/>
<path d="M85.2226 62.2839L73.9858 90.7741L25.5997 91.5645L24.7031 88.9455L41.6616 88.3321L49.8134 63.0566L85.2226 62.2839Z" fill="#A3A5AE"/>
<path d="M62.6263 74.6358C62.9978 74.4492 63.4153 74.3739 63.8286 74.4189C64.242 74.4639 64.6335 74.6273 64.9562 74.8894C65.2301 75.1471 65.42 75.4814 65.5011 75.8486C65.5821 76.2159 65.5505 76.599 65.4104 76.9481C65.2588 77.2965 65.0127 77.5955 64.7 77.8113C64.3872 78.0271 64.0203 78.151 63.6408 78.1691C63.2413 78.1947 62.8443 78.0893 62.5101 77.869C62.1758 77.6486 61.9226 77.3253 61.7886 76.9481C61.6623 76.5261 61.6731 76.0749 61.8193 75.6595C61.9656 75.244 62.2398 74.8856 62.6027 74.6358" fill="#EBEBEB"/>
<path d="M77.2777 115.536C77.2777 115.536 32.6962 86.2912 30.8794 85.6836C29.0627 85.0761 24.6387 82.1858 20.2325 83.4009C15.8263 84.616 11.8624 88.5739 9.88638 94.3545C8.75385 97.6577 8.22298 103.291 7.96934 107.52C7.63134 112.578 9.27032 117.568 12.5407 121.441C13.9895 123.248 15.9138 124.614 18.0972 125.387C18.5632 125.534 19.0469 125.658 19.5424 125.764C27.9714 127.593 36.6482 123.806 41.3671 116.598L42.4053 115.017C42.4053 115.017 71.5738 125.729 72.028 125.582L77.2777 115.536Z" fill="#24263B"/>
<path d="M22.125 107.485C22.2037 107.524 22.2844 107.56 22.3668 107.591L23.0983 107.88L25.9237 108.971L36.4291 112.929C40.8884 114.593 46.2325 116.575 52.2314 118.757C58.2302 120.939 64.872 123.328 71.9739 125.729L72.0978 125.776L72.1627 125.652L75.6487 118.999L77.4183 115.607L77.4832 115.477L77.3593 115.401L43.354 93.8119L33.1376 87.3706L30.3653 85.6364L29.6398 85.1941C29.4746 85.0938 29.3862 85.0525 29.3862 85.0525L29.6221 85.2236L30.3299 85.6895L33.0728 87.4591L43.2655 94.0006L77.2178 115.672L77.1588 115.46C76.5984 116.539 75.9791 117.689 75.3892 118.851L71.909 125.505L72.1037 125.428C65.0254 123.033 58.36 120.65 52.3552 118.486L36.5293 112.729L25.965 108.847L23.1219 107.809L22.3786 107.55L22.125 107.485Z" fill="white"/>
<path d="M26.7495 3.64025C27.5104 1.58164 29.1915 0.690959 31.3209 0.177782C32.3919 -0.0714757 33.5073 -0.0584566 34.5722 0.215737C35.6372 0.489932 36.6202 1.01719 37.4377 1.7527C38.5171 2.73777 39.3075 4.11214 40.6406 4.70199C42.8408 5.69886 45.6544 4.2419 47.7189 5.46291C48.3391 5.82824 48.8136 6.39711 49.0617 7.07278C49.3098 7.74844 49.3163 8.48919 49.0799 9.16906C48.8435 9.84893 48.379 10.426 47.7653 10.802C47.1515 11.178 46.4265 11.3299 45.7134 11.2317C47.1468 11.9042 47.4122 14.063 46.4271 15.3017C45.4421 16.5405 43.6194 16.8767 42.0917 16.4461C40.5858 15.9273 39.2499 15.0075 38.2281 13.7858C37.1546 12.6061 36.2108 11.3379 35.0429 10.2467C33.9218 9.10771 32.4343 8.40158 30.8431 8.25294C28.7019 8.17036 26.7141 9.6155 25.5992 11.4382C24.4844 13.2608 24.0538 15.4256 23.7412 17.5491C23.4286 19.6726 23.1926 21.8315 22.3727 23.8134C22.2783 24.0493 22.1368 24.303 21.8949 24.3561C21.5351 24.4328 21.2756 24.0375 21.134 23.7013C19.5199 19.9132 18.6661 15.8447 18.6212 11.7272C18.5917 9.36778 18.8631 7.10862 20.3436 5.23877C21.8242 3.36892 25.2394 2.20689 26.7318 3.61075" fill="#24263B"/>
<path d="M21.7244 13.1545L18.4448 36.973C18.3134 37.9349 18.379 38.9134 18.6377 39.8491C18.8965 40.7848 19.343 41.658 19.95 42.4157C20.557 43.1733 21.3118 43.7995 22.1685 44.2561C23.0252 44.7128 23.9659 44.9903 24.9333 45.0718C26.7647 45.2311 28.5872 44.6799 30.0234 43.5324C31.4597 42.385 32.3996 40.7291 32.6486 38.9077C32.8905 37.1382 33.0969 35.6222 33.1382 35.4394C33.1382 35.4394 39.2786 35.7048 40.5409 29.7649C41.1308 26.8923 41.9271 20.8758 42.57 15.4255C42.8944 12.605 42.1464 9.76569 40.4746 7.47105C38.8028 5.17641 36.3293 3.5942 33.5452 3.03846L32.9553 2.92639C26.6733 2.0298 22.4264 6.86664 21.7244 13.1545Z" fill="#B4836B"/>
<path d="M33.1326 35.3572C30.3717 34.8504 27.8237 33.5344 25.8125 31.5762C25.8125 31.5762 26.7917 36.2243 32.8377 36.8849L33.1326 35.3572Z" fill="#805945"/>
<path d="M40.0031 19.0708C39.9614 19.2928 39.8342 19.4896 39.6488 19.6187C39.4634 19.7477 39.2348 19.7988 39.0121 19.7609C38.9024 19.7487 38.7963 19.7144 38.7002 19.6601C38.604 19.6059 38.5198 19.5328 38.4526 19.4452C38.3854 19.3576 38.3366 19.2574 38.3091 19.1505C38.2816 19.0436 38.2759 18.9322 38.2925 18.8231C38.3328 18.6 38.4594 18.4018 38.645 18.2715C38.8305 18.1411 39.0599 18.0893 39.2834 18.127C39.3934 18.14 39.4996 18.175 39.5958 18.2299C39.692 18.2847 39.7761 18.3584 39.8433 18.4464C39.9104 18.5345 39.9591 18.6351 39.9866 18.7424C40.0141 18.8496 40.0197 18.9613 40.0031 19.0708Z" fill="#263238"/>
<path d="M40.6761 18.0918C40.5463 18.1861 39.9977 17.5786 39.0834 17.3957C38.1692 17.2129 37.4023 17.5432 37.3139 17.3957C37.2254 17.2482 37.4259 17.1598 37.7622 17.0064C38.2103 16.8071 38.7102 16.7555 39.1896 16.8589C39.6659 16.9501 40.1002 17.1921 40.4283 17.5491C40.682 17.8322 40.735 18.0564 40.6761 18.0918Z" fill="#263238"/>
<path d="M30.9682 17.5845C30.9279 17.8075 30.8013 18.0058 30.6158 18.1361C30.4303 18.2664 30.2008 18.3183 29.9773 18.2805C29.8675 18.2667 29.7615 18.2312 29.6654 18.1762C29.5694 18.1212 29.4852 18.0477 29.4177 17.9599C29.3502 17.8722 29.3008 17.7719 29.2723 17.6649C29.2439 17.5579 29.2369 17.4464 29.2518 17.3367C29.2962 17.1158 29.4238 16.9203 29.6082 16.7908C29.7927 16.6612 30.0198 16.6075 30.2427 16.6407C30.3529 16.6537 30.4593 16.6887 30.5558 16.7435C30.6522 16.7982 30.7367 16.8718 30.8043 16.9597C30.8719 17.0476 30.9212 17.1482 30.9494 17.2555C30.9776 17.3628 30.984 17.4746 30.9682 17.5845Z" fill="#263238"/>
<path d="M31.6468 16.4698C31.517 16.5583 30.9684 15.9507 30.0541 15.7678C29.1399 15.585 28.3731 15.9153 28.2846 15.7678C28.1961 15.6204 28.3966 15.5319 28.7329 15.3785C29.1818 15.1824 29.6807 15.1308 30.1603 15.2311C30.6363 15.3275 31.071 15.5685 31.4049 15.9212C31.6527 16.2397 31.7057 16.4285 31.6468 16.4698Z" fill="#263238"/>
<path d="M33.6113 23.9078C34.1236 23.8507 34.6411 23.8606 35.1508 23.9373C35.3927 23.9373 35.6227 23.9373 35.6935 23.8016C35.7685 23.5676 35.7685 23.316 35.6935 23.082C35.5874 22.4921 35.4753 21.8315 35.3573 21.1591C34.9031 18.4339 34.6259 16.216 34.7321 16.1983C34.8382 16.1807 35.3219 18.3749 35.7525 21.1001C35.8587 21.7725 35.9649 22.4096 36.0592 23.023C36.1515 23.3352 36.1285 23.6702 35.9944 23.9668C35.9443 24.0413 35.8779 24.1034 35.8002 24.1484C35.7225 24.1934 35.6356 24.22 35.5461 24.2263C35.4111 24.2455 35.2741 24.2455 35.1391 24.2263C34.6185 24.1843 34.1053 24.0772 33.6113 23.9078Z" fill="#263238"/>
<path d="M30.7902 24.0139C30.9436 24.0139 30.743 25.0285 31.4509 25.9015C32.1587 26.7744 33.2205 26.8806 33.2205 27.0222C33.2205 27.1637 32.9491 27.1638 32.5008 27.0871C31.9167 26.9794 31.3887 26.6705 31.0085 26.2141C30.6484 25.7718 30.473 25.2076 30.5189 24.6391C30.5661 24.2144 30.7254 23.9903 30.7902 24.0139Z" fill="#263238"/>
<path d="M32.5961 12.9246C32.4604 13.1606 31.5697 12.8598 30.4667 12.7713C29.3636 12.6828 28.4435 12.8067 28.3432 12.553C28.3019 12.4351 28.5025 12.2345 28.8977 12.0635C29.4221 11.8565 29.9879 11.7757 30.5493 11.8275C31.114 11.8706 31.6602 12.0486 32.1419 12.3466C32.5017 12.5825 32.6492 12.8185 32.5961 12.9246Z" fill="#263238"/>
<path d="M40.8652 15.3783C40.6647 15.5553 40.0807 15.2132 39.3198 15.048C38.5589 14.8829 37.8923 14.9123 37.7921 14.6646C37.7449 14.5466 37.8864 14.3579 38.2109 14.2163C38.6334 14.0498 39.0972 14.0189 39.538 14.1279C39.9828 14.2216 40.3858 14.4551 40.6883 14.7944C40.9065 15.0598 40.9596 15.2899 40.8652 15.3783Z" fill="#263238"/>
<path d="M21.3292 17.6612C21.2348 17.5963 17.4774 15.6321 16.7932 19.7316C16.1089 23.8311 20.3677 23.6719 20.3913 23.5539C20.4149 23.4359 21.3292 17.6612 21.3292 17.6612Z" fill="#B4836B"/>
<path d="M19.4015 21.7901C19.4015 21.7901 19.3248 21.8314 19.195 21.8668C19.0129 21.9104 18.8209 21.8829 18.6583 21.7901C18.4194 21.5795 18.2418 21.3083 18.1442 21.0052C18.0466 20.702 18.0327 20.3781 18.1038 20.0677C18.151 19.7135 18.2781 19.3747 18.4754 19.0768C18.5313 18.9545 18.6155 18.8473 18.7212 18.7642C18.8269 18.6811 18.9509 18.6244 19.083 18.599C19.1693 18.5917 19.2555 18.6149 19.3266 18.6644C19.3977 18.714 19.4492 18.7868 19.4723 18.8703C19.5077 18.9883 19.4723 19.0709 19.4723 19.0768C19.4723 19.0827 19.5725 19.0237 19.5666 18.8526C19.5604 18.7476 19.5188 18.6479 19.4487 18.5695C19.4009 18.5166 19.3427 18.4741 19.2777 18.4446C19.2128 18.4152 19.1425 18.3995 19.0712 18.3984C18.8981 18.4035 18.7291 18.4527 18.5804 18.5415C18.4318 18.6303 18.3083 18.7557 18.2218 18.9057C17.9874 19.2323 17.8356 19.6108 17.7794 20.0088C17.6673 20.8405 17.9622 21.6839 18.5285 21.9494C18.6333 22 18.7483 22.0264 18.8647 22.0264C18.9812 22.0264 19.0961 22 19.2009 21.9494C19.3779 21.8904 19.4133 21.8019 19.4015 21.7901Z" fill="#805945"/>
<path d="M44.0446 14.47C42.6585 14.5448 41.2744 14.2897 40.006 13.7257C38.7376 13.1618 37.6211 12.305 36.7481 11.2258C35.5683 9.70397 34.7838 7.71615 33.0791 6.79597C32.4921 6.50709 31.8535 6.33749 31.2005 6.29699C30.5474 6.25649 29.8928 6.34589 29.2745 6.56002C28.0438 7.00001 26.9158 7.68644 25.9595 8.57734C26.5022 11.8334 25.057 15.0658 23.6473 18.0151C23.5258 18.3629 23.2911 18.66 22.9807 18.8586C22.4263 19.1358 21.7656 18.6993 21.4294 18.1743C20.9582 17.2943 20.7533 16.2962 20.8396 15.3017C20.8522 13.0355 21.3133 10.7942 22.1962 8.70711C23.0928 6.61381 24.5838 4.82954 26.4845 3.57534C28.9223 2.08682 31.8427 1.60256 34.6304 2.22457C37.4023 2.86939 39.9013 4.36957 41.7736 6.51283C42.686 7.46275 43.3487 8.624 43.7025 9.89272" fill="#24263B"/>
</svg>
