<svg width="107" height="77" viewBox="0 0 107 77" fill="none" xmlns="http://www.w3.org/2000/svg">
<path d="M105.777 64.6708H47.9689V46.478H98.9295L103.683 50.3717C105.013 51.4458 105.777 53.0905 105.777 54.8024V64.6708Z" fill="#263238"/>
<path opacity="0.5" d="M105.777 64.6708H47.9689V46.478H98.9295L103.683 50.3717C105.013 51.4458 105.777 53.0905 105.777 54.8024V64.6708Z" fill="#263238"/>
<path d="M47.6374 63.0239C47.6374 56.3779 50.6292 51.0073 54.2859 51.0073H47.2052C43.5153 51.0073 40.5568 56.3779 40.5568 63.0239C40.5568 69.67 43.5486 75.0406 47.2052 75.0406H54.2859C50.596 75.0406 47.6374 69.67 47.6374 63.0239Z" fill="#303042"/>
<path d="M54.2859 75.0406C57.9578 75.0406 60.9344 69.6605 60.9344 63.0239C60.9344 56.3873 57.9578 51.0073 54.2859 51.0073C50.6141 51.0073 47.6375 56.3873 47.6375 63.0239C47.6375 69.6605 50.6141 75.0406 54.2859 75.0406Z" fill="#303042"/>
<path d="M54.8176 72.3924C57.4246 72.3924 59.538 68.1996 59.538 63.0275C59.538 57.8554 57.4246 53.6626 54.8176 53.6626C52.2106 53.6626 50.0972 57.8554 50.0972 63.0275C50.0972 68.1996 52.2106 72.3924 54.8176 72.3924Z" fill="white"/>
<path d="M9.24176 63.0239C9.24176 56.3779 12.2336 51.0073 15.8902 51.0073H8.80961C5.11971 51.0073 2.16113 56.3779 2.16113 63.0239C2.16113 69.67 5.15295 75.0406 8.80961 75.0406H15.8902C12.2003 75.0406 9.24176 69.67 9.24176 63.0239Z" fill="#303042"/>
<path d="M15.8909 75.0406C19.5628 75.0406 22.5394 69.6605 22.5394 63.0239C22.5394 56.3873 19.5628 51.0073 15.8909 51.0073C12.2191 51.0073 9.24243 56.3873 9.24243 63.0239C9.24243 69.6605 12.2191 75.0406 15.8909 75.0406Z" fill="#303042"/>
<path d="M93.2786 63.0239C93.2786 56.3779 96.2705 51.0073 99.9271 51.0073H92.8465C89.1566 51.0073 86.198 56.3779 86.198 63.0239C86.198 69.67 89.1898 75.0406 92.8465 75.0406H99.9271C96.2705 75.0406 93.2786 69.67 93.2786 63.0239Z" fill="#303042"/>
<path d="M99.9278 75.0406C103.6 75.0406 106.576 69.6605 106.576 63.0239C106.576 56.3873 103.6 51.0073 99.9278 51.0073C96.2559 51.0073 93.2793 56.3873 93.2793 63.0239C93.2793 69.6605 96.2559 75.0406 99.9278 75.0406Z" fill="#303042"/>
<path d="M100.492 72.3924C103.099 72.3924 105.212 68.1996 105.212 63.0275C105.212 57.8554 103.099 53.6626 100.492 53.6626C97.8849 53.6626 95.7715 57.8554 95.7715 63.0275C95.7715 68.1996 97.8849 72.3924 100.492 72.3924Z" fill="white"/>
<path d="M39.7579 66.3821H31.2146L30.7492 65.9122C30.2506 65.4087 29.5857 65.1402 28.8876 65.1402H7.51278C6.81469 65.1402 6.14984 65.4087 5.65121 65.9122L5.35203 66.2143H4.58745C2.06103 66.1807 0 64.0996 0 61.5486V54.4326H48.4674L44.6113 62.8912C43.88 64.9723 41.9519 66.3821 39.7579 66.3821Z" fill="#EE7EAF"/>
<path d="M39.7579 66.3821H31.2146L30.7492 65.9122C30.2506 65.4087 29.5857 65.1402 28.8876 65.1402H7.51278C6.81469 65.1402 6.14984 65.4087 5.65121 65.9122L5.35203 66.2143H4.58745C2.06103 66.1807 0 64.0996 0 61.5486V54.4326H48.4674L44.6113 62.8912C43.88 64.9723 41.9519 66.3821 39.7579 66.3821Z" fill="#DD7990"/>
<path d="M90.2208 24.1516C90.1875 24.1516 90.1543 24.1516 90.121 24.1181C90.0545 24.0845 90.0213 23.9838 90.0545 23.8831L92.3815 19.8552C92.4148 19.7881 92.5145 19.7545 92.6142 19.7881C92.6807 19.8216 92.7139 19.9223 92.6807 20.023L90.3537 24.0509C90.3205 24.1516 90.2872 24.1516 90.2208 24.1516Z" fill="#263238"/>
<path d="M102.487 44.1937V39.6287C102.487 37.2119 99.03 25.8666 94.2431 23.752C89.4895 21.6373 77.9544 20.6639 70.7075 21.0667C63.4607 21.4695 53.7539 36.7756 53.7539 36.7756L54.8177 49.967C56.2803 49.967 61.0007 49.5307 61.6656 62.5542C61.7653 64.4675 63.3277 65.9444 65.2225 65.9444H90.653C92.4148 65.9444 93.9107 64.6353 94.1767 62.8563C94.8415 58.2242 96.5701 49.9334 100.759 49.9334C103.684 49.9334 105.811 52.4845 105.811 55.3711C105.811 52.1824 105.047 49.0272 103.584 46.2076L102.487 44.1937Z" fill="#EF87A1"/>
<path d="M44.1134 21.0679C30.8829 21.0679 15.9238 36.7767 15.9238 36.7767H53.7869C53.7869 36.7767 63.4605 21.4371 70.7405 21.0679H44.1134Z" fill="#ADADDE"/>
<path opacity="0.4" d="M44.9447 21.0643C33.8085 21.0643 22.1404 32.2082 18.7165 35.7327C18.3508 36.1355 18.6168 36.7732 19.1486 36.7732H49.6984C52.1916 36.7732 54.5213 39.506 56.0144 33.5509C59.3054 29.0195 65.6215 21.3329 70.7408 21.0308H44.9447V21.0643Z" fill="white"/>
<path d="M53.7862 36.7771L39.7911 47.921L2.16076 47.7867C2.16076 47.7867 0 50.9419 0 54.4328C2.36021 54.4328 45.7415 54.4328 48.4674 54.4328C49.2652 52.3181 52.0576 49.9685 54.8167 49.9685C54.8167 46.0077 53.7862 36.7771 53.7862 36.7771Z" fill="#EF87A1"/>
<path opacity="0.2" d="M44.6115 44.6291C44.545 44.6291 44.4453 44.562 44.4453 44.4949C44.4453 44.3942 44.4786 44.327 44.5783 44.2935C48.7003 43.6557 51.7919 41.6418 53.6535 40.0306C54.7172 39.1243 54.9167 37.5803 54.1521 36.439C54.0856 36.3719 54.1189 36.2712 54.1853 36.2041C54.2518 36.1369 54.3516 36.1705 54.418 36.2376C55.2823 37.5467 55.0496 39.2586 53.8862 40.2991C51.9913 41.9103 48.8333 43.9914 44.6115 44.6291C44.6448 44.6291 44.6448 44.6291 44.6115 44.6291Z" fill="black"/>
<path d="M2.16113 47.7867C2.16113 47.7867 8.77637 39.9994 15.9235 36.7771H53.7866L39.7915 47.921L2.16113 47.7867Z" fill="#EF87A1"/>
<path d="M31.4478 47.7871H6.61572V48.5256H31.4478V47.7871Z" fill="#263238"/>
<path d="M30.9152 46.3415L32.2449 44.9989C32.5441 44.6968 32.9097 44.4954 33.3419 44.3947L43.3811 42.1794C43.7468 42.1122 44.1124 42.1122 44.4449 42.2129L44.9767 42.3808C46.5391 42.8171 47.1042 44.7639 46.0405 46.0059L43.8797 48.4898C43.5141 48.9261 42.9822 49.1946 42.4171 49.2282L32.677 50.1345C32.0122 50.2016 31.3806 49.9667 30.9152 49.4967C30.0509 48.624 30.0509 47.2143 30.9152 46.3415Z" fill="white"/>
<path d="M7.31424 47.0478L6.21724 44.9667C6.05103 44.6646 5.81834 44.4296 5.5524 44.2618C5.02052 43.9262 4.32243 43.9262 3.79055 44.1947L2.95949 44.631C2.56058 44.866 2.22816 45.2352 2.09519 45.6716L1.59655 47.1821C1.23088 48.2562 1.89573 49.3974 2.99273 49.5652L5.28646 49.968C6.05103 50.1023 6.81561 49.7331 7.18127 49.0282L7.34749 48.7261C7.61342 48.2562 7.61342 47.5848 7.31424 47.0478Z" fill="white"/>
<path opacity="0.4" d="M61.4985 37.2127H96.5027C97.7659 37.2127 98.6967 35.9707 98.331 34.7288C97.5332 32.0435 96.0041 27.8478 93.7103 25.6996C93.4444 25.4646 93.1452 25.2968 92.8128 25.2296C88.6907 24.3569 82.0423 23.7527 77.1224 23.4171C72.6014 23.115 68.1802 24.7933 65.0222 28.0492C63.36 29.761 61.5649 31.8757 59.9693 34.2589C59.1382 35.568 60.0358 37.2127 61.4985 37.2127Z" fill="white"/>
<path d="M38.8601 58.3598C38.8601 59.4675 37.7299 60.3402 36.367 60.3402C35.004 60.3402 33.8738 59.4339 33.8738 58.3598C33.8738 57.2521 35.004 56.3794 36.367 56.3794C37.7631 56.3794 38.8601 57.2521 38.8601 58.3598Z" fill="#263238"/>
<path d="M18.7833 46.2764C19.6144 46.2764 20.0133 47.1155 19.6808 48.1561C19.3484 49.1966 18.4176 50.0357 17.6198 50.0357C16.822 50.0357 16.3898 49.1966 16.7223 48.1561C17.0547 47.1155 17.9855 46.2764 18.7833 46.2764Z" fill="#263238"/>
<path d="M2.0285 58.3598C2.0285 59.4675 1.72932 60.3402 1.33041 60.3402C0.931506 60.3402 0.632324 59.4339 0.632324 58.3598C0.632324 57.2521 0.931506 56.3794 1.33041 56.3794C1.69608 56.3794 2.0285 57.2521 2.0285 58.3598Z" fill="#263238"/>
<path d="M60.4354 36.9112V35.77C60.4354 34.3938 61.6986 33.3532 63.0283 33.6218L67.2834 34.5281C68.2806 34.7295 69.012 35.6357 69.012 36.6763V36.9112C69.012 38.1196 68.0479 39.093 66.8512 39.093H62.5962C61.3995 39.093 60.4354 38.1196 60.4354 36.9112Z" fill="#263238"/>
<path d="M82.8403 23.9182C82.8403 23.9182 82.2752 23.8511 81.278 23.7839C85.666 32.8468 84.5357 37.2439 84.5357 37.2439H87.8932C87.9264 31.7055 82.8403 23.9182 82.8403 23.9182Z" fill="#EF87A1"/>
<path opacity="0.2" d="M45.9075 33.1522C45.7745 34.6291 44.5445 35.7704 43.0819 35.7704H25.829C24.5658 35.7704 24.1004 34.3606 25.0312 33.2865C26.7931 31.2725 28.6547 29.4935 30.3833 28.0166C33.641 25.2642 37.6633 23.8209 41.4197 24.0894C41.8851 24.123 42.3505 24.1565 42.8492 24.1901C44.1124 24.2908 45.1429 25.2306 45.4088 26.4726C46.0072 29.4264 46.0404 31.6418 45.9075 33.1522Z" fill="#407BFF"/>
<path opacity="0.2" d="M84.9671 63.5641C84.8674 63.5641 84.8009 63.497 84.8009 63.3963C84.8009 60.0061 86.5295 46.0091 86.9617 43.8944C87.3938 41.8469 87.3938 39.598 86.9617 38.0875C86.9284 37.9868 86.9949 37.9197 87.0614 37.8861C87.1611 37.8526 87.2276 37.9197 87.2608 37.9868C87.7262 39.5309 87.7262 41.8469 87.2608 43.928C86.8287 46.0091 85.1001 59.9725 85.1001 63.3627C85.1333 63.497 85.0336 63.5641 84.9671 63.5641Z" fill="black"/>
<path opacity="0.2" d="M84.5032 44.0611H80.4476C80.1152 44.0611 79.8825 43.7926 79.949 43.4569L80.0487 42.987C80.1152 42.6513 80.4476 42.3828 80.7801 42.3828H84.8356C85.168 42.3828 85.4007 42.6513 85.3343 42.987L85.2345 43.4569C85.168 43.7926 84.8356 44.0611 84.5032 44.0611Z" fill="black"/>
<path d="M73.5334 74.5375L75.528 74.5039L76.1264 69.8047L74.0986 69.8383L73.5334 74.5375Z" fill="#B55B52"/>
<path d="M83.1068 74.3718L85.0681 73.7676L83.8381 69.3369L81.91 69.9411L83.1068 74.3718Z" fill="#B55B52"/>
<path d="M85.0018 73.1947L82.8411 74.3359C82.7746 74.3695 82.7413 74.4702 82.7413 74.5373L83.2067 76.3163C83.24 76.5177 83.4727 76.5849 83.6389 76.4842C84.337 76.1149 84.8356 75.8128 85.6999 75.3429C86.2318 75.0744 87.8939 74.2688 88.6585 73.866C89.3898 73.4968 89.1239 72.6912 88.7915 72.7583C87.2623 73.1611 85.9991 73.2954 85.3675 73.1276C85.2345 73.1276 85.1015 73.1276 85.0018 73.1947Z" fill="#263238"/>
<path d="M75.5945 74.2705L73.4005 74.3041C73.334 74.3041 73.2343 74.3712 73.2343 74.4383L72.8686 76.2509C72.8354 76.4523 72.9683 76.6201 73.1678 76.6201C73.9656 76.5866 75.0959 76.5194 76.0931 76.5194C77.2566 76.4859 77.589 76.553 78.952 76.5194C79.783 76.5194 79.9825 75.6467 79.6501 75.5796C78.0877 75.2439 77.4561 75.2439 76.0931 74.4048C75.9269 74.3376 75.7607 74.2705 75.5945 74.2705Z" fill="#263238"/>
<path d="M78.6191 12.8784C79.0845 13.7847 79.5831 14.7917 80.115 15.698C80.6469 16.6378 81.1787 17.5441 81.7438 18.4168C81.8768 18.6182 82.043 18.8532 82.176 19.0546L82.5417 19.558C82.6082 19.6587 82.6746 19.6923 82.6746 19.7259C82.6746 19.7594 82.7079 19.793 82.8076 19.793C83.0071 19.793 83.406 19.5916 83.7716 19.3231C83.9378 19.1888 84.1373 19.021 84.3368 18.8532C84.503 18.6853 84.7024 18.4839 84.8686 18.3161L86.1651 19.0546C86.0321 19.3902 85.9324 19.6252 85.7662 19.9273C85.6332 20.1958 85.467 20.4643 85.2675 20.7329C85.0681 21.0014 84.8354 21.2699 84.5695 21.5049C84.3035 21.7398 83.9711 21.9748 83.5057 22.1426C83.0735 22.3105 82.5084 22.3776 81.9766 22.2098C81.4447 22.0755 81.0125 21.807 80.7133 21.5384C80.6136 21.4713 80.5471 21.4042 80.4806 21.337L80.3809 21.2363L80.3144 21.1356L80.0152 20.8C79.8158 20.565 79.6496 20.3301 79.4501 20.1287C78.7188 19.1888 78.0872 18.249 77.4888 17.242C77.1896 16.7385 76.8905 16.235 76.6578 15.7315C76.3918 15.228 76.1259 14.7245 75.8932 14.1539L78.6191 12.8784Z" fill="#B55B52"/>
<path d="M75.0275 12.8791C74.4956 14.7252 78.2852 19.7937 78.2852 19.7937L82.1414 17.3098C82.1414 17.3098 81.0111 14.7252 79.482 12.7448C77.8863 10.7309 75.6259 10.8651 75.0275 12.8791Z" fill="#EBEBEB"/>
<g opacity="0.2">
<path opacity="0.2" d="M75.0275 12.8791C74.4956 14.7252 78.2852 19.7937 78.2852 19.7937L82.1414 17.3098C82.1414 17.3098 81.0111 14.7252 79.482 12.7448C77.8863 10.7309 75.6259 10.8651 75.0275 12.8791Z" fill="black"/>
</g>
<path opacity="0.2" d="M77.3558 15.0588C78.1536 15.3944 79.3171 17.3077 79.9155 18.751L78.2866 19.8252C78.2866 19.8252 76.8239 17.8783 75.8267 15.9651C76.3585 15.3609 76.9569 14.891 77.3558 15.0588Z" fill="black"/>
<path d="M84.6031 18.7195L85.9993 16.437L87.196 18.3838C87.196 18.3838 86.7639 19.2566 85.8664 19.4915L84.6031 18.7195Z" fill="#B55B52"/>
<path d="M87.9593 16.4654V17.1703C87.9593 17.4053 87.8928 17.6067 87.7598 17.7745L87.2612 18.4123L86.0645 16.4654L87.3277 15.9955C87.5936 15.8613 87.9593 16.1298 87.9593 16.4654Z" fill="#B55B52"/>
<path d="M86.5966 19.3914L84.4026 19.3578L85.5993 14.7593L87.7933 14.7928L86.5966 19.3914Z" fill="#687F8A"/>
<path d="M86.7972 19.3914L84.6365 19.3578L85.8332 14.7593L88.0272 14.7928L86.7972 19.3914Z" fill="#263238"/>
<path opacity="0.2" d="M76.1255 69.8047L75.8264 72.2214L73.7986 72.255L74.0978 69.8383L76.1255 69.8047Z" fill="black"/>
<path opacity="0.2" d="M81.91 69.9411L83.8381 69.3369L84.4697 71.6194L82.5416 72.2236L81.91 69.9411Z" fill="black"/>
<path d="M66.5517 13.8855C68.1806 21.0015 67.8482 28.0839 68.0144 29.5944C69.5768 29.4937 75.4939 29.0237 78.7184 28.7888C79.749 17.2085 77.3223 11.3345 77.3223 11.3345C77.3223 11.3345 76.6242 11.2002 75.6934 11.0995C75.3942 11.0659 75.095 11.0324 74.7626 11.0324C74.5964 11.0324 74.3969 10.9988 74.1975 10.9988C73.0008 10.9653 71.0062 11.1666 69.6433 11.3345C69.3441 11.368 69.0781 11.4016 68.779 11.4687C68.513 11.5023 68.2471 11.5694 68.0144 11.603H67.9812C66.9506 11.838 66.319 12.8449 66.5517 13.8855Z" fill="white"/>
<g opacity="0.2">
<path opacity="0.2" d="M66.5517 13.8855C68.1806 21.0015 67.8482 28.0839 68.0144 29.5944C69.5768 29.4937 75.4939 29.0237 78.7184 28.7888C79.749 17.2085 77.3223 11.3345 77.3223 11.3345C77.3223 11.3345 76.6242 11.2002 75.6934 11.0995C75.3942 11.0659 75.095 11.0324 74.7626 11.0324C74.5964 11.0324 74.3969 10.9988 74.1975 10.9988C73.0008 10.9653 71.0062 11.1666 69.6433 11.3345C69.3441 11.368 69.0781 11.4016 68.779 11.4687C68.513 11.5023 68.2471 11.5694 68.0144 11.603H67.9812C66.9506 11.838 66.319 12.8449 66.5517 13.8855Z" fill="black"/>
</g>
<path opacity="0.2" d="M68.3813 15.3594L67.1514 16.9705C67.1514 17.0041 67.1514 17.0041 67.1514 17.0377C67.3176 18.1118 67.4505 19.1859 67.5503 20.1929C68.7138 18.716 68.5475 16.0643 68.3813 15.3594Z" fill="black"/>
<path d="M70.1752 8.18039C70.4411 9.2545 70.4079 10.4629 69.6433 11.3356C70.5076 12.074 71.6046 12.9132 73.3332 12.8461C75.0618 12.7789 74.6962 11.6041 74.1643 10.9999C72.6684 10.765 72.6684 9.79155 72.6684 8.71744C72.6684 8.48248 72.5354 8.28109 72.3027 8.21395L70.6738 7.6769C70.3746 7.60977 70.1087 7.87829 70.1752 8.18039Z" fill="#B55B52"/>
<path opacity="0.2" d="M72.6679 8.77734L71.0391 8.97874C71.0723 9.04587 71.1056 9.113 71.172 9.18014C71.4712 9.68363 72.1693 10.0193 72.8674 10.12C72.7012 9.75076 72.7012 9.28083 72.6679 8.77734Z" fill="black"/>
<path d="M74.8297 4.45436C75.7605 4.62219 77.4559 3.54808 77.0569 2.17188C76.5583 2.80963 74.8297 2.60823 74.8297 2.60823V4.45436Z" fill="#263238"/>
<path d="M71.2393 5.95788C71.339 6.89772 70.2088 8.54246 68.8458 8.07253C69.5107 7.60261 69.4109 5.85718 69.4109 5.85718L71.2393 5.95788Z" fill="#263238"/>
<path d="M69.9093 4.11624C69.6766 6.09663 69.4107 7.27144 70.2085 8.47981C71.4052 10.2924 73.9981 9.82245 74.8292 7.94276C75.5938 6.26446 75.8597 3.27709 74.0979 2.13584C72.336 0.994599 70.142 2.13584 69.9093 4.11624Z" fill="#B55B52"/>
<path d="M69.6439 6.13077C70.1425 6.63426 71.439 4.55317 71.2063 3.81472C71.7049 4.04968 72.6689 3.61332 72.6025 2.77417C74.0984 3.57975 76.2591 4.21751 76.2924 2.77417C76.3256 1.33083 74.9627 0.256723 73.633 0.12246C73.7992 0.558817 73.367 0.726647 72.5027 0.558817C71.6384 0.357421 68.281 -1.18661 68.6466 1.93502C67.4167 2.00215 67.2504 3.57975 69.6439 6.13077Z" fill="#263238"/>
<path d="M68.6456 5.39479C68.7121 5.93185 69.0113 6.40177 69.377 6.63673C69.9088 7.03952 70.2413 6.60317 70.2745 5.96541C70.3077 5.39479 70.2745 4.48851 69.6429 4.35425C69.0445 4.21998 68.5791 4.75704 68.6456 5.39479Z" fill="#B55B52"/>
<path d="M71.6702 29.3234L78.7176 28.7864C78.7176 28.7864 79.6151 43.354 79.5486 49.5301C79.4821 55.9748 76.5568 71.7172 76.5568 71.7172L73.1661 71.7844C73.1661 71.7844 73.432 56.4783 73.432 50.1679C73.432 41.6757 71.6702 29.3234 71.6702 29.3234Z" fill="#263238"/>
<path opacity="0.2" d="M74.3965 44.4629C74.4962 44.8992 77.0891 56.7145 77.9534 63.5955C78.4188 60.7424 78.851 57.52 79.1834 54.6669L74.3965 44.4629Z" fill="black"/>
<path d="M74.8951 29.0574C74.8951 29.0574 80.2472 42.3159 81.4439 48.1228C82.7736 54.5004 84.8678 70.5785 84.8678 70.5785L81.2444 71.1491C81.2444 71.1491 78.4853 59.1325 76.9562 52.9899C75.1943 45.9746 68.2799 34.8979 67.9807 29.5944C74.8951 29.0574 74.8951 29.0574 74.8951 29.0574Z" fill="#263238"/>
<path d="M85.3681 70.8809L80.8471 71.9551L80.282 70.2096L85.2019 69.3369L85.3681 70.8809Z" fill="#EF87A1"/>
<path d="M76.9901 71.8194L72.9346 71.8866V70.5439L77.4555 70.4097L76.9901 71.8194Z" fill="#EF87A1"/>
<path d="M72.6676 5.15476C72.6343 5.32259 72.7008 5.45685 72.8006 5.49042C72.9003 5.52398 73 5.38972 73.0333 5.22189C73.0665 5.05406 73 4.9198 72.9003 4.88623C72.8006 4.88623 72.7008 5.02049 72.6676 5.15476Z" fill="#263238"/>
<path d="M74.6297 5.5947C74.5965 5.76253 74.663 5.89679 74.7627 5.93036C74.8624 5.96393 74.9622 5.82966 74.9954 5.66183C75.0287 5.494 74.9622 5.35974 74.8624 5.32617C74.7627 5.32617 74.663 5.42687 74.6297 5.5947Z" fill="#263238"/>
<path d="M73.9649 5.55981C73.9649 5.55981 74.1644 6.56679 74.4636 7.07028C74.1312 7.27168 73.6658 7.07028 73.6658 7.07028L73.9649 5.55981Z" fill="#A02724"/>
<path d="M73.3664 7.5744C72.768 7.44013 72.5021 6.97021 72.5021 6.97021C72.5021 6.93664 72.5021 6.90308 72.5353 6.90308C72.5686 6.90308 72.6018 6.90308 72.6018 6.93664C72.6018 6.93664 72.901 7.4737 73.5991 7.54083C73.6323 7.54083 73.6323 7.5744 73.6323 7.60796C73.6323 7.64153 73.5991 7.64153 73.5658 7.64153C73.4993 7.5744 73.4328 7.5744 73.3664 7.5744Z" fill="#263238"/>
<path d="M72.4686 4.45052C72.4686 4.45052 72.4353 4.45052 72.4353 4.41695C72.4021 4.38339 72.4021 4.31626 72.4353 4.28269C72.8342 3.91346 73.2664 4.04773 73.2664 4.04773C73.3329 4.04773 73.3329 4.11486 73.3329 4.14843C73.3329 4.21556 73.2664 4.21556 73.2332 4.21556C73.2332 4.21556 72.9007 4.14843 72.5683 4.41695C72.5351 4.45052 72.5018 4.45052 72.4686 4.45052Z" fill="#263238"/>
<path d="M75.6935 5.09245C75.6603 5.09245 75.627 5.05888 75.627 5.02532C75.5273 4.62252 75.1949 4.48826 75.1949 4.48826C75.1617 4.48826 75.1284 4.42113 75.1284 4.354C75.1284 4.32043 75.1949 4.28687 75.2614 4.28687C75.2946 4.28687 75.6935 4.42113 75.8265 4.95818C75.8265 5.02532 75.8265 5.05888 75.76 5.09245C75.7268 5.09245 75.6935 5.09245 75.6935 5.09245Z" fill="#263238"/>
<path d="M85.7663 73.1933C85.6 73.294 85.4006 73.3275 85.2676 73.3611C85.2344 73.3611 85.2344 73.3611 85.2344 73.3275C85.2344 73.3275 85.2344 73.294 85.2344 73.2604C85.2676 73.1933 85.6665 72.522 85.9325 72.522C85.9657 72.522 86.0322 72.522 86.0654 72.5891C86.1319 72.6898 86.1319 72.7569 86.0987 72.8576C85.999 73.0255 85.8992 73.1262 85.7663 73.1933ZM85.3341 73.2604C85.6665 73.1597 85.8992 73.0255 85.9657 72.8912C85.999 72.8241 85.999 72.7569 85.9325 72.7234C85.8992 72.6898 85.8992 72.6898 85.866 72.6898C85.7663 72.6562 85.5003 72.9919 85.3341 73.2604Z" fill="#E06FA0"/>
<path d="M85.2667 73.3641C85.2667 73.3641 85.2335 73.3641 85.2667 73.3641C85.2335 73.3641 85.2002 73.3641 85.2002 73.3306C85.2002 73.297 84.9675 72.76 85.1005 72.4914C85.1337 72.4243 85.167 72.3572 85.2667 72.3572C85.3664 72.3236 85.4329 72.3572 85.4662 72.3907C85.5659 72.5921 85.3997 73.1627 85.2667 73.3641ZM85.2667 72.4579C85.2335 72.4914 85.2002 72.4914 85.2002 72.5586C85.1337 72.7264 85.2335 73.062 85.2667 73.2299C85.3664 72.9949 85.4661 72.5921 85.3664 72.4579C85.3332 72.4579 85.3332 72.4243 85.2667 72.4579Z" fill="#E06FA0"/>
<path d="M75.7933 74.5377C75.76 74.5377 75.76 74.5042 75.76 74.5042C75.76 74.4706 75.76 74.4706 75.7933 74.4706C75.893 74.437 76.6908 74.0007 76.9235 74.135C76.9567 74.1685 76.99 74.2021 76.99 74.2692C76.99 74.3699 76.9567 74.437 76.8903 74.5042C76.6908 74.672 76.1257 74.6049 75.7933 74.5377ZM76.857 74.2021C76.6908 74.135 76.2586 74.3363 75.9595 74.4706C76.3916 74.5377 76.724 74.5042 76.857 74.4035C76.8903 74.3699 76.9235 74.3028 76.9235 74.2356C76.8903 74.2356 76.8903 74.2021 76.857 74.2021Z" fill="#E06FA0"/>
<path d="M75.7933 74.5357C75.7933 74.5357 75.76 74.5357 75.7933 74.5357C75.76 74.5357 75.76 74.5021 75.76 74.5021C75.76 74.4685 75.7933 73.9315 76.0592 73.7301C76.1257 73.663 76.2254 73.6294 76.3251 73.6294C76.4581 73.6294 76.4914 73.6965 76.4914 73.7637C76.5246 73.9986 76.0592 74.435 75.8265 74.5357C75.7933 74.5357 75.7933 74.5357 75.7933 74.5357ZM76.3584 73.7301H76.3251C76.2587 73.7301 76.1922 73.7301 76.1257 73.7972C75.9595 73.9315 75.893 74.2672 75.8597 74.435C76.0924 74.2672 76.4249 73.9315 76.3916 73.7972C76.3916 73.7637 76.3916 73.7301 76.3584 73.7301Z" fill="#E06FA0"/>
<path d="M69.7436 14.4903C69.0787 15.6987 68.4139 16.9406 67.8155 18.2161C67.2171 19.4581 66.652 20.7336 66.2531 22.0091C66.2199 22.1769 66.1534 22.3112 66.1201 22.479C66.0869 22.5462 66.0869 22.6469 66.0537 22.6804C66.0537 22.714 66.0204 22.7475 66.0204 22.8147C65.9872 22.9825 65.9872 23.2175 66.0537 23.4524C66.1534 23.9559 66.3861 24.5265 66.6853 25.0972C67.3169 26.2384 68.1812 27.3461 69.0787 28.3866L68.1147 29.5614C66.8515 28.6887 65.7212 27.7153 64.724 26.4062C64.2586 25.7685 63.7932 25.03 63.494 24.1238C63.361 23.6538 63.2613 23.1503 63.2945 22.6133C63.2945 22.479 63.3278 22.3448 63.3278 22.1769C63.361 22.0427 63.361 21.9755 63.3943 21.8748C63.4275 21.6734 63.4607 21.472 63.5272 21.2706C63.8929 19.7266 64.4248 18.3168 65.0231 16.9406C65.6215 15.5644 66.2863 14.2554 67.0842 12.9463L69.7436 14.4903Z" fill="#B55B52"/>
<path d="M67.683 11.769C65.8215 12.2725 64.0264 17.5423 64.0264 17.5423L68.4808 18.7843C68.4808 18.7843 69.4781 17.5423 70.3424 15.1927C71.2732 12.6082 69.9103 11.1312 67.683 11.769Z" fill="#E2E2E2"/>
<g opacity="0.2">
<path opacity="0.2" d="M67.683 11.769C65.8215 12.2725 64.0264 17.5423 64.0264 17.5423L68.4808 18.7843C68.4808 18.7843 69.4781 17.5423 70.3424 15.1927C71.2732 12.6082 69.9103 11.1312 67.683 11.769Z" fill="#E2E2E2"/>
</g>
<path d="M68.2798 28.0166L70.3075 28.5537L69.5097 30.5005C69.5097 30.5005 67.6814 30.0977 67.6814 29.0907L68.2798 28.0166Z" fill="#B55B52"/>
<path d="M71.105 29.8599L70.4734 31.4039L69.5094 30.4976L70.3072 28.5508L71.105 29.8599Z" fill="#B55B52"/>
<ellipse cx="76.4098" cy="15.8742" rx="0.608028" ry="0.814869" fill="#EF87A1"/>
</svg>
