<svg width="120" height="80" viewBox="0 0 120 80" fill="none" xmlns="http://www.w3.org/2000/svg">
<path fill-rule="evenodd" clip-rule="evenodd" d="M81.1659 33.6851C76.5349 38.5608 73.6934 45.1524 73.6934 52.4078C73.6934 67.4251 85.8673 79.5991 100.885 79.5991C108.337 79.5991 115.089 76.601 120.001 71.7452L81.1659 33.6851Z" fill="#23263B"/>
<mask id="mask0" mask-type="alpha" maskUnits="userSpaceOnUse" x="42" y="0" width="44" height="43">
<circle cx="63.9701" cy="21.2669" r="21.2669" fill="#C4C4C4"/>
</mask>
<g mask="url(#mask0)">
<circle cx="63.9701" cy="21.2669" r="21.2669" fill="#FFDFB3"/>
<rect x="37.8418" y="42.1372" width="75.9534" height="0.91144" transform="rotate(-45.6251 37.8418 42.1372)" fill="#F087A1"/>
<rect x="49.6875" y="57.6311" width="75.9534" height="0.91144" transform="rotate(-45.6251 49.6875 57.6311)" fill="#F087A1"/>
<rect x="40.7871" y="43.0793" width="75.9534" height="0.91144" transform="rotate(-45.6251 40.7871 43.0793)" fill="#F087A1"/>
<rect x="52.6348" y="58.5737" width="75.9534" height="0.91144" transform="rotate(-45.6251 52.6348 58.5737)" fill="#F087A1"/>
<rect x="43.7305" y="44.022" width="75.9534" height="0.91144" transform="rotate(-45.6251 43.7305 44.022)" fill="#F087A1"/>
<rect x="55.5801" y="59.5161" width="75.9534" height="0.91144" transform="rotate(-45.6251 55.5801 59.5161)" fill="#F087A1"/>
<rect x="46.6758" y="44.9639" width="75.9534" height="0.91144" transform="rotate(-45.6251 46.6758 44.9639)" fill="#F087A1"/>
<rect x="58.5234" y="60.4587" width="75.9534" height="0.91144" transform="rotate(-45.6251 58.5234 60.4587)" fill="#F087A1"/>
<rect x="49.6211" y="45.9065" width="75.9534" height="0.91144" transform="rotate(-45.6251 49.6211 45.9065)" fill="#F087A1"/>
<rect x="61.4707" y="61.4009" width="75.9534" height="0.91144" transform="rotate(-45.6251 61.4707 61.4009)" fill="#F087A1"/>
<rect x="52.5664" y="46.8489" width="75.9534" height="0.91144" transform="rotate(-45.6251 52.5664 46.8489)" fill="#F087A1"/>
<rect x="64.416" y="62.3435" width="75.9534" height="0.91144" transform="rotate(-45.6251 64.416 62.3435)" fill="#F087A1"/>
<rect x="55.5117" y="47.791" width="75.9534" height="0.91144" transform="rotate(-45.6251 55.5117 47.791)" fill="#F087A1"/>
<rect x="67.3613" y="63.2856" width="75.9534" height="0.91144" transform="rotate(-45.6251 67.3613 63.2856)" fill="#F087A1"/>
</g>
<path fill-rule="evenodd" clip-rule="evenodd" d="M77.6605 79.46C77.7781 78.2275 77.8383 76.9782 77.8383 75.7148C77.8383 54.2204 60.4136 36.7957 38.9192 36.7957C17.4247 36.7957 0 54.2204 0 75.7148C0 76.9782 0.0601966 78.2275 0.177878 79.46H77.6605Z" fill="#FFAEA0"/>
</svg>
