<svg xmlns="http://www.w3.org/2000/svg" width="83" height="101" viewBox="0 0 83 101" fill="none">
<path d="M33.5291 2.0677C33.5291 2.0677 34.3459 -0.834753 39.0501 0.237895C43.7543 1.31054 40.0106 4.90005 40.0106 4.90005C40.0106 4.90005 43.232 7.03133 42.2365 11.3394C41.0867 16.3206 44.0137 17.3652 42.587 19.6262C41.1603 21.8871 31.4574 23.6363 25.2073 20.1309C21.4461 18.0277 26.6901 11.8968 25.9295 9.07497C24.8007 4.86851 27.9345 0.721638 33.5291 2.0677Z" fill="#263238"/>
<path d="M32.7756 72.0666L36.5053 53.5512C36.7266 52.5733 37.2642 51.6957 38.0348 51.0544C38.8055 50.4131 39.7661 50.0438 40.7678 50.0037H76.6244C78.5839 50.0037 79.8529 51.5917 79.4568 53.5512L75.727 72.0666C75.5064 73.0422 74.9708 73.9181 74.203 74.5592C73.4352 75.2003 72.4778 75.571 71.4785 75.6141H35.6079C33.6519 75.6141 32.383 74.0261 32.7756 72.0666Z" fill="#FF80A1"/>
<path d="M23.076 22.2342H29.3857L39.1798 70.2579H32.8701C19.6057 70.2579 6.66034 59.5034 3.95769 46.2426C1.25503 32.9817 9.81168 22.2342 23.076 22.2342Z" fill="#FF80A1"/>
<path d="M54.0016 64.0777C62.0317 55.1876 59.7074 40.0015 48.8103 30.1587C37.9131 20.3158 22.5696 19.5434 14.5396 28.4335C6.50961 37.3237 8.83388 52.5097 19.731 62.3526C30.6281 72.1955 45.9716 72.9678 54.0016 64.0777Z" fill="#FFB3C7"/>
<path d="M67.0898 64.9261L69.3753 53.5512C69.5964 52.5739 70.1335 51.6967 70.9034 51.0554C71.6733 50.4142 72.6331 50.0445 73.6343 50.0037H77.2273C79.1868 50.0037 80.4558 51.5917 80.0632 53.5512L76.3335 72.0666C76.1121 73.0445 75.5745 73.922 74.8039 74.5634C74.0333 75.2047 73.0727 75.574 72.0709 75.6141H26.9601V64.9261H67.0898Z" fill="#FFB3C7"/>
<path d="M23.1918 99.6575H25.4668L30.9948 75.6141H26.876L23.1918 99.6575Z" fill="#263238"/>
<path opacity="0.6" d="M23.1918 99.6575H25.4668L30.9948 75.6141H26.876L23.1918 99.6575Z" fill="white"/>
<path d="M11.8904 99.6575H14.1654L19.6934 75.6141H15.5746L11.8904 99.6575Z" fill="#263238"/>
<path opacity="0.6" d="M11.8904 99.6575H14.1654L19.6934 75.6141H15.5746L11.8904 99.6575Z" fill="white"/>
<path d="M58.9326 99.6575H56.6576L51.1296 75.6141H55.2485L58.9326 99.6575Z" fill="#263238"/>
<path opacity="0.6" d="M58.9326 99.6575H56.6576L51.1296 75.6141H55.2485L58.9326 99.6575Z" fill="white"/>
<path d="M70.2341 99.6575H67.9556L62.4311 75.6141H66.5499L70.2341 99.6575Z" fill="#263238"/>
<path opacity="0.6" d="M70.2341 99.6575H67.9556L62.4311 75.6141H66.5499L70.2341 99.6575Z" fill="white"/>
<path d="M43.835 28.2669C45.0268 30.328 46.2888 32.4313 47.6103 34.4328C48.2693 35.4389 48.9424 36.4239 49.6434 37.3633C50.3066 38.2761 51.0366 39.1385 51.8273 39.9433C51.8553 39.9714 51.8273 39.9433 51.7852 39.9118C51.7432 39.8802 51.7011 39.8487 51.659 39.8241C51.4595 39.7011 51.236 39.6222 51.0035 39.5928C50.909 39.5858 50.8141 39.5858 50.7196 39.5928C50.507 39.5981 50.2975 39.6445 50.1026 39.7295C50.0176 39.7664 49.9356 39.8097 49.8573 39.8592C49.6636 39.9784 49.4984 40.1388 49.3735 40.3289C49.3114 40.4185 49.2651 40.5181 49.2368 40.6234C49.2368 40.6444 49.2368 40.6234 49.2368 40.6058C49.2788 40.3929 49.3069 40.1774 49.3209 39.9608C49.3595 39.4315 49.363 38.8426 49.356 38.2502C49.356 37.0619 49.2929 35.842 49.2298 34.6221L48.8232 27.2608L50.8843 26.9489C51.4767 29.4026 51.978 31.8248 52.3776 34.3102C52.5704 35.5511 52.7562 36.7955 52.8754 38.082C52.935 38.7269 52.9841 39.3719 52.9911 40.08C53.0014 40.4833 52.9767 40.8868 52.9174 41.2859C52.8946 41.4325 52.863 41.5777 52.8228 41.7205C52.7558 41.9757 52.6481 42.2183 52.5038 42.4391C52.2754 42.7899 51.9486 43.0654 51.5644 43.2314C51.4515 43.2801 51.3341 43.3177 51.2138 43.3435C51.0907 43.3721 50.9651 43.3886 50.8388 43.3926C50.7221 43.4016 50.6049 43.4016 50.4882 43.3926C50.1795 43.3496 49.8833 43.2421 49.6189 43.0771C49.5453 43.028 49.4506 42.9614 49.398 42.9194L49.2719 42.8142C48.2554 41.9228 47.3172 40.9459 46.4675 39.8942C45.6368 38.8917 44.8691 37.8646 44.14 36.8165C42.6904 34.7188 41.3586 32.5421 40.1508 30.2965L43.835 28.2669Z" fill="#FFC3BD"/>
<path d="M41.907 24.3375C44.7113 24.8107 46.9898 33.2131 46.9232 33.0343L41.5354 38.054C41.5354 38.054 38.2123 33.0483 38.6821 30.542C39.1728 27.9445 39.6986 23.9869 41.907 24.3375Z" fill="#F5F5F5"/>
<path d="M44.9917 29.7882C44.7288 33.3847 43.9401 39.4455 41.9561 49.6462L25.0216 49.1449C25.4667 42.8913 24.7937 38.2327 23.2689 27.2924C23.2028 26.8194 23.2326 26.3381 23.3567 25.8769C23.4807 25.4158 23.6964 24.9844 23.9909 24.6085C24.2853 24.2326 24.6525 23.9198 25.0705 23.6889C25.4885 23.4581 25.9487 23.3138 26.4237 23.2647C27.5104 23.1525 28.7478 23.0579 29.9887 23.0368C32.8456 22.9842 35.1802 22.9597 37.6795 23.2647C38.5033 23.3663 39.3586 23.496 40.1718 23.6327C41.5968 23.8756 42.8802 24.6408 43.7714 25.7789C44.6626 26.9171 45.0977 28.3465 44.9917 29.7882Z" fill="white"/>
<path d="M31.0087 14.3997C31.4224 16.8885 31.7694 21.435 29.9887 23.0369C29.9887 23.0369 34.3353 25.3119 37.1852 29.28C40.2314 26.8683 37.6795 23.2648 37.6795 23.2648C34.9418 22.5251 35.0715 20.478 35.6113 18.5711L31.0087 14.3997Z" fill="#FFC3BD"/>
<path opacity="0.2" d="M32.8841 16.1032L35.6078 18.557C35.4756 19.0013 35.3829 19.4564 35.3308 19.9171C34.2792 19.7313 32.8771 18.5324 32.7894 17.4247C32.7414 16.9821 32.7735 16.5345 32.8841 16.1032Z" fill="black"/>
<path d="M28.2465 9.74448C28.9896 13.8177 29.2175 15.5564 31.545 17.4143C35.0504 20.2186 39.8808 18.4028 40.3681 14.1893C40.8063 10.4 39.5163 4.37424 35.3063 3.22447C34.3787 2.96579 33.4004 2.94861 32.4643 3.17456C31.5282 3.40052 30.6654 3.86211 29.9579 4.51546C29.2505 5.16882 28.7219 5.99223 28.4223 6.90745C28.1228 7.82266 28.0622 8.79928 28.2465 9.74448Z" fill="#FFC3BD"/>
<path d="M33.8166 2.73729C39.4042 5.00177 33.7816 6.91921 31.7484 9.08203C29.9467 11.003 31.6328 14.0562 28.6111 11.9039C27.1704 10.8768 27.23 5.45396 28.0362 4.44091C28.8425 3.42785 32.1516 2.06075 33.8166 2.73729Z" fill="#263238"/>
<path d="M35.2468 10.3649C35.2888 10.7154 35.4956 10.9503 35.7165 10.9222C35.9373 10.8942 36.067 10.6067 36.039 10.2702C36.0109 9.93371 35.7901 9.68833 35.5693 9.71287C35.3484 9.73741 35.2082 10.0319 35.2468 10.3649Z" fill="#263238"/>
<path d="M39.008 9.81818C39.0466 10.1687 39.2569 10.4036 39.4742 10.3755C39.6915 10.3475 39.8247 10.0601 39.7967 9.72353C39.7687 9.38702 39.5478 9.14164 39.3305 9.16618C39.1132 9.19072 38.9659 9.48517 39.008 9.81818Z" fill="#263238"/>
<path d="M39.229 9.19773L40.0037 8.86823C40.0037 8.86823 39.6742 9.54476 39.229 9.19773Z" fill="#263238"/>
<path d="M37.6059 10.3369C37.9946 11.0631 38.4805 11.733 39.0501 12.328C38.661 12.7907 37.8863 12.6785 37.8863 12.6785L37.6059 10.3369Z" fill="#ED847E"/>
<path d="M36.2212 14.2209C36.3875 14.2245 36.5538 14.2164 36.719 14.1964C36.7319 14.1951 36.7444 14.1912 36.7558 14.185C36.7673 14.1788 36.7773 14.1704 36.7855 14.1603C36.7936 14.1502 36.7997 14.1386 36.8033 14.1261C36.8069 14.1137 36.8081 14.1006 36.8066 14.0877C36.8016 14.062 36.7875 14.0391 36.7669 14.023C36.7463 14.0069 36.7205 13.9987 36.6944 14.0001C36.2799 14.0605 35.857 14.0218 35.4603 13.8871C35.0636 13.7525 34.7045 13.5257 34.4124 13.2254C34.3957 13.2054 34.3717 13.1929 34.3457 13.1906C34.3198 13.1883 34.294 13.1964 34.274 13.2131C34.254 13.2298 34.2415 13.2538 34.2392 13.2798C34.2369 13.3058 34.245 13.3316 34.2617 13.3516C34.514 13.6196 34.8173 13.8345 35.1538 13.9838C35.4903 14.1331 35.8532 14.2137 36.2212 14.2209Z" fill="#263238"/>
<path d="M27.3632 13.4708C27.7691 14.2275 28.4587 14.7923 29.2806 15.0412C30.3743 15.3602 30.9352 14.3857 30.6442 13.3481C30.3813 12.4122 29.4944 11.1222 28.3938 11.2449C27.2931 11.3676 26.8724 12.5314 27.3632 13.4708Z" fill="#FFC3BD"/>
<path d="M33.5818 9.47451C33.623 9.47548 33.6634 9.46347 33.6974 9.4402C33.7313 9.41692 33.7571 9.38355 33.7711 9.34481C34.0866 8.48599 35.2188 8.167 35.2293 8.1635C35.2797 8.14953 35.3226 8.11638 35.3488 8.07116C35.375 8.02595 35.3825 7.97227 35.3696 7.92162C35.3631 7.8965 35.3516 7.87294 35.3358 7.85235C35.3201 7.83176 35.3003 7.81457 35.2777 7.80181C35.2551 7.78905 35.2302 7.78097 35.2044 7.77807C35.1786 7.77516 35.1525 7.77749 35.1277 7.78491C35.0716 7.78491 33.7816 8.15999 33.403 9.2081C33.3909 9.23743 33.3862 9.26931 33.3894 9.30089C33.3925 9.33247 33.4034 9.36279 33.4211 9.38914C33.4388 9.4155 33.4627 9.43708 33.4908 9.45197C33.5188 9.46686 33.5501 9.47461 33.5818 9.47451Z" fill="#263238"/>
<path d="M39.8879 7.72894C39.9226 7.73136 39.9574 7.72413 39.9883 7.70805C40.0193 7.69197 40.0452 7.66766 40.0631 7.63781C40.091 7.5935 40.1003 7.54005 40.0892 7.48892C40.0781 7.4378 40.0473 7.39308 40.0036 7.36439C39.7436 7.18847 39.445 7.07782 39.1332 7.04182C38.8214 7.00581 38.5055 7.04552 38.2123 7.15757C38.1885 7.1678 38.1671 7.18271 38.1492 7.20141C38.1313 7.22012 38.1173 7.24223 38.1082 7.26644C38.099 7.29065 38.0948 7.31645 38.0959 7.34231C38.0969 7.36817 38.1031 7.39356 38.1142 7.41696C38.1356 7.46435 38.1748 7.50148 38.2232 7.52046C38.2717 7.53945 38.3256 7.53879 38.3735 7.51862C38.6048 7.43564 38.8524 7.40858 39.0961 7.43965C39.3398 7.47073 39.5727 7.55905 39.7757 7.6974C39.8085 7.72015 39.848 7.73125 39.8879 7.72894Z" fill="#263238"/>
<path d="M43.8525 95.3809L47.6769 96.8217L52.0271 87.9215L48.2062 86.4808L43.8525 95.3809Z" fill="#FFC3BD"/>
<path d="M48.7565 94.3715L44.55 92.3033C44.4791 92.2649 44.3964 92.2548 44.3183 92.275C44.2403 92.2951 44.1728 92.3441 44.1294 92.412L42.2435 95.2163C42.1901 95.2938 42.1528 95.3812 42.1339 95.4734C42.1151 95.5656 42.115 95.6607 42.1336 95.7529C42.1522 95.8452 42.1893 95.9327 42.2425 96.0104C42.2957 96.088 42.364 96.1541 42.4433 96.2048C43.558 97.0356 44.4483 97.0952 46.2992 98.0031C47.4384 98.5639 49.7485 100.05 51.4556 100.439C53.1627 100.828 53.6114 99.1563 52.9349 98.8409C49.8922 97.4387 49.8677 96.2434 49.2718 94.9218C49.1709 94.6829 48.9882 94.4878 48.7565 94.3715Z" fill="#263238"/>
<g opacity="0.2">
<path opacity="0.2" d="M52.027 87.925L49.7836 92.5135L45.9592 91.0693L48.2026 86.4808L52.027 87.925Z" fill="black"/>
</g>
<path d="M71.794 88.23L75.401 86.3091L71.5837 77.1671L68.5936 82.2464L71.794 88.23Z" fill="#FFC3BD"/>
<path d="M75.1556 84.6719L70.5075 85.2538C70.4273 85.2609 70.3526 85.2981 70.2987 85.3579C70.2447 85.4177 70.2154 85.4958 70.2166 85.5763V89.3131C70.2227 89.4068 70.2476 89.4984 70.2898 89.5823C70.332 89.6663 70.3907 89.7408 70.4623 89.8017C70.5339 89.8625 70.617 89.9083 70.7067 89.9364C70.7963 89.9644 70.8907 89.9742 70.9842 89.9651C72.6037 89.7337 73.3714 89.5409 75.415 89.285C76.6735 89.1273 79.8949 88.8328 81.6301 88.6155C83.3652 88.3982 83.218 86.6735 82.4714 86.6069C79.1272 86.3195 77.1152 85.6149 75.8918 84.8367C75.6733 84.6971 75.4127 84.6387 75.1556 84.6719Z" fill="#263238"/>
<g opacity="0.2">
<path opacity="0.2" d="M71.5837 77.1705L73.5502 81.8817L69.9467 83.8027L68.5936 82.2498L71.5837 77.1705Z" fill="black"/>
</g>
<path d="M35.4747 9.74452L36.2494 9.41852C36.2494 9.41852 35.9129 10.0915 35.4747 9.74452Z" fill="#263238"/>
<path d="M38.6785 52.9202C38.6785 52.9202 62.3819 52.7905 61.6423 60.7302C60.4189 73.8579 51.1261 91.9281 51.1261 91.9281L45.7243 90.0597C45.7243 90.0597 51.4521 77.9136 51.1892 64.9156H33.8025C27.1704 64.9156 24.303 57.6315 30.7599 49.1414C34.7069 49.1449 38.6785 52.9202 38.6785 52.9202Z" fill="black"/>
<path d="M24.7973 48.1425L24.3205 49.6463C24.2575 49.762 24.3907 49.8847 24.587 49.8917L42.0332 50.4105C42.1875 50.4105 42.3137 50.3439 42.3277 50.2458L42.524 48.7349C42.524 48.6298 42.4083 48.5386 42.2436 48.5316L25.0952 48.0233C25.0394 48.0147 24.9824 48.0212 24.93 48.0422C24.8776 48.0632 24.8317 48.0978 24.7973 48.1425Z" fill="white"/>
<path d="M27.0441 50.1264H26.5849C26.4938 50.1264 26.4237 50.0738 26.4307 50.0142L26.7076 48.0512C26.7076 47.9951 26.7953 47.9496 26.8864 47.9531H27.3456C27.4367 47.9531 27.5068 48.0057 27.4963 48.0617L27.2229 50.0248C27.2159 50.0843 27.1353 50.1299 27.0441 50.1264Z" fill="#263238"/>
<path d="M40.7187 50.5367H40.2595C40.1683 50.5367 40.1017 50.4841 40.1087 50.4245L40.3821 48.4615C40.3821 48.4054 40.4733 48.3598 40.5644 48.3633H41.0236C41.1148 48.3633 41.1814 48.4159 41.1744 48.472L40.9009 50.435C40.8939 50.4946 40.8133 50.5367 40.7187 50.5367Z" fill="#263238"/>
<path d="M33.8833 50.3298H33.424C33.3294 50.3298 33.2628 50.2772 33.2698 50.2176L33.5432 48.2546C33.5432 48.1985 33.6344 48.1529 33.7255 48.1564H34.1847C34.2759 48.1564 34.346 48.209 34.3354 48.2651L34.062 50.2281C34.055 50.2772 33.9709 50.3333 33.8833 50.3298Z" fill="#263238"/>
<path d="M36.0495 49.3518C36.0495 49.3518 65.4211 43.0982 66.6936 50.5682C68.909 63.5661 73.6097 80.2062 73.6097 80.2062L68.8879 83.4206C68.8879 83.4206 61.5266 67.9408 57.2886 55.658C52.1988 57.288 37.4026 64.9262 31.4855 64.9262C24.8498 64.9262 22.3364 58.9951 25.2389 49.2396C29.1859 49.2256 36.0495 49.3518 36.0495 49.3518Z" fill="#263238"/>
<path d="M61.6424 60.7304C61.4896 62.2677 61.2555 63.7958 60.9413 65.3084C59.6373 62.0905 58.3614 58.7709 57.2817 55.6581C60.0124 56.8043 61.8562 58.4273 61.6424 60.7304Z" fill="black"/>
<path d="M5.74907 53.5512L9.4788 72.0666C9.70011 73.0445 10.2377 73.922 11.0083 74.5634C11.7789 75.2047 12.7396 75.574 13.7413 75.6141H26.5535C28.5095 75.6141 29.7785 74.0261 29.3859 72.0666L25.6561 53.5512C25.4348 52.5733 24.8972 51.6957 24.1266 51.0544C23.356 50.4131 22.3954 50.0438 21.3936 50.0037H8.58142C6.62892 50.0037 5.35646 51.5917 5.74907 53.5512Z" fill="#FF80A1"/>
<path d="M32.6317 72.0666L28.9055 53.5512C28.6842 52.5733 28.1465 51.6957 27.3759 51.0544C26.6053 50.4131 25.6447 50.0438 24.6429 50.0037H21.0499C19.0904 50.0037 17.8214 51.5917 18.2176 53.5512L21.9473 72.0666C22.1684 73.0439 22.7055 73.9211 23.4754 74.5623C24.2453 75.2036 25.2052 75.5732 26.2063 75.6141H29.7993C31.7589 75.6141 33.0278 74.0261 32.6317 72.0666Z" fill="#FFB3C7"/>
<path d="M26.96 29.7391C26.7497 30.8328 26.5253 32.0071 26.3536 33.1463C26.1818 34.2856 26.003 35.4424 25.8908 36.5851C25.7787 37.7279 25.684 38.8671 25.656 39.9783C25.6217 41.0339 25.6886 42.0904 25.8558 43.1332L25.8873 43.2979C25.8799 43.2761 25.8705 43.255 25.8593 43.2348C25.8383 43.2068 25.8348 43.2138 25.8593 43.2348C25.9386 43.3487 26.0329 43.4513 26.1397 43.5398C26.5004 43.8411 26.893 44.1021 27.3105 44.318C28.3011 44.833 29.3259 45.2792 30.3777 45.6535C31.4609 46.0602 32.5756 46.4247 33.7008 46.7753C34.8261 47.1258 35.9723 47.4588 37.0976 47.7813L36.747 49.8355C34.2855 49.6506 31.8427 49.2697 29.4418 48.6962C28.1887 48.3987 26.9614 48.0013 25.7717 47.5079C25.0989 47.227 24.4584 46.8745 23.8612 46.4563C23.4835 46.1878 23.1449 45.8681 22.8552 45.5063C22.6658 45.2745 22.5079 45.0188 22.3855 44.7457C22.311 44.5887 22.25 44.4257 22.2032 44.2584L22.1331 43.9885C21.8122 42.68 21.6405 41.3394 21.6213 39.9924C21.588 38.7248 21.622 37.4564 21.7229 36.1925C21.8176 34.9446 21.9648 33.7107 22.1506 32.4873C22.3364 31.264 22.5467 30.0651 22.8517 28.8102L26.96 29.7391Z" fill="#FFC3BD"/>
<path d="M24.8008 24.015C23.1042 24.5162 21.001 30.3457 21.001 30.3457L27.549 35.106C27.549 35.106 30.0028 30.244 29.3017 28.0462C28.5831 25.7571 26.7428 23.4401 24.8008 24.015Z" fill="#F5F5F5"/>
<path d="M42.212 47.7744L40.5645 47.0243C40.1544 46.8351 39.6927 46.7895 39.2535 46.8946L35.373 47.8235L34.8542 49.131C35.4116 50.6628 38.0091 50.4595 38.0091 50.4595L40.0773 51.1606C40.2426 51.2171 40.421 51.223 40.5896 51.1774C40.7583 51.1318 40.9094 51.0369 41.0237 50.9047L42.5275 49.152C42.6183 49.0482 42.6831 48.9244 42.7168 48.7907C42.7505 48.6569 42.752 48.5171 42.7212 48.3827C42.6904 48.2483 42.6282 48.1231 42.5397 48.0174C42.4512 47.9117 42.3389 47.8284 42.212 47.7744Z" fill="#FFC3BD"/>
<path d="M53.6395 22.0169L51.4977 22.2027C51.2567 22.2274 51.0283 22.3227 50.8412 22.4768C50.6541 22.6308 50.5167 22.8367 50.4461 23.0685L49.8783 24.9334C49.8783 24.9334 48.1992 26.9209 49.1176 28.267L50.4812 28.6175L53.5379 25.9569C53.8504 25.6828 54.0636 25.3131 54.1443 24.9053L54.5229 22.9984C54.5504 22.8723 54.5474 22.7416 54.5144 22.6169C54.4813 22.4922 54.4191 22.3771 54.3328 22.2812C54.2465 22.1853 54.1386 22.1114 54.0181 22.0654C53.8975 22.0194 53.7678 22.0028 53.6395 22.0169Z" fill="#FFC3BD"/>
<path d="M54.0075 20.6042C54.0075 21.9086 53.4894 23.1595 52.5671 24.0818C51.6447 25.0041 50.3938 25.5223 49.0895 25.5223C47.7851 25.5223 46.5342 25.0041 45.6119 24.0818C44.6896 23.1595 44.1714 21.9086 44.1714 20.6042H54.0075Z" fill="#24263B"/>
<path d="M49.0895 20.8145C51.8056 20.8145 54.0075 20.7219 54.0075 20.6077C54.0075 20.4935 51.8056 20.4009 49.0895 20.4009C46.3733 20.4009 44.1714 20.4935 44.1714 20.6077C44.1714 20.7219 46.3733 20.8145 49.0895 20.8145Z" fill="#263238"/>
<path d="M53.5 24C53.2033 24 52.9133 23.912 52.6666 23.7472C52.42 23.5824 52.2277 23.3481 52.1142 23.074C52.0006 22.7999 51.9709 22.4983 52.0288 22.2074C52.0867 21.9164 52.2296 21.6491 52.4393 21.4393C52.6491 21.2296 52.9164 21.0867 53.2074 21.0288C53.4983 20.9709 53.7999 21.0006 54.074 21.1142C54.3481 21.2277 54.5824 21.42 54.7472 21.6666C54.912 21.9133 55 22.2033 55 22.5C54.9992 22.8976 54.8409 23.2786 54.5598 23.5598C54.2786 23.8409 53.8976 23.9992 53.5 24ZM53.5 21.308C53.2642 21.308 53.0338 21.3779 52.8378 21.5089C52.6417 21.6399 52.489 21.826 52.3987 22.0438C52.3085 22.2617 52.2849 22.5013 52.3309 22.7325C52.3769 22.9638 52.4904 23.1762 52.6571 23.3429C52.8238 23.5096 53.0362 23.6231 53.2675 23.6691C53.4987 23.7151 53.7383 23.6915 53.9562 23.6013C54.174 23.511 54.3601 23.3583 54.4911 23.1622C54.6221 22.9662 54.692 22.7358 54.692 22.5C54.6912 22.1841 54.5653 21.8814 54.342 21.658C54.1186 21.4347 53.8159 21.3088 53.5 21.308Z" fill="#24263B"/>
<path d="M48.1677 10.0845C48.3514 10.6873 48.6243 11.2592 48.9774 11.7811C49.3482 12.2653 49.7573 12.719 50.2008 13.1377C50.711 13.6212 51.1197 14.2016 51.4032 14.8448C51.6685 15.5078 51.6969 16.242 51.4838 16.9235C51.2939 16.3225 51.0202 15.7513 50.6705 15.2269C50.2989 14.7433 49.8898 14.2898 49.4471 13.8703C48.9392 13.3856 48.5318 12.8055 48.2483 12.1632C47.9813 11.5006 47.9528 10.7658 48.1677 10.0845Z" fill="#E0E0E0"/>
<path d="M46.6953 12.1386C46.8815 12.7411 47.1555 13.3128 47.5086 13.8352C47.8793 14.3206 48.2884 14.7755 48.732 15.1953C49.2417 15.6771 49.6494 16.2565 49.9308 16.8989C50.199 17.5623 50.2287 18.2982 50.0149 18.9811C49.8259 18.3798 49.552 17.8085 49.2017 17.2845C48.8347 16.8003 48.4303 16.3456 47.9923 15.9244C47.4844 15.4398 47.077 14.8596 46.7935 14.2173C46.5216 13.5566 46.4869 12.822 46.6953 12.1386Z" fill="#E0E0E0"/>
<path d="M34.0024 3.48384C36.7086 5.55903 37.6936 4.3672 39.0502 6.52652C38.5384 3.43477 36.656 2.60399 34.8437 2.56894C33.0314 2.53388 33.3154 2.95453 34.0024 3.48384Z" fill="#263238"/>
</svg>