<svg width="102" height="77" viewBox="0 0 102 77" fill="none" xmlns="http://www.w3.org/2000/svg">
<path d="M0.812465 34.9434L17.8812 72.2219C18.2724 73.0691 18.983 73.7271 19.8578 74.0522C20.7325 74.3773 21.7004 74.3431 22.55 73.9571L25.2598 72.7191L88.0064 43.9914C88.8539 43.6014 89.5126 42.8916 89.8384 42.0173C90.1642 41.143 90.1305 40.1753 89.7448 39.3258L74.6616 6.40007L72.686 2.05059C72.2941 1.20396 71.5834 0.54653 70.7089 0.221518C69.8344 -0.103494 68.8669 -0.0697471 68.0172 0.315403L2.55753 30.2778C1.70998 30.668 1.05097 31.3773 0.724099 32.2512C0.39723 33.1251 0.428993 34.0928 0.812465 34.9434Z" fill="#FF80A1"/>
<path d="M16.1506 68.4417L88.012 35.541L79.6017 17.1715L7.74037 50.0722L16.1506 68.4417Z" fill="white"/>
<path d="M34.2238 53.0343L79.6356 32.2432L76.6257 25.6689L31.2139 46.4601L34.2238 53.0343Z" fill="#407BFF"/>
<path opacity="0.8" d="M34.2238 53.0343L79.6356 32.2432L76.6257 25.6689L31.2139 46.4601L34.2238 53.0343Z" fill="white"/>
<g style="mix-blend-mode:multiply" opacity="0.5">
<path d="M10.5715 35.4107L25.2597 72.7057L88.0062 43.978C88.8538 43.588 89.5125 42.8783 89.8382 42.004C90.164 41.1297 90.1304 40.162 89.7447 39.3124L74.6614 6.38672L12.5602 30.8439C11.6928 31.1881 10.9967 31.8616 10.6241 32.7172C10.2515 33.5729 10.2326 34.5412 10.5715 35.4107Z" fill="#24263B"/>
</g>
<path d="M14.941 30.9727L82.8667 7.11798C83.7479 6.81131 84.7147 6.86602 85.5557 7.27016C86.3967 7.67429 87.0434 8.39497 87.3545 9.27462L100.94 47.959C101.247 48.8403 101.192 49.8071 100.789 50.6486C100.386 51.49 99.6656 52.1376 98.7863 52.4501L30.8606 76.3048C29.9789 76.6107 29.0121 76.5556 28.1708 76.1516C27.3295 75.7477 26.682 75.0275 26.3695 74.1482L12.7844 35.4637C12.4776 34.5821 12.5322 33.6149 12.9363 32.7733C13.3404 31.9318 14.0611 31.2845 14.941 30.9727Z" fill="#FFB3C7"/>
<path d="M23.8937 67.0938L98.4641 40.9065L92.5544 24.0781L17.984 50.2654L23.8937 67.0938Z" fill="white"/>
<path d="M69.0569 23.7048L84.4718 18.2915L83.6285 15.8901L68.2136 21.3034L69.0569 23.7048Z" fill="white"/>
<path d="M82.0297 50.8944L94.397 46.5513L93.9562 45.2962L81.5889 49.6393L82.0297 50.8944Z" fill="#914A63"/>
<path d="M79.3027 54.5502L95.2395 48.9536L94.7988 47.6986L78.862 53.2951L79.3027 54.5502Z" fill="#914A63"/>
<path d="M80.5783 42.9083L89.8831 39.642C90.3736 39.4675 90.7754 39.1063 91.0011 38.6371C91.2267 38.1679 91.2581 37.6286 91.0882 37.1364C90.9136 36.6459 90.5525 36.2441 90.0833 36.0184C89.6141 35.7928 89.0747 35.7615 88.5826 35.9313L79.2745 39.2008C78.7839 39.3754 78.3822 39.7366 78.1565 40.2058C77.9308 40.675 77.8995 41.2143 78.0694 41.7065C78.2446 42.1972 78.6065 42.5988 79.0764 42.8239C79.5463 43.049 80.0862 43.0793 80.5783 42.9083Z" fill="#FF80A1"/>
<path d="M64.639 48.5058L73.9471 45.2363C74.4339 45.061 74.8325 44.7017 75.0572 44.2356C75.282 43.7695 75.3149 43.2339 75.1489 42.7438C74.9736 42.2539 74.6122 41.8529 74.1431 41.6279C73.674 41.4029 73.135 41.372 72.6432 41.542L63.3384 44.8116C62.8479 44.9861 62.4461 45.3473 62.2205 45.8165C61.9948 46.2857 61.9635 46.825 62.1333 47.3172C62.3112 47.8047 62.6737 48.2027 63.1425 48.4251C63.6114 48.6475 64.1489 48.6765 64.639 48.5058Z" fill="#FF80A1"/>
<path d="M48.7095 54.103L58.0176 50.8335C58.5032 50.6569 58.9003 50.297 59.1238 49.8311C59.3472 49.3651 59.3792 48.8302 59.2128 48.341C59.0376 47.8511 58.6762 47.4501 58.207 47.2251C57.7379 47 57.1989 46.9692 56.7072 47.1392L47.3925 50.3955C46.9026 50.5708 46.5016 50.9322 46.2766 51.4013C46.0516 51.8705 46.0207 52.4095 46.1907 52.9012C46.3658 53.3942 46.7294 53.7977 47.2016 54.023C47.6738 54.2483 48.2161 54.277 48.7095 54.103Z" fill="#FF80A1"/>
<g opacity="0.8">
<path d="M32.7636 59.7004L42.0717 56.4309C42.5591 56.2562 42.9585 55.8972 43.1839 55.431C43.4093 54.9649 43.4426 54.4289 43.2768 53.9384C43.1016 53.4485 42.7402 53.0475 42.271 52.8225C41.8019 52.5974 41.2629 52.5666 40.7712 52.7366L31.4631 56.0061C30.9725 56.1807 30.5708 56.5419 30.3451 57.0111C30.1194 57.4803 30.0881 58.0196 30.258 58.5118C30.4358 58.9993 30.7983 59.3972 31.2672 59.6197C31.736 59.8421 32.2736 59.8711 32.7636 59.7004Z" fill="#FF80A1"/>
</g>
<path d="M79.7499 35.419L88.0321 32.5105C88.7355 32.2635 89.1055 31.493 88.8585 30.7895L87.1326 25.8749C86.8856 25.1715 86.1151 24.8015 85.4116 25.0485L77.1295 27.957C76.426 28.204 76.056 28.9745 76.3031 29.678L78.029 34.5926C78.276 35.296 79.0465 35.666 79.7499 35.419Z" fill="#FF678E"/>
<path opacity="0.8" d="M31.358 39.8273C30.1631 39.8276 29.0118 39.3792 28.1318 38.571C27.2518 37.7628 26.7073 36.6536 26.6062 35.4631C26.5051 34.2726 26.8547 33.0875 27.5858 32.1424C28.3169 31.1974 29.3762 30.5613 30.5539 30.3601C31.7317 30.1589 32.9421 30.4072 33.9454 31.056C34.9488 31.7047 35.672 32.7066 35.9718 33.8632C36.2717 35.0197 36.1263 36.2467 35.5646 37.3013C35.0028 38.3558 34.0656 39.1609 32.9384 39.5573C32.4307 39.7362 31.8963 39.8275 31.358 39.8273ZM31.358 30.6081C30.8523 30.6091 30.3504 30.6948 29.873 30.8616C28.7545 31.2548 27.838 32.076 27.3249 33.1448C26.8118 34.2136 26.7442 35.4424 27.1369 36.5611C27.4091 37.3335 27.8884 38.0163 28.5224 38.5348C29.1564 39.0533 29.9207 39.3876 30.7319 39.501C31.543 39.6145 32.3697 39.5028 33.1217 39.1783C33.8736 38.8537 34.5219 38.3286 34.9957 37.6605C35.4694 36.9924 35.7504 36.2069 35.8079 35.3899C35.8654 34.5729 35.6973 33.7558 35.3218 33.0279C34.9463 32.3 34.378 31.6893 33.679 31.2625C32.9799 30.8358 32.177 30.6094 31.358 30.6081Z" fill="white"/>
<path opacity="0.8" d="M20.1896 38.9908C20.4931 39.8498 21.0444 40.5996 21.7738 41.1455C22.5031 41.6914 23.3779 42.0089 24.2876 42.058C25.1974 42.107 26.1012 41.8854 26.8851 41.4211C27.6689 40.9568 28.2976 40.2707 28.6917 39.4493C29.0859 38.628 29.2278 37.7082 29.0996 36.8062C28.9714 35.9043 28.5787 35.0605 27.9713 34.3816C27.3638 33.7026 26.5688 33.2189 25.6866 32.9914C24.8044 32.764 23.8746 32.803 23.0146 33.1037C22.442 33.3039 21.9145 33.6152 21.4624 34.0196C21.0103 34.4241 20.6424 34.9139 20.38 35.4608C20.1175 36.0077 19.9656 36.6011 19.933 37.2068C19.9003 37.8126 19.9875 38.4188 20.1896 38.9908Z" fill="white"/>
</svg>
