<svg width="129" height="38" viewBox="0 0 129 38" fill="none" xmlns="http://www.w3.org/2000/svg">
<g opacity="0.9">
<path d="M51.2013 17.7321C48.0865 16.0463 46.634 14.8662 46.634 14.018V12.7142C46.634 12.269 46.6802 11.7791 47.0164 11.4946C47.2477 11.2997 47.6085 11.2101 48.1143 11.2154H48.1605C48.5738 11.2075 48.9068 11.3023 49.1474 11.5025C49.5699 11.8555 49.6593 12.4824 49.6593 12.9486V15.5616H56.2188V12.7168C56.2188 9.69814 53.727 8.34949 48.1358 8.34949C42.5046 8.34949 39.766 9.77716 39.766 12.7168V14.6081C39.766 16.0568 41.6102 17.7321 45.0982 19.4495C49.1412 21.4409 49.6593 22.5393 49.6593 23.2742V24.6176C49.6593 25.1392 49.6624 25.6791 49.3016 25.9847C49.0672 26.1849 48.691 26.2824 48.1543 26.2824C46.6216 26.2824 46.3225 25.7318 46.3225 24.7836V21.1722H39.7629V25.047C39.7629 27.984 42.5076 29.4169 48.1543 29.4248C53.7856 29.4248 56.5242 27.9919 56.5242 25.047V22.4972C56.5272 20.922 54.5751 19.5575 51.2013 17.7321Z" fill="#24263B"/>
<path d="M88.5168 17.7315C85.402 16.0457 83.9495 14.8656 83.9495 14.0174V12.7136C83.9495 12.2684 83.9957 11.7785 84.335 11.494C84.5663 11.2991 84.9209 11.2095 85.4329 11.2148H85.4791C85.8924 11.2042 86.2254 11.3017 86.466 11.5019C86.8885 11.8548 86.9779 12.4818 86.9779 12.948V15.561H93.5375V12.7162C93.5375 9.69753 91.0456 8.34888 85.4545 8.34888C79.8232 8.34888 77.0846 9.77655 77.0846 12.7162V14.6075C77.0846 16.4908 78.8055 17.6683 82.4168 19.4489C86.4598 21.4403 86.9779 22.5387 86.9779 23.2736V24.617C86.9779 25.1386 86.981 25.6785 86.6202 25.9867C86.3858 26.1869 86.0096 26.2844 85.473 26.2844C83.9402 26.2844 83.6411 25.7339 83.6411 24.7856V21.1742H77.0815V25.049C77.0815 27.986 79.8263 29.4189 85.473 29.4268C91.1042 29.4268 93.8428 27.9939 93.8428 25.049V22.4992C93.8428 20.6132 91.9523 19.5885 88.5168 17.7315Z" fill="#24263B"/>
<path d="M68.792 24.5223C68.792 25.4363 68.5792 26.2845 67.0311 26.2845C65.5015 26.2845 65.2918 25.4363 65.2918 24.5223V8.66772H58.5533V25.0491C58.5533 27.9545 61.406 29.427 67.0342 29.427C72.6747 29.4191 75.5335 27.9466 75.5335 25.0491V8.66772H68.792V24.5223Z" fill="#24263B"/>
<path d="M95.9894 29.0955H110.669V26.2296H103.073V19.3994H109.435V17.3106H103.073V11.534H110.669V8.66553H95.9894V29.0955Z" fill="#24263B"/>
<path d="M120.812 8.66553H111.924V29.0955H118.847V21.2407H119.177C119.196 21.2407 119.214 21.2407 119.233 21.2407C125.382 21.2407 128.549 20.1238 128.648 17.9164V13.0407C128.648 10.0642 126.159 8.67343 120.812 8.66553ZM118.847 11.534H120.195C120.636 11.534 120.966 11.6341 121.21 11.8422C121.725 12.2848 121.725 13.1303 121.722 13.7493V16.3044C121.728 17.6267 121.688 18.3827 120.827 18.5486C120.51 18.6039 120.248 18.6276 119.449 18.6276H118.841V11.534H118.847Z" fill="#24263B"/>
<path d="M7.16266 13.1206L0.351929 18.9741L7.20518 24.7914L14.0159 18.9378L7.16266 13.1206Z" fill="#24263B"/>
<path d="M14.5192 6.80024L7.7085 12.6538L14.5617 18.4711L21.3725 12.6175L14.5192 6.80024Z" fill="#24263B"/>
<path d="M21.8503 0.499948L15.0396 6.35352L21.8928 12.1708L28.7035 6.3172L21.8503 0.499948Z" fill="#24263B"/>
<path opacity="0.8" d="M29.4601 13.0571L22.6494 18.9106L29.5027 24.7279L36.3134 18.8743L29.4601 13.0571Z" fill="#24263B"/>
<path opacity="0.8" d="M22.0211 6.74409L15.2103 12.5977L22.0636 18.4149L28.8743 12.5613L22.0211 6.74409Z" fill="#24263B"/>
<path opacity="0.8" d="M22.0407 19.4345L15.23 25.2881L22.0832 31.1053L28.894 25.2518L22.0407 19.4345Z" fill="#24263B"/>
<path opacity="0.8" d="M14.6022 25.8291L7.7915 31.6826L14.6448 37.4999L21.4555 31.6463L14.6022 25.8291Z" fill="#24263B"/>
<path d="M21.4549 25.2504L14.6017 19.4331L7.79095 25.2867L14.6442 31.1039L21.4549 25.2504Z" fill="#24263B"/>
</g>
</svg>
