<svg width="98" height="59" viewBox="0 0 98 59" fill="none" xmlns="http://www.w3.org/2000/svg">
<path d="M0 19.4317L1.77703 20.1939L29.7097 4.00205C31.9309 2.71934 35.8367 2.88665 38.4097 4.35526L95.8484 37.6685C95.9594 37.7428 96.0705 37.7986 96.163 37.8729L97.9586 37.3338V39.639C97.9401 40.4384 97.4588 41.2191 96.4592 41.7768L68.2489 58.136C66.0276 59.4187 62.1219 59.2514 59.5489 57.7828L2.12873 24.4696C0.740428 23.6702 0.0370214 22.6478 0 21.6625V19.4317Z" fill="url(#paint0_linear)"/>
<path d="M71.8494 54.8274C71.8494 55.0318 71.9974 55.1248 72.1826 55.0133C72.3677 54.9017 72.5157 54.66 72.5157 54.4555C72.5157 54.2511 72.3677 54.1581 72.1826 54.2696C71.9974 54.3626 71.8494 54.6229 71.8494 54.8274Z" fill="#888DA3"/>
<path d="M72.9788 54.1208C72.9788 54.3253 73.1268 54.4182 73.312 54.3067C73.4971 54.1951 73.6451 53.9535 73.6451 53.749C73.6451 53.5445 73.4971 53.4516 73.312 53.5631C73.1268 53.656 72.9788 53.8977 72.9788 54.1208Z" fill="#888DA3"/>
<path d="M74.1277 53.3959C74.1277 53.6004 74.2758 53.6934 74.4609 53.5818C74.646 53.4703 74.7941 53.2286 74.7941 53.0241C74.7941 52.8197 74.646 52.7267 74.4609 52.8382C74.2758 52.9312 74.1277 53.1914 74.1277 53.3959Z" fill="#888DA3"/>
<path d="M75.2734 52.6894C75.2734 52.8939 75.4215 52.9869 75.6066 52.8753C75.7917 52.7638 75.9398 52.5221 75.9398 52.3176C75.9398 52.1131 75.7917 52.0202 75.6066 52.1317C75.4215 52.2247 75.2734 52.4663 75.2734 52.6894Z" fill="#888DA3"/>
<path d="M90.1523 44.2487C90.1523 44.4532 90.3004 44.5462 90.4855 44.4346C90.6706 44.3231 90.8187 44.0814 90.8187 43.8769C90.8187 43.6724 90.6706 43.5795 90.4855 43.691C90.3004 43.784 90.1523 44.0256 90.1523 44.2487Z" fill="#888DA3"/>
<path d="M91.3015 43.5241C91.3015 43.7286 91.4496 43.8215 91.6347 43.71C91.8198 43.5985 91.9679 43.3568 91.9679 43.1523C91.9679 42.9478 91.8198 42.8549 91.6347 42.9664C91.4496 43.0594 91.3015 43.3196 91.3015 43.5241Z" fill="#888DA3"/>
<path d="M92.4473 42.8176C92.4473 43.0221 92.5954 43.115 92.7805 43.0035C92.9656 42.8919 93.1137 42.6503 93.1137 42.4458C93.1137 42.2413 92.9656 42.1483 92.7805 42.2599C92.5954 42.3528 92.4473 42.5945 92.4473 42.8176Z" fill="#888DA3"/>
<path d="M93.5764 42.0927C93.5764 42.2972 93.7245 42.3901 93.9096 42.2786C94.0947 42.1671 94.2428 41.9254 94.2428 41.7209C94.2428 41.5164 94.0947 41.4235 93.9096 41.535C93.7245 41.628 93.5764 41.8882 93.5764 42.0927Z" fill="#888DA3"/>
<path d="M68.2673 55.9416L96.4776 39.5824C98.6989 38.2997 98.4212 36.0318 95.8482 34.5446L38.4096 1.23138C35.8551 -0.255813 31.9308 -0.423122 29.7095 0.878174L1.49924 17.2373C-0.722048 18.52 -0.444387 20.788 2.1286 22.2752L59.5673 55.5884C62.1217 57.0756 66.046 57.2243 68.2673 55.9416Z" fill="#EFF0F5"/>
<path d="M2.12788 21.9604L59.5665 55.2737C62.121 56.7608 66.0453 56.9282 68.2666 55.6269L96.4769 39.2677C97.4209 38.7286 97.9022 38.0036 97.9577 37.2414C98.0318 38.1151 97.532 38.9703 96.4769 39.5837L68.2666 55.9429C66.0453 57.2256 62.1395 57.0583 59.5665 55.5897L2.12788 22.2765C0.647027 21.4213 -0.0748895 20.3059 0.0176639 19.2649C0.073196 20.213 0.795113 21.1797 2.12788 21.9604Z" fill="#BFC4D5"/>
<path d="M1.81494 20.603C2.11111 21.0678 2.57388 21.4954 3.22175 21.8672L17.2158 29.9724L35.0231 40.2898L60.2902 54.9387C62.4374 56.1842 65.7138 56.3144 67.5649 55.2361L93.3503 40.2898L95.2939 39.1558C97.145 38.0776 96.9229 36.1814 94.7756 34.9359L86.2052 29.9724L70.0268 20.603L47.8325 7.75739L37.7072 1.88296C35.5599 0.637432 32.2835 0.507302 30.4325 1.58552L19.7888 7.75739L2.70345 17.6472C1.4077 18.4094 1.13004 19.562 1.81494 20.603Z" fill="#2A2A2C"/>
<path d="M2.18404 20.3621C2.23958 20.455 2.29511 20.5108 2.36915 20.6037C2.6283 20.9198 2.98 21.2172 3.44277 21.4961L18.0847 29.9917L20.1024 31.1628L35.892 40.3091L38.5946 41.8892L51.7557 49.5111L60.4927 54.5676C61.5478 55.1811 62.9732 55.5529 64.38 55.5529C65.5276 55.5529 66.5828 55.3112 67.3047 54.8836L73.08 51.5374L92.4237 40.3277L95.0337 38.8219C95.7001 38.4315 96.0703 37.9296 96.0703 37.3719C96.0703 36.6655 95.4965 35.9405 94.5154 35.3456L85.2786 29.9917L69.1187 20.6223L67.4157 19.6371L46.9429 7.75809L44.0182 6.0664L37.4839 2.27405C36.4288 1.64199 35.0035 1.30737 33.5782 1.30737C32.7822 1.30737 32.0418 1.41891 31.4124 1.6234C31.1348 1.71635 30.8756 1.82789 30.635 1.95802L20.6577 7.7395L16.3817 10.2306L2.92447 18.0383C2.36915 18.3544 2.01745 18.7633 1.92489 19.1909C1.83234 19.5627 1.9249 19.9717 2.18404 20.3621Z" fill="#3A3F47"/>
<path d="M44.0195 6.04663L51.7755 49.4914L60.5125 54.5478C61.5677 55.1613 62.993 55.5331 64.3998 55.5331C65.5475 55.5331 66.6026 55.2914 67.3245 54.8639L73.0998 51.5177L67.3985 19.6173L46.9442 7.75691L44.0195 6.04663Z" fill="#3E444D"/>
<path d="M16.3831 10.23L20.1222 31.1437L35.9118 40.2899L38.6144 41.8701L31.4322 1.6228C31.1546 1.71575 30.8954 1.82729 30.6548 1.95742L20.6775 7.7389L16.3831 10.23Z" fill="#3E444D"/>
<path d="M94.255 37.3901C94.255 37.9106 93.9219 38.3754 93.2925 38.7472L90.8491 40.16L85.9622 42.9857L77.9471 47.6332L72.6716 50.7005L67.2479 53.8422C66.563 54.2512 65.5635 54.4743 64.4898 54.4743C63.1571 54.4743 61.8243 54.1397 60.8432 53.5634L51.6249 48.2095L39.2598 41.0523L36.7053 39.5837L24.044 32.2407L21.8782 30.9952L19.9716 29.8983L15.9733 27.5746L6.2182 21.9233C5.77394 21.663 5.44075 21.3841 5.20011 21.0867C5.14458 21.0124 5.07054 20.938 5.03352 20.8636C4.79288 20.4918 4.70032 20.12 4.79288 19.7668C4.88543 19.3578 5.21862 18.986 5.73692 18.67L13.8631 14.3571L17.954 14.5988L20.3419 13.2046L26.9687 9.35644C27.0427 9.31926 27.1168 9.28208 27.1723 9.2449C27.3759 9.13336 27.487 9.059 27.487 9.059L27.3944 6.27051L31.7444 3.53779C31.9666 3.40766 32.2072 3.29612 32.4849 3.22176C33.0772 3.01727 33.7621 2.92432 34.521 2.92432C35.8538 2.92432 37.1866 3.24035 38.1862 3.83522L44.3317 7.38591L47.0898 8.98464L66.3224 20.1386L67.9328 21.0681L83.1301 29.8798L92.8297 35.4939C93.7182 36.0516 94.255 36.7209 94.255 37.3901Z" fill="#D9D9E3"/>
<mask id="mask0" mask-type="alpha" maskUnits="userSpaceOnUse" x="4" y="2" width="91" height="53">
<path d="M94.255 37.3901C94.255 37.9106 93.9219 38.3754 93.2925 38.7472L90.8491 40.16L85.9622 42.9857L77.9471 47.6332L72.6716 50.7005L67.2479 53.8422C66.563 54.2512 65.5635 54.4743 64.4898 54.4743C63.1571 54.4743 61.8243 54.1397 60.8432 53.5634L51.6249 48.2095L39.2598 41.0523L36.7053 39.5837L24.044 32.2407L21.8782 30.9952L19.9716 29.8983L15.9733 27.5746L6.2182 21.9233C5.77394 21.663 5.44075 21.3841 5.20011 21.0867C5.14458 21.0124 5.07054 20.938 5.03352 20.8636C4.79288 20.4918 4.70032 20.12 4.79288 19.7668C4.88543 19.3578 5.21862 18.986 5.73692 18.67L13.8631 14.3571L17.954 14.5988L20.3419 13.2046L26.9687 9.35644C27.0427 9.31926 27.1168 9.28208 27.1723 9.2449C27.3759 9.13336 27.487 9.059 27.487 9.059L27.3944 6.27051L31.7444 3.53779C31.9666 3.40766 32.2072 3.29612 32.4849 3.22176C33.0772 3.01727 33.7621 2.92432 34.521 2.92432C35.8538 2.92432 37.1866 3.24035 38.1862 3.83522L44.3317 7.38591L47.0898 8.98464L66.3224 20.1386L67.9328 21.0681L83.1301 29.8798L92.8297 35.4939C93.7182 36.0516 94.255 36.7209 94.255 37.3901Z" fill="#EF87A1"/>
</mask>
<g mask="url(#mask0)">
<rect opacity="0.1" width="77.0499" height="9.89727" transform="matrix(-0.241029 0.970518 0.970518 0.241029 63.6365 -1.89722)" fill="white"/>
<rect opacity="0.1" width="77.0499" height="9.89727" transform="matrix(-0.241029 0.970518 0.970518 0.241029 38.9072 -23.7754)" fill="white"/>
<rect opacity="0.1" width="77.0499" height="3.53738" transform="matrix(-0.241029 0.970518 0.970518 0.241029 58.395 -0.364502)" fill="white"/>
<rect opacity="0.1" width="77.0499" height="3.53738" transform="matrix(-0.241029 0.970518 0.970518 0.241029 33.6658 -22.2424)" fill="white"/>
</g>
<path d="M16.0134 13.316L22.9734 9.30054C23.103 9.22618 23.0845 9.09605 22.9364 9.02169C22.7883 8.92874 22.5662 8.92874 22.4366 9.0031L15.4951 13.0185C15.3655 13.0929 15.384 13.223 15.5321 13.2974C15.6617 13.3903 15.8838 13.3903 16.0134 13.316Z" fill="#2A2A2C"/>
<path d="M23.0291 9.24461C23.0106 9.20743 22.9735 9.18884 22.9365 9.17025C22.7884 9.0773 22.5663 9.0773 22.4367 9.15166L15.4952 13.1671C15.4767 13.1857 15.4582 13.2043 15.4397 13.2229C15.3842 13.1485 15.4027 13.0741 15.4952 13.0184L22.4552 8.98435C22.5848 8.90999 22.8069 8.92858 22.955 9.00294C23.0476 9.0773 23.0846 9.17025 23.0291 9.24461Z" fill="#3A3F47"/>
<path d="M24.7681 7.8499C25.1753 8.09157 25.8602 8.09157 26.2859 7.8499C26.7117 7.60823 26.7117 7.21784 26.2859 6.97617C25.8787 6.7345 25.1938 6.7345 24.7681 6.97617C24.3608 7.19925 24.3608 7.60823 24.7681 7.8499Z" fill="#3A3F47"/>
<path d="M25.0627 7.68315C25.3219 7.83187 25.7476 7.83187 26.0253 7.68315C26.2844 7.53443 26.2844 7.27418 26.0253 7.12546C25.7661 6.97674 25.3404 6.97674 25.0627 7.12546C24.7851 7.27418 24.7851 7.53443 25.0627 7.68315Z" fill="#516F83"/>
<path d="M23.3415 8.79852C23.6377 8.96583 24.119 8.96583 24.4151 8.79852C24.7113 8.63121 24.7113 8.35236 24.4151 8.18505C24.119 8.01774 23.6377 8.01774 23.3415 8.18505C23.0453 8.35236 23.0453 8.63121 23.3415 8.79852Z" fill="#2A2A2C"/>
<path d="M6.25492 26.4407L9.62386 28.3926C9.90152 28.56 10.1236 28.3741 10.1236 28.0208C10.1236 27.649 9.90152 27.2215 9.62386 27.0728L6.25492 25.1022C5.97725 24.9349 5.75513 25.1208 5.75513 25.474C5.75513 25.8644 5.97725 26.292 6.25492 26.4407Z" fill="#C4C8D8"/>
<path d="M6.01468 26.6081L9.36512 28.5601C9.64278 28.7274 9.86491 28.5415 9.86491 28.1883C9.86491 27.8165 9.64278 27.3889 9.36512 27.2402L6.01468 25.2882C5.73702 25.1209 5.51489 25.3068 5.51489 25.66C5.51489 26.0133 5.73702 26.4408 6.01468 26.6081Z" fill="#A0A6C0"/>
<path d="M27.6341 38.8396L30.9845 40.7915C31.2622 40.9588 31.4843 40.7729 31.4843 40.4197C31.4843 40.0479 31.2622 39.6204 30.9845 39.4716L27.6341 37.5197C27.3564 37.3524 27.1343 37.5383 27.1343 37.8915C27.1343 38.2447 27.3564 38.6723 27.6341 38.8396Z" fill="#C4C8D8"/>
<path d="M27.3741 38.9883L30.7245 40.9402C31.0022 41.1075 31.2243 40.9216 31.2243 40.5684C31.2243 40.1966 31.0022 39.769 30.7245 39.6203L27.3741 37.6684C27.0964 37.5011 26.8743 37.687 26.8743 38.0402C26.8928 38.3934 27.1149 38.8395 27.3741 38.9883Z" fill="#A0A6C0"/>
<path d="M80.7268 49.7889C80.7268 50.1235 80.9304 50.2723 81.1711 50.1235L84.1883 48.3761C84.4289 48.2274 84.6326 47.837 84.6326 47.5209C84.6326 47.1863 84.4289 47.0376 84.1883 47.1863L83.8921 47.3536L81.1711 48.9338C80.986 49.0453 80.8194 49.3056 80.7453 49.5658C80.7453 49.6402 80.7268 49.7145 80.7268 49.7889Z" fill="#A0A6C0"/>
<path d="M80.7629 49.566L83.484 47.9858C83.6691 47.8743 83.8357 47.614 83.9098 47.3538L81.1887 48.9339C80.9851 49.0454 80.8185 49.3057 80.7629 49.566Z" fill="#767C95"/>
<defs>
<linearGradient id="paint0_linear" x1="97.9752" y1="31.0673" x2="0" y2="31.0673" gradientUnits="userSpaceOnUse">
<stop stop-color="#C4C8D8"/>
<stop offset="0.0224804" stop-color="#C4C8D8"/>
<stop offset="0.2827" stop-color="#C4C8D8"/>
<stop offset="0.3039" stop-color="#C0C5D6"/>
<stop offset="0.3229" stop-color="#B6BACE"/>
<stop offset="0.3409" stop-color="#A3A9C2"/>
<stop offset="0.3436" stop-color="#A0A6C0"/>
<stop offset="0.9862" stop-color="#A0A6C0"/>
<stop offset="0.9908" stop-color="#B4B9CD"/>
<stop offset="0.9954" stop-color="#C0C4D5"/>
<stop offset="1" stop-color="#C4C8D8"/>
</linearGradient>
</defs>
</svg>
