<svg width="86" height="83" viewBox="0 0 86 83" fill="none" xmlns="http://www.w3.org/2000/svg">
<g clip-path="url(#clip0)">
<g opacity="0.21">
<path d="M3.01769 27.1376C3.01769 27.1376 0.643234 27.5593 2.17674 32.7437C3.68551 37.9281 4.92221 40.5823 4.92221 40.5823C4.92221 40.5823 5.14481 41.7729 4.18019 41.7481C3.21557 41.7481 1.26158 41.0288 0.643234 42.0954C0.000151336 43.1869 0.643234 44.452 2.17674 45.7667C3.71025 47.0566 6.99986 50.0333 7.29667 50.3061C7.59348 50.579 7.81608 51.1495 7.173 51.2487C6.52992 51.348 1.8552 50.9759 1.80573 53.1836C1.75626 55.3913 6.65359 58.3184 7.173 58.6408C7.69241 58.9633 7.79135 59.2362 7.69241 59.5338C7.59348 59.8315 6.03524 59.5587 4.6996 59.509C3.36397 59.4594 1.83046 59.6331 1.90467 60.923C1.97887 62.2129 4.60067 65.388 12.0209 67.5461L15.5083 68.3151L17.9817 65.6857C22.9285 59.7571 23.349 55.6642 22.7059 54.5479C22.0628 53.4316 20.6777 54.151 19.5894 54.9448C18.5259 55.7386 17.3881 56.83 17.1161 56.6316C16.8687 56.4331 16.7945 56.1603 17.0419 55.5897C17.2892 55.0192 19.7379 49.8844 18.4764 48.0488C17.1903 46.2132 13.5296 49.1402 12.936 49.4131C12.3424 49.686 12.2187 49.0906 12.3177 48.6937C12.4166 48.2969 13.4802 44.0055 14.049 42.0706C14.6179 40.1358 14.4448 38.7218 13.307 38.1761C12.194 37.6552 10.9573 39.342 10.1658 39.8629C9.37432 40.4086 8.90438 39.2924 8.90438 39.2924C8.90438 39.2924 8.45917 36.3901 6.82672 31.2305C5.24375 26.1453 2.96823 27.1624 2.96823 27.1624" fill="#EBEBEB"/>
<path d="M15.5326 69.2082C14.3701 65.4129 12.3914 58.6409 10.6848 52.8116C8.95339 47.007 7.39515 41.7482 6.25739 37.9529C5.68851 36.0677 5.21856 34.5298 4.89702 33.4631C4.74862 32.9422 4.60022 32.5205 4.52601 32.2476C4.47655 32.0988 4.45181 31.9996 4.42708 31.9251C4.40234 31.8507 4.40234 31.8259 4.40234 31.8259C4.40234 31.8259 4.42708 31.8507 4.45181 31.9251C4.47655 31.9996 4.50128 32.0988 4.55075 32.2476C4.64968 32.5205 4.77335 32.9422 4.94649 33.4631C5.29277 34.5298 5.76271 36.0429 6.35633 37.9529C7.51882 41.7482 9.1018 47.007 10.8084 52.8116C12.5398 58.6161 14.4938 65.4129 15.6316 69.2082" fill="#E0E0E0"/>
<path d="M3.36426 43.2117C3.36426 43.2117 3.43846 43.2365 3.58686 43.3357C3.73527 43.4101 3.93314 43.5341 4.20521 43.683C4.72463 43.9807 5.41718 44.4272 6.18393 44.9233C6.92595 45.4194 7.59377 45.8659 8.11318 46.2132C8.33579 46.362 8.53366 46.486 8.7068 46.6101C8.8552 46.7093 8.9294 46.7589 8.9294 46.7589C8.9294 46.7589 8.83047 46.7341 8.7068 46.6349C8.55839 46.5604 8.36052 46.4364 8.08845 46.2876C7.56903 45.9651 6.90122 45.5186 6.13446 45.0225C5.39244 44.5264 4.69989 44.0799 4.18048 43.7574C3.95787 43.6086 3.76 43.4845 3.58686 43.3853C3.43846 43.2861 3.36426 43.2365 3.36426 43.2117Z" fill="#E0E0E0"/>
<path d="M9.2017 46.5853C9.17697 46.5605 10.0179 45.097 11.0815 43.2862C12.145 41.4754 13.0355 40.0366 13.0602 40.0366C13.0849 40.0614 12.244 41.525 11.1804 43.3358C10.1169 45.1466 9.22644 46.5853 9.2017 46.5853Z" fill="#E0E0E0"/>
<path d="M11.4268 55.6145C11.4268 55.6145 11.4762 55.54 11.5999 55.416C11.7483 55.292 11.9214 55.1183 12.1193 54.9199C12.5645 54.4982 13.1581 53.9277 13.826 53.2579C14.469 52.5882 15.0379 51.968 15.4584 51.5215C15.6563 51.2983 15.8047 51.1246 15.9531 50.9758C16.0767 50.8518 16.1262 50.7773 16.1509 50.7773C16.1509 50.7773 16.1015 50.8518 16.0025 51.0006C15.9036 51.1246 15.7552 51.3231 15.5573 51.5711C15.1616 52.0424 14.6174 52.6626 13.9496 53.3323C13.3065 54.0021 12.6882 54.5726 12.2182 54.9695C11.9956 55.168 11.7978 55.3416 11.6741 55.4408C11.501 55.5648 11.4268 55.6393 11.4268 55.6145Z" fill="#E0E0E0"/>
<path d="M5.49121 53.7542C5.49121 53.7542 5.59015 53.7541 5.73855 53.8038C5.91169 53.8534 6.13429 53.903 6.38163 53.9774C6.92578 54.1262 7.6678 54.3495 8.48402 54.5975C9.30024 54.8456 10.0423 55.0688 10.5864 55.2425C10.8337 55.3169 11.0564 55.3913 11.2295 55.4409C11.3779 55.4905 11.4521 55.5153 11.4521 55.5402C11.4521 55.5402 11.3532 55.5402 11.2048 55.4905C11.0316 55.4409 10.809 55.3913 10.5617 55.3169C10.0175 55.1681 9.27551 54.9448 8.45929 54.6968C7.64307 54.4487 6.90105 54.2255 6.3569 54.0518C6.10956 53.9774 5.88695 53.903 5.71382 53.8534C5.56541 53.779 5.49121 53.7542 5.49121 53.7542Z" fill="#E0E0E0"/>
<path d="M6.45605 61.9895C6.45605 61.9895 6.55499 62.0143 6.75286 62.0639C6.97547 62.1135 7.24754 62.1879 7.56908 62.2872C8.26163 62.4856 9.22626 62.7585 10.2651 63.0561C11.3286 63.3538 12.2685 63.6515 12.9611 63.8499C13.2826 63.9491 13.5547 64.0484 13.7773 64.098C13.9752 64.1724 14.0741 64.1972 14.0741 64.1972C14.0741 64.1972 13.9752 64.1724 13.7773 64.1228C13.5547 64.0732 13.2826 63.9988 12.9611 63.8995C12.2685 63.7011 11.3039 63.4282 10.2651 63.1306C9.20153 62.8329 8.26163 62.5352 7.56908 62.3368C7.24754 62.2376 6.97547 62.1383 6.75286 62.0887C6.55499 62.0391 6.45605 61.9895 6.45605 61.9895Z" fill="#E0E0E0"/>
<path d="M13.9258 64.0981C13.9258 64.0981 14 63.9989 14.1484 63.8501C14.3215 63.6764 14.5194 63.4532 14.7915 63.2051C15.3356 62.6594 16.0776 61.8904 16.8691 61.0222C17.6606 60.154 18.3779 59.3602 18.8726 58.7649C19.1199 58.492 19.3178 58.244 19.4662 58.0703C19.6146 57.8967 19.6888 57.8223 19.6888 57.8223C19.6888 57.8223 19.6146 57.9215 19.4909 58.0951C19.3673 58.2688 19.1694 58.5168 18.922 58.8145C18.4274 59.4098 17.7348 60.2284 16.9433 61.0966C16.1518 61.9648 15.3851 62.709 14.8409 63.2547C14.5689 63.5276 14.3463 63.726 14.1731 63.8749C14.0247 64.0237 13.9258 64.0981 13.9258 64.0981Z" fill="#E0E0E0"/>
</g>
<path d="M21.6188 66.2561C18.9228 65.9833 10.3154 65.7848 7.64415 66.281C4.99761 66.7523 1.9306 69.1832 0.792842 71.3661C-0.493324 73.7971 -0.270718 78.4606 1.75747 80.445C3.78565 82.4295 7.42154 81.8341 10.4144 82.2558C13.4072 82.6775 16.4742 82.5287 19.5164 82.4543C38.5863 81.9582 57.8046 84.4139 76.6766 81.8093C79.0758 81.4869 81.6481 80.9907 83.3301 79.4528C85.2098 77.7412 85.5808 75.1862 85.8529 72.8297C86.0755 70.9692 86.2239 68.9104 84.9872 67.3972C84.171 66.405 82.8601 65.8096 81.4997 65.5616C83.7011 62.8578 84.7894 60.8733 84.913 58.5664C85.1109 54.4982 84.0473 51.4719 83.8 47.4534C83.5527 43.4349 83.5527 39.3171 84.7152 35.4474C85.4324 33.0909 86.496 30.2878 84.8883 28.4274C83.9731 27.3608 82.4644 27.0383 81.0545 26.815C64.3591 24.0864 47.3174 24.0368 30.4489 25.2523C28.4454 25.4011 26.1946 25.674 24.9084 27.2119C23.8449 28.4522 23.6965 30.2134 23.8696 31.8258C24.0675 33.4382 24.5869 35.0009 24.7106 36.6381C25.4031 44.3031 14.5202 57.4501 21.6188 66.2561Z" fill="#FFB3C7"/>
<path d="M21.6188 66.2561C18.9228 65.9833 10.3154 65.7848 7.64415 66.281C4.99761 66.7523 1.9306 69.1832 0.792842 71.3661C-0.493324 73.7971 -0.270718 78.4606 1.75747 80.445C3.78565 82.4295 7.42154 81.8341 10.4144 82.2558C13.4072 82.6775 16.4742 82.5287 19.5164 82.4543C38.5863 81.9582 57.8046 84.4139 76.6766 81.8093C79.0758 81.4869 81.6481 80.9907 83.3301 79.4528C85.2098 77.7412 85.5808 75.1862 85.8529 72.8297C86.0755 70.9692 86.2239 68.9104 84.9872 67.3972C84.171 66.405 82.8601 65.8096 81.4997 65.5616C83.7011 62.8578 84.7894 60.8733 84.913 58.5664C85.1109 54.4982 84.0473 51.4719 83.8 47.4534C83.5527 43.4349 83.5527 39.3171 84.7152 35.4474C85.4324 33.0909 86.496 30.2878 84.8883 28.4274C83.9731 27.3608 82.4644 27.0383 81.0545 26.815C64.3591 24.0864 47.3174 24.0368 30.4489 25.2523C28.4454 25.4011 26.1946 25.674 24.9084 27.2119C23.8449 28.4522 23.6965 30.2134 23.8696 31.8258C24.0675 33.4382 24.5869 35.0009 24.7106 36.6381C25.4031 44.3031 14.5202 57.4501 21.6188 66.2561Z" fill="#FFB3C7"/>
<path d="M25.0557 27.0383C25.0557 27.0383 25.3525 26.8647 25.9214 26.6166C26.4902 26.3686 27.3559 26.0213 28.5432 25.8229C29.7304 25.6244 31.1897 25.5748 32.8716 25.4756C34.5535 25.4012 36.4828 25.3019 38.6099 25.2275C42.8641 25.0787 47.9346 25.0043 53.5492 25.0539C59.1638 25.1035 65.3473 25.3019 71.8276 25.6988C72.6438 25.7484 73.4353 25.7981 74.2515 25.8477C75.043 25.8973 75.8592 25.9469 76.626 26.0957C77.3927 26.2446 78.1842 26.4926 78.8273 26.9639C79.1488 27.1872 79.4209 27.4848 79.6683 27.8073C79.8909 28.1298 80.064 28.4771 80.1877 28.8492C80.435 29.5933 80.4845 30.3623 80.435 31.1313C80.3608 31.9003 80.1877 32.6196 79.9898 33.339C79.7919 34.0584 79.5446 34.7529 79.3714 35.4475C79.1736 36.142 79.0252 36.8366 78.8768 37.5312C78.3326 40.2846 78.1842 42.9884 78.3573 45.4938C78.4315 46.7341 78.6047 47.9496 78.8026 49.0907C79.0252 50.2317 79.2972 51.3232 79.5446 52.3402C80.0887 54.3991 80.5339 56.2843 80.6823 57.9711C80.8307 59.6579 80.6823 61.1462 80.3855 62.2873C80.2371 62.8578 80.0393 63.354 79.8661 63.7757C79.6682 64.1974 79.4704 64.5198 79.2972 64.7927C79.1983 64.9167 79.1241 65.0408 79.0746 65.14C79.0004 65.2392 78.951 65.3136 78.8768 65.3632C78.7778 65.4873 78.7284 65.5617 78.7284 65.5617C78.7284 65.5617 78.7778 65.4873 78.8768 65.3632C78.9262 65.2888 78.9757 65.2144 79.0499 65.1152C79.1241 65.0159 79.1983 64.8919 79.2725 64.7679C79.4456 64.495 79.6188 64.1726 79.8167 63.7509C79.9898 63.3292 80.1877 62.833 80.3361 62.2625C80.6329 61.1214 80.7813 59.6331 80.6081 57.9463C80.4597 56.2595 79.9898 54.3743 79.4456 52.3154C79.1736 51.2736 78.9015 50.2069 78.6789 49.0658C78.4563 47.9248 78.3079 46.7093 78.2089 45.469C78.0358 42.9636 78.1595 40.2598 78.7284 37.4816C78.8768 36.787 79.0252 36.0924 79.223 35.3979C79.3962 34.7033 79.6435 34.0088 79.8414 33.2894C80.0393 32.57 80.2124 31.8507 80.2619 31.1065C80.3113 30.3623 80.2619 29.5933 80.0145 28.874C79.8909 28.5267 79.7177 28.1794 79.5198 27.8569C79.2972 27.5593 79.0252 27.2864 78.7284 27.0383C78.11 26.5918 77.3433 26.3438 76.5765 26.1949C75.8098 26.0461 75.0183 25.9965 74.202 25.9469C73.4106 25.8973 72.5943 25.8477 71.7781 25.7981C65.2978 25.4012 59.1143 25.2027 53.4997 25.1531C47.8851 25.1035 42.8146 25.1779 38.5604 25.3019C36.4333 25.3764 34.504 25.4508 32.8221 25.5252C31.1402 25.5996 29.6809 25.6492 28.5184 25.8477C27.3559 26.0461 26.4655 26.3686 25.8966 26.6166C25.5998 26.7407 25.4019 26.8399 25.2535 26.9143C25.1299 26.9887 25.0557 27.0383 25.0557 27.0383Z" fill="#263238"/>
<path d="M86.0003 74.3428C86.0003 74.3428 85.9261 74.3676 85.7777 74.3924C85.6293 74.442 85.4067 74.4916 85.1346 74.566C84.5657 74.7149 83.7495 74.9133 82.686 75.1862C82.1418 75.3102 81.5482 75.459 80.9051 75.6327C80.262 75.7815 79.5447 75.9303 78.778 76.104C77.2445 76.4264 75.5131 76.8481 73.5839 77.1706C72.6192 77.3443 71.6051 77.5427 70.5416 77.7163C70.0222 77.8156 69.478 77.89 68.9091 77.9644C68.365 78.0388 67.7961 78.138 67.2272 78.2125C66.6583 78.2869 66.0647 78.3861 65.4958 78.4853C65.199 78.5349 64.9022 78.5845 64.6054 78.6094C64.3086 78.6342 64.0118 78.6838 63.6903 78.7086C62.4783 78.8574 61.2169 79.0062 59.906 79.1551C54.7366 79.676 49.023 80.0481 43.0374 80.1225C37.0271 80.1473 31.3135 79.8744 26.1441 79.4279C24.858 79.3039 23.5965 79.1799 22.3598 79.0311C22.063 79.0062 21.7415 78.9566 21.4447 78.9318C21.1479 78.907 20.851 78.8574 20.5542 78.8078C19.9606 78.7334 19.3917 78.659 18.7981 78.5845C18.2292 78.5101 17.6604 78.4357 17.1162 78.3613C16.5721 78.2869 16.0279 78.2125 15.4838 78.138C14.4202 77.9644 13.4061 77.7908 12.4415 77.6419C10.4875 77.3443 8.75614 76.9474 7.22264 76.6497C6.45588 76.5009 5.7386 76.352 5.09552 76.228C4.45243 76.0792 3.85882 75.9303 3.31467 75.8063C2.25111 75.5583 1.41016 75.3598 0.841275 75.2358C0.569201 75.1614 0.346595 75.1118 0.198192 75.0869C0.0497878 75.0621 -0.0244141 75.0373 -0.0244141 75.0373C-0.0244141 75.0373 0.0497878 75.0621 0.198192 75.0869C0.346595 75.1118 0.569201 75.1614 0.841275 75.2358C1.41016 75.3598 2.25111 75.5583 3.31467 75.7815C3.85882 75.9055 4.45243 76.0296 5.09552 76.1784C5.7386 76.3272 6.45588 76.4513 7.22264 76.6001C8.75614 76.8978 10.4875 77.2698 12.4415 77.5675C13.4061 77.7164 14.4202 77.89 15.4838 78.0636C16.0032 78.1629 16.5473 78.2125 17.1162 78.2869C17.6604 78.3613 18.2292 78.4357 18.7981 78.5101C19.367 78.5845 19.9606 78.659 20.5542 78.7334C20.851 78.783 21.1479 78.8078 21.4447 78.8574C21.7415 78.8822 22.0383 78.907 22.3598 78.9566C23.5965 79.0807 24.8332 79.2047 26.1441 79.3287C31.3135 79.7752 37.0271 80.0481 43.0374 79.9985C49.023 79.9241 54.7366 79.552 59.906 79.0311C61.1921 78.8822 62.4536 78.7334 63.6655 78.5845C63.9623 78.5597 64.2839 78.5101 64.5807 78.4853C64.8775 78.4357 65.1743 78.3861 65.4711 78.3613C66.0647 78.2621 66.6336 78.1877 67.2025 78.1132C67.7714 78.0388 68.3403 77.9396 68.8844 77.8652C69.4286 77.7908 69.9727 77.7163 70.5168 77.6171C71.5804 77.4187 72.5945 77.245 73.5591 77.0714C75.4884 76.7489 77.2197 76.352 78.7533 76.0296C79.52 75.8559 80.2373 75.7319 80.8804 75.5831C81.5235 75.4342 82.1171 75.2854 82.6612 75.1366C83.7248 74.8885 84.5657 74.6652 85.1099 74.5412C85.382 74.4668 85.6046 74.4172 85.753 74.3924C85.9261 74.3428 86.0003 74.3428 86.0003 74.3428Z" fill="#263238"/>
<path d="M21.6182 66.2562C21.6182 66.2562 21.6676 66.2562 21.7666 66.2562C21.8655 66.2562 22.0139 66.281 22.2118 66.281C22.6075 66.3058 23.2011 66.3554 23.9432 66.405C24.6852 66.4546 25.6003 66.529 26.6886 66.5786C27.7522 66.6283 28.9641 66.7275 30.3245 66.7771C31.6602 66.8267 33.1442 66.9011 34.7272 66.9507C35.5186 66.9755 36.3349 67.0003 37.1758 67.0251C38.0168 67.05 38.8825 67.05 39.7729 67.0748C43.3346 67.1244 47.2425 67.0996 51.3484 67.0003C59.5601 66.8019 66.9803 66.3802 72.3475 66.0825C75.0188 65.9337 77.1954 65.8097 78.7042 65.7105C79.4462 65.6608 80.0398 65.636 80.4355 65.6112C80.6334 65.6112 80.7818 65.5864 80.8807 65.5864C80.9797 65.5864 81.0291 65.5864 81.0291 65.5864C81.0291 65.5864 80.9797 65.5864 80.8807 65.6112C80.7818 65.6112 80.6334 65.636 80.4355 65.636C80.0398 65.6608 79.4462 65.7105 78.7042 65.7601C77.1954 65.8593 75.0188 65.9833 72.3475 66.157C66.9803 66.4794 59.5601 66.9259 51.3484 67.1244C47.2425 67.2236 43.3346 67.2236 39.7729 67.174C38.8825 67.1492 38.0168 67.1492 37.1758 67.1244C36.3349 67.0996 35.5186 67.0748 34.7272 67.0499C33.1442 67.0003 31.6849 66.9259 30.3245 66.8763C28.9889 66.8267 27.7769 66.7275 26.6886 66.6531C25.6251 66.6035 24.7099 66.5042 23.9432 66.4546C23.2011 66.405 22.6075 66.3554 22.2118 66.3058C22.0139 66.281 21.8655 66.281 21.7666 66.2562C21.6676 66.281 21.6182 66.2562 21.6182 66.2562Z" fill="#263238"/>
<path d="M69.5769 81.0651C69.5274 81.0651 69.478 80.321 69.2059 79.4527C68.9585 78.5845 68.6123 77.9148 68.637 77.9148C68.6617 77.9148 68.7607 78.0636 68.8843 78.3365C69.008 78.6094 69.1811 78.9814 69.3048 79.4279C69.4285 79.8745 69.5027 80.2713 69.5274 80.569C69.6016 80.8667 69.6016 81.0403 69.5769 81.0651Z" fill="#263238"/>
<path d="M71.7779 80.0232C71.7284 80.0232 71.7284 79.4031 71.4564 78.6837C71.209 77.9643 70.8133 77.493 70.838 77.4682C70.8628 77.4434 71.308 77.9147 71.58 78.6589C71.8521 79.3783 71.8026 80.048 71.7779 80.0232Z" fill="#263238"/>
<path d="M77.2441 54.2997C77.2441 54.2501 77.8625 54.4486 78.5798 54.2501C79.2971 54.0765 79.7423 53.6051 79.767 53.6548C79.767 53.6548 79.6928 53.8036 79.4949 53.9524C79.2971 54.1013 79.0003 54.2997 78.6292 54.399C78.2582 54.4982 77.912 54.4982 77.6646 54.4486C77.3925 54.3742 77.2441 54.2997 77.2441 54.2997Z" fill="#263238"/>
<path d="M77.0967 51.3232C77.1215 51.2984 77.5419 51.5216 78.1356 51.6457C78.7044 51.7945 79.1991 51.7945 79.1991 51.8441C79.1991 51.8689 78.7044 51.9185 78.0861 51.7697C77.4925 51.6209 77.072 51.348 77.0967 51.3232Z" fill="#263238"/>
<path d="M59.9309 14.9329C60.2772 14.2632 60.8461 13.6678 61.5634 13.395C62.2807 13.1221 63.1464 13.2213 63.7152 13.7174C64.2841 14.2136 64.482 15.1562 64.0368 15.8011C65.0261 15.6027 66.0897 16.1484 66.5102 17.0662C66.9306 17.984 66.6586 19.1499 65.8918 19.7948C65.1251 20.415 63.9131 20.4398 63.0969 19.8445C62.9732 20.415 62.5775 20.8863 62.0333 21.1096C61.4892 21.308 60.8708 21.2088 60.4009 20.8615C59.2631 19.9685 59.5352 17.8848 58.249 17.1902" fill="#263238"/>
<path d="M59.041 18.2817C59.9809 17.3143 60.4509 15.8756 60.2282 14.5113C60.2035 14.3376 60.154 14.1392 60.2282 13.9656C60.3767 13.6679 60.8219 13.6679 61.0939 13.8663C61.3413 14.0896 61.4155 14.4369 61.4649 14.7593C61.5639 15.6275 61.4897 16.5453 61.2176 17.3887C61.0939 17.7112 60.9703 18.0585 60.7229 18.3314C60.5003 18.6042 60.154 18.7779 59.8078 18.8027C59.4615 18.8027 59.14 18.629 59.041 18.2817Z" fill="#D37BA9"/>
<path d="M58.2987 5.25871C57.8287 3.94401 55.5779 2.82775 54.366 2.15799C52.5357 1.16576 50.8538 1.43863 49.8644 2.40605C47.9599 0.892902 45.437 -0.521025 43.112 0.173535C40.787 0.868096 38.9567 3.34867 39.4514 5.73002C39.7482 7.14395 40.7623 8.38423 40.7623 9.79816C40.7623 10.7904 40.2676 11.6834 39.8966 12.5764C39.5256 13.4694 39.2288 14.5361 39.6245 15.4291C39.9956 16.2725 40.8612 16.7686 41.3559 17.5376C41.7517 18.1577 41.8753 18.9267 42.1227 19.6212C43.0873 22.201 46.2038 23.5405 48.8998 22.9948C51.5958 22.4491 53.7724 20.3406 54.9596 17.86C56.1468 15.3795 56.4931 12.5764 56.5426 9.82297" fill="#263238"/>
<path d="M48.207 4.73776C45.7089 4.39048 43.4334 6.2013 43.186 8.73149C42.8892 11.733 42.6419 15.5035 42.9387 17.8104C43.5076 22.2754 46.8961 22.9452 46.8961 22.9452C46.8961 22.9452 46.8714 24.6072 46.8219 26.542C46.7724 29.1218 48.7759 31.3047 51.3482 31.4535C54.1184 31.6272 56.4434 29.3947 56.4434 26.6164L56.3445 7.21834" fill="#B55B52"/>
<path d="M46.8714 22.9452C46.8714 22.9452 49.8642 23.1685 52.8818 21.4817C52.8818 21.4817 51.2741 24.5824 46.8467 24.0367L46.8714 22.9452Z" fill="#7C3835"/>
<path d="M49.6413 9.17807C49.6908 9.35171 50.3092 9.2773 51.0264 9.40132C51.7437 9.50055 52.3126 9.7238 52.4116 9.57496C52.461 9.50055 52.3621 9.35171 52.1395 9.17807C51.9169 9.00443 51.5459 8.8556 51.1254 8.78118C50.7049 8.73157 50.3092 8.78118 50.0371 8.8804C49.765 8.95482 49.6166 9.10366 49.6413 9.17807Z" fill="#263238"/>
<path d="M44.0023 9.50037C44.1013 9.6492 44.5218 9.50037 45.0412 9.52517C45.5606 9.52517 45.9811 9.6492 46.08 9.50037C46.1295 9.42595 46.0553 9.27712 45.8821 9.15309C45.709 9.00425 45.3875 8.90503 45.0412 8.90503C44.6949 8.90503 44.3981 9.02906 44.2002 9.15309C44.0271 9.30192 43.9529 9.45075 44.0023 9.50037Z" fill="#263238"/>
<path d="M49.4932 14.1888C49.4932 14.288 49.5674 14.3376 49.6663 14.3376C49.7652 14.3376 49.8147 14.2632 49.8147 14.164C49.8147 14.0647 49.7405 14.0151 49.6416 14.0151C49.5426 14.0151 49.4932 14.0896 49.4932 14.1888Z" fill="#D79870"/>
<path d="M44.8682 13.5438C44.8682 13.643 44.9424 13.6926 45.0413 13.6926C45.1403 13.6926 45.1897 13.6182 45.1897 13.519C45.1897 13.4197 45.1155 13.3701 45.0166 13.3701C44.9424 13.3701 44.8682 13.4445 44.8682 13.5438Z" fill="#D79870"/>
<path d="M44.0029 13.9903C44.0029 14.0895 44.0771 14.1391 44.1761 14.1391C44.275 14.1391 44.3245 14.0647 44.3245 13.9655C44.3245 13.8663 44.2503 13.8167 44.1513 13.8167C44.0524 13.8415 44.0029 13.9159 44.0029 13.9903Z" fill="#D79870"/>
<path d="M43.7061 13.3206C43.7061 13.4198 43.7803 13.4694 43.8792 13.4694C43.9781 13.4694 44.0276 13.395 44.0276 13.2958C44.0276 13.1966 43.9534 13.147 43.8545 13.147C43.7555 13.1718 43.7061 13.2462 43.7061 13.3206Z" fill="#D79870"/>
<path d="M50.2607 14.8834C50.2607 14.9826 50.3349 15.0322 50.4339 15.0322C50.5328 15.0322 50.5823 14.9578 50.5823 14.8586C50.5823 14.7593 50.5081 14.7097 50.4091 14.7097C50.3102 14.7097 50.2607 14.7841 50.2607 14.8834Z" fill="#D79870"/>
<path d="M50.8291 14.2137C50.8291 14.3129 50.9033 14.3625 51.0022 14.3625C51.1012 14.3625 51.1506 14.2881 51.1506 14.1889C51.1506 14.0897 51.0764 14.04 50.9775 14.04C50.9033 14.04 50.8291 14.1145 50.8291 14.2137Z" fill="#D79870"/>
<path d="M48.4055 4.04332C48.925 7.56573 51.6457 10.6664 55.059 11.6339C54.0202 13.2462 54.8116 16.2229 54.8611 18.7283C54.9106 21.0601 54.9353 21.7298 56.4688 22.8709C57.7303 23.1189 58.3239 19.6957 59.2143 18.7035C60.1047 17.7113 60.9457 16.5206 60.8467 15.1811C60.7973 14.5609 60.5252 13.9656 60.4757 13.3455C60.4263 12.6509 60.6241 11.9812 60.7231 11.2866C61.1683 8.26029 59.5111 5.08516 56.8398 3.59681C54.1686 2.10847 50.7058 2.33172 48.1582 4.01851" fill="#263238"/>
<path d="M60.3766 12.9981C60.3766 12.9981 60.426 12.9484 60.4755 12.874C60.5497 12.7748 60.6239 12.6508 60.6734 12.4275C60.7723 12.0306 60.6981 11.3857 60.3518 10.7159C60.1787 10.3686 59.9314 10.0462 59.6098 9.7485C59.2883 9.45083 58.942 9.15316 58.5215 8.8803C58.1011 8.60743 57.6311 8.38418 57.1117 8.23535C56.5923 8.08651 56.0481 7.96248 55.504 7.83846C54.9598 7.71443 54.4157 7.5904 53.8963 7.44156C53.4016 7.29273 52.9069 7.09428 52.4864 6.87103C51.6208 6.44933 50.8787 5.92841 50.3346 5.45711C49.7657 4.9858 49.37 4.53929 49.0979 4.21682C48.9742 4.06798 48.8753 3.94395 48.8011 3.84473C48.7269 3.77031 48.7021 3.7207 48.7021 3.7207C48.7021 3.7207 48.7269 3.77031 48.8011 3.86954C48.8753 3.96876 48.9495 4.09279 49.0979 4.24162C49.3452 4.5641 49.741 5.0106 50.3099 5.50672C50.8787 6.00283 51.596 6.52375 52.4864 6.94545C52.9317 7.1687 53.4016 7.36715 53.921 7.51598C54.4404 7.68962 54.9846 7.78884 55.5287 7.91287C56.0729 8.0369 56.617 8.13613 57.1364 8.30977C57.6311 8.4586 58.1011 8.68185 58.5215 8.92991C58.942 9.17797 59.2883 9.47564 59.6098 9.7733C59.9314 10.071 60.1787 10.3934 60.3518 10.7159C60.6981 11.3609 60.7723 11.981 60.6981 12.3779C60.5497 12.8244 60.3518 12.9981 60.3766 12.9981Z" fill="#4D5A64"/>
<path d="M48.7021 3.7207C48.7021 3.7207 48.7269 3.77031 48.8011 3.81993C48.8753 3.89434 48.9742 3.99357 49.0979 4.1176C49.3452 4.36565 49.741 4.71293 50.2604 5.10982C50.7798 5.48191 51.4229 5.92841 52.2391 6.22608C52.6349 6.37492 53.0801 6.44933 53.55 6.52375C54.02 6.59817 54.4899 6.64778 54.9598 6.7222C55.9245 6.82142 56.8644 6.94545 57.6806 7.19351C58.4968 7.44156 59.1646 7.81365 59.6593 8.21054C60.154 8.60743 60.4755 9.02913 60.6487 9.35161C60.7229 9.50044 60.7971 9.62447 60.8218 9.72369C60.8465 9.82291 60.8713 9.84772 60.8713 9.84772C60.8713 9.84772 60.8713 9.79811 60.8218 9.69889C60.7971 9.59966 60.7476 9.47563 60.6734 9.30199C60.525 8.97952 60.2034 8.53302 59.7088 8.13612C59.2141 7.71443 58.5215 7.34234 57.7053 7.09428C56.8891 6.84623 55.9492 6.7222 54.9846 6.59817C54.4899 6.54856 54.02 6.47414 53.5747 6.42453C53.1295 6.35011 52.6843 6.27569 52.2886 6.12686C51.4971 5.854 50.854 5.4323 50.3346 5.06021C49.8152 4.68813 49.4194 4.34085 49.1474 4.09279C49.0237 3.96876 48.9248 3.89434 48.8506 3.81993C48.7516 3.74551 48.7021 3.7207 48.7021 3.7207Z" fill="#4D5A64"/>
<path d="M43.6318 0.0246966C43.6318 0.0495024 44.0028 0.0495024 44.6212 0.173531C44.7696 0.198337 44.9427 0.247948 45.0911 0.322366C45.2643 0.371977 45.4374 0.446394 45.6353 0.520811C46.0063 0.694452 46.402 0.917703 46.7731 1.19057C47.1441 1.46343 47.4656 1.7859 47.7377 2.08357C47.8613 2.23241 47.985 2.38124 48.084 2.53008C48.1829 2.67891 48.2818 2.82775 48.356 2.95177C48.6528 3.47269 48.7765 3.84478 48.8012 3.84478C48.8012 3.84478 48.7765 3.74556 48.727 3.59672C48.7023 3.52231 48.6528 3.42308 48.6034 3.29905C48.5539 3.19983 48.5044 3.051 48.4302 2.92697C48.356 2.80294 48.2818 2.65411 48.1582 2.50527C48.0592 2.35644 47.9355 2.2076 47.8119 2.03396C47.5398 1.71149 47.2183 1.41382 46.8473 1.11615C46.4762 0.843286 46.0805 0.620034 45.6848 0.446394C45.4869 0.371977 45.3137 0.29756 45.1406 0.247948C44.9675 0.198337 44.7943 0.148725 44.6459 0.12392C44.4975 0.0743081 44.3491 0.0743081 44.2255 0.0495024C44.1018 0.0246967 44.0028 0.0246966 43.9039 0.0246966C43.7308 -0.000109093 43.6318 0.0246966 43.6318 0.0246966Z" fill="#4D5A64"/>
<path d="M41.0347 17.0167C41.0347 17.0167 41.0347 16.9919 41.0099 16.9671C40.9852 16.9423 40.9605 16.8927 40.911 16.8678C40.8368 16.7686 40.6884 16.6446 40.5647 16.4462C40.4163 16.2477 40.2432 16.0245 40.1442 15.702C40.0948 15.5531 40.07 15.3547 40.0948 15.1811C40.1195 14.9826 40.169 14.809 40.2679 14.6105C40.4658 14.2384 40.8121 13.916 41.1089 13.4943C41.4057 13.0974 41.6777 12.6261 41.9004 12.0803C42.123 11.5594 42.2714 10.9641 42.3208 10.3439C42.395 9.7238 42.3456 9.07885 42.2961 8.4339C42.2714 7.78895 42.2714 7.144 42.395 6.54866C42.5434 5.95332 42.8402 5.4324 43.1865 5.01071C43.5575 4.58901 43.978 4.26653 44.4232 4.04328C44.8684 3.82003 45.3384 3.72081 45.7589 3.696C46.5998 3.64639 47.2924 3.86964 47.7128 4.06809C47.9354 4.16731 48.0838 4.26653 48.1828 4.34095C48.2323 4.36576 48.2817 4.39056 48.3065 4.41537C48.3312 4.44017 48.3559 4.44017 48.3559 4.44017C48.3559 4.44017 48.158 4.24173 47.7376 4.04328C47.3171 3.82003 46.6245 3.59678 45.7589 3.64639C45.3384 3.6712 44.8684 3.77042 44.3985 3.99367C43.9285 4.21692 43.4833 4.5394 43.1123 4.9859C42.7413 5.4076 42.4445 5.95332 42.2961 6.57347C42.1477 7.19361 42.1477 7.83856 42.1724 8.48351C42.1972 9.12846 42.2466 9.77341 42.1972 10.3687C42.1477 10.9889 41.9993 11.5594 41.7767 12.0803C41.5788 12.6013 41.3067 13.0726 41.0099 13.4695C40.7131 13.8664 40.3668 14.2136 40.169 14.5857C40.07 14.7842 39.9958 14.9826 39.9958 15.1811C39.9711 15.3795 40.0206 15.5531 40.07 15.7268C40.169 16.0493 40.3668 16.2973 40.5153 16.471C40.6637 16.6446 40.8121 16.7934 40.8863 16.8678C40.9357 16.9175 40.9605 16.9423 40.9852 16.9671C41.0347 17.0167 41.0347 17.0167 41.0347 17.0167Z" fill="#4D5A64"/>
<path d="M60.1541 13.271C60.1541 13.271 60.1788 13.271 60.2035 13.2462C60.2283 13.2214 60.2777 13.1966 60.3272 13.1718C60.4509 13.0974 60.5993 12.9981 60.7972 12.8245C61.1682 12.502 61.6876 11.9067 61.9844 11.0385C62.2812 10.1703 62.2812 8.9796 61.7123 7.88814C61.4402 7.34242 60.995 6.8463 60.4509 6.44941C59.9067 6.05252 59.2637 5.77966 58.5958 5.60602C57.928 5.43238 57.2355 5.33315 56.5677 5.30835C55.8998 5.25874 55.2815 5.25874 54.6631 5.23393C54.0695 5.20913 53.5006 5.18432 52.9565 5.1099C52.4371 5.03548 51.9424 4.91146 51.5219 4.76262C50.6562 4.46495 50.0379 4.04326 49.6669 3.67117C49.4937 3.49753 49.3453 3.34869 49.2711 3.22467C49.2217 3.17505 49.1969 3.12544 49.1722 3.10064C49.1475 3.07583 49.1475 3.05103 49.1475 3.05103C49.1475 3.05103 49.2711 3.29908 49.6421 3.67117C50.0131 4.04326 50.6315 4.48976 51.4972 4.78743C51.9177 4.93626 52.4123 5.06029 52.9565 5.13471C53.5006 5.20913 54.0695 5.25874 54.6631 5.28354C55.8751 5.33315 57.2107 5.30835 58.5464 5.65563C59.2142 5.82927 59.8573 6.10213 60.3767 6.47422C60.9208 6.8463 61.3166 7.34242 61.6134 7.86334C62.1823 8.92999 62.1823 10.0959 61.9102 10.9393C61.6381 11.8075 61.1187 12.378 60.7477 12.7253C60.5498 12.8989 60.4014 13.0229 60.2777 13.0974C60.2283 13.1222 60.1788 13.1718 60.1541 13.1718C60.1788 13.2462 60.1541 13.271 60.1541 13.271Z" fill="#263238"/>
<path d="M44.0029 12.254C44.0771 12.3284 44.4976 12.0308 45.116 12.0308C45.7343 12.0308 46.1795 12.3533 46.229 12.2788C46.2537 12.254 46.2043 12.1052 46.0064 11.9564C45.8085 11.8075 45.487 11.6587 45.116 11.6587C44.745 11.6587 44.4234 11.7827 44.2256 11.9316C44.0277 12.0804 43.9782 12.2044 44.0029 12.254Z" fill="#263238"/>
<path d="M50.2354 12.3531C50.3096 12.4276 50.73 12.1299 51.3484 12.1299C51.9667 12.1299 52.4119 12.4524 52.4614 12.378C52.4861 12.3531 52.4367 12.2043 52.2388 12.0555C52.0409 11.9066 51.7194 11.7578 51.3484 11.7578C50.9774 11.7578 50.6558 11.8818 50.458 12.0307C50.2601 12.1795 50.2106 12.3035 50.2354 12.3531Z" fill="#263238"/>
<path d="M48.1579 17.5127C48.3805 17.2151 48.7762 17.0662 49.1472 17.1158C49.4193 17.1407 49.6666 17.2895 49.8398 17.5127C49.9882 17.736 50.0129 18.0337 49.8645 18.2321C49.6914 18.4554 49.3451 18.505 49.0483 18.4306C48.7515 18.3313 48.5041 18.1329 48.2815 17.9592C48.2073 17.9096 48.1579 17.86 48.1084 17.7856C48.0589 17.7112 48.0589 17.612 48.1084 17.5624" fill="#D79870"/>
<path d="M49.716 16.4958C49.6171 16.4958 49.5923 17.1408 49.0235 17.6121C48.4546 18.0834 47.7373 17.9842 47.7373 18.0834C47.7373 18.133 47.8857 18.2074 48.1825 18.2322C48.4793 18.2571 48.8998 18.1578 49.2461 17.885C49.5923 17.6121 49.7655 17.2152 49.7902 16.9424C49.8397 16.6695 49.7655 16.4958 49.716 16.4958Z" fill="#263238"/>
<path d="M44.5709 58.0205L37.7938 60.3274L37.2496 62.0142C37.2496 62.0142 18.3529 55.1926 17.0172 54.4732C15.6816 53.7539 8.78082 52.1663 6.50529 57.8468C4.57604 62.6343 8.38507 67.4218 14.4696 70.1257C20.5542 72.8047 32.3275 73.9705 32.3275 73.9705L40.094 75.31L57.2594 75.5333C62.3298 75.6077 67.1777 73.4 70.4673 69.5303C73.1633 66.38 75.9583 62.7832 76.5024 60.9227C77.5412 57.3011 76.6013 52.588 71.2093 52.1415C65.8173 51.695 57.0615 57.8716 57.0615 57.8716L53.7472 56.9538L44.5709 58.0205Z" fill="#263238"/>
<path d="M44.0267 69.059C44.0267 69.059 44.0267 69.0094 44.0514 68.935C44.0762 68.8605 44.0762 68.7365 44.002 68.5877C43.8783 68.3148 43.4331 68.042 42.8642 67.8931C41.7017 67.4218 39.9456 66.6777 37.868 65.6606C35.7903 64.6436 33.3911 63.3289 30.8188 61.9398C28.9637 60.9475 27.1829 59.9801 25.5257 59.1863C23.8685 58.3925 22.3845 57.698 21.0983 57.2019C20.7768 57.0778 20.48 56.9538 20.1832 56.8298C19.8864 56.7306 19.6143 56.6313 19.367 56.5321C19.1196 56.4329 18.8723 56.3585 18.6497 56.2593C18.4271 56.1848 18.2292 56.1104 18.0313 56.0608C17.6603 55.9368 17.3882 55.8376 17.1904 55.7879C17.0914 55.7631 17.0172 55.7383 16.9678 55.7135C16.9183 55.6887 16.8936 55.6887 16.8936 55.6887C16.8936 55.6887 16.9183 55.6887 16.9678 55.7135C17.0172 55.7383 17.0914 55.7383 17.1904 55.7879C17.3882 55.8376 17.685 55.9368 18.0561 56.036C18.2539 56.0856 18.4518 56.16 18.6744 56.2344C18.897 56.3089 19.1443 56.4081 19.3917 56.4825C19.6638 56.5817 19.9358 56.6809 20.2326 56.7802C20.5294 56.8794 20.8263 57.0034 21.1478 57.1523C22.434 57.6484 23.9427 58.3181 25.5999 59.1367C27.2571 59.9305 29.0379 60.8731 30.893 61.8901C33.4653 63.2793 35.8645 64.594 37.9422 65.6358C40.0198 66.6776 41.7512 67.4218 42.9137 67.9179C43.5073 68.0668 43.9278 68.3396 44.0514 68.6621C44.1256 68.8109 44.1009 68.935 44.0762 69.0094C44.0514 69.0094 44.0267 69.059 44.0267 69.059Z" fill="#4D5A64"/>
<path d="M69.3047 53.3571C69.3047 53.3571 69.28 53.3571 69.2305 53.3819C69.1811 53.3819 69.1069 53.4067 69.0079 53.4067C68.8101 53.4315 68.5132 53.4563 68.1422 53.5555C67.4002 53.7044 66.3614 54.0764 65.1989 54.7958C64.6053 55.1431 64.0117 55.5648 63.3933 56.0609C62.775 56.557 62.1566 57.1275 61.5383 57.7725C60.3263 59.0872 58.9412 60.5011 57.383 61.8654C56.6162 62.56 55.8247 63.2049 55.0332 63.7755C54.2417 64.346 53.4503 64.8669 52.5846 65.1646C51.7189 65.4375 50.8779 65.5367 50.0864 65.6607C49.295 65.7847 48.5777 65.9088 47.9346 66.132C47.2915 66.3553 46.7474 66.6033 46.3021 66.901C45.8569 67.1987 45.5601 67.5708 45.387 67.8932C45.2139 68.2157 45.1644 68.5134 45.1396 68.7118C45.1396 68.811 45.1396 68.8855 45.1396 68.9351C45.1396 68.9847 45.1396 69.0095 45.1396 69.0095C45.1396 69.0095 45.1396 68.9847 45.1396 68.9351C45.1396 68.8855 45.1396 68.811 45.1396 68.7118C45.1644 68.5134 45.1891 68.2157 45.3623 67.8684C45.5354 67.5211 45.8322 67.1491 46.2774 66.8514C46.7226 66.5289 47.2915 66.2561 47.9346 66.0328C48.5777 65.8096 49.3197 65.6855 50.1112 65.5615C50.9027 65.4375 51.7436 65.3382 52.5846 65.0406C53.4255 64.7429 54.217 64.222 54.9838 63.6515C55.7753 63.0809 56.542 62.436 57.3088 61.7414C58.8423 60.3771 60.2521 58.988 61.4641 57.6485C62.0824 57.0035 62.7255 56.433 63.3438 55.9369C63.9622 55.4408 64.5805 55.0191 65.1742 54.6718C66.3367 53.9772 67.4002 53.6051 68.1422 53.4811C68.5132 53.3819 68.8101 53.3819 69.0079 53.3571C69.1069 53.3571 69.1811 53.3571 69.2305 53.3323C69.28 53.3571 69.3047 53.3571 69.3047 53.3571Z" fill="#4D5A64"/>
<path d="M45.8326 67.0249C45.8326 67.0249 45.7831 66.9256 45.7089 66.7024C45.6595 66.6032 45.6595 66.4791 45.61 66.3055C45.5853 66.1567 45.5605 65.983 45.5358 65.7846C45.4863 65.3877 45.4863 64.9412 45.4863 64.4203C45.5111 63.8993 45.5358 63.3536 45.6347 62.7583C45.7831 61.5924 46.0799 60.5506 46.3768 59.8312C46.451 59.6576 46.5252 59.4839 46.5994 59.3599C46.6736 59.2359 46.7478 59.1118 46.7972 59.0126C46.9209 58.839 46.9951 58.7397 47.0198 58.7397C47.0198 58.7397 46.9704 58.839 46.8467 59.0374C46.7972 59.1366 46.7478 59.2607 46.6736 59.3847C46.5994 59.5087 46.5499 59.6824 46.4757 59.856C46.2036 60.5754 45.9315 61.6172 45.7831 62.7831C45.7089 63.3536 45.6595 63.9241 45.6347 64.4451C45.6347 64.966 45.6347 65.4125 45.6595 65.7846C45.7089 66.5536 45.8573 67.0001 45.8326 67.0249Z" fill="#4D5A64"/>
<path d="M44.0265 69.0591C44.0265 69.0591 56.8139 72.2838 57.3333 72.4575C58.1001 72.7055 58.0506 75.5334 56.8387 75.5086C56.2698 75.5086 47.0935 76.0791 45.931 76.0295C44.7685 75.9799 41.6025 74.814 41.6025 74.814L43.5318 70.225L44.0265 69.0591Z" fill="#E0E0E0"/>
<path d="M49.4435 73.7971C49.5177 73.7971 49.5672 73.1273 49.9629 72.4079C50.3586 71.6886 50.8781 71.2669 50.8286 71.2173C50.8039 71.1677 50.1855 71.5397 49.765 72.3087C49.3445 73.0777 49.3693 73.7971 49.4435 73.7971Z" fill="#263238"/>
<path d="M48.1074 73.2264C48.1816 73.2264 48.2806 72.631 48.6021 71.9613C48.9236 71.2915 49.3194 70.8202 49.2699 70.7706C49.2452 70.721 48.7505 71.1675 48.4042 71.8621C48.058 72.5814 48.0332 73.2264 48.1074 73.2264Z" fill="#263238"/>
<path d="M46.8462 72.9287C46.9204 72.9287 46.8462 72.2837 47.1183 71.5644C47.3656 70.845 47.8355 70.3985 47.7861 70.3489C47.7613 70.2993 47.1925 70.6962 46.9204 71.4899C46.6236 72.2589 46.7967 72.9287 46.8462 72.9287Z" fill="#263238"/>
<path d="M47.0443 71.2668C47.069 71.2668 47.168 70.9195 47.168 70.3242C47.168 70.0265 47.1185 69.6792 47.0196 69.2823C46.9701 69.0839 46.8959 68.8854 46.8217 68.687C46.7722 68.5878 46.7227 68.4638 46.5991 68.3893C46.4754 68.2901 46.2528 68.3149 46.1539 68.4141C46.0302 68.5134 46.0055 68.6622 45.9807 68.7862C45.9807 68.9103 45.956 69.0095 45.9807 69.1335C45.9807 69.3568 46.0302 69.5552 46.0797 69.7536C46.1786 70.1505 46.3517 70.473 46.5001 70.7211C46.7969 71.242 47.069 71.49 47.0938 71.4652C47.1185 71.4404 46.8959 71.1428 46.6485 70.6466C46.5249 70.3986 46.3765 70.0761 46.3023 69.704C46.2528 69.5304 46.2281 69.332 46.2281 69.1335C46.2281 68.9351 46.2281 68.687 46.327 68.5878C46.3765 68.5382 46.4507 68.5382 46.5001 68.563C46.5496 68.6126 46.5991 68.687 46.6485 68.7862C46.7227 68.9847 46.7969 69.1583 46.8464 69.332C46.9453 69.704 47.0195 70.0265 47.0443 70.3242C47.0443 70.8947 46.9948 71.2668 47.0443 71.2668Z" fill="#263238"/>
<path d="M47.0197 71.1428C47.0197 71.118 46.7229 71.0188 46.2035 71.0188C45.9561 71.0188 45.6346 71.0684 45.313 71.1428C45.1399 71.1924 44.9668 71.2421 44.7936 71.3413C44.6205 71.4405 44.4473 71.6886 44.5215 71.9366C44.571 72.1847 44.7936 72.3335 44.9915 72.3831C45.1894 72.4327 45.3872 72.4079 45.5604 72.3583C45.9067 72.2591 46.1787 72.0855 46.3766 71.9366C46.7724 71.6141 46.9702 71.3661 46.9455 71.3413C46.9208 71.3165 46.6982 71.5397 46.2777 71.8126C46.0798 71.9614 45.8077 72.1103 45.5109 72.1599C45.3625 72.1847 45.1894 72.2095 45.041 72.1599C44.8926 72.1103 44.7689 72.011 44.7194 71.8622C44.67 71.7134 44.7689 71.5893 44.8926 71.4901C45.0162 71.3909 45.1894 71.3413 45.3378 71.2917C45.6593 71.1924 45.9314 71.1428 46.1787 71.118C46.6981 71.118 47.0197 71.1676 47.0197 71.1428Z" fill="#263238"/>
<path d="M51.3971 73.8961C51.4713 73.8961 51.3971 73.3504 51.6197 72.7303C51.8423 72.1349 52.2628 71.7628 52.2133 71.7132C52.1886 71.6636 51.6692 71.9861 51.4218 72.6558C51.1497 73.3256 51.3476 73.9209 51.3971 73.8961Z" fill="#263238"/>
<path d="M42.542 74.6653C42.542 74.6901 42.7151 74.7645 43.0367 74.8885C43.3582 75.0126 43.8529 75.1614 44.4712 75.2854C45.6832 75.5583 47.4393 75.7071 49.3191 75.6327C51.2236 75.5583 52.9303 75.4343 54.167 75.3598C54.7606 75.3102 55.2553 75.2854 55.6263 75.2358C55.9725 75.211 56.1704 75.1862 56.1704 75.1614C56.1704 75.1366 55.9725 75.1366 55.6263 75.1366C55.2305 75.1366 54.7358 75.1614 54.1422 75.1862C52.8561 75.2358 51.1494 75.3102 49.2944 75.3846C47.3899 75.4591 45.6832 75.335 44.4712 75.1118C43.2593 74.9381 42.542 74.6405 42.542 74.6653Z" fill="#263238"/>
<path d="M42.1713 74.9627C42.196 74.9875 42.5423 74.7891 43.1111 74.5162C43.68 74.2434 44.5457 73.9457 45.5103 74.0697C46.475 74.1938 47.1675 74.8139 47.6127 75.2604C48.0579 75.7069 48.33 76.0046 48.3547 76.0046C48.3795 75.9798 48.1569 75.6573 47.7117 75.1612C47.489 74.9131 47.217 74.6403 46.846 74.3922C46.4997 74.1441 46.0297 73.9209 45.5103 73.8713C44.4715 73.7472 43.5811 74.0945 43.0122 74.3922C42.4681 74.6899 42.1465 74.9627 42.1713 74.9627Z" fill="#263238"/>
<path d="M54.9337 75.2358C54.9584 75.211 54.8347 75.0622 54.7358 74.7645C54.6368 74.4668 54.5379 74.0451 54.6121 73.5738C54.6863 73.1025 54.9089 72.7304 55.1068 72.4824C55.3047 72.2343 55.4531 72.1103 55.4531 72.0855C55.4531 72.0607 55.2552 72.1599 55.0326 72.408C54.81 72.6312 54.5379 73.0529 54.4637 73.549C54.3895 74.0451 54.4884 74.5164 54.6368 74.8141C54.7605 75.1118 54.9089 75.2358 54.9337 75.2358Z" fill="#263238"/>
<path d="M74.103 63.8747C74.103 63.8747 74.0783 63.9243 73.9793 64.0483C73.9051 64.1724 73.7815 64.3212 73.6331 64.5196C73.4847 64.7181 73.3115 64.9909 73.0889 65.2638C72.8663 65.5367 72.5942 65.8591 72.2974 66.2312C72.0006 66.5785 71.6544 66.9506 71.2833 67.3475C70.9123 67.7444 70.4919 68.1165 70.0466 68.5382C69.1315 69.3319 68.0927 70.2001 66.9302 70.9443C65.7429 71.7133 64.5804 72.3582 63.4674 72.8544C62.3544 73.3505 61.3155 73.7226 60.4499 73.9706C60.0046 74.0946 59.6089 74.1939 59.2379 74.2683C58.8669 74.3427 58.5701 74.3923 58.3227 74.4171C58.0754 74.4419 57.8775 74.4667 57.7291 74.4915C57.6054 74.5163 57.5312 74.5163 57.5312 74.5163C57.5312 74.5163 57.6054 74.4915 57.7291 74.4667C57.8775 74.4419 58.0754 74.4171 58.3227 74.3923C58.5701 74.3427 58.8916 74.2683 59.2379 74.2187C59.5842 74.1195 60.0046 74.045 60.4251 73.8962C61.3155 73.6481 62.3296 73.2512 63.4179 72.7551C64.5062 72.259 65.6935 71.6141 66.856 70.8451C68.0184 70.0761 69.0573 69.2327 69.9724 68.4637C70.4176 68.042 70.8381 67.67 71.2091 67.2731C71.5801 66.8762 71.9264 66.5289 72.2232 66.1816C72.52 65.8343 72.7921 65.5119 73.0147 65.239C73.2373 64.9661 73.4352 64.6933 73.5836 64.4948C73.732 64.2964 73.8557 64.1475 73.9546 64.0235C74.0535 63.9243 74.103 63.8499 74.103 63.8747Z" fill="#4D5A64"/>
<path d="M41.4791 67.4714C41.4544 67.4714 41.2565 67.1737 40.9102 66.6776C40.5639 66.1815 40.0198 65.5365 39.3767 64.8668C38.7089 64.2218 38.0658 63.6761 37.5711 63.3288C37.0765 62.9816 36.7549 62.7583 36.7797 62.7583C36.7797 62.7583 36.8786 62.7831 37.027 62.8823C37.1754 62.9567 37.398 63.1056 37.6453 63.2792C38.1648 63.6265 38.8326 64.1474 39.4757 64.8172C40.1435 65.4869 40.6629 66.1567 41.0092 66.6528C41.1823 66.9009 41.306 67.1241 41.4049 67.273C41.4296 67.397 41.4791 67.4714 41.4791 67.4714Z" fill="#4D5A64"/>
<path d="M56.9128 60.377C56.9128 60.4018 56.6408 60.5754 56.1955 60.9227C55.7503 61.27 55.1815 61.7661 54.6126 62.411C54.0684 63.056 53.6479 63.7009 53.3759 64.1722C53.1038 64.6435 52.9554 64.966 52.9307 64.966C52.9307 64.966 52.9554 64.8916 53.0049 64.7428C53.0543 64.5939 53.1533 64.3955 53.2769 64.1474C53.5243 63.6513 53.9448 62.9816 54.5136 62.3366C55.0825 61.6917 55.6761 61.1955 56.1213 60.8731C56.344 60.6994 56.5418 60.6002 56.6655 60.5258C56.8386 60.4266 56.9128 60.377 56.9128 60.377Z" fill="#4D5A64"/>
<path d="M60.1535 56.4578C63.5915 53.6795 70.0966 52.3648 70.0966 52.3648C70.0966 52.3648 69.7256 39.7387 68.7609 33.9342C68.7362 33.7853 68.7115 33.6613 68.6867 33.5125C67.7963 29.0474 63.8389 26.3436 59.3373 25.7235L56.295 25.3018L47.2919 25.6242L41.8009 27.2862C41.8009 27.2862 35.2959 28.7498 34.3065 37.9031C33.3172 46.8827 32.1547 54.2997 32.3278 56.9539C32.4515 58.8143 34.1829 60.1538 35.1228 60.3771C35.9884 60.5755 37.0767 60.7492 38.0166 60.2034C37.6951 60.7988 37.4725 61.3941 37.423 61.9398H42.914L47.2177 58.1446L51.1504 60.9724L56.4187 58.7399L60.0546 56.2593L60.1535 56.4578ZM41.3557 56.0857V56.0609C41.9741 53.0098 42.0483 52.1168 42.0483 52.1168C42.0483 52.1168 38.8081 51.6951 39.3275 47.3789L39.8222 43.6332L43.0624 54.5229C43.0624 54.5477 42.2956 55.1431 41.3557 56.0857Z" fill="#EBEBEB"/>
<g opacity="0.2">
<g opacity="0.2">
<path opacity="0.2" d="M52.7824 51.8936L53.7965 49.3386C52.6834 48.8673 52.2877 48.8425 51.0757 48.6937C47.8603 48.2968 44.5212 49.1898 41.8994 51.0998L42.5672 53.0099H42.592C43.0124 53.1587 43.705 53.1339 44.1007 53.0347C44.5212 52.9355 44.9664 52.8114 45.3869 52.9355C45.9311 53.0843 46.3268 53.5556 46.8215 53.8285C47.8108 54.399 49.2454 53.9773 49.7896 52.9851C50.0122 52.5634 50.2348 51.968 50.7047 51.9928C50.952 51.9928 51.1252 52.1665 51.3231 52.3153C51.8919 52.8114 52.4608 53.3076 53.0297 53.8285C53.7223 54.4238 54.3901 55.044 55.1321 55.5897C55.9978 56.2346 56.9871 56.8052 58.0507 56.7556C59.1143 56.7307 59.1637 55.6889 59.1637 55.6889L52.7824 51.8936Z" fill="black"/>
</g>
</g>
<path d="M46.822 25.3514L46.6736 27.956C46.6241 28.8491 46.7478 29.7669 47.0694 30.5855L50.2353 38.8706C50.2353 38.8706 49.7406 34.0335 51.7935 32.2474C53.8217 30.4614 56.3941 30.6351 56.4188 27.8816C56.4188 27.4103 56.4188 24.4088 56.4188 24.4088L52.0409 23.5654L46.822 25.3514Z" fill="#B55B52"/>
<path d="M63.0479 26.6909C63.0479 26.6909 62.9984 26.7157 62.8747 26.7901C62.7511 26.8398 62.6027 26.939 62.4048 27.063C62.0091 27.3111 61.5144 27.7824 61.0692 28.5017C60.624 29.2211 60.253 30.1637 60.2035 31.28C60.1788 31.8257 60.2282 32.421 60.2777 33.0164C60.3272 33.6117 60.4014 34.2567 60.4508 34.8768C60.6982 37.4318 60.995 39.7635 61.2176 41.4255C61.3165 42.2689 61.4155 42.9387 61.4897 43.41C61.5144 43.6332 61.5391 43.8069 61.5639 43.9557C61.5886 44.0797 61.5886 44.1542 61.5886 44.1542C61.5886 44.1542 61.5639 44.0797 61.5391 43.9805C61.5144 43.8565 61.4897 43.6829 61.4402 43.4348C61.366 42.9635 61.2423 42.2937 61.1186 41.4503C60.8713 39.7884 60.5745 37.4566 60.3272 34.9016C60.253 34.2567 60.2035 33.6365 60.154 33.0412C60.1046 32.4458 60.0551 31.8505 60.0798 31.28C60.154 30.1637 60.5498 29.1715 60.995 28.4769C61.4649 27.7576 61.9843 27.3111 62.3801 27.063C62.5779 26.939 62.7511 26.8646 62.8747 26.8149C62.9737 26.7157 63.0479 26.6909 63.0479 26.6909Z" fill="#263238"/>
<path d="M61.8846 57.1028C61.8846 57.1028 61.8599 57.1028 61.8351 57.078C61.7857 57.0532 61.7609 57.0532 61.6867 57.0284C61.5631 56.9788 61.3899 56.9043 61.1426 56.7803C60.6727 56.5571 60.0048 56.2098 59.1886 55.7385C57.5562 54.8207 55.2807 53.506 52.7331 51.968L52.6836 51.9432L52.7083 51.8936C53.0051 51.1742 53.3019 50.43 53.6235 49.6859C53.945 48.9169 54.2418 48.1727 54.5139 47.4534C54.6623 47.0813 54.786 46.734 54.9096 46.3867C54.9838 46.2131 55.0333 46.0394 55.0828 45.8658C55.1075 45.7914 55.1323 45.6922 55.157 45.6177C55.157 45.5681 55.1817 45.5433 55.1817 45.4937C55.1817 45.4689 55.1817 45.4441 55.1817 45.4441V45.4193C55.1817 45.4193 55.1817 45.4441 55.2065 45.4441L55.2559 45.3201C56.3689 45.8162 57.3336 46.3371 58.224 46.8332C59.0897 47.3293 59.8564 47.751 60.4995 48.0983C61.1426 48.4456 61.662 48.6936 62.0083 48.8673C62.1814 48.9417 62.3051 49.0161 62.404 49.0657C62.503 49.1153 62.5524 49.1402 62.5524 49.1402C62.5524 49.1402 62.503 49.1153 62.404 49.0905C62.3051 49.0409 62.1567 48.9913 61.9836 48.9169C61.6125 48.7433 61.0931 48.4952 60.45 48.1727C59.807 47.8503 59.0402 47.4037 58.1498 46.9324C57.2841 46.4611 56.2947 45.9402 55.1817 45.4441L55.2312 45.3201C55.2559 45.3201 55.2807 45.3449 55.2807 45.3697V45.3945C55.2807 45.4193 55.2807 45.4193 55.2807 45.4441C55.2807 45.4689 55.2807 45.4937 55.2807 45.5185C55.2807 45.5681 55.2559 45.6177 55.2559 45.6674C55.2312 45.7666 55.2065 45.841 55.1817 45.9402C55.1323 46.1139 55.058 46.2875 55.0086 46.4611C54.8849 46.8084 54.7612 47.1805 54.6128 47.5278C54.3408 48.2471 54.044 48.9913 53.7224 49.7603C53.4009 50.5045 53.1041 51.2486 52.8073 51.968L52.7825 51.8936C55.3301 53.4563 57.5809 54.7711 59.2133 55.7137C60.0296 56.185 60.6727 56.5323 61.1426 56.7803C61.3652 56.9043 61.5383 56.9788 61.662 57.0532C61.7115 57.078 61.7609 57.1028 61.7857 57.1276C61.8599 57.078 61.8846 57.1028 61.8846 57.1028Z" fill="#263238"/>
<path d="M39.7228 43.6332C39.7228 43.6332 39.6733 43.5092 39.6238 43.2859C39.5744 43.0627 39.5249 42.7154 39.4507 42.2937C39.327 41.4503 39.2034 40.2844 39.1539 38.9945C39.1292 37.7046 39.1786 36.5388 39.2528 35.6954C39.3023 35.2737 39.327 34.9264 39.3765 34.7031C39.4012 34.4799 39.426 34.3311 39.4507 34.3311C39.4507 34.3311 39.4507 34.4551 39.426 34.7031C39.4012 34.9264 39.3765 35.2737 39.3518 35.6954C39.3023 36.5388 39.2528 37.7046 39.2776 38.9945C39.327 40.2844 39.426 41.4503 39.5249 42.2689C39.5744 42.6906 39.6238 43.0379 39.6486 43.2611C39.7228 43.5092 39.7228 43.6332 39.7228 43.6332Z" fill="#263238"/>
<path d="M39.1789 45.717C39.1789 45.717 39.1047 45.8411 38.9563 46.0395C38.7832 46.2628 38.5606 46.5356 38.2885 46.8581C37.7196 47.5775 36.9281 48.5201 36.0872 49.5619C35.2462 50.6038 34.4547 51.5712 33.8859 52.2657C33.6138 52.5882 33.3912 52.8611 33.218 53.0843C33.0696 53.2828 32.9707 53.382 32.9707 53.382C32.9707 53.382 33.0449 53.258 33.1933 53.0595C33.3417 52.8611 33.5643 52.5634 33.8364 52.2161C34.3805 51.4968 35.1473 50.5293 36.013 49.4875C36.8787 48.4209 37.6702 47.4782 38.2638 46.8085C38.5606 46.4612 38.7832 46.1883 38.9563 46.0147C39.08 45.8163 39.1789 45.717 39.1789 45.717Z" fill="#263238"/>
<path d="M41.6776 53.7539C41.6776 53.7539 41.6776 53.8779 41.6776 54.0764C41.6776 54.1756 41.6528 54.2996 41.6281 54.4485C41.6034 54.5973 41.5786 54.7461 41.5292 54.9198C41.455 55.2671 41.3313 55.6888 41.1582 56.1353C40.985 56.5818 40.7377 57.0531 40.4409 57.5244C40.1441 57.9957 39.8225 58.3926 39.4762 58.7399C39.1547 59.0871 38.8332 59.36 38.5364 59.5832C38.388 59.7073 38.2643 59.7817 38.1406 59.8561C38.0169 59.9305 37.918 60.0049 37.8191 60.0546C37.6459 60.1538 37.547 60.2034 37.547 60.2034C37.5223 60.1786 37.918 59.9553 38.4869 59.5088C38.759 59.2856 39.0805 58.9879 39.402 58.6654C39.7236 58.3182 40.0451 57.9213 40.3419 57.45C40.6387 56.9786 40.8613 56.5321 41.0345 56.0856C41.2076 55.6391 41.3313 55.2422 41.4302 54.895C41.6034 54.1756 41.6528 53.7539 41.6776 53.7539Z" fill="#263238"/>
<path d="M56.9379 25.0291C56.9379 25.0291 56.9627 25.0787 57.0369 25.2027C57.0863 25.3267 57.1853 25.4756 57.2842 25.6988C57.4573 26.1453 57.7047 26.8151 57.8531 27.6585C58.0015 28.5019 58.0509 29.5437 57.8778 30.6848C57.7294 31.8258 57.3337 33.0413 56.6658 34.1824C56.5422 34.3808 56.4185 34.5545 56.2948 34.7529C56.1712 34.9265 56.0228 35.1002 55.8991 35.2738L55.8744 35.3234L55.8249 35.2986C54.8355 34.7033 53.673 34.6785 52.7579 35.0258C52.2879 35.1994 51.9169 35.4723 51.5954 35.7451C51.2739 36.018 51.0018 36.3405 50.8286 36.6381C50.4576 37.2583 50.3587 37.8536 50.3092 38.2505C50.2598 38.6474 50.2845 38.8707 50.2598 38.8707C50.2598 38.8707 50.2598 38.821 50.2598 38.697C50.2598 38.5978 50.2598 38.4242 50.2598 38.2257C50.2845 37.8288 50.3834 37.2087 50.7544 36.5637C50.9523 36.2412 51.1997 35.9188 51.5212 35.6211C51.8427 35.3234 52.2385 35.0506 52.7084 34.8769C53.6236 34.5296 54.8603 34.5296 55.8744 35.1498L55.8002 35.1746C55.9238 35.001 56.0475 34.8273 56.1959 34.6537C56.3196 34.48 56.4432 34.2816 56.5422 34.108C57.21 32.9917 57.6057 31.7762 57.7541 30.66C57.9273 29.5437 57.9025 28.5019 57.7541 27.6585C57.6305 26.8151 57.4079 26.1453 57.2347 25.6988C57.1605 25.4756 57.0616 25.3019 57.0121 25.1779C56.9627 25.0787 56.9379 25.0291 56.9379 25.0291Z" fill="#263238"/>
<path d="M49.7406 37.7543C49.7406 37.7543 49.7158 37.7047 49.6664 37.6054C49.6169 37.5062 49.5427 37.3574 49.4685 37.1837C49.2953 36.8117 49.048 36.2907 48.7265 35.6706C48.3802 35.0505 47.9597 34.3063 47.3414 33.6117C47.0198 33.2892 46.6488 32.942 46.1789 32.7187C45.7336 32.4955 45.2142 32.3466 44.6701 32.3218C44.4475 32.3218 44.2496 32.3218 44.0517 32.3466H43.9775V32.2722C44.1259 31.2552 44.398 30.3126 44.6701 29.494C44.9422 28.6506 45.239 27.9312 45.511 27.3359C45.7831 26.7405 46.0552 26.2692 46.2283 25.9716C46.3273 25.8227 46.4015 25.6987 46.4757 25.6243C46.5251 25.5499 46.5746 25.5002 46.5746 25.5002C46.5746 25.5002 46.4757 25.6739 46.2778 25.9716C46.1047 26.294 45.8573 26.7405 45.5852 27.3607C45.3132 27.956 45.0411 28.7002 44.769 29.5188C44.497 30.3374 44.2496 31.28 44.1012 32.2722L44.027 32.1978C44.2249 32.1978 44.4475 32.173 44.6701 32.173C45.2142 32.1978 45.7584 32.3466 46.2283 32.5947C46.6983 32.8427 47.0693 33.1652 47.4156 33.5125C48.0586 34.2319 48.4791 34.976 48.8007 35.621C49.1222 36.2659 49.3448 36.7869 49.5179 37.1589C49.5921 37.3326 49.6416 37.4814 49.6911 37.5806C49.7158 37.7047 49.7406 37.7543 49.7406 37.7543Z" fill="#263238"/>
<g opacity="0.2">
<g opacity="0.2">
<path opacity="0.2" d="M50.2348 38.697C50.5068 37.8288 50.8531 37.5063 51.323 37.0598C51.793 36.6133 52.4361 36.266 53.0792 36.3156C53.6233 36.3404 54.1427 36.6381 54.6869 36.6381C55.3299 36.6629 55.9236 36.2908 56.3935 35.8691C58.3969 34.1327 59.04 31.032 57.9023 28.6506C58.0012 31.0072 57.2344 33.3885 55.7504 35.2242C54.5879 34.5544 53.0792 34.604 51.9661 35.3234C50.8778 36.0427 50.1606 37.4071 50.2348 38.697Z" fill="black"/>
</g>
</g>
<path d="M61.5386 43.8813C61.5386 43.8813 61.5633 44.0054 61.6128 44.2286C61.6375 44.4767 61.687 44.7992 61.7364 45.1712C61.8354 45.965 61.9838 47.0813 62.1322 48.2968C62.1569 48.52 62.1816 48.7433 62.2064 48.9665L62.1569 48.9169C63.2205 49.1402 64.0614 49.5867 64.6303 49.9836C64.9024 50.182 65.125 50.3556 65.2734 50.4797C65.4218 50.6037 65.4713 50.6781 65.4713 50.6781C65.4465 50.7029 65.1497 50.4053 64.5808 50.058C64.012 49.6859 63.171 49.2642 62.1322 49.0657H62.0827V49.0161C62.058 48.7929 62.0332 48.5696 62.0085 48.3464C61.8601 47.1309 61.7364 46.0146 61.6622 45.2209C61.6128 44.8488 61.588 44.5263 61.5633 44.2782C61.5386 44.0054 61.5138 43.8813 61.5386 43.8813Z" fill="#263238"/>
<path d="M53.7725 55.1183C53.7725 55.1183 53.723 55.1431 53.6488 55.168C53.5499 55.1928 53.4262 55.2176 53.2778 55.2672C52.9562 55.3416 52.4863 55.4408 51.8927 55.5152C50.7055 55.6641 49.0483 55.7385 47.218 55.4904C46.3028 55.3664 45.4619 55.168 44.6951 54.9447C44.3241 54.8207 43.9531 54.7215 43.6315 54.5726C43.31 54.4238 43.0379 54.2005 42.8648 53.9525C42.6917 53.7044 42.5927 53.4316 42.5433 53.2083C42.4691 52.985 42.4443 52.7618 42.4196 52.613C42.3949 52.4393 42.3949 52.3153 42.3701 52.2161C42.3701 52.1168 42.3701 52.092 42.3701 52.092C42.3701 52.092 42.3948 52.2657 42.4691 52.613C42.4938 52.7866 42.5433 52.985 42.6175 53.2083C42.6917 53.4316 42.7906 53.6796 42.9637 53.9277C43.1369 54.1757 43.3842 54.3742 43.7057 54.4982C44.0273 54.6222 44.3983 54.7215 44.7693 54.8455C45.5361 55.0687 46.377 55.2424 47.2674 55.3664C49.073 55.6145 50.7302 55.5648 51.9174 55.4408C52.511 55.3664 52.981 55.292 53.3025 55.2424C53.4509 55.2176 53.5746 55.1928 53.6735 55.168C53.723 55.1183 53.7725 55.1183 53.7725 55.1183Z" fill="#263238"/>
<path d="M48.6028 55.5151C48.6028 55.5399 48.4297 55.5896 48.1823 55.7384C47.935 55.8872 47.6135 56.1353 47.3908 56.5074C47.1435 56.8795 47.0446 57.2763 47.0198 57.5492C46.9951 57.8469 47.0198 58.0205 46.9951 58.0205C46.9951 58.0205 46.9209 57.8469 46.9209 57.5492C46.9209 57.2515 47.0198 56.8298 47.2672 56.433C47.5145 56.0361 47.8608 55.788 48.1329 55.6392C48.4049 55.5151 48.6028 55.5151 48.6028 55.5151Z" fill="#263238"/>
<path d="M49.8145 38.6472C49.8145 38.6472 49.8392 38.6968 49.8392 38.8209C49.8639 38.9449 49.8639 39.1185 49.8887 39.317C49.9381 39.7387 49.9876 40.3836 50.0371 41.1526C50.136 42.6905 50.235 44.8486 50.1608 47.23C50.136 48.4207 50.0866 49.5369 49.9876 50.5788C49.9134 51.5958 49.7897 52.5384 49.5919 53.2826C49.394 54.0268 49.0724 54.5973 48.8251 54.9694C48.7014 55.143 48.6025 55.267 48.5036 55.3663C48.4294 55.4407 48.3799 55.4903 48.3799 55.4903C48.3799 55.4903 48.5283 55.3167 48.7756 54.9446C48.9982 54.5725 49.2951 54.0268 49.4929 53.2826C49.6908 52.5384 49.8145 51.6206 49.8639 50.6036C49.9382 49.5865 49.9876 48.4455 50.0124 47.2796C50.0618 44.9231 50.0124 42.765 49.9134 41.227C49.8639 40.458 49.8145 39.8379 49.7897 39.3914C49.765 39.1929 49.765 39.0193 49.765 38.8953C49.8145 38.7216 49.8145 38.6472 49.8145 38.6472Z" fill="#263238"/>
<path d="M38.6104 37.3077C38.6104 37.3325 37.6952 37.4566 36.5327 37.531C35.395 37.6302 34.4551 37.655 34.4551 37.6302C34.4551 37.6054 35.3702 37.4814 36.5327 37.4069C37.6952 37.3325 38.6104 37.2829 38.6104 37.3077Z" fill="white"/>
<path d="M49.7402 41.6985C49.7402 41.6985 49.5918 41.7233 49.3445 41.7729C49.0724 41.8225 48.7014 41.8721 48.2314 41.8969C47.7615 41.9466 47.1926 41.9466 46.5743 41.9466C45.9559 41.9218 45.2634 41.8721 44.5461 41.7729C43.8288 41.6737 43.161 41.5249 42.5426 41.376C41.949 41.2024 41.4049 41.0536 40.9596 40.8799C40.5144 40.7063 40.1682 40.5574 39.9208 40.4582C39.6735 40.3342 39.5498 40.2846 39.5498 40.2598C39.5498 40.2598 39.6982 40.3094 39.9455 40.4086C40.1929 40.5078 40.5392 40.6319 40.9844 40.8055C41.4296 40.9543 41.9737 41.128 42.5674 41.2768C43.161 41.4256 43.8535 41.5745 44.5461 41.6737C45.2634 41.7729 45.9312 41.8225 46.5743 41.8473C47.1926 41.8721 47.7615 41.8721 48.2314 41.8473C48.7014 41.8225 49.0724 41.7977 49.3445 41.7729C49.5918 41.7233 49.7402 41.6985 49.7402 41.6985Z" fill="white"/>
<path d="M60.1539 37.9775C60.1539 37.9775 60.0303 38.0768 59.8077 38.2008C59.5851 38.3496 59.2388 38.5233 58.7936 38.7465C58.3731 38.9698 57.8289 39.193 57.2353 39.4163C56.6417 39.6395 55.9739 39.8628 55.2566 40.0364C54.5393 40.2101 53.8468 40.3341 53.2284 40.4333C52.5853 40.5077 52.0165 40.5573 51.5465 40.5821C51.0766 40.6069 50.6808 40.6069 50.4088 40.5821C50.1367 40.5821 49.9883 40.5573 49.9883 40.5573C49.9883 40.5573 50.1367 40.5325 50.4088 40.5325C50.6808 40.5325 51.0766 40.5077 51.5465 40.4829C52.0165 40.4581 52.5853 40.4085 53.2284 40.3093C53.8468 40.2101 54.5393 40.086 55.2566 39.9124C55.9739 39.7387 56.6417 39.5155 57.2353 39.317C57.8289 39.0938 58.3484 38.8705 58.7936 38.6721C59.2388 38.4737 59.5851 38.3 59.8077 38.176C60.0055 38.052 60.1539 37.9775 60.1539 37.9775Z" fill="white"/>
<path d="M68.4148 32.8427C68.4148 32.8427 68.2912 32.8675 68.0933 32.8923C67.8707 32.9171 67.5739 32.9419 67.2029 32.9667C66.4609 33.0412 65.422 33.2148 64.309 33.5373C63.196 33.8598 62.2314 34.2566 61.5388 34.5791C61.1925 34.728 60.9205 34.8768 60.7226 34.976C60.5247 35.0752 60.4258 35.1248 60.4258 35.1248C60.4258 35.1248 60.5247 35.0504 60.6979 34.9512C60.871 34.8272 61.1431 34.6783 61.4893 34.5295C62.1572 34.1822 63.1465 33.7605 64.2595 33.4629C65.3726 33.1404 66.4361 32.9916 67.1782 32.9419C67.5492 32.9171 67.8707 32.8923 68.0686 32.8923C68.2912 32.8179 68.4148 32.8179 68.4148 32.8427Z" fill="white"/>
<path d="M69.5525 43.2364C69.5525 43.2364 69.4289 43.2364 69.231 43.2116C69.0331 43.1868 68.7116 43.162 68.3653 43.1372C67.6233 43.0876 66.5844 43.0628 65.4714 43.1372C64.3337 43.2116 63.3196 43.3853 62.6023 43.5341C62.2313 43.6085 61.9345 43.683 61.7366 43.7326C61.5387 43.7822 61.415 43.807 61.415 43.7822C61.415 43.7822 61.514 43.7326 61.7118 43.683C61.9097 43.6085 62.2065 43.5341 62.5775 43.4597C63.2948 43.2861 64.3337 43.1124 65.4714 43.0132C66.6092 42.9388 67.648 42.9636 68.39 43.038C68.761 43.0628 69.0578 43.1124 69.2557 43.1372C69.4289 43.2116 69.5525 43.2364 69.5525 43.2364Z" fill="white"/>
<path d="M61.7362 55.5399C61.7115 55.5399 61.8352 55.1678 61.9588 54.5973C62.0825 54.002 62.2062 53.1834 62.2062 52.2656C62.2062 51.3478 62.0578 50.5292 61.9341 49.9338C61.7857 49.3385 61.662 48.9912 61.6868 48.9912C61.6868 48.9912 61.7362 49.0656 61.7857 49.2393C61.8599 49.3881 61.9341 49.6362 62.0083 49.9338C62.1814 50.5292 62.3298 51.3478 62.3298 52.2904C62.3298 53.2082 62.2062 54.0516 62.0578 54.6469C61.9836 54.9446 61.9094 55.1678 61.8599 55.3415C61.7857 55.4407 61.7362 55.5399 61.7362 55.5399Z" fill="white"/>
<path d="M37.9175 46.9075C37.9175 46.9323 37.6455 46.9323 37.2002 46.9571C36.755 46.9819 36.1614 47.0564 35.4936 47.1556C34.8258 47.2796 34.2322 47.4284 33.8117 47.5525C33.3912 47.6765 33.1191 47.7757 33.1191 47.7509C33.1191 47.7261 33.3665 47.6269 33.787 47.478C34.2074 47.3292 34.801 47.1556 35.4689 47.0316C36.1367 46.9075 36.755 46.8579 37.2002 46.8579C37.6455 46.8579 37.9175 46.8827 37.9175 46.9075Z" fill="white"/>
<path d="M39.6735 57.3261C39.6735 57.3261 39.6488 57.3261 39.5746 57.3261C39.5251 57.3261 39.4262 57.3261 39.3025 57.3261C39.0799 57.3013 38.7336 57.2517 38.3379 57.1276C37.5464 56.9044 36.4581 56.2842 35.7161 55.2176C34.9741 54.1509 34.8009 52.9106 34.8751 52.0921C34.8999 51.6704 34.9741 51.3231 35.0483 51.0998C35.073 50.9758 35.1225 50.9014 35.1472 50.8518C35.1719 50.8022 35.1719 50.7525 35.1967 50.7773C35.2214 50.7773 35.0235 51.2735 34.9988 52.1169C34.9493 52.9355 35.1472 54.1261 35.8645 55.168C36.5818 56.2098 37.6206 56.8052 38.4121 57.0532C39.1294 57.3013 39.6735 57.2765 39.6735 57.3261Z" fill="white"/>
<path d="M45.289 58.9385C45.289 58.9633 44.2254 58.7401 42.9393 58.4176C41.6531 58.0951 40.6143 57.7974 40.6143 57.7726C40.6143 57.7478 41.6778 57.9711 42.964 58.2936C44.2501 58.616 45.289 58.9137 45.289 58.9385Z" fill="white"/>
<path d="M58.496 56.5074C58.496 56.5074 58.3971 56.5818 58.1745 56.6811C57.9766 56.7803 57.6551 56.9291 57.2841 57.1028C56.5173 57.45 55.4537 57.8717 54.217 58.219C53.0051 58.5911 51.8673 58.8144 51.0264 58.9632C50.6059 59.0376 50.2844 59.0872 50.037 59.112C49.8144 59.1368 49.666 59.1368 49.666 59.1368C49.666 59.1368 49.7897 59.112 50.0123 59.0624C50.2349 59.0128 50.5812 58.9632 50.9769 58.8888C51.7931 58.7399 52.9062 58.4671 54.1428 58.1198C55.3548 57.7477 56.4431 57.3508 57.2098 57.0283C57.6056 56.8795 57.9024 56.7307 58.125 56.6563C58.3723 56.5322 58.496 56.4826 58.496 56.5074Z" fill="white"/>
<path d="M49.7157 49.4377C49.7157 49.4377 49.6168 49.4873 49.4189 49.5369C49.2211 49.5865 48.949 49.661 48.6274 49.7106C47.9596 49.8346 46.995 49.9586 45.9314 49.9338C44.8679 49.9338 43.928 49.8098 43.2602 49.661C42.9139 49.5865 42.6418 49.5369 42.4687 49.4625C42.2708 49.4129 42.1719 49.3881 42.1719 49.3633C42.1719 49.3633 42.2708 49.3633 42.4687 49.4129C42.6666 49.4625 42.9386 49.5121 43.2602 49.5617C43.928 49.6858 44.8679 49.785 45.9314 49.785C46.9703 49.785 47.9102 49.6858 48.6027 49.5865C48.949 49.5369 49.221 49.4873 49.3942 49.4625C49.6168 49.4377 49.7157 49.4129 49.7157 49.4377Z" fill="white"/>
<path d="M53.5989 49.4627C53.5989 49.4875 53.4257 49.5619 53.1537 49.6611C52.8568 49.7603 52.4611 49.8596 51.9912 49.8844C51.5212 49.9092 51.1007 49.8844 50.8039 49.8348C50.5071 49.7852 50.334 49.7355 50.334 49.7107C50.334 49.6611 51.076 49.8348 51.9912 49.7603C52.8816 49.6859 53.5989 49.4379 53.5989 49.4627Z" fill="white"/>
<path d="M45.0165 28.1546C45.0165 28.1794 44.6703 28.2042 44.1014 28.3034C43.5325 28.4026 42.7657 28.5515 41.9248 28.8243C41.0838 29.0972 40.3418 29.3949 39.8224 29.6429C39.303 29.891 38.9814 30.0646 38.9814 30.0398C38.9814 30.0398 39.0556 29.9902 39.1793 29.891C39.3277 29.8166 39.5256 29.6926 39.7729 29.5685C40.2923 29.2957 41.0344 28.9732 41.8753 28.7251C42.7163 28.4523 43.5078 28.3034 44.0766 28.229C44.3734 28.2042 44.5961 28.1794 44.7692 28.1546C44.9423 28.1298 45.0165 28.1298 45.0165 28.1546Z" fill="white"/>
<path d="M46.6983 29.1467C46.723 29.1467 46.5746 29.8164 46.2778 30.6102C45.981 31.404 45.6594 31.9994 45.61 31.9994C45.5852 31.9745 45.8573 31.3544 46.1541 30.5854C46.4509 29.7668 46.6488 29.1219 46.6983 29.1467Z" fill="white"/>
<path d="M54.4647 30.9575C54.5142 30.9575 54.3411 31.8009 54.2174 32.8179C54.0937 33.8598 54.0937 34.7032 54.0443 34.7032C54.0195 34.7032 54.0195 34.4799 54.0195 34.1575C54.0195 33.8102 54.0443 33.3389 54.0937 32.8179C54.1432 32.297 54.2421 31.8257 54.3163 31.5032C54.3905 31.156 54.44 30.9575 54.4647 30.9575Z" fill="white"/>
<path d="M57.4083 31.032C57.3589 31.032 57.2352 30.6103 56.9384 30.139C56.6663 29.6677 56.3448 29.3452 56.3695 29.2956C56.3942 29.2708 56.7653 29.5685 57.0621 30.0646C57.3589 30.5607 57.4578 31.032 57.4083 31.032Z" fill="white"/>
<path d="M39.9454 47.1556C40.0938 46.337 40.0691 45.5184 39.9207 44.6998C39.8217 44.2285 39.7475 43.7076 39.797 43.2362C39.8712 42.7401 40.2917 42.2192 40.7864 42.244L41.6768 45.7664L39.9454 47.1556Z" fill="#B55B52"/>
<path d="M39.9452 38.8208L43.0864 51.2733L49.2204 50.6036L46.8707 38.2503C46.7965 37.9278 46.5244 37.7046 46.1782 37.7046L40.5636 37.9526C40.1183 38.0023 39.8215 38.3992 39.9452 38.8208Z" fill="#263238"/>
<path d="M46.9945 41.7727C46.9945 41.7727 46.945 41.6487 46.8956 41.4006C46.8214 41.1277 46.7472 40.8053 46.6482 40.3836C46.5493 39.9619 46.4256 39.441 46.3019 38.8952C46.2772 38.8208 46.2772 38.7464 46.2525 38.6968C46.2277 38.6472 46.1783 38.5728 46.1288 38.5479C46.0793 38.4983 46.0051 38.4735 45.9557 38.4735C45.9062 38.4487 45.8073 38.4735 45.7331 38.4735C45.4115 38.4983 45.09 38.4983 44.7684 38.5231C43.4328 38.5728 42.2208 38.6224 41.3551 38.6224C40.9347 38.6224 40.5884 38.6472 40.3163 38.6472C40.069 38.6472 39.9453 38.6472 39.9453 38.6472C39.9453 38.6472 40.069 38.6224 40.3163 38.5976C40.5884 38.5728 40.9347 38.5728 41.3551 38.5479C42.2208 38.4983 43.4328 38.4487 44.7684 38.3991C45.09 38.3991 45.4363 38.3743 45.7331 38.3743C45.8073 38.3743 45.8815 38.3495 45.9804 38.3743C46.0546 38.3991 46.1535 38.4239 46.203 38.4735C46.2772 38.5231 46.3267 38.5976 46.3514 38.672C46.3761 38.7464 46.4009 38.8208 46.4009 38.8952C46.5246 39.4658 46.6235 39.9619 46.7224 40.4084C46.7966 40.8301 46.8708 41.1525 46.945 41.4254C46.9945 41.6239 46.9945 41.7727 46.9945 41.7727Z" fill="#4D5A64"/>
<path d="M43.5816 39.1681C43.5074 39.0689 43.3837 38.9201 43.2106 38.9945C43.1364 38.9945 43.0127 39.1185 43.0127 39.2425C43.0127 39.3666 43.0869 39.4906 43.1858 39.5402C43.3095 39.5898 43.4332 39.5898 43.5321 39.4906C43.631 39.441 43.6558 39.2921 43.5816 39.1681Z" fill="#FAFAFA"/>
<path d="M43.5815 42.9634C43.4331 43.013 40.2671 44.8238 40.2671 44.8238L38.6347 46.6843C38.6347 46.6843 38.0658 47.7509 38.6347 49.3633C39.2036 50.9756 40.0445 51.4966 41.9243 51.8935L45.4365 51.1741L47.9099 49.6361L47.1679 46.8331L44.744 48.7927L43.3589 49.0408L43.1363 48.5943L45.115 47.4532L48.2315 44.8238L47.2668 43.7572L44.3977 45.6176L41.949 46.8331L42.2953 45.8161L45.1397 43.5091C45.1397 43.5091 45.3128 42.4425 43.5815 42.9634Z" fill="#B55B52"/>
<path d="M43.8289 41.2269C43.8289 41.2269 44.4967 40.8052 45.6345 41.2269C46.7722 41.6486 48.2563 42.2935 48.2563 42.2935L50.4329 42.8145L50.1608 42.2935C50.1608 42.2935 48.0337 42.5912 48.0831 41.0532H49.3693L50.4576 40.4331L52.7084 42.4672L53.7225 45.0222L55.1076 46.0888L53.4009 50.4298L49.8145 49.8345L46.7475 50.157L45.1398 48.9663L44.8925 47.3787L43.3095 45.8904C43.3095 45.8904 43.0869 45.1214 43.7794 45.0222C44.472 44.9229 46.2281 46.5105 46.2281 46.5105L47.91 46.4857C47.91 46.4857 48.1821 46.2128 47.9347 46.064C47.6874 45.9152 42.6169 43.6827 42.3696 43.1369C42.1222 42.5912 41.8749 42.2439 42.3696 42.0703C42.8643 41.8966 43.6805 42.1447 43.6805 42.1447C43.6805 42.1447 43.4579 41.3757 43.8289 41.2269Z" fill="#B55B52"/>
<path d="M48.058 44.1292C48.0333 44.154 47.0192 43.7323 45.8073 43.1866C44.5705 42.6409 43.5812 42.1695 43.6059 42.1199C43.6307 42.0951 44.6447 42.5168 45.8567 43.0626C47.0934 43.6083 48.0828 44.0796 48.058 44.1292Z" fill="#7C3835"/>
<path d="M49.2451 48.0486C49.2451 48.0486 49.1709 48.0982 48.9978 48.1478C48.8247 48.1974 48.602 48.2719 48.3052 48.3463C48.0084 48.4207 47.6374 48.4703 47.2417 48.4703C46.8212 48.4703 46.376 48.3711 45.9555 48.1726C45.0898 47.7757 44.4962 47.1308 44.1005 46.6595C43.9026 46.4362 43.7542 46.2378 43.6552 46.089C43.5563 45.9401 43.5068 45.8657 43.5068 45.8657C43.5316 45.8409 43.7789 46.1386 44.1747 46.5851C44.5951 47.0316 45.1888 47.6517 46.0297 48.0486C46.4502 48.247 46.8707 48.3463 47.2664 48.3463C47.6622 48.3463 48.0332 48.2967 48.33 48.247C48.8741 48.1478 49.2451 48.0486 49.2451 48.0486Z" fill="#7C3835"/>
<path d="M55.0827 46.0641C55.0827 46.0641 55.0579 46.0393 54.9837 45.9897C54.9095 45.9401 54.8353 45.8657 54.7116 45.7912C54.4643 45.6176 54.118 45.3447 53.6728 44.9975C53.4007 44.3277 53.0545 43.4843 52.6587 42.4425V42.4673C51.9909 41.8719 51.2242 41.2022 50.3832 40.458H50.4327C50.0864 40.6565 49.7401 40.8549 49.3444 41.0782H49.3196C48.9239 41.0782 48.4787 41.0782 48.0335 41.0782L48.0829 41.0285C48.1077 41.2518 48.1077 41.475 48.2313 41.6487C48.355 41.8223 48.5282 41.9712 48.726 42.0704C49.1465 42.244 49.6412 42.2688 50.1111 42.2192H50.1606L50.1853 42.244C50.2595 42.3929 50.3585 42.5913 50.4574 42.7649L50.5069 42.889L50.3832 42.8642C49.6906 42.6905 48.9486 42.5169 48.2066 42.3432C47.5388 42.0456 46.8215 41.7479 46.1042 41.475C45.7332 41.3262 45.3622 41.1774 44.9912 41.1278C44.6202 41.0782 44.1997 41.103 43.8534 41.2766C43.7298 41.3262 43.705 41.475 43.705 41.6239C43.705 41.7727 43.7545 41.9464 43.804 42.0952L43.8287 42.2192L43.705 42.1944C43.4577 42.12 43.2103 42.0952 42.963 42.0704C42.7157 42.0704 42.4436 42.0704 42.2705 42.2192C42.1715 42.2936 42.1715 42.3929 42.1963 42.5169C42.221 42.6409 42.2952 42.7649 42.3447 42.8642C42.4189 42.9882 42.4436 43.1122 42.5178 43.1866C42.6167 43.2611 42.7157 43.3603 42.8393 43.4099C43.7545 43.9804 44.7191 44.4269 45.659 44.8982C46.129 45.1215 46.5989 45.3447 47.0688 45.568C47.2915 45.6672 47.5388 45.7912 47.7614 45.8905L47.9345 45.9649C47.984 45.9897 48.0582 46.0393 48.1077 46.1137C48.1571 46.1881 48.1324 46.2874 48.1077 46.337C48.0829 46.4114 48.0335 46.461 47.984 46.5106L47.9593 46.5354H47.9345C47.3657 46.5354 46.7968 46.5602 46.2526 46.5602H46.2279L46.2032 46.5354C45.6837 46.0641 45.1396 45.6176 44.546 45.2951C44.2492 45.1463 43.9276 44.9727 43.6556 45.0967C43.5072 45.1463 43.4082 45.2703 43.3835 45.4192C43.334 45.568 43.3588 45.7168 43.3835 45.8657L43.3588 45.8409C43.9029 46.3618 44.447 46.8579 44.9417 47.3292L44.9665 47.354V47.3788C45.0407 47.9245 45.1396 48.4455 45.2138 48.9664L45.1891 48.9416C45.7579 49.3633 46.2774 49.7602 46.7968 50.1323H46.772C47.9593 50.0082 48.9734 49.909 49.8391 49.8346C50.9768 50.033 51.892 50.1819 52.5103 50.2811C52.8071 50.3307 53.0297 50.3803 53.2029 50.4051C53.2771 50.4299 53.3265 50.4299 53.376 50.4299C53.4255 50.4299 53.4255 50.4547 53.4255 50.4547C53.4255 50.4547 53.4007 50.4547 53.376 50.4547C53.3265 50.4547 53.2771 50.4299 53.2029 50.4299C53.0297 50.4051 52.8071 50.3803 52.5103 50.3307C51.892 50.2315 51.0016 50.0826 49.8391 49.909C48.9734 50.0082 47.9593 50.1074 46.772 50.2315H46.7473H46.7226C46.2279 49.8594 45.6837 49.4625 45.1149 49.0408H45.0901V49.016C45.0159 48.4951 44.9417 47.9741 44.8428 47.4284L44.8675 47.4532C44.3728 46.9819 43.8287 46.4858 43.2846 45.9649V45.9401C43.2351 45.7664 43.2351 45.5928 43.2846 45.4192C43.3093 45.3447 43.3588 45.2455 43.4082 45.1711C43.4824 45.0967 43.5566 45.0471 43.6308 45.0223C43.804 44.9479 44.0018 44.9727 44.1502 45.0223C44.3234 45.0719 44.4718 45.1463 44.6202 45.2455C45.2138 45.5928 45.7579 46.0145 46.3021 46.5106L46.2526 46.4858C46.7968 46.4858 47.3657 46.461 47.9345 46.461L47.8851 46.4858C47.9593 46.4114 48.0335 46.2874 47.984 46.2129C47.9593 46.1385 47.8109 46.1137 47.6872 46.0393C47.4646 45.9401 47.2173 45.8161 46.9946 45.7168C46.5247 45.4936 46.0548 45.2703 45.5848 45.0471C44.6449 44.6006 43.6803 44.1293 42.7404 43.5587C42.6167 43.4843 42.5178 43.4099 42.4189 43.3107C42.3694 43.2611 42.3199 43.1866 42.2952 43.137L42.221 42.9634C42.1715 42.8394 42.0973 42.7153 42.0726 42.5913C42.0479 42.5169 42.0479 42.4425 42.0479 42.3681C42.0479 42.2936 42.1221 42.2192 42.1715 42.1696C42.4189 41.996 42.7157 41.996 42.963 41.996C43.2351 42.0208 43.4824 42.0704 43.7298 42.12L43.6556 42.1944C43.6061 42.0208 43.5566 41.8471 43.5566 41.6735C43.5566 41.5743 43.5566 41.4999 43.6061 41.4006C43.6308 41.3014 43.705 41.227 43.804 41.2022C44.1997 41.0037 44.6202 40.9789 45.0159 41.0285C45.4364 41.0782 45.8074 41.2518 46.1537 41.3758C46.8957 41.6487 47.5883 41.9464 48.2808 42.244C49.0476 42.4177 49.7896 42.6161 50.4574 42.7649L50.3832 42.8394C50.2843 42.6657 50.1853 42.4673 50.1111 42.3184L50.1606 42.3432C49.6659 42.3929 49.1712 42.3681 48.726 42.1696C48.5034 42.0704 48.3055 41.9216 48.1819 41.6983C48.0335 41.4999 48.0335 41.2518 48.0087 41.0285V40.9789H48.0582C48.5034 40.9789 48.9486 40.9789 49.3444 40.9789H49.3196C49.6906 40.7557 50.0617 40.5572 50.4079 40.3588L50.4327 40.334L50.4574 40.3588C51.2984 41.103 52.0404 41.7975 52.7082 42.3929C53.1039 43.4099 53.4502 44.2781 53.6976 44.9478C54.1428 45.2951 54.489 45.568 54.7364 45.7416C54.8601 45.8409 54.9343 45.8905 55.0085 45.9401C55.0579 46.0393 55.0827 46.0641 55.0827 46.0641Z" fill="#7C3835"/>
<path d="M47.7122 13.271C47.7122 13.271 46.8217 14.9082 45.9561 15.6275C46.426 16.1981 47.3411 16.074 47.3411 16.074L47.7122 13.271Z" fill="#A02724"/>
</g>
<defs>
<clipPath id="clip0">
<rect width="86" height="83" fill="white"/>
</clipPath>
</defs>
</svg>
