<svg width="103" height="102" viewBox="0 0 103 102" fill="none" xmlns="http://www.w3.org/2000/svg">
<g clip-path="url(#clip0)">
<path d="M19.1461 78.1256C31.8628 77.7859 40.0969 87.4424 40.0969 87.4424C38.8301 91.4215 38.0506 94.3815 38.0506 94.3815C31.0832 93.0713 23.1901 92.5375 16.6613 90.8392C10.7658 89.3349 10.1811 81.3767 10.8145 78.077C11.4479 74.7773 14.8098 73.9524 18.0742 72.8848C21.8259 71.6717 28.9881 71.5261 34.104 71.5261C39.5123 71.5261 46.5771 72.0114 50.28 72.8363C50.28 72.8363 58.0756 72.4966 63.8737 72.5937C67.2355 72.0114 65.2379 77.4947 59.8297 82.2017C54.2753 87.0542 47.113 88.9952 40.1944 87.8791H40.1457" fill="#24263B"/>
<path d="M80.2954 78.1256C67.5787 77.7859 56.2751 87.4424 56.2751 87.4424C57.5418 91.4215 58.3214 94.3815 58.3214 94.3815C65.2888 93.0713 76.2027 92.5375 82.7315 90.8392C88.627 89.3349 89.2117 81.3767 88.5783 78.077C87.9449 74.7773 84.583 73.9524 81.3186 72.8848C77.5669 71.6717 70.4047 71.5261 65.2888 71.5261C59.8805 71.5261 52.8157 72.0114 49.1128 72.8363C49.1128 72.8363 41.3172 72.4966 35.5191 72.5937C32.1573 72.0114 34.1549 77.4947 39.5631 82.2017C45.1175 87.0542 52.2798 88.9952 59.1984 87.8791H59.2471" fill="#24263B"/>
<path d="M40.1962 43.7212C39.0756 47.4577 37.955 51.1941 36.7369 54.882C36.1522 56.726 35.5188 58.5699 34.8854 60.4139C34.2521 62.2579 33.6187 64.1018 32.8878 65.9458L32.7904 66.1884L32.6442 66.4795C32.5468 66.6737 32.498 66.8192 32.4006 67.0133C32.2057 67.353 32.0108 67.6442 31.8159 67.9353C31.4261 68.5176 30.9389 69.0029 30.5004 69.4396C29.5747 70.313 28.6489 70.9439 27.6745 71.5262C25.7743 72.6908 23.8741 73.4672 21.9252 74.1951C18.0761 75.6023 14.227 76.5243 10.183 77.1551L9.45215 74.001C11.2062 73.3701 13.0576 72.6908 14.8117 71.9629C16.5657 71.235 18.3197 70.5071 19.9763 69.6822C21.6328 68.8573 23.2407 67.9353 24.6049 66.9648C25.9692 65.9943 27.0898 64.7812 27.1872 64.0533L30.4517 52.8925C31.5723 49.156 32.6929 45.4681 33.8623 41.7317L40.1962 43.7212Z" fill="#CE7A63"/>
<path d="M10.7679 74.195L4.82373 72.6907L7.64965 78.3681C7.64965 78.3681 11.6936 78.5622 13.0092 76.2815L10.7679 74.195Z" fill="#CE7A63"/>
<path d="M52.8629 3.2511C50.7191 1.6983 47.2111 0.436642 45.7981 2.76585C44.3851 5.09506 43.1671 10.0446 40.8284 11.2578C38.4897 12.4224 35.6638 17.2264 37.2229 21.4481C38.782 25.6698 32.6917 24.5051 32.3506 30.9105C32.0583 37.2673 41.1694 40.5185 46.9187 37.3643C52.668 34.2102 56.7607 17.7601 56.371 11.2578C56.0299 4.70686 52.8629 3.2511 52.8629 3.2511Z" fill="#263238"/>
<path d="M50.1846 3.00848C50.1846 3.00848 53.3028 -1.69847 59.0521 0.727795C65.7759 3.59078 63.6808 6.64787 64.8989 13.1503C66.1169 19.6526 73.6202 20.8172 73.2792 29.8429C72.6945 45.2254 59.0034 42.3624 55.2517 38.2863C51.5001 34.2102 55.6415 19.2159 55.6415 19.2159L50.1846 3.00848Z" fill="#263238"/>
<path d="M0 74.9229L2.63103 79.5813L7.64948 78.4652L4.82356 72.7393L0 74.9229Z" fill="#CE7A63"/>
<path d="M36.053 34.9381C33.4707 35.6174 31.668 46.1959 31.668 46.1959L38.7815 51.0484C38.7815 51.0484 45.6027 40.3244 43.6538 37.5099C41.5587 34.5499 39.8534 33.9676 36.053 34.9381Z" fill="#F98B77"/>
<path opacity="0.2" d="M35.8096 38.7717L41.3639 40.0334L41.8999 45.4682C40.4382 48.4282 38.7816 51.0486 38.7816 51.0486L34.4453 48.1371C34.6402 45.6138 35.1274 40.4701 35.8096 38.7717Z" fill="black"/>
<path d="M36.0534 34.9382C36.0534 34.9382 33.0813 36.0057 39.0742 72.6908C49.2085 72.6908 59.6839 72.6908 64.6049 72.6908C64.1664 62.3549 64.1664 55.9496 69.1362 34.744C69.1362 34.744 63.7766 33.5794 58.3197 33.3368C54.0321 33.1427 50.5241 32.9971 46.7237 33.3368C41.7052 33.7735 36.0534 34.9382 36.0534 34.9382Z" fill="#FFB3C7"/>
<path opacity="0.2" d="M63.0958 44.5945L66.4089 47.4089C65.7268 51.0969 65.2396 54.2025 64.9473 56.9684C64.3139 54.2025 62.706 46.7296 63.0958 44.5945Z" fill="black"/>
<path d="M57.1043 20.3318C56.3735 24.0682 55.6426 30.8618 58.2737 33.3365C58.2737 33.3365 55.8375 38.9169 49.3574 38.9169C42.8773 38.9169 46.6777 33.3365 46.6777 33.3365C50.8191 32.366 50.7216 29.2604 49.9908 26.3974L57.1043 20.3318Z" fill="#CE7A63"/>
<path d="M58.2713 33.3368C53.9837 33.1427 50.4756 32.9971 46.6753 33.3368C44.8725 33.4824 43.0211 33.7735 41.3158 34.0162C40.1951 36.0057 35.8588 44.9343 46.5778 44.9343C57.8328 44.9343 62.5102 35.1323 63.0948 33.7735C61.5844 33.5794 59.9279 33.3853 58.2713 33.3368Z" fill="#CE7A63"/>
<path opacity="0.2" d="M54.2282 22.8069L50.0381 26.3978C50.233 27.0771 50.3304 27.7565 50.3791 28.4358C51.987 28.1932 54.1308 26.4948 54.3257 24.7964C54.3744 23.9715 54.3257 23.1951 54.2282 22.8069Z" fill="black"/>
<path d="M62.026 13.2958C60.8566 19.4099 60.4668 21.9818 56.9588 24.7477C51.648 28.8724 44.3883 26.1064 43.7062 19.7981C43.1215 14.1207 45.1191 5.09501 51.5018 3.39663C57.7384 1.79529 63.1953 7.23012 62.026 13.2958Z" fill="#CE7A63"/>
<path d="M51.1101 2.76594C48.9176 3.97907 50.3792 6.1627 54.3258 7.71551C58.2723 9.26832 58.516 9.55947 57.8826 12.7136C57.2492 15.9163 62.9984 18.8763 63.0959 15.5766C63.1933 12.2769 64.3627 6.01713 61.2444 4.27022C58.1749 2.52331 53.4488 1.50428 51.1101 2.76594Z" fill="#263238"/>
<path d="M50.7673 4.31868C48.8184 4.9495 44.3846 9.7535 44.7256 8.15217C45.0667 6.59936 45.895 4.3672 48.2337 3.5908C50.5724 2.76587 51.693 2.76587 51.693 2.76587L50.7673 4.31868Z" fill="#263238"/>
<path d="M63.1917 18.4396C62.607 19.5557 61.5351 20.3321 60.5119 20.6718C59.0015 21.157 58.222 19.8468 58.6605 18.4396C59.0502 17.1779 60.2683 15.334 61.7787 15.4796C63.2891 15.6251 63.8738 17.1294 63.1917 18.4396Z" fill="#CE7A63"/>
<path d="M38.7833 93.6051L41.122 86.9572C41.2194 86.7146 42.2426 87.3454 42.4862 87.3939C42.4862 87.3939 46.1404 86.9087 47.6021 87.2969C49.0638 87.6851 49.0151 88.6556 48.7228 89.6261C48.0894 91.9068 47.1149 92.3435 46.4815 95.4006C46.0917 97.2445 45.7507 98.9915 43.7043 100.738C41.7554 102.437 39.9039 102.34 40.6348 100.253C42.4862 95.3035 41.6092 96.0314 40.4399 94.236C40.245 93.9934 38.6371 93.9934 38.7833 93.6051Z" fill="#CE7A63"/>
<path d="M57.1028 93.6051L54.7641 86.9572C54.6667 86.7146 53.6435 87.3454 53.3999 87.3939C53.3999 87.3939 49.7457 86.9087 48.284 87.2969C46.8223 87.6851 46.871 88.6556 47.1634 89.6261C47.7968 91.9068 48.7712 92.3435 49.4046 95.4006C49.7944 97.2445 50.1355 98.9915 52.1818 100.738C54.1307 102.437 55.9822 102.34 55.2514 100.253C53.3999 95.3035 54.2769 96.0314 55.4462 94.236C55.6899 93.9934 57.249 93.9934 57.1028 93.6051Z" fill="#CE7A63"/>
<path d="M39.5612 95.2063L41.9486 86.4232L38.8304 85.113L34.4453 94.5754L39.5612 95.2063Z" fill="#FFB0A1"/>
<path d="M56.5184 95.4004L52.8154 86.5203L55.6414 85.3071L61.4394 93.9931L56.5184 95.4004Z" fill="#FFB0A1"/>
<path d="M48.0407 13.8296C48.0407 13.8296 46.92 15.8676 45.8481 16.7896C46.4328 17.469 47.6022 17.3719 47.6022 17.3719L48.0407 13.8296Z" fill="#BA4D3C"/>
<path d="M49.1112 19.9435C49.1112 19.9435 49.1599 19.9435 49.1112 19.9435C50.8652 20.1862 52.1808 19.0701 52.2295 19.0216C52.2782 18.973 52.2782 18.9245 52.2295 18.876C52.1808 18.8275 52.132 18.8275 52.0833 18.876C52.0833 18.876 50.7678 19.9435 49.1599 19.7494C49.1112 19.7494 49.0625 19.798 49.0625 19.8465C49.0625 19.895 49.1112 19.9435 49.1112 19.9435Z" fill="#263238"/>
<path d="M54.6652 11.4033C54.7139 11.4519 54.8114 11.4033 54.8601 11.4033C54.9575 11.3548 54.9575 11.2092 54.9088 11.1607C54.0805 9.802 52.765 9.802 52.6675 9.802C52.5701 9.802 52.4727 9.89905 52.4727 9.9961C52.4727 10.0932 52.5701 10.1902 52.6675 10.1902C52.7163 10.1902 53.8369 10.2387 54.5677 11.4033C54.6165 11.3548 54.6652 11.4033 54.6652 11.4033Z" fill="#263238"/>
<path d="M50.4269 13.1018C50.3782 13.1018 50.2808 13.1018 50.232 13.1503C50.1346 13.2474 50.1833 13.3444 50.232 13.4415C51.3527 14.5576 52.6682 14.2664 52.7169 14.2664C52.8144 14.2664 52.8631 14.1208 52.8631 14.0238C52.8631 13.9267 52.7169 13.8782 52.6195 13.8782C52.5707 13.8782 51.4501 14.1208 50.4757 13.1503C50.5244 13.1503 50.4757 13.1503 50.4269 13.1018Z" fill="#263238"/>
<path d="M43.7512 12.4226C43.7024 12.4226 43.605 12.4226 43.5563 12.4711C43.4588 12.5682 43.5075 12.6652 43.5563 12.7623C44.6769 13.8784 45.9924 13.5872 46.0411 13.5872C46.1386 13.5872 46.1873 13.4416 46.1873 13.3446C46.1873 13.2475 46.0411 13.199 45.9437 13.199C45.895 13.199 44.7743 13.4416 43.7999 12.4711L43.7512 12.4226Z" fill="#263238"/>
<path d="M44.2891 9.55939C44.3378 9.60792 44.4353 9.55939 44.484 9.55939C45.5559 8.73447 46.6278 9.07414 46.6765 9.07414C46.774 9.12267 46.8714 9.07414 46.9201 8.97709C46.9689 8.88004 46.9201 8.78299 46.8227 8.73447C46.774 8.73447 45.5072 8.29774 44.2404 9.26824C44.143 9.31677 44.1429 9.46234 44.1917 9.51087C44.2404 9.51087 44.2404 9.55939 44.2891 9.55939Z" fill="#263238"/>
<path d="M64.9475 71.1863L65.1424 73.467C65.2399 73.6611 65.045 73.8066 64.7039 73.8066H38.8809C38.6372 73.8066 38.4423 73.7096 38.4423 73.564L38.1987 71.2833C38.1987 71.1378 38.3936 70.9922 38.6372 70.9922H64.4603C64.7527 70.9922 64.8988 71.0892 64.9475 71.1863Z" fill="#D28273"/>
<path opacity="0.3" d="M64.9475 71.1863L65.1424 73.467C65.2399 73.6611 65.045 73.8066 64.7039 73.8066H38.8809C38.6372 73.8066 38.4423 73.7096 38.4423 73.564L38.1987 71.2833C38.1987 71.1378 38.3936 70.9922 38.6372 70.9922H64.4603C64.7527 70.9922 64.8988 71.0892 64.9475 71.1863Z" fill="#D28273"/>
<path d="M61.487 74.0493H62.1691C62.3153 74.0493 62.4128 74.0008 62.4128 73.9037L62.0717 70.9437C62.0717 70.8466 61.9255 70.7981 61.8281 70.7981H61.146C60.9998 70.7981 60.9023 70.8466 60.9023 70.9437L61.2434 73.9037C61.2434 74.0008 61.3408 74.0493 61.487 74.0493Z" fill="#263238"/>
<path d="M40.8781 74.0493H41.5603C41.7064 74.0493 41.8039 74.0008 41.8039 73.9037L41.4628 70.9437C41.4628 70.8466 41.3166 70.7981 41.2192 70.7981H40.5371C40.3909 70.7981 40.2935 70.8466 40.2935 70.9437L40.6345 73.9037C40.6345 74.0008 40.732 74.0493 40.8781 74.0493Z" fill="#263238"/>
<path d="M51.1589 74.0493H51.841C51.9872 74.0493 52.0846 74.0008 52.0846 73.9037L51.7436 70.9437C51.7436 70.8466 51.5974 70.7981 51.5 70.7981H50.8178C50.6717 70.7981 50.5742 70.8466 50.5742 70.9437L50.9153 73.9037C50.9153 74.0008 51.0614 74.0493 51.1589 74.0493Z" fill="#263238"/>
<path d="M71.3777 42.2654L73.4728 53.4747C73.8138 55.3187 74.2036 57.2111 74.5447 59.0551C74.7396 59.9771 74.9345 60.8991 75.1294 61.7725L75.4704 63.0827L75.7627 64.1988C75.8602 64.4899 76.2013 65.0237 76.6398 65.5575C77.127 66.0913 77.7604 66.5765 78.4425 67.0618C79.8067 68.0323 81.4146 68.9057 83.0712 69.7307C84.7277 70.5556 86.433 71.2835 88.1871 72.0113C89.9411 72.7392 91.7438 73.3701 93.4491 74.0009L92.7183 77.155C88.7717 76.5242 84.9714 75.6022 81.171 74.2435C79.2708 73.5641 77.3706 72.7392 75.5191 71.6717C74.5934 71.0894 73.6677 70.5071 72.7419 69.6821C71.8649 68.8572 70.9392 67.8867 70.3058 66.3824L70.2084 66.0913L70.1109 65.8972L69.9647 65.509L69.7211 64.7811L69.2826 63.3253C68.9903 62.3548 68.7467 61.4328 68.5031 60.4623C68.0158 58.5699 67.5286 56.6774 67.1388 54.7849C66.3105 50.9999 65.5797 47.215 64.9463 43.3815L71.3777 42.2654Z" fill="#CE7A63"/>
<path d="M69.089 34.744C71.6226 35.5204 74.7896 43.7212 74.7896 43.7212L64.8502 50.8059C64.8502 50.8059 61.1472 44.0609 62.2191 40.7612C63.3885 37.3159 66.1657 33.8706 69.089 34.744Z" fill="#FFB3C7"/>
<path d="M92.1836 74.195L98.1278 72.6907L95.3019 78.3681C95.3019 78.3681 91.2579 78.5622 89.9424 76.2815L92.1836 74.195Z" fill="#CE7A63"/>
<path d="M103.002 74.9231L100.322 79.5816L95.3525 78.4655L98.1785 72.7395L103.002 74.9231Z" fill="#CE7A63"/>
</g>
<defs>
<clipPath id="clip0">
<rect width="103" height="102" fill="white"/>
</clipPath>
</defs>
</svg>
