<svg width="198" height="198" viewBox="0 0 198 198" fill="none" xmlns="http://www.w3.org/2000/svg">
<mask id="mask0" mask-type="alpha" maskUnits="userSpaceOnUse" x="0" y="0" width="198" height="198">
<circle cx="98.5419" cy="98.5419" r="98.5419" fill="#C4C4C4"/>
</mask>
<g mask="url(#mask0)">
<circle cx="98.5419" cy="98.5419" r="98.5419" fill="#FFDFB3"/>
<rect x="-22.5234" y="195.247" width="351.935" height="4.22322" transform="rotate(-45.6251 -22.5234 195.247)" fill="#F087A1"/>
<rect x="32.3789" y="267.042" width="351.935" height="4.22322" transform="rotate(-45.6251 32.3789 267.042)" fill="#F087A1"/>
<rect x="-8.87695" y="199.614" width="351.935" height="4.22322" transform="rotate(-45.6251 -8.87695 199.614)" fill="#F087A1"/>
<rect x="46.0244" y="271.408" width="351.935" height="4.22322" transform="rotate(-45.6251 46.0244 271.408)" fill="#F087A1"/>
<rect x="4.76855" y="203.98" width="351.935" height="4.22322" transform="rotate(-45.6251 4.76855 203.98)" fill="#F087A1"/>
<rect x="59.6709" y="275.775" width="351.935" height="4.22322" transform="rotate(-45.6251 59.6709 275.775)" fill="#F087A1"/>
<rect x="18.415" y="208.347" width="351.935" height="4.22322" transform="rotate(-45.6251 18.415 208.347)" fill="#F087A1"/>
<rect x="73.3164" y="280.142" width="351.935" height="4.22322" transform="rotate(-45.6251 73.3164 280.142)" fill="#F087A1"/>
<rect x="32.0615" y="212.714" width="351.935" height="4.22322" transform="rotate(-45.6251 32.0615 212.714)" fill="#F087A1"/>
<rect x="86.9629" y="284.508" width="351.935" height="4.22322" transform="rotate(-45.6251 86.9629 284.508)" fill="#F087A1"/>
<rect x="45.708" y="217.08" width="351.935" height="4.22322" transform="rotate(-45.6251 45.708 217.08)" fill="#F087A1"/>
<rect x="100.609" y="288.875" width="351.935" height="4.22322" transform="rotate(-45.6251 100.609 288.875)" fill="#F087A1"/>
<rect x="59.3535" y="221.447" width="351.935" height="4.22322" transform="rotate(-45.6251 59.3535 221.447)" fill="#F087A1"/>
<rect x="114.256" y="293.241" width="351.935" height="4.22322" transform="rotate(-45.6251 114.256 293.241)" fill="#F087A1"/>
</g>
</svg>
