<svg width="59" height="135" viewBox="0 0 59 135" fill="none" xmlns="http://www.w3.org/2000/svg">
<path d="M16.8281 70.8331L40.7583 122.633L45.5227 119.699L28.6649 65.6994C28.6649 65.6994 24.0407 57.913 17.4888 58.527L16.8281 70.8331Z" fill="#FFD5BF"/>
<path d="M37.6869 116.399L41.0031 124.956L41.6385 132.474C41.6492 132.602 41.6862 132.727 41.7473 132.841C41.8083 132.954 41.8921 133.053 41.9934 133.133C42.0946 133.212 42.2112 133.27 42.3358 133.303C42.4604 133.335 42.5903 133.342 42.7175 133.321C42.8663 133.3 43.0076 133.243 43.1291 133.154C43.2506 133.066 43.3487 132.949 43.4148 132.814C44.2967 131.085 47.4243 124.662 47.1493 124.058C46.8286 123.347 44.2706 114.794 44.2706 114.794L37.6869 116.399Z" fill="#FFB3C7"/>
<g opacity="0.6">
<path opacity="0.6" d="M42.7216 133.334L46.9423 123.487L47.0629 123.859C47.1768 124.174 47.1752 124.52 47.0583 124.834C46.7401 125.677 45.8145 127.982 43.432 132.823C43.3635 132.962 43.2616 133.082 43.1354 133.172C43.0091 133.262 42.8624 133.319 42.7086 133.339L42.7216 133.334Z" fill="white"/>
</g>
<g opacity="0.6">
<path opacity="0.6" d="M44.1588 121.342C44.0804 121.459 44.0476 121.6 44.0667 121.739C44.0858 121.877 44.1554 122.004 44.2623 122.095C44.3761 122.176 44.5165 122.211 44.6552 122.193C44.7938 122.175 44.9204 122.105 45.0094 121.997C45.0923 121.874 45.1265 121.724 45.1054 121.577C45.0844 121.43 45.0096 121.296 44.8955 121.201C44.7686 121.127 44.6178 121.105 44.475 121.139C44.3322 121.174 44.2085 121.263 44.1302 121.388" fill="white"/>
</g>
<path d="M43.3483 128.851C43.0435 128.657 42.7049 128.522 42.3502 128.453C41.9895 128.443 41.6301 128.499 41.2901 128.62C41.2837 128.601 41.3583 128.497 41.5523 128.395C41.8073 128.271 42.0922 128.222 42.3739 128.254C42.6556 128.286 42.9224 128.397 43.1433 128.575C43.3038 128.714 43.3625 128.839 43.3483 128.851Z" fill="#263238"/>
<path d="M43.1427 130.23C42.8448 130.181 42.5445 130.15 42.243 130.135C41.9454 130.182 41.6508 130.247 41.3606 130.328C41.464 130.198 41.597 130.094 41.7485 130.025C41.8999 129.957 42.0656 129.925 42.2317 129.934C42.7939 129.899 43.1799 130.189 43.1427 130.23Z" fill="#263238"/>
<path d="M43.9537 126.96C43.5026 126.844 43.0435 126.763 42.5802 126.716C41.8102 126.688 41.2093 126.937 41.1903 126.879C41.611 126.628 42.0944 126.503 42.5838 126.517C43.0732 126.531 43.5484 126.685 43.9537 126.96Z" fill="#263238"/>
<path d="M43.1682 124.271C43.1666 124.333 42.6169 124.306 41.9893 124.505C41.3618 124.705 40.9197 125.033 40.8822 124.984C41.1401 124.644 41.5103 124.406 41.9269 124.313C42.323 124.154 42.7623 124.139 43.1682 124.271Z" fill="#263238"/>
<path d="M42.266 121.733C41.8459 121.747 41.4296 121.817 41.0287 121.944C40.3877 122.191 40.0344 122.681 39.9859 122.642C39.9374 122.604 40.0219 122.487 40.1785 122.302C40.39 122.062 40.6551 121.875 40.9523 121.756C41.2495 121.637 41.5705 121.59 41.8894 121.618C42.1333 121.647 42.2727 121.71 42.266 121.733Z" fill="#263238"/>
<path d="M40.87 121.454C40.8058 121.358 40.762 121.249 40.7414 121.135C40.6637 120.825 40.6475 120.504 40.6937 120.188C40.7096 119.953 40.8004 119.731 40.9527 119.552C41.0088 119.498 41.0804 119.463 41.1576 119.451C41.2347 119.44 41.3134 119.453 41.3828 119.488C41.5143 119.563 41.6129 119.684 41.6589 119.828C41.7439 120.125 41.7226 120.443 41.5985 120.726C41.4744 121.009 41.2553 121.24 40.9791 121.379C40.7039 121.511 40.3956 121.558 40.0936 121.514C39.7916 121.47 39.5096 121.337 39.2834 121.132C39.2263 121.08 39.181 121.016 39.1505 120.945C39.1201 120.874 39.1051 120.798 39.1067 120.72C39.1168 120.643 39.1512 120.571 39.2049 120.515C39.2586 120.459 39.3288 120.421 39.4054 120.407C39.6345 120.376 39.8679 120.407 40.0805 120.498C40.3816 120.598 40.6623 120.751 40.9088 120.951C41.0071 121.015 41.0892 121.1 41.1487 121.201C40.8082 120.955 40.4328 120.761 40.035 120.625C39.846 120.557 39.6435 120.534 39.4443 120.56C39.4023 120.567 39.3637 120.588 39.3346 120.619C39.3055 120.65 39.2875 120.689 39.2834 120.732C39.2855 120.782 39.298 120.832 39.3202 120.878C39.3425 120.923 39.3739 120.964 39.4125 120.996C39.6133 121.167 39.8591 121.277 40.1205 121.311C40.3818 121.346 40.6477 121.305 40.8863 121.193C41.1191 121.075 41.3049 120.881 41.4133 120.643C41.5216 120.406 41.5461 120.138 41.4827 119.885C41.454 119.783 41.3896 119.695 41.3013 119.637C41.2633 119.617 41.2197 119.609 41.1769 119.615C41.1341 119.621 41.0943 119.641 41.0635 119.671C40.9327 119.82 40.8519 120.007 40.8324 120.204C40.7726 120.62 40.7853 121.043 40.87 121.454Z" fill="#263238"/>
<path d="M30.7738 100.799C30.7314 100.813 29.5279 98.3366 28.0851 95.2559C26.6424 92.1753 25.5053 89.6591 25.5424 89.6399C25.5794 89.6206 26.7883 92.1027 28.2354 95.1856C29.6825 98.2684 30.8174 100.778 30.7738 100.799Z" fill="#EB996E"/>
<path d="M39.7751 101.466C39.7453 101.42 39.721 101.371 39.7025 101.32C39.6623 101.196 39.5951 101.055 39.5238 100.88C39.3674 100.498 39.1572 99.9386 38.9079 99.2477C38.4049 97.8637 37.7643 95.933 37.1168 93.7809C36.4692 91.6288 35.9308 89.6685 35.5518 88.2443C35.3741 87.5519 35.228 86.979 35.1197 86.5561L35.0095 86.0942C34.9926 86.0411 34.9832 85.9859 34.9816 85.9302C35.0069 85.9805 35.0244 86.0344 35.0334 86.09C35.0726 86.2108 35.1213 86.3609 35.1795 86.5403C35.3139 86.9547 35.4643 87.5298 35.6649 88.2149C36.07 89.6306 36.628 91.5845 37.2744 93.7334C37.9209 95.8822 38.5441 97.815 39.0177 99.2084C39.2389 99.8904 39.4405 100.445 39.5815 100.858C39.6397 101.037 39.6873 101.184 39.7275 101.308C39.7519 101.357 39.768 101.411 39.7751 101.466Z" fill="#EB996E"/>
<path d="M5.65552 35.4961C5.68547 34.7134 5.96201 33.9603 6.44563 33.3442C6.92925 32.7281 7.5952 32.2806 8.34835 32.0657C9.44949 31.7776 10.7496 31.9731 11.5935 31.2047C12.5162 30.354 12.3413 28.7726 13.1783 27.8395C14.1388 26.7727 16.0221 26.9785 16.9517 25.8876C17.6378 25.0678 17.5623 23.7985 18.2106 22.9375C18.859 22.0765 20.1659 21.8398 21.0132 21.1023C21.9532 20.279 22.3854 18.7971 23.5723 18.4472C23.921 18.3691 24.2832 18.375 24.6291 18.4645C24.9751 18.554 25.2948 18.7244 25.5619 18.9617C26.0936 19.4389 26.5453 19.9983 26.8997 20.6186L31.541 27.8224C31.682 28.0147 31.7813 28.2344 31.8326 28.4673C31.9286 29.119 31.2803 29.6027 30.7623 30.0075C29.4661 31.0238 28.5481 32.4454 28.1552 34.045C27.9151 35.0398 27.7916 36.2267 26.9135 36.7481C26.2274 37.1495 25.2943 36.9951 24.6803 37.4925C23.7918 38.2129 24.2103 39.6468 23.8433 40.7274C23.5002 41.7359 22.4711 42.3533 21.466 42.6827C20.4609 43.012 19.3701 43.1423 18.4062 43.602C17.4422 44.0617 16.5881 44.9741 16.6532 46.0479C14.9043 44.8541 13.3503 43.3973 12.0463 41.729L13.6894 39.9693L11.0755 41.1081C10.8457 40.5044 10.2591 40.1236 9.79253 39.6708C9.326 39.218 8.9418 38.5182 9.25053 37.9556C9.62101 37.2696 10.7668 37.2078 10.9657 36.4531C9.88738 36.5425 8.87082 36.9933 8.08078 37.7327C7.06999 37.1366 6.28846 36.2185 5.86134 35.1256" fill="#263238"/>
<path d="M9.79962 23.517L5.99878 6.70824H5.9782C5.9782 5.92955 5.94733 3.43911 5.81011 3.14067L0.455322 2.58838C0.455322 2.58838 1.11395 6.9415 1.14139 7.07186C1.14139 7.07186 1.54274 9.27758 1.63879 9.28101L3.71759 26.5323C3.7629 27.037 3.94037 27.5209 4.23214 27.9353L15.2505 43.6669L18.1663 35.8114L9.79962 23.517Z" fill="#FFD5BF"/>
<path d="M0.431086 2.94206C0.421897 2.97575 0.421897 3.01129 0.431086 3.04497C0.461959 3.54924 0.85645 5.70693 1.13774 5.75496C1.41903 5.80298 2.16685 5.51483 2.16685 5.21982C2.16685 4.92481 1.59741 2.52356 1.59741 2.52356C1.59741 2.52356 1.48077 2.14965 0.818713 2.18052C0.393349 2.17366 0.431086 2.94206 0.431086 2.94206Z" fill="#FFD5BF"/>
<path d="M1.59772 1.93327C1.58966 1.96826 1.58966 2.00463 1.59772 2.03961C1.6286 2.54388 2.02652 4.69814 2.30781 4.74617C2.5891 4.79419 3.33692 4.50604 3.33692 4.21446C3.33692 3.92288 2.75375 1.51477 2.75375 1.51477C2.75375 1.51477 2.63712 1.14086 1.97849 1.17173C1.55999 1.17516 1.59772 1.93327 1.59772 1.93327Z" fill="#FFD5BF"/>
<path d="M2.80167 1.34346C2.80167 1.34346 2.80167 1.38462 2.80167 1.44637C2.83255 1.95063 3.23047 4.10833 3.50833 4.15635C3.78619 4.20438 4.53744 3.91622 4.53744 3.62121C4.53744 3.3262 3.95427 0.924953 3.95427 0.924953C3.95427 0.924953 3.83764 0.547613 3.17902 0.581917C2.76394 0.561335 2.80167 1.34346 2.80167 1.34346Z" fill="#FFD5BF"/>
<path d="M3.99862 0.763351C3.99862 0.763351 3.99862 0.807946 3.99862 0.866262C4.0295 1.37052 4.42742 3.52822 4.70528 3.57625C4.98314 3.62427 5.73439 3.33612 5.73439 3.04111C5.73439 2.7461 5.15465 0.344848 5.15465 0.344848C5.15465 0.344848 5.03803 -0.0290614 4.37597 0.00181181C3.96432 -0.00504891 3.99862 0.763351 3.99862 0.763351Z" fill="#FFD5BF"/>
<path d="M2.06402 4.58429C1.92748 4.25441 1.83297 3.90866 1.78273 3.55518C1.69198 3.21258 1.64473 2.85991 1.64209 2.50549C1.77655 2.83584 1.86987 3.18147 1.91995 3.5346C2.01299 3.87683 2.06142 4.22965 2.06402 4.58429Z" fill="#EB996E"/>
<path d="M3.3401 4.37905C3.17188 3.89852 3.04787 3.40364 2.96962 2.90057C2.84319 2.40826 2.76281 1.90526 2.72949 1.39807C2.89917 1.87723 3.02434 2.371 3.1034 2.87313C3.22684 3.36708 3.30606 3.87105 3.3401 4.37905Z" fill="#EB996E"/>
<g opacity="0.78">
<path opacity="0.78" d="M4.61623 4.05325C4.44685 3.57283 4.32169 3.07795 4.24233 2.57476C4.12017 2.08158 4.03984 1.57896 4.0022 1.07227C4.17188 1.55142 4.29705 2.04519 4.37611 2.54732C4.50269 3.04076 4.58307 3.54491 4.61623 4.05325Z" fill="#EB996E"/>
</g>
<path d="M4.82539 6.98931L5.64867 5.37705C6.007 4.66975 6.07947 3.8517 5.85106 3.09243L5.67611 2.5127L1.46021 3.45947C1.46021 3.45947 2.08796 4.91052 3.20968 4.43027L2.14971 5.73723L4.82539 6.98931Z" fill="#FFD5BF"/>
<path d="M2.45175 5.95345C2.47233 5.95345 2.48262 5.74763 2.61983 5.42861C2.80909 4.98693 3.15308 4.62952 3.58719 4.42351L3.99884 4.23484L3.54603 4.26571L2.49634 4.33432H2.52035C2.29816 4.31814 2.08521 4.23884 1.90655 4.10575C1.72788 3.97267 1.59094 3.79133 1.51183 3.58307C1.50175 3.55045 1.49373 3.51722 1.48781 3.48359L1.40549 3.59336C2.60954 3.37725 3.69353 3.16457 4.46879 2.96561C4.85299 2.86956 5.15487 2.78037 5.37784 2.71176C5.49105 2.68575 5.59973 2.64297 5.7003 2.58484C5.2755 2.64369 4.85412 2.72499 4.43792 2.82839C3.65923 2.98962 2.57524 3.17143 1.37118 3.3944L1.27856 3.41156V3.50418C1.28484 3.55073 1.29517 3.59664 1.30944 3.64139C1.39061 3.90156 1.56058 4.12496 1.78968 4.27257C1.99653 4.40678 2.23109 4.49239 2.47576 4.52299H2.49977L3.54603 4.43037L3.50486 4.27257C3.04052 4.50257 2.68467 4.90521 2.51349 5.3943C2.44259 5.57164 2.42125 5.76492 2.45175 5.95345Z" fill="#EB996E"/>
<path d="M1.88567 4.04951C1.84451 4.04951 1.86852 4.26563 1.74846 4.53319C1.71909 4.60371 1.66882 4.66354 1.60443 4.70463C1.54003 4.74572 1.4646 4.7661 1.38827 4.76303C1.29392 4.73532 1.20848 4.68336 1.14046 4.61234C1.07245 4.54132 1.02424 4.45371 1.00064 4.35824C0.853133 3.89858 0.691908 3.47664 0.606149 3.17477C0.577576 3.00314 0.52684 2.83594 0.455213 2.67737C0.410925 2.85068 0.410925 3.03234 0.455213 3.20564C0.542201 3.62103 0.6568 4.03015 0.798249 4.43028C0.833348 4.55892 0.90363 4.67523 1.00119 4.76613C1.09876 4.85703 1.21974 4.91891 1.35054 4.94484C1.46211 4.95231 1.57303 4.92273 1.66607 4.8607C1.75911 4.79867 1.82907 4.70766 1.86509 4.6018C1.91009 4.4731 1.92534 4.33588 1.90969 4.20045C1.91312 4.09754 1.89939 4.04951 1.88567 4.04951Z" fill="#EB996E"/>
<path d="M14.9999 36.7412C15.1692 37.3922 15.1999 38.0715 15.09 38.7351C14.9801 39.3988 14.732 40.0319 14.3618 40.5935C14.6011 39.9812 14.7892 39.3501 14.9244 38.7068C15.001 38.0546 15.0262 37.3974 14.9999 36.7412Z" fill="#EB996E"/>
<path d="M16.0051 34.8127C15.9826 34.8078 15.9628 34.7943 15.95 34.7751C15.9372 34.7559 15.9324 34.7325 15.9365 34.7098C15.9406 34.6945 15.949 34.6807 15.9607 34.6701C15.9725 34.6595 15.987 34.6525 16.0026 34.6499C16.0182 34.6473 16.0343 34.6493 16.0488 34.6556C16.0633 34.6619 16.0757 34.6723 16.0845 34.6855C16.0933 34.6986 16.0981 34.7141 16.0983 34.7299C16.0985 34.7457 16.0942 34.7613 16.0858 34.7747C16.0775 34.7881 16.0654 34.7989 16.0511 34.8056C16.0367 34.8124 16.0208 34.8148 16.0051 34.8127Z" fill="#EB996E"/>
<path d="M28.1691 58.6781C29.2771 59.5631 29.8843 61.5322 31.0506 62.2971C32.2169 63.0621 33.4793 63.6007 34.6387 64.3553C36.4425 65.5389 37.9028 67.1764 38.8729 69.1034C39.8429 71.0303 40.2886 73.1787 40.165 75.3325C40.1804 75.7833 40.0248 76.2232 39.7294 76.564C39.4254 76.793 39.0598 76.9256 38.6797 76.9448L31.5617 78.0185C30.0912 74.0141 28.6207 70.012 27.1503 66.0122" fill="#FF678E"/>
<path d="M31.3937 40.0752C31.3824 40.0731 31.3715 40.0688 31.3619 40.0625C31.3522 40.0561 31.3439 40.0479 31.3375 40.0383C31.3311 40.0287 31.3267 40.0179 31.3246 40.0065C31.3225 39.9952 31.3226 39.9835 31.3251 39.9722C31.326 39.9606 31.3292 39.9493 31.3345 39.939C31.3399 39.9287 31.3473 39.9196 31.3562 39.9122C31.3652 39.9048 31.3756 39.8993 31.3868 39.8961C31.3979 39.8929 31.4096 39.8919 31.4212 39.8933C31.4437 39.8983 31.4634 39.9118 31.4762 39.931C31.489 39.9502 31.4939 39.9736 31.4898 39.9963C31.4872 40.0193 31.4757 40.0405 31.4578 40.0552C31.4398 40.0699 31.4169 40.0771 31.3937 40.0752Z" fill="#EB996E"/>
<path d="M24.3613 38.329C24.3381 38.3248 24.3176 38.3116 24.3041 38.2923C24.2906 38.2731 24.2853 38.2492 24.2893 38.226C24.2905 38.2143 24.2941 38.2029 24.2998 38.1926C24.3055 38.1822 24.3133 38.1731 24.3225 38.1658C24.3318 38.1585 24.3424 38.153 24.3538 38.1498C24.3651 38.1466 24.377 38.1457 24.3887 38.1471C24.4113 38.1521 24.431 38.1656 24.4438 38.1848C24.4566 38.204 24.4614 38.2274 24.4573 38.25C24.4548 38.2731 24.4433 38.2943 24.4253 38.309C24.4074 38.3237 24.3844 38.3309 24.3613 38.329Z" fill="#EB996E"/>
<path d="M12.9177 53.1453C14.1458 54.2293 15.3979 55.3339 16.9072 55.9719C18.1593 56.5002 19.5246 56.682 20.8693 56.8535C22.214 57.025 23.4969 57.1965 24.8108 57.3132C25.6294 57.4473 26.4669 57.4099 27.2703 57.2034C28.0593 56.9427 28.9855 56.6202 29.0233 55.7935C29.061 54.9668 28.2308 53.8485 27.5619 53.3065C25.5642 51.7115 23.0277 50.9496 20.4817 51.1797" fill="#FF80A1"/>
<path d="M26.7798 57.7517L30.6184 50.644C31.2583 49.4808 31.7988 48.2655 32.2341 47.0113C32.7966 45.3853 33.9767 43.3202 34.1516 42.4558C34.6147 40.178 34.0384 35.4818 19.9534 35.204L17.7065 35.2692L14.8867 43.159C14.8867 43.159 13.8988 45.8415 13.9022 46.8432C13.9022 48.6647 16.2212 50.5583 14.6741 55.8239L26.7798 57.7517Z" fill="#FFD5BF"/>
<path d="M31.126 49.6665L28.9477 56.1841C26.7711 54.6102 24.1337 53.8031 21.449 53.8892L19.504 53.9544C18.7535 53.9774 18.0026 53.9315 17.2605 53.8172L12.9314 53.1311C13.7135 51.7864 13.566 48.3286 13.5935 47.3235C13.6694 45.8415 14.1139 44.4019 14.8867 43.1351L17.7065 35.2452H18.2485L15.9707 42.449C15.9707 42.449 18.1215 46.9839 21.6068 46.9393C25.092 46.8947 28.6973 44.37 28.6973 44.37L31.0711 37.1662L31.5274 37.4098C31.5274 37.4098 29.4692 46.3459 29.4074 48.2772C29.3457 50.2085 31.1226 49.6493 31.1226 49.6493" fill="#FFB3C7"/>
<path d="M13.5626 48.1537C13.6163 48.3516 13.7361 48.5252 13.9021 48.6456C14.0681 48.766 14.2703 48.8261 14.4751 48.8158C14.7083 48.7952 14.9484 48.682 15.1611 48.7609C15.4527 48.8672 15.5934 49.272 15.9021 49.2892C16.3137 49.3166 16.5127 48.6237 16.9312 48.6683C17.1267 48.6923 17.2742 48.8878 17.4732 48.8947C17.7373 48.8947 17.8814 48.61 18.0495 48.411C18.148 48.2875 18.2825 48.1978 18.4343 48.1542C18.5861 48.1105 18.7477 48.1152 18.8968 48.1674C18.9664 48.2004 19.0275 48.2488 19.0754 48.309C19.1234 48.3692 19.1569 48.4396 19.1735 48.5147C19.19 48.5899 19.1892 48.6679 19.1709 48.7426C19.1527 48.8174 19.1176 48.887 19.0683 48.9461C18.7904 49.2 18.2416 49.0113 18.0392 49.3269C17.9123 49.5259 18.0049 49.8209 17.8574 50.013C17.7902 50.0761 17.7076 50.1204 17.6179 50.1415C17.5282 50.1626 17.4345 50.1597 17.3463 50.133C17.1706 50.0811 16.9868 50.0625 16.8043 50.0782C16.5333 50.1365 16.3652 50.3972 16.2005 50.6167C16.0359 50.8363 15.782 51.0627 15.5145 50.9906C15.3515 50.9224 15.2095 50.8124 15.1028 50.6716C15.0497 50.6007 14.978 50.5459 14.8957 50.5132C14.8133 50.4805 14.7236 50.4712 14.6363 50.4864C14.4991 50.531 14.4133 50.6819 14.2727 50.7299C14.2058 50.7459 14.1359 50.7431 14.0706 50.7219C14.0052 50.7008 13.947 50.662 13.9022 50.6099C13.8158 50.5029 13.7527 50.379 13.717 50.2462C13.501 49.5747 13.4217 48.8667 13.4837 48.164" fill="#FAFAFA"/>
<path d="M24.1041 49.6147C24.0627 49.5414 23.9958 49.4858 23.9161 49.4586C23.8364 49.4314 23.7494 49.4344 23.6719 49.4672C23.5203 49.5431 23.3887 49.6535 23.2876 49.7897C23.1898 49.9294 23.0506 50.0349 22.8897 50.0915C22.5467 50.1876 22.1316 49.8445 21.816 50.0332C21.5004 50.2219 21.5828 50.637 21.3461 50.8531C21.1094 51.0692 20.7869 50.9766 20.4919 51.0143C20.3483 51.0248 20.2103 51.0749 20.0934 51.1591C19.9765 51.2432 19.8853 51.3582 19.8298 51.4911C19.8063 51.5581 19.7972 51.6294 19.8031 51.7001C19.8091 51.7709 19.8299 51.8397 19.8642 51.9018C19.8985 51.964 19.9456 52.0183 20.0023 52.061C20.0591 52.1037 20.1242 52.1339 20.1935 52.1497C20.4988 52.1875 20.7492 51.8856 21.0579 51.8616C21.5587 51.8239 21.9327 52.5202 22.4301 52.3933C22.5423 52.3508 22.6423 52.2813 22.7212 52.1909C22.8002 52.1006 22.8557 51.9922 22.8829 51.8753C22.932 51.6392 23.0068 51.4091 23.1058 51.1892C23.1582 51.0814 23.2462 50.9948 23.3549 50.9442C23.4636 50.8936 23.5865 50.882 23.7027 50.9114C23.8365 50.9663 23.9291 51.0966 24.0458 51.1344C24.3168 51.2133 24.5329 50.9182 24.7936 50.8153C24.9188 50.765 25.0578 50.761 25.1857 50.8042C25.3135 50.8473 25.4217 50.9347 25.4909 51.0506C25.56 51.1664 25.5854 51.3032 25.5626 51.4362C25.5398 51.5692 25.4702 51.6896 25.3664 51.7758C25.291 51.8376 25.1984 51.889 25.1675 51.9817C25.0611 52.2938 25.785 52.4207 25.682 52.7329C25.5791 53.0451 24.9239 52.7329 24.821 53.0348C24.7387 53.2818 25.1915 53.5322 25.0268 53.738C24.9411 53.8478 24.7696 53.7963 24.6323 53.7689C24.4951 53.7414 24.2893 53.8169 24.3373 53.9507C24.3511 53.9788 24.3704 54.0038 24.3939 54.0245C24.4175 54.0451 24.4449 54.0608 24.4746 54.0707L25.3836 54.5064C25.5904 54.6315 25.8279 54.6968 26.0697 54.6951C26.3132 54.6711 26.5533 54.4549 26.5088 54.2148C26.4642 53.9747 26.1863 53.8409 26.1657 53.6076C26.1451 53.3744 26.3235 53.2132 26.5088 53.1C26.7085 53.0162 26.8792 52.8754 26.9993 52.6952C27.0376 52.5637 27.0429 52.4248 27.0148 52.2908C26.9867 52.1568 26.926 52.0318 26.8381 51.9268C26.6597 51.7178 26.5591 51.4536 26.5534 51.179C26.5911 50.8737 26.8964 50.6129 26.8141 50.3145C26.7557 50.0675 26.471 49.944 26.2275 49.8994C25.9728 49.8926 25.7239 49.8218 25.5037 49.6936C25.4042 49.6113 25.3321 49.4981 25.2292 49.4192C24.8862 49.1688 24.4197 49.3883 24.0663 49.6078" fill="#FAFAFA"/>
<path d="M26.3405 45.7081C26.351 45.9371 26.3429 46.1665 26.3165 46.3942C26.2753 46.6172 26.3165 46.9053 26.5189 46.9945C26.639 47.0425 26.783 46.9945 26.9065 47.0528C27.1775 47.1454 27.1947 47.5125 27.325 47.7698C27.3791 47.866 27.4529 47.9498 27.5415 48.0156C27.6302 48.0815 27.7317 48.1279 27.8395 48.1518C27.9473 48.1758 28.0589 48.1768 28.1671 48.1547C28.2753 48.1326 28.3776 48.0879 28.4673 48.0236C28.528 47.9788 28.5786 47.9218 28.6158 47.8562C28.6531 47.7906 28.6761 47.7179 28.6835 47.6428C28.6874 47.568 28.6667 47.494 28.6246 47.4321C28.5824 47.3701 28.5212 47.3237 28.4502 47.2998C28.289 47.2586 28.1072 47.3581 27.9665 47.2621C27.7573 47.1111 27.9905 46.7441 27.8465 46.528C27.7755 46.4532 27.6919 46.3917 27.5995 46.3462C27.4951 46.2577 27.418 46.1414 27.3773 46.0108C27.3366 45.8802 27.334 45.7407 27.3696 45.6086C27.4582 45.3697 27.5948 45.1513 27.771 44.9672C27.771 44.9672 26.4503 45.6601 26.3405 45.7081Z" fill="#FAFAFA"/>
<path d="M29.7608 53.6356C29.5344 53.543 29.2702 53.4023 29.2496 53.1588C29.2496 52.9701 29.3766 52.7986 29.3594 52.6099C29.3251 52.2189 28.6733 52.1125 28.6459 51.718C28.6459 51.5328 28.7797 51.375 28.7762 51.1829C28.7728 50.9908 28.5464 50.7747 28.5396 50.5448C28.5459 50.4539 28.5882 50.3691 28.657 50.3093C28.7258 50.2495 28.8156 50.2194 28.9066 50.2258C28.9976 50.2322 29.0823 50.2744 29.1421 50.3433C29.202 50.4121 29.232 50.5019 29.2256 50.5929C29.205 50.7301 29.0987 50.8604 29.1399 50.9942C29.181 51.128 29.4829 51.2103 29.5241 51.399C29.5652 51.5877 29.404 51.6871 29.4555 51.8244C29.4836 51.8717 29.5259 51.9091 29.5763 51.9312C29.6267 51.9533 29.6828 51.9592 29.7367 51.9479C29.8433 51.9207 29.9527 51.9069 30.0626 51.9067C30.1724 51.9067 30.2822 52.0233 30.2444 52.1297" fill="#FAFAFA"/>
<path d="M14.3687 44.1268C14.5669 44.2862 14.7038 44.5092 14.7563 44.758C14.8084 45.0045 14.895 45.2424 15.0136 45.4647C15.0748 45.5752 15.1685 45.6641 15.2821 45.7193C15.3957 45.7746 15.5235 45.7935 15.6482 45.7734C15.8025 45.7323 15.9569 45.5985 16.1078 45.6568C16.2588 45.7151 16.2862 45.9415 16.3274 46.113C16.3661 46.2654 16.4489 46.403 16.5655 46.5086C16.682 46.6141 16.8271 46.683 16.9826 46.7065C17.139 46.7218 17.296 46.685 17.4294 46.6019C17.5628 46.5188 17.665 46.3939 17.7201 46.2468C17.7668 46.0984 17.7578 45.9381 17.6946 45.796C17.6314 45.6539 17.5185 45.5397 17.3771 45.475C17.1815 45.3995 16.9449 45.4269 16.7836 45.2966C16.6224 45.1662 16.5915 44.8781 16.5641 44.6448C16.5366 44.4116 16.4029 44.1303 16.1662 44.1303C16.053 44.1303 15.95 44.2023 15.8231 44.216C15.5418 44.2469 15.3429 43.9176 15.36 43.6363C15.4132 43.3591 15.4831 43.0853 15.5693 42.8164C15.6207 42.542 15.5247 42.1887 15.2537 42.1304" fill="#FAFAFA"/>
<path d="M16.2933 39.0876C16.3533 39.1743 16.4325 39.2461 16.5247 39.2972C16.6169 39.3484 16.7197 39.3776 16.825 39.3826C16.9485 39.067 17.072 38.748 17.192 38.4324C17.2279 38.3546 17.2488 38.2709 17.2538 38.1854C17.2518 38.138 17.2387 38.0917 17.2154 38.0504C17.1922 38.009 17.1596 37.9737 17.1201 37.9473C17.0807 37.9209 17.0356 37.9041 16.9885 37.8984C16.9414 37.8927 16.8936 37.8982 16.849 37.9144C16.761 37.9734 16.6938 38.0586 16.6569 38.158C16.499 38.4827 16.3593 38.816 16.2384 39.1562" fill="#FAFAFA"/>
<path d="M19.2192 55.4881C19.178 55.4641 19.1746 55.3989 19.2192 55.3406C19.2638 55.2823 19.3152 55.2583 19.353 55.2823C19.3907 55.3063 19.3976 55.3715 19.353 55.4298C19.3084 55.4881 19.2569 55.5121 19.2192 55.4881Z" fill="#EB996E"/>
<path d="M58.5725 11.4284L53.2897 10.3993C53.0976 10.612 52.5007 12.4575 52.1954 13.4009L52.144 13.3666L43.5681 28.3263L31.5104 37.5883L32.4709 45.9927L47.6159 34.1785C48.015 33.8663 48.325 33.4546 48.5147 32.9848L56.3393 16.0971L56.3119 16.08L56.6103 15.514C56.6686 15.3973 58.5725 11.4284 58.5725 11.4284Z" fill="#FFD5BF"/>
<path d="M58.49 11.7676C58.49 11.7676 58.49 11.8122 58.466 11.8705C58.2876 12.3405 57.2791 14.2718 56.9978 14.2512C56.7165 14.2306 56.0887 13.7229 56.1711 13.4416C56.2534 13.1603 57.5192 11.0404 57.5192 11.0404C57.5192 11.0404 57.7387 10.7179 58.3665 10.9272C58.7541 11.0438 58.49 11.7676 58.49 11.7676Z" fill="#FFD5BF"/>
<path d="M57.6702 10.4746C57.6689 10.5095 57.6595 10.5435 57.6427 10.5741C57.4678 11.0475 56.4558 12.9753 56.1746 12.9753C55.8933 12.9753 55.2655 12.4436 55.3478 12.1623C55.4302 11.881 56.696 9.76109 56.696 9.76109C56.696 9.76109 56.9155 9.43863 57.5433 9.64789C57.9309 9.7508 57.6702 10.4746 57.6702 10.4746Z" fill="#FFD5BF"/>
<path d="M56.6959 9.54507C56.6949 9.58103 56.6855 9.61626 56.6685 9.64798C56.4936 10.1214 55.4816 12.0492 55.2003 12.0287C54.919 12.0081 54.2913 11.5004 54.3736 11.2191C54.4559 10.9378 55.7217 8.81784 55.7217 8.81784C55.7217 8.81784 55.9413 8.49195 56.569 8.70121C56.9566 8.82127 56.6959 9.54507 56.6959 9.54507Z" fill="#FFD5BF"/>
<path d="M55.7183 8.64326C55.7147 8.6777 55.7054 8.71131 55.6908 8.74274C55.5125 9.21613 54.5039 11.144 54.2226 11.1268C53.9414 11.1097 53.3136 10.5951 53.3959 10.3138C53.4783 10.0326 54.7441 7.9126 54.7441 7.9126C54.7441 7.9126 54.9636 7.59014 55.5914 7.79596C55.979 7.91946 55.7183 8.64326 55.7183 8.64326Z" fill="#FFD5BF"/>
<path d="M56.449 12.862C56.6774 12.5861 56.8688 12.2817 57.0184 11.9564C57.2086 11.6576 57.3575 11.3345 57.4609 10.9958C57.2348 11.2746 57.0436 11.5798 56.8915 11.9049C56.7044 12.2041 56.5557 12.5256 56.449 12.862Z" fill="#EB996E"/>
<path d="M55.2896 12.2892C55.5934 11.8813 55.8587 11.4461 56.082 10.9891C56.3444 10.552 56.5682 10.0929 56.7509 9.61694C56.4486 10.0271 56.1834 10.4633 55.9585 10.9205C55.6965 11.3566 55.4726 11.8145 55.2896 12.2892Z" fill="#EB996E"/>
<g opacity="0.78">
<path opacity="0.78" d="M54.1643 11.603C54.4682 11.1952 54.7334 10.7599 54.9567 10.3029C55.2206 9.86719 55.4434 9.40783 55.6222 8.93079C55.3231 9.34241 55.0592 9.77846 54.8332 10.2343C54.572 10.6708 54.3482 11.1287 54.1643 11.603Z" fill="#EB996E"/>
</g>
<path d="M53.1043 14.3546L52.7888 12.5674C52.6536 11.7877 52.8231 10.9858 53.2621 10.3274L53.6052 9.82312L57.358 11.9602C57.358 11.9602 56.3289 13.1677 55.4027 12.3787L56.0304 13.9396L53.1043 14.3546Z" fill="#FFD5BF"/>
<path d="M55.6804 14.0564C55.6564 14.0564 55.7078 13.854 55.6804 13.5076C55.631 13.0288 55.4062 12.5852 55.0492 12.2623L54.7062 11.9605L55.1315 12.1217L56.116 12.4956H56.0954C56.3124 12.5447 56.5389 12.5311 56.7484 12.4564C56.958 12.3817 57.142 12.249 57.2789 12.0737C57.2984 12.0454 57.3156 12.0155 57.3304 11.9845L57.375 12.1148C56.2876 11.5557 55.3168 11.0343 54.6307 10.6192C54.2877 10.4099 54.0201 10.235 53.8383 10.1081C53.7371 10.0506 53.6447 9.97902 53.5638 9.89539C53.9558 10.0712 54.3362 10.2717 54.7027 10.4957C55.3888 10.8799 56.3802 11.3773 57.4676 11.933L57.5534 11.9776L57.5156 12.0634C57.4955 12.106 57.4726 12.1473 57.447 12.1869C57.2908 12.4099 57.0634 12.5732 56.8021 12.65C56.5632 12.7171 56.3121 12.7289 56.068 12.6843H56.0474L55.0732 12.2898L55.159 12.1491C55.5374 12.5074 55.7593 13.0004 55.7764 13.5213C55.7901 13.7049 55.757 13.889 55.6804 14.0564Z" fill="#EB996E"/>
<path d="M56.7781 12.4024C56.8158 12.4024 56.73 12.6151 56.7781 12.9033C56.7827 12.9828 56.8125 13.0589 56.863 13.1205C56.9135 13.1821 56.9823 13.2262 57.0594 13.2463C57.1575 13.2473 57.2542 13.2225 57.3397 13.1743C57.4252 13.1262 57.4965 13.0563 57.5465 12.9719C57.8209 12.5774 58.0988 12.2206 58.2703 11.9599C58.4418 11.6992 58.531 11.514 58.5584 11.5277C58.5859 11.5414 58.5379 11.7369 58.3938 12.0285C58.1889 12.3989 57.9597 12.7553 57.7077 13.0954C57.6379 13.2119 57.5362 13.3061 57.4147 13.3669C57.2932 13.4277 57.1568 13.4525 57.0216 13.4384C56.9031 13.4124 56.7978 13.3449 56.7249 13.2479C56.6519 13.151 56.616 13.0312 56.6237 12.9101C56.6178 12.7745 56.6436 12.6395 56.6992 12.5156C56.7369 12.4402 56.7644 12.399 56.7781 12.4024Z" fill="#EB996E"/>
<path d="M33.1156 40.5868C33.0131 40.7506 32.8984 40.9066 32.7726 41.0533C32.2397 41.8074 31.9829 42.722 32.0454 43.6432C32.0753 43.834 32.0925 44.0265 32.0968 44.2195C31.9996 44.0469 31.9422 43.8547 31.9287 43.657C31.8627 43.1833 31.8953 42.701 32.0246 42.2406C32.1539 41.7801 32.377 41.3514 32.68 40.9813C32.7942 40.8192 32.943 40.6845 33.1156 40.5868Z" fill="#EB996E"/>
<path d="M32.7039 38.0963C32.6808 38.0921 32.6602 38.0789 32.6467 38.0597C32.6332 38.0404 32.6279 38.0166 32.6319 37.9934C32.6332 37.9816 32.6368 37.9703 32.6425 37.9599C32.6482 37.9496 32.6559 37.9405 32.6652 37.9331C32.6744 37.9258 32.685 37.9204 32.6964 37.9172C32.7078 37.914 32.7197 37.913 32.7314 37.9145C32.7532 37.9205 32.772 37.9344 32.7843 37.9534C32.7966 37.9723 32.8015 37.9952 32.7981 38.0175C32.7948 38.0399 32.7833 38.0602 32.766 38.0748C32.7486 38.0893 32.7266 38.0969 32.7039 38.0963Z" fill="#EB996E"/>
<path d="M21.1884 47.0591C21.1404 47.0591 21.2467 46.5652 21.1884 45.9751C21.1301 45.3851 20.9208 44.946 20.9654 44.9152C21.2027 45.2074 21.3398 45.5682 21.3565 45.9443C21.423 46.3243 21.364 46.7156 21.1884 47.0591Z" fill="#EB996E"/>
<path d="M19.5384 36.3083C19.527 36.3063 19.5162 36.302 19.5065 36.2957C19.4969 36.2893 19.4886 36.2811 19.4822 36.2715C19.4758 36.2619 19.4714 36.2511 19.4692 36.2397C19.4671 36.2284 19.4673 36.2167 19.4698 36.2054C19.4724 36.1824 19.4839 36.1612 19.5018 36.1465C19.5197 36.1318 19.5427 36.1246 19.5658 36.1265C19.5884 36.1315 19.6081 36.145 19.6209 36.1642C19.6337 36.1834 19.6385 36.2067 19.6345 36.2294C19.6336 36.241 19.6304 36.2523 19.6251 36.2627C19.6197 36.273 19.6123 36.2821 19.6034 36.2895C19.5944 36.2969 19.584 36.3024 19.5728 36.3056C19.5616 36.3088 19.5499 36.3098 19.5384 36.3083Z" fill="#EB996E"/>
<path d="M21.0339 40.6684C21.0223 40.6669 21.0112 40.6629 21.0013 40.6567C20.9913 40.6505 20.9828 40.6423 20.9764 40.6325C20.9699 40.6228 20.9655 40.6118 20.9636 40.6002C20.9617 40.5887 20.9623 40.5768 20.9653 40.5655C20.9679 40.5425 20.9794 40.5213 20.9973 40.5066C21.0153 40.4919 21.0383 40.4847 21.0614 40.4866C21.0839 40.4916 21.1036 40.5051 21.1164 40.5243C21.1292 40.5435 21.1341 40.5669 21.13 40.5895C21.1291 40.6011 21.126 40.6124 21.1206 40.6228C21.1153 40.6331 21.1079 40.6422 21.0989 40.6496C21.0899 40.657 21.0795 40.6625 21.0683 40.6657C21.0572 40.6689 21.0455 40.6699 21.0339 40.6684Z" fill="#EB996E"/>
<path d="M21.8779 42.5591C21.8547 42.5549 21.8342 42.5418 21.8207 42.5225C21.8072 42.5032 21.8019 42.4794 21.8059 42.4562C21.8094 42.4399 21.8175 42.4249 21.8294 42.4132C21.8413 42.4015 21.8563 42.3934 21.8727 42.3901C21.8891 42.3868 21.906 42.3884 21.9215 42.3945C21.937 42.4007 21.9504 42.4113 21.96 42.425C21.9695 42.4387 21.9749 42.4549 21.9754 42.4715C21.9759 42.4882 21.9716 42.5047 21.9629 42.519C21.9541 42.5332 21.9415 42.5446 21.9264 42.5517C21.9113 42.5588 21.8944 42.5614 21.8779 42.5591Z" fill="#EB996E"/>
<path d="M20.6874 37.0496C20.6649 37.0447 20.6452 37.0312 20.6324 37.012C20.6196 36.9928 20.6148 36.9694 20.6188 36.9467C20.6197 36.9351 20.6229 36.9238 20.6282 36.9135C20.6336 36.9032 20.641 36.8941 20.6499 36.8867C20.6589 36.8793 20.6693 36.8738 20.6805 36.8706C20.6916 36.8673 20.7034 36.8664 20.7149 36.8678C20.7374 36.8728 20.7571 36.8863 20.7699 36.9055C20.7827 36.9247 20.7876 36.9481 20.7835 36.9707C20.7809 36.9938 20.7694 37.015 20.7515 37.0297C20.7336 37.0444 20.7106 37.0516 20.6874 37.0496Z" fill="#EB996E"/>
<path d="M18.1696 37.8144C18.1518 37.8128 18.1348 37.8059 18.121 37.7946C18.1072 37.7833 18.097 37.7681 18.092 37.7509C18.0869 37.7338 18.087 37.7155 18.0925 37.6985C18.0979 37.6815 18.1083 37.6665 18.1223 37.6554C18.1364 37.6444 18.1534 37.6378 18.1713 37.6366C18.1891 37.6353 18.2069 37.6395 18.2224 37.6485C18.2378 37.6575 18.2502 37.6709 18.2579 37.687C18.2656 37.7032 18.2683 37.7212 18.2656 37.7389C18.2622 37.7614 18.2504 37.7817 18.2326 37.7957C18.2147 37.8097 18.1922 37.8164 18.1696 37.8144Z" fill="#EB996E"/>
<path d="M19.6 38.123C19.5782 38.1169 19.5594 38.1031 19.5471 38.0841C19.5348 38.0651 19.5299 38.0423 19.5333 38.02C19.5366 37.9976 19.5481 37.9772 19.5654 37.9627C19.5828 37.9482 19.6048 37.9406 19.6274 37.9412C19.65 37.9462 19.6697 37.9596 19.6825 37.9788C19.6953 37.998 19.7001 38.0214 19.6961 38.0441C19.6952 38.0557 19.692 38.067 19.6867 38.0773C19.6813 38.0877 19.6739 38.0968 19.665 38.1042C19.656 38.1115 19.6456 38.117 19.6344 38.1203C19.6232 38.1235 19.6115 38.1244 19.6 38.123Z" fill="#EB996E"/>
<path d="M28.3782 50.6206C28.3235 50.7095 28.2552 50.7894 28.1758 50.8573C27.9736 51.0529 27.753 51.2286 27.5172 51.3821C26.7333 51.9015 25.8193 52.1904 24.8793 52.2159C23.9393 52.2413 23.011 52.0024 22.2001 51.5262C21.9565 51.3846 21.7268 51.2204 21.5141 51.0356C21.4324 50.9724 21.3607 50.8973 21.3014 50.8127C21.322 50.7887 21.6444 51.094 22.2585 51.4198C23.0605 51.8553 23.963 52.0719 24.8753 52.0478C25.7876 52.0237 26.6775 51.7598 27.4555 51.2826C28.0523 50.919 28.3542 50.6 28.3782 50.6206Z" fill="#263238"/>
<path d="M34.8719 103.694L42.0483 103.389C42.0483 103.389 44.7685 110.593 46.0995 110.651L46.0069 96.7206L34.8068 96.7377L34.8719 103.694Z" fill="#FFB3C7"/>
<g opacity="0.6">
<path opacity="0.6" d="M41.4171 99.0741C41.4551 98.9357 41.5443 98.8169 41.6666 98.7418C41.7888 98.6666 41.9351 98.6407 42.0757 98.6693C42.2112 98.7036 42.3283 98.7885 42.403 98.9066C42.4777 99.0246 42.5042 99.1669 42.4771 99.3039C42.4347 99.4462 42.3411 99.5676 42.2144 99.6449C42.0877 99.7222 41.9369 99.7498 41.791 99.7224C41.6533 99.6712 41.5406 99.5687 41.4767 99.4364C41.4128 99.304 41.4025 99.1521 41.448 99.0124" fill="white"/>
</g>
<g opacity="0.6">
<path opacity="0.6" d="M46.007 96.7109H44.8921L45.3895 110.089C45.3895 110.089 45.6639 110.707 46.0996 110.635L46.007 96.7109Z" fill="white"/>
</g>
<path d="M41.9796 103.605C42.0483 103.605 42.0757 103.262 42.2918 102.919C42.5079 102.576 42.7926 102.401 42.7652 102.339C42.7378 102.278 42.3467 102.381 42.0791 102.792C41.8116 103.204 41.9179 103.619 41.9796 103.605Z" fill="#263238"/>
<path d="M42.5936 105.063C42.6588 105.063 42.772 104.782 43.0601 104.549C43.3483 104.315 43.6502 104.247 43.6467 104.178C43.6433 104.11 43.2591 104.072 42.9058 104.367C42.5525 104.662 42.5284 105.06 42.5936 105.063Z" fill="#263238"/>
<path d="M44.3467 105.873C44.3638 105.811 44.0208 105.719 43.6606 105.897C43.3004 106.075 43.1426 106.394 43.2009 106.422C43.2592 106.449 43.4548 106.25 43.7601 106.11C44.0654 105.969 44.3432 105.948 44.3467 105.873Z" fill="#263238"/>
<path d="M40.3368 103.492C40.3985 103.465 40.3025 103.149 40.3368 102.769C40.3711 102.388 40.4808 102.082 40.4225 102.048C40.3642 102.014 40.1207 102.302 40.1001 102.758C40.0795 103.214 40.2853 103.527 40.3368 103.492Z" fill="#263238"/>
<path d="M38.889 103.53C38.9497 103.305 38.9497 103.069 38.889 102.844C38.8165 102.444 38.6662 102.061 38.4464 101.719C38.4032 101.64 38.3476 101.568 38.2818 101.506C38.2325 101.463 38.1702 101.436 38.1046 101.431C38.0389 101.426 37.9735 101.443 37.9182 101.479C37.8713 101.513 37.833 101.558 37.8063 101.61C37.7795 101.662 37.765 101.719 37.7638 101.777C37.7659 101.865 37.7786 101.953 37.8015 102.038C37.84 102.187 37.8916 102.333 37.9559 102.473C38.0626 102.708 38.2062 102.923 38.3813 103.112C38.6831 103.434 38.937 103.544 38.9507 103.52C38.9644 103.496 38.7586 103.331 38.5082 103.005C38.3682 102.813 38.2529 102.605 38.1652 102.384C38.1126 102.255 38.0702 102.122 38.0382 101.986C38.0005 101.839 37.9971 101.712 38.0622 101.674C38.1274 101.636 38.0965 101.657 38.1411 101.674C38.1877 101.72 38.228 101.772 38.2612 101.829C38.339 101.947 38.41 102.069 38.4739 102.196C38.5833 102.415 38.6717 102.645 38.738 102.882C38.7729 103.101 38.8234 103.318 38.889 103.53Z" fill="#263238"/>
<path d="M38.9885 103.441C38.7856 103.307 38.5448 103.244 38.3024 103.259C38.0445 103.248 37.7866 103.283 37.5409 103.362C37.3944 103.407 37.253 103.467 37.1189 103.54C37.0279 103.58 36.9486 103.641 36.8885 103.72C36.8284 103.799 36.7896 103.892 36.7759 103.99C36.7775 104.051 36.7967 104.111 36.8314 104.163C36.8661 104.214 36.9147 104.254 36.9714 104.278C37.0537 104.313 37.1402 104.337 37.2287 104.35C37.3845 104.372 37.5428 104.372 37.6986 104.35C37.9593 104.309 38.2057 104.205 38.4156 104.045C38.7758 103.77 38.8547 103.486 38.8341 103.482C38.8135 103.479 38.6694 103.698 38.323 103.907C38.1229 104.028 37.8997 104.105 37.6678 104.134C37.5346 104.153 37.3996 104.153 37.2664 104.134C37.1189 104.113 36.9989 104.058 37.0126 104.003C37.0263 103.949 37.1223 103.815 37.239 103.757C37.3589 103.686 37.4853 103.628 37.6163 103.582C37.8371 103.502 38.0682 103.455 38.3024 103.441C38.7209 103.407 38.9885 103.472 38.9885 103.441Z" fill="#263238"/>
<path d="M4.80829 87.4249C4.19426 87.9634 3.66941 90.4161 4.15309 91.0748C4.63677 91.7334 5.4189 92.1039 6.18044 92.4298C9.19915 93.6956 12.5815 94.488 15.7546 93.7024C18.4234 93.0404 20.78 91.3012 23.514 91.037C25.977 90.7935 28.3783 91.7643 30.8173 92.1965C32.138 92.4332 33.5444 92.5018 34.7793 91.9941C36.2887 91.3766 37.3555 89.9565 37.8186 88.4128C38.095 87.4688 38.1746 86.4782 38.0525 85.5022C37.9303 84.5262 37.6091 83.5857 37.1085 82.739C36.5931 81.8907 35.9119 81.1552 35.1055 80.5764C34.2992 79.9976 33.3844 79.5874 32.4158 79.3704C30.7006 78.9965 28.9477 79.2366 27.2257 79.4767C23.4523 80.005 19.6789 80.5367 16.0118 81.583C12.3448 82.6292 8.53366 83.2981 5.63501 85.7268" fill="#24263B"/>
<path d="M12.0258 68.4819L2.42083 95.3176C1.98949 96.5226 1.89701 97.8228 2.15347 99.0766C2.40993 100.33 3.00549 101.49 3.87531 102.429C4.57139 103.179 5.42356 103.768 6.37183 104.154C7.3201 104.54 8.34142 104.713 9.36388 104.662L36.5598 102.858L36.6764 98.0859L12.7668 95.0226L21.401 73.9396L12.0258 68.4819Z" fill="#FFD5BF"/>
<path d="M26.7797 57.7519C33.3283 64.7841 37.1222 77.7234 38.0759 85.7162C36.2818 82.8896 33.5341 78.7354 29.644 80.7696C25.4076 82.9856 26.0079 87.9734 21.37 89.0985C19.2569 89.6131 16.8248 89.5273 15.0513 88.2615C13.6552 87.2633 12.5883 85.7951 10.7085 85.4383C7.12032 84.7522 5.6384 86.2239 4.05701 88.752L14.8523 55.0316L26.7797 57.7519Z" fill="#24263B"/>
<path d="M12.7907 95.1427C12.254 95.3499 11.7354 95.6012 11.2402 95.8939C10.7746 96.2327 10.3375 96.609 9.93323 97.0191C10.2172 96.496 10.6366 96.0588 11.1476 95.7533C11.6292 95.4034 12.1975 95.1922 12.7907 95.1427Z" fill="#EB996E"/>
<path d="M34.1584 20.196C33.9903 20.9507 34.3916 21.7088 34.8136 22.3537C35.2355 22.9986 35.7089 23.6813 35.7055 24.4566C35.7055 25.8287 34.1995 26.8578 34.2716 28.2299C34.3093 28.964 34.8067 29.6227 34.8033 30.3533C34.7999 31.084 34.3265 31.6877 33.7742 32.1474C33.2219 32.6071 32.6044 32.9638 32.1105 33.475C31.6311 34.049 31.2051 34.6656 30.8378 35.3171C30.4692 35.9738 29.8991 36.4946 29.2118 36.8024C28.1553 37.1866 26.8106 36.7338 25.9495 37.4405C25.0885 38.1471 25.1194 39.6119 24.1383 40.0784" fill="#263238"/>
<path d="M22.2722 19.6099C22.3545 18.9238 23.0749 18.4778 23.7576 18.32C24.4402 18.1622 25.1674 18.176 25.8158 17.8741C26.3749 17.61 26.7968 17.1263 27.2908 16.7558C27.9016 16.2982 28.6232 16.0113 29.3815 15.9246C30.1398 15.8379 30.9075 15.9545 31.6059 16.2625C32.3042 16.5704 32.9081 17.0587 33.3554 17.6771C33.8028 18.2954 34.0775 19.0217 34.1515 19.7814C34.251 20.8105 33.9114 21.9391 33.0367 22.4776C32.0076 23.102 30.7109 22.7349 29.6063 22.3233C28.5017 21.9116 27.2051 21.4863 26.1519 22.0214C25.5105 22.3438 25.0782 22.9579 24.6323 23.5205C24.1863 24.083 23.6444 24.6422 22.9377 24.7725C22.231 24.9029 21.3803 24.3678 21.4592 23.6542" fill="#263238"/>
<path d="M24.9755 20.1588C24.682 20.1481 24.395 20.2478 24.1714 20.4383C23.9479 20.6289 23.8039 20.8964 23.768 21.188L22.1215 36.9093C21.8745 38.7583 24.4129 40.199 26.3957 40.4494C28.399 40.6998 28.6083 39.7325 28.8964 37.9796C29.3767 35.0535 29.5379 33.9523 29.5379 33.9695C29.5379 33.9866 32.1175 33.9249 33.1261 30.7106C33.6269 29.1155 33.9391 26.4193 34.1243 24.1929C34.2924 22.2033 33.3422 19.5894 31.3457 19.5071L24.9755 20.1588Z" fill="#FFD5BF"/>
<path d="M33.126 26.1961C33.0677 26.2441 32.783 25.9663 32.3233 25.908C31.8636 25.8496 31.5035 26.0383 31.4623 25.9731C31.4211 25.908 31.5069 25.8531 31.6647 25.7673C31.8762 25.6596 32.1152 25.6178 32.3507 25.6473C32.5869 25.6768 32.8078 25.78 32.9819 25.9423C33.1226 26.0692 33.1569 26.1755 33.126 26.1961Z" fill="#263238"/>
<path d="M28.7899 25.4143C28.7316 25.4589 28.4469 25.1777 27.9906 25.1125C27.5344 25.0473 27.1708 25.2222 27.1296 25.1605C27.0885 25.0988 27.1776 25.0404 27.3389 24.9581C27.5511 24.8527 27.7904 24.8144 28.0249 24.8483C28.2605 24.8826 28.4791 24.9907 28.6493 25.1571C28.7865 25.284 28.8208 25.3938 28.7899 25.4143Z" fill="#263238"/>
<path d="M30.0146 28.5455C30.2652 28.5044 30.5201 28.4964 30.7728 28.5215C30.8894 28.5215 31.0026 28.5215 31.0335 28.4426C31.0599 28.3281 31.0503 28.2083 31.006 28.0995C30.9408 27.8011 30.8688 27.4923 30.7933 27.1665C30.5884 26.3714 30.4451 25.5617 30.3645 24.7446C30.6372 25.5198 30.846 26.316 30.9889 27.1253L31.1844 28.0618C31.2408 28.211 31.2408 28.3757 31.1844 28.5249C31.1625 28.5634 31.1319 28.5962 31.0949 28.6207C31.058 28.6451 31.0157 28.6605 30.9717 28.6655C30.9045 28.6741 30.8365 28.6741 30.7693 28.6655C30.5136 28.6582 30.26 28.6178 30.0146 28.5455Z" fill="#263238"/>
<path d="M29.5379 33.9621C27.9853 33.7589 26.5198 33.1283 25.3048 32.1406C25.3048 32.1406 26.0389 34.5419 29.3766 34.734L29.5379 33.9621Z" fill="#F3BFA3"/>
<path d="M29.6613 29.6122C29.5916 29.4907 29.492 29.3891 29.3719 29.317C29.2518 29.245 29.1152 29.2049 28.9752 29.2006C28.8739 29.1939 28.7723 29.2081 28.6767 29.2423C28.5811 29.2766 28.4936 29.3301 28.4195 29.3995C28.3474 29.4659 28.2976 29.5529 28.2767 29.6487C28.2558 29.7444 28.265 29.8443 28.3029 29.9347C28.3639 30.0269 28.4509 30.0989 28.5529 30.1416C28.6549 30.1843 28.7672 30.1959 28.8757 30.1748C29.1015 30.1311 29.3161 30.0424 29.5069 29.9141C29.5641 29.8851 29.6154 29.8455 29.6579 29.7975C29.6779 29.7749 29.6908 29.7469 29.695 29.717C29.6993 29.6871 29.6947 29.6567 29.6819 29.6294" fill="#EB996E"/>
<path d="M28.6322 28.6628C28.7077 28.6628 28.6322 29.1636 29.0061 29.5752C29.38 29.9869 29.9083 30.0109 29.9014 30.0795C29.8946 30.1481 29.7711 30.1584 29.5584 30.131C29.269 30.0932 29.0026 29.9533 28.8072 29.7365C28.6175 29.5305 28.5165 29.2582 28.5259 28.9784C28.5259 28.7691 28.5979 28.6559 28.6322 28.6628Z" fill="#263238"/>
<path d="M29.1844 24.1724C29.1227 24.2891 28.6767 24.1724 28.1347 24.1484C27.5927 24.1244 27.1399 24.217 27.0884 24.097C27.0644 24.0387 27.1571 23.9323 27.3457 23.8397C27.598 23.7238 27.8746 23.6708 28.1519 23.6853C28.4293 23.6911 28.7012 23.7641 28.9443 23.898C29.1295 24.0044 29.2118 24.1176 29.1844 24.1724Z" fill="#263238"/>
<path d="M33.366 24.1719C33.2699 24.261 32.9715 24.1101 32.5976 24.0484C32.2237 23.9866 31.8943 24.0175 31.836 23.8974C31.812 23.8391 31.8772 23.7431 32.0316 23.6676C32.2338 23.5728 32.4613 23.5463 32.6799 23.5921C32.9001 23.6277 33.1039 23.7308 33.2631 23.8871C33.3797 24.0141 33.4071 24.1273 33.366 24.1719Z" fill="#263238"/>
<path d="M21.0614 30.6351C21.5019 30.7948 21.9742 30.8474 22.4391 30.7883C22.9039 30.7292 23.3481 30.5602 23.7346 30.2954C24.1212 30.0305 24.4391 29.6773 24.6621 29.2652C24.885 28.853 25.0065 28.3936 25.0166 27.9251C25.0372 27.1018 24.725 26.2099 25.1195 25.493C25.6409 24.5393 27.1023 24.4398 27.6305 23.4862C27.9358 22.9339 27.8432 22.217 28.176 21.6818C28.5087 21.1467 29.1056 20.9512 29.6888 20.8345C30.2807 20.7704 30.8592 20.6154 31.4039 20.3749C31.9219 20.0833 32.313 19.4452 32.09 18.893C29.5892 18.8259 27.0892 19.0562 24.6427 19.579C24.0634 19.6457 23.5197 19.8929 23.0887 20.2857C22.6771 20.7385 22.5948 21.3937 22.533 22.0009C22.2266 24.9738 21.9224 27.9468 21.6205 30.9198" fill="#263238"/>
<path d="M18.8796 33.1013C18.8796 33.1013 18.8796 33.0807 18.8796 33.043C18.8762 32.9882 18.8762 32.9332 18.8796 32.8783C18.9168 32.6653 18.9923 32.4607 19.1026 32.2746C19.2799 31.9788 19.5129 31.7201 19.7887 31.5131C20.1523 31.2442 20.5548 31.0325 20.9824 30.8853C21.449 30.7069 21.9738 30.5423 22.5089 30.3433C23.0834 30.1358 23.5933 29.7809 23.9874 29.3142C24.1914 29.0618 24.3251 28.7601 24.375 28.4395C24.4091 28.0973 24.4091 27.7525 24.375 27.4103C24.3343 27.0383 24.3669 26.6618 24.4711 26.3023C24.5366 26.1136 24.6459 25.9432 24.7901 25.8049C24.9358 25.6709 25.1058 25.5661 25.291 25.4962C25.6463 25.3723 26.0082 25.2681 26.3749 25.184C26.7148 25.1063 27.0212 24.9225 27.2497 24.6592C27.4467 24.3836 27.5749 24.0648 27.6236 23.7296C27.6888 23.3865 27.7162 23.0641 27.7711 22.7348C27.8154 22.4096 27.9139 22.0942 28.0627 21.8017C28.2151 21.5233 28.4467 21.2965 28.7282 21.1499C29.2325 20.9292 29.7762 20.8126 30.3267 20.8069C30.7672 20.7919 31.2016 20.699 31.6097 20.5325C31.9067 20.3925 32.1483 20.157 32.2957 19.8636C32.3929 19.6782 32.4312 19.4675 32.4055 19.2598C32.3815 19.1192 32.3472 19.0471 32.3541 19.0437C32.3962 19.1071 32.4253 19.1782 32.4398 19.253C32.4802 19.4693 32.4502 19.693 32.3541 19.891C32.2065 20.208 31.9547 20.4647 31.6406 20.6182C31.2244 20.7977 30.7794 20.9011 30.3267 20.9235C29.7949 20.9377 29.2708 21.0542 28.7831 21.2666C28.5267 21.4011 28.3173 21.6105 28.1827 21.8669C28.0452 22.1463 27.9548 22.4465 27.9152 22.7553C27.8637 23.0744 27.8363 23.4105 27.7711 23.7536C27.7182 24.1145 27.5807 24.4577 27.3698 24.7552C27.1195 25.0449 26.7848 25.2488 26.4127 25.3384C26.0696 25.4448 25.682 25.5065 25.3458 25.6437C25.1793 25.701 25.0275 25.7944 24.9012 25.9171C24.7749 26.0399 24.6772 26.189 24.6152 26.3538C24.5211 26.6882 24.4919 27.0375 24.5294 27.3829C24.5672 27.7364 24.5672 28.0928 24.5294 28.4463C24.4736 28.7933 24.3282 29.1196 24.1075 29.3931C23.6916 29.8753 23.1572 30.2406 22.557 30.4531C22.0081 30.6692 21.4833 30.7961 21.0202 30.9745C20.6003 31.1119 20.2036 31.312 19.8435 31.5679C19.5732 31.7632 19.3407 32.0062 19.1575 32.2849C19.0126 32.5364 18.9182 32.8137 18.8796 33.1013Z" fill="#263238"/>
<path d="M28.1245 36.7921C28.1245 36.7715 28.3475 36.8745 28.766 36.9225C29.3567 36.9877 29.9534 36.8767 30.4812 36.6035C30.8435 36.423 31.162 36.1654 31.4142 35.8488C31.6876 35.4732 31.891 35.0514 32.0145 34.6036C32.1517 34.0881 32.3756 33.5997 32.6766 33.1594C33.0196 32.7031 33.5788 32.4733 34.0487 32.1509C34.4933 31.8683 34.8264 31.4406 34.9915 30.9404C35.1566 30.4402 35.1435 29.8982 34.9544 29.4066C34.7442 28.978 34.5764 28.5299 34.4535 28.0687C34.385 27.6519 34.4049 27.2253 34.5118 26.8166C34.6763 26.236 34.9223 25.6816 35.2425 25.1701C35.3523 24.9883 35.4415 24.8511 35.5032 24.7584C35.5314 24.7084 35.566 24.6623 35.6061 24.6212C35.5879 24.6758 35.5625 24.7277 35.5307 24.7756L35.3008 25.2044C35.0002 25.718 34.7694 26.2694 34.6147 26.8441C34.519 27.2362 34.5061 27.6439 34.577 28.0413C34.7041 28.4933 34.8741 28.9321 35.0847 29.3517C35.2884 29.8576 35.3138 30.4177 35.1567 30.9399C34.9903 31.5064 34.6248 31.9937 34.1276 32.3121C33.6405 32.6345 33.1157 32.8644 32.7932 33.2829C32.504 33.7015 32.2861 34.1652 32.1483 34.655C32.0167 35.1201 31.7991 35.5564 31.5068 35.9414C31.2397 36.2682 30.9035 36.5318 30.5223 36.7132C29.9747 36.985 29.3568 37.0819 28.7523 36.9911C28.6582 36.9794 28.5653 36.9599 28.4744 36.9328C28.4075 36.9168 28.342 36.895 28.2789 36.8676C28.2248 36.8482 28.173 36.8229 28.1245 36.7921Z" fill="#263238"/>
<path d="M25.754 18.1655C26.5679 17.8293 27.2213 17.1931 27.579 16.3886C27.7482 15.9858 27.7999 15.5433 27.7283 15.1123C27.6567 14.6814 27.4646 14.2794 27.1742 13.953C26.8679 13.643 26.4578 13.4572 26.0228 13.4312C25.5878 13.4053 25.1586 13.541 24.8176 13.8124C24.1996 13.4675 23.5107 13.2691 22.8039 13.2326C22.4506 13.2163 22.0979 13.2758 21.7695 13.4071C21.4411 13.5385 21.1446 13.7387 20.9001 13.9942C20.6598 14.2546 20.506 14.5831 20.4599 14.9344C20.4139 15.2858 20.4777 15.6428 20.6428 15.9563C20.4219 15.8198 20.1651 15.7526 19.9057 15.7633C19.6462 15.774 19.3958 15.8622 19.1869 16.0164C18.978 16.1707 18.8201 16.384 18.7335 16.6289C18.647 16.8737 18.6357 17.1389 18.7012 17.3902C18.7998 17.681 18.972 17.9412 19.201 18.1456C19.4301 18.35 19.7082 18.4916 20.0082 18.5565C20.6092 18.6778 21.2269 18.6929 21.8331 18.6011L25.9496 18.2169" fill="#263238"/>
<path d="M24.5157 15.589C24.4449 15.4819 24.3874 15.3668 24.3442 15.2459C24.1967 14.9093 24.1096 14.5494 24.0869 14.1825C24.0747 13.923 24.1204 13.6641 24.2207 13.4244C24.3469 13.1461 24.56 12.9162 24.8279 12.7692C25.119 12.6103 25.4465 12.5299 25.7781 12.536C26.1299 12.5431 26.478 12.6104 26.8072 12.7349C27.1349 12.8488 27.448 13.0008 27.7402 13.1877C27.8819 13.2796 28.0037 13.3988 28.0985 13.5384C28.1934 13.6781 28.2593 13.8352 28.2925 14.0007C28.333 14.2773 28.3098 14.5595 28.2248 14.8258C28.1398 15.0921 27.9952 15.3355 27.802 15.5375C27.5512 15.8028 27.2663 16.0335 26.9547 16.2236C26.8475 16.3006 26.7325 16.3662 26.6116 16.4191C26.707 16.3254 26.8116 16.2415 26.9238 16.1687C27.2157 15.9624 27.4828 15.7229 27.7197 15.4552C27.8938 15.2649 28.0229 15.0378 28.0971 14.7907C28.1714 14.5436 28.1889 14.283 28.1484 14.0282C28.1176 13.8829 28.058 13.7452 27.9731 13.6233C27.8883 13.5013 27.78 13.3976 27.6545 13.3181C27.3712 13.1433 27.0698 12.9995 26.7557 12.8893C26.4463 12.7716 26.1193 12.7066 25.7884 12.6972C25.4848 12.6874 25.1841 12.7585 24.9171 12.903C24.6746 13.0286 24.4795 13.2297 24.3613 13.4759C24.2676 13.6925 24.2186 13.9259 24.2173 14.162C24.2332 14.5131 24.3014 14.86 24.4197 15.1911C24.4629 15.3207 24.4951 15.4538 24.5157 15.589Z" fill="#263238"/>
<path d="M12.6191 23.9075C12.7511 24.0457 12.8908 24.1763 13.0376 24.2986C13.2905 24.4949 13.5867 24.6279 13.9015 24.6864C14.2162 24.7449 14.5404 24.7273 14.847 24.6349C15.1535 24.5426 15.4335 24.3783 15.6636 24.1556C15.8937 23.933 16.0672 23.6586 16.1696 23.3553C16.3074 22.9057 16.5047 22.4765 16.7562 22.0792C16.9162 21.8719 17.1314 21.7138 17.377 21.6229C17.6226 21.538 17.879 21.4883 18.1386 21.4754C18.6218 21.4909 19.1009 21.3834 19.5313 21.1633C19.7172 21.0467 19.852 20.8641 19.9087 20.6521C19.9633 20.438 19.9921 20.218 19.9944 19.9969C20.0026 19.7747 20.0443 19.555 20.1179 19.3452C20.2012 19.1434 20.3405 18.9696 20.5193 18.8443C20.8398 18.649 21.2017 18.5315 21.5758 18.5013C21.9188 18.4601 22.2104 18.4464 22.4711 18.4018C22.6917 18.3694 22.9065 18.3059 23.1092 18.2132C23.2796 18.1271 23.433 18.0109 23.562 17.8701C23.5431 17.9174 23.5152 17.9606 23.4797 17.997C23.3838 18.1095 23.2674 18.2027 23.1366 18.2715C22.9308 18.3787 22.7099 18.4539 22.4814 18.4944C22.2207 18.5493 21.9154 18.5699 21.5895 18.6179C21.2372 18.6549 20.898 18.7723 20.5982 18.961C20.4443 19.0731 20.3254 19.2266 20.2551 19.4035C20.1887 19.5992 20.1528 19.804 20.1488 20.0107C20.146 20.2418 20.1172 20.472 20.063 20.6967C19.9959 20.9451 19.8396 21.1601 19.6239 21.3005C19.1706 21.5382 18.664 21.6562 18.1523 21.6435C17.9082 21.6564 17.667 21.7026 17.4354 21.7807C17.2174 21.8585 17.0267 21.9979 16.8865 22.1821C16.6465 22.5674 16.4552 22.9811 16.3171 23.4136C16.1674 23.8246 15.9002 24.1824 15.5487 24.4427C15.2461 24.662 14.8912 24.7981 14.5196 24.8372C14.2501 24.8603 13.9787 24.8301 13.7209 24.7483C13.463 24.6665 13.2239 24.5347 13.0171 24.3604C12.9027 24.2692 12.8012 24.1631 12.7152 24.0448C12.676 24.0045 12.6436 23.9582 12.6191 23.9075Z" fill="#263238"/>
<path d="M26.7763 16.8412C26.5274 17.2677 26.1418 17.5977 25.682 17.7777C25.2461 18.0065 24.7469 18.0849 24.2618 18.0006C24.7236 17.9193 25.1763 17.793 25.6134 17.6233C26.0267 17.403 26.4164 17.1409 26.7763 16.8412Z" fill="#FF725E"/>
<path d="M26.8723 26.3611C26.8607 26.3595 26.8496 26.3555 26.8396 26.3493C26.8297 26.3431 26.8212 26.3349 26.8147 26.3251C26.8082 26.3154 26.8039 26.3044 26.802 26.2928C26.8001 26.2813 26.8007 26.2695 26.8037 26.2582C26.8063 26.2351 26.8178 26.214 26.8357 26.1992C26.8537 26.1845 26.8766 26.1773 26.8998 26.1793C26.9223 26.1842 26.942 26.1977 26.9548 26.2169C26.9676 26.2361 26.9725 26.2595 26.9684 26.2822C26.9675 26.2938 26.9643 26.3051 26.959 26.3154C26.9536 26.3257 26.9463 26.3349 26.9373 26.3422C26.9283 26.3496 26.9179 26.3551 26.9067 26.3583C26.8956 26.3616 26.8839 26.3625 26.8723 26.3611Z" fill="#EB996E"/>
<path d="M27.785 26.4742C27.7663 26.4733 27.7483 26.4668 27.7334 26.4554C27.7185 26.4441 27.7074 26.4286 27.7015 26.4108C27.6956 26.393 27.6952 26.3739 27.7004 26.3559C27.7056 26.338 27.7161 26.322 27.7306 26.3101C27.7451 26.2982 27.7628 26.291 27.7814 26.2894C27.8001 26.2878 27.8188 26.2919 27.835 26.3011C27.8513 26.3103 27.8644 26.3242 27.8726 26.3411C27.8808 26.3579 27.8838 26.3768 27.881 26.3953C27.8802 26.4069 27.877 26.4182 27.8716 26.4285C27.8663 26.4388 27.8589 26.448 27.8499 26.4554C27.8409 26.4627 27.8305 26.4682 27.8194 26.4714C27.8082 26.4747 27.7965 26.4756 27.785 26.4742Z" fill="#EB996E"/>
<path d="M27.2258 27.071C27.2033 27.0661 27.1835 27.0526 27.1707 27.0334C27.1579 27.0142 27.1531 26.9908 27.1572 26.9681C27.1598 26.9451 27.1713 26.9239 27.1892 26.9092C27.2071 26.8945 27.2301 26.8873 27.2532 26.8892C27.275 26.8953 27.2938 26.9091 27.3061 26.9281C27.3184 26.9471 27.3233 26.9699 27.32 26.9923C27.3166 27.0146 27.3052 27.035 27.2878 27.0495C27.2705 27.064 27.2484 27.0717 27.2258 27.071Z" fill="#EB996E"/>
<path d="M28.4331 27.1596C28.4153 27.158 28.3984 27.1511 28.3846 27.1398C28.3707 27.1285 28.3606 27.1133 28.3555 27.0962C28.3504 27.079 28.3506 27.0608 28.356 27.0437C28.3614 27.0267 28.3718 27.0117 28.3859 27.0006C28.3999 26.9896 28.417 26.983 28.4348 26.9818C28.4527 26.9805 28.4705 26.9847 28.4859 26.9937C28.5013 27.0027 28.5137 27.0161 28.5214 27.0323C28.5292 27.0484 28.5319 27.0665 28.5292 27.0841C28.5258 27.1066 28.5139 27.1269 28.4961 27.1409C28.4783 27.1549 28.4557 27.1616 28.4331 27.1596Z" fill="#EB996E"/>
<path d="M28.8756 26.5353C28.853 26.5304 28.8333 26.5169 28.8205 26.4977C28.8077 26.4785 28.8029 26.4551 28.807 26.4324C28.8101 26.4106 28.8219 26.3909 28.8396 26.3777C28.8572 26.3645 28.8795 26.3589 28.9013 26.3621C28.9231 26.3653 28.9428 26.377 28.956 26.3947C28.9692 26.4124 28.9748 26.4346 28.9716 26.4564C28.9708 26.468 28.9676 26.4793 28.9622 26.4896C28.9569 26.5 28.9495 26.5091 28.9405 26.5165C28.9315 26.5238 28.9211 26.5293 28.91 26.5326C28.8988 26.5358 28.8871 26.5367 28.8756 26.5353Z" fill="#EB996E"/>
<path d="M29.9529 25.7811C29.9311 25.775 29.9123 25.7612 29.9 25.7422C29.8877 25.7232 29.8828 25.7004 29.8862 25.678C29.8895 25.6557 29.901 25.6353 29.9183 25.6208C29.9357 25.6063 29.9577 25.5986 29.9804 25.5993C30.0021 25.6053 30.021 25.6192 30.0333 25.6382C30.0455 25.6571 30.0505 25.68 30.0471 25.7023C30.0437 25.7247 30.0323 25.745 30.0149 25.7596C29.9976 25.7741 29.9755 25.7817 29.9529 25.7811Z" fill="#EB996E"/>
<path d="M31.6646 26.7724C31.6421 26.7674 31.6224 26.7539 31.6096 26.7347C31.5968 26.7156 31.5919 26.6922 31.596 26.6695C31.5976 26.6586 31.6013 26.6483 31.6069 26.6389C31.6125 26.6295 31.6199 26.6213 31.6286 26.6148C31.6374 26.6082 31.6473 26.6035 31.6579 26.6008C31.6685 26.5981 31.6795 26.5976 31.6904 26.5991C31.7012 26.6007 31.7116 26.6044 31.7209 26.61C31.7303 26.6156 31.7385 26.623 31.7451 26.6317C31.7516 26.6405 31.7563 26.6505 31.759 26.6611C31.7617 26.6716 31.7622 26.6827 31.7607 26.6935C31.7598 26.7051 31.7566 26.7164 31.7513 26.7267C31.746 26.737 31.7386 26.7461 31.7296 26.7535C31.7206 26.7609 31.7102 26.7664 31.699 26.7696C31.6879 26.7729 31.6762 26.7738 31.6646 26.7724Z" fill="#EB996E"/>
<path d="M32.4708 26.8165C32.4483 26.8116 32.4285 26.7981 32.4157 26.7789C32.4029 26.7597 32.3981 26.7363 32.4022 26.7136C32.4048 26.6905 32.4163 26.6694 32.4342 26.6547C32.4521 26.6399 32.4751 26.6328 32.4982 26.6347C32.51 26.6367 32.5211 26.6411 32.5311 26.6477C32.541 26.6542 32.5495 26.6628 32.5559 26.6728C32.5624 26.6828 32.5667 26.694 32.5686 26.7058C32.5704 26.7175 32.5698 26.7295 32.5668 26.741C32.5656 26.7523 32.562 26.7633 32.5565 26.7732C32.551 26.7831 32.5435 26.7919 32.5346 26.7989C32.5257 26.8059 32.5154 26.8111 32.5045 26.8141C32.4935 26.8171 32.482 26.818 32.4708 26.8165Z" fill="#EB996E"/>
<path d="M32.8928 27.7605C32.8703 27.7555 32.8505 27.742 32.8377 27.7228C32.8249 27.7036 32.8201 27.6802 32.8242 27.6575C32.825 27.646 32.8282 27.6346 32.8335 27.6243C32.8389 27.614 32.8463 27.6049 32.8553 27.5975C32.8642 27.5901 32.8746 27.5846 32.8858 27.5814C32.897 27.5782 32.9087 27.5772 32.9202 27.5787C32.9427 27.5836 32.9625 27.5971 32.9753 27.6163C32.988 27.6355 32.9929 27.6589 32.9888 27.6816C32.988 27.6932 32.9848 27.7045 32.9794 27.7148C32.9741 27.7251 32.9667 27.7342 32.9577 27.7416C32.9487 27.749 32.9383 27.7545 32.9272 27.7577C32.916 27.761 32.9043 27.7619 32.8928 27.7605Z" fill="#EB996E"/>
<path d="M29.9187 26.9983C29.9071 26.9967 29.896 26.9927 29.886 26.9865C29.8761 26.9803 29.8676 26.9721 29.8611 26.9623C29.8546 26.9526 29.8503 26.9416 29.8484 26.93C29.8465 26.9185 29.8471 26.9066 29.8501 26.8953C29.8509 26.8837 29.8541 26.8724 29.8595 26.8621C29.8648 26.8518 29.8722 26.8427 29.8812 26.8353C29.8902 26.8279 29.9006 26.8224 29.9117 26.8192C29.9229 26.816 29.9346 26.815 29.9461 26.8164C29.9687 26.8214 29.9884 26.8349 30.0012 26.8541C30.014 26.8733 30.0188 26.8967 30.0148 26.9194C30.0139 26.9309 30.0107 26.9423 30.0054 26.9526C30 26.9629 29.9926 26.972 29.9837 26.9794C29.9747 26.9868 29.9643 26.9923 29.9531 26.9955C29.9419 26.9987 29.9302 26.9997 29.9187 26.9983Z" fill="#EB996E"/>
<path d="M29.9561 24.529C29.933 24.5248 29.9124 24.5117 29.8989 24.4924C29.8854 24.4731 29.8801 24.4493 29.8841 24.4261C29.8841 24.4138 29.8867 24.4017 29.8918 24.3905C29.897 24.3793 29.9044 24.3694 29.9137 24.3613C29.923 24.3533 29.9339 24.3473 29.9456 24.3438C29.9574 24.3404 29.9698 24.3395 29.982 24.3412C29.9942 24.3429 30.0058 24.3473 30.0161 24.3539C30.0265 24.3605 30.0353 24.3693 30.0419 24.3796C30.0486 24.39 30.053 24.4016 30.0547 24.4138C30.0565 24.4259 30.0556 24.4383 30.0522 24.4501C30.0514 24.4617 30.0482 24.473 30.0428 24.4833C30.0375 24.4936 30.0301 24.5028 30.0211 24.5102C30.0121 24.5175 30.0017 24.523 29.9906 24.5263C29.9794 24.5295 29.9677 24.5304 29.9561 24.529Z" fill="#EB996E"/>
<path d="M30.8516 24.5527C30.8338 24.5511 30.8169 24.5442 30.803 24.5329C30.7892 24.5216 30.779 24.5064 30.774 24.4892C30.7689 24.4721 30.769 24.4538 30.7745 24.4368C30.7799 24.4197 30.7903 24.4047 30.8043 24.3937C30.8184 24.3826 30.8355 24.3761 30.8533 24.3748C30.8711 24.3736 30.8889 24.3778 30.9044 24.3868C30.9198 24.3958 30.9322 24.4092 30.9399 24.4253C30.9476 24.4414 30.9503 24.4595 30.9476 24.4772C30.9442 24.4996 30.9324 24.5199 30.9146 24.534C30.8967 24.548 30.8742 24.5547 30.8516 24.5527Z" fill="#EB996E"/>
<path d="M31.9184 27.6125C31.8959 27.6076 31.8762 27.5941 31.8634 27.5749C31.8506 27.5557 31.8457 27.5323 31.8498 27.5096C31.8511 27.4983 31.8546 27.4874 31.8601 27.4775C31.8656 27.4675 31.8731 27.4588 31.882 27.4518C31.891 27.4448 31.9012 27.4396 31.9122 27.4366C31.9231 27.4335 31.9346 27.4327 31.9459 27.4342C31.9695 27.4378 31.9907 27.4507 32.0049 27.47C32.0191 27.4893 32.025 27.5134 32.0213 27.5371C32.0177 27.5607 32.0048 27.582 31.9855 27.5961C31.9662 27.6103 31.9421 27.6162 31.9184 27.6125Z" fill="#EB996E"/>
<path d="M29.788 23.3078C29.7655 23.3029 29.7458 23.2894 29.733 23.2702C29.7202 23.251 29.7153 23.2276 29.7194 23.2049C29.7194 23.1926 29.7221 23.1805 29.7272 23.1693C29.7323 23.1581 29.7397 23.1482 29.749 23.1401C29.7583 23.1321 29.7692 23.1261 29.781 23.1226C29.7928 23.1192 29.8052 23.1183 29.8173 23.12C29.8295 23.1217 29.8411 23.1261 29.8515 23.1327C29.8618 23.1393 29.8706 23.1481 29.8773 23.1584C29.8839 23.1688 29.8883 23.1804 29.8901 23.1926C29.8918 23.2047 29.891 23.2171 29.8875 23.2289C29.8841 23.2523 29.8719 23.2734 29.8534 23.2881C29.8349 23.3028 29.8115 23.3098 29.788 23.3078Z" fill="#EB996E"/>
<path d="M30.5705 23.856C30.5487 23.85 30.5299 23.8361 30.5176 23.8172C30.5053 23.7982 30.5003 23.7754 30.5037 23.753C30.5071 23.7306 30.5185 23.7103 30.5359 23.6958C30.5532 23.6813 30.5753 23.6736 30.5979 23.6742C30.6204 23.6792 30.6402 23.6927 30.6529 23.7119C30.6657 23.7311 30.6706 23.7544 30.6665 23.7771C30.6657 23.7887 30.6625 23.8 30.6571 23.8104C30.6518 23.8207 30.6444 23.8298 30.6354 23.8372C30.6264 23.8446 30.616 23.8501 30.6049 23.8533C30.5937 23.8565 30.582 23.8575 30.5705 23.856Z" fill="#EB996E"/>
<path d="M31.1432 23.2011C31.12 23.197 31.0994 23.1838 31.0859 23.1645C31.0725 23.1452 31.0671 23.1214 31.0711 23.0982C31.0724 23.0865 31.076 23.0751 31.0817 23.0648C31.0874 23.0544 31.0951 23.0453 31.1044 23.038C31.1136 23.0306 31.1242 23.0252 31.1356 23.022C31.147 23.0188 31.1589 23.0179 31.1706 23.0193C31.1924 23.0254 31.2112 23.0392 31.2235 23.0582C31.2358 23.0772 31.2407 23.1 31.2373 23.1224C31.234 23.1447 31.2225 23.1651 31.2052 23.1796C31.1878 23.1941 31.1658 23.2018 31.1432 23.2011Z" fill="#EB996E"/>
<path d="M24.4987 18.3302C24.5049 18.4317 24.4957 18.5334 24.4713 18.6321C24.4179 18.9039 24.3399 19.1703 24.238 19.4279C24.118 19.7538 23.943 20.1346 23.8127 20.5668C23.6516 21.0277 23.6349 21.5267 23.7646 21.9973C23.9049 22.4686 24.1819 22.8876 24.5605 23.2013C24.8717 23.4456 25.2286 23.6253 25.6102 23.7296C25.9721 23.8178 26.3402 23.8786 26.7113 23.9114C26.6125 23.9412 26.5088 23.9516 26.406 23.9423C26.1262 23.9451 25.8471 23.9116 25.5759 23.8428C25.1694 23.7439 24.7883 23.5604 24.4576 23.3042C24.0468 22.9842 23.7439 22.5461 23.5897 22.0487C23.4501 21.5471 23.4717 21.0143 23.6514 20.5256C23.7955 20.0797 23.9945 19.7058 24.1145 19.3868C24.4061 18.7419 24.4713 18.3268 24.4987 18.3302Z" fill="#455A64"/>
<path d="M33.1569 19.7949C33.1569 19.7949 33.1809 19.6474 33.1981 19.3833C33.2175 19.0098 33.1603 18.6362 33.03 18.2856C32.8309 17.7031 32.4218 17.2159 31.8826 16.919C31.3434 16.6221 30.7128 16.537 30.1142 16.6802C29.7752 16.7505 29.4542 16.8894 29.1708 17.0884C28.9166 17.2901 28.6864 17.5203 28.4848 17.7745C28.08 18.2547 27.6066 18.6766 27.1126 18.7487C26.8863 18.7921 26.6519 18.7544 26.4506 18.6423C26.3005 18.5631 26.1748 18.4445 26.087 18.2993C26.033 18.2052 26.0035 18.099 26.0012 17.9906C25.9997 17.9532 26.0056 17.9159 26.0183 17.8808C26.028 18.0058 26.0652 18.1272 26.1273 18.2362C26.1893 18.3452 26.2747 18.4391 26.3773 18.5112C26.4799 18.5833 26.5972 18.6318 26.7208 18.6533C26.8443 18.6748 26.9711 18.6687 27.0921 18.6355C27.3458 18.5801 27.5816 18.4622 27.7781 18.2924C28.0061 18.1038 28.2141 17.8923 28.399 17.6613C28.6098 17.3967 28.8504 17.1573 29.116 16.9477C29.4172 16.7337 29.7594 16.5842 30.1211 16.5087C30.4714 16.4307 30.8336 16.423 31.1869 16.486C31.5402 16.549 31.8775 16.6815 32.1793 16.8757C32.6636 17.2078 33.0252 17.6899 33.2084 18.2478C33.3343 18.6146 33.3754 19.0052 33.3284 19.3902C33.3156 19.4947 33.2937 19.598 33.2633 19.6989C33.1912 19.7709 33.1775 19.7984 33.1569 19.7949Z" fill="#455A64"/>
<path d="M33.9527 30.0377C34.4741 30.3602 34.4775 31.1286 34.2545 31.698C34.0316 32.2675 33.6439 32.7854 33.5684 33.3926C33.517 33.8934 33.6954 34.3874 33.7194 34.8882C33.7378 35.2767 33.667 35.6641 33.5124 36.0209C33.3578 36.3777 33.1235 36.6943 32.8275 36.9465C32.2409 37.437 31.4553 37.6325 30.8207 38.0545C30.1311 38.56 29.5598 39.2097 29.1467 39.9583C28.7403 40.702 28.2685 41.408 27.7368 42.068C27.1923 42.7361 26.4055 43.1616 25.5483 43.2515C24.9142 43.2373 24.2896 43.0937 23.713 42.8295C23.3143 42.7279 22.9665 42.4839 22.7354 42.1435C22.6048 41.8259 22.6048 41.4696 22.7354 41.1521C22.8734 40.7466 23.0984 40.3762 23.3947 40.0668C23.691 39.7575 24.0514 39.5167 24.4506 39.3614C25.0417 39.1883 25.6483 39.0734 26.2618 39.0184C26.8807 38.9565 27.4585 38.6798 27.8946 38.2363C28.4023 37.6325 28.392 36.7715 28.4709 35.986C28.5498 35.2004 28.7831 34.1987 29.5309 33.9483C29.5309 33.9483 30.2513 34.9774 31.5171 33.8832C32.7829 32.7889 33.9527 30.0377 33.9527 30.0377Z" fill="#263238"/>
<path d="M21.1507 60.2145C20.8754 60.1051 20.5741 60.0793 20.2842 60.1403C19.9944 60.2014 19.729 60.3465 19.5213 60.5575C19.3209 60.7756 19.202 61.0561 19.1845 61.3517C19.167 61.6473 19.252 61.9399 19.4252 62.1801C19.6159 62.4067 19.8706 62.5705 20.1559 62.6501C20.4253 62.741 20.7191 62.7276 20.9792 62.6123C21.2485 62.4405 21.4451 62.1755 21.5314 61.8679C21.652 61.5821 21.6843 61.2667 21.6241 60.9623C21.5452 60.6639 21.4423 60.2214 21.1335 60.2179" fill="#FF678E"/>
<path d="M20.1455 62.4862C20.2964 64.5101 20.8316 66.5717 22.1488 68.1257C23.4661 69.6797 25.6272 70.6093 27.5757 70.033C28.8312 69.6625 29.8568 68.7329 31.0918 68.2938C31.8697 68.0268 32.7021 67.9592 33.5129 68.097C34.3237 68.2348 35.0871 68.5737 35.7331 69.0828C35.836 68.3349 36.2339 67.666 36.5358 66.9731C36.8376 66.2802 37.0503 65.4809 36.7725 64.7777C36.4963 64.2003 36.0231 63.7404 35.438 63.481C34.6274 63.0751 33.7325 62.8661 32.826 62.8708C31.9194 62.8756 31.0268 63.094 30.2205 63.5084C29.0679 64.1122 28.1177 65.1173 26.8621 65.4569C26.2487 65.6039 25.6088 65.5995 24.9974 65.4441C24.3861 65.2887 23.8217 64.987 23.3529 64.565C22.417 63.7026 21.8515 62.5113 21.7749 61.241" fill="#FF678E"/>
<path d="M19.7544 61.7108C17.9192 62.5135 16.7975 66.63 16.8386 68.6333C16.8798 70.6366 17.5693 72.5645 17.8677 74.5438C18.1662 76.5231 17.9912 78.7563 16.6019 80.197C16.6019 80.197 22.1077 78.9484 22.4713 78.7494C23.96 77.9399 23.5004 74.633 23.1025 72.9864C22.7045 71.3399 21.4079 70.0535 20.6463 68.527C20.1079 67.4156 19.8571 66.1868 19.9171 64.9534C19.977 63.7199 20.3457 62.5212 20.9894 61.4673" fill="#FF678E"/>
<path d="M14.3309 56.6061C13.9165 56.986 13.5748 57.4382 13.3224 57.9405C13.1991 58.194 13.1467 58.4761 13.1709 58.757C13.1951 59.0378 13.2948 59.3069 13.4596 59.5356C13.6725 59.7547 13.9282 59.9275 14.2109 60.0433C16.0602 60.9375 18.0083 61.611 20.015 62.0501C19.9346 61.3527 19.7123 60.6792 19.3619 60.071C19.0115 59.4628 18.5403 58.9327 17.9774 58.5134C16.9047 57.6355 15.6638 56.9865 14.3309 56.6061Z" fill="#FF678E"/>
<path d="M20.6428 61.985C20.6271 61.6339 20.7064 61.2851 20.8725 60.9753C21.0385 60.6656 21.2851 60.4064 21.5862 60.2252C22.2153 59.898 22.9034 59.6998 23.6101 59.642C24.9411 59.4499 26.8415 58.8736 28.169 58.6781L29.7882 61.2166C29.7882 61.2166 20.7423 63.5012 20.6428 61.985Z" fill="#FF678E"/>
<path d="M19.3291 61.9645C19.3119 61.9645 19.2502 61.8822 19.2056 61.7141C19.1577 61.4895 19.1658 61.2565 19.2292 61.0357C19.2926 60.815 19.4094 60.6132 19.5692 60.4483C19.6961 60.3248 19.7956 60.2802 19.8093 60.2974C19.6375 60.5394 19.4968 60.8022 19.3908 61.0795C19.3347 61.3709 19.314 61.6681 19.3291 61.9645Z" fill="#263238"/>
<path d="M20.317 63.8852C20.2099 63.6286 20.145 63.3564 20.1249 63.0791C20.0825 62.7814 20.0619 62.481 20.0632 62.1803C20.0632 62.0088 20.07 61.8304 20.0837 61.6452C20.0875 61.5408 20.112 61.4382 20.1558 61.3433C20.2084 61.2456 20.2852 61.1629 20.3788 61.1032C20.559 60.9886 20.777 60.9492 20.9859 60.9934C21.1733 61.0409 21.3427 61.1422 21.473 61.285C21.671 61.5225 21.8181 61.798 21.9053 62.0946C22.0161 62.3467 22.1034 62.6085 22.166 62.8767C22.0138 62.6446 21.8883 62.396 21.7921 62.1357C21.6963 61.8633 21.5509 61.6109 21.3633 61.3913C21.2511 61.2753 21.1084 61.1932 20.9516 61.1546C20.786 61.1203 20.6136 61.1523 20.4714 61.2438C20.4019 61.289 20.3442 61.3502 20.3033 61.4222C20.2695 61.4967 20.2508 61.5772 20.2484 61.6589C20.2312 61.8407 20.221 62.0019 20.2175 62.1803C20.209 62.4767 20.217 62.7733 20.2415 63.0688C20.2793 63.573 20.3445 63.8818 20.317 63.8852Z" fill="#263238"/>
<path d="M21.1095 61.0796C21.0683 61.1105 20.8351 60.8017 20.4234 60.5993C20.0118 60.3969 19.6276 60.3901 19.6276 60.3386C19.7722 60.2934 19.9248 60.2798 20.0752 60.2987C20.2255 60.3176 20.37 60.3687 20.4989 60.4484C20.9585 60.6748 21.1506 61.0659 21.1095 61.0796Z" fill="#263238"/>
<path d="M21.8365 62.2563C21.8159 62.2563 21.8811 62.1294 21.9394 61.9373C22.0195 61.6928 22.0359 61.4319 21.9873 61.1793C21.9387 60.9266 21.8266 60.6905 21.6616 60.4931C21.5347 60.3388 21.4352 60.2564 21.4489 60.2359C21.4626 60.2153 21.5861 60.2633 21.7473 60.4108C21.9562 60.6082 22.0978 60.8662 22.1521 61.1483C22.2077 61.43 22.1716 61.7222 22.0492 61.9819C21.96 62.1774 21.8571 62.2666 21.8365 62.2563Z" fill="#263238"/>
<path d="M20.2278 61.6209C20.2278 61.6689 19.9465 61.6209 19.6515 61.7444C19.3565 61.8679 19.1747 62.0497 19.1369 62.0222C19.0992 61.9948 19.2398 61.7135 19.5932 61.5866C19.9465 61.4597 20.2449 61.5797 20.2278 61.6209Z" fill="#263238"/>
<path d="M25.2912 60.6646C24.7387 60.6399 24.1853 60.6514 23.6343 60.6989C23.0915 60.8008 22.5563 60.9395 22.0323 61.114C22.5105 60.8073 23.0496 60.6082 23.6123 60.5306C24.175 60.453 24.7479 60.4987 25.2912 60.6646Z" fill="#263238"/>
<path d="M23.9565 61.5838C23.6542 61.742 23.3079 61.7951 22.972 61.7347C22.6288 61.7251 22.2979 61.6048 22.0287 61.3917C22.0493 61.3436 22.4575 61.5049 22.9858 61.5494C23.514 61.594 23.9463 61.5357 23.9565 61.5838Z" fill="#263238"/>
<path d="M19.4355 61.0995C19.4115 61.0995 19.3395 60.976 19.1817 60.7942C18.9747 60.5616 18.7271 60.3686 18.451 60.2248C18.17 60.0801 17.8788 59.9563 17.5797 59.8543C17.3498 59.772 17.2058 59.7102 17.2126 59.6862C17.3487 59.6777 17.4852 59.6964 17.614 59.7411C17.9326 59.8161 18.2404 59.9314 18.5299 60.0841C18.8269 60.2366 19.0833 60.4576 19.2777 60.729C19.4081 60.9348 19.4355 61.0926 19.4355 61.0995Z" fill="#263238"/>
<path d="M18.0631 70.2697C18.0092 70.1614 17.9711 70.0459 17.9499 69.9267C17.9105 69.7901 17.8785 69.6516 17.8538 69.5116C17.8264 69.3504 17.7818 69.1686 17.7646 68.9559C17.6985 68.4695 17.6721 67.9784 17.6857 67.4877C17.7067 66.8871 17.7779 66.2893 17.8984 65.7005C18.0271 65.1148 18.205 64.5411 18.4301 63.9853C18.6186 63.5328 18.8422 63.0958 19.099 62.6784C19.2019 62.4965 19.3151 62.3353 19.4078 62.205C19.5004 62.0746 19.5896 61.9545 19.6616 61.8619C19.7326 61.764 19.8143 61.6742 19.9052 61.5944C19.9326 61.6115 19.6067 62.0163 19.1985 62.7332C18.9625 63.155 18.7539 63.5916 18.5742 64.0402C18.3606 64.5923 18.1897 65.16 18.0631 65.7382C17.9425 66.3169 17.8679 66.9042 17.8401 67.4946C17.8209 67.9775 17.8347 68.4611 17.8813 68.9422C17.967 69.7655 18.0974 70.2629 18.0631 70.2697Z" fill="#263238"/>
<path d="M27.0269 68.3895C26.895 68.4252 26.7585 68.4403 26.6221 68.4341C26.252 68.4393 25.8833 68.3896 25.5278 68.2866C24.3483 67.9196 23.3248 67.17 22.6188 66.1564C21.9388 65.1453 21.4483 64.019 21.1712 62.8324C21.0546 62.3795 20.9791 62.0125 20.9311 61.7587C20.8978 61.6273 20.8794 61.4927 20.8762 61.3573C20.9282 61.481 20.9673 61.6098 20.9929 61.7415C21.0615 61.9919 21.1541 62.3555 21.2844 62.798C21.5899 63.9598 22.0873 65.0624 22.7561 66.0603C23.2165 66.7746 23.8487 67.362 24.5948 67.7689C25.3409 68.1758 26.177 68.3892 27.0269 68.3895Z" fill="#263238"/>
<path d="M36.9303 65.3226C36.9497 65.4546 36.9497 65.5886 36.9303 65.7206C36.9081 66.0859 36.8483 66.448 36.752 66.8011C36.6847 67.0457 36.6033 67.2862 36.5084 67.5215C36.4067 67.7986 36.2657 68.0597 36.0899 68.2968C35.9813 68.4291 35.8374 68.5279 35.6748 68.5815C35.5037 68.6243 35.3246 68.6243 35.1534 68.5815C34.8104 68.5094 34.5085 68.3859 34.1655 68.3139C33.5324 68.1631 32.8792 68.1144 32.2307 68.1698C31.7017 68.2123 31.1811 68.3277 30.6837 68.5129C30.226 68.7041 29.7804 68.9229 29.3492 69.1681C29.4463 69.0758 29.5519 68.9931 29.6648 68.9211C29.9692 68.7186 30.2919 68.5452 30.6288 68.4031C31.1325 68.1948 31.6642 68.0619 32.2067 68.0086C32.8718 67.9439 33.543 67.9903 34.1929 68.1458C34.5359 68.2144 34.879 68.3448 35.1774 68.4134C35.3225 68.4512 35.4749 68.4512 35.6199 68.4134C35.7543 68.3702 35.8734 68.2892 35.963 68.1801C36.1322 67.9579 36.2696 67.7131 36.3712 67.4529C36.4775 67.2059 36.5599 66.9726 36.6285 66.7668C36.7604 66.2925 36.8612 65.8101 36.9303 65.3226Z" fill="#263238"/>
<path d="M30.0076 61.2198C29.9134 61.2719 29.8132 61.3122 29.7092 61.3399C29.5102 61.4085 29.2255 61.4977 28.8687 61.5972C27.0018 62.1138 25.0822 62.4165 23.1469 62.4994C22.7764 62.4994 22.4608 62.5165 22.2687 62.4994C22.1607 62.5059 22.0522 62.4979 21.9463 62.4754C22.3417 62.4153 22.7403 62.3786 23.1401 62.3656C23.8776 62.3073 24.893 62.2078 26.0078 62.0226C27.1227 61.8373 28.1175 61.6315 28.8379 61.46C29.2233 61.3593 29.6137 61.2791 30.0076 61.2198Z" fill="#263238"/>
<path d="M22.9652 60.668C22.9378 60.668 22.9206 60.4588 22.8211 60.2255C22.7216 59.9923 22.5879 59.831 22.6084 59.8105C22.629 59.7899 22.8074 59.9305 22.9137 60.1844C22.9937 60.3326 23.0122 60.5063 22.9652 60.668Z" fill="#FAFAFA"/>
<path d="M23.9772 62.3072C24.0337 62.0273 24.0545 61.7415 24.039 61.4564C23.9915 61.1758 23.9109 60.9017 23.7988 60.64C24.0035 60.8606 24.1248 61.1457 24.1419 61.4462C24.191 61.7436 24.1326 62.0488 23.9772 62.3072Z" fill="#FAFAFA"/>
<path d="M25.8569 62.1053C25.9678 61.6176 25.9678 61.1112 25.8569 60.6234C25.7132 60.1434 25.4622 59.7023 25.1228 59.3336C25.2556 59.4111 25.3721 59.5136 25.4658 59.6355C25.696 59.9152 25.8622 60.2419 25.9529 60.5926C26.0478 60.946 26.0654 61.3157 26.0044 61.6766C25.9854 61.8281 25.9352 61.9742 25.8569 62.1053Z" fill="#FAFAFA"/>
<path d="M28.1725 61.5593C28.1995 61.0619 28.1218 60.5643 27.9445 60.0987C27.7673 59.6331 27.4944 59.2098 27.1434 58.8562C27.2734 58.9334 27.3893 59.032 27.4865 59.1478C27.731 59.4142 27.922 59.7251 28.049 60.0637C28.1773 60.4011 28.2424 60.7593 28.2411 61.1202C28.2438 61.2695 28.2206 61.418 28.1725 61.5593Z" fill="#FAFAFA"/>
<path d="M18.1731 60.0091C18.1369 59.9268 18.1202 59.8372 18.1244 59.7473C18.1286 59.6574 18.1535 59.5698 18.1972 59.4911C18.3138 59.2098 18.5402 59.0898 18.5573 59.1172C18.4571 59.2469 18.3676 59.3846 18.2898 59.5289C18.2396 59.686 18.2006 59.8465 18.1731 60.0091Z" fill="#FAFAFA"/>
<path d="M16.7254 60.9864C16.6908 60.8684 16.6805 60.7446 16.6953 60.6225C16.71 60.5004 16.7494 60.3826 16.8112 60.2763C16.9032 60.0454 17.0816 59.8596 17.3086 59.7583C17.1527 59.9286 17.0169 60.1162 16.9038 60.3174C16.8177 60.5325 16.7578 60.757 16.7254 60.9864Z" fill="#FAFAFA"/>
<path d="M14.9382 60.2727C14.9055 60.1085 14.9055 59.9395 14.9382 59.7753C14.9826 59.3715 15.1212 58.9837 15.343 58.6433C15.5667 58.3029 15.8661 58.0188 16.2177 57.8132C16.3587 57.7223 16.516 57.6594 16.6808 57.6279C16.6808 57.6279 16.5093 57.7103 16.2554 57.8749C15.9255 58.0886 15.6439 58.369 15.4289 58.6981C15.2138 59.0272 15.07 59.3976 15.0068 59.7856C14.9485 60.0841 14.9553 60.2727 14.9382 60.2727Z" fill="#FAFAFA"/>
<path d="M13.6039 59.8377C13.5799 59.7976 13.5636 59.7534 13.5559 59.7074C13.5245 59.5844 13.5016 59.4595 13.4873 59.3334C13.449 58.917 13.4945 58.4971 13.6211 58.0985C13.7488 57.6997 13.9579 57.3318 14.2351 57.018C14.318 56.9236 14.4086 56.8364 14.5061 56.7572C14.5397 56.7255 14.5779 56.6989 14.6193 56.6783C14.6193 56.6783 14.4821 56.819 14.2763 57.066C13.7664 57.707 13.5078 58.512 13.549 59.33C13.573 59.6422 13.6039 59.8308 13.6039 59.8377Z" fill="#FAFAFA"/>
<path d="M18.6843 63.3882C18.6603 63.3882 18.5951 63.3402 18.499 63.2887C18.403 63.2373 18.3138 63.2098 18.3172 63.1824C18.3207 63.1549 18.4304 63.1343 18.5471 63.1824C18.6637 63.2304 18.7083 63.3745 18.6843 63.3882Z" fill="#FAFAFA"/>
<path d="M20.0048 63.9063C19.9084 63.9929 19.7955 64.0592 19.6729 64.101C19.5503 64.1429 19.4205 64.1595 19.2913 64.1499C19.161 64.1577 19.0306 64.1383 18.9083 64.0928C18.786 64.0473 18.6746 63.9768 18.5812 63.8857C18.8086 63.9744 19.0479 64.0288 19.2913 64.047C19.5346 64.0346 19.7749 63.9873 20.0048 63.9063Z" fill="#FAFAFA"/>
<path d="M18.1045 64.7771C18.0771 64.7771 18.0291 64.6811 17.9022 64.6296C17.7752 64.5781 17.6689 64.6124 17.6552 64.5884C17.6414 64.5644 17.7718 64.4649 17.9433 64.537C18.1148 64.609 18.1354 64.7805 18.1045 64.7771Z" fill="#FAFAFA"/>
<path d="M19.8127 65.6378C19.8127 65.6378 19.7029 65.5898 19.5245 65.5349C19.2943 65.463 19.049 65.4547 18.8145 65.5109C18.5835 65.5675 18.3724 65.6861 18.2039 65.8539C18.0735 65.9843 18.0152 66.0906 18.0015 66.0803C18.0227 65.9764 18.074 65.8809 18.149 65.8059C18.3154 65.6072 18.5409 65.4668 18.7926 65.4051C19.0443 65.3434 19.3091 65.3636 19.5486 65.4628C19.651 65.4958 19.7424 65.5564 19.8127 65.6378Z" fill="#FAFAFA"/>
<path d="M17.5828 67.4116C17.5152 67.4416 17.4412 67.4541 17.3675 67.4481C17.2938 67.4422 17.2228 67.4178 17.1609 67.3773C16.9345 67.2606 16.859 67.0582 16.883 67.0514C16.9071 67.0445 17.0134 67.1886 17.2055 67.2846C17.3976 67.3807 17.5794 67.3807 17.5828 67.4116Z" fill="#FAFAFA"/>
<path d="M20.2038 68.0152C19.7808 67.9549 19.3503 67.9746 18.9346 68.0735C18.5292 68.2026 18.1504 68.4036 17.8163 68.667C18.1042 68.3289 18.4875 68.0858 18.916 67.9695C19.3446 67.8532 19.7982 67.8691 20.2175 68.0152H20.2038Z" fill="#FAFAFA"/>
<path d="M21.2707 69.9294C21.2707 69.9294 21.2706 69.9946 21.2089 70.0941C21.1282 70.2356 21.0197 70.3593 20.8899 70.4577C20.6966 70.6045 20.4763 70.7118 20.2415 70.7733C19.9558 70.8394 19.6635 70.8728 19.3702 70.8728C19.0615 70.8728 18.7699 70.8728 18.5058 70.8728C18.2734 70.8855 18.0432 70.9246 17.8197 70.9894C17.6172 71.0617 17.4238 71.1572 17.2434 71.2741C17.2784 71.2261 17.3213 71.1843 17.3703 71.1507C17.4997 71.0519 17.6446 70.9754 17.7991 70.9242C18.0202 70.8454 18.251 70.7969 18.4852 70.7802C18.7562 70.7562 19.0478 70.763 19.3565 70.7562C19.6415 70.7598 19.9259 70.7299 20.2038 70.667C20.4287 70.6147 20.6417 70.5204 20.8316 70.3891C21.0069 70.2665 21.1562 70.1102 21.2707 69.9294Z" fill="#FAFAFA"/>
<path d="M22.7422 72.2798C22.7038 72.3426 22.659 72.4012 22.6084 72.4547C22.4808 72.6057 22.3395 72.7447 22.1865 72.8698C21.6839 73.2946 21.0993 73.6115 20.4691 73.8009C19.8388 73.9903 19.1764 74.0482 18.5229 73.971C18.3253 73.9503 18.13 73.9113 17.9397 73.8543C17.8682 73.8395 17.799 73.8153 17.7339 73.7823C17.7339 73.7651 18.0358 73.8543 18.5297 73.8989C19.1735 73.9549 19.822 73.8874 20.4404 73.7C21.0633 73.5152 21.6454 73.2137 22.1556 72.8115C22.5227 72.5062 22.7251 72.2558 22.7422 72.2798Z" fill="#FAFAFA"/>
<path d="M23.1609 75.0406C23.1241 75.1064 23.0779 75.1665 23.0236 75.219C22.8899 75.374 22.7479 75.5218 22.5983 75.6615C22.1104 76.147 21.4855 76.4715 20.8076 76.5911C20.4326 76.6279 20.0541 76.6059 19.6859 76.5259C19.3429 76.4642 19.0479 76.4024 18.794 76.375C18.5181 76.3446 18.2397 76.3446 17.9639 76.375C18.0338 76.345 18.1078 76.3253 18.1834 76.3167C18.3885 76.2926 18.5958 76.2926 18.8009 76.3167C19.0616 76.3373 19.3669 76.3922 19.7031 76.4505C20.0621 76.5212 20.4295 76.5397 20.7939 76.5054C21.4532 76.3881 22.0637 76.0804 22.5503 75.6203C22.9379 75.2704 23.1506 75.0269 23.1609 75.0406Z" fill="#FAFAFA"/>
<path d="M21.2465 62.6816C21.2465 62.7125 20.9893 62.6611 20.684 62.7194C20.3787 62.7777 20.1591 62.908 20.142 62.884C20.2867 62.7469 20.4681 62.6548 20.6642 62.6189C20.8603 62.583 21.0626 62.6048 21.2465 62.6816Z" fill="#FAFAFA"/>
<path d="M22.5226 63.3368C22.5501 63.3368 22.4506 63.5975 22.159 63.721C22.0784 63.7664 21.9874 63.7902 21.8949 63.7902C21.8023 63.7902 21.7114 63.7664 21.6307 63.721C21.7969 63.7124 21.9609 63.6801 22.1179 63.6249C22.358 63.522 22.4815 63.3368 22.5226 63.3368Z" fill="#FAFAFA"/>
<path d="M22.0217 65.2747C21.7734 65.2181 21.5128 65.2622 21.2969 65.3971C21.0809 65.5321 20.9271 65.7471 20.8691 65.9951C20.8691 65.9951 20.8451 65.9024 20.8897 65.7618C20.95 65.5775 21.0709 65.4191 21.2327 65.3124C21.3979 65.2077 21.5948 65.1651 21.7885 65.1924C21.9463 65.2129 22.0252 65.261 22.0217 65.2747Z" fill="#FAFAFA"/>
<path d="M24.2174 65.0724C24.1395 65.3679 23.9582 65.6256 23.7064 65.7987C23.4546 65.9718 23.149 66.0488 22.8452 66.0157C23.1284 65.967 23.3997 65.8645 23.6445 65.7139C23.8739 65.5378 24.0683 65.3202 24.2174 65.0724Z" fill="#FAFAFA"/>
<path d="M24.358 67.6722C24.2637 67.6767 24.1698 67.6871 24.0767 67.7031C23.8609 67.7689 23.6697 67.898 23.5279 68.0736C23.3641 68.2312 23.2283 68.4157 23.1265 68.619C23.1072 68.7094 23.1072 68.803 23.1265 68.8934C23.1265 68.8934 23.027 68.7974 23.0682 68.6018C23.1523 68.3753 23.2872 68.1711 23.4627 68.005C23.6184 67.8152 23.8335 67.6834 24.0733 67.6311C24.2551 67.6036 24.3649 67.6619 24.358 67.6722Z" fill="#FAFAFA"/>
<path d="M26.7868 65.8301C26.8562 65.9495 26.8973 66.0833 26.9069 66.2211C26.9554 66.5547 26.9115 66.8953 26.7799 67.2057C26.647 67.5155 26.4324 67.7834 26.159 67.9809C26.0525 68.0693 25.9268 68.1315 25.792 68.1627C25.792 68.1627 25.9258 68.0804 26.1144 67.9226C26.3628 67.7203 26.5592 67.4615 26.6873 67.1679C26.8099 66.8718 26.8615 66.5511 26.8383 66.2314C26.8177 65.9844 26.7696 65.8369 26.7868 65.8301Z" fill="#FAFAFA"/>
<path d="M29.2737 68.5783C29.2566 68.5783 29.3526 68.3484 29.4178 67.9677C29.5047 67.4717 29.4765 66.9623 29.3355 66.4789C29.1905 65.9977 28.9383 65.5555 28.598 65.1857C28.3338 64.9009 28.1314 64.7637 28.1417 64.75C28.1962 64.7705 28.2472 64.7994 28.2927 64.8358C28.4148 64.9259 28.5295 65.0257 28.6357 65.1342C29.0608 65.5551 29.3525 66.0919 29.4745 66.6775C29.5965 67.2631 29.5434 67.8717 29.3218 68.4273C29.3081 68.5268 29.2806 68.5817 29.2737 68.5783Z" fill="#FAFAFA"/>
<path d="M32.7212 67.7961C32.7349 67.541 32.7624 67.2868 32.8035 67.0346C32.8897 66.4305 32.8897 65.8172 32.8035 65.2131C32.7051 64.6127 32.4208 64.0584 31.9905 63.6283C31.8021 63.4601 31.5936 63.3161 31.3696 63.1995C31.4386 63.2077 31.5051 63.2299 31.5652 63.2646C31.738 63.3425 31.8976 63.4466 32.0386 63.5734C32.497 64.0047 32.8007 64.5749 32.903 65.1959C32.9955 65.8095 32.9874 66.434 32.879 67.0449C32.8447 67.2782 32.8069 67.4668 32.7795 67.5972C32.7675 67.6655 32.748 67.7322 32.7212 67.7961Z" fill="#FAFAFA"/>
<path d="M31.0128 62.2285C31.0128 62.256 30.8619 62.3143 30.6698 62.3589C30.4777 62.4035 30.3027 62.4206 30.2959 62.3932C30.289 62.3658 30.4468 62.3074 30.6389 62.2628C30.831 62.2183 31.006 62.2011 31.0128 62.2285Z" fill="#FAFAFA"/>
<path d="M38.8512 69.2302C38.7986 69.2783 38.7411 69.3209 38.6797 69.3571C38.5204 69.4659 38.3517 69.5601 38.1754 69.6384C37.5927 69.9039 36.96 70.0419 36.3196 70.0432C35.6795 70.0458 35.046 69.9138 34.4603 69.6556C34.2847 69.5774 34.116 69.4844 33.9561 69.3777C33.8937 69.3429 33.836 69.3003 33.7845 69.2508C33.7845 69.2336 34.0453 69.4051 34.4912 69.5938C35.6624 70.076 36.9767 70.076 38.148 69.5938C38.5905 69.3846 38.8375 69.213 38.8512 69.2302Z" fill="#FAFAFA"/>
<path d="M39.534 72.5986C39.534 72.5986 39.2905 72.5986 38.8994 72.5986C38.3921 72.5913 37.885 72.6257 37.3832 72.7015C36.8832 72.7839 36.391 72.9078 35.9116 73.072C35.5411 73.1989 35.3181 73.2984 35.3113 73.2813C35.3562 73.2459 35.4058 73.217 35.4588 73.1955C35.5984 73.1253 35.7415 73.0624 35.8876 73.0068C36.3653 72.8181 36.8622 72.6824 37.3695 72.602C37.8766 72.5232 38.3905 72.4979 38.9029 72.5266C39.0984 72.5266 39.2459 72.5574 39.366 72.5746C39.4229 72.5738 39.4796 72.5819 39.534 72.5986Z" fill="#FAFAFA"/>
<path d="M36.4089 67.0243C36.3917 67.0243 36.4466 66.8082 36.4466 66.4618C36.441 66.0087 36.3587 65.5598 36.2031 65.1342C36.0428 64.7085 35.8501 64.2956 35.6268 63.8993C35.5284 63.7373 35.4434 63.5675 35.3729 63.3916C35.493 63.539 35.5987 63.6975 35.6885 63.865C35.9316 64.2554 36.135 64.6691 36.2957 65.0999C36.4609 65.5378 36.5367 66.0044 36.5187 66.4721C36.5119 66.613 36.4924 66.7531 36.4604 66.8906C36.4518 66.938 36.4344 66.9834 36.4089 67.0243Z" fill="#FAFAFA"/>
<path d="M40.1205 75.1125C40.1205 75.1125 40.0724 75.1536 39.9798 75.2085C39.8459 75.2867 39.7073 75.3566 39.5647 75.4178C39.0931 75.62 38.5954 75.7551 38.0863 75.8191C37.5763 75.8821 37.0599 75.8717 36.5529 75.7882C36.3997 75.7663 36.2483 75.7331 36.1001 75.6888C36.0434 75.6785 35.9889 75.6588 35.9388 75.6304C35.9388 75.6133 36.179 75.6716 36.5632 75.7196C37.5705 75.8381 38.5915 75.7086 39.5373 75.3423C39.8975 75.2119 40.1136 75.0987 40.1205 75.1125Z" fill="#FAFAFA"/>
<g opacity="0.3">
<path opacity="0.3" d="M36.3883 77.3259C36.9312 76.5488 37.2739 75.6497 37.3858 74.7083C37.4977 73.767 37.3754 72.8126 37.0297 71.9299C36.308 70.1639 34.9152 68.7562 33.1569 68.0159C33.9899 71.1853 35.021 74.2993 36.2442 77.3396" fill="black"/>
</g>
<g opacity="0.3">
<path opacity="0.3" d="M20.979 61.6216C21.2939 62.9041 21.9141 64.0916 22.7868 65.0828C23.6673 66.076 24.8698 66.7271 26.1829 66.9215C26.5 66.9315 26.8132 66.9953 27.1091 67.1102C27.2547 67.1727 27.375 67.2826 27.4503 67.4221C27.5257 67.5616 27.5517 67.7224 27.5241 67.8786C27.4041 68.2628 26.8998 68.3485 26.495 68.3176C25.7519 68.2453 25.0305 68.0261 24.3728 67.6728C23.715 67.3195 23.1339 66.8391 22.6633 66.2594C21.7274 65.0828 21.2139 63.6259 21.2054 62.1224" fill="black"/>
</g>
<g opacity="0.3">
<path opacity="0.3" d="M21.0648 61.1269C21.1485 61.04 21.2559 60.9796 21.3736 60.9534C21.4913 60.9272 21.6142 60.9362 21.7268 60.9794C21.9501 61.0679 22.1523 61.2023 22.3203 61.3739C22.4912 61.543 22.691 61.6801 22.9103 61.7787C23.0853 61.8404 23.3151 61.8884 23.3494 62.0702C23.3549 62.1272 23.3432 62.1845 23.3156 62.2347C23.2881 62.2849 23.2461 62.3256 23.195 62.3515C23.0877 62.402 22.9707 62.4289 22.852 62.4304C22.57 62.4886 22.2769 62.4599 22.0116 62.3481C21.8059 62.2011 21.633 62.0131 21.5039 61.7958C21.4394 61.6876 21.3525 61.5946 21.2489 61.5229C21.1453 61.4513 21.0275 61.4028 20.9036 61.3807" fill="black"/>
</g>
<g opacity="0.3">
<path opacity="0.3" d="M19.2021 61.8136C18.2466 62.9495 17.5727 64.295 17.2353 65.7405C16.898 67.186 16.9066 68.6907 17.2605 70.1322C17.2822 70.2689 17.3559 70.3918 17.4663 70.4753C17.514 70.493 17.5648 70.501 17.6156 70.4986C17.6664 70.4962 17.7162 70.4836 17.7621 70.4615C17.8079 70.4394 17.8487 70.4083 17.8822 70.3699C17.9157 70.3316 17.9411 70.2869 17.9568 70.2386C18.0101 70.0385 18.0101 69.828 17.9568 69.628C17.7515 68.2746 17.8245 66.8936 18.1713 65.5694C18.5181 64.2452 19.1315 63.0057 19.9739 61.9268" fill="black"/>
</g>
</svg>
