<svg width="29" height="35" fill="none" xmlns="http://www.w3.org/2000/svg"><path d="M24.22 18.594c.05 5.297 4.728 7.06 4.78 7.082-.04.124-.747 2.512-2.465 4.978-1.484 2.132-3.025 4.256-5.452 4.3-2.385.044-3.151-1.39-5.878-1.39-2.726 0-3.578 1.346-5.835 1.434-2.343.087-4.127-2.306-5.623-4.43-3.059-4.346-5.396-12.28-2.258-17.634 1.56-2.66 4.346-4.344 7.37-4.387 2.3-.043 4.472 1.52 5.878 1.52 1.405 0 4.044-1.88 6.818-1.604 1.161.048 4.42.461 6.514 3.472-.169.103-3.89 2.231-3.85 6.66zM19.738 5.588C20.982 4.108 21.818 2.05 21.59 0c-1.792.07-3.96 1.174-5.246 2.653-1.152 1.31-2.162 3.405-1.89 5.414 1.999.151 4.04-.998 5.284-2.479" fill="#24263B"/></svg>