<svg width="77" height="11" fill="none" xmlns="http://www.w3.org/2000/svg"><path fill-rule="evenodd" clip-rule="evenodd" d="M42.032 4.876s-.746-.432-1.207-.599c0 0-1.427-.619-1.71-.913 0 0-.557-.49-.231-1.06 0 0 .136-.373.724-.373 0 0 .765.04.765.628v.83h2.743l-.005-1.223s.212-2.002-3.23-2.09c0 0-2.707-.167-3.484 1.198 0 0-.304.304-.304 1.364v.765s-.031.884.45 1.453c0 0 .273.373.945.785 0 0 1.364.687 2.182 1.08 0 0 .826.442.718 1.144 0 0-.068.72-.865.691 0 0-.73-.03-.73-.737v-.83H35.87v1.205S35.79 10.5 39.544 10.5c0 0 3.589.068 3.756-2.365v-.982s.127-1.49-1.268-2.276zM27.99.363l-.919 5.384h-.215L25.98.411h-4.582l-.23 9.751h2.713l.033-7.347h.213l1.438 7.346h2.854l1.42-7.343h.19l.065 7.344h2.727l-.294-9.8H27.99zm-16.148.04l-1.805 9.748h2.92l1.07-7.558h.24l1.068 7.558h2.92L16.45.404h-4.608zm61.277 4.338V6.18h.749v1.544c0 .754-.69.768-.69.768-.838 0-.806-.717-.806-.717V2.435c0-.55.744-.58.744-.58.713 0 .718.657.718.657v.812h2.75c.09-1.585-.248-1.969-.248-1.969C75.654-.078 73.074.001 73.074.001c-3.965 0-3.525 2.846-3.525 2.846v5.162c.085 2.67 3.992 2.399 4.058 2.396 1.738-.18 2.263-.696 2.263-.696.483-.336.607-.801.607-.801.138-.27.173-1.134.173-1.134V4.741h-3.531zm-9.114 1.587h-.12L61.095.365h-3.338v9.798h2.717l-.163-5.961h.121l2.891 5.961h3.237V.365H63.81l.196 5.963zm-12.88 1.394s.038.804-.758.804c0 0-.838.042-.838-.784l-.01-7.37h-2.98v7.311s-.305 2.768 3.87 2.768c0 0 3.627.04 3.627-2.64V.37h-2.912v7.351zM6.16 4.876s-.745-.432-1.206-.598c0 0-1.427-.619-1.71-.914 0 0-.556-.491-.23-1.06 0 0 .136-.372.723-.372 0 0 .766.039.766.627v.83h2.744l-.005-1.223S7.452.164 4.01.076c0 0-.26-.015-.64.003 0 0-2.084.104-2.829 1.174-.004.008-.01.014-.015.021 0 0-.304.304-.304 1.364v.766s-.032.883.451 1.452c0 0 .273.374.944.785 0 0 1.364.687 2.182 1.08 0 0 .827.441.718 1.144 0 0-.068.721-.865.692 0 0-.73-.03-.73-.738v-.83H0v1.206S-.082 10.5 3.674 10.5c0 0 3.587.068 3.756-2.365v-.98c0-.002.125-1.494-1.27-2.28z" fill="#24263B"/></svg>